<?xml version="1.0" standalone="no"?>
<!DOCTYPE svg PUBLIC "-//W3C//DTD SVG 20010904//EN"
 "http://www.w3.org/TR/2001/REC-SVG-20010904/DTD/svg10.dtd">
<svg version="1.0" xmlns="http://www.w3.org/2000/svg"
 width="700.000000pt" height="700.000000pt" viewBox="0 0 700.000000 700.000000"
 preserveAspectRatio="xMidYMid meet">
<metadata>
Created by potrace 1.11, written by Peter Selinger 2001-2013
</metadata>
<g transform="translate(0.000000,700.000000) scale(0.100000,-0.100000)"
fill="#000000" stroke="none">
<path d="M4379 6996 c-2 -2 -20 -7 -39 -10 -93 -15 -285 -74 -400 -123 -257
-109 -587 -342 -843 -595 -92 -91 -106 -94 -201 -49 -177 86 -488 190 -691
230 -153 30 -176 32 -385 36 -163 3 -210 0 -285 -16 -160 -34 -272 -78 -390
-154 -136 -86 -279 -253 -347 -402 -65 -143 -91 -253 -114 -473 -11 -109 -6
-369 10 -535 19 -188 76 -428 154 -650 35 -101 47 -146 41 -162 -4 -12 -45
-60 -91 -106 -264 -268 -448 -496 -544 -677 -13 -25 -29 -52 -34 -60 -19 -28
-97 -205 -118 -265 -11 -33 -39 -124 -61 -202 -40 -138 -41 -145 -41 -294 0
-158 5 -185 61 -354 47 -140 150 -304 253 -405 178 -173 364 -269 721 -369
199 -56 242 -71 257 -89 9 -9 23 -51 33 -92 45 -191 124 -391 212 -538 160
-267 430 -500 675 -583 140 -48 213 -59 375 -59 139 0 167 3 276 30 373 93
658 246 1004 537 68 57 131 104 140 104 33 2 48 -3 178 -63 267 -124 488 -201
695 -242 178 -35 280 -44 485 -41 398 6 674 99 883 299 159 152 254 348 307
631 23 125 23 410 1 555 -47 298 -124 548 -305 982 -49 118 -59 151 -52 171 5
13 43 58 84 100 369 378 614 796 682 1163 9 49 20 105 26 125 5 20 9 105 9
188 0 159 -11 226 -60 365 -81 229 -240 419 -472 564 -127 79 -251 131 -499
207 -48 14 -94 34 -102 43 -8 9 -27 69 -42 132 -68 280 -165 504 -298 680 -60
80 -202 220 -277 273 -118 83 -260 142 -443 186 -43 10 -418 16 -428 7z m256
-310 c340 -49 606 -354 714 -818 11 -46 18 -85 16 -87 -2 -2 -120 -5 -262 -7
-142 -2 -283 -6 -313 -8 -98 -8 -231 -23 -280 -31 -28 -5 -69 -11 -145 -20
-27 -4 -127 -22 -222 -41 -227 -45 -214 -43 -249 -29 -24 10 -583 373 -603
391 -16 15 457 400 519 422 8 3 22 11 30 18 23 20 207 108 285 137 92 34 208
65 269 72 28 3 51 7 52 8 5 5 142 -1 189 -7z m-2710 -731 c97 -10 264 -41 355
-65 127 -34 350 -120 350 -135 0 -3 -39 -64 -86 -137 -48 -73 -107 -164 -132
-203 -259 -399 -312 -475 -349 -498 -21 -13 -101 -62 -178 -107 -190 -112
-401 -253 -574 -383 -79 -60 -149 -111 -155 -113 -11 -4 -46 83 -93 231 -39
125 -66 241 -79 340 -3 28 -8 59 -10 70 -2 11 -5 79 -5 150 -1 297 66 507 209
653 93 95 206 155 357 189 85 19 255 22 390 8z m1157 -416 c88 -50 156 -95
151 -99 -4 -4 -33 -17 -63 -28 -30 -11 -165 -64 -298 -117 -134 -53 -248 -95
-253 -93 -8 3 289 426 300 427 2 1 75 -40 163 -90z m2256 -189 c39 -2 72 -6
73 -9 0 -3 3 -15 5 -26 6 -26 5 -291 -1 -370 -8 -108 -17 -208 -20 -224 -1 -9
-6 -47 -10 -86 -12 -132 -43 -304 -56 -319 -4 -4 -31 16 -59 45 -29 30 -177
182 -330 339 -506 519 -559 574 -556 577 4 4 94 20 156 28 30 4 57 8 60 10 3
1 41 6 84 10 43 4 88 9 100 11 12 3 86 7 166 11 80 3 146 6 147 7 3 2 147 0
241 -4z m682 -119 c270 -90 437 -207 560 -388 85 -127 120 -254 115 -417 -8
-252 -140 -558 -364 -846 -105 -136 -287 -338 -295 -329 -2 2 -70 110 -151
239 -167 266 -158 235 -116 410 11 47 22 97 24 110 3 14 13 63 22 110 9 47 18
94 20 105 5 26 33 218 39 270 3 22 8 76 11 120 4 44 8 91 11 105 2 14 4 143 5
288 1 144 2 262 3 262 1 0 53 -17 116 -39z m-2172 -224 c267 -214 638 -565
858 -812 85 -95 271 -318 314 -375 14 -19 37 -48 51 -64 50 -60 79 -111 79
-141 0 -37 -102 -329 -193 -550 -83 -203 -205 -464 -288 -615 -22 -41 -59
-109 -80 -150 -22 -41 -50 -82 -63 -92 -36 -26 -325 -154 -521 -229 -270 -105
-510 -180 -851 -268 -25 -7 -37 -4 -66 18 -108 81 -412 369 -608 577 -135 144
-174 187 -280 314 -58 69 -107 127 -110 130 -3 3 -28 34 -55 70 -27 36 -52 67
-55 70 -5 5 -90 119 -134 181 -12 16 -38 54 -59 83 -21 29 -39 68 -42 86 -4
35 57 250 125 440 23 63 45 127 50 141 25 83 156 389 240 564 38 78 41 82 117
127 72 42 188 105 273 148 19 10 62 31 95 48 297 150 979 407 1053 397 23 -3
69 -33 150 -98z m-2128 -860 c0 -2 -39 -111 -86 -243 -47 -131 -92 -259 -101
-284 -8 -25 -16 -46 -18 -48 -3 -3 -27 38 -82 138 -11 19 -35 61 -53 93 -22
40 -29 62 -22 69 5 5 84 70 174 143 140 114 188 148 188 132z m-575 -572 c19
-31 35 -58 35 -61 0 -2 34 -61 75 -130 41 -69 75 -127 75 -129 0 -2 14 -26 31
-54 27 -44 31 -57 26 -98 -3 -26 -8 -57 -10 -68 -11 -39 -55 -271 -61 -315 -4
-25 -9 -56 -11 -70 -8 -42 -13 -82 -20 -140 -3 -30 -8 -62 -10 -70 -2 -8 -6
-53 -10 -100 -3 -47 -8 -107 -11 -135 -3 -27 -7 -156 -9 -285 -1 -129 -3 -238
-4 -242 0 -3 -13 -2 -28 3 -189 61 -247 87 -358 160 -124 81 -214 181 -274
303 -27 55 -55 128 -62 161 -22 100 -17 279 12 390 69 267 233 550 480 829 20
23 48 56 64 74 16 17 30 32 31 32 2 0 19 -25 39 -55z m4415 -547 c14 -24 37
-64 50 -90 25 -47 25 -48 5 -62 -11 -8 -67 -50 -125 -94 -58 -44 -107 -78
-109 -76 -5 4 141 364 148 364 3 0 17 -19 31 -42z m-3670 -559 c201 -239 338
-388 547 -597 134 -133 237 -244 230 -247 -30 -9 -117 -25 -167 -30 -30 -4
-77 -9 -105 -12 -96 -10 -611 -11 -695 -2 -139 16 -143 18 -153 70 -15 82 -11
480 8 659 12 122 16 158 21 195 9 75 24 160 40 227 l16 67 106 -138 c59 -76
127 -162 152 -192z m3956 -22 c108 -257 186 -510 209 -672 3 -22 8 -50 10 -61
15 -71 22 -342 11 -426 -22 -165 -58 -269 -127 -368 -50 -71 -65 -88 -119
-131 -249 -197 -596 -227 -1040 -87 -150 47 -520 206 -520 224 0 3 22 34 49
68 26 33 119 156 204 271 86 116 160 215 165 220 19 24 130 184 153 220 65
101 81 128 100 163 57 100 161 270 182 294 12 14 164 121 337 236 247 166 317
208 323 196 5 -8 33 -74 63 -147z m-1616 -725 c0 -5 -26 -39 -58 -78 -32 -38
-125 -152 -206 -254 -82 -102 -152 -189 -157 -194 -6 -7 -337 213 -382 254 -7
6 25 20 133 57 98 35 459 155 470 158 8 2 15 4 15 5 0 2 161 57 173 59 6 0 12
-3 12 -7z m-1150 -422 c41 -30 80 -58 85 -63 6 -4 94 -69 197 -143 112 -80
185 -140 182 -147 -9 -20 -217 -184 -334 -262 -154 -104 -393 -217 -506 -239
-10 -3 -50 -11 -89 -20 -151 -34 -317 -23 -451 32 -236 96 -400 298 -514 632
-12 36 -26 74 -30 85 -11 26 -23 69 -21 75 0 3 106 5 234 6 202 0 313 5 423
19 16 2 58 6 94 10 36 3 76 8 90 10 14 3 50 7 80 10 30 3 66 8 80 10 14 2 51
7 83 10 32 4 66 8 75 10 9 1 46 6 82 10 36 4 67 8 68 10 2 2 25 3 50 1 39 -2
60 -11 122 -56z"/>
<path d="M3450 3883 c-54 -9 -137 -46 -180 -81 -111 -91 -161 -191 -161 -329
0 -152 70 -280 199 -362 69 -43 139 -61 230 -57 315 13 492 376 317 651 -51
81 -142 148 -230 170 -36 9 -140 13 -175 8z"/>
</g>
</svg>
