<?xml version="1.0" standalone="no"?>
<!DOCTYPE svg PUBLIC "-//W3C//DTD SVG 20010904//EN"
 "http://www.w3.org/TR/2001/REC-SVG-20010904/DTD/svg10.dtd">
<svg version="1.0" xmlns="http://www.w3.org/2000/svg"
 width="256.000000pt" height="256.000000pt" viewBox="0 0 256.000000 256.000000"
 preserveAspectRatio="xMidYMid meet">
<metadata>
Created by potrace 1.11, written by Peter Selinger 2001-2013
</metadata>
<g transform="translate(0.000000,256.000000) scale(0.100000,-0.100000)"
fill="#000000" stroke="none">
<path d="M1525 2539 c-93 -26 -144 -51 -240 -114 -73 -48 -200 -157 -248 -212
l-19 -21 -66 27 c-268 110 -491 120 -620 28 -30 -22 -52 -50 -74 -95 -29 -58
-32 -73 -31 -151 1 -47 8 -111 17 -141 8 -30 18 -66 21 -80 4 -14 38 -89 77
-168 l70 -142 -49 -44 c-180 -163 -277 -295 -313 -430 -24 -88 -16 -216 17
-280 37 -71 141 -137 254 -160 68 -14 71 -16 76 -60 6 -62 42 -184 70 -243 15
-31 52 -83 82 -115 200 -217 522 -170 846 123 55 50 140 137 175 179 14 17 16
17 65 -2 345 -138 614 -97 681 105 45 134 -3 354 -121 562 -44 76 -54 105 -37
105 5 0 54 44 108 98 194 190 285 379 251 517 -30 119 -148 205 -326 236 l-59
11 -5 43 c-9 64 -52 181 -87 236 -106 165 -320 243 -515 188z m212 -181 c24
-11 59 -38 79 -61 42 -48 94 -152 97 -192 2 -30 7 -28 -93 -39 -100 -11 -238
-37 -305 -56 -16 -5 -41 -12 -55 -15 -14 -2 -37 -7 -51 -11 -20 -4 -44 6 -110
48 -46 30 -103 65 -126 78 -24 13 -43 27 -43 31 0 13 123 107 194 148 164 93
310 118 413 69z m-950 -309 l93 -22 -34 -46 c-47 -65 -126 -193 -171 -279 -33
-61 -48 -78 -101 -113 -34 -22 -73 -49 -85 -60 -12 -10 -26 -19 -30 -19 -13 0
-70 131 -90 208 -41 161 -1 281 109 328 84 36 163 36 309 3z m286 -111 l82
-41 -70 -31 c-38 -16 -121 -55 -182 -86 -62 -31 -113 -52 -113 -47 0 23 170
246 188 246 7 1 49 -18 95 -41z m863 -51 c7 -4 10 -25 8 -49 -12 -163 -20
-221 -35 -281 l-10 -37 -97 98 c-53 54 -130 126 -169 161 -40 35 -70 67 -68
71 15 25 340 57 371 37z m277 -87 c109 -96 94 -254 -42 -434 -77 -101 -76
-101 -99 -69 -19 27 -19 27 3 112 19 73 40 162 50 221 2 8 6 49 10 90 10 94
12 114 14 118 4 8 24 -3 64 -38z m-779 -92 c135 -108 272 -236 363 -343 46
-53 46 -55 12 -132 -11 -23 -19 -44 -19 -48 0 -11 -84 -180 -103 -209 -28 -40
-298 -163 -450 -205 -47 -14 -48 -13 -101 22 -134 89 -305 240 -438 388 -121
135 -120 132 -101 177 8 21 24 47 36 60 28 30 210 147 322 207 117 62 333 154
364 155 14 0 59 -28 115 -72z m-934 -410 c-38 -89 -92 -342 -106 -495 -5 -54
-11 -73 -21 -73 -8 0 -38 24 -68 54 -44 44 -55 61 -60 99 -9 60 13 126 74 219
40 61 175 218 187 218 2 0 -1 -10 -6 -22z m141 -128 c82 -98 225 -236 348
-338 l120 -100 -72 -16 c-131 -29 -191 -37 -317 -41 -132 -4 -239 8 -252 28
-7 11 -3 126 6 192 3 17 7 48 10 70 4 22 15 76 26 120 25 98 23 92 39 138 15
44 6 49 92 -53z m1402 -167 c85 -188 95 -328 28 -422 -32 -44 -114 -81 -191
-85 -68 -3 -207 17 -222 32 -6 6 9 35 39 78 72 100 133 204 202 341 81 163 93
167 144 56z m-474 -225 c-67 -94 -111 -151 -124 -160 -12 -9 -168 73 -158 83
5 4 51 25 103 47 52 22 122 54 155 71 33 16 63 30 67 30 5 1 -15 -32 -43 -71z
m-273 -167 l96 -60 -64 -62 c-277 -273 -585 -351 -733 -188 -38 42 -100 163
-107 208 -4 28 -9 26 142 35 146 9 393 61 520 111 19 8 38 14 42 14 4 1 51
-26 104 -58z"/>
<path d="M1122 1380 c-51 -23 -77 -62 -76 -116 0 -52 23 -88 72 -113 95 -48
213 19 208 119 -5 97 -108 153 -204 110z"/>
</g>
</svg>
