<?xml version="1.0" standalone="no"?>
<!DOCTYPE svg PUBLIC "-//W3C//DTD SVG 20010904//EN"
 "http://www.w3.org/TR/2001/REC-SVG-20010904/DTD/svg10.dtd">
<svg version="1.0" xmlns="http://www.w3.org/2000/svg"
 width="150.000000pt" height="150.000000pt" viewBox="0 0 150.000000 150.000000"
 preserveAspectRatio="xMidYMid meet">
<metadata>
Created by potrace 1.11, written by Peter Selinger 2001-2013
</metadata>
<g transform="translate(0.000000,150.000000) scale(0.100000,-0.100000)"
fill="#000000" stroke="none">
<path d="M967 1419 c-59 -14 -135 -57 -256 -146 -14 -11 -26 -9 -67 11 -101
48 -155 61 -255 61 -94 0 -96 -1 -141 -35 -59 -46 -82 -96 -82 -185 0 -82 4
-109 35 -192 l22 -62 -50 -49 c-132 -129 -170 -247 -115 -354 28 -54 70 -90
140 -119 35 -15 48 -26 49 -42 11 -147 87 -232 218 -242 91 -8 205 38 326 131
l56 43 83 -34 c70 -28 185 -54 213 -47 4 1 22 4 40 6 104 14 175 90 184 196 6
63 -16 184 -42 234 -21 40 -20 44 25 88 117 115 157 242 111 345 -22 46 -84
97 -141 114 -34 10 -36 14 -47 70 -26 139 -97 210 -213 214 -30 1 -72 -2 -93
-6z m101 -90 c42 -14 80 -64 84 -113 l3 -38 -100 -3 c-55 -2 -122 -6 -148 -10
-45 -6 -53 -4 -104 30 l-56 37 24 19 c83 66 223 102 297 78z m-523 -124 c28
-9 54 -21 59 -25 4 -5 -16 -37 -44 -72 -41 -48 -72 -73 -131 -105 -43 -23 -98
-55 -123 -72 -25 -17 -47 -31 -50 -31 -11 0 -28 88 -29 145 0 91 33 143 110
171 46 17 138 12 208 -11z m173 -81 c3 -2 -123 -44 -133 -44 -3 0 13 18 35 40
44 44 36 43 98 4z m438 -61 c8 -3 7 -25 -3 -76 -9 -40 -17 -74 -19 -76 -4 -5
-154 145 -154 154 0 7 158 5 176 -2z m155 -54 c11 -5 33 -28 49 -50 25 -35 28
-48 26 -93 -2 -35 -13 -71 -31 -104 -27 -49 -61 -90 -69 -81 -2 2 -19 29 -38
59 l-34 55 18 53 c19 55 20 61 33 130 8 44 14 49 46 31z m-853 -146 c-27 -60
-29 -177 -5 -243 l16 -45 -30 35 c-16 19 -41 51 -55 71 l-24 35 31 65 c40 82
68 129 79 129 5 0 -1 -21 -12 -47z m-90 -59 c-12 -27 -24 -51 -25 -53 -5 -7
-32 32 -33 45 0 11 71 66 77 60 2 -2 -6 -26 -19 -52z m-64 -68 c16 -33 15 -38
-9 -109 -13 -41 -30 -108 -37 -148 -6 -41 -13 -76 -14 -78 -6 -7 -70 39 -82
60 -27 44 -24 109 8 174 32 63 87 134 106 135 7 0 19 -15 28 -34z m891 -117
c5 -21 -1 -28 -48 -57 -29 -17 -56 -32 -59 -32 -4 0 9 26 28 57 18 31 36 65
40 76 6 18 6 18 19 0 8 -11 17 -31 20 -44z m-823 24 c9 -16 51 -64 92 -107 41
-44 73 -83 70 -88 -3 -5 -2 -8 3 -7 20 4 33 -2 33 -15 0 -7 8 -20 18 -27 16
-13 16 -13 2 6 -11 15 -7 14 16 -5 17 -14 30 -26 29 -28 -11 -13 -211 -19
-280 -7 -47 8 -53 13 -58 44 -7 49 35 261 52 261 4 0 14 -12 23 -27z m872
-148 c19 -71 20 -114 4 -167 -14 -46 -68 -97 -106 -99 -85 -5 -110 -3 -175 16
-39 11 -72 25 -73 30 -2 6 21 37 51 70 30 32 55 63 55 68 0 5 7 7 14 4 10 -4
13 -1 9 9 -6 17 30 48 97 83 25 13 56 32 70 42 14 10 28 15 32 11 4 -4 14 -34
22 -67z m-436 -141 c-20 -20 -31 -24 -49 -19 l-24 8 25 9 c14 6 30 11 37 12 7
1 16 5 19 9 4 4 10 7 13 7 3 0 -6 -12 -21 -26z m-85 -39 c15 -9 27 -19 27 -20
0 -2 -32 -25 -71 -50 -124 -83 -213 -104 -275 -66 -38 23 -80 76 -89 111 l-6
25 113 0 c102 0 216 10 226 19 8 9 49 -2 75 -19z"/>
</g>
</svg>
