<svg xmlns="http://www.w3.org/2000/svg" width="934" height="934" viewBox="0 0 700 700" preserveAspectRatio="xMidYMid meet"><path d="M437.9.4c-.2.2-2 .7-3.9 1-9.3 1.5-28.5 7.4-40 12.3-25.7 10.9-58.7 34.2-84.3 59.5-9.2 9.1-10.6 9.4-20.1 4.9-17.7-8.6-48.8-19-69.1-23-15.3-3-17.6-3.2-38.5-3.6-16.3-.3-21 0-28.5 1.6-16 3.4-27.2 7.8-39 15.4-13.6 8.6-27.9 25.3-34.7 40.2C73.3 123 70.7 134 68.4 156c-1.1 10.9-.6 36.9 1 53.5 1.9 18.8 7.6 42.8 15.4 65 3.5 10.1 4.7 14.6 4.1 16.2-.4 1.2-4.5 6-9.1 10.6C53.4 328.1 35 350.9 25.4 369a106.96 106.96 0 0 1-3.4 6c-1.9 2.8-9.7 20.5-11.8 26.5-1.1 3.3-3.9 12.4-6.1 20.2-4 13.8-4.1 14.5-4.1 29.4 0 15.8.5 18.5 6.1 35.4 4.7 14 15 30.4 25.3 40.5 17.8 17.3 36.4 26.9 72.1 36.9 19.9 5.6 24.2 7.1 25.7 8.9.9.9 2.3 5.1 3.3 9.2 4.5 19.1 12.4 39.1 21.2 53.8 16 26.7 43 50 67.5 58.3 14 4.8 21.3 5.9 37.5 5.9 13.9 0 16.7-.3 27.6-3 37.3-9.3 65.8-24.6 100.4-53.7 6.8-5.7 13.1-10.4 14-10.4 3.3-.2 4.8.3 17.8 6.3 26.7 12.4 48.8 20.1 69.5 24.2 17.8 3.5 28 4.4 48.5 4.1 39.8-.6 67.4-9.9 88.3-29.9 15.9-15.2 25.4-34.8 30.7-63.1 2.3-12.5 2.3-41 .1-55.5-4.7-29.8-12.4-54.8-30.5-98.2-4.9-11.8-5.9-15.1-5.2-17.1.5-1.3 4.3-5.8 8.4-10 36.9-37.8 61.4-79.6 68.2-116.3.9-4.9 2-10.5 2.6-12.5.5-2 .9-10.5.9-18.8 0-15.9-1.1-22.6-6-36.5-8.1-22.9-24-41.9-47.2-56.4-12.7-7.9-25.1-13.1-49.9-20.7-4.8-1.4-9.4-3.4-10.2-4.3s-2.7-6.9-4.2-13.2c-6.8-28-16.5-50.4-29.8-68-6-8-20.2-22-27.7-27.3-11.8-8.3-26-14.2-44.3-18.6-4.3-1-41.8-1.6-42.8-.7zm25.6 31c34 4.9 60.6 35.4 71.4 81.8 1.1 4.6 1.8 8.5 1.6 8.7s-12 .5-26.2.7l-31.3.8c-9.8.8-23.1 2.3-28 3.1-2.8.5-6.9 1.1-14.5 2-2.7.4-12.7 2.2-22.2 4.1-22.7 4.5-21.4 4.3-24.9 2.9-2.4-1-58.3-37.3-60.3-39.1-1.6-1.5 45.7-40 51.9-42.2a11.94 11.94 0 0 0 3-1.8c2.3-2 20.7-10.8 28.5-13.7 9.2-3.4 20.8-6.5 26.9-7.2 2.8-.3 5.1-.7 5.2-.8.5-.5 14.2.1 18.9.7zm-271 73.1c9.7 1 26.4 4.1 35.5 6.5 12.7 3.4 35 12 35 13.5 0 .3-3.9 6.4-8.6 13.7l-13.2 20.3c-25.9 39.9-31.2 47.5-34.9 49.8L188.5 219c-19 11.2-40.1 25.3-57.4 38.3-7.9 6-14.9 11.1-15.5 11.3-1.1.4-4.6-8.3-9.3-23.1-3.9-12.5-6.6-24.1-7.9-34-.3-2.8-.8-5.9-1-7s-.5-7.9-.5-15c-.1-29.7 6.6-50.7 20.9-65.3 9.3-9.5 20.6-15.5 35.7-18.9 8.5-1.9 25.5-2.2 39-.8zm115.7 41.6c8.8 5 15.6 9.5 15.1 9.9-.4.4-3.3 1.7-6.3 2.8s-16.5 6.4-29.8 11.7c-13.4 5.3-24.8 9.5-25.3 9.3-.8-.3 28.9-42.6 30-42.7.2-.1 7.5 4 16.3 9zM533.8 165c3.9.2 7.2.6 7.3.9 0 .3.3 1.5.5 2.6.6 2.6.5 29.1-.1 37l-2 22.4-1 8.6c-1.2 13.2-4.3 30.4-5.6 31.9-.4.4-3.1-1.6-5.9-4.5L494 230l-55.6-57.7c.4-.4 9.4-2 15.6-2.8 3-.4 5.7-.8 6-1 .3-.1 4.1-.6 8.4-1s8.8-.9 10-1.1c1.2-.3 8.6-.7 16.6-1.1l14.7-.7c.3-.2 14.7 0 24.1.4zm68.2 11.9c27 9 43.7 20.7 56 38.8 8.5 12.7 12 25.4 11.5 41.7-.8 25.2-14 55.8-36.4 84.6-10.5 13.6-28.7 33.8-29.5 32.9-.2-.2-7-11-15.1-23.9-16.7-26.6-15.8-23.5-11.6-41 1.1-4.7 2.2-9.7 2.4-11l2.2-11 2-10.5c.5-2.6 3.3-21.8 3.9-27 .3-2.2.8-7.6 1.1-12 .4-4.4.8-9.1 1.1-10.5.2-1.4.4-14.3.5-28.8l.3-26.2c.1 0 5.3 1.7 11.6 3.9zm-217.2 22.4c26.7 21.4 63.8 56.5 85.8 81.2 8.5 9.5 27.1 31.8 31.4 37.5 1.4 1.9 3.7 4.8 5.1 6.4 5 6 7.9 11.1 7.9 14.1 0 3.7-10.2 32.9-19.3 55-8.3 20.3-20.5 46.4-28.8 61.5l-8 15c-2.2 4.1-5 8.2-6.3 9.2-3.6 2.6-32.5 15.4-52.1 22.9-27 10.5-51 18-85.1 26.8-2.5.7-3.7.4-6.6-1.8-10.8-8.1-41.2-36.9-60.8-57.7-13.5-14.4-17.4-18.7-28-31.4l-11-13c-.3-.3-2.8-3.4-5.5-7s-5.2-6.7-5.5-7c-.5-.5-9-11.9-13.4-18.1-1.2-1.6-3.8-5.4-5.9-8.3s-3.9-6.8-4.2-8.6c-.4-3.5 5.7-25 12.5-44l5-14.1c2.5-8.3 15.6-38.9 24-56.4 3.8-7.8 4.1-8.2 11.7-12.7 7.2-4.2 18.8-10.5 27.3-14.8 1.9-1 6.2-3.1 9.5-4.8 29.7-15 97.9-40.7 105.3-39.7 2.3.3 6.9 3.3 15 9.8zm-212.8 86c0 .2-3.9 11.1-8.6 24.3L153.3 338c-.8 2.5-1.6 4.6-1.8 4.8-.3.3-2.7-3.8-8.2-13.8l-5.3-9.3c-2.2-4-2.9-6.2-2.2-6.9.5-.5 8.4-7 17.4-14.3 14-11.4 18.8-14.8 18.8-13.2zm-57.5 57.2c1.9 3.1 3.5 5.8 3.5 6.1 0 .2 3.4 6.1 7.5 13l7.5 12.9c0 .2 1.4 2.6 3.1 5.4 2.7 4.4 3.1 5.7 2.6 9.8a128.48 128.48 0 0 1-1 6.8c-1.1 3.9-5.5 27.1-6.1 31.5l-1.1 7c-.8 4.2-1.3 8.2-2 14-.3 3-.8 6.2-1 7s-.6 5.3-1 10c-.3 4.7-.8 10.7-1.1 13.5-.3 2.7-.7 15.6-.9 28.5l-.4 24.2c0 .3-1.3.2-2.8-.3-18.9-6.1-24.7-8.7-35.8-16-12.4-8.1-21.4-18.1-27.4-30.3-2.7-5.5-5.5-12.8-6.2-16.1-2.2-10-1.7-27.9 1.2-39 6.9-26.7 23.3-55 48-82.9l6.4-7.4c1.6-1.7 3-3.2 3.1-3.2.2 0 1.9 2.5 3.9 5.5zM556 397.2c1.4 2.4 3.7 6.4 5 9 2.5 4.7 2.5 4.8.5 6.2-1.1.8-6.7 5-12.5 9.4s-10.7 7.8-10.9 7.6c-.5-.4 14.1-36.4 14.8-36.4.3 0 1.7 1.9 3.1 4.2zm-367 55.9c20.1 23.9 33.8 38.8 54.7 59.7 13.4 13.3 23.7 24.4 23 24.7-3 .9-11.7 2.5-16.7 3-3 .4-7.7.9-10.5 1.2-9.6 1-61.1 1.1-69.5.2-13.9-1.6-14.3-1.8-15.3-7-1.5-8.2-1.1-48 .8-65.9l2.1-19.5c.9-7.5 2.4-16 4-22.7l1.6-6.7 10.6 13.8 15.2 19.2zm395.6 2.2c10.8 25.7 18.6 51 20.9 67.2.3 2.2.8 5 1 6.1 1.5 7.1 2.2 34.2 1.1 42.6-2.2 16.5-5.8 26.9-12.7 36.8-5 7.1-6.5 8.8-11.9 13.1-24.9 19.7-59.6 22.7-104 8.7-15-4.7-52-20.6-52-22.4 0-.3 2.2-3.4 4.9-6.8 2.6-3.3 11.9-15.6 20.4-27.1l16.5-22c1.9-2.4 13-18.4 15.3-22 6.5-10.1 8.1-12.8 10-16.3 5.7-10 16.1-27 18.2-29.4 1.2-1.4 16.4-12.1 33.7-23.6 24.7-16.6 31.7-20.8 32.3-19.6.5.8 3.3 7.4 6.3 14.7zM423 527.8c0 .5-2.6 3.9-5.8 7.8-3.2 3.8-12.5 15.2-20.6 25.4l-15.7 19.4c-.6.7-33.7-21.3-38.2-25.4-.7-.6 2.5-2 13.3-5.7 9.8-3.5 45.9-15.5 47-15.8.8-.2 1.5-.4 1.5-.5 0-.2 16.1-5.7 17.3-5.9.6 0 1.2.3 1.2.7zM308 570l8.5 6.3c.6.4 9.4 6.9 19.7 14.3 11.2 8 18.5 14 18.2 14.7-.9 2-21.7 18.4-33.4 26.2-15.4 10.4-39.3 21.7-50.6 23.9-1 .3-5 1.1-8.9 2-15.1 3.4-31.7 2.3-45.1-3.2-23.6-9.6-40-29.8-51.4-63.2-1.2-3.6-2.6-7.4-3-8.5-1.1-2.6-2.3-6.9-2.1-7.5 0-.3 10.6-.5 23.4-.6 20.2 0 31.3-.5 42.3-1.9 1.6-.2 5.8-.6 9.4-1a184.12 184.12 0 0 0 9-1c1.4-.3 5-.7 8-1s6.6-.8 8-1 5.1-.7 8.3-1l7.5-1 8.2-1c3.6-.4 6.7-.8 6.8-1 .2-.2 2.5-.3 5-.1 3.9.2 6 1.1 12.2 5.6zm37-258.3c-5.4.9-13.7 4.6-18 8.1-11.1 9.1-16.1 19.1-16.1 32.9 0 15.2 7 28 19.9 36.2 6.9 4.3 13.9 6.1 23 5.7 31.5-1.3 49.2-37.6 31.7-65.1-5.1-8.1-14.2-14.8-23-17-3.6-.9-14-1.3-17.5-.8z"/></svg>