<?xml version="1.0" standalone="no"?>
<!DOCTYPE svg PUBLIC "-//W3C//DTD SVG 20010904//EN"
 "http://www.w3.org/TR/2001/REC-SVG-20010904/DTD/svg10.dtd">
<svg version="1.0" xmlns="http://www.w3.org/2000/svg"
 width="700.000000pt" height="700.000000pt" viewBox="0 0 700.000000 700.000000"
 preserveAspectRatio="xMidYMid meet">
<metadata>
Created by potrace 1.11, written by Peter Selinger 2001-2013
</metadata>
<g transform="translate(0.000000,700.000000) scale(0.100000,-0.100000)"
fill="#000000" stroke="none">
<path d="M4385 6993 c-469 -62 -981 -363 -1481 -867 -129 -130 -132 -133 -158
-119 -84 44 -403 164 -541 204 -206 60 -358 89 -540 105 -648 57 -1043 -247
-1048 -806 -2 -128 5 -214 23 -311 19 -98 69 -283 94 -346 13 -35 22 -63 19
-63 -3 0 -1 -6 4 -12 5 -7 18 -35 28 -63 17 -46 56 -134 123 -275 14 -30 52
-102 84 -159 32 -58 58 -108 58 -113 0 -4 5 -8 10 -8 6 0 10 -4 10 -9 0 -6 15
-36 34 -67 l35 -57 -71 -58 c-116 -97 -127 -108 -303 -284 -328 -328 -520
-609 -619 -905 -51 -153 -60 -279 -41 -547 23 -318 220 -539 595 -666 72 -24
148 -44 200 -53 14 -2 34 -6 45 -9 11 -2 43 -7 70 -11 28 -3 51 -7 51 -8 1 0
5 -23 8 -51 4 -27 8 -61 11 -75 2 -14 7 -47 10 -73 13 -119 74 -347 127 -477
51 -127 131 -271 191 -347 40 -52 160 -171 207 -207 164 -125 330 -202 520
-243 67 -14 360 -8 446 10 522 105 1105 498 1639 1102 48 55 93 106 99 113 10
10 32 4 111 -28 185 -76 516 -178 630 -195 22 -3 47 -8 56 -10 49 -16 243 -33
361 -33 385 1 652 130 797 383 24 41 59 124 68 160 68 273 44 553 -80 920 -64
188 -169 420 -266 589 -28 49 -51 91 -51 93 0 2 -15 28 -33 56 -65 101 -67 86
31 168 511 430 854 904 937 1295 67 314 -33 583 -287 770 -166 122 -431 214
-717 249 -18 2 -35 5 -36 7 -2 2 -16 64 -30 138 -44 220 -133 462 -228 620
-40 68 -146 197 -207 253 -112 104 -217 165 -407 236 -187 69 -250 83 -413 86
-80 1 -158 0 -175 -2z m286 -500 c178 -61 362 -246 472 -473 47 -98 104 -268
111 -329 1 -15 -4 -16 -129 -26 -49 -3 -103 -8 -120 -9 -74 -8 -152 -17 -175
-21 -14 -3 -43 -7 -65 -11 -223 -32 -735 -146 -926 -208 l-46 -14 -173 114
c-95 62 -212 137 -259 165 -91 55 -106 63 -216 124 -38 21 -72 40 -75 42 -15
13 301 259 480 373 92 58 330 180 352 180 8 0 18 4 23 9 25 22 249 85 350 98
22 3 42 7 44 9 2 1 69 2 150 0 112 -3 159 -8 202 -23z m-2751 -839 c183 -28
470 -103 470 -123 0 -3 -23 -38 -51 -76 -112 -152 -309 -460 -401 -625 -44
-80 -126 -233 -160 -300 -32 -62 -38 -68 -174 -160 -78 -52 -186 -128 -240
-169 -55 -40 -104 -75 -111 -78 -15 -6 -102 167 -168 331 -26 65 -63 179 -82
255 -30 118 -35 155 -38 281 -5 164 10 242 66 357 45 92 143 189 239 235 111
54 129 59 225 74 22 3 42 7 43 9 10 9 308 1 382 -11z m975 -330 c105 -52 207
-104 228 -117 l38 -23 -153 -64 c-272 -113 -763 -350 -850 -412 -16 -11 -28
-16 -28 -11 0 17 199 311 308 456 187 248 213 277 242 271 14 -3 111 -48 215
-100z m2419 -274 c0 -125 -11 -319 -19 -343 -2 -6 -6 -39 -9 -72 -4 -33 -8
-70 -10 -81 -3 -12 -7 -39 -11 -60 -11 -73 -16 -99 -36 -194 -11 -52 -23 -109
-26 -126 l-5 -31 -55 61 c-217 240 -599 604 -845 806 l-67 55 32 7 c49 12 277
56 322 62 22 3 56 8 75 11 57 8 100 13 190 20 47 4 86 8 88 10 1 1 87 2 190 1
l187 -1 -1 -125z m721 -102 c211 -167 273 -426 174 -728 -34 -106 -114 -262
-195 -382 -62 -92 -138 -192 -164 -218 -3 -3 -31 -35 -63 -72 -32 -38 -62 -68
-65 -68 -12 1 -107 151 -104 163 2 7 5 19 7 27 2 8 13 45 24 81 36 114 121
477 146 624 2 17 7 41 10 55 3 14 12 77 20 140 9 63 18 129 20 145 2 17 7 80
11 140 4 61 8 117 10 125 1 8 3 28 3 43 l1 28 57 -31 c31 -18 80 -50 108 -72z
m-2342 -103 c34 -24 67 -48 72 -52 6 -4 46 -35 90 -67 373 -278 771 -650 1089
-1021 47 -55 86 -106 86 -113 0 -15 -82 -230 -138 -362 -58 -136 -104 -236
-182 -391 -121 -241 -97 -213 -271 -301 -376 -189 -711 -324 -1162 -468 -24
-7 -40 1 -150 77 -157 111 -297 218 -472 362 -77 64 -142 118 -145 121 -3 4
-48 44 -100 90 -220 195 -551 545 -746 786 l-75 94 53 132 53 132 90 69 c348
263 843 546 1330 759 139 61 488 197 508 198 4 0 35 -20 70 -45z m-2316 -1262
c-3 -10 -25 -83 -50 -163 -83 -266 -127 -438 -171 -665 -4 -16 -9 -41 -11 -55
-13 -60 -54 -331 -59 -390 -4 -36 -9 -81 -11 -100 -2 -19 -7 -78 -11 -130 -3
-52 -8 -97 -10 -99 -5 -5 -114 58 -159 93 -70 54 -96 80 -139 141 -70 100 -97
169 -101 260 -3 58 2 87 29 170 71 214 197 420 400 655 43 50 288 300 294 300
3 0 2 -8 -1 -17z m208 -184 c22 -28 45 -56 50 -63 6 -6 34 -40 64 -76 107
-130 259 -295 412 -449 275 -275 501 -473 853 -746 89 -69 87 -60 10 -79 -106
-27 -282 -65 -349 -76 -33 -5 -71 -12 -85 -15 -14 -3 -43 -7 -65 -10 -22 -3
-49 -7 -60 -9 -11 -2 -49 -7 -85 -11 -36 -4 -74 -9 -84 -11 -121 -23 -622 -21
-741 2 -11 2 -40 7 -65 10 -56 7 -160 31 -167 38 -6 5 -4 277 1 331 2 17 6 59
10 95 14 137 16 156 20 175 2 11 7 43 10 70 6 43 12 77 30 170 40 195 80 354
140 547 25 81 46 150 46 153 0 16 20 -1 55 -46z m3956 -562 c98 -193 188 -425
214 -552 54 -268 40 -463 -46 -625 -73 -137 -230 -247 -411 -287 -81 -18 -329
-24 -438 -10 -80 10 -285 53 -335 70 l-37 13 24 29 c98 120 361 518 468 710
103 184 147 268 237 455 57 118 108 222 112 230 4 8 37 34 72 58 75 50 65 57
140 -91z m-1117 -509 c-87 -145 -336 -492 -440 -613 l-46 -53 -117 61 c-165
87 -315 174 -319 185 -2 6 7 14 20 17 79 25 505 215 682 305 116 59 215 108
219 109 5 0 5 -5 1 -11z m-1059 -545 c39 -26 151 -96 250 -156 99 -60 181
-112 183 -117 4 -11 -218 -231 -343 -339 -350 -302 -709 -500 -1020 -562 -216
-43 -434 -25 -597 47 -220 99 -412 378 -502 730 -9 34 -16 66 -16 72 0 6 42
10 108 10 100 -1 326 10 361 17 9 1 45 6 81 9 36 4 75 8 85 10 11 2 43 7 70
11 78 10 284 47 365 65 25 6 54 12 65 14 120 23 503 131 672 190 71 24 137 44
148 45 11 1 52 -20 90 -46z"/>
<path d="M3130 3804 c-110 -30 -198 -102 -246 -201 -25 -50 -29 -70 -29 -143
0 -71 4 -94 26 -140 35 -75 102 -140 184 -181 66 -32 75 -34 175 -34 97 0 110
2 171 31 83 40 152 106 187 181 23 49 27 71 27 143 0 71 -4 94 -27 140 -80
168 -281 256 -468 204z"/>
</g>
</svg>
