<?xml version="1.0" standalone="no"?>
<!DOCTYPE svg PUBLIC "-//W3C//DTD SVG 20010904//EN"
 "http://www.w3.org/TR/2001/REC-SVG-20010904/DTD/svg10.dtd">
<svg version="1.0" xmlns="http://www.w3.org/2000/svg"
 width="505.000000pt" height="505.000000pt" viewBox="0 0 505.000000 505.000000"
 preserveAspectRatio="xMidYMid meet">
<metadata>
Created by potrace 1.11, written by Peter Selinger 2001-2013
</metadata>
<g transform="translate(0.000000,505.000000) scale(0.100000,-0.100000)"
fill="#000000" stroke="none">
<path d="M3385 4901 c3 -5 1 -12 -5 -16 -5 -3 -10 -2 -10 3 0 5 -7 9 -15 9 -8
0 -12 -4 -9 -9 8 -13 -10 -10 -25 5 -8 6 -11 7 -8 1 4 -7 -15 -16 -56 -24 -34
-7 -66 -17 -71 -21 -6 -5 -17 -9 -25 -9 -9 0 -29 -7 -45 -15 -15 -8 -33 -15
-38 -15 -14 0 -246 -117 -279 -141 -15 -10 -30 -19 -32 -19 -20 0 -332 -231
-404 -300 -18 -16 -37 -30 -43 -30 -7 0 -53 20 -104 44 -145 70 -366 158 -456
181 -8 2 -40 11 -70 20 -180 50 -425 79 -543 65 -30 -4 -47 -3 -47 4 0 6 -4 5
-9 -3 -6 -8 -19 -12 -35 -9 -15 3 -29 1 -32 -4 -3 -5 -12 -7 -20 -4 -8 3 -14
1 -14 -5 0 -6 -6 -9 -14 -6 -7 3 -19 0 -25 -6 -6 -6 -11 -8 -11 -5 0 4 -15 1
-34 -7 -18 -8 -36 -11 -40 -8 -3 4 -6 2 -6 -4 0 -6 -20 -19 -45 -30 -25 -10
-45 -21 -45 -25 0 -5 -7 -8 -15 -8 -8 0 -15 -5 -15 -11 0 -8 -5 -7 -15 1 -13
11 -14 10 -9 -3 4 -11 -5 -22 -28 -37 -18 -11 -29 -20 -25 -20 4 0 -3 -11 -15
-24 -13 -13 -27 -21 -32 -18 -5 3 -6 0 -3 -5 4 -6 0 -16 -8 -23 -8 -7 -15 -18
-15 -26 0 -7 -8 -18 -17 -23 -10 -6 -14 -11 -10 -11 5 0 0 -12 -11 -27 -10
-16 -24 -43 -31 -60 -8 -18 -17 -30 -22 -27 -5 3 -6 -2 -3 -10 3 -8 0 -25 -7
-38 -7 -13 -12 -31 -10 -42 1 -10 -1 -16 -6 -13 -5 4 -9 -4 -8 -16 1 -12 0
-26 -3 -31 -16 -28 -21 -258 -9 -365 14 -116 52 -273 104 -421 16 -46 23 -64
83 -202 l33 -78 -44 -37 c-84 -72 -305 -298 -354 -363 -27 -36 -55 -71 -62
-78 -6 -7 -22 -30 -34 -52 -13 -22 -27 -40 -31 -40 -5 0 -7 -4 -3 -9 3 -5 -1
-15 -7 -23 -7 -7 -26 -40 -43 -73 -29 -60 -31 -66 -34 -86 0 -5 -5 -8 -9 -5
-4 2 -9 -4 -10 -15 -4 -43 -6 -49 -14 -49 -5 0 -6 -4 -3 -10 3 -5 0 -10 -7
-10 -9 0 -9 -3 2 -10 12 -8 12 -10 -5 -10 -17 0 -17 -2 -5 -10 11 -7 12 -12 4
-17 -15 -10 -17 -292 -3 -309 7 -8 7 -14 -1 -19 -7 -4 -5 -11 5 -21 13 -13 20
-42 16 -66 0 -5 6 -8 14 -8 8 0 15 -9 15 -19 0 -11 5 -23 10 -26 6 -4 8 -11 5
-16 -4 -5 -3 -9 2 -9 11 0 34 -51 27 -61 -3 -5 2 -9 10 -9 14 0 33 -36 28 -53
-1 -5 2 -6 8 -2 5 3 10 2 10 -3 0 -12 96 -110 149 -151 84 -65 302 -166 405
-187 10 -2 20 -5 21 -6 2 -2 6 -41 9 -88 3 -47 8 -96 11 -110 3 -14 8 -38 10
-54 2 -15 7 -36 10 -46 3 -10 8 -28 10 -39 3 -12 7 -29 9 -39 2 -9 13 -41 25
-69 11 -29 18 -53 15 -53 -3 0 2 -7 10 -16 9 -8 16 -21 16 -28 0 -7 9 -23 20
-36 12 -13 18 -30 16 -37 -3 -7 0 -15 6 -19 7 -5 9 -2 4 7 -4 8 1 3 11 -11 10
-13 45 -52 78 -85 33 -33 59 -63 58 -67 -2 -5 0 -7 5 -6 13 4 52 -13 52 -23 0
-5 3 -8 8 -7 13 4 52 -13 52 -23 0 -5 3 -8 8 -8 25 4 42 -3 42 -18 0 -14 2
-15 9 -4 6 9 11 10 15 2 4 -6 12 -9 17 -6 5 4 15 3 21 -2 7 -4 22 -9 33 -10
11 -2 25 -10 31 -18 12 -17 29 -21 19 -5 -3 5 0 8 7 5 27 -10 74 -17 100 -17
15 1 30 -3 33 -8 3 -5 12 -7 19 -4 7 3 53 7 102 9 49 2 89 4 89 5 0 2 18 6 61
14 63 12 205 57 288 91 92 38 251 119 277 141 8 8 19 14 22 14 7 0 137 83 162
103 5 4 33 25 61 46 82 60 184 144 231 190 12 11 36 3 161 -52 237 -105 431
-169 582 -193 14 -2 41 -7 60 -10 67 -11 95 -14 160 -16 36 0 71 -6 79 -12 11
-8 13 -8 8 0 -4 8 10 12 46 13 75 3 118 8 152 19 17 5 38 8 48 6 9 -1 17 2 17
7 0 6 5 7 10 4 6 -3 10 -1 10 6 0 7 10 9 25 7 15 -3 22 -1 18 5 -4 6 0 8 11 4
10 -4 15 -3 11 3 -6 9 8 14 28 11 4 0 7 4 7 9 0 6 7 10 15 10 9 0 18 7 22 16
5 13 7 13 14 2 7 -10 9 -8 9 6 0 11 3 17 6 13 3 -3 17 6 30 20 13 14 24 23 24
19 0 -4 11 6 25 21 20 22 24 24 19 8 l-6 -20 13 20 c21 34 70 75 82 68 6 -3 7
-1 3 5 -7 12 13 52 27 52 4 0 6 -4 2 -9 -3 -5 -1 -12 4 -16 6 -3 8 4 6 16 -5
24 18 63 30 51 4 -4 5 1 2 11 -4 10 -2 17 5 17 6 0 8 3 5 7 -4 3 -1 16 6 27 8
12 17 33 21 48 4 20 11 26 24 22 13 -5 14 -4 3 4 -9 6 -11 17 -6 28 4 11 9 35
12 54 3 19 8 52 13 73 7 31 6 227 -1 297 -13 138 -82 377 -165 573 l-54 127
42 38 c76 69 213 211 283 294 50 60 152 221 196 310 26 54 48 101 48 103 1 3
1 6 2 8 1 3 4 16 23 92 11 44 14 99 11 210 -6 188 -8 215 -16 209 -4 -2 -10 3
-13 12 -9 22 -8 26 5 19 6 -4 5 2 -3 14 -7 12 -17 21 -21 21 -5 0 -6 7 -3 16
3 8 2 13 -2 10 -5 -3 -17 12 -28 32 -10 20 -25 43 -32 50 -7 8 -10 18 -6 23 3
5 1 8 -4 7 -15 -4 -63 52 -56 64 4 7 2 8 -5 4 -7 -5 -21 2 -35 16 -12 12 -35
31 -52 40 -16 10 -28 22 -26 28 1 5 -2 9 -6 8 -4 -2 -37 13 -72 32 -36 19 -67
35 -70 36 -41 13 -50 17 -50 23 0 4 -6 8 -12 8 -16 0 -170 54 -180 62 -4 4 -9
39 -12 79 -2 40 -6 76 -10 79 -3 4 -6 19 -6 35 0 38 -35 165 -69 255 -97 248
-306 434 -528 469 -20 3 -45 8 -57 11 -32 8 -84 13 -148 16 -46 2 -58 -1 -59
-13 0 -10 -3 -9 -9 5 l-9 20 0 -20 c-1 -16 -3 -17 -10 -6 -8 13 -12 13 -27 0
-10 -8 -15 -9 -11 -3 4 7 0 15 -9 18 -8 3 -12 2 -9 -3z m101 -315 c100 -11
251 -71 300 -120 19 -20 81 -134 99 -186 19 -52 52 -181 57 -225 l3 -29 -55 4
c-89 6 -397 4 -500 -4 -170 -12 -242 -21 -393 -47 l-109 -18 -171 113 c-95 62
-186 121 -204 132 l-32 20 111 73 c142 95 334 192 453 230 95 31 107 34 210
51 104 17 120 17 231 6z m-1946 -395 c30 -6 64 -13 75 -15 59 -12 247 -67 290
-86 11 -5 45 -19 77 -32 l56 -23 -50 -55 c-27 -30 -60 -66 -72 -80 -36 -41
-147 -181 -201 -253 -49 -65 -53 -68 -210 -146 -280 -139 -494 -267 -667 -397
-41 -31 -59 -39 -65 -31 -14 18 -60 163 -77 238 -47 209 -37 422 25 564 12 28
25 52 28 55 3 3 12 16 19 30 23 46 139 153 154 144 4 -3 8 0 8 6 0 21 153 78
234 86 22 3 42 6 44 9 8 8 277 -3 332 -14z m733 -271 c51 -27 101 -55 111 -63
19 -14 18 -15 -12 -22 -60 -13 -324 -102 -446 -151 -19 -7 -19 -7 -3 16 16 24
249 269 255 270 2 0 45 -22 95 -50z m1477 -265 c58 -3 123 -10 145 -15 22 -5
41 -9 43 -10 5 -1 4 -12 -3 -78 -8 -77 -8 -75 -30 -185 -9 -45 -18 -86 -19
-92 -1 -5 -13 -52 -26 -103 l-24 -93 -34 38 c-161 178 -310 331 -461 471 -75
69 -75 68 70 71 51 1 95 3 96 5 3 3 103 -1 243 -9z m-831 -169 c162 -132 215
-179 391 -357 160 -160 373 -407 378 -438 3 -18 -86 -219 -163 -365 -142 -272
-296 -513 -481 -751 l-93 -120 -108 -34 c-59 -19 -126 -40 -148 -47 -38 -12
-217 -58 -333 -84 -46 -11 -56 -10 -80 6 -41 26 -176 126 -187 138 -5 6 -28
24 -50 40 -148 110 -466 413 -633 604 -70 80 -244 303 -265 338 -8 14 3 44 98
249 45 99 193 375 205 385 4 3 9 12 12 21 10 27 307 174 533 264 66 26 129 51
140 56 24 11 291 98 320 105 11 3 88 22 170 44 83 21 156 39 164 39 8 1 66
-41 130 -93z m1480 3 c217 -122 327 -290 329 -499 1 -151 -48 -298 -155 -465
-68 -105 -193 -249 -200 -229 -11 34 -148 260 -224 370 l-28 40 49 145 c43
127 100 328 114 399 3 14 8 36 11 50 3 14 7 36 10 50 10 60 17 96 20 110 2 8
4 25 4 38 1 28 4 28 70 -9z m-3127 -531 c-11 -14 -142 -275 -184 -368 l-25
-55 -47 73 c-25 40 -46 75 -46 79 0 3 -7 14 -16 24 -15 16 -12 21 43 64 57 45
273 195 281 195 3 0 0 -6 -6 -12z m-339 -429 l78 -121 -26 -63 c-31 -79 -85
-240 -120 -360 -30 -101 -28 -93 -50 -195 -9 -41 -19 -84 -21 -95 -3 -11 -7
-33 -9 -48 -2 -16 -6 -40 -10 -55 -8 -39 -14 -88 -21 -167 -3 -38 -10 -74 -14
-78 -7 -8 -74 24 -145 72 -103 68 -150 120 -176 196 -7 22 -17 45 -21 51 -30
42 -28 334 3 334 4 0 6 9 4 20 -2 11 0 20 4 20 4 0 8 6 8 13 0 18 62 154 91
197 12 19 28 43 35 54 44 68 133 174 211 253 50 51 93 93 96 92 3 0 40 -54 83
-120z m3041 -252 c35 -61 116 -218 116 -227 0 -13 -365 -251 -387 -251 -4 0
-16 -8 -26 -16 -37 -35 -25 -1 41 108 75 123 163 283 202 366 14 29 27 53 30
53 3 0 13 -15 24 -33z m-2778 -109 c244 -305 541 -601 835 -835 54 -43 98 -81
98 -84 1 -6 -73 -17 -154 -24 -11 -1 -40 -5 -65 -9 -82 -12 -213 -18 -375 -17
-170 0 -274 7 -385 26 -176 29 -228 44 -232 68 -8 48 2 297 17 376 1 9 6 38 9
64 8 53 10 64 27 147 26 132 110 410 124 410 1 0 47 -55 101 -122z m2988 -344
c44 -128 73 -240 85 -334 11 -92 7 -285 -8 -322 -6 -16 -8 -28 -5 -28 4 0 1
-6 -5 -13 -6 -8 -8 -16 -5 -19 14 -14 -73 -165 -130 -226 -42 -45 -122 -95
-137 -86 -7 4 -9 3 -6 -3 8 -12 -23 -22 -128 -41 -49 -9 -282 -8 -350 2 -27 4
-68 12 -90 18 -22 5 -51 12 -65 14 -70 12 -380 117 -380 130 0 2 24 27 53 57
150 155 275 300 407 474 l95 125 115 60 c126 66 364 206 450 266 30 21 58 36
63 32 4 -3 23 -51 41 -106z m-1415 -571 c-18 -20 -63 -64 -98 -99 l-65 -63
-35 19 c-20 11 -55 32 -79 48 l-43 29 108 28 c59 15 136 38 172 51 37 12 68
23 70 23 3 1 -11 -15 -30 -36z m-385 -180 c58 -38 105 -73 105 -79 1 -6 -13
-22 -31 -35 -36 -27 -91 -71 -98 -79 -29 -30 -250 -171 -346 -220 -99 -51
-331 -137 -341 -126 -4 3 -11 2 -17 -3 -32 -27 -213 -15 -291 18 -61 26 -120
59 -141 79 -14 12 -28 22 -31 22 -9 0 -73 68 -109 115 -40 53 -86 145 -112
227 -12 37 -22 70 -22 74 0 4 24 3 53 0 104 -15 215 -20 402 -19 195 1 273 5
455 27 84 10 364 57 369 62 15 15 64 -5 155 -63z"/>
<path d="M2315 2871 c-109 -31 -185 -96 -234 -201 -22 -46 -26 -69 -26 -145 1
-79 4 -97 29 -148 113 -225 402 -272 577 -94 131 132 132 360 2 491 -93 95
-224 131 -348 97z"/>
</g>
</svg>
