<svg xmlns="http://www.w3.org/2000/svg" viewBox="0 0 72 72"><path d="M72,64c0,4.4-3.6,8-8,8H8c-4.4,0-8-3.6-8-8V8c0-4.4,3.6-8,8-8h56c4.4,0,8,3.6,8,8V64z" fill="#179bb3"/><path d="M25.6 50.5c-6 0-10.1-2-11.5-5.5-1.2-3.1 0-7 3.5-10.9 3.3-3.8 8.3-7.1 14.1-9.5 5-2.1 10.3-3.3 14.8-3.3 6 0 10.2 2 11.5 5.5 1.2 3.1 0 7-3.5 10.9-3.3 3.8-8.3 7.1-14.1 9.5-5.1 2.1-10.3 3.3-14.8 3.3zm20.8-27.6c-4.3 0-9.3 1.1-14.2 3.1-5.6 2.3-10.4 5.6-13.5 9.1-3 3.4-4.1 6.7-3.2 9.3 1.1 2.8 4.8 4.4 10.1 4.4 4.3 0 9.3-1.1 14.2-3.1 5.6-2.3 10.4-5.6 13.5-9.1 3-3.4 4.1-6.7 3.2-9.3-1.1-2.8-4.8-4.4-10.1-4.4zM26.6 50.3c-5.8 0-9.8-1.9-11.1-5.3-1.2-3 0-6.8 3.4-10.6 3.2-3.6 8-6.9 13.6-9.2 4.9-2 10-3.1 14.3-3.1 5.8 0 9.8 1.9 11.1 5.3 2.4 6.1-5.1 14.8-17 19.7-4.9 2.1-10 3.2-14.3 3.2zm20.1-26.2c-4.1 0-9 1.1-13.7 3-5.3 2.2-9.9 5.3-12.9 8.7-2.8 3.2-3.9 6.3-3 8.6 1 2.6 4.4 4.1 9.4 4.1 4.1 0 9-1.1 13.7-3C50.7 41 58 33.1 56.1 28.2c-1-2.7-4.4-4.1-9.4-4.1zm1.8 32.2c-5.6 0-13.4-4.4-19.9-11.4-4.4-4.7-7.8-10-9.4-14.8-1.8-5.1-1.5-9.1.8-11.4 1.3-1.3 3-1.9 5.2-1.9 5.6 0 13.4 4.4 20 11.4 4.4 4.7 7.8 10 9.4 14.8 1.7 5.1 1.4 9.1-.9 11.4-1.3 1.3-3.1 1.9-5.2 1.9zm-23.4-38c-1.7 0-3.1.5-4.1 1.5-1.9 1.9-2 5.3-.5 9.8 1.6 4.6 4.8 9.7 9.1 14.2 6.3 6.6 13.7 10.9 18.9 10.9 1.7 0 3.1-.5 4.1-1.5 1.9-1.9 2-5.3.5-9.8-1.6-4.6-4.8-9.7-9.1-14.2-6.2-6.6-13.6-10.9-18.9-10.9zm22.3 38.1c-5.4 0-13-4.3-19.3-11-4.3-4.5-7.5-9.6-9.1-14.2-1.7-4.9-1.4-8.8.8-11.1 1.2-1.2 2.9-1.9 5-1.9 5.4 0 13 4.3 19.3 11 9.1 9.7 12.7 20.8 8.3 25.3-1.2 1.3-2.9 1.9-5 1.9zM24.9 20.1c-1.6 0-2.9.5-3.7 1.3-1.7 1.7-1.8 5-.4 9.1 1.5 4.4 4.6 9.2 8.7 13.6 6 6.4 13.1 10.5 18 10.5 1.6 0 2.9-.5 3.7-1.3 3.7-3.7-.2-14-8.3-22.6-6-6.5-13.1-10.6-18-10.6zm13.8 16.1c0 1.5-1.2 2.7-2.6 2.7s-2.6-1.2-2.6-2.7 1.2-2.7 2.6-2.7 2.6 1.2 2.6 2.7zm-8.6 22.3a6.3 6.3 0 0 1-3-.7c-3.1-1.4-4.9-5.1-5.2-10.3-.3-5.1 1-11 3.5-16.8 4.4-10.1 11.8-17.2 17.8-17.2a6.3 6.3 0 0 1 3 .7c3.1 1.4 4.9 5.1 5.2 10.3.3 5-1 11-3.5 16.8-4.4 10.1-11.7 17.2-17.8 17.2zm13-43.4c-5.4 0-12.3 6.9-16.5 16.3-2.4 5.5-3.6 11.2-3.3 16 .2 4.6 1.8 7.8 4.3 9 .7.3 1.5.5 2.4.5 5.4 0 12.3-6.9 16.5-16.3 2.4-5.5 3.6-11.2 3.3-16-.2-4.6-1.8-7.8-4.3-9-.7-.4-1.5-.5-2.4-.5zM29.2 57.8c-1 0-1.9-.2-2.7-.6-3-1.4-4.7-5-4.9-10.1-.2-4.9 1.1-10.7 3.6-16.4 4.4-10.1 11.5-17.2 17.3-17.2 1 0 1.9.2 2.7.6 3 1.4 4.7 5 4.9 10.1.2 4.9-1.1 10.7-3.6 16.4C42.2 50.7 35 57.8 29.2 57.8zm13.3-42.4c-5 0-11.6 6.7-15.7 16-2.4 5.4-3.6 10.9-3.4 15.5.2 4.4 1.5 7.4 3.8 8.5.6.3 1.3.4 2 .4 5 0 11.6-6.8 15.7-16 2.4-5.4 3.6-10.9 3.4-15.5-.2-4.4-1.5-7.4-3.8-8.5-.6-.2-1.3-.4-2-.4z" fill="#fff"/></svg>