<?xml version="1.0" encoding="utf-8"?>
<!-- Generator: Adobe Illustrator 16.2.0, SVG Export Plug-In . SVG Version: 6.00 Build 0)  -->
<!DOCTYPE svg PUBLIC "-//W3C//DTD SVG 1.1//EN" "http://www.w3.org/Graphics/SVG/1.1/DTD/svg11.dtd">
<svg version="1.1" id="Layer_1" xmlns="http://www.w3.org/2000/svg" xmlns:xlink="http://www.w3.org/1999/xlink" x="0px" y="0px"
	 width="230px" height="230px" viewBox="-180.02 22.47 230 230" enable-background="new -180.02 22.47 230 230"
	 xml:space="preserve">
<g>
	
		<linearGradient id="SVGID_1_" gradientUnits="userSpaceOnUse" x1="148.282" y1="-233.8672" x2="313.3533" y2="-233.8672" gradientTransform="matrix(1 0 0 -1 -295.8398 -98.5195)">
		<stop  offset="0.202" style="stop-color:#0B3C56"/>
		<stop  offset="0.3153" style="stop-color:#065A80"/>
		<stop  offset="0.867" style="stop-color:#0379B1"/>
		<stop  offset="0.9852" style="stop-color:#0B4D6D"/>
	</linearGradient>
	<path fill="url(#SVGID_1_)" d="M-35.383,102.869c-42.533-37.386-90.276-53.145-106.646-35.212
		c-16.368,17.939,4.835,62.787,47.37,100.173c42.528,37.382,90.275,53.141,106.643,35.207
		C28.353,185.1,7.149,140.252-35.383,102.869z M-0.87,194.202c-13.722,15.365-55.151,1.762-92.544-30.397
		c-37.39-32.153-56.571-70.675-42.851-86.042c13.717-15.365,55.143-1.754,92.533,30.392C-6.339,140.316,12.845,178.839-0.87,194.202
		z"/>
	
		<linearGradient id="SVGID_2_" gradientUnits="userSpaceOnUse" x1="139.1238" y1="-177.3643" x2="322.9538" y2="-283.4985" gradientTransform="matrix(1 0 0 -1 -295.8398 -98.5195)">
		<stop  offset="0" style="stop-color:#03B6D9"/>
		<stop  offset="0.0887" style="stop-color:#0892C2"/>
		<stop  offset="0.4729" style="stop-color:#045D90"/>
		<stop  offset="0.7438" style="stop-color:#066F94"/>
		<stop  offset="1" style="stop-color:#1F406F"/>
	</linearGradient>
	<path fill="url(#SVGID_2_)" d="M-33.836,97.339c-44.434-39.793-94.314-56.571-111.416-37.48
		c-17.1,19.093,5.053,66.837,49.488,106.631c44.432,39.79,94.313,56.566,111.415,37.475C32.75,184.874,10.599,137.131-33.836,97.339
		z M2.22,194.56c-14.336,16.356-57.617,1.875-96.682-32.356c-39.062-34.228-59.102-75.229-44.77-91.586
		c14.333-16.358,57.611-1.873,96.674,32.348C-3.493,137.201,16.552,178.205,2.22,194.56z"/>
	
		<linearGradient id="SVGID_3_" gradientUnits="userSpaceOnUse" x1="166.446" y1="-198.6025" x2="289.9972" y2="-269.9348" gradientTransform="matrix(1 0 0 -1 -295.8398 -98.5195)">
		<stop  offset="0.3202" style="stop-color:#B96D1E"/>
		<stop  offset="0.5271" style="stop-color:#F5AD1C"/>
		<stop  offset="1" style="stop-color:#915D1E"/>
	</linearGradient>
	<path fill="url(#SVGID_3_)" d="M29.105,89.88C18.312,67.433-33.734,69.772-87.154,95.099
		c-53.415,25.334-87.972,64.071-77.183,86.519c10.789,22.451,62.838,20.112,116.254-5.22C5.334,151.063,39.891,112.324,29.105,89.88
		z M-49.805,172.667c-45.409,21.566-89.655,23.618-98.817,4.57c-9.165-19.036,20.217-51.961,65.627-73.528
		c45.411-21.57,89.653-23.609,98.818-4.572C24.985,118.186-4.392,151.104-49.805,172.667z"/>
	
		<linearGradient id="SVGID_4_" gradientUnits="userSpaceOnUse" x1="129.2888" y1="-230.4316" x2="332.7908" y2="-230.4316" gradientTransform="matrix(1 0 0 -1 -295.8398 -98.5195)">
		<stop  offset="0" style="stop-color:#F3A51D"/>
		<stop  offset="0.33" style="stop-color:#F8BF1B"/>
		<stop  offset="0.6305" style="stop-color:#F8BF1B"/>
		<stop  offset="0.8325" style="stop-color:#FDD213"/>
	</linearGradient>
	<path fill="url(#SVGID_4_)" d="M35.249,88.377C25.07,64.984-27.975,65.514-83.23,89.557c-55.257,24.043-91.799,62.496-81.62,85.89
		c10.176,23.395,63.223,22.862,118.481-1.181C8.885,150.223,45.429,111.769,35.249,88.377z M-47.992,170.381
		c-46.975,20.473-92.065,20.988-100.713,1.142c-8.648-19.838,22.421-52.523,69.399-72.996c46.977-20.475,92.064-20.98,100.712-1.141
		C30.052,117.233-1.016,149.915-47.992,170.381z"/>
	
		<radialGradient id="SVGID_5_" cx="223.2898" cy="-236.0601" r="11.2158" gradientTransform="matrix(1 0 0 -1 -295.8398 -98.5195)" gradientUnits="userSpaceOnUse">
		<stop  offset="0.3153" style="stop-color:#4C4C4C"/>
		<stop  offset="0.8916" style="stop-color:#191918"/>
	</radialGradient>
	<path fill="url(#SVGID_5_)" d="M-72.549,126.795c6.442,0,11.666,4.811,11.666,10.747c0,5.933-5.223,10.744-11.666,10.744
		c-6.448,0-11.668-4.812-11.668-10.744C-84.217,131.605-78.996,126.795-72.549,126.795z"/>
	<path fill="#FFFFFF" d="M-72.338,129.715c0.877-0.745,2.605-0.142,3.856,1.339c1.254,1.481,1.557,3.284,0.68,4.028
		c-0.881,0.742-2.606,0.144-3.86-1.341C-72.916,132.259-73.219,130.455-72.338,129.715z"/>
	
		<linearGradient id="SVGID_6_" gradientUnits="userSpaceOnUse" x1="181.2429" y1="-206.875" x2="280.8299" y2="-264.3716" gradientTransform="matrix(1 0 0 -1 -295.8398 -98.5195)">
		<stop  offset="0.7044" style="stop-color:#191918"/>
		<stop  offset="1" style="stop-color:#5B5B5B"/>
	</linearGradient>
	<path fill="url(#SVGID_6_)" d="M-24.332,157.485c-24.524,47.868-64.282,76.843-88.807,64.73
		c-24.524-12.12-24.527-60.738-0.007-108.604c24.521-47.864,64.282-76.839,88.804-64.723C0.182,61.006,0.189,109.627-24.332,157.485
		z M-16.56,36.192c-28.621-13.199-73.423,21.284-100.067,77.014c-26.646,55.738-25.041,111.615,3.583,124.809
		c28.624,13.196,73.425-21.283,100.071-77.021C13.673,105.266,12.063,49.386-16.56,36.192z"/>
	
		<linearGradient id="SVGID_7_" gradientUnits="userSpaceOnUse" x1="143.5369" y1="-282.5303" x2="311.5246" y2="-185.5423" gradientTransform="matrix(1 0 0 -1 -295.8398 -98.5195)">
		<stop  offset="0" style="stop-color:#454645"/>
		<stop  offset="0.2906" style="stop-color:#5B5B5B"/>
		<stop  offset="0.6847" style="stop-color:#3A3B3B"/>
		<stop  offset="0.9754" style="stop-color:#717171"/>
	</linearGradient>
	<path fill="url(#SVGID_7_)" d="M-20.936,34.606c-28.106-13.199-72.106,21.282-98.269,77.012
		c-26.166,55.741-24.589,111.614,3.52,124.813c28.108,13.196,72.106-21.281,98.271-77.023C8.751,103.679,7.173,47.8-20.936,34.606z
		 M-28.571,155.899c-24.08,47.872-63.125,76.846-87.207,64.731c-24.083-12.12-24.088-60.737-0.008-108.605
		c24.08-47.863,63.127-76.838,87.208-64.725C-4.497,59.421-4.492,108.039-28.571,155.899z"/>
	<g>
		<path fill="#F3A50A" d="M-111.523,104.04c-0.046,0.024-0.089,0.053-0.139,0.085c-0.164,0.097-0.341,0.192-0.504,0.291
			c-0.006,0.01-0.009,0.021-0.017,0.03c-1.713,1.032-3.406,2.072-5.057,3.123c-0.664,1.343-1.323,2.685-1.965,4.053
			c-2.34,4.983-4.447,9.965-6.341,14.916c1.551-1.313,3.16-2.621,4.839-3.92c1.591-1.23,3.242-2.452,4.936-3.662
			c0.847-1.781,1.713-3.563,2.625-5.344c2.268-4.426,4.668-8.688,7.172-12.774c-1.884,1.054-3.735,2.127-5.551,3.208
			C-111.524,104.041-111.523,104.04-111.523,104.04z"/>
	</g>
	
		<linearGradient id="SVGID_8_" gradientUnits="userSpaceOnUse" x1="167.9197" y1="-218.6675" x2="186.1179" y2="-218.6675" gradientTransform="matrix(1 0 0 -1 -295.8398 -98.5195)">
		<stop  offset="0.3202" style="stop-color:#B96D1E"/>
		<stop  offset="1" style="stop-color:#915D1E"/>
	</linearGradient>
	<path fill="url(#SVGID_8_)" d="M-115.038,110.585c0.005-0.008,0.01-0.016,0.012-0.023c-0.117,0.075-0.228,0.156-0.348,0.231
		c-0.029,0.022-0.061,0.04-0.092,0.062c0,0.002-0.002,0.004-0.004,0.007c-1.655,1.073-3.275,2.159-4.868,3.252
		c-2.881,6.338-5.415,12.669-7.582,18.931c1.419-1.292,2.888-2.58,4.419-3.858l0,0c1.565-1.309,4.839-3.87,6.515-5.159
		c1.669-3.885,1.846-6.521,3.841-10.415c1.106-2.165,2.255-4.276,3.424-6.359C-111.526,108.351-113.3,109.465-115.038,110.585z"/>
	<path fill="#103951" d="M-66.643,183.17c-1.099-0.654-0.946-0.448-2.049-1.142c-1.177-0.73-2.35-1.459-3.532-2.232
		c-1.889,0.55-6.668-1.116-8.526-0.633c0.866,0.629,4.633,3.425,5.502,4.031c-0.007,0.006-0.014,0.009-0.021,0.012
		c0.399,0.278,0.795,0.542,1.194,0.821c0.239,0.166,0.481,0.343,0.72,0.508c0.006,0,0.008-0.002,0.015-0.002
		c0.771,0.533,1.821,1.231,2.589,1.746C-70.577,183.948-68.028,183.694-66.643,183.17z"/>
	<g>
		
			<linearGradient id="SVGID_9_" gradientUnits="userSpaceOnUse" x1="170.2908" y1="-212.207" x2="190.7947" y2="-212.207" gradientTransform="matrix(1 0 0 -1 -295.8398 -98.5195)">
			<stop  offset="0" style="stop-color:#F5B11B"/>
			<stop  offset="0.9606" style="stop-color:#F8BF1B"/>
		</linearGradient>
		<path fill="url(#SVGID_9_)" d="M-111.523,104.04c-0.046,0.024-0.089,0.053-0.139,0.085c-0.164,0.097-0.341,0.192-0.504,0.291
			c-0.006,0.01-0.009,0.021-0.017,0.03c-1.713,1.032-3.406,2.072-5.057,3.123c-1.39,1.483-3.081,3.937-3.723,5.306
			c-2.339,4.984-3.752,8.352-4.586,13.663c1.555-1.313,3.164-2.621,4.839-3.92c1.595-1.23,5.77-4.235,7.467-5.444
			c2.237-2.262,5.452-5.56,6.363-7.343c2.267-4.424,2.267-4.424,0.907-8.994c-1.884,1.055-3.735,2.127-5.551,3.209
			C-111.524,104.041-111.523,104.04-111.523,104.04z"/>
	</g>
	<path fill="#03698E" d="M-63.173,185.106c-1.132-0.685-3.894-2.397-5.033-3.126c-1.207-0.768-3.036-1.993-4.247-2.807
		c-1.944,0.581-6.238-0.647-8.148-0.136c0.892,0.657,4.764,3.527,5.66,4.172c-0.007,0.004-0.015,0.004-0.023,0.007
		c0.41,0.297,0.818,0.574,1.23,0.866c0.247,0.175,0.494,0.356,0.74,0.532c0.005-0.004,0.008-0.004,0.015-0.004
		c0.793,0.559,1.733,1.2,2.526,1.741C-67.668,185.357-64.596,185.655-63.173,185.106z"/>
</g>
</svg>
