<?xml version="1.0" encoding="utf-8"?>
<svg version="1.1" id="twitter" xmlns="http://www.w3.org/2000/svg" xmlns:xlink="http://www.w3.org/1999/xlink" x="0px" y="0px"
	 viewBox="0 0 72 72" enable-background="new 0 0 72 72" xml:space="preserve">
<path fill="#1DA1F2" d="M72,64c0,4.4-3.6,8-8,8H8c-4.4,0-8-3.6-8-8V8c0-4.4,3.6-8,8-8h56c4.4,0,8,3.6,8,8V64z"/>
<path fill="#FFFFFF" d="M57.3,18.4c-1.8,1.1-3.8,1.8-5.9,2.2c-1.7-1.8-4.1-2.9-6.7-2.9c-5.1,0-9.2,4.1-9.2,9.2
	c0,0.7,0.1,1.4,0.2,2.1c-7.7-0.4-14.5-4.1-19-9.6c-0.8,1.4-1.3,2.9-1.3,4.6c0,3.2,1.6,6,4.1,7.7c-1.5,0-2.9-0.5-4.2-1.2v0.1
	c0,4.5,3.2,8.2,7.4,9.1c-0.8,0.2-1.6,0.3-2.4,0.3c-0.6,0-1.2-0.1-1.7-0.2c1.2,3.7,4.6,6.3,8.6,6.4c-3.2,2.5-7.1,4-11.5,4
	c-0.7,0-1.5,0-2.2-0.1c4.1,2.6,8.9,4.1,14.2,4.1c17,0,26.3-14.1,26.3-26.3c0-0.4,0-0.8,0-1.2c1.8-1.3,3.4-2.9,4.6-4.8
	c-1.7,0.7-3.4,1.2-5.3,1.5C55.1,22.4,56.6,20.5,57.3,18.4z"/>
</svg>
