<?xml version="1.0" encoding="utf-8"?>
<svg version="1.1" id="discord" xmlns="http://www.w3.org/2000/svg" xmlns:xlink="http://www.w3.org/1999/xlink" x="0px" y="0px"
	 viewBox="0 0 72 72" enable-background="new 0 0 72 72" xml:space="preserve">
<path fill="#7289DA" d="M72,64c0,4.4-3.6,8-8,8H8c-4.4,0-8-3.6-8-8V8c0-4.4,3.6-8,8-8h56c4.4,0,8,3.6,8,8V64z"/>
<path fill="#FFFFFF" d="M30.7,18.2l-1.2,0.2c0,0-5.6,0.6-9.7,3.9h-0.1l-0.1,0.1c-0.9,0.9-1.3,1.9-1.9,3.4c-0.6,1.5-1.3,3.4-1.9,5.6
	c-1.2,4.2-2.2,9.4-2.2,14.2V46l0.2,0.4c1.5,2.6,4.1,4.2,6.6,5.4c2.5,1.2,4.6,1.8,6,1.8l1,0.1l0.5-0.9l1.8-3.1c1.8,0.4,4,0.7,6.5,0.7
	s4.6-0.3,6.5-0.7l1.8,3.1l0.5,0.9l1-0.1c1.4-0.1,3.6-0.6,6-1.8c2.4-1.2,5-2.8,6.6-5.4l0.2-0.4v-0.4c0-4.7-1-9.9-2.2-14.3
	c-0.6-2.2-1.3-4.1-1.9-5.6c-0.6-1.5-1-2.6-1.9-3.4l-0.1-0.1h-0.1c-4.2-3.2-9.8-3.8-9.8-3.8l-1.3-0.2l-0.5,1.1c0,0-0.5,1.2-0.7,2.5
	c-1.8-0.2-3.3-0.2-4.2-0.2c-0.9,0-2.3,0.1-4.2,0.3c-0.3-1.4-0.7-2.5-0.7-2.5L30.7,18.2z M28.5,21.9c0.1,0.2,0.2,0.4,0.2,0.6
	c-2.1,0.5-4.2,1.3-6.3,2.6l1.7,2.7c4.2-2.6,10.1-3,11.9-3s7.8,0.4,11.9,3l1.7-2.7c-2-1.3-4.2-2-6.3-2.6c0.1-0.2,0.2-0.4,0.2-0.6
	c1.5,0.3,4.3,1,6.7,2.9c0,0,0.6,1,1.1,2.2c0.6,1.4,1.2,3.2,1.8,5.2c1.1,3.9,1.9,8.6,2,12.9c-1,1.5-2.9,3-4.9,3.8
	c-1.8,0.8-3.1,1.1-3.9,1.3l-0.7-1.4c0.5-0.2,1-0.4,1.4-0.6c2.5-1.1,3.8-2.2,3.8-2.2l-2.1-2.4c0,0-0.9,0.8-3,1.8
	c-2.2,1-5.4,1.8-9.7,1.8s-7.5-1-9.7-1.8c-2.2-0.9-3-1.8-3-1.8L21.2,46c0,0,1.4,1.2,3.8,2.2c0.4,0.2,0.9,0.4,1.4,0.6l-0.8,1.4
	c-0.8-0.2-2.2-0.5-3.9-1.3c-2-1-3.8-2.3-4.9-3.8c0.1-4.2,0.9-9,2-12.9c0.6-2,1.2-3.8,1.8-5.2c0.6-1.3,1.2-2.2,1.1-2.2
	C24.1,22.9,27,22.1,28.5,21.9z M30.4,32.8c-1.2,0-2.3,0.7-3,1.6c-0.7,0.9-1,2-1,3.2c0,1.2,0.3,2.3,1,3.2c0.7,0.9,1.8,1.6,3,1.6
	s2.3-0.7,3-1.6c0.7-0.9,1-2,1-3.2c0-1.2-0.3-2.3-1-3.2C32.8,33.5,31.6,32.8,30.4,32.8z M41.6,32.8c-1.2,0-2.3,0.7-3,1.6
	c-0.7,0.9-1,2-1,3.2c0,1.2,0.3,2.3,1,3.2c0.7,0.9,1.8,1.6,3,1.6c1.3,0,2.3-0.7,3-1.6c0.7-0.9,1-2,1-3.2c0-1.2-0.3-2.3-1-3.2
	C44,33.5,42.8,32.8,41.6,32.8z M30.4,36c0.1,0,0.2,0,0.4,0.3c0.2,0.2,0.4,0.7,0.4,1.3c0,0.6-0.2,1-0.4,1.3c-0.2,0.2-0.3,0.3-0.4,0.3
	c-0.1,0-0.2,0-0.4-0.3s-0.4-0.7-0.4-1.3c0-0.6,0.2-1,0.4-1.3C30.2,36.1,30.3,36,30.4,36z M41.6,36c0.1,0,0.2,0,0.4,0.3
	c0.2,0.2,0.4,0.7,0.4,1.3c0,0.6-0.2,1-0.4,1.3c-0.2,0.2-0.3,0.3-0.4,0.3c-0.1,0-0.2,0-0.4-0.3c-0.2-0.3-0.4-0.7-0.4-1.3
	c0-0.6,0.2-1,0.4-1.3C41.4,36.1,41.5,36,41.6,36z"/>
</svg>
