<svg xmlns="http://www.w3.org/2000/svg" xmlns:xlink="http://www.w3.org/1999/xlink" viewBox="0 0 72 72"><path d="M72,64c0,4.4-3.6,8-8,8H8c-4.4,0-8-3.6-8-8V8c0-4.4,3.6-8,8-8h56c4.4,0,8,3.6,8,8V64z" fill="#9e9e9e"/><g fill="#fff"><path d="M56.9 32.3h-.8c-.7-4.1-2.7-7.8-5.6-10.8-3.9-3.9-9-6-14.4-6s-10.6 2.1-14.4 6c-3 3-4.9 6.8-5.7 10.9h-.8a1.58 1.58 0 0 0-1.6 1.6v6a1.58 1.58 0 0 0 1.6 1.6h1.3c1.1 3.8 3.3 7.2 6.3 9.8.3.2.7.2.9-.1s.2-.7-.1-.9a22.84 22.84 0 0 1-2.2-2.2c1-.4 2-.8 3.1-1.1.5.9 1 1.7 1.7 2.5 1.3 1.8 2.9 3.3 4.5 4.6-1.3-.4-2.6-.9-3.9-1.6-.3-.2-.7-.1-.9.3-.2.3-.1.7.3.9a20.05 20.05 0 0 0 9.9 2.6c5.4 0 10.6-2.1 14.4-6 2.5-2.5 4.2-5.5 5.2-8.7H57a1.58 1.58 0 0 0 1.6-1.6V34c-.1-.9-.8-1.7-1.7-1.7zm-2.2 0h-4.6c-.1-.3-.1-.7-.2-1-.4-1.9-1-3.7-1.8-5.4.1 0 .2-.1.4-.1.8-.2 1.9-.6 3-1 1.6 2.3 2.7 4.8 3.2 7.5zm-5.9.1H42c0-.3 0-.7-.1-1-.1-1.5-.3-2.9-.6-4.3 1.9-.2 3.7-.5 5.5-.9.8 1.7 1.5 3.5 1.8 5.3.1.4.2.7.2.9zm.7-9.9c.4.4.8.8 1.1 1.2-.9.4-1.8.6-2.5.8-.2.1-.4.1-.6.2-.4-.7-.9-1.5-1.4-2.2-1.3-1.8-2.9-3.5-4.7-4.8a18.63 18.63 0 0 1 8.1 4.8zM38 17c2.8 1.6 5.2 3.7 7 6.3.4.6.8 1.1 1.1 1.7-1.6.4-3.3.6-5.1.8-.8-3.6-1.9-6.6-3.4-8.9.2.1.3.1.4.1zm-2-.1c1.7 2.1 2.9 5.3 3.8 9.1-1.4.1-2.9.1-4.3.1-1 0-2.1 0-3.2-.1.8-3.8 2-7 3.7-9.1zm-1.7.1c-1.5 2.3-2.6 5.3-3.4 8.9-1.7-.1-3.4-.4-5.1-.8.4-.6.7-1.2 1.2-1.8 1.8-2.6 4.2-4.7 7-6.3h.3zm-3.6 10.2l-.6 4.2c0 .3-.1.7-.1 1h-6.8c0-.3.1-.6.2-.8.4-1.8 1-3.6 1.8-5.3 1.8.5 3.7.7 5.5.9zm-8.2-4.7a18.88 18.88 0 0 1 8-4.8c-1.8 1.4-3.3 3-4.7 4.8-.5.7-1 1.5-1.4 2.2-1-.3-2.1-.6-3.1-1.1.5-.3.8-.7 1.2-1.1zm-1.9 2.3c1.1.5 2.2.9 3.3 1.2-.8 1.7-1.4 3.5-1.8 5.3-.1.4-.1.7-.2 1.1h-4.6c.5-2.7 1.6-5.3 3.3-7.6zm-5.5 15.5c-.2 0-.3-.1-.3-.3v-5.9c0-.2.1-.3.3-.3h19a.68.68 0 0 0 .7-.7.68.68 0 0 0-.7-.7h-2.8c0-.3 0-.6.1-.9.1-1.5.3-2.9.6-4.3 1.2.1 2.4.1 3.4.1h.8c1.3 0 2.6 0 3.8-.1.3 1.4.4 2.8.6 4.3 0 .3 0 .6.1.9h-2.4a.68.68 0 0 0-.7.7.68.68 0 0 0 .7.7h10.2v6.6l-33.4-.1zm33.3 1.3c-.4 1.4-.9 2.8-1.6 4.1-1.7-.4-3.6-.7-5.5-.9.2-1 .3-2.1.5-3.2h6.6zm-7.9 0c-.1 1-.3 2.1-.5 3.1-1.5-.1-3-.2-4.6-.1-1.1 0-2.2 0-3.4.1-.2-1-.3-2-.5-3.1h9zm-19.9 5.6c-1.2-1.7-2.2-3.6-2.8-5.6h4.5c.4 1.5.9 3 1.6 4.4-1.2.3-2.3.7-3.3 1.2zm3-5.6h6.6c.1 1.1.3 2.1.5 3.2-1.8.2-3.6.4-5.5.9-.7-1.3-1.2-2.7-1.6-4.1zM34 55c-2.5-1.4-4.8-3.5-6.8-6-.5-.7-1-1.3-1.4-2 1.7-.4 3.4-.6 5.1-.8l.9 3.4c.5 1.6 1.4 3.7 2.5 5.5-.1-.1-.2-.1-.3-.1zm2 .1c-1.1-1.4-2.1-3.4-2.9-6l-.9-3.1c1.1-.1 2.2-.1 3.2-.1 1.5 0 2.9 0 4.3.1-.2 1.1-.5 2.1-.8 3.1-.8 2.5-1.8 4.6-2.9 6zm1.7-.1c1.1-1.8 1.9-3.9 2.5-5.5.4-1.1.7-2.2.9-3.4 1.7.2 3.4.5 5.1.8a22.63 22.63 0 0 1-1.3 2c-2 2.6-4.3 4.7-6.8 6-.2.1-.3.1-.4.1zm11.8-5.5c-2.3 2.3-5.1 3.9-8.1 4.8 1.6-1.3 3.1-2.8 4.5-4.6.6-.8 1.1-1.6 1.6-2.4.2.1.4.1.6.2.7.2 1.6.5 2.5.8-.4.4-.7.8-1.1 1.2zm1.9-2.3c-1-.4-2.1-.8-3-1-.1 0-.2-.1-.4-.1.7-1.4 1.2-2.9 1.6-4.4h4.5c-.5 1.9-1.4 3.8-2.7 5.5zm5.8-7.2c0 .2-.1.3-.3.3h-7v-6.6h7c.2 0 .3.1.3.3v6zm-38.7-1.7c0 .1-.1.2-.3.2s-.3-.1-.3-.2V35c0-.1.1-.2.3-.2s.3.1.3.2v1.5c.1-.2.3-.4.6-.4.4 0 .8.4.8 1v1.2c0 .1-.2.2-.3.2s-.3-.1-.3-.2v-1.2c0-.2-.2-.4-.4-.4s-.4.2-.4.4v1.2z"/><use xlink:href="#B"/><use xlink:href="#B" x="2"/><path d="M25.3 36.4v.1c.1-.2.3-.4.7-.4.5 0 .9.4.9 1v.4c0 .5-.4 1-.9 1-.3 0-.5-.2-.6-.4v1.2c0 .1-.1.2-.3.2s-.3-.1-.3-.2v-3c0-.1.1-.2.3-.2 0 .1.2.2.2.3zm.9.8c0-.2-.2-.4-.4-.4s-.4.2-.4.4v.5c0 .1.2.4.4.4s.4-.2.4-.4v-.5zm2.4.7c0-.4-1.2-.2-1.2-1 0-.3.2-.7.9-.7.4 0 .8.1.8.3 0 .1-.1.3-.2.3s-.3-.1-.5-.1-.3.1-.3.2c0 .4 1.2.1 1.2 1 0 .4-.3.7-.9.7-.5 0-.9-.2-.9-.4 0-.1.1-.3.2-.3s.2.2.7.2c.1 0 .2-.1.2-.2zm1.8-1.1c0 .2-.2.3-.3.3-.2 0-.3-.2-.3-.3 0-.2.1-.3.3-.3s.3.1.3.3zm0 1.4c0 .2-.2.3-.3.3-.2 0-.3-.2-.3-.3 0-.2.1-.3.3-.3s.3.1.3.3zm2.8-3.2l-1.8 3.6c0 .1-.1.1-.2.1s-.2-.1-.2-.2v-.1l1.8-3.6c0-.1.1-.1.2-.1.1.1.2.1.2.3zm1.5 0l-1.8 3.6c0 .1-.1.1-.2.1s-.2-.1-.2-.2v-.1l1.8-3.6c0-.1.1-.1.2-.1.1.1.2.1.2.3zm2.8 3.5c0 .1-.1.1-.2.1s-.2 0-.3-.1l-.4-1.1-.4 1.1c0 .1-.1.1-.3.1-.1 0-.2 0-.2-.1l-.7-2v-.1c0-.2.2-.3.4-.3.1 0 .2 0 .2.1l.5 1.4.4-1.2c0-.1.1-.1.2-.1s.2 0 .2.1l.4 1.2.5-1.4c0-.1.1-.1.2-.1.2 0 .4.1.4.3v.1l-.9 2z"/><use xlink:href="#C"/><use xlink:href="#C" x="3.7"/><path d="M55.4 35.6l-.7-.1-.3-.6c-.2-.3-.5-.6-.9-.6s-.7.2-.9.6l-.3.6-.7.1c-.4.1-.7.3-.8.7s0 .8.3 1l.5.5-.1.7c-.1.4.1.7.4 1 .3.2.7.3 1 .1l.6-.3.6.3c.1.1.3.1.5.1s.4-.1.6-.2c.3-.2.5-.6.4-1l-.1-.7.5-.5c.3-.3.4-.7.3-1a1.27 1.27 0 0 0-.9-.7zm-1 1.4c-.2.2-.3.6-.3.9v.2L54 38c-.3-.2-.6-.2-.9 0l-.2.1v-.2c.1-.3-.1-.6-.3-.9l-.2-.2h.2c.3 0 .6-.2.7-.5l.1-.2.1.2c.1.3.4.5.7.5h.2v.2z"/></g><defs ><path id="B" d="M21.3 37.7c0 .2.1.3.3.3h.2c.2 0 .3.1.3.3 0 .1-.1.3-.3.3h-.2c-.6 0-.9-.2-.9-.8v-2.4c0-.1.2-.2.3-.2.2 0 .3.1.3.2v.8h.6c.1 0 .2.1.2.2s-.1.2-.2.2h-.6v1.1z"/><path id="C" d="M41.2 38.5c0 .1-.1.1-.2.1s-.2 0-.3-.1l-.4-1.1-.4 1.1c0 .1-.1.1-.3.1-.1 0-.2 0-.2-.1l-.8-1.9v-.1c0-.2.2-.3.4-.3.1 0 .2 0 .2.1l.5 1.4.4-1.2c0-.1.1-.1.2-.1s.2 0 .2.1l.4 1.2.5-1.4c0-.1.1-.1.2-.1.2 0 .4.1.4.3v.1l-.8 1.9z"/></defs></svg>