<svg xmlns="http://www.w3.org/2000/svg" viewBox="0 0 72 72"><path fill="#1d70b5" d="M72,64c0,4.4-3.6,8-8,8H8c-4.4,0-8-3.6-8-8V8c0-4.4,3.6-8,8-8h56c4.4,0,8,3.6,8,8V64z"/><path fill="#fff" d="M51.9 20.1c-8.8-8.8-23-8.8-31.8 0s-8.8 23 0 31.8 23 8.8 31.8 0 8.8-23 0-31.8zM51 48.7c-1.1-.9-2.2-1.8-3.4-2.5.8-2.7 1.2-5.7 1.4-8.8h6.6A19.57 19.57 0 0 1 51 48.7zM16.4 37.4H23c.1 3.1.6 6.1 1.4 8.8-1.2.7-2.3 1.5-3.4 2.5a19.57 19.57 0 0 1-4.6-11.3zM21 23.3c1.1.9 2.2 1.8 3.4 2.5-.8 2.7-1.2 5.7-1.4 8.8h-6.6A19.57 19.57 0 0 1 21 23.3zm13.6 2.8c-2.3-.2-4.6-.7-6.7-1.7 1.2-3.1 3.5-6.9 6.7-7.8v9.5zm0 2.9v5.6h-8.7a34.72 34.72 0 0 1 1.1-7.4c2.4 1 4.9 1.6 7.6 1.8zm0 8.4V43c-2.6.2-5.2.8-7.6 1.8a34.72 34.72 0 0 1-1.1-7.4h8.7zm0 8.5v9.5c-3.2-.9-5.5-4.7-6.7-7.8 2.1-.9 4.3-1.5 6.7-1.7zm2.8 0c2.3.2 4.6.7 6.7 1.7-1.2 3.1-3.5 6.9-6.7 7.8v-9.5zm0-2.9v-5.6h8.7a34.72 34.72 0 0 1-1.1 7.4c-2.4-1-4.9-1.6-7.6-1.8zm0-8.4V29c2.6-.2 5.2-.8 7.6-1.8a34.72 34.72 0 0 1 1.1 7.4h-8.7zm0-8.5v-9.5c3.2.9 5.5 4.7 6.7 7.8-2.1.9-4.3 1.5-6.7 1.7zm6.5-8.1c1.8.8 3.5 1.9 5.1 3.2-.7.6-1.5 1.2-2.3 1.8-.8-1.8-1.7-3.5-2.8-5zm-18.5 5c-.8-.5-1.6-1.1-2.3-1.8 1.5-1.4 3.2-2.4 5.1-3.2-1.2 1.5-2.1 3.2-2.8 5zm0 26c.7 1.8 1.6 3.5 2.8 5-1.8-.8-3.5-1.9-5.1-3.2.7-.7 1.4-1.3 2.3-1.8zm21.2 0c.8.5 1.6 1.1 2.3 1.8-1.5 1.4-3.2 2.4-5.1 3.2 1.2-1.5 2.1-3.2 2.8-5zM49 34.6c-.1-3.1-.6-6.1-1.4-8.8 1.2-.7 2.3-1.5 3.4-2.5a19.57 19.57 0 0 1 4.6 11.3H49z"/></svg>