<svg version="1.1" xmlns="http://www.w3.org/2000/svg" xmlns:xlink="http://www.w3.org/1999/xlink" x="0px" y="0px"
	 viewBox="0 0 512 512" style="enable-background:new 0 0 512 512;" xml:space="preserve">
<path style="fill:#E2E5E7;" d="M128,0c-17.6,0-32,14.4-32,32v448c0,17.6,14.4,32,32,32h320c17.6,0,32-14.4,32-32V128L352,0H128z"/>
<path style="fill:#B0B7BD;" d="M384,128h96L352,0v96C352,113.6,366.4,128,384,128z"/>
<polygon style="fill:#CAD1D8;" points="480,224 384,128 480,128 "/>
<path style="fill:#576D7E;" d="M416,416c0,8.8-7.2,16-16,16H48c-8.8,0-16-7.2-16-16V256c0-8.8,7.2-16,16-16h352c8.8,0,16,7.2,16,16
	V416z"/>
<g>
	<path style="fill:#FFFFFF;" d="M102.9,303.2c0-4.2,3.3-8.8,8.7-8.8h29.6c16.6,0,31.6,11.1,31.6,32.5c0,20.2-15,31.5-31.6,31.5
		h-21.4v16.9c0,5.6-3.6,8.8-8.2,8.8c-4.2,0-8.7-3.2-8.7-8.8C102.9,375.2,102.9,303.2,102.9,303.2z M119.8,310.4v31.9h21.4
		c8.6,0,15.4-7.6,15.4-15.5c0-9-6.8-16.4-15.4-16.4L119.8,310.4L119.8,310.4z"/>
	<path style="fill:#FFFFFF;" d="M186.5,376.1v-72.7c0-4.6,3.3-7.9,9.1-7.9c4.5,0,7.8,3.3,7.8,7.9v27.9h41.7v-27.9
		c0-4.6,4.1-7.9,8.7-7.9c4.5,0,7.9,3.3,7.9,7.9v72.7c0,4.5-3.5,7.9-7.9,7.9c-4.6,0-8.7-3.5-8.7-7.9v-28h-41.7v28
		c0,4.5-3.3,7.9-7.8,7.9C189.8,384,186.5,380.5,186.5,376.1z"/>
	<path style="fill:#FFFFFF;" d="M279.7,303.2c0-4.2,3.3-8.8,8.7-8.8h29.6c16.6,0,31.6,11.1,31.6,32.5c0,20.2-15,31.5-31.6,31.5
		h-21.4v16.9c0,5.6-3.6,8.8-8.2,8.8c-4.2,0-8.7-3.2-8.7-8.8V303.2L279.7,303.2z M296.6,310.4v31.9h21.4c8.6,0,15.4-7.6,15.4-15.5
		c0-9-6.8-16.4-15.4-16.4L296.6,310.4L296.6,310.4z"/>
</g>
<path style="fill:#CAD1D8;" d="M400,432H96v16h304c8.8,0,16-7.2,16-16v-16C416,424.8,408.8,432,400,432z"/>
</svg>