<svg xmlns="http://www.w3.org/2000/svg" viewBox="0 0 512 512"><path d="M128,0c-17.6,0-32,14.4-32,32v448c0,17.6,14.4,32,32,32h320c17.6,0,32-14.4,32-32V128L352,0H128z" fill="#e2e5e7"/><path d="M384 128h96L352 0v96c0 17.6 14.4 32 32 32z" fill="#b0b7bd"/><path d="M480 224l-96-96h96z" fill="#cad1d8"/><path d="M416 416c0 8.8-7.2 16-16 16H48c-8.8 0-16-7.2-16-16V256c0-8.8 7.2-16 16-16h352c8.8 0 16 7.2 16 16v160z" fill="#576d7e"/><path d="M102.9 303.2c0-4.2 3.3-8.8 8.7-8.8h29.6c16.6 0 31.6 11.1 31.6 32.5 0 20.2-15 31.5-31.6 31.5h-21.4v16.9c0 5.6-3.6 8.8-8.2 8.8-4.2 0-8.7-3.2-8.7-8.8v-72.1zm16.9 7.2v31.9h21.4c8.6 0 15.4-7.6 15.4-15.5 0-9-6.8-16.4-15.4-16.4h-21.4zm66.7 65.7v-72.7c0-4.6 3.3-7.9 9.1-7.9 4.5 0 7.8 3.3 7.8 7.9v27.9h41.7v-27.9c0-4.6 4.1-7.9 8.7-7.9 4.5 0 7.9 3.3 7.9 7.9v72.7c0 4.5-3.5 7.9-7.9 7.9-4.6 0-8.7-3.5-8.7-7.9v-28h-41.7v28c0 4.5-3.3 7.9-7.8 7.9-5.8 0-9.1-3.5-9.1-7.9zm93.2-72.9c0-4.2 3.3-8.8 8.7-8.8H318c16.6 0 31.6 11.1 31.6 32.5 0 20.2-15 31.5-31.6 31.5h-21.4v16.9c0 5.6-3.6 8.8-8.2 8.8-4.2 0-8.7-3.2-8.7-8.8v-72.1zm16.9 7.2v31.9H318c8.6 0 15.4-7.6 15.4-15.5 0-9-6.8-16.4-15.4-16.4h-21.4z" fill="#fff"/><path d="M400 432H96v16h304c8.8 0 16-7.2 16-16v-16c0 8.8-7.2 16-16 16z" fill="#cad1d8"/></svg>