<?xml version="1.0" encoding="iso-8859-1"?>
<!-- Generator: Adobe Illustrator 19.0.0, SVG Export Plug-In . SVG Version: 6.00 Build 0)  -->
<svg version="1.1" id="Layer_1" xmlns="http://www.w3.org/2000/svg" xmlns:xlink="http://www.w3.org/1999/xlink" x="0px" y="0px"
	 viewBox="0 0 512 512" style="enable-background:new 0 0 512 512;" xml:space="preserve">
<polygon style="fill:#656D78;" points="474,66.672 448,74.672 439.344,108.344 434.656,370.016 502,366.672 502,90.672 "/>
<polygon style="fill:#FFCE54;" points="322.672,138.672 322.672,74.672 14.672,74.672 6.672,384 224,390.672 329.344,437.344 
	341.344,392 398.672,378.672 398.672,138.672 "/>
<path style="fill:#F6BB42;" d="M320.656,72v72.672H394C394,144.672,322.672,74.672,320.656,72z"/>
<polygon style="fill:#CCD1D9;" points="481,370.016 451,367 439,419 471.5,442.5 502,422.5 "/>
<path d="M324.469,57.406H0v341.328l229.633-0.016l111.711,55.875l-0.016-55.859h64.016V133.516L324.469,57.406z M330.656,92.531
	l43.625,41.062h-43.625V92.531z M319.984,377.406L320,420.063l-85.328-42.688l-213.336,0.031V78.734h288.008v76.188H384v222.484
	H319.984z"/>
<path d="M512,101.375c0-23.578-19.094-42.688-42.656-42.688c-23.578,0-42.688,19.109-42.688,42.688v277.312h14.828l-14.828,46.234
	l42.688,28.453L512,424.922l-14.812-46.234H512V101.375z M448,101.375c0-11.781,9.562-21.344,21.344-21.344
	c11.75,0,21.312,9.562,21.312,21.344v255.984H448V101.375z M486.766,416.094l-17.422,11.625l-17.438-11.625l11.984-37.406h10.891
	L486.766,416.094z"/>
<path d="M330.656,281.406H74.664c-5.891,0-10.664,4.766-10.664,10.656c0,5.906,4.773,10.672,10.664,10.672h255.992
	c5.906,0,10.688-4.766,10.688-10.672C341.344,286.172,336.562,281.406,330.656,281.406z"/>
<path d="M330.656,217.406H74.664c-5.891,0-10.664,4.766-10.664,10.656c0,5.906,4.773,10.672,10.664,10.672h255.992
	c5.906,0,10.688-4.766,10.688-10.672C341.344,222.172,336.562,217.406,330.656,217.406z"/>
<path d="M74.664,174.734h138.672c5.891,0,10.664-4.766,10.664-10.672c0-5.891-4.773-10.656-10.664-10.656H74.664
	c-5.891,0-10.664,4.766-10.664,10.656C64,169.969,68.773,174.734,74.664,174.734z"/>
<g>
</g>
<g>
</g>
<g>
</g>
<g>
</g>
<g>
</g>
<g>
</g>
<g>
</g>
<g>
</g>
<g>
</g>
<g>
</g>
<g>
</g>
<g>
</g>
<g>
</g>
<g>
</g>
<g>
</g>
</svg>
