<svg version="1.1" xmlns="http://www.w3.org/2000/svg" xmlns:xlink="http://www.w3.org/1999/xlink" x="0px" y="0px"
	 viewBox="0 0 512 512" style="enable-background:new 0 0 512 512;" xml:space="preserve">
<polygon style="fill:#656D78;" points="474,66.7 448,74.7 439.3,108.3 434.7,370 502,366.7 502,90.7 "/>
<polygon style="fill:#FFCE54;" points="322.7,138.7 322.7,74.7 14.7,74.7 6.7,384 224,390.7 329.3,437.3 341.3,392 398.7,378.7
	398.7,138.7 "/>
<path style="fill:#F6BB42;" d="M320.7,72v72.7H394C394,144.7,322.7,74.7,320.7,72z"/>
<polygon style="fill:#CCD1D9;" points="481,370 451,367 439,419 471.5,442.5 502,422.5 "/>
<path d="M324.5,57.4H0v341.3l229.6,0l111.7,55.9l0-55.9h64V133.5L324.5,57.4z M330.7,92.5l43.6,41.1h-43.6V92.5z M320,377.4l0,42.7
	l-85.3-42.7l-213.3,0V78.7h288v76.2H384v222.5H320z"/>
<path d="M512,101.4c0-23.6-19.1-42.7-42.7-42.7c-23.6,0-42.7,19.1-42.7,42.7v277.3h14.8l-14.8,46.2l42.7,28.5l42.7-28.5l-14.8-46.2
	H512V101.4z M448,101.4c0-11.8,9.6-21.3,21.3-21.3c11.8,0,21.3,9.6,21.3,21.3v256H448V101.4z M486.8,416.1l-17.4,11.6l-17.4-11.6
	l12-37.4h10.9L486.8,416.1z"/>
<path d="M330.7,281.4h-256c-5.9,0-10.7,4.8-10.7,10.7c0,5.9,4.8,10.7,10.7,10.7h256c5.9,0,10.7-4.8,10.7-10.7
	C341.3,286.2,336.6,281.4,330.7,281.4z"/>
<path d="M330.7,217.4h-256c-5.9,0-10.7,4.8-10.7,10.7c0,5.9,4.8,10.7,10.7,10.7h256c5.9,0,10.7-4.8,10.7-10.7
	C341.3,222.2,336.6,217.4,330.7,217.4z"/>
<path d="M74.7,174.7h138.7c5.9,0,10.7-4.8,10.7-10.7c0-5.9-4.8-10.7-10.7-10.7H74.7c-5.9,0-10.7,4.8-10.7,10.7
	C64,170,68.8,174.7,74.7,174.7z"/>
</svg>