<svg xmlns="http://www.w3.org/2000/svg" xmlns:xlink="http://www.w3.org/1999/xlink" viewBox="0 0 512 512"><path d="M474 66.7l-26 8-8.7 33.6-4.6 261.7 67.3-3.3v-276z" fill="#656d78"/><path d="M322.7 138.7v-64h-308L6.7 384l217.3 6.7 105.3 46.6 12-45.3 57.4-13.3v-240z" fill="#ffce54"/><path d="M320.7 72v72.7H394L320.7 72z" fill="#f6bb42"/><path d="M481 370l-30-3-12 52 32.5 23.5 30.5-20z" fill="#ccd1d9"/><path d="M324.5 57.4H0v341.3h229.6l111.7 55.9v-55.9h64V133.5l-80.8-76.1zm6.2 35.1l43.6 41.1h-43.6V92.5zM320 377.4v42.7l-85.3-42.7H21.4V78.7h288v76.2H384v222.5h-64zm192-276c0-23.6-19.1-42.7-42.7-42.7s-42.7 19.1-42.7 42.7v277.3h14.8l-14.8 46.2 42.7 28.5 42.7-28.5-14.8-46.2H512V101.4zm-64 0c0-11.8 9.6-21.3 21.3-21.3 11.8 0 21.3 9.6 21.3 21.3v256H448v-256zm38.8 314.7l-17.4 11.6-17.4-11.6 12-37.4h10.9l11.9 37.4z"/><use xlink:href="#B"/><use xlink:href="#B" y="-64"/><path d="M74.7 174.7h138.7c5.9 0 10.7-4.8 10.7-10.7s-4.8-10.7-10.7-10.7H74.7c-5.9 0-10.7 4.8-10.7 10.7 0 6 4.8 10.7 10.7 10.7z"/><defs ><path id="B" d="M330.7 281.4h-256c-5.9 0-10.7 4.8-10.7 10.7s4.8 10.7 10.7 10.7h256c5.9 0 10.7-4.8 10.7-10.7-.1-5.9-4.8-10.7-10.7-10.7z"/></defs></svg>