<svg xmlns="http://www.w3.org/2000/svg" viewBox="0 0 72 72"><path d="M72,64c0,4.4-3.6,8-8,8H8c-4.4,0-8-3.6-8-8V8c0-4.4,3.6-8,8-8h56c4.4,0,8,3.6,8,8V64z" fill="#009688"/><path d="M46.3 34.2c-6.7 0-12.2 5.5-12.2 12.2s5.5 12.2 12.2 12.2 12.2-5.5 12.2-12.2S53 34.2 46.3 34.2zm0 20.8a8.71 8.71 0 0 1-8.7-8.7 8.71 8.71 0 0 1 8.7-8.7 8.71 8.71 0 0 1 8.7 8.7 8.71 8.71 0 0 1-8.7 8.7zm-3.4-41.4L29 17.2l-15.5-3.7v41.1l15.6 3.9 5.8-1.5c-.9-.9-1.6-2-2.2-3.1l-1.8.5V20.3l10.4-2.7v13.9c1.1-.4 2.3-.7 3.5-.8V17.6L55 20.2v13.1c1.3.9 2.5 2 3.5 3.2v-19l-15.6-3.9zM27.3 54.4L17 51.9v-34l10.3 2.4v34.1zm20.8-10v-4.1h-3.5V48h6.9v-3.6z" fill="#fff"/></svg>