<svg id="Layer_1" enable-background="new 0 0 512 512" height="512" viewBox="0 0 512 512" width="512"
     xmlns="http://www.w3.org/2000/svg">
    <path d="m85.668 191.083-37.513 181.315c-11.42 55.197 30.73 106.96 87.096 106.96h241.498c56.366 0 98.516-51.763 87.096-106.96l-37.513-181.315z"
          fill="#f49634"/>
    <path d="m101.571 450.339c-15.901 0-26.837-15.849-21.347-30.773 12.531-34.065 45.269-58.364 83.682-58.364h184.188c38.413 0 71.151 24.299 83.682 58.364 5.49 14.924-5.446 30.773-21.347 30.773z"
          fill="#f5dbcd"/>
    <circle cx="90.694" cy="258.628" fill="#f0c9bc" r="46.082"/>
    <circle cx="421.306" cy="258.628" fill="#f0c9bc" r="46.082"/>
    <path d="m273.286 403.839h-34.572c-87.328 0-158.777-71.45-158.777-158.777v-74.394c0-96.492 78.948-82.033 175.44-82.033h1.247c96.492 0 175.441-14.459 175.441 82.033v74.393c-.001 87.328-71.451 158.778-158.779 158.778z"
          fill="#f5dbcd"/>
    <path d="m256.066 244.382c-68.255 0-123.586 51.87-123.586 115.856 0 .868.015 1.733.035 2.597 28.185 25.454 65.462 41.005 106.198 41.005h34.572c40.8 0 78.131-15.599 106.332-41.124.018-.824.033-1.649.033-2.478.002-63.986-55.329-115.856-123.584-115.856z"
          fill="#e7bb9f"/>
    <path d="m191.987 318.194c-3.674-25.636-6.094-52.77-.911-78.353 2.496-12.321 7.165-24.423 14.686-34.571 8.583-11.58 19.525-17.969 32.654-23.38 29.358-12.101 54.929-30.466 76.75-53.486 10.382-10.952 19.855-23.337 25.457-37.47.338-.854.696-1.735 1.063-2.635-25.235-1.135-54.251.335-85.063.335h-1.247c-96.492 0-175.44-14.459-175.44 82.033v74.394c0 79.595 59.361 145.99 135.996 157.125-11.291-26.939-19.787-54.984-23.945-83.992z"
          fill="#f0c9bc"/>
    <path d="m191.987 318.194c-2.565-17.898-4.509-36.525-3.692-54.845-33.616 20.706-55.815 56.364-55.815 96.888 0 .868.015 1.733.035 2.597 22.837 20.623 51.643 34.743 83.421 39.361-11.293-26.942-19.791-54.99-23.949-84.001z"
          fill="#da9d75"/>
    <path d="m256 321.344c-16.726 0-30.283-13.559-30.283-30.284v-22.017c0-4.566 3.701-8.267 8.267-8.267h44.034c4.566 0 8.267 3.701 8.267 8.267v22.017c-.002 16.726-13.559 30.284-30.285 30.284z"
          fill="#3f4750"/>
    <path d="m325.998 163.529 49.981 29.769c25.442 17.67 53.129 23.459 72.173 23.468 9.807.005 17.559-8.307 16.959-18.096-4.103-66.98-8.21-151.251-123.015-182.305-22.281-6.027-45.304-8.866-68.386-8.864l-35.384.002c-24.219.002-48.368 3.135-71.663 9.761-110.43 31.409-115.609 113.259-119.641 179.239-.655 10.71 8.613 19.29 19.259 17.948 49.229-6.207 115.944-53.493 147.075-102.317z"
          fill="#f7ad55"/>
    <path d="m79.936 422.121-.552-.163c-2.992 8.915-4.616 18.458-4.616 28.38v24.577c0 16.339 13.245 29.584 29.584 29.584h303.293c16.339 0 29.584-13.245 29.584-29.584v-24.577c0-9.945-1.63-19.509-4.635-28.441l-.532.223c-146.329 32.628-256.151 21.334-352.126.001z"
          fill="#ef7d92"/>
    <path d="m197.139 114.51c-6.406-5.014-13.235-10.226-19.26-16.119-3.826-3.743-10.05-3.277-13.266 1.001-6.04 8.034-12.22 15.964-18.631 23.706-9.157 11.058-18.797 21.721-29.075 31.749-9.62 9.386-19.997 17.792-30.231 26.477-10.478 8.891-23.114 20.308-37.024 25.359 3.417 5.34 9.731 8.638 16.628 7.769 45.885-5.785 106.955-47.258 140.249-92.401-3.106-2.544-6.228-5.067-9.39-7.541z"
          fill="#f49634"/>
    <path d="m344.225 118.43c2.137 19.505 4.376 48.924 7.673 60.525l24.081 14.342c25.442 17.67 53.129 23.459 72.173 23.468 7.308.003 13.47-4.614 15.89-11.017-2.544-1.698-5.095-3.385-7.669-5.038-12.443-7.991-60.072-31.015-100.735-88.222-4.733-4.159-12.099-.321-11.413 5.942z"
          fill="#f49634"/>
    <path d="m173.278 89.913c-2.607 65.572 105.774 121.311 170.556 122.359 10.8.175 19.558-8.634 19.554-19.435-.006-17.988-3.444-48.798-20.796-89.575"
          fill="#f7ad55"/>
    <path d="m456.342 299.115c11.347-9.832 18.545-24.331 18.545-40.488 0-13.565-5.086-25.95-13.429-35.397 5.038-.842 11.262-1.966 12.145-7.97.858-5.833-.76-13.005-1.119-18.891-2.069-33.862-4.415-72.243-21.061-106.515-19.448-40.041-54.569-66.448-107.369-80.73-22.384-6.054-46.044-9.124-70.326-9.124h-.019l-35.384.002c-25.481.002-50.283 3.382-73.714 10.047-51.382 14.616-85.569 41.047-104.515 80.805-16.211 34.019-18.532 72.003-20.58 105.517-.362 5.929-2.269 13.795-.973 19.58 1.341 5.991 7.633 6.24 12.667 6.545-8.74 9.532-14.097 22.209-14.097 36.132 0 16.157 7.198 30.655 18.545 40.487l-14.848 71.763c-6.553 31.676 3.52 65.135 26.459 87.945v16.092c0 20.448 16.636 37.084 37.084 37.084h303.293c20.448 0 37.084-16.636 37.084-37.084v-16.111c22.93-22.831 33.017-56.228 26.458-87.926zm-24.866-3.281c5.318-16.386 8.087-33.658 8.087-51.337v-19.846c12.089 6.522 20.324 19.304 20.324 33.976 0 17.754-12.058 32.732-28.411 37.207zm-51.522 55.895c-28.767 28.767-66.849 44.61-107.231 44.61h-33.444c-21.849 0-42.968-4.599-62.771-13.668-3.766-1.724-8.217-.07-9.942 3.696s-.07 8.217 3.696 9.942c21.777 9.973 44.998 15.03 69.017 15.03h33.444c38.487 0 75.059-13.09 104.702-37.166 19.941 7.704 36.115 23.021 44.957 42.366-110.499 23.647-219.723 27.179-332.765.008 8.915-19.509 25.289-34.917 45.461-42.558 4.055 3.382 9.276 8.872 14.837 5.024 4.125-2.854 4.267-9.102.273-12.139-27.854-21.186-48.794-51.692-57.834-85.555-5.609-21.009-4.916-42.259-4.916-63.759 16.012-4.777 33.344-12.863 51.215-24.031 19.58-12.235 37.788-26.963 53.148-42.726 22.125 24.23 51.877 41.474 82.183 53.382 27.376 10.757 59.799 19.72 89.358 14.058 7.809-1.497 7.174-13.484 7.432-19.316 17.226 10.258 33.896 18.89 53.79 22.833v22.737c-.001 40.382-15.843 78.465-44.61 107.232zm-306.317-254.422c16.983-35.64 48.083-59.462 95.077-72.829 22.097-6.285 45.518-9.473 69.612-9.475l35.384-.003h.018c22.958 0 45.304 2.895 66.41 8.604 48.365 13.083 80.353 36.897 97.794 72.804 16.91 34.815 17.768 74.351 20.294 112.201-15.929 2.488-48.506-1.01-77.968-21.471-.144-.1-.291-.194-.44-.284l-9.331-5.557c-1.356-19.219-6.418-46.722-20.991-80.971-1.623-3.813-6.027-5.585-9.838-3.965-3.812 1.622-5.586 6.026-3.965 9.838 21.657 50.895 20.881 85.799 19.625 98.093-36.054 4.017-75.452-11.274-106.342-28.467-30.398-16.918-69.754-46.582-68.202-85.614.165-4.139-3.057-7.627-7.196-7.792-4.134-.176-7.628 3.057-7.792 7.196-.66 16.596 4.965 33.322 16.452 49.408-14.852 15.434-32.695 30.015-51.533 41.786-28.677 17.919-56.182 27.425-76.862 26.799.219-3.364 1.551-75.317 19.794-110.301zm-21.524 161.32c0-14.672 8.236-27.449 20.324-33.971v19.841c0 17.254 2.993 34.706 8.733 51.517-16.682-4.252-29.057-19.399-29.057-37.387zm16.132 178.077c-12.649-18.269-17.294-40.805-12.746-62.787l13.701-66.223c5.689 2.502 11.888 4.046 18.399 4.419 8.662 18.814 20.72 36.045 35.312 50.737-28.909 13.601-50.02 41.109-54.666 73.854zm361.486 38.212c0 12.177-9.907 22.084-22.084 22.084h-27.995v-21.642c0-4.142-3.358-7.5-7.5-7.5s-7.5 3.358-7.5 7.5v21.642h-213.999v-21.642c0-4.142-3.358-7.5-7.5-7.5s-7.5 3.358-7.5 7.5v21.642h-31.3c-12.177 0-22.084-9.907-22.084-22.084v-24.577c0-6.728.828-13.265 2.37-19.522 115.939 27.45 229.589 25.922 342.722-.003 1.543 6.259 2.37 12.796 2.37 19.525zm14.027-38.215c-4.613-32.502-25.45-59.849-54.031-73.551 14.863-14.67 27.022-32.019 35.532-51.102 6.197-.454 12.104-1.962 17.541-4.354l13.701 66.224c4.547 21.98-.096 44.514-12.743 62.783z"/>
    <path d="m278.017 253.276h-44.034c-8.694 0-15.767 7.073-15.767 15.767v22.017c0 20.834 16.95 37.784 37.783 37.784s37.783-16.949 37.785-37.784v-22.017c0-8.693-7.073-15.767-15.767-15.767zm.767 37.784c-.001 12.563-10.222 22.784-22.785 22.784s-22.783-10.221-22.783-22.784v-22.017c0-.423.344-.767.767-.767h44.034c.423 0 .767.344.767.767z"/>
    <path d="m169.076 233.979c-4.142 0-7.5 3.358-7.5 7.5v13.734c0 4.142 3.358 7.5 7.5 7.5s7.5-3.358 7.5-7.5v-13.734c0-4.142-3.358-7.5-7.5-7.5z"/>
    <path d="m342.924 233.979c-4.142 0-7.5 3.358-7.5 7.5v13.734c0 4.142 3.358 7.5 7.5 7.5s7.5-3.358 7.5-7.5v-13.734c0-4.142-3.358-7.5-7.5-7.5z"/>
</svg>
