<svg xmlns="http://www.w3.org/2000/svg" viewBox="0 0 72 72"><path d="M72.1 64.1c0 4.4-3.6 8-8 8h-56c-4.4 0-8-3.6-8-8v-56c0-4.4 3.6-8 8-8h56c4.4 0 8 3.6 8 8v56z" fill="#ffd600"/><path d="M52.6 20.3l-.4-5.3c0-.3-.1-.5-.3-.8-.2-.2-.5-.3-.8-.3l-5.3-.3c-.5 0-1 .4-1 .9s.4 1 .9 1l3.3.2-4.1 4.1c-4.5-3.7-11.1-3.1-14.8 1.3-1.2 1.4-2 3.1-2.3 4.9-5.7 1.4-9.1 7.1-7.8 12.7 1.1 4.4 4.8 7.6 9.3 8v4.5H26c-.5 0-1 .4-1 1a.94.94 0 0 0 1 1h3.3v4.4c0 .5.4 1 1 1 .5 0 1-.4 1-1v-4.4h3.3c.5 0 1-.4 1-1a.94.94 0 0 0-1-1h-3.3v-4.5c4.7-.4 8.6-4 9.4-8.7 5.6-1.4 9.1-7.1 7.8-12.7-.4-1.6-1.1-3-2.1-4.2l4.1-4.1.2 3.3c0 .5.5.9 1 .9.4.1.9-.3.9-.9 0 .1 0 0 0 0zM30.3 45c-4.8 0-8.6-3.9-8.6-8.6 0-3.7 2.4-7 6-8.2.1 5.7 4.8 10.3 10.5 10.3h.4c-1 3.8-4.4 6.5-8.3 6.5zm8.6-8.4h-.7c-4.7 0-8.6-3.8-8.6-8.6v-.2h.7c4.8 0 8.6 3.9 8.6 8.6v.2zm7.6-6.6c-.4 1.5-1.2 2.9-2.3 4v.1c-1 1-2.2 1.7-3.4 2.1-.1-5.7-4.8-10.3-10.5-10.3h-.4c1.2-4.6 5.8-7.4 10.4-6.2 4.6 1.1 7.4 5.7 6.2 10.3z" fill="#fff"/></svg>