<svg id="Layer_1" enable-background="new 0 0 512 512" height="512" viewBox="0 0 512 512" width="512"
     xmlns="http://www.w3.org/2000/svg">
    <path d="m407.369 504.281h-83.129l-68.262-11.784-68.218 11.784h-83.129c-16.309 0-29.53-13.28-29.53-29.661v-24.64c0-49.356 39.835-89.367 88.973-89.367h183.851c49.139 0 88.973 40.011 88.973 89.367v24.64c.001 16.382-13.22 29.661-29.529 29.661z"
          fill="#66cdf7"/>
    <path d="m187.76 381.983h136.479v122.298h-136.479z" fill="#fff"/>
    <path d="m203.736 421.8c16.608 16.102 70.345 26.844 104.75.105l40.155-33.145-92.641-18.531-98.642 18.531z"
          fill="#f0c9bc"/>
    <path d="m121.637 350.376c-28.96 22.228-12.872 67.872 45.734 85.339 11.923 3.554 24.821-.215 33.207-9.44l39.112-43.026z"
          fill="#99ddfc"/>
    <path d="m390.747 350.376c30.256 24.697 12.488 67.872-46.118 85.339-11.923 3.554-24.821-.215-33.207-9.44l-39.112-43.026z"
          fill="#99ddfc"/>
    <ellipse cx="89.997" cy="258.473" fill="#f0c9bc" rx="45.997" ry="46.2"/>
    <ellipse cx="422.003" cy="258.473" fill="#f0c9bc" rx="45.997" ry="46.2"/>
    <path d="m274.254 403.361h-34.509c-88.183 0-160.042-69.48-159.248-159.187v-74.585c0-96.741 79.565-81.923 175.88-81.923h1.244c96.315 0 175.119-14.818 175.119 81.923v74.585c.001 87.552-71.318 159.187-158.486 159.187z"
          fill="#f5dbcd"/>
    <path d="m80.536 249.152c1.677 79.027 59.876 141.365 135.107 152.453.217.035.393.063.662.093-11.271-27.008-19.812-54.292-23.962-83.375-3.668-25.702-6.083-52.906-.91-78.555 2.491-12.353 7.152-24.486 14.659-34.66 8.567-11.609 19.489-18.015 32.594-23.441 29.304-12.132 54.828-30.544 76.61-53.624 10.362-10.98 19.818-23.397 25.411-37.566.337-.855.956-2.345 1.323-3.248-.234-.01-.466-.022-.701-.031-.316-.014-.637-.024-.954-.037-24.68-.921-52.872.503-82.753.503h-.761-.483-.761c-96.315 0-175.119-13.99-175.119 82.751v73.757c-.004.465.005.925.005 1.389.002 1.203.012 2.4.033 3.591z"
          fill="#f0c9bc"/>
    <path d="m255.999 321.653c-16.695 0-30.228-13.594-30.228-30.362v-22.074c0-4.578 3.694-8.288 8.252-8.288h43.953c4.558 0 8.252 3.71 8.252 8.288v22.074c-.001 16.769-13.533 30.362-30.229 30.362z"
          fill="#3f4750"/>
    <path d="m286.228 499.971c0-16.768-13.534-30.362-30.228-30.362s-30.229 13.594-30.229 30.362v4.31h60.457z"
          fill="#89b0e0"/>
    <ellipse cx="151.406" cy="282.241" fill="#ec9eb0" rx="31.381" ry="25.101"/>
    <ellipse cx="360.757" cy="282.241" fill="#ec9eb0" rx="31.381" ry="25.101"/>
    <path d="m326.255 163.74 50.164 29.921c25.535 17.76 53.323 23.579 72.437 23.588 9.843.005 17.623-8.35 17.021-18.189-4.118-67.323-8.24-152.027-123.465-183.24-22.363-6.058-45.47-8.911-68.636-8.91l-35.513.002c-24.308.002-48.545 3.151-71.926 9.811-110.833 31.573-116.031 113.842-120.078 180.16-.657 10.765 8.645 19.389 19.329 18.04 49.409-6.239 116.368-53.767 147.613-102.842z"
          fill="#4b555f"/>
    <path d="m196.925 114.47c-6.429-5.04-13.283-10.278-19.33-16.202-3.84-3.762-10.086-3.294-13.315 1.006-6.062 8.076-12.264 16.046-18.699 23.828-9.19 11.114-18.866 21.832-29.182 31.911-9.656 9.434-20.07 17.883-30.342 26.612-10.516 8.937-23.198 20.412-37.159 25.489 3.429 5.368 9.767 8.682 16.689 7.808 46.053-5.815 107.346-47.501 140.762-92.875-3.117-2.555-6.251-5.09-9.424-7.577z"
          fill="#3f4750"/>
    <path d="m344.549 118.41c2.145 19.605 4.392 49.175 7.701 60.835l24.169 14.416c25.535 17.76 53.323 23.579 72.437 23.588 7.335.003 13.519-4.638 15.948-11.074-2.554-1.706-5.114-3.402-7.697-5.064-12.489-8.032-60.292-31.174-101.103-88.674-4.75-4.18-12.144-.322-11.455 5.973z"
          fill="#3f4750"/>
    <path d="m172.977 89.747c-2.617 65.908 106.161 121.933 171.18 122.986 10.839.176 19.629-8.678 19.626-19.534-.006-18.08-3.457-49.048-20.872-90.034"
          fill="#4b555f"/>
    <path d="m474.887 258.627c0-13.565-5.08-25.953-13.422-35.398 2.698-.451 5.115-1.038 7.165-1.756 3.205-1.122 5.257-4.257 5.001-7.644-.425-5.636-.776-11.379-1.147-17.459-2.069-33.863-4.415-72.244-21.061-106.516-19.448-40.041-54.569-66.448-107.37-80.73-22.383-6.054-46.043-9.124-70.326-9.124h-.019l-35.384.002c-25.481.002-50.283 3.382-73.714 10.047-51.382 14.616-85.569 41.047-104.515 80.805-16.211 34.019-18.532 72.003-20.58 105.517-.372 6.081-.722 11.823-1.147 17.459-.294 3.897 2.454 7.367 6.314 7.974 2.107.331 4.277.555 6.496.69-8.73 9.531-14.066 22.218-14.066 36.134 0 28.505 22.377 51.876 50.486 53.486 6.129 13.313 13.962 25.817 23.182 37.206-8.235 7.981-12.324 18.269-11.736 29.451-19.505 17.692-31.776 43.223-31.776 71.568v24.577c0 20.448 16.636 37.084 37.084 37.084h303.293c20.448 0 37.085-16.636 37.085-37.084v-24.577c0-28.345-12.27-53.875-31.774-71.568.572-10.904-3.31-20.955-11.14-28.849 9.562-11.643 17.418-24.37 23.44-37.874 27.706-2.032 49.631-25.206 49.631-53.421zm-43.41 37.204c5.318-16.385 8.087-33.656 8.087-51.334v-19.831c12.087 6.521 20.324 19.292 20.324 33.962-.001 17.753-12.058 32.73-28.411 37.203zm-376.989-98.545c1.964-32.15 4.191-68.59 19.149-99.979 16.983-35.64 48.083-59.462 95.077-72.829 22.097-6.285 45.518-9.473 69.612-9.475l35.383-.003h.019c22.958 0 45.304 2.895 66.41 8.604 48.364 13.083 80.353 36.897 97.793 72.805 15.348 31.599 17.597 68.404 19.581 100.876.238 3.887.467 7.637.713 11.324-15.925 2.487-48.505-1.008-77.968-21.471-.144-.1-.29-.194-.44-.284l-9.331-5.558c-1.356-19.219-6.417-46.722-20.991-80.97-1.622-3.811-6.023-5.586-9.838-3.965-3.812 1.622-5.587 6.026-3.965 9.838 21.657 50.895 20.881 85.8 19.625 98.093-38.352 4.271-101.93-18.819-139.917-51.511-16.371-14.089-35.668-36.381-34.626-62.57.165-4.139-3.057-7.627-7.196-7.792-4.129-.176-7.627 3.057-7.792 7.196-.66 16.601 4.969 33.333 16.464 49.424-14.853 15.429-32.712 30.001-51.545 41.77-28.677 17.919-56.176 27.425-76.862 26.799.219-3.364.429-6.787.645-10.322zm-2.375 61.341c0-14.67 8.237-27.44 20.324-33.961v19.831c0 17.253 2.993 34.702 8.732 51.512-16.682-4.252-29.056-19.395-29.056-37.382zm88.993 120.186c1.357 1.032 2.952 1.531 4.535 1.531 2.263 0 4.499-1.02 5.975-2.96 2.508-3.297 1.868-8.002-1.429-10.51-18.556-14.114-34.167-32.542-45.146-53.294-16.242-30.7-17.604-62.325-17.604-96.02 16.012-4.777 33.344-12.863 51.215-24.031 19.578-12.234 37.792-26.959 53.154-42.721 4.13 4.522 8.736 8.975 13.809 13.341 37.887 32.605 97.678 55.617 140.25 55.616 17.957 0 24.128-3.216 24.908-20.84 17.156 10.288 33.967 18.904 53.791 22.833v22.737c0 40.382-15.843 78.465-44.609 107.232-28.768 28.767-66.85 44.61-107.231 44.61h-33.445c-21.849 0-42.968-4.599-62.771-13.668-3.765-1.724-8.217-.07-9.942 3.696s-.07 8.217 3.696 9.942c11.427 5.233 23.256 9.099 35.385 11.605l-20.769 22.748c-44.847-8.431-65.74-30.439-69.99-47.102-2.245-8.801-.175-16.829 5.816-22.987 6.335 6.613 13.158 12.733 20.402 18.242zm175.759 118.187h-23.226c-1.631-19.34-17.884-34.583-37.639-34.583-19.756 0-36.008 15.243-37.639 34.583h-23.226v-55.328l9.365-10.257c29.018 19.131 73.906 18.33 102.907-.101l9.458 10.359zm-38.31 0h-45.11c1.561-11.052 11.078-19.583 22.555-19.583s20.993 8.531 22.555 19.583zm18.551-76.968c-23.541 13.683-58.691 13.934-82.331.129l8.74-9.573c5.211.49 10.466.751 15.762.751h33.445c5.296 0 10.555-.255 15.766-.745zm-214.837 54.884v-24.577c0-21.021 8.001-40.195 21.102-54.677 13.377 29.018 47.265 43.425 76.764 49.342v51.996h-29.482v-21.642c0-4.142-3.358-7.5-7.5-7.5s-7.5 3.358-7.5 7.5v21.642h-31.3c-12.177 0-22.084-9.907-22.084-22.084zm347.462-24.577v24.577c0 12.177-9.907 22.084-22.085 22.084h-27.995v-21.642c0-4.142-3.357-7.5-7.5-7.5s-7.5 3.358-7.5 7.5v21.642h-32.786v-51.997c20.657-4.144 38.767-11.521 52.657-21.517 11.111-7.996 19.425-17.662 24.113-27.84 13.101 14.486 21.096 33.67 21.096 54.693zm-32.617-66.78c-4.25 16.663-25.143 38.671-69.99 47.102l-20.759-22.736c31.612-6.496 60.731-22.124 84.196-45.589.413-.413.813-.835 1.221-1.251 5.615 6.087 7.515 13.915 5.332 22.474z"/>
    <path d="m255.999 328.844c20.833 0 37.784-16.95 37.785-37.784v-22.017c0-8.694-7.073-15.767-15.768-15.767h-44.033c-8.694 0-15.767 7.073-15.767 15.767v22.017c0 20.835 16.95 37.784 37.783 37.784zm-22.783-59.801c0-.423.344-.767.767-.767h44.033c.423 0 .768.344.768.767v22.017c-.001 12.563-10.222 22.784-22.785 22.784s-22.783-10.221-22.783-22.784z"/>
    <path d="m169.076 262.714c4.142 0 7.5-3.358 7.5-7.5v-13.734c0-4.142-3.358-7.5-7.5-7.5s-7.5 3.358-7.5 7.5v13.734c0 4.142 3.358 7.5 7.5 7.5z"/>
    <path d="m342.924 262.714c4.143 0 7.5-3.358 7.5-7.5v-13.734c0-4.142-3.357-7.5-7.5-7.5s-7.5 3.358-7.5 7.5v13.734c0 4.142 3.357 7.5 7.5 7.5z"/>
</svg>
