<svg xmlns="http://www.w3.org/2000/svg" id="Layer_1" width="512" height="512" enable-background="new 0 0 511 511" viewBox="0 0 511 511"><path fill="#fef2d3" d="m235.931 148.851h39.135v241.944h-39.135z"/><path fill="#ffe2c2" d="m265.319 303.983c3.478 1.981 6.702 4.454 9.747 7.182v-162.314h-39.135v160.142c8.736-6.518 18.398-11.268 29.388-5.01z"/><path fill="#d19f85" d="m233.408 500.971c-28.177 9.327-58.688-6.008-68.015-34.185-2.801-8.46 1.788-17.589 10.248-20.389s17.588 1.787 20.389 10.248c3.735 11.284 15.953 17.425 27.237 13.69s17.425-15.953 13.69-27.237c-2.801-8.46 1.788-17.589 10.248-20.389s17.588 1.787 20.389 10.248c9.327 28.175-6.009 58.687-34.186 68.014z"/><path fill="#be886f" d="m236.162 458.662c11.062.296 22.116.826 33.171 1.357 1.695-8.745 1.254-18.023-1.739-27.064-2.801-8.46-11.929-13.048-20.389-10.248s-13.048 11.928-10.248 20.389c1.757 5.31 1.327 10.825-.795 15.566z"/><path fill="#e7bb9f" d="m270.968 446.527h-30.939c-8.558 0-15.495-6.937-15.495-15.495v-44.934c0-8.558 6.937-15.495 15.495-15.495h30.939c8.558 0 15.495 6.937 15.495 15.495v44.934c0 8.558-6.937 15.495-15.495 15.495z"/><path fill="#f7ad55" d="m255.692 7.281c-.064 0-.127 0-.19 0-163.838 59.021-164.218 195.049-164.218 246.041 1.969 20.814 19.868 37.099 41.197 37.099 20.017 0 36.678-14.345 40.279-33.314 0-44.537-16.037-192.103 82.932-249.826z"/><path fill="#ef7d92" d="m255.502 7.281c-133.746 0-238.21 106.899-245.959 239.645-1.427 24.448 17.787 43.495 40.925 43.495 21.329 0 38.848-16.285 40.817-37.099-.001-50.992.379-187.02 164.217-246.041z"/><path fill="#f9ef90" d="m255.692 7.281c-98.969 57.723-82.932 205.289-82.932 249.826.236-1.243 5.398 33.314 41.735 33.314 21.329 0 39.228-16.285 41.197-37.099v-40.097z"/><path fill="#99ddfc" d="m255.692 7.281h.19c163.838 59.021 163.838 195.049 163.838 246.041-1.969 20.814-19.488 37.099-40.817 37.099-20.017 0-36.678-14.345-40.279-33.314 0-44.537 16.037-192.103-82.932-249.826z"/><path fill="#b9a0db" d="m255.882 7.281c133.746 0 238.21 106.899 245.959 239.645 1.427 24.448-17.787 43.495-40.925 43.495-21.329 0-39.228-16.285-41.197-37.099.001-50.992.001-187.02-163.837-246.041z"/><path fill="#7ce0cf" d="m255.692 7.281c98.969 57.723 82.932 205.289 82.932 249.826-.918 3.624-10.311 33.314-41.735 33.314-21.329 0-39.228-16.285-41.197-37.099v-40.097z"/><ellipse cx="255.499" cy="150.057" fill="#3f4750" rx="21.429" ry="25.374"/><path fill="#f49634" d="m172.392 182.626c-25.631-8.073-49.477-23.361-61.213-47.487-19.8 47.121-19.895 93.012-19.895 118.183 1.969 20.814 19.868 37.099 41.197 37.099 20.017 0 36.678-14.345 40.279-33.314 0-15.288-1.889-42.716-.368-74.481z"/><path fill="#eb6773" d="m106.518 122.945c-6.389-22.654-2.421-46.004 5.099-68.243-58.733 43.624-97.471 113.362-102.075 192.224-1.427 24.448 17.787 43.495 40.925 43.495 21.329 0 38.848-16.285 40.817-37.099 0-25.171.095-71.062 19.895-118.183-1.869-3.843-3.449-7.896-4.661-12.194z"/><path fill="#f4d37f" d="m193.788 187.701c-7.122-1.164-14.326-2.848-21.397-5.075-1.521 31.766.368 59.194.368 74.481.236-1.243 5.398 33.314 41.735 33.314 21.329 0 39.228-16.285 41.197-37.099v-62.385c-20.669.488-41.306.131-61.903-3.236z"/><path fill="#66cdf7" d="m339.224 188.204c1.069 29.381-.599 54.519-.6 68.903 3.601 18.969 20.261 33.314 40.279 33.314 21.329 0 38.848-16.285 40.817-37.099 0-16.137-.002-40.791-5.194-68.824-25.09 1.508-50.185 2.774-75.302 3.706z"/><path fill="#928fd4" d="m488.837 178.843c-20.471 2.539-42.092 3.934-74.312 5.655 5.192 28.033 5.194 52.687 5.194 68.824 1.969 20.814 19.868 37.099 41.197 37.099 23.138 0 42.352-19.047 40.925-43.495-1.381-23.672-5.854-46.515-13.004-68.083z"/><path fill="#55cb94" d="m304.014 189.285c-16.125.382-32.233 1.273-48.322 1.652v62.385c1.969 20.814 19.868 37.099 41.197 37.099 31.424 0 40.817-29.69 41.735-33.314 0-14.384 1.669-39.522.6-68.903-11.731.435-23.467.803-35.21 1.081z"/><path fill="#d9a37d" d="m281.68 417.457c-12.59 1.538-26.434.425-35.83-9.155-9.723-9.913-7.999-24.948-6.729-37.674-8.096.25-14.587 6.919-14.587 15.13v46.126c0 8.369 6.739 15.154 15.053 15.154h31.823c8.313 0 15.053-6.785 15.053-15.154v-15.069c-1.592.228-3.185.447-4.783.642z"/><path d="m508.737 246.619c-1.72-66.231-28.81-128.224-76.286-174.573-47.588-46.459-110.43-72.046-176.949-72.046-67.109 0-130.122 26.123-177.433 73.557-2.919 2.928-2.913 7.666.014 10.586 2.926 2.918 7.665 2.913 10.585-.015 44.482-44.596 103.731-69.158 166.834-69.158 62.588 0 121.716 24.074 166.492 67.788 44.698 43.637 70.19 102.011 71.781 164.366.649 18.986-14.958 36.237-34.376 35.756-16.202-.401-30.028-12.836-32.201-28.887.017-.187 5.588-115.331-65.359-181.409-2.861-2.983-7.599-3.081-10.583-.219-2.982 2.861-3.081 7.6-.219 10.583 22.115 23.053 37.722 48.116 47.714 76.62 15.669 47.091 14.053 76.007 13.002 93.051-1.632 17.267-15.962 30.288-33.331 30.288-16.91 0-30.935-12.343-33.171-28.929.011-.123.027-.244.032-.368.85-22.168 1.813-47.294.24-71.72-.266-4.125-3.825-7.258-7.95-6.989-4.126.265-7.255 3.825-6.989 7.95 2.669 27.752-.698 68.936-.777 69.768-1.634 17.267-15.963 30.288-33.332 30.288-17.274 0-31.537-12.882-33.298-30.009v-39.638c0-4.134-3.351-7.485-7.485-7.485s-7.485 3.351-7.485 7.485c0 0-.293 38.793-.346 39.359-1.633 17.267-15.962 30.288-33.331 30.288s-31.698-13.021-33.332-30.288c-.063-.666-2.081-46.981-.608-69.821.266-4.125-2.862-7.685-6.988-7.951-4.135-.273-7.685 2.862-7.951 6.988-1.563 24.231-.63 49.155.214 71.203-1.824 17.057-16.054 29.869-33.282 29.869-11.329 0-22.124-5.82-28.228-15.378-7.376-11.549-5.672-25.995-4.972-39.017 2.765-51.444 16.786-95.121 41.828-130.327 3.814-5.362 7.874-10.537 12.199-15.504 2.714-3.118 2.388-7.846-.729-10.561s-7.845-2.388-10.561.729c-39.566 45.435-59.139 106.017-58.187 180.065-1.745 16.885-16.323 30.008-33.297 29.993-19.182-.018-34.533-16.446-33.418-35.538 3.02-51.746 21.047-100.325 52.132-140.486 2.53-3.27 1.931-7.97-1.338-10.501-3.269-2.53-7.97-1.932-10.501 1.337-32.94 42.56-52.041 94.007-55.238 148.777-1.321 22.628 13.399 43.486 35.281 49.587 20.373 5.68 42.737-2.749 54.055-20.666 8.598 13.612 23.753 22.46 40.974 22.46s32.375-8.849 40.973-22.46c11.499 18.205 34.334 26.526 54.906 20.428v70.316c-6.805 3.986-11.387 11.372-11.387 19.811v44.933c0 9.227 5.477 17.195 13.348 20.837-2.081 14.292-22.707 16.072-27.238 2.385-4.043-12.217-17.594-19.02-29.83-14.994-12.207 4.017-19.035 17.617-14.993 29.829 8.194 24.757 32.015 42.038 58.15 42.038 32.229 0 59.501-26.037 61.185-58.152 9.384-2.881 16.226-11.627 16.226-21.943v-44.933c0-8.44-4.583-15.825-11.388-19.811v-70.318c20.574 6.102 43.412-2.218 54.913-20.426 8.598 13.612 23.754 22.46 40.974 22.46s32.376-8.849 40.973-22.46c11.188 17.712 33.525 26.474 53.726 20.632 21.278-6.153 36.886-27.144 35.616-49.43zm-277.663 247.043c-23.93 7.924-50.581-5.476-58.501-29.404-1.361-4.111.645-8.737 4.575-10.551 4.619-2.133 10.228.302 11.824 5.125 9.313 28.129 52.004 24.465 56.28-4.976h17.358c-1.622 17.798-13.514 33.841-31.536 39.806zm47.879-62.756c0 4.399-3.58 7.979-7.979 7.979h-30.95c-4.399 0-7.979-3.58-7.979-7.979v-44.933c0-4.399 3.579-7.978 7.979-7.978h30.95c4.399 0 7.979 3.579 7.979 7.978zm-11.389-67.882h-24.132v-74.622c4.774-3.532 8.876-7.928 12.07-12.984 3.192 5.054 7.292 9.447 12.062 12.979z"/><path d="m172.409 142.994c4.134 0 7.485-3.351 7.485-7.485v-13.129c0-4.134-3.351-7.485-7.485-7.485s-7.485 3.351-7.485 7.485v13.128c-.001 4.135 3.351 7.486 7.485 7.486z"/><path d="m338.589 142.994c4.134 0 7.485-3.351 7.485-7.485v-13.129c0-4.134-3.351-7.485-7.485-7.485s-7.485 3.351-7.485 7.485v13.128c0 4.135 3.35 7.486 7.485 7.486z"/><path d="m284.395 150.144c0-18.107-12.962-32.839-28.897-32.839-15.934 0-28.897 14.731-28.897 32.839 0 18.107 12.963 32.838 28.897 32.838s28.897-14.731 28.897-32.838zm-42.823 0c0-9.852 6.247-17.869 13.926-17.869s13.926 8.016 13.926 17.869c0 9.852-6.247 17.868-13.926 17.868s-13.926-8.015-13.926-17.868z"/></svg>