<?xml version="1.0" encoding="utf-8"?>
<svg version="1.1" id="downloads" xmlns="http://www.w3.org/2000/svg" xmlns:xlink="http://www.w3.org/1999/xlink" x="0px" y="0px"
     viewBox="0 0 48 48" enable-background="new 0 0 48 48" xml:space="preserve">
<path fill="#D4F5FF" d="M38.4,16c-0.1,0-0.2,0-0.3,0c-1.8-3.8-5.7-6.4-10.1-6.4c-4.4,0-8.1,2.5-10,6.1c-1-0.8-2.2-1.3-3.6-1.3
    c-2.8,0-5.2,2.1-5.6,4.9c-0.3,0-0.6-0.1-0.9-0.1c-4,0-7.2,3.2-7.2,7.2S4,33.6,8,33.6h30.5c4.9,0,8.8-3.9,8.8-8.8S43.3,16,38.4,16z"
    />
<g>
    <path fill="#BAEFFF" d="M16.8,28.8v4.8h14.4v-4.8c0-1.3-1.1-2.4-2.4-2.4H24h-4.8C17.9,26.4,16.8,27.5,16.8,28.8z"/>
    <path fill="#BAEFFF" d="M36,14.4c0-0.5,0-1-0.1-1.5c-2-2-4.8-3.3-7.9-3.3c-4.4,0-8.1,2.5-10,6.1c-1-0.8-2.2-1.3-3.6-1.3
        c-0.9,0-1.7,0.2-2.4,0.5c0,0,0,0,0,0c0,0,0,0,0,0c-1.7,0.8-2.9,2.4-3.1,4.3c-0.3,0-0.6-0.1-0.9-0.1c-4.1,0-7.5,3.5-7.2,7.7
        c0.2,3.8,3.6,6.7,7.4,6.7h1c-0.8-1.1-1.2-2.5-1.2-4c0-3.5,2.4-6.3,5.7-7c0.8-0.2,1.6,0.1,2.2,0.6c2.1,2,5,3.2,8.2,3.2
        C30.6,26.4,36,21,36,14.4z"/>
</g>
<circle fill="#00C3FF" cx="24" cy="14.4" r="9.6"/>
<g>
    <path fill="#00AAF0" d="M26.4,22.4c-5.3,0-9.6-4.3-9.6-9.6c0-2.8,1.2-5.4,3.1-7.1c-3.3,1.5-5.6,4.9-5.6,8.7c0,5.3,4.3,9.6,9.6,9.6
        c2.5,0,4.8-1,6.5-2.5C29.2,22.1,27.9,22.4,26.4,22.4z"/>
    <polygon fill="#00AAF0" points="28.8,36.8 28.8,28.8 19.2,28.8 19.2,36.8 16,36.8 24,43.2 32,36.8 	"/>
</g>
<path d="M23.2,18.4c-0.4,0-0.8,0.3-0.8,0.8c0,0.4,0.3,0.8,0.8,0.8h1.6c0.4,0,0.8-0.3,0.8-0.8c0-0.4-0.3-0.8-0.8-0.8h0v-5.7h0
    c0.4,0,0.8-0.3,0.8-0.8s-0.3-0.8-0.8-0.8h-1.6c-0.4,0-0.8,0.3-0.8,0.8c0,0.4,0.3,0.8,0.8,0.8h0L23.2,18.4L23.2,18.4L23.2,18.4z"/>
<path d="M24,10.3c0.4,0,0.8-0.3,0.8-0.8S24.4,8.8,24,8.8h0c-0.4,0-0.8,0.3-0.8,0.8S23.6,10.3,24,10.3z"/>
<path d="M38.6,15.2c-1.1-2.2-3-4-5.1-5.1C31.8,6.5,28.2,4,24,4c-5.5,0-10,4.3-10.4,9.7C11,14,8.9,15.9,8.2,18.4c-0.1,0-0.2,0-0.2,0
    c-4.4,0-8,3.6-8,8s3.6,8,8,8h10.5v1.7H16c-0.3,0-0.6,0.2-0.7,0.5c-0.1,0.3,0,0.6,0.2,0.8l8,6.4c0.1,0.1,0.3,0.2,0.5,0.2
    s0.3-0.1,0.5-0.2l8-6.4c0.3-0.2,0.3-0.5,0.2-0.8c-0.1-0.3-0.4-0.5-0.7-0.5h-2.5v-1.7h8.9c5.3,0,9.6-4.3,9.6-9.6
    C48,19.6,43.8,15.3,38.6,15.2z M24,5.5c4.9,0,8.9,4,8.9,8.9s-4,8.9-8.9,8.9s-8.9-4-8.9-8.9S19.1,5.5,24,5.5z M29.9,37.6L24,42.3
    l-5.9-4.7h1.1c0.4,0,0.8-0.3,0.8-0.8v-7.3h8.1v7.3c0,0.4,0.3,0.8,0.8,0.8L29.9,37.6L29.9,37.6z M38.4,32.9h-8.9v-4.1
    c0-0.4-0.3-0.8-0.8-0.8h-9.6c-0.4,0-0.8,0.3-0.8,0.8v4.1H8c-3.6,0-6.5-2.9-6.5-6.5s2.9-6.5,6.5-6.5c0.2,0,0.5,0,0.8,0
    c0.4,0,0.8-0.2,0.8-0.6c0.3-2.2,2-3.8,4.1-4.2c0.4,5.3,4.9,9.6,10.3,9.6c5.7,0,10.4-4.6,10.4-10.4c0-0.7-0.1-1.4-0.2-2
    c1.4,1,2.5,2.4,3.3,4c0.1,0.3,0.4,0.4,0.7,0.4c0,0,0.1,0,0.1,0c0,0,0.1,0,0.1,0c4.4,0,8.1,3.6,8.1,8.1S42.9,32.9,38.4,32.9z"/>
</svg>
