<svg xmlns="http://www.w3.org/2000/svg" viewBox="0 0 48 48"><path fill="#4acfd9" d="M1.2.8h45.7v46.5H1.2z"/><path fill="#cdd4d5" d="M1.2 38.3l12.5-17.7 12.9 17.9L36.7 29l10.1 9.7v8.5H1.2z"/><g fill="#ff8c29"><circle cx="31.5" cy="21" r="5.7"/><path d="M1.2 41.2h45.7v6.1H1.2z"/></g><path fill="#0295aa" d="M1.2.8h23v46.5h-23z"/><path fill="#9baaab" d="M13.7 20.6L1.2 38.3v8.9h23v-12z"/><circle fill="#ffd1a9" cx="31.5" cy="21" r="5.7"/><path fill="#ff8c29" d="M25.8 21c0 3.1 2.5 5.7 5.7 5.7V15.3c-3.1 0-5.7 2.5-5.7 5.7z"/><path fill="#fd6a33" d="M1.2 41.2h23v6.1h-23z"/><path d="M42.4 9.2c-.4 0-.8-.3-.8-.8 0-.9-.7-1.7-1.7-1.7s-1.7.7-1.7 1.7c0 .4-.3.8-.8.8-.4 0-.8-.3-.8-.8 0-.9-.7-1.7-1.7-1.7s-1.7.7-1.7 1.7c0 .4-.3.8-.8.8-.4 0-.7-.3-.7-.8 0-.9-.7-1.7-1.7-1.7-.9 0-1.7.7-1.7 1.7 0 .4-.3.8-.8.8s-.8-.3-.8-.8c0-1.8 1.4-3.2 3.2-3.2a3.04 3.04 0 0 1 2.4 1.1c.6-.7 1.5-1.1 2.4-1.1s1.8.4 2.4 1.1c.6-.7 1.5-1.1 2.4-1.1 1.8 0 3.2 1.4 3.2 3.2.4.5.1.8-.3.8zm-26.3 6.5c-.4 0-.8-.3-.8-.8 0-.9-.7-1.7-1.7-1.7-.9 0-1.7.7-1.7 1.7 0 .4-.3.8-.8.8s-.8-.3-.8-.8c0-.9-.7-1.7-1.7-1.7s-1.4.8-1.4 1.7c0 .4-.3.8-.8.8s-.8-.3-.8-.8c0-1.8 1.4-3.2 3.2-3.2a3.04 3.04 0 0 1 2.4 1.1c.6-.7 1.5-1.1 2.4-1.1 1.8 0 3.2 1.4 3.2 3.2.1.4-.3.8-.7.8z" fill="#fff"/><path d="M46.8 0H1.2C.8 0 .4.3.4.8v46.5c0 .4.3.8.8.8h45.7c.4 0 .8-.3.8-.8V.8c-.1-.5-.5-.8-.9-.8zM1.9 38.6l11.8-16.7L26 39a.55.55 0 0 0 .5.3c.2 0 .4 0 .6-.2l9.6-9 9.4 9v1.3H1.9v-1.8zM46.1 1.5V37l-8.8-8.5c-.3-.3-.7-.3-1 0l-9.5 8.9-12.5-17.3c-.1-.2-.4-.3-.6-.3s-.5.1-.6.3L1.9 36V1.5h44.2zm-44.2 45v-4.6H46v4.6H1.9zm29.6-19.1c3.5 0 6.4-2.9 6.4-6.4s-2.9-6.4-6.4-6.4-6.4 2.9-6.4 6.4a6.38 6.38 0 0 0 6.4 6.4zm0-11.3a4.91 4.91 0 0 1 4.9 4.9 4.91 4.91 0 0 1-4.9 4.9 4.91 4.91 0 0 1-4.9-4.9 4.91 4.91 0 0 1 4.9-4.9z"/></svg>