<?xml version="1.0" encoding="utf-8"?>
<!-- Generator: Adobe Illustrator 22.0.1, SVG Export Plug-In . SVG Version: 6.00 Build 0)  -->
<svg version="1.1" id="gallery" xmlns="http://www.w3.org/2000/svg" xmlns:xlink="http://www.w3.org/1999/xlink" x="0px" y="0px"
     viewBox="0 0 384.8 384.8" enable-background="new 0 0 384.8 384.8" xml:space="preserve">
<rect x="9.3" y="6.1" fill="#4ACFD9" width="366.2" height="372.7"/>
<polygon fill="#CDD4D5" points="9.3,307.4 109.8,164.9 213.5,309.1 294.5,232.9 375.5,310.7 375.5,378.7 9.3,378.7 "/>
<g>
    <circle fill="#FF8C29" cx="252.4" cy="168.1" r="45.4"/>
    <rect x="9.3" y="330.1" fill="#FF8C29" width="366.2" height="48.6"/>
</g>
<rect x="9.3" y="6.1" fill="#0295AA" width="184.7" height="372.7"/>
<polygon fill="#9BAAAB" points="109.8,164.9 9.3,307.4 9.3,378.7 194,378.7 194,282 "/>
<circle fill="#FFD1A9" cx="252.4" cy="168.1" r="45.4"/>
<path fill="#FF8C29" d="M207,168.1c0,25.1,20.3,45.4,45.4,45.4v-90.7C227.3,122.7,207,143,207,168.1z"/>
<rect x="9.3" y="330.1" fill="#FD6A33" width="184.7" height="48.6"/>
<g>
    <path fill="#FFFFFF" d="M339.8,73.7c-3.4,0-6.1-2.7-6.1-6.1c0-7.4-6-13.4-13.4-13.4c-7.4,0-13.4,6-13.4,13.4c0,3.4-2.7,6.1-6.1,6.1
        s-6.1-2.7-6.1-6.1c0-7.4-6-13.4-13.4-13.4c-7.4,0-13.4,6-13.4,13.4c0,3.4-2.7,6.1-6.1,6.1S256,71,256,67.6c0-7.4-6-13.4-13.4-13.4
        s-13.4,6-13.4,13.4c0,3.4-2.7,6.1-6.1,6.1s-6.1-2.7-6.1-6.1c0-14.1,11.4-25.5,25.5-25.5c7.8,0,14.8,3.5,19.4,9
        c4.7-5.5,11.7-9,19.4-9s14.8,3.5,19.4,9c4.7-5.5,11.7-9,19.4-9c14.1,0,25.5,11.4,25.5,25.5C345.9,71,343.2,73.7,339.8,73.7z"/>
    <path fill="#FFFFFF" d="M129.2,125.6c-3.4,0-6.1-2.7-6.1-6.1c0-7.4-6-13.4-13.4-13.4s-13.4,6-13.4,13.4c0,3.4-2.7,6.1-6.1,6.1
        s-6.1-2.7-6.1-6.1c0-7.4-6-13.4-13.4-13.4s-13.4,6-13.4,13.4c0,3.4-2.7,6.1-6.1,6.1s-6.1-2.7-6.1-6.1c0-14.1,11.4-25.5,25.5-25.5
        c7.8,0,14.8,3.5,19.4,9c4.7-5.5,11.7-9,19.4-9c14.1,0,25.5,11.4,25.5,25.5C135.3,122.8,132.6,125.6,129.2,125.6z"/>
</g>
<path d="M375.5,0H9.3C6,0,3.2,2.7,3.2,6.1v301.4v22.7v48.6c0,3.4,2.7,6.1,6.1,6.1h366.2c3.4,0,6.1-2.7,6.1-6.1v-48.6v-19.4V6.1
    C381.6,2.7,378.8,0,375.5,0z M15.4,309.4l94.4-134l98.7,137.3c1,1.4,2.6,2.3,4.3,2.5s3.5-0.4,4.7-1.6l76.8-72.2l75,72v10.8h-354
    L15.4,309.4L15.4,309.4z M369.4,12.2v284.3l-70.7-67.9c-2.3-2.2-6-2.3-8.4,0l-76,71.4l-99.7-138.6c-1.1-1.6-3-2.5-4.9-2.5
    c0,0,0,0,0,0c-2,0-3.8,1-4.9,2.6L15.4,288.3V12.2H369.4z M15.4,372.7v-36.5h354v36.5H15.4z"/>
<path d="M252.4,219.5c28.4,0,51.4-23.1,51.4-51.4s-23.1-51.4-51.4-51.4s-51.4,23.1-51.4,51.4S224,219.5,252.4,219.5z M252.4,128.8
    c21.7,0,39.3,17.6,39.3,39.3s-17.6,39.3-39.3,39.3s-39.3-17.6-39.3-39.3S230.7,128.8,252.4,128.8z"/>
</svg>
