<?xml version="1.0" encoding="utf-8"?>
<!-- Generator: Adobe Illustrator 22.0.1, SVG Export Plug-In . SVG Version: 6.00 Build 0)  -->
<svg version="1.1" id="gallery" xmlns="http://www.w3.org/2000/svg" xmlns:xlink="http://www.w3.org/1999/xlink" x="0px" y="0px"
     viewBox="0 0 48 48" enable-background="new 0 0 48 48" xml:space="preserve">
<rect x="1.2" y="0.8" fill="#4ACFD9" width="45.7" height="46.5"/>
<polygon fill="#CDD4D5" points="1.2,38.3 13.7,20.6 26.6,38.5 36.7,29 46.8,38.7 46.8,47.2 1.2,47.2 "/>
<g>
    <circle fill="#FF8C29" cx="31.5" cy="21" r="5.7"/>
    <rect x="1.2" y="41.2" fill="#FF8C29" width="45.7" height="6.1"/>
</g>
<rect x="1.2" y="0.8" fill="#0295AA" width="23" height="46.5"/>
<polygon fill="#9BAAAB" points="13.7,20.6 1.2,38.3 1.2,47.2 24.2,47.2 24.2,35.2 "/>
<circle fill="#FFD1A9" cx="31.5" cy="21" r="5.7"/>
<path fill="#FF8C29" d="M25.8,21c0,3.1,2.5,5.7,5.7,5.7V15.3C28.4,15.3,25.8,17.8,25.8,21z"/>
<rect x="1.2" y="41.2" fill="#FD6A33" width="23" height="6.1"/>
<g>
    <path fill="#FFFFFF" d="M42.4,9.2c-0.4,0-0.8-0.3-0.8-0.8c0-0.9-0.7-1.7-1.7-1.7s-1.7,0.7-1.7,1.7c0,0.4-0.3,0.8-0.8,0.8
        c-0.4,0-0.8-0.3-0.8-0.8c0-0.9-0.7-1.7-1.7-1.7s-1.7,0.7-1.7,1.7c0,0.4-0.3,0.8-0.8,0.8c-0.4,0-0.7-0.3-0.7-0.8
        c0-0.9-0.7-1.7-1.7-1.7c-0.9,0-1.7,0.7-1.7,1.7c0,0.4-0.3,0.8-0.8,0.8s-0.8-0.3-0.8-0.8c0-1.8,1.4-3.2,3.2-3.2c1,0,1.8,0.4,2.4,1.1
        c0.6-0.7,1.5-1.1,2.4-1.1s1.8,0.4,2.4,1.1c0.6-0.7,1.5-1.1,2.4-1.1c1.8,0,3.2,1.4,3.2,3.2C43.1,8.9,42.8,9.2,42.4,9.2z"/>
    <path fill="#FFFFFF" d="M16.1,15.7c-0.4,0-0.8-0.3-0.8-0.8c0-0.9-0.7-1.7-1.7-1.7c-0.9,0-1.7,0.7-1.7,1.7c0,0.4-0.3,0.8-0.8,0.8
        s-0.8-0.3-0.8-0.8c0-0.9-0.7-1.7-1.7-1.7S7.2,14,7.2,14.9c0,0.4-0.3,0.8-0.8,0.8s-0.8-0.3-0.8-0.8c0-1.8,1.4-3.2,3.2-3.2
        c1,0,1.8,0.4,2.4,1.1c0.6-0.7,1.5-1.1,2.4-1.1c1.8,0,3.2,1.4,3.2,3.2C16.9,15.3,16.5,15.7,16.1,15.7z"/>
</g>
<path d="M46.8,0H1.2C0.8,0,0.4,0.3,0.4,0.8v37.6v2.8v6.1c0,0.4,0.3,0.8,0.8,0.8h45.7c0.4,0,0.8-0.3,0.8-0.8v-6.1v-2.4v-38
    C47.6,0.3,47.2,0,46.8,0z M1.9,38.6l11.8-16.7L26,39c0.1,0.2,0.3,0.3,0.5,0.3c0.2,0,0.4,0,0.6-0.2l9.6-9l9.4,9v1.3H1.9L1.9,38.6
    L1.9,38.6z M46.1,1.5V37l-8.8-8.5c-0.3-0.3-0.7-0.3-1,0l-9.5,8.9L14.3,20.1c-0.1-0.2-0.4-0.3-0.6-0.3l0,0c-0.2,0-0.5,0.1-0.6,0.3
    L1.9,36V1.5H46.1z M1.9,46.5v-4.6h44.1v4.6H1.9z"/>
<path d="M31.5,27.4c3.5,0,6.4-2.9,6.4-6.4s-2.9-6.4-6.4-6.4s-6.4,2.9-6.4,6.4S27.9,27.4,31.5,27.4z M31.5,16.1
    c2.7,0,4.9,2.2,4.9,4.9s-2.2,4.9-4.9,4.9s-4.9-2.2-4.9-4.9S28.8,16.1,31.5,16.1z"/>
</svg>
