<?xml version="1.0" encoding="iso-8859-1"?>
<!-- Generator: Adobe Illustrator 19.0.0, SVG Export Plug-In . SVG Version: 6.00 Build 0)  -->
<svg version="1.1" id="Layer_1" xmlns="http://www.w3.org/2000/svg" xmlns:xlink="http://www.w3.org/1999/xlink" x="0px" y="0px"
	 viewBox="0 0 384.81 384.81" style="enable-background:new 0 0 384.81 384.81;" xml:space="preserve">
<rect x="9.316" y="6.076" style="fill:#4ACFD9;" width="366.177" height="372.658"/>
<polygon style="fill:#CDD4D5;" points="9.316,307.443 109.772,164.861 213.468,309.063 294.481,232.911 375.494,310.684 
	375.494,378.734 9.316,378.734 "/>
<g>
	<circle style="fill:#FF8C29;" cx="252.354" cy="168.101" r="45.367"/>
	<rect x="9.316" y="330.127" style="fill:#FF8C29;" width="366.177" height="48.608"/>
</g>
<rect x="9.316" y="6.076" style="fill:#0295AA;" width="184.709" height="372.658"/>
<polygon style="fill:#9BAAAB;" points="109.772,164.861 9.316,307.443 9.316,378.734 194.025,378.734 194.025,282.025 "/>
<circle style="fill:#FFD1A9;" cx="252.354" cy="168.101" r="45.367"/>
<path style="fill:#FF8C29;" d="M206.987,168.101c0,25.056,20.311,45.367,45.367,45.367v-90.734
	C227.299,122.734,206.987,143.046,206.987,168.101z"/>
<rect x="9.316" y="330.127" style="fill:#FD6A33;" width="184.709" height="48.608"/>
<g>
	<path style="fill:#FFFFFF;" d="M339.848,73.722c-3.356,0-6.076-2.72-6.076-6.076c0-7.371-5.997-13.367-13.367-13.367
		c-7.371,0-13.367,5.997-13.367,13.367c0,3.356-2.72,6.076-6.076,6.076c-3.356,0-6.076-2.72-6.076-6.076
		c0-7.371-5.997-13.367-13.367-13.367c-7.371,0-13.367,5.997-13.367,13.367c0,3.356-2.72,6.076-6.076,6.076
		c-3.356,0-6.076-2.72-6.076-6.076c0-7.371-5.997-13.367-13.367-13.367s-13.367,5.997-13.367,13.367c0,3.356-2.72,6.076-6.076,6.076
		s-6.076-2.72-6.076-6.076c0-14.071,11.448-25.519,25.519-25.519c7.78,0,14.759,3.5,19.443,9.008
		c4.684-5.508,11.663-9.008,19.443-9.008c7.78,0,14.759,3.5,19.443,9.008c4.684-5.508,11.663-9.008,19.443-9.008
		c14.071,0,25.519,11.448,25.519,25.519C345.924,71.001,343.204,73.722,339.848,73.722z"/>
	<path style="fill:#FFFFFF;" d="M129.215,125.57c-3.356,0-6.076-2.72-6.076-6.076c0-7.371-5.997-13.367-13.367-13.367
		s-13.367,5.997-13.367,13.367c0,3.356-2.72,6.076-6.076,6.076s-6.076-2.72-6.076-6.076c0-7.371-5.997-13.367-13.367-13.367
		s-13.367,5.997-13.367,13.367c0,3.356-2.72,6.076-6.076,6.076c-3.356,0-6.076-2.72-6.076-6.076
		c0-14.071,11.448-25.519,25.519-25.519c7.78,0,14.759,3.5,19.443,9.008c4.684-5.508,11.663-9.008,19.443-9.008
		c14.071,0,25.519,11.448,25.519,25.519C135.291,122.849,132.571,125.57,129.215,125.57z"/>
</g>
<path d="M375.494,0H9.316C5.961,0,3.241,2.72,3.241,6.076v301.367v22.684v48.608c0,3.356,2.72,6.076,6.076,6.076h366.177
	c3.356,0,6.076-2.72,6.076-6.076v-48.608v-19.443V6.076C381.57,2.72,378.849,0,375.494,0z M15.392,309.369l94.431-134.031
	l98.713,137.273c1.022,1.42,2.606,2.332,4.348,2.5c1.742,0.168,3.471-0.422,4.747-1.62l76.807-72.199l74.98,71.981v10.778H15.393
	L15.392,309.369L15.392,309.369z M369.418,12.152v284.277l-70.729-67.9c-2.333-2.241-6.013-2.259-8.369-0.045l-75.964,71.406
	l-99.651-138.577c-1.141-1.588-2.978-2.528-4.933-2.528c-0.01,0-0.019,0-0.029,0c-1.966,0.01-3.805,0.97-4.938,2.576L15.392,288.27
	V12.152H369.418z M15.392,372.658v-36.456h354.025v36.456H15.392z"/>
<path d="M252.354,219.544c28.366,0,51.443-23.077,51.443-51.443s-23.077-51.443-51.443-51.443s-51.443,23.077-51.443,51.443
	S223.989,219.544,252.354,219.544z M252.354,128.81c21.665,0,39.291,17.626,39.291,39.291s-17.626,39.291-39.291,39.291
	s-39.291-17.626-39.291-39.291S230.689,128.81,252.354,128.81z"/>
<g>
</g>
<g>
</g>
<g>
</g>
<g>
</g>
<g>
</g>
<g>
</g>
<g>
</g>
<g>
</g>
<g>
</g>
<g>
</g>
<g>
</g>
<g>
</g>
<g>
</g>
<g>
</g>
<g>
</g>
</svg>
