<?xml version="1.0" encoding="iso-8859-1"?>
<!-- Generator: Adobe Illustrator 19.0.0, SVG Export Plug-In . SVG Version: 6.00 Build 0)  -->
<svg version="1.1" id="Layer_1" xmlns="http://www.w3.org/2000/svg" xmlns:xlink="http://www.w3.org/1999/xlink" x="0px" y="0px"
	 viewBox="0 0 511.999 511.999" style="enable-background:new 0 0 511.999 511.999;" xml:space="preserve">
<polygon style="fill:#E6E6E6;" points="357.635,140.742 324.619,140.742 288.295,48.333 56.948,139.255 131.33,328.498 
	147.881,370.601 184.611,356.165 184.611,445.684 149.75,459.382 131.33,412.521 17.353,122.531 305.904,9.12 "/>
<path style="fill:#CCCCCC;" d="M147.881,370.601l-16.551-42.103v84.022l18.42,46.862l34.861-13.698v-89.519L147.881,370.601z"/>
<polygon style="fill:#9AD14B;" points="324.619,140.742 184.611,140.742 184.611,356.165 147.881,370.601 131.33,328.498 
	56.948,139.255 288.295,48.333 "/>
<path style="fill:#E6E6E6;" d="M494.644,140.742v361.937H184.611v-56.995v-89.519V140.742h140.008h33.016L494.644,140.742
	L494.644,140.742z M463.914,419.369v-77.567V170.795H215.34v158.712v89.863H463.914z"/>
<path style="fill:#90BC42;" d="M131.33,179.436v149.064l16.551,42.103l36.73-14.436V167.796H142.97
	C136.541,167.794,131.33,173.007,131.33,179.436z"/>
<path style="fill:#F7B239;" d="M384.061,211.263c18.592,0,33.656,15.076,33.656,33.668c0,18.58-15.063,33.656-33.656,33.656
	s-33.656-15.076-33.656-33.656C350.405,226.338,365.468,211.263,384.061,211.263z"/>
<path style="fill:#2BA5F7;" d="M463.914,341.803v77.567H215.34v-89.863c17.756,0,17.756,12.297,35.512,12.297
	c17.744,0,17.744-12.297,35.5-12.297s17.756,12.297,35.512,12.297c17.756,0,17.756-12.297,35.512-12.297
	s17.756,12.297,35.512,12.297c17.756,0,17.756-12.297,35.512-12.297S446.158,341.803,463.914,341.803z"/>
<path style="fill:#96D0EA;" d="M463.914,170.795v171.008c-17.756,0-17.756-12.297-35.512-12.297s-17.756,12.297-35.512,12.297
	c-17.756,0-17.756-12.297-35.512-12.297s-17.756,12.297-35.512,12.297c-17.756,0-17.756-12.297-35.512-12.297
	s-17.756,12.297-35.5,12.297c-17.756,0-17.756-12.297-35.512-12.297V170.795H463.914z M417.716,244.931
	c0-18.592-15.063-33.668-33.656-33.668s-33.656,15.076-33.656,33.668c0,18.58,15.063,33.656,33.656,33.656
	S417.716,263.511,417.716,244.931z"/>
<g>
	<path style="fill:#FFFFFF;" d="M282.313,120.328c-3.68,0-7.158-2.218-8.585-5.851l-8.978-22.842
		c-1.864-4.74,0.469-10.093,5.209-11.957c4.74-1.864,10.093,0.468,11.957,5.209l8.978,22.842c1.864,4.74-0.468,10.093-5.209,11.957
		C284.577,120.122,283.436,120.328,282.313,120.328z"/>
	<circle style="fill:#FFFFFF;" cx="438.36" cy="194.752" r="9.222"/>
</g>
<g>
	<path style="fill:#333333;" d="M494.646,131.62H363.921L314.489,5.849c-0.895-2.276-2.657-4.103-4.899-5.081
		s-4.782-1.023-7.057-0.129L13.981,114.05c-2.276,0.895-4.103,2.657-5.081,4.899s-1.024,4.781-0.128,7.057l132.397,336.852
		c1.428,3.632,4.905,5.851,8.585,5.851c1.121,0,2.263-0.205,3.37-0.641l22.263-8.749v43.458c0,5.093,4.129,9.222,9.222,9.222
		h310.034c5.093,0,9.222-4.129,9.222-9.222V140.843C503.868,135.748,499.739,131.62,494.646,131.62z M154.962,447.529
		L29.311,127.843L300.695,21.179l43.407,110.441h-13.198l-34.025-86.559c-1.864-4.74-7.218-7.073-11.956-5.21L53.576,130.772
		c-2.277,0.895-4.105,2.657-5.081,4.899c-0.978,2.243-1.024,4.781-0.128,7.058L139.3,374.076c1.428,3.632,4.905,5.851,8.585,5.851
		c1.123,0,2.264-0.207,3.372-0.642l24.132-9.484V439.5L154.962,447.529z M175.388,140.843v209.141l-22.296,8.763L68.906,144.565
		l214.181-84.174l27.998,71.228H184.611C179.517,131.62,175.388,135.748,175.388,140.843z M485.424,493.555H193.833V150.065h291.589
		v343.489H485.424z"/>
	<path style="fill:#333333;" d="M215.341,428.687h248.575c5.093,0,9.222-4.129,9.222-9.222V170.889c0-5.093-4.129-9.222-9.222-9.222
		H215.341c-5.093,0-9.222,4.129-9.222,9.222v248.575C206.119,424.557,210.248,428.687,215.341,428.687z M224.563,410.242v-69.066
		c1.042,0.617,2.092,1.342,3.279,2.164c5.01,3.47,11.245,7.789,23.004,7.789c11.759,0,17.995-4.319,23.004-7.789
		c4.059-2.811,6.509-4.508,12.503-4.508c5.996,0,8.445,1.697,12.504,4.508c5.011,3.47,11.246,7.789,23.006,7.789
		c11.759,0,17.996-4.319,23.006-7.789c4.059-2.811,6.509-4.508,12.504-4.508s8.445,1.697,12.504,4.508
		c5.011,3.47,11.246,7.789,23.006,7.789c11.76,0,17.997-4.319,23.007-7.789c4.06-2.811,6.51-4.508,12.507-4.508
		c5.997,0,8.448,1.697,12.508,4.508c3.503,2.426,7.614,5.262,13.784,6.752v60.151H224.563V410.242z M454.693,180.112v150.231
		c-1.044-0.617-2.095-1.343-3.284-2.167c-5.011-3.47-11.248-7.789-23.008-7.789c-11.76,0-17.997,4.319-23.007,7.789
		c-4.06,2.811-6.51,4.508-12.507,4.508c-5.996,0-8.445-1.697-12.504-4.508c-5.011-3.47-11.246-7.789-23.006-7.789
		s-17.996,4.319-23.006,7.789c-4.059,2.811-6.509,4.508-12.504,4.508c-5.996,0-8.445-1.697-12.504-4.508
		c-5.011-3.47-11.246-7.789-23.006-7.789s-17.995,4.319-23.004,7.789c-4.059,2.811-6.509,4.508-12.503,4.508
		s-8.444-1.697-12.502-4.508c-3.503-2.426-7.612-5.263-13.782-6.752V180.112L454.693,180.112L454.693,180.112z"/>
	<path style="fill:#333333;" d="M384.059,287.906c23.645,0,42.883-19.237,42.883-42.883c0-23.646-19.238-42.883-42.883-42.883
		c-23.645,0-42.883,19.237-42.883,42.883S360.414,287.906,384.059,287.906z M384.059,220.586c13.475,0,24.438,10.962,24.438,24.438
		c0,13.476-10.964,24.438-24.438,24.438s-24.438-10.962-24.438-24.438C359.621,231.548,370.585,220.586,384.059,220.586z"/>
</g>
<path style="fill:#FFFFFF;" d="M438.356,401.001c-5.093,0-9.222-4.129-9.222-9.222V222.825c0-5.093,4.129-9.222,9.222-9.222
	c5.093,0,9.222,4.129,9.222,9.222v168.952C447.578,396.872,443.449,401.001,438.356,401.001z"/>
<g>
</g>
<g>
</g>
<g>
</g>
<g>
</g>
<g>
</g>
<g>
</g>
<g>
</g>
<g>
</g>
<g>
</g>
<g>
</g>
<g>
</g>
<g>
</g>
<g>
</g>
<g>
</g>
<g>
</g>
</svg>
