<svg version="1.1" xmlns="http://www.w3.org/2000/svg" xmlns:xlink="http://www.w3.org/1999/xlink" x="0px" y="0px"
	 viewBox="0 0 512 512" style="enable-background:new 0 0 512 512;" xml:space="preserve">
<rect x="234.3" y="319.4" style="fill:#333E48;" width="43.5" height="184"/>
<rect x="234.3" y="319.4" style="opacity:0.2;enable-background:new;" width="43.5" height="38"/>
<rect x="234.3" y="413.9" style="opacity:0.2;enable-background:new;" width="43.5" height="26.3"/>
<path style="fill:#D1D3D3;" d="M181.3,376v37.3c0,4.6,3.8,8.4,8.4,8.4h132.7c4.6,0,8.4-3.8,8.4-8.4V376H181.3z"/>
<g>
	<circle style="fill:#A4A9AD;" cx="256" cy="398.8" r="8.9"/>
	<circle style="fill:#A4A9AD;" cx="214.3" cy="398.8" r="8.9"/>
	<circle style="fill:#A4A9AD;" cx="297.7" cy="398.8" r="8.9"/>
</g>
<rect x="181.3" y="375.9" style="opacity:0.2;enable-background:new;" width="149.5" height="22.8"/>
<g>
	<path style="fill:#333E48;" d="M141.9,14.7c0-3.4-2.8-6.1-6.1-6.1H57.2c-3.4,0-6.1,2.8-6.1,6.1v16.3c0,3.4,2.8,6.1,6.1,6.1h78.5
		c3.4,0,6.1-2.8,6.1-6.1L141.9,14.7L141.9,14.7z"/>
	<path style="fill:#333E48;" d="M301.4,14.7c0-3.4-2.8-6.1-6.1-6.1h-78.5c-3.4,0-6.1,2.8-6.1,6.1v16.3c0,3.4,2.8,6.1,6.1,6.1h78.5
		c3.4,0,6.1-2.8,6.1-6.1V14.7z"/>
	<path style="fill:#333E48;" d="M460.9,14.7c0-3.4-2.8-6.1-6.1-6.1h-78.5c-3.4,0-6.1,2.8-6.1,6.1v16.3c0,3.4,2.8,6.1,6.1,6.1h78.5
		c3.4,0,6.1-2.8,6.1-6.1L460.9,14.7L460.9,14.7z"/>
</g>
<path style="fill:#00B3E3;" d="M503.7,80.5c0-6.7-5.5-12.3-12.3-12.3H20.6c-6.7,0-12.3,5.5-12.3,12.3v251.6
	c0,6.7,5.5,12.3,12.3,12.3h470.8c6.7,0,12.3-5.5,12.3-12.3V80.5z"/>
<path style="fill:#0071CE;" d="M261.8,344.3h229.7c6.7,0,12.3-5.5,12.3-12.3V102.4C370.1,102.4,261.8,210.7,261.8,344.3z"/>
<g>
	<path style="fill:#FFFFFF;" d="M213.5,156.3H70.2c-4.6,0-8.3-3.7-8.3-8.3s3.7-8.3,8.3-8.3h143.3c4.6,0,8.3,3.7,8.3,8.3
		C221.8,152.6,218.1,156.3,213.5,156.3z"/>
	<path style="fill:#FFFFFF;" d="M171.5,194H70.2c-4.6,0-8.3-3.7-8.3-8.3c0-4.6,3.7-8.3,8.3-8.3h101.3c4.6,0,8.3,3.7,8.3,8.3
		C179.8,190.3,176.1,194,171.5,194z"/>
</g>
<path style="fill:#1E252B;" d="M491.4,352.7c11.3,0,20.6-9.2,20.6-20.6V80.5c0-11.3-9.2-20.6-20.6-20.6h-67.6V45.5h30.9
	c8,0,14.5-6.5,14.5-14.5V14.7c0-8-6.5-14.5-14.5-14.5h-78.5c-8,0-14.5,6.5-14.5,14.5v16.3c0,8,6.5,14.5,14.5,14.5h30.9v14.4H264.3
	V45.5h30.9c8,0,14.5-6.5,14.5-14.5V14.7c0-8-6.5-14.5-14.5-14.5h-78.5c-8,0-14.5,6.5-14.5,14.5v16.3c0,8,6.5,14.5,14.5,14.5h30.9
	v14.4H104.8V45.5h30.9c8,0,14.5-6.5,14.5-14.5V14.7c0-8-6.5-14.5-14.5-14.5H57.2c-8,0-14.5,6.5-14.5,14.5v16.3
	c0,8,6.5,14.5,14.5,14.5h30.9v14.4H20.6C9.2,59.9,0,69.2,0,80.5v251.6c0,11.3,9.2,20.6,20.6,20.6h205.4v15H8.3
	c-4.6,0-8.3,3.7-8.3,8.3s3.7,8.3,8.3,8.3h164.6v29c0,9.2,7.5,16.7,16.7,16.7h36.3v73.4c0,4.6,3.7,8.3,8.3,8.3h43.5
	c4.6,0,8.3-3.7,8.3-8.3V430h36.3c9.2,0,16.7-7.5,16.7-16.7v-29h164.6c4.6,0,8.3-3.7,8.3-8.3s-3.7-8.3-8.3-8.3H286.1v-15L491.4,352.7
	L491.4,352.7z M378.5,28.9V16.9h74.1v11.9L378.5,28.9L378.5,28.9z M218.9,28.9V16.9H293v11.9L218.9,28.9L218.9,28.9z M59.4,28.9
	V16.9h74.1v11.9L59.4,28.9L59.4,28.9z M269.4,495.1h-26.8V430h26.8V495.1z M322.4,384.3l0,29l-132.8,0v-29H322.4z M242.6,367.6v-15
	h26.8v15H242.6z M20.6,336c-2.1,0-3.9-1.8-3.9-3.9V80.5c0-2.1,1.8-3.9,3.9-3.9h470.8c2.1,0,3.9,1.8,3.9,3.9v251.6
	c0,2.1-1.8,3.9-3.9,3.9H20.6L20.6,336z"/>
</svg>