<?xml version="1.0" encoding="iso-8859-1"?>
<!-- Generator: Adobe Illustrator 19.0.0, SVG Export Plug-In . SVG Version: 6.00 Build 0)  -->
<svg version="1.1" id="Layer_1" xmlns="http://www.w3.org/2000/svg" xmlns:xlink="http://www.w3.org/1999/xlink" x="0px" y="0px"
	 viewBox="0 0 512.001 512.001" style="enable-background:new 0 0 512.001 512.001;" xml:space="preserve">
<rect x="234.26" y="319.428" style="fill:#333E48;" width="43.5" height="183.956"/>
<rect x="234.26" y="319.428" style="opacity:0.2;enable-background:new    ;" width="43.5" height="37.95"/>
<rect x="234.26" y="413.853" style="opacity:0.2;enable-background:new    ;" width="43.5" height="26.345"/>
<path style="fill:#D1D3D3;" d="M181.258,375.95v37.303c0,4.604,3.768,8.372,8.375,8.372h132.743c4.605,0,8.375-3.768,8.375-8.372
	V375.95H181.258z"/>
<g>
	<circle style="fill:#A4A9AD;" cx="256.004" cy="398.791" r="8.891"/>
	<circle style="fill:#A4A9AD;" cx="214.347" cy="398.791" r="8.891"/>
	<circle style="fill:#A4A9AD;" cx="297.661" cy="398.791" r="8.891"/>
</g>
<rect x="181.258" y="375.947" style="opacity:0.2;enable-background:new    ;" width="149.491" height="22.837"/>
<g>
	<path style="fill:#333E48;" d="M141.852,14.743c0-3.37-2.756-6.126-6.127-6.126H57.233c-3.369,0-6.127,2.757-6.127,6.126v16.345
		c0,3.37,2.757,6.127,6.127,6.127h78.493c3.37,0,6.127-2.757,6.127-6.127V14.743H141.852z"/>
	<path style="fill:#333E48;" d="M301.37,14.743c0-3.37-2.756-6.126-6.127-6.126H216.75c-3.369,0-6.127,2.757-6.127,6.126v16.345
		c0,3.37,2.757,6.127,6.127,6.127h78.493c3.37,0,6.127-2.757,6.127-6.127V14.743z"/>
	<path style="fill:#333E48;" d="M460.887,14.743c0-3.37-2.756-6.126-6.127-6.126h-78.493c-3.369,0-6.127,2.757-6.127,6.126v16.345
		c0,3.37,2.757,6.127,6.127,6.127h78.493c3.37,0,6.127-2.757,6.127-6.127V14.743z"/>
</g>
<path style="fill:#00B3E3;" d="M503.675,80.514c0-6.739-5.514-12.254-12.253-12.254H20.578c-6.739,0-12.253,5.514-12.253,12.254
	v251.581c0,6.739,5.514,12.253,12.253,12.253h470.844c6.739,0,12.253-5.514,12.253-12.253V80.514z"/>
<path style="fill:#0071CE;" d="M261.772,344.348h229.651c6.739,0,12.253-5.514,12.253-12.253v-229.65
	C370.076,102.445,261.772,210.748,261.772,344.348z"/>
<g>
	<path style="fill:#FFFFFF;" d="M213.513,156.312H70.192c-4.599,0-8.325-3.727-8.325-8.325s3.726-8.325,8.325-8.325h143.321
		c4.599,0,8.325,3.727,8.325,8.325C221.838,152.584,218.112,156.312,213.513,156.312z"/>
	<path style="fill:#FFFFFF;" d="M171.456,193.996H70.193c-4.599,0-8.325-3.727-8.325-8.325c0-4.597,3.726-8.325,8.325-8.325h101.263
		c4.599,0,8.325,3.727,8.325,8.325C179.781,190.269,176.054,193.996,171.456,193.996z"/>
</g>
<path style="fill:#1E252B;" d="M491.422,352.672c11.347,0,20.578-9.231,20.578-20.578V80.514c0-11.347-9.231-20.579-20.578-20.579
	h-67.578V45.54h30.916c7.968,0,14.452-6.483,14.452-14.452V14.743c0-7.968-6.483-14.451-14.452-14.451h-78.493
	c-7.968,0-14.452,6.482-14.452,14.451v16.345c0,7.968,6.483,14.452,14.452,14.452h30.927v14.395H264.325V45.54h30.918
	c7.968,0,14.452-6.483,14.452-14.452V14.743c0-7.968-6.483-14.451-14.452-14.451h-78.493c-7.968,0-14.452,6.482-14.452,14.451
	v16.345c0,7.968,6.483,14.452,14.452,14.452h30.925v14.395h-142.87V45.54h30.919c7.968,0,14.452-6.483,14.452-14.452V14.743
	c0-7.968-6.483-14.451-14.452-14.451H57.233c-7.968,0-14.452,6.482-14.452,14.451v16.345c0,7.968,6.483,14.452,14.452,14.452h30.923
	v14.395H20.578C9.231,59.936,0,69.167,0,80.514v251.581c0,11.347,9.231,20.578,20.578,20.578h205.354v14.952H8.331
	c-4.598,0-8.325,3.727-8.325,8.325s3.727,8.325,8.325,8.325h164.602v28.978c0,9.207,7.491,16.697,16.7,16.697h36.298v73.435
	c0,4.598,3.726,8.325,8.325,8.325h43.495c4.599,0,8.325-3.727,8.325-8.325V429.95h36.299c9.208,0,16.7-7.49,16.7-16.697v-28.978
	h164.601c4.599,0,8.325-3.727,8.325-8.325s-3.726-8.325-8.325-8.325H286.075v-14.952L491.422,352.672L491.422,352.672z
	 M378.466,28.89V16.941h74.096v11.95h-74.096V28.89z M218.949,28.89V16.941h74.096v11.95h-74.096V28.89z M59.431,28.89V16.941
	h74.096v11.95H59.431V28.89z M269.426,495.06H242.58v-65.11h26.846V495.06z M322.415,384.274l-0.039,29.025l-132.793-0.047v-28.978
	H322.415z M242.581,367.625v-14.952h26.846v14.952H242.581z M20.578,336.023c-2.129,0-3.928-1.799-3.928-3.928V80.514
	c0-2.13,1.799-3.929,3.928-3.929h470.844c2.129,0,3.928,1.799,3.928,3.929v251.581c0,2.129-1.799,3.928-3.928,3.928L20.578,336.023
	L20.578,336.023z"/>
<g>
</g>
<g>
</g>
<g>
</g>
<g>
</g>
<g>
</g>
<g>
</g>
<g>
</g>
<g>
</g>
<g>
</g>
<g>
</g>
<g>
</g>
<g>
</g>
<g>
</g>
<g>
</g>
<g>
</g>
</svg>
