<svg xmlns="http://www.w3.org/2000/svg" xmlns:xlink="http://www.w3.org/1999/xlink" viewBox="0 0 512 512"><path d="M234.3 319.4h43.5v184h-43.5z" fill="#333e48"/><path d="M234.3 319.4h43.5v38h-43.5zm0 94.5h43.5v26.3h-43.5z" opacity=".2"/><path d="M181.3,376v37.3c0,4.6,3.8,8.4,8.4,8.4h132.7c4.6,0,8.4-3.8,8.4-8.4V376H181.3z" fill="#d1d3d3"/><g fill="#a4a9ad"><circle cx="256" cy="398.8" r="8.9"/><circle cx="214.3" cy="398.8" r="8.9"/><circle cx="297.7" cy="398.8" r="8.9"/></g><path d="M181.3 375.9h149.5v22.8H181.3z" opacity=".2"/><g fill="#333e48"><path d="M141.9 14.7c0-3.4-2.8-6.1-6.1-6.1H57.2c-3.4 0-6.1 2.8-6.1 6.1V31c0 3.4 2.8 6.1 6.1 6.1h78.5c3.4 0 6.1-2.8 6.1-6.1l.1-16.3z"/><use xlink:href="#B"/><use xlink:href="#B" x="159.5"/></g><path d="M503.7 80.5c0-6.7-5.5-12.3-12.3-12.3H20.6c-6.7 0-12.3 5.5-12.3 12.3v251.6c0 6.7 5.5 12.3 12.3 12.3h470.8c6.7 0 12.3-5.5 12.3-12.3V80.5z" fill="#00b3e3"/><path d="M261.8 344.3h229.7c6.7 0 12.3-5.5 12.3-12.3V102.4c-133.7 0-242 108.3-242 241.9z" fill="#0071ce"/><path d="M213.5 156.3H70.2a8.28 8.28 0 1 1 0-16.6h143.3a8.28 8.28 0 1 1 0 16.6zm-42 37.7H70.2a8.28 8.28 0 1 1 0-16.6h101.3a8.28 8.28 0 1 1 0 16.6z" fill="#fff"/><path d="M491.4 352.7c11.3 0 20.6-9.2 20.6-20.6V80.5c0-11.3-9.2-20.6-20.6-20.6h-67.6V45.5h30.9c8 0 14.5-6.5 14.5-14.5V14.7c0-8-6.5-14.5-14.5-14.5h-78.5c-8 0-14.5 6.5-14.5 14.5V31c0 8 6.5 14.5 14.5 14.5h30.9v14.4H264.3V45.5h30.9c8 0 14.5-6.5 14.5-14.5V14.7c0-8-6.5-14.5-14.5-14.5h-78.5c-8 0-14.5 6.5-14.5 14.5V31c0 8 6.5 14.5 14.5 14.5h30.9v14.4H104.8V45.5h30.9c8 0 14.5-6.5 14.5-14.5V14.7c0-8-6.5-14.5-14.5-14.5H57.2c-8 0-14.5 6.5-14.5 14.5V31c0 8 6.5 14.5 14.5 14.5h30.9v14.4H20.6C9.2 59.9 0 69.2 0 80.5v251.6c0 11.3 9.2 20.6 20.6 20.6H226v15H8.3a8.28 8.28 0 1 0 0 16.6h164.6v29c0 9.2 7.5 16.7 16.7 16.7h36.3v73.4a8.28 8.28 0 0 0 8.3 8.3h43.5a8.28 8.28 0 0 0 8.3-8.3V430h36.3c9.2 0 16.7-7.5 16.7-16.7v-29h164.6a8.28 8.28 0 1 0 0-16.6H286.1v-15h205.3zM378.5 28.9v-12h74.1v11.9l-74.1.1zm-159.6 0v-12H293v11.9l-74.1.1zm-159.5 0v-12h74.1v11.9l-74.1.1zm210 466.2h-26.8V430h26.8v65.1zm53-110.8v29H189.6v-29h132.8zm-79.8-16.7v-15h26.8v15h-26.8zM20.6 336c-2.1 0-3.9-1.8-3.9-3.9V80.5c0-2.1 1.8-3.9 3.9-3.9h470.8c2.1 0 3.9 1.8 3.9 3.9v251.6c0 2.1-1.8 3.9-3.9 3.9H20.6z" fill="#1e252b"/><defs ><path id="B" d="M301.4 14.7c0-3.4-2.8-6.1-6.1-6.1h-78.5c-3.4 0-6.1 2.8-6.1 6.1V31c0 3.4 2.8 6.1 6.1 6.1h78.5c3.4 0 6.1-2.8 6.1-6.1V14.7z"/></defs></svg>