<svg xmlns="http://www.w3.org/2000/svg" viewBox="0 0 48 48"><path fill="#3b8bc0" d="M24 15L1.1 10.2v30.6L24 44.5l2.2-14.8L24 15z"/><path fill="#174461" d="M24 15v29.5l22.9-3.7V10.2z"/><path fill="#4eb9ff" d="M24 10.7L1.1 6.9v30.6L24 41.2l2.2-14.7z"/><path fill="#3b8bc0" d="M24 10.7v30.5l22.9-3.7V6.9z"/><path fill="#fff5d9" d="M24 7.4L26.2 22 24 36.7 5.4 32.8V3.5z"/><path fill="#9ad7ff" d="M24 7.4v29.3l18.6-3.9V3.5z"/><path d="M46.9 6.4a1.11 1.11 0 0 0-1.1 1.1v29l-20.7 3.3v-2.1l17.8-3.8c.5-.1.9-.6.9-1.1V3.5c0-.3-.1-.6-.4-.8s-.6-.3-.9-.2L24 6.4l-18.5-4a.96.96 0 0 0-.9.2c-.2.2-.4.5-.4.9v29.4c0 .5.4 1 .9 1.1l17.8 3.8v2.1L2.2 36.5v-29a1.11 1.11 0 0 0-1.1-1.1A1.11 1.11 0 0 0 0 7.5v30c0 .5.4 1 .9 1.1l23 3.7h.1l22.9-3.6c.5-.1.9-.5.9-1.1v-30c.2-.7-.3-1.2-.9-1.2zM41.6 32l-16.5 3.5V8.4l16.5-3.5V32zM6.4 4.8l16.5 3.5v27.2L6.4 32V4.8zM20 12.9L9.3 10.6c-.6-.1-1.2.2-1.3.8s.2 1.2.8 1.3L19.6 15h.2c.5 0 1-.3 1.1-.9.1-.5-.3-1.1-.9-1.2zm0 7.3L9.3 17.9c-.6-.1-1.2.2-1.3.8s.2 1.2.8 1.3l10.8 2.3h.2c.5 0 .9-.3 1.1-.9.1-.5-.3-1.1-.9-1.2zm0 7.4L9.2 25.2c-.6-.1-1.2.2-1.3.8s.2 1.2.8 1.3l10.8 2.3h.2c.5 0 .9-.3 1.1-.9.2-.4-.2-1-.8-1.1zM28.2 15h.2l10.7-2.3c.6-.1 1-.7.8-1.3-.1-.6-.7-1-1.3-.8L28 12.9c-.6.1-1 .7-.8 1.3 0 .5.5.8 1 .8zm10.5 2.9L28 20.2c-.6.1-1 .7-.8 1.3.1.5.6.9 1.1.9h.2L39.2 20c.6-.1 1-.7.8-1.3a1.11 1.11 0 0 0-1.3-.8zm0 7.4L28 27.6c-.6.1-1 .7-.8 1.3.1.5.6.9 1.1.9h.2l10.8-2.3c.6-.1 1-.7.8-1.3-.2-.7-.8-1.1-1.4-.9zm8 14.5L24 43.4 1.3 39.8c-.6-.1-1.2.3-1.2.9s.3 1.2.9 1.2l22.9 3.6h.4L47.1 42c.6-.1 1-.6.9-1.2-.1-.7-.7-1.1-1.3-1z" fill="#01121c"/></svg>