<?xml version="1.0" encoding="iso-8859-1"?>
<!-- Generator: Adobe Illustrator 19.0.0, SVG Export Plug-In . SVG Version: 6.00 Build 0)  -->
<svg version="1.1" id="Layer_1" xmlns="http://www.w3.org/2000/svg" xmlns:xlink="http://www.w3.org/1999/xlink" x="0px" y="0px"
	 viewBox="0 0 512 512" style="enable-background:new 0 0 512 512;" xml:space="preserve">
<path style="fill:#3B8BC0;" d="M255.999,159.911c0,0-242.12-50.973-244.415-51.456v326.602l244.415,39.815l23.167-157.481
	L255.999,159.911z"/>
<polygon style="fill:#174461;" points="255.999,159.911 255.999,474.873 500.414,435.057 500.414,108.456 "/>
<polygon style="fill:#4EB9FF;" points="255.999,113.577 11.585,73.705 11.585,400.306 255.999,440.122 279.167,282.641 "/>
<polygon style="fill:#3B8BC0;" points="255.999,113.577 255.999,440.122 500.414,400.306 500.414,73.705 "/>
<polygon style="fill:#FFF5D9;" points="255.999,78.826 279.167,235.205 255.999,391.584 57.919,349.883 57.919,37.125 "/>
<polygon style="fill:#9AD7FF;" points="255.999,78.826 255.999,391.584 454.08,349.883 454.08,37.125 "/>
<g>
	<path style="fill:#01121C;" d="M500.414,68.164c-6.396,0-11.584,5.187-11.584,11.584v309.987l-221.247,35.224v-22.256l190.401-40.8
		c5.34-1.144,9.156-5.865,9.156-11.326V36.985c0-3.498-1.581-6.809-4.301-9.007c-2.721-2.199-6.289-3.049-9.711-2.319L256.001,67.9
		L58.869,25.658c-3.418-0.729-6.99,0.119-9.709,2.319c-2.721,2.199-4.301,5.51-4.301,9.007v313.592
		c0,5.463,3.816,10.182,9.157,11.326l190.401,40.8v22.256L23.17,389.735V79.748c0-6.396-5.186-11.584-11.584-11.584
		S0.002,73.352,0.002,79.748v319.874c0,5.694,4.139,10.545,9.763,11.44l244.415,38.912c0.131,0.021,0.263,0.03,0.394,0.047
		c0.12,0.015,0.241,0.031,0.363,0.043c0.354,0.032,0.709,0.053,1.065,0.053c0.356,0,0.71-0.022,1.065-0.053
		c0.122-0.012,0.241-0.028,0.363-0.043c0.132-0.016,0.264-0.025,0.395-0.047l244.415-38.912c5.623-0.895,9.763-5.745,9.763-11.44
		V79.748C511.998,73.35,506.812,68.164,500.414,68.164z M443.974,341.213l-176.39,37.797V89.112l176.39-37.799V341.213z
		 M68.026,51.314l176.39,37.799V379.01L68.025,341.213V51.314H68.026z"/>
	<path style="fill:#01121C;" d="M213.615,137.216L99.253,112.71c-6.257-1.344-12.413,2.645-13.753,8.9
		c-1.34,6.255,2.643,12.414,8.9,13.754l114.362,24.505c0.819,0.175,1.634,0.259,2.438,0.259c5.345,0,10.151-3.722,11.315-9.158
		C223.854,144.715,219.87,138.556,213.615,137.216z"/>
	<path style="fill:#01121C;" d="M213.614,215.614L98.652,190.979c-6.253-1.34-12.413,2.645-13.753,8.9
		c-1.34,6.255,2.643,12.414,8.9,13.754l114.962,24.635c0.818,0.175,1.634,0.259,2.438,0.259c5.345,0,10.15-3.722,11.315-9.158
		C223.854,223.113,219.87,216.954,213.614,215.614z"/>
	<path style="fill:#01121C;" d="M213.614,294.012L98.051,269.248c-6.252-1.338-12.413,2.643-13.753,8.9
		c-1.34,6.256,2.643,12.414,8.9,13.754l115.563,24.764c0.818,0.175,1.634,0.259,2.438,0.259c5.345,0,10.15-3.722,11.315-9.158
		C223.853,301.51,219.869,295.352,213.614,294.012z"/>
	<path style="fill:#01121C;" d="M300.8,160.128c0.804,0,1.621-0.083,2.438-0.259L417.6,135.363c6.254-1.34,10.24-7.499,8.9-13.754
		c-1.34-6.254-7.502-10.243-13.754-8.9l-114.362,24.505c-6.254,1.34-10.24,7.499-8.9,13.754
		C290.651,156.407,295.456,160.128,300.8,160.128z"/>
	<path style="fill:#01121C;" d="M413.347,190.979l-114.962,24.635c-6.254,1.34-10.24,7.499-8.9,13.754
		c1.165,5.436,5.97,9.158,11.316,9.158c0.804,0,1.621-0.083,2.438-0.259l114.962-24.635c6.254-1.34,10.24-7.499,8.9-13.754
		C425.761,193.623,419.6,189.638,413.347,190.979z"/>
	<path style="fill:#01121C;" d="M413.347,269.377l-114.962,24.635c-6.254,1.34-10.24,7.499-8.9,13.754
		c1.165,5.436,5.97,9.158,11.316,9.158c0.804,0,1.621-0.083,2.438-0.259l114.962-24.635c6.254-1.34,10.24-7.499,8.9-13.754
		C425.761,272.02,419.6,268.04,413.347,269.377z"/>
	<path style="fill:#01121C;" d="M498.593,424.661l-242.594,38.623L13.407,424.661c-6.317-0.993-12.255,3.3-13.261,9.619
		c-1.007,6.318,3.3,12.254,9.618,13.261l244.415,38.913c0.604,0.096,1.212,0.144,1.821,0.144c0.609,0,1.219-0.047,1.821-0.144
		l244.415-38.913c6.318-1.007,10.625-6.943,9.619-13.261C510.847,427.962,504.922,423.668,498.593,424.661z"/>
</g>
<g>
</g>
<g>
</g>
<g>
</g>
<g>
</g>
<g>
</g>
<g>
</g>
<g>
</g>
<g>
</g>
<g>
</g>
<g>
</g>
<g>
</g>
<g>
</g>
<g>
</g>
<g>
</g>
<g>
</g>
</svg>
