<?xml version="1.0" encoding="utf-8"?>
<!-- Generator: Adobe Illustrator 22.0.1, SVG Export Plug-In . SVG Version: 6.00 Build 0)  -->
<svg version="1.1" id="articles" xmlns="http://www.w3.org/2000/svg" xmlns:xlink="http://www.w3.org/1999/xlink" x="0px" y="0px"
     viewBox="0 0 512 512" enable-background="new 0 0 512 512" xml:space="preserve">
<path fill="#3B8BC0" d="M256,159.9c0,0-242.1-51-244.4-51.5v326.6L256,474.9l23.2-157.5L256,159.9z"/>
<polygon fill="#174461" points="256,159.9 256,474.9 500.4,435.1 500.4,108.5 "/>
<polygon fill="#4EB9FF" points="256,113.6 11.6,73.7 11.6,400.3 256,440.1 279.2,282.6 "/>
<polygon fill="#3B8BC0" points="256,113.6 256,440.1 500.4,400.3 500.4,73.7 "/>
<polygon fill="#FFF5D9" points="256,78.8 279.2,235.2 256,391.6 57.9,349.9 57.9,37.1 "/>
<polygon fill="#9AD7FF" points="256,78.8 256,391.6 454.1,349.9 454.1,37.1 "/>
<g>
    <path fill="#01121C" d="M500.4,68.2c-6.4,0-11.6,5.2-11.6,11.6v310L267.6,425v-22.3L458,361.9c5.3-1.1,9.2-5.9,9.2-11.3V37
        c0-3.5-1.6-6.8-4.3-9c-2.7-2.2-6.3-3-9.7-2.3L256,67.9L58.9,25.7c-3.4-0.7-7,0.1-9.7,2.3c-2.7,2.2-4.3,5.5-4.3,9v313.6
        c0,5.5,3.8,10.2,9.2,11.3l190.4,40.8V425L23.2,389.7v-310c0-6.4-5.2-11.6-11.6-11.6S0,73.4,0,79.7v319.9c0,5.7,4.1,10.5,9.8,11.4
        L254.2,450c0.1,0,0.3,0,0.4,0c0.1,0,0.2,0,0.4,0c0.4,0,0.7,0.1,1.1,0.1s0.7,0,1.1-0.1c0.1,0,0.2,0,0.4,0c0.1,0,0.3,0,0.4,0
        l244.4-38.9c5.6-0.9,9.8-5.7,9.8-11.4V79.7C512,73.3,506.8,68.2,500.4,68.2z M444,341.2L267.6,379V89.1L444,51.3V341.2z M68,51.3
        l176.4,37.8V379L68,341.2L68,51.3L68,51.3z"/>
    <path fill="#01121C" d="M213.6,137.2L99.3,112.7c-6.3-1.3-12.4,2.6-13.8,8.9c-1.3,6.3,2.6,12.4,8.9,13.8l114.4,24.5
        c0.8,0.2,1.6,0.3,2.4,0.3c5.3,0,10.2-3.7,11.3-9.2C223.9,144.7,219.9,138.6,213.6,137.2z"/>
    <path fill="#01121C" d="M213.6,215.6L98.7,191c-6.3-1.3-12.4,2.6-13.8,8.9c-1.3,6.3,2.6,12.4,8.9,13.8l115,24.6
        c0.8,0.2,1.6,0.3,2.4,0.3c5.3,0,10.1-3.7,11.3-9.2C223.9,223.1,219.9,217,213.6,215.6z"/>
    <path fill="#01121C" d="M213.6,294L98.1,269.2c-6.3-1.3-12.4,2.6-13.8,8.9c-1.3,6.3,2.6,12.4,8.9,13.8l115.6,24.8
        c0.8,0.2,1.6,0.3,2.4,0.3c5.3,0,10.1-3.7,11.3-9.2C223.9,301.5,219.9,295.4,213.6,294z"/>
    <path fill="#01121C" d="M300.8,160.1c0.8,0,1.6-0.1,2.4-0.3l114.4-24.5c6.3-1.3,10.2-7.5,8.9-13.8c-1.3-6.3-7.5-10.2-13.8-8.9
        l-114.4,24.5c-6.3,1.3-10.2,7.5-8.9,13.8C290.7,156.4,295.5,160.1,300.8,160.1z"/>
    <path fill="#01121C" d="M413.3,191l-115,24.6c-6.3,1.3-10.2,7.5-8.9,13.8c1.2,5.4,6,9.2,11.3,9.2c0.8,0,1.6-0.1,2.4-0.3l115-24.6
        c6.3-1.3,10.2-7.5,8.9-13.8S419.6,189.6,413.3,191z"/>
    <path fill="#01121C" d="M413.3,269.4l-115,24.6c-6.3,1.3-10.2,7.5-8.9,13.8c1.2,5.4,6,9.2,11.3,9.2c0.8,0,1.6-0.1,2.4-0.3l115-24.6
        c6.3-1.3,10.2-7.5,8.9-13.8C425.8,272,419.6,268,413.3,269.4z"/>
    <path fill="#01121C" d="M498.6,424.7L256,463.3L13.4,424.7c-6.3-1-12.3,3.3-13.3,9.6c-1,6.3,3.3,12.3,9.6,13.3l244.4,38.9
        c0.6,0.1,1.2,0.1,1.8,0.1s1.2,0,1.8-0.1l244.4-38.9c6.3-1,10.6-6.9,9.6-13.3C510.8,428,504.9,423.7,498.6,424.7z"/>
</g>
</svg>
