<?xml version="1.0" encoding="utf-8"?>
<svg version="1.1" id="articles" xmlns="http://www.w3.org/2000/svg" xmlns:xlink="http://www.w3.org/1999/xlink" x="0px" y="0px"
     viewBox="0 0 48 48" enable-background="new 0 0 48 48" xml:space="preserve">
<path fill="#3B8BC0" d="M24,15c0,0-22.7-4.8-22.9-4.8v30.6L24,44.5l2.2-14.8L24,15z"/>
<polygon fill="#174461" points="24,15 24,44.5 46.9,40.8 46.9,10.2 "/>
<polygon fill="#4EB9FF" points="24,10.7 1.1,6.9 1.1,37.5 24,41.2 26.2,26.5 "/>
<polygon fill="#3B8BC0" points="24,10.7 24,41.2 46.9,37.5 46.9,6.9 "/>
<polygon fill="#FFF5D9" points="24,7.4 26.2,22 24,36.7 5.4,32.8 5.4,3.5 "/>
<polygon fill="#9AD7FF" points="24,7.4 24,36.7 42.6,32.8 42.6,3.5 "/>
<g>
    <path fill="#01121C" d="M46.9,6.4c-0.6,0-1.1,0.5-1.1,1.1v29l-20.7,3.3v-2.1l17.8-3.8c0.5-0.1,0.9-0.6,0.9-1.1V3.5
        c0-0.3-0.1-0.6-0.4-0.8c-0.3-0.2-0.6-0.3-0.9-0.2L24,6.4l-18.5-4c-0.3-0.1-0.7,0-0.9,0.2C4.4,2.8,4.2,3.1,4.2,3.5v29.4
        c0,0.5,0.4,1,0.9,1.1l17.8,3.8v2.1L2.2,36.5v-29c0-0.6-0.5-1.1-1.1-1.1S0,6.9,0,7.5v30c0,0.5,0.4,1,0.9,1.1l22.9,3.7l0,0l0,0h0.1
        H24l0,0l0,0l22.9-3.6c0.5-0.1,0.9-0.5,0.9-1.1v-30C48,6.9,47.5,6.4,46.9,6.4z M41.6,32l-16.5,3.5V8.4l16.5-3.5V32z M6.4,4.8
        l16.5,3.5v27.2L6.4,32V4.8L6.4,4.8z"/>
    <path fill="#01121C" d="M20,12.9L9.3,10.6c-0.6-0.1-1.2,0.2-1.3,0.8c-0.1,0.6,0.2,1.2,0.8,1.3L19.6,15c0.1,0,0.1,0,0.2,0
        c0.5,0,1-0.3,1.1-0.9C21,13.6,20.6,13,20,12.9z"/>
    <path fill="#01121C" d="M20,20.2L9.3,17.9c-0.6-0.1-1.2,0.2-1.3,0.8c-0.1,0.6,0.2,1.2,0.8,1.3l10.8,2.3c0.1,0,0.1,0,0.2,0
        c0.5,0,0.9-0.3,1.1-0.9C21,20.9,20.6,20.3,20,20.2z"/>
    <path fill="#01121C" d="M20,27.6L9.2,25.2C8.6,25.1,8,25.4,7.9,26c-0.1,0.6,0.2,1.2,0.8,1.3l10.8,2.3c0.1,0,0.1,0,0.2,0
        c0.5,0,0.9-0.3,1.1-0.9C21,28.3,20.6,27.7,20,27.6z"/>
    <path fill="#01121C" d="M28.2,15c0.1,0,0.1,0,0.2,0l10.7-2.3c0.6-0.1,1-0.7,0.8-1.3c-0.1-0.6-0.7-1-1.3-0.8L28,12.9
        c-0.6,0.1-1,0.7-0.8,1.3C27.2,14.7,27.7,15,28.2,15z"/>
    <path fill="#01121C" d="M38.7,17.9L28,20.2c-0.6,0.1-1,0.7-0.8,1.3c0.1,0.5,0.6,0.9,1.1,0.9c0.1,0,0.1,0,0.2,0L39.2,20
        c0.6-0.1,1-0.7,0.8-1.3S39.3,17.8,38.7,17.9z"/>
    <path fill="#01121C" d="M38.7,25.3L28,27.6c-0.6,0.1-1,0.7-0.8,1.3c0.1,0.5,0.6,0.9,1.1,0.9c0.1,0,0.1,0,0.2,0l10.8-2.3
        c0.6-0.1,1-0.7,0.8-1.3C39.9,25.5,39.3,25.1,38.7,25.3z"/>
    <path fill="#01121C" d="M46.7,39.8L24,43.4L1.3,39.8c-0.6-0.1-1.2,0.3-1.2,0.9s0.3,1.2,0.9,1.2l22.9,3.6c0.1,0,0.1,0,0.2,0
        s0.1,0,0.2,0L47.1,42c0.6-0.1,1-0.6,0.9-1.2C47.9,40.1,47.3,39.7,46.7,39.8z"/>
</g>
</svg>
