<svg xmlns="http://www.w3.org/2000/svg" viewBox="0 0 72 72"><path d="M72,64c0,4.4-3.6,8-8,8H8c-4.4,0-8-3.6-8-8V8c0-4.4,3.6-8,8-8h56c4.4,0,8,3.6,8,8V64z" fill="#263238"/><path d="M53.8 17H32.7c-.1-.8-.4-1.5-1-2.1-.7-.7-1.6-1.1-2.6-1.1h-12c-1 0-1.9.4-2.6 1.1s-1 1.6-1 2.6l.6 16.2v4.1l-.6 16.7c0 1 .3 1.9 1 2.6s1.6 1.1 2.6 1.1h12.1c1 0 1.9-.4 2.6-1.1.4-.4.7-.9.8-1.4h21.2c2.6 0 4.7-2.1 4.7-4.7V21.7c0-2.6-2.1-4.7-4.7-4.7zM29.5 54.9c-.1.1-.2.1-.3.1H17.1c-.2 0-.3-.1-.3-.1-.1-.1-.1-.2-.1-.3l.6-16.7v-4.3l-.6-16.2c0-.2.1-.3.1-.3.1-.1.2-.1.3-.1h12.1c.2 0 .3.1.3.1.1.1.1.2.1.3L29 33.6v4.3l.6 16.7c0 .1 0 .2-.1.3zm25.9-4a1.58 1.58 0 0 1-1.6 1.6H32.7l-.5-14.7v-4.1l.5-13.6h21.1a1.58 1.58 0 0 1 1.6 1.6v29.2zM51.7 24H35.2a1.58 1.58 0 0 0-1.6 1.6 1.58 1.58 0 0 0 1.6 1.6h16.5a1.58 1.58 0 0 0 1.6-1.6c-.1-.9-.8-1.6-1.6-1.6zm-14.3 7.6h-1.8a1.58 1.58 0 0 0-1.6 1.6 1.58 1.58 0 0 0 1.6 1.6h1.8a1.58 1.58 0 0 0 1.6-1.6c-.1-.8-.8-1.6-1.6-1.6zm6.8 0h-1.8a1.58 1.58 0 0 0-1.6 1.6 1.58 1.58 0 0 0 1.6 1.6h1.8a1.58 1.58 0 0 0 1.6-1.6c0-.8-.7-1.6-1.6-1.6zm6.8 0h-1.8a1.58 1.58 0 0 0-1.6 1.6 1.58 1.58 0 0 0 1.6 1.6H51a1.58 1.58 0 0 0 1.6-1.6c0-.8-.7-1.6-1.6-1.6zm-13.6 6h-1.8a1.58 1.58 0 0 0-1.6 1.6 1.58 1.58 0 0 0 1.6 1.6h1.8a1.58 1.58 0 0 0 1.6-1.6c0-.9-.8-1.6-1.6-1.6zm6.8 0h-1.8a1.58 1.58 0 0 0-1.6 1.6 1.58 1.58 0 0 0 1.6 1.6h1.8a1.58 1.58 0 0 0 1.6-1.6 1.58 1.58 0 0 0-1.6-1.6zm6.8 0h-1.8a1.58 1.58 0 0 0-1.6 1.6 1.58 1.58 0 0 0 1.6 1.6H51a1.58 1.58 0 0 0 1.6-1.6 1.58 1.58 0 0 0-1.6-1.6zm-13.6 6h-1.8a1.6 1.6 0 1 0 0 3.2h1.8a1.58 1.58 0 0 0 1.6-1.6c-.1-.8-.8-1.6-1.6-1.6zm6.8 0h-1.8a1.6 1.6 0 1 0 0 3.2h1.8a1.58 1.58 0 0 0 1.6-1.6c0-.8-.7-1.6-1.6-1.6zm6.8 0h-1.8a1.6 1.6 0 1 0 0 3.2H51a1.58 1.58 0 0 0 1.6-1.6c0-.8-.7-1.6-1.6-1.6z" fill="#fff"/></svg>