<svg version="1.1" xmlns="http://www.w3.org/2000/svg" xmlns:xlink="http://www.w3.org/1999/xlink" x="0px" y="0px"
	 viewBox="0 0 72 72" style="enable-background:new 0 0 72 72;" xml:space="preserve">
<path fill="#FDD900" d="M72,64c0,4.4-3.6,8-8,8H8c-4.4,0-8-3.6-8-8V8c0-4.4,3.6-8,8-8h56c4.4,0,8,3.6,8,8V64z"/>
<path fill="#FFFFFF" d="M48,56.7c-0.7-1.1-1.4-2.2-2.1-3.2c-2.1-2.9-4.8-5-8.3-6.1c-0.3-0.1-0.5,0-0.7,0.2c-2.7,3.2-5.8,5.9-9.5,7.7
	c-1.4,0.7-2.9,1.2-4.5,1.5c-1-2.3-2-4.6-2.9-6.8c1.1-0.3,2.2-0.5,3.1-0.9c2.8-1.1,4.8-3.2,6.3-5.7c0.5-0.8,0.8-1.7,0.8-2.7
	c-0.1-3.1,0.3-6.2,1.5-9.1c0.8-1.9,1.9-3.5,3.6-4.8c0.3-0.2,0.4-0.2,0.7-0.1c2.1,0.9,4.1,1.9,6,3.2c0.2,0.1,0.4,0.2,0.5,0.4
	c0.7,0.9,1.7,1.1,2.7,1.3c1.8,0.3,3.5,0.1,5.1-1c0.4-0.3,0.8-0.7,1.3-1.1c1.1,1.8,2.2,3.6,3.4,5.5c-3.5,3.1-7.3,5.4-12.3,3.9
	c0,0.7,0,1.4,0,2c0,0.1,0.2,0.2,0.3,0.3c2.5,1.5,4.9,3.2,7.1,5.3c1.5,1.5,2.9,3.1,3.6,5.1c0.1,0.4,0.1,0.6-0.2,0.9
	c-1.4,1.1-2.8,2.2-4.2,3.4C48.8,56.3,48.4,56.5,48,56.7z"/>
<path fill="#FFFFFF" d="M49.8,19.4c0,3.5-2.8,6.3-6.4,6.3c-3.5,0-6.3-2.9-6.3-6.4c0-3.5,2.9-6.3,6.4-6.3C47,13.1,49.9,15.9,49.8,19.4z"/>
</svg>