<svg baseProfile="tiny" xmlns="http://www.w3.org/2000/svg" viewBox="0 0 72 72">
    <path fill="#1769FF"
          d="M72 64c0 4.418-3.582 8-8 8h-56c-4.418 0-8-3.582-8-8v-56c0-4.418 3.582-8 8-8h56c4.418 0 8 3.582 8 8v56z"/>
    <g fill="#fff">
        <path d="M56.835 36.554c-.23-1.467-.725-2.754-1.492-3.869-.851-1.264-1.928-2.185-3.233-2.769-1.306-.585-2.772-.875-4.401-.875-2.745 0-4.973.862-6.695 2.594-1.717 1.729-2.578 4.213-2.578 7.459 0 3.459.954 5.956 2.856 7.493 1.905 1.533 4.102 2.302 6.593 2.302 3.018 0 5.364-.912 7.041-2.73 1.08-1.145 1.683-2.271 1.813-3.381h-4.995c-.29.546-.626.977-1.006 1.283-.697.577-1.605.86-2.717.86-1.054 0-1.955-.232-2.698-.703-1.23-.752-1.881-2.068-1.955-3.946h13.627c.023-1.623-.033-2.863-.16-3.718zm-13.35.485c.177-1.219.61-2.185 1.304-2.894.689-.71 1.661-1.071 2.919-1.071 1.158 0 2.125.338 2.902 1.012.782.671 1.216 1.655 1.307 2.954h-8.432z"/>
        <rect x="42.406" y="24.025" width="10.523" height="2.614"/>
        <path d="M34.378 33.557c.805-.97 1.208-2.248 1.208-3.846 0-1.545-.396-2.876-1.196-3.986-1.331-1.81-3.587-2.731-6.768-2.782h-12.622v26.113h11.769c1.323 0 2.553-.117 3.687-.353 1.135-.235 2.119-.67 2.951-1.31.741-.553 1.355-1.241 1.848-2.052.779-1.228 1.161-2.618 1.161-4.167 0-1.499-.337-2.775-1.017-3.825-.673-1.056-1.683-1.821-3.012-2.307.88-.446 1.543-.941 1.991-1.485zm-13.351-6.079h4.866c1.249 0 2.277.139 3.083.408.936.388 1.403 1.194 1.403 2.409 0 1.098-.354 1.864-1.059 2.295-.708.431-1.628.648-2.761.647h-5.533v-5.759zm8.166 16.584c-.631.311-1.51.46-2.643.46h-5.525v-6.96h5.61c1.12.012 1.996.157 2.614.443 1.106.502 1.664 1.441 1.664 2.798 0 1.608-.576 2.69-1.72 3.259z"/>
    </g>
</svg>