<svg xmlns="http://www.w3.org/2000/svg" viewBox="0 0 72 72"><path d="M72,64c0,4.4-3.6,8-8,8H8c-4.4,0-8-3.6-8-8V8c0-4.4,3.6-8,8-8h56c4.4,0,8,3.6,8,8V64z" fill="#5d7162"/><path d="M38.2 31.4c-1.7-.1-3.7 0-6 .4l5.3 9.5 21-5.8c-.2-.5-.6-1.1-1-1.6-2.2-2.5-6.9-4.8-12-5.8-5-1.2-10.5-1.1-16.1-.3l-.6.2-1.9-3.4c-1.8.2-3.5.6-5.1 1.1l1.8 3.7c-2.9 1.1-5.3 2.7-7 4.6-2.8 3.2-3.9 7.2-2.6 11.2.3.8.6 1.5 1.1 2.2l21-5.8-5.8-10.8.6-.1c9.4-1.7 14.6.9 17.4 3.7l-7.2 1.7c.1.1-2.9-4.7-2.9-4.7zm-17 9.6c-.6-3-.1-6.3 4-8.5l3.2 6.7c0 .1-7.2 1.8-7.2 1.8z" fill="#fff"/></svg>