<?xml version="1.0" encoding="utf-8"?>
<svg version="1.1" id="deviantart" xmlns="http://www.w3.org/2000/svg" xmlns:xlink="http://www.w3.org/1999/xlink" x="0px" y="0px"
	 viewBox="0 0 72 72" enable-background="new 0 0 72 72" xml:space="preserve">
<path fill="#5D7162" d="M72,64c0,4.4-3.6,8-8,8H8c-4.4,0-8-3.6-8-8V8c0-4.4,3.6-8,8-8h56c4.4,0,8,3.6,8,8V64z"/>
<path fill="#FFFFFF" d="M39.2,33.4c-1.7-0.1-3.7,0-6,0.4l5.3,9.5l21-5.8c-0.2-0.5-0.6-1.1-1-1.6c-2.2-2.5-6.9-4.8-12-5.8v0
	c-5-1.2-10.5-1.1-16.1-0.3L29.8,30l-1.9-3.4c-1.8,0.2-3.5,0.6-5.1,1.1l1.8,3.7c-2.9,1.1-5.3,2.7-7,4.6c-2.8,3.2-3.9,7.2-2.6,11.2
	c0.3,0.8,0.6,1.5,1.1,2.2l21-5.8l-5.8-10.8l0.6-0.1c9.4-1.7,14.6,0.9,17.4,3.7l-7.2,1.7C42.2,38.2,39.2,33.4,39.2,33.4z M22.2,43
	c-0.6-3-0.1-6.3,4-8.5l3.2,6.7C29.4,41.3,22.2,43,22.2,43z"/>
</svg>
