<svg baseProfile="tiny" xmlns="http://www.w3.org/2000/svg" viewBox="0 0 72 72">
    <path fill="#5D7162"
          d="M72 64c0 4.418-3.582 8-8 8h-56c-4.418 0-8-3.582-8-8v-56c0-4.418 3.582-8 8-8h56c4.418 0 8 3.582 8 8v56z"/>
    <path fill="#fff"
          d="M40.383 30.984c-1.867-.108-4.02.003-6.512.428l5.751 10.365 22.844-6.275c-.246-.585-.606-1.157-1.083-1.711-2.364-2.737-7.489-5.179-13.074-6.279v-.001c-5.479-1.284-11.412-1.23-17.486-.314l-.654.103-2.019-3.741c-1.968.263-3.814.671-5.525 1.217l1.923 4.023c-3.142 1.217-5.721 2.951-7.581 5.038-3.069 3.494-4.282 7.883-2.807 12.157.297.862.697 1.68 1.19 2.446l22.846-6.273-6.342-11.749.664-.125c10.259-1.829 15.869.997 18.942 4.006l-7.816 1.895-3.261-5.21zm-18.5 10.484c-.705-3.22-.143-6.811 4.32-9.205l3.494 7.31-7.814 1.895z"/>
</svg>