<svg xmlns="http://www.w3.org/2000/svg" viewBox="0 0 32 32" width="64" height="64">
    <path style="text-indent:0;text-align:start;line-height:normal;text-transform:none;block-progression:tb;-inkscape-font-specification:Sans"
          d="M 12.65625 4.90625 L 11.875 5 C 11.875 5 8.3696481 5.3828732 5.8125 7.4375 L 5.78125 7.4375 L 5.75 7.46875 C 5.1774699 7.997402 4.9258115 8.6459602 4.53125 9.59375 C 4.1366885 10.54154 3.715591 11.752904 3.34375 13.09375 C 2.600068 15.775442 2 19.027802 2 22 L 2 22.25 L 2.125 22.5 C 3.0505624 24.125542 4.6941059 25.161949 6.21875 25.875 C 7.7433941 26.588051 9.0579959 26.97057 9.96875 27 L 10.5625 27.03125 L 10.875 26.5 L 11.96875 24.5625 C 13.127347 24.822671 14.464603 25 16 25 C 17.535397 25 18.872626 24.822668 20.03125 24.5625 L 21.125 26.5 L 21.4375 27.03125 L 22.03125 27 C 22.942004 26.97057 24.256606 26.588051 25.78125 25.875 C 27.305894 25.161949 28.949438 24.125542 29.875 22.5 L 30 22.25 L 30 22 C 30 19.027802 29.399932 15.775442 28.65625 13.09375 C 28.284409 11.752904 27.863312 10.54154 27.46875 9.59375 C 27.074188 8.6459602 26.82253 7.997402 26.25 7.46875 L 26.21875 7.4375 L 26.1875 7.4375 C 23.630352 5.3828732 20.125 5 20.125 5 L 19.34375 4.90625 L 19.0625 5.625 C 19.0625 5.625 18.774449 6.3543498 18.59375 7.1875 C 17.461371 7.0362261 16.533867 7 16 7 C 15.466133 7 14.538629 7.0362261 13.40625 7.1875 C 13.225551 6.3543498 12.9375 5.625 12.9375 5.625 L 12.65625 4.90625 z M 11.28125 7.1875 C 11.325016 7.3291146 11.368882 7.4483477 11.40625 7.5625 C 10.113115 7.8816609 8.7337425 8.3716234 7.46875 9.15625 L 8.53125 10.84375 C 11.125303 9.2347577 14.852326 9 16 9 C 17.147674 9 20.874697 9.2347577 23.46875 10.84375 L 24.53125 9.15625 C 23.266257 8.3716234 21.886885 7.8816609 20.59375 7.5625 C 20.631119 7.4483477 20.674984 7.3291146 20.71875 7.1875 C 21.650407 7.3747917 23.432834 7.8029395 24.90625 8.96875 C 24.89895 8.97302 25.282 9.5510677 25.625 10.375 C 25.977157 11.220929 26.365716 12.351971 26.71875 13.625 C 27.396257 16.068068 27.925038 19.037784 27.96875 21.65625 C 27.340295 22.618973 26.173793 23.484306 24.9375 24.0625 C 23.859964 24.566446 23.006955 24.75086 22.5 24.84375 L 22 24 C 22.296059 23.891494 22.589175 23.768223 22.84375 23.65625 C 24.381119 22.980051 25.21875 22.25 25.21875 22.25 L 23.90625 20.75 C 23.90625 20.75 23.342631 21.266949 22.03125 21.84375 C 20.719869 22.420551 18.71659 23 16 23 C 13.28341 23 11.280411 22.420573 9.96875 21.84375 C 8.6570887 21.266927 8.09375 20.75 8.09375 20.75 L 6.78125 22.25 C 6.78125 22.25 7.6186613 22.980073 9.15625 23.65625 C 9.4108611 23.768219 9.7039258 23.891495 10 24 L 9.5 24.84375 C 8.9930451 24.75086 8.1400359 24.566446 7.0625 24.0625 C 5.8262068 23.484306 4.6597053 22.618973 4.03125 21.65625 C 4.0749615 19.037784 4.6037429 16.068068 5.28125 13.625 C 5.634284 12.351971 6.0228428 11.220929 6.375 10.375 C 6.7180001 9.5510677 7.1010436 8.9730183 7.09375 8.96875 C 8.5671656 7.8029395 10.349593 7.3747917 11.28125 7.1875 z M 12.5 14 C 11.725493 14 11.042938 14.44275 10.625 15 C 10.207062 15.55725 10 16.24505 10 17 C 10 17.75495 10.207062 18.44275 10.625 19 C 11.042938 19.55725 11.725493 20 12.5 20 C 13.274507 20 13.957062 19.55725 14.375 19 C 14.792938 18.44275 15 17.75495 15 17 C 15 16.24505 14.792938 15.55725 14.375 15 C 13.957062 14.44275 13.274507 14 12.5 14 z M 19.5 14 C 18.725493 14 18.042938 14.44275 17.625 15 C 17.207062 15.55725 17 16.24505 17 17 C 17 17.75495 17.207062 18.44275 17.625 19 C 18.042938 19.55725 18.725493 20 19.5 20 C 20.274507 20 20.957062 19.55725 21.375 19 C 21.792938 18.44275 22 17.75495 22 17 C 22 16.24505 21.792938 15.55725 21.375 15 C 20.957062 14.44275 20.274507 14 19.5 14 z M 12.5 16 C 12.55392 16 12.625044 16.02089 12.75 16.1875 C 12.874956 16.354108 13 16.650381 13 17 C 13 17.349619 12.874956 17.645892 12.75 17.8125 C 12.625044 17.979108 12.55392 18 12.5 18 C 12.44608 18 12.374956 17.979108 12.25 17.8125 C 12.125044 17.645892 12 17.349619 12 17 C 12 16.650381 12.125044 16.354108 12.25 16.1875 C 12.374956 16.020892 12.44608 16 12.5 16 z M 19.5 16 C 19.55392 16 19.625044 16.02089 19.75 16.1875 C 19.874956 16.354108 20 16.650381 20 17 C 20 17.349619 19.874956 17.645892 19.75 17.8125 C 19.625044 17.979108 19.55392 18 19.5 18 C 19.44608 18 19.374956 17.979108 19.25 17.8125 C 19.125044 17.645892 19 17.349619 19 17 C 19 16.650381 19.125044 16.354108 19.25 16.1875 C 19.374956 16.020892 19.44608 16 19.5 16 z"
          color="#000" overflow="visible" font-family="Sans"/>
</svg>