<svg xmlns="http://www.w3.org/2000/svg" viewBox="0 0 72 72"><path d="M72,64c0,4.4-3.6,8-8,8H8c-4.4,0-8-3.6-8-8V8c0-4.4,3.6-8,8-8h56c4.4,0,8,3.6,8,8V64z" fill="#7289da"/><path d="M30.5 18.2l-1.2.2s-5.6.6-9.7 3.9h-.1l-.1.1c-.9.9-1.3 1.9-1.9 3.4s-1.3 3.4-1.9 5.6c-1.2 4.2-2.2 9.4-2.2 14.2v.4l.2.4c1.5 2.6 4.1 4.2 6.6 5.4s4.6 1.8 6 1.8l1 .1.5-.9 1.8-3.1c1.8.4 4 .7 6.5.7s4.6-.3 6.5-.7l1.8 3.1.5.9 1-.1c1.4-.1 3.6-.6 6-1.8s5-2.8 6.6-5.4l.2-.4v-.4c0-4.7-1-9.9-2.2-14.3-.6-2.2-1.3-4.1-1.9-5.6s-1-2.6-1.9-3.4l-.1-.1h-.1c-4.2-3.2-9.8-3.8-9.8-3.8l-1.3-.2-.5 1.1s-.5 1.2-.7 2.5c-1.8-.2-3.3-.2-4.2-.2s-2.3.1-4.2.3c-.3-1.4-.7-2.5-.7-2.5l-.5-1.2zm-2.2 3.7c.1.2.2.4.2.6-2.1.5-4.2 1.3-6.3 2.6l1.7 2.7c4.2-2.6 10.1-3 11.9-3s7.8.4 11.9 3l1.7-2.7c-2-1.3-4.2-2-6.3-2.6.1-.2.2-.4.2-.6 1.5.3 4.3 1 6.7 2.9 0 0 .6 1 1.1 2.2.6 1.4 1.2 3.2 1.8 5.2 1.1 3.9 1.9 8.6 2 12.9-1 1.5-2.9 3-4.9 3.8-1.8.8-3.1 1.1-3.9 1.3l-.7-1.4c.5-.2 1-.4 1.4-.6 2.5-1.1 3.8-2.2 3.8-2.2l-2.1-2.4s-.9.8-3 1.8c-2.2 1-5.4 1.8-9.7 1.8s-7.5-1-9.7-1.8c-2.2-.9-3-1.8-3-1.8L21 46s1.4 1.2 3.8 2.2c.4.2.9.4 1.4.6l-.8 1.4c-.8-.2-2.2-.5-3.9-1.3-2-1-3.8-2.3-4.9-3.8.1-4.2.9-9 2-12.9.6-2 1.2-3.8 1.8-5.2.6-1.3 1.2-2.2 1.1-2.2 2.4-1.8 5.3-2.7 6.8-2.9zm1.9 10.9c-1.2 0-2.3.7-3 1.6s-1 2-1 3.2.3 2.3 1 3.2 1.8 1.6 3 1.6 2.3-.7 3-1.6 1-2 1-3.2-.3-2.3-1-3.2c-.6-.9-1.8-1.6-3-1.6zm11.2 0c-1.2 0-2.3.7-3 1.6s-1 2-1 3.2.3 2.3 1 3.2 1.8 1.6 3 1.6c1.3 0 2.3-.7 3-1.6s1-2 1-3.2-.3-2.3-1-3.2c-.6-.9-1.8-1.6-3-1.6zM30.2 36c.1 0 .2 0 .4.3.2.2.4.7.4 1.3s-.2 1-.4 1.3c-.2.2-.3.3-.4.3s-.2 0-.4-.3-.4-.7-.4-1.3.2-1 .4-1.3c.2-.2.3-.3.4-.3zm11.2 0c.1 0 .2 0 .4.3.2.2.4.7.4 1.3s-.2 1-.4 1.3c-.2.2-.3.3-.4.3s-.2 0-.4-.3-.4-.7-.4-1.3.2-1 .4-1.3c.2-.2.3-.3.4-.3z" fill="#fff"/></svg>