<svg version="1.1" xmlns="http://www.w3.org/2000/svg" xmlns:xlink="http://www.w3.org/1999/xlink" x="0px" y="0px"
	 viewBox="0 0 72 72" style="enable-background:new 0 0 72 72;" xml:space="preserve">
<path fill="#7289DA" d="M72,64c0,4.4-3.6,8-8,8H8c-4.4,0-8-3.6-8-8V8c0-4.4,3.6-8,8-8h56c4.4,0,8,3.6,8,8V64z"/>
<path fill="#FFFFFF" d="M30.3,14.8L28.8,15c0,0-7,0.8-12.1,4.9h-0.1l-0.1,0.1c-1.1,1.1-1.6,2.4-2.4,4.3s-1.6,4.3-2.4,7
	C10.2,36.6,9,43.1,9,49v0.5L9.3,50c1.9,3.3,5.1,5.3,8.2,6.8s5.7,2.2,7.5,2.3l1.2,0.1l0.6-1.1l2.2-3.9c2.3,0.5,5,0.9,8.1,0.9
	s5.7-0.4,8.1-0.9l2.2,3.9l0.6,1.1l1.2-0.1c1.8-0.1,4.5-0.8,7.5-2.3s6.3-3.5,8.2-6.8l0.3-0.5V49c0-5.9-1.2-12.4-2.7-17.8
	c-0.7-2.7-1.6-5.1-2.4-7s-1.3-3.2-2.4-4.3l-0.1-0.1h-0.1C52.3,15.8,45.3,15,45.3,15l-1.6-0.2l-0.6,1.4c0,0-0.6,1.5-0.9,3.1
	C39.9,19.1,38.1,19,37,19s-2.9,0.1-5.2,0.4c-0.4-1.7-0.9-3.1-0.9-3.1L30.3,14.8z M27.6,19.4c0.1,0.3,0.2,0.5,0.3,0.8
	c-2.6,0.6-5.3,1.6-7.9,3.2l2.1,3.4C27.3,23.5,34.7,23,37,23s9.7,0.5,14.9,3.7l2.1-3.4c-2.5-1.6-5.3-2.5-7.9-3.2
	c0.1-0.2,0.2-0.5,0.3-0.8c1.9,0.4,5.4,1.2,8.4,3.6c0,0,0.8,1.2,1.4,2.8c0.7,1.7,1.5,4,2.2,6.5c1.4,4.9,2.4,10.8,2.5,16.1
	c-1.3,1.9-3.6,3.7-6.1,4.8c-2.2,1-3.9,1.4-4.9,1.6L49,53c0.6-0.2,1.2-0.5,1.7-0.7c3.1-1.4,4.8-2.8,4.8-2.8l-2.6-3c0,0-1.1,1-3.8,2.2
	S42.4,51,37,51s-9.4-1.2-12.1-2.3s-3.8-2.2-3.8-2.2l-2.6,3c0,0,1.7,1.5,4.8,2.8c0.5,0.2,1.1,0.5,1.7,0.7l-1,1.7
	c-1-0.2-2.7-0.6-4.9-1.6c-2.5-1.2-4.8-2.9-6.1-4.8c0.1-5.2,1.1-11.2,2.5-16.1c0.7-2.5,1.5-4.8,2.2-6.5c0.7-1.6,1.5-2.8,1.4-2.8
	C22.1,20.6,25.7,19.7,27.6,19.4z M30,33c-1.5,0-2.9,0.9-3.8,2S25,37.5,25,39s0.4,2.9,1.3,4s2.2,2,3.8,2s2.9-0.9,3.8-2s1.3-2.5,1.3-4
	s-0.4-2.9-1.3-4S31.5,33,30,33z M44,33c-1.5,0-2.9,0.9-3.8,2S39,37.5,39,39s0.4,2.9,1.3,4s2.2,2,3.8,2s2.9-0.9,3.8-2s1.3-2.5,1.3-4
	s-0.4-2.9-1.3-4S45.5,33,44,33z M30,37c0.1,0,0.3,0,0.5,0.4c0.2,0.3,0.5,0.9,0.5,1.6s-0.3,1.3-0.5,1.6S30.1,41,30,41s-0.3,0-0.5-0.4
	S29,39.7,29,39s0.3-1.3,0.5-1.6S29.9,37,30,37z M44,37c0.1,0,0.3,0,0.5,0.4c0.2,0.3,0.5,0.9,0.5,1.6s-0.3,1.3-0.5,1.6S44.1,41,44,41
	s-0.3,0-0.5-0.4S43,39.7,43,39s0.3-1.3,0.5-1.6S43.9,37,44,37z"/>
</svg>