<?xml version="1.0" encoding="utf-8"?>
<svg version="1.1" id="facebook" xmlns="http://www.w3.org/2000/svg" xmlns:xlink="http://www.w3.org/1999/xlink" x="0px" y="0px"
	 viewBox="0 0 72 72" enable-background="new 0 0 72 72" xml:space="preserve">
<path fill="#3B5998" d="M72,64c0,4.4-3.6,8-8,8H8c-4.4,0-8-3.6-8-8V8c0-4.4,3.6-8,8-8h56c4.4,0,8,3.6,8,8V64z"/>
<path fill="#FFFFFF" d="M39.5,58.5V36h6.2l0.8-7.8h-7l0-3.9c0-2,0.2-3.1,3.1-3.1h3.9v-7.8h-6.2c-7.5,0-10.1,3.8-10.1,10.1v4.7h-4.7
	V36h4.7v22.5C30.2,58.5,39.5,58.5,39.5,58.5z"/>
</svg>
