<svg baseProfile="tiny" xmlns="http://www.w3.org/2000/svg" viewBox="0 0 72 72">
    <path fill="#333"
          d="M72 64c0 4.418-3.582 8-8 8h-56c-4.418 0-8-3.582-8-8v-56c0-4.418 3.582-8 8-8h56c4.418 0 8 3.582 8 8v56z"/>
    <path fill="#fff"
          d="M36 15c-11.598 0-21 9.402-21 21s9.402 21 21 21 21-9.402 21-21-9.402-21-21-21zm12.471 33.471c-1.621 1.621-3.507 2.893-5.606 3.781-.533.226-1.075.424-1.625.595v-3.148c0-1.653-.568-2.871-1.702-3.649.711-.068 1.364-.164 1.959-.288.593-.123 1.223-.3 1.887-.532.664-.232 1.257-.509 1.784-.832.526-.32 1.03-.738 1.516-1.25.486-.513.893-1.093 1.222-1.743.328-.65.587-1.429.779-2.338.191-.909.287-1.911.287-3.004 0-2.12-.69-3.925-2.071-5.414.629-1.641.561-3.424-.204-5.353l-.514-.061c-.355-.041-.995.109-1.917.451-.923.343-1.959.904-3.107 1.682-1.627-.451-3.315-.677-5.064-.677-1.765 0-3.445.226-5.046.677-.724-.492-1.41-.899-2.06-1.22-.65-.322-1.17-.54-1.56-.656-.39-.117-.751-.188-1.087-.215-.335-.028-.55-.035-.645-.022l-.205.041c-.765 1.942-.833 3.726-.205 5.353-1.38 1.489-2.071 3.294-2.071 5.414 0 1.093.096 2.094.287 3.004.192.91.453 1.688.781 2.338s.734 1.23 1.22 1.743c.486.511.991.929 1.518 1.251.526.321 1.12.597 1.783.831.663.232 1.292.41 1.888.533.596.122 1.248.218 1.959.287-1.122.765-1.682 1.981-1.682 3.65v3.208c-.619-.183-1.23-.401-1.83-.656-2.099-.888-3.985-2.16-5.606-3.781s-2.893-3.507-3.781-5.608c-.922-2.17-1.387-4.481-1.387-6.862s.467-4.692 1.386-6.865c.888-2.099 2.16-3.985 3.781-5.606s3.507-2.893 5.606-3.781c2.171-.919 4.481-1.384 6.864-1.384s4.692.467 6.865 1.386c2.099.888 3.985 2.16 5.606 3.781s2.893 3.507 3.781 5.608c.919 2.17 1.384 4.481 1.384 6.862s-.465 4.692-1.384 6.865c-.891 2.096-2.162 3.983-3.784 5.604z"/>
</svg>