<svg version="1.1" xmlns="http://www.w3.org/2000/svg" xmlns:xlink="http://www.w3.org/1999/xlink" x="0px" y="0px"
	 viewBox="0 0 72 72" style="enable-background:new 0 0 72 72;" xml:space="preserve">
<path fill="#333333" d="M72,64c0,4.4-3.6,8-8,8H8c-4.4,0-8-3.6-8-8V8c0-4.4,3.6-8,8-8h56c4.4,0,8,3.6,8,8V64z"/>
<g>
	<g>
		<path fill="#FFFFFF" d="M54.8,27.4c0.5-1.5,0.7-3,0.7-4.5c0-2.1-0.5-4.1-1.4-5.9c-1.9,0-3.6,0.4-5.1,1.1c-1.5,0.7-3.2,1.8-5.1,3.3
			c-2.4-0.6-4.9-0.9-7.6-0.9c-2.9,0-5.7,0.3-8.4,0.9c-1.9-1.5-3.6-2.6-5.1-3.3c-1.5-0.7-3.2-1.1-5.1-1.1c-0.9,1.8-1.4,3.8-1.4,5.9
			c0,1.6,0.2,3.1,0.7,4.6c-2.5,2.9-3.7,6.4-3.7,10.7c0,3.8,0.6,6.7,1.7,9c0.6,1.2,1.4,2.2,2.3,3.1c1,0.9,2,1.6,3.3,2.2
			c1.2,0.6,2.5,1,3.7,1.4c1.2,0.4,2.6,0.6,4.1,0.8c1.5,0.2,2.8,0.3,4,0.3C33.7,55,35,55,36.4,55c1.7,0,3.2,0,4.5-0.1
			c1.4-0.1,2.9-0.3,4.6-0.6c1.7-0.3,3.3-0.7,4.6-1.3c1.3-0.5,2.6-1.3,3.8-2.3c1.2-1,2.2-2.2,2.9-3.6c1.1-2.2,1.6-5.2,1.6-9
			C58.5,33.9,57.3,30.3,54.8,27.4z M51.6,47.1c-0.6,1.2-1.3,2.1-2.2,2.8c-0.9,0.7-2,1.2-3.3,1.6c-1.3,0.4-2.6,0.7-3.8,0.8
			c-1.2,0.1-2.6,0.2-4,0.2h-4.5c-1.5,0-2.8-0.1-4-0.2c-1.2-0.1-2.5-0.4-3.8-0.8c-1.3-0.4-2.4-0.9-3.3-1.6c-0.9-0.7-1.6-1.6-2.2-2.8
			c-0.6-1.2-0.9-2.6-0.9-4.2c0-2.2,0.6-4,1.9-5.5c1.2-1.5,2.9-2.3,5.1-2.3c0.8,0,2.5,0.2,5.3,0.6C33,35.9,34.4,36,36,36
			c1.6,0,3-0.1,4.2-0.3c2.8-0.4,4.5-0.6,5.3-0.6c2.1,0,3.8,0.8,5.1,2.3c1.2,1.5,1.9,3.4,1.9,5.5C52.4,44.5,52.2,45.9,51.6,47.1z"/>
		<path fill="#FFFFFF" d="M29.3,38.7c-0.5-0.6-1.2-0.9-2-0.9c-0.8,0-1.4,0.3-2,0.9c-0.5,0.6-0.9,1.3-1.2,2.1c-0.2,0.8-0.3,1.5-0.3,2.2
			c0,0.7,0.1,1.5,0.3,2.2c0.2,0.8,0.6,1.4,1.2,2.1c0.6,0.6,1.2,0.9,2,0.9c0.8,0,1.4-0.3,2-0.9c0.5-0.6,0.9-1.3,1.2-2.1
			c0.2-0.8,0.3-1.5,0.3-2.2c0-0.7-0.1-1.5-0.3-2.2C30.2,39.9,29.9,39.3,29.3,38.7z"/>
		<path fill="#FFFFFF" d="M46.6,38.7c-0.5-0.6-1.2-0.9-2-0.9c-0.8,0-1.4,0.3-2,0.9c-0.5,0.6-0.9,1.3-1.2,2.1c-0.2,0.8-0.3,1.5-0.3,2.2
			c0,0.7,0.1,1.5,0.3,2.2c0.2,0.8,0.6,1.4,1.2,2.1c0.6,0.6,1.2,0.9,2,0.9c0.8,0,1.4-0.3,2-0.9c0.5-0.6,0.9-1.3,1.2-2.1
			c0.2-0.8,0.3-1.5,0.3-2.2c0-0.7-0.1-1.5-0.3-2.2C47.6,39.9,47.2,39.3,46.6,38.7z"/>
	</g>
</g>
</svg>