<svg baseProfile="tiny" xmlns="http://www.w3.org/2000/svg" viewBox="0 0 72 72">
    <path fill="#DD4B39"
          d="M72 64c0 4.418-3.582 8-8 8h-56c-4.418 0-8-3.582-8-8v-56c0-4.418 3.582-8 8-8h56c4.418 0 8 3.582 8 8v56z"/>
    <path fill="#fff"
          d="M39.93 19.257h-10.99c-4.927 0-9.564 3.732-9.564 8.056 0 4.418 3.359 7.984 8.372 7.984.349 0 .687-.006 1.018-.031-.326.623-.558 1.324-.558 2.052 0 1.229.66 2.224 1.496 3.036l-1.905.018c-6.101.002-10.799 3.888-10.799 7.919 0 3.968 5.149 6.452 11.252 6.452 6.957 0 10.799-3.948 10.799-7.917 0-3.183-.939-5.089-3.843-7.143-.993-.702-2.893-2.414-2.893-3.417 0-1.177.336-1.759 2.109-3.143 1.819-1.42 3.104-3.417 3.104-5.738 0-2.765-1.23-5.459-3.543-6.348h3.486l2.459-1.78zm-3.839 26.884c.086.367.135.746.135 1.132 0 3.208-2.066 5.714-7.995 5.714-4.219 0-7.265-2.67-7.265-5.878 0-3.143 3.779-5.76 7.995-5.714.984.01 1.902.169 2.735.438 2.29 1.594 3.933 2.493 4.395 4.308zm-6.753-11.963c-2.83-.086-5.522-3.167-6.011-6.886-.487-3.718 1.41-6.564 4.241-6.479 2.831.085 5.522 3.068 6.011 6.787.489 3.718-1.411 6.662-4.241 6.578zm21.787-7.046v-7.875h-2.625v7.875h-7.875v2.625h7.875v7.875h2.625v-7.875h7.875v-2.625h-7.875z"/>
</svg>