<svg version="1.1" xmlns="http://www.w3.org/2000/svg" xmlns:xlink="http://www.w3.org/1999/xlink" x="0px" y="0px"
	 viewBox="0 0 72 72" style="enable-background:new 0 0 72 72;" xml:space="preserve">
<path fill="#DD4B39" d="M72,64c0,4.4-3.6,8-8,8H8c-4.4,0-8-3.6-8-8V8c0-4.4,3.6-8,8-8h56c4.4,0,8,3.6,8,8V64z"/>
<g>
	<g>
		<g>
			<path fill="#FFFFFF" d="M41.6,32.2H27V39h7.3c-1,2.8-3.4,4.5-6.4,4.5c-4.1,0-7.7-3.5-7.7-7.5c0-4,3.6-7.5,7.7-7.5
				c1.9,0,3.6,0.6,4.8,1.8l0.5,0.5l5-5l-0.5-0.5c-2.4-2.3-5.8-3.5-9.8-3.5c-8.1,0-14.4,6.3-14.4,14.2c0,8,6.3,14.3,14.4,14.3
				c7.4,0,12.7-4.4,13.8-11.4c0.1-0.9,0.2-1.9,0.2-2.9c0-1.1-0.1-2.2-0.2-3.1L41.6,32.2z"/>
			<polygon fill="#FFFFFF" points="54,32.2 54,27.7 48.8,27.7 48.8,32.2 44.3,32.2 44.3,37.5 48.8,37.5 48.8,42 54,42 54,37.5
				58.5,37.5 58.5,32.2"/>
		</g>
	</g>
</g>
</svg>