<svg version="1.1" xmlns="http://www.w3.org/2000/svg" xmlns:xlink="http://www.w3.org/1999/xlink" x="0px" y="0px"
	 viewBox="0 0 72 72" style="enable-background:new 0 0 72 72;" xml:space="preserve">
<path fill="#00CC00" d="M72,64c0,4.4-3.6,8-8,8H8c-4.4,0-8-3.6-8-8V8c0-4.4,3.6-8,8-8h56c4.4,0,8,3.6,8,8V64z"/>
<path fill="#FFFFFF" d="M17.5,38.7c-0.5-0.3-1-0.5-1.4-0.8c-3.7-2.6-3.6-8.3,0.3-11.1c2.1-1.5,4.5-2.1,7-1.7c0.1,0,0.3,0,0.6,0
	c-0.2-0.4-0.3-0.8-0.5-1.1c-0.6-1.4-0.9-2.8-0.6-4.3c0.7-3.6,4.1-5.6,7.8-4.4c1,0.3,2,1,2.9,1.5c0.3,0.2,0.5,0.4,0.9,0.7
	c1.3-2.1,3.2-3.4,5.6-3.8c1.8-0.3,3.4,0.1,5,0.8c3.5,1.8,4.7,4.5,4.1,9.2c0.5,0,1,0.1,1.5,0.1c3.1,0.2,5.9,2.4,6.4,5.1
	c0.4,2.1-0.2,4-1.5,5.7c-0.2,0.3-0.5,0.6-0.7,0.8c0,0,0,0.1-0.1,0.3c2,1.3,3.2,3.2,3.5,5.6c0.2,1.9-0.3,3.7-1.3,5.3
	c-1.9,3.3-4.9,4.3-9.5,3.2c0,0.3-0.1,0.6-0.1,1c-0.2,2.5-1.3,4.5-3.6,5.6c-2.3,1-4.4,0.5-6.4-1c-0.1-0.1-0.2-0.1-0.4-0.2
	c-1,2.3-2.6,4-5.1,4.6c-1.9,0.5-3.8,0.3-5.6-0.5c-4-1.8-5.2-4.9-3.9-10.3C16.3,49,13.9,42.7,17.5,38.7z M39.1,31.5
	c2.1-2.5,4.3-5,6.4-7.6c1.6-2,1.2-4.4-0.7-5.9c-2.2-1.7-5.3-1.6-6.8,0.2c-0.8,1-1,2.1-1,3.3c0.2,2.6,0.4,5.3,0.5,7.9
	C37.5,30.5,37.8,31.2,39.1,31.5z M50.4,38.1c-0.5,0-1.3,0.1-2.1,0.2c-2.1,0.2-4.1,0.4-6.2,0.6c-0.7,0.1-0.9,0.6-1,1.1
	c-0.1,0.2,0,0.6,0.2,0.7c2.3,1.9,4.5,3.9,6.8,5.7c1.7,1.3,3.6,1.2,5.1,0c1.7-1.3,2.4-3.8,1.7-5.7C54.3,38.8,52.9,38,50.4,38.1z
	 M34.3,51.8c-0.1-1.4-0.2-2.4-0.3-3.4c-0.2-1.5-0.3-3-0.5-4.4c-0.1-0.4-0.6-0.7-0.9-0.9c-0.2-0.1-0.8,0-0.9,0.1
	c-1.9,2.1-3.9,4.2-5.6,6.4c-1.4,1.8-1.2,4,0.2,5.5c1.6,1.7,4.5,2.2,6.2,1C34.1,55.1,34.5,53.4,34.3,51.8z M20.7,35.9
	c1.7-0.2,3.4-0.4,5.2-0.7c0.8-0.1,1.6-0.2,2.4-0.4c0.8-0.2,1.4-1.4,0.9-1.9c-1.2-1.3-2.4-2.6-3.7-3.7c-2.7-2.1-6.8-1.4-8.4,1.5
	c-1.1,2-0.2,4.4,1.9,5C19.5,35.9,20.1,35.9,20.7,35.9z M42,35.3c3-0.4,5.7-0.7,8.4-1.1c1.7-0.3,2.9-1.3,3.5-3
	c0.5-1.4,0.2-2.3-0.8-3.3c-1.5-1.3-3.8-1.5-5.3-0.2c-2.2,1.9-4.3,3.8-6.4,5.8c-0.2,0.2-0.2,0.8,0,1.1C41.5,35.1,41.9,35.2,42,35.3z
	 M33.9,29.9c-0.3-2.8-0.5-5.2-0.8-7.7c-0.2-2.3-1.5-3.6-3.7-4.1c-1.5-0.3-2.9,0.5-3.3,2c-0.3,1.2,0.1,2.3,0.8,3.2
	c1.7,2.3,3.5,4.6,5.2,6.9c0.4,0.5,0.8,0.5,1.2,0.2C33.6,30.4,33.8,30,33.9,29.9z M41.4,53.9c1.3-0.1,2.2-0.7,2.6-1.8
	c0.6-1.4,0.4-2.8-0.5-3.9c-1.5-1.7-3-3.3-4.5-4.9c-0.2-0.2-0.7-0.4-0.9-0.3c-0.3,0.2-0.6,0.6-0.6,1c0.2,2.2,0.4,4.3,0.8,6.5
	c0.2,1,0.9,1.9,1.5,2.7C40.2,53.5,40.8,53.6,41.4,53.9z M35.1,40.7c2.1,0,3.8-1.7,3.8-3.8c0-2.1-1.7-3.8-3.8-3.8
	c-2.1,0-3.8,1.8-3.8,3.9C31.4,39.1,33,40.8,35.1,40.7z"/>
</svg>