<svg xmlns="http://www.w3.org/2000/svg" viewBox="0 0 72 72"><path fill="#37b648" d="M72,64c0,4.4-3.6,8-8,8H8c-4.4,0-8-3.6-8-8V8c0-4.4,3.6-8,8-8h56c4.4,0,8,3.6,8,8V64z"/><path fill="#fff" d="M18.2 37.8c-.5-.3-1-.5-1.4-.8-3.6-2.5-3.5-8 .3-10.7 2-1.5 4.4-2 6.8-1.6h.6c-.2-.4-.3-.8-.5-1.1-.6-1.4-.9-2.7-.6-4.2.7-3.5 4-5.4 7.6-4.3 1 .3 1.9 1 2.8 1.5.3.2.5.4.9.7 1.3-2 3.1-3.3 5.4-3.7 1.7-.3 3.3.1 4.8.8 3.4 1.7 4.6 4.4 4 8.9.5 0 1 .1 1.5.1 3 .2 5.7 2.3 6.2 4.9.4 2-.2 3.9-1.5 5.5-.2.3-.5.6-.7.8 0 0 0 .1-.1.3 1.9 1.3 3.1 3.1 3.4 5.4.2 1.8-.3 3.6-1.3 5.1-1.8 3.2-4.7 4.2-9.2 3.1 0 .3-.1.6-.1 1-.2 2.4-1.3 4.4-3.5 5.4s-4.3.5-6.2-1c-.1-.1-.2-.1-.4-.2-1 2.2-2.5 3.9-4.9 4.5-1.8.5-3.7.3-5.4-.5-3.9-1.7-5-4.7-3.8-10-5.9.1-8.2-6-4.7-9.9zm20.9-6.9c2-2.4 4.2-4.8 6.2-7.4 1.5-1.9 1.2-4.3-.7-5.7-2.1-1.6-5.1-1.5-6.6.2-.8 1-1 2-1 3.2l.5 7.6c0 1.1.3 1.8 1.6 2.1zM50 37.3c-.5 0-1.3.1-2 .2l-6 .6c-.7.1-.9.6-1 1.1-.1.2 0 .6.2.7 2.2 1.8 4.4 3.8 6.6 5.5 1.6 1.3 3.5 1.2 4.9 0 1.6-1.3 2.3-3.7 1.6-5.5-.5-2-1.8-2.7-4.3-2.6zM34.4 50.5c0-1.3-.1-2.3-.2-3.3-.2-1.5-.3-2.9-.5-4.3-.1-.4-.6-.7-.9-.9-.2-.1-.8 0-.9.1-1.8 2-3.8 4.1-5.4 6.2-1.4 1.7-1.2 3.9.2 5.3 1.5 1.6 4.4 2.1 6 1 1.6-.9 1.9-2.5 1.7-4.1zM21.3 35.1c1.6-.2 3.3-.4 5-.7.8-.1 1.5-.2 2.3-.4s1.4-1.4.9-1.8c-1.2-1.3-2.3-2.5-3.6-3.6-2.6-2-6.6-1.4-8.1 1.5-1.1 1.9-.2 4.3 1.8 4.8.5.2 1.1.2 1.7.2zm20.6-.6l8.1-1.1c1.6-.3 2.8-1.3 3.4-2.9.5-1.4.2-2.2-.8-3.2-1.5-1.3-3.7-1.5-5.1-.2a164.76 164.76 0 0 0-6.2 5.6c-.2.2-.2.8 0 1.1.1.6.5.7.6.7zm-7.8-5.2l-.8-7.5c-.2-2.2-1.5-3.5-3.6-4-1.5-.3-2.8.5-3.2 1.9-.3 1.2.1 2.2.8 3.1l5 6.7c.4.5.8.5 1.2.2.3.1.5-.3.6-.4zm7.2 23.3c1.3-.1 2.1-.7 2.5-1.7.6-1.4.4-2.7-.5-3.8-1.5-1.6-2.9-3.2-4.4-4.7-.2-.2-.7-.4-.9-.3-.3.2-.6.6-.6 1 .2 2.1.4 4.2.8 6.3.2 1 .9 1.8 1.5 2.6.5.2 1 .3 1.6.6zm-6.1-12.8c2 0 3.7-1.6 3.7-3.7s-1.6-3.7-3.7-3.7c-2 0-3.7 1.7-3.7 3.8.1 2 1.7 3.7 3.7 3.6z"/></svg>