<svg xmlns="http://www.w3.org/2000/svg" viewBox="0 0 72 72"><path fill="#e1306c" d="M72,64c0,4.4-3.6,8-8,8H8c-4.4,0-8-3.6-8-8V8c0-4.4,3.6-8,8-8h56c4.4,0,8,3.6,8,8V64z"/><g fill="#fff"><path d="M36 17.6l9.1.1c2.2.1 3.4.5 4.2.8 1.1.4 1.8.9 2.6 1.7s1.3 1.5 1.7 2.6c.3.8.7 2 .8 4.2l.1 9.1-.1 9.1c-.1 2.2-.5 3.4-.8 4.2-.4 1.1-.9 1.8-1.7 2.6s-1.5 1.3-2.6 1.7c-.8.3-2 .7-4.2.8l-9.1.1c-6 0-6.7 0-9.1-.1-2.2-.1-3.4-.5-4.2-.8-1.1-.4-1.8-.9-2.6-1.7s-1.3-1.5-1.7-2.6c-.3-.8-.7-2-.8-4.2l-.1-9.1.1-9.1c.1-2.2.5-3.4.8-4.2.4-1.1.9-1.8 1.7-2.6s1.5-1.3 2.6-1.7c.8-.3 2-.7 4.2-.8l9.1-.1m0-4.1l-9.3.1c-2.4.1-4 .5-5.5 1-1.5.6-2.7 1.3-4 2.6s-2 2.5-2.6 4c-.6 1.4-.9 3.1-1 5.5l-.1 9.3.1 9.3c.1 2.4.5 4 1 5.5.6 1.5 1.3 2.7 2.6 4s2.5 2 4 2.6c1.4.6 3.1.9 5.5 1l9.3.1 9.3-.1c2.4-.1 4-.5 5.5-1 1.5-.6 2.7-1.3 4-2.6s2-2.5 2.6-4c.6-1.4.9-3.1 1-5.5l.1-9.3-.1-9.3c-.1-2.4-.5-4-1-5.5-.6-1.5-1.3-2.7-2.6-4s-2.5-2-4-2.6c-1.4-.6-3.1-.9-5.5-1l-9.3-.1zm0 10.9A11.61 11.61 0 0 0 24.4 36 11.61 11.61 0 0 0 36 47.6 11.61 11.61 0 0 0 47.6 36 11.61 11.61 0 0 0 36 24.4zm0 19.1c-4.1 0-7.5-3.4-7.5-7.5s3.4-7.5 7.5-7.5 7.5 3.4 7.5 7.5-3.4 7.5-7.5 7.5z"/><circle cx="48" cy="24" r="2.7"/></g></svg>