<?xml version="1.0" encoding="utf-8"?>
<svg version="1.1" id="line" xmlns="http://www.w3.org/2000/svg" xmlns:xlink="http://www.w3.org/1999/xlink" x="0px" y="0px"
	 viewBox="0 0 72 72" enable-background="new 0 0 72 72" xml:space="preserve">
<path fill="#3ACE01" d="M7.2,0h57.6c4,0,7.2,3.2,7.2,7.2v57.6c0,4-3.2,7.2-7.2,7.2H7.2c-4,0-7.2-3.2-7.2-7.2V7.3
	C-0.1,3.3,3.2,0,7.2,0z"/>
<path fill="#FFFFFF" d="M35.6,15.5L35.6,15.5c-12.4,0-22.5,8.1-22.5,18c0,8.9,8,16.2,18.5,17.7v0l0,0c0.2,0,0.5,0.1,0.7,0.1
	c3.6,0.7,0.5,5.2,1.7,6.2c1.4,1.1,11.6-5.8,17.8-11.5c0.9-0.8,1.7-1.6,2.4-2.4l0,0c0.2-0.2,0.3-0.4,0.4-0.5c2.1-2.8,3.4-6,3.4-9.5
	C58.1,23.6,48,15.5,35.6,15.5z M28.2,38.1c0,0.6-0.5,1.2-1.2,1.2h-4.5c-0.6,0-1.2-0.5-1.2-1.2v-8.7c0-0.6,0.5-1.2,1.2-1.2h0.1
	c0.6,0,1.2,0.5,1.2,1.2v7.4h3.3C27.7,36.8,28.2,37.3,28.2,38.1L28.2,38.1z M31.6,38.1c0,0.6-0.5,1.2-1.2,1.2h-0.1l0,0
	c-0.6,0-1.2-0.5-1.2-1.2v-8.7c0-0.6,0.5-1.2,1.2-1.2h0.1c0.6,0,1.2,0.5,1.2,1.2V38.1z M42.3,38.1c0,0.3-0.1,0.6-0.3,0.8l0,0v0
	c-0.1,0.1-0.2,0.2-0.3,0.2c-0.2,0.1-0.4,0.1-0.5,0.1H41c-0.2,0-0.3,0-0.4-0.1c-0.2-0.1-0.3-0.2-0.5-0.3l0,0c0,0-0.1-0.1-0.1-0.1
	l-4.3-5.8v5.2c0,0.6-0.5,1.2-1.2,1.2h-0.1c-0.6,0-1.2-0.5-1.2-1.2v-8.7c0-0.6,0.5-1.2,1.2-1.2h0.1c0.4,0,0.8,0.2,1,0.6l4.2,5.7v-5.1
	c0-0.6,0.5-1.2,1.2-1.2h0.1c0.6,0,1.2,0.5,1.2,1.2V38.1z M50.6,29.5c0,0.6-0.5,1.2-1.2,1.2h-3.3v1.9h3.3c0.6,0,1.2,0.5,1.2,1.2v0.1
	v0c0,0.6-0.5,1.2-1.2,1.2h-3.3v1.9h3.3c0.6,0,1.2,0.5,1.2,1.2v0.1c0,0.6-0.5,1.2-1.2,1.2h-4.5c-0.6,0-1.2-0.5-1.2-1.2v-8.7
	c0-0.6,0.5-1.2,1.2-1.2h4.5C50.1,28.2,50.6,28.8,50.6,29.5L50.6,29.5z"/>
</svg>
