<svg version="1.1" xmlns="http://www.w3.org/2000/svg" xmlns:xlink="http://www.w3.org/1999/xlink" x="0px" y="0px"
	 viewBox="0 0 72 72" style="enable-background:new 0 0 72 72;" xml:space="preserve">
<g>
	<path fill="#00C300" d="M7.2-0.1h57.6c4,0,7.2,3.2,7.2,7.2v57.6c0,4-3.2,7.2-7.2,7.2H7.2c-4,0-7.2-3.2-7.2-7.2V7.2
		C-0.1,3.2,3.2-0.1,7.2-0.1z"/>
	<path fill="#FFFFFF" d="M36.2,12.3c13.8,0,25.3,8.7,25.3,20.3c0,3.6-1.4,8-3.6,10.9c0,0-0.7,0-0.7,0.7l0,0c-0.7,0.7-1.4,1.4-2.9,2.2
		C47.1,52.8,35.5,60.8,34,60.1c-1.4-1.4,2.2-6.5-1.4-7.2c-0.7,0-0.7,0-0.7,0l0,0l0,0c-12.3-2.2-21.7-10.1-21.7-20.3
		C10.1,21,21.7,12.3,36.2,12.3z M21,39.1L21,39.1L21,39.1h5.1c0.7,0,1.4-0.7,1.4-1.4l0,0c0-0.7-0.7-1.4-1.4-1.4h-3.6v-8.7
		c0-0.7-0.7-0.7-1.4-0.7l0,0c-0.7,0-1.4,0-1.4,0.7v10.1C19.5,38.4,20.3,39.1,21,39.1z M52.8,32.6L52.8,32.6L52.8,32.6
		c0-0.7,0-1.4-0.7-1.4h-4.3v-1.4h4.3c0.7,0,0.7-0.7,0.7-1.4l0,0c0-0.7,0-1.4-0.7-1.4H47l0,0h-0.7c-0.7,0-0.7,0.7-0.7,1.4v9.4
		c0,0.7,0,1.4,0.7,1.4H47l0,0h5.1c0.7,0,0.7-0.7,0.7-1.4l0,0c0-0.7,0-1.4-0.7-1.4h-4.3V34h4.3C52.8,34,52.8,33.3,52.8,32.6z
		 M43.4,38.4L43.4,38.4L43.4,38.4c0,0,0,0,0-0.7V27.5c0-0.7-0.7-0.7-1.4-0.7l0,0c-0.7,0-1.4,0-1.4,0.7V34l-4.3-6.5
		c-0.7-0.7-0.7-0.7-1.4-0.7l0,0c-0.7,0-1.4,0-1.4,0.7v10.1c0,0.7,0.7,1.4,1.4,1.4l0,0c0.7,0,1.4-0.7,1.4-1.4v-5.8l5.1,6.5l0,0l0,0
		c0,0.7,0,0.7,0.7,0.7l0,0l0,0c0.7,0,0.7,0,0.7,0S43.4,39.1,43.4,38.4z M30.4,39.1L30.4,39.1L30.4,39.1c0.7,0,1.4-0.7,1.4-1.4V27.5
		c0-0.7-0.7-0.7-1.4-0.7l0,0c-0.7,0-1.4,0-1.4,0.7v10.1C29,38.4,29.7,39.1,30.4,39.1z"/>
</g>
</svg>