<svg baseProfile="tiny" xmlns="http://www.w3.org/2000/svg" viewBox="0 0 72 72">
    <path fill="#007BB6"
          d="M72 64c0 4.418-3.582 8-8 8h-56c-4.418 0-8-3.582-8-8v-56c0-4.418 3.582-8 8-8h56c4.418 0 8 3.582 8 8v56z"/>
    <g fill="#fff">
        <path d="M52.2 51v-16.2c0-4.969-3.626-9-8.1-9-2.545 0-4.815 2.429-6.3 4.47v-4.47h-7.2v25.2h7.2v-14.4c0-1.99 1.61-3.6 3.6-3.6s3.6 1.61 3.6 3.6v14.4h7.2z"/>
        <circle cx="23.4" cy="18.6" r="3.6"/>
        <rect x="19.8" y="25.8" width="7.2" height="25.2"/>
    </g>
</svg>