<?xml version="1.0" encoding="utf-8"?>
<svg version="1.1" id="msn" xmlns="http://www.w3.org/2000/svg" xmlns:xlink="http://www.w3.org/1999/xlink" x="0px" y="0px"
	 viewBox="0 0 72 72" enable-background="new 0 0 72 72" xml:space="preserve">
<path fill="#0078D7" d="M72,64c0,4.4-3.6,8-8,8H8c-4.4,0-8-3.6-8-8V8c0-4.4,3.6-8,8-8h56c4.4,0,8,3.6,8,8V64z"/>
<g>
	<path fill="#FFFFFF" d="M24.3,58.5c-2.6,0-4.9-1.6-4.9-5.4c0-5.8,5-10.2,7.2-11.4c0,0,3.2,1.8,6.4,3c-6.5-4.1-10.7-11.6-10.7-19.9
		c0-7.8,4.1-11.3,7.8-11.3c3,0,10,3.3,10,15.9C40.3,42.9,33.2,58.5,24.3,58.5L24.3,58.5z"/>
	<path fill="#FFFFFF" d="M35.6,54.2c0,2,0.7,2.7,1.7,2.7c2.6,0,6.8-6.1,6.6-12.5c4-4.2,8.7-10.8,8.7-16c0-1.3-0.4-2.3-1.9-2.3
		c-2.3,0-5.6,4-7.7,7.9c-2,4.1-3.9,8.8-6.4,15.2C36.2,50.7,35.6,52.7,35.6,54.2L35.6,54.2z"/>
</g>
</svg>
