<svg version="1.1" xmlns="http://www.w3.org/2000/svg" xmlns:xlink="http://www.w3.org/1999/xlink" x="0px" y="0px"
	 viewBox="0 0 72 72" style="enable-background:new 0 0 72 72;" xml:space="preserve">
<path fill="#97DEEF" d="M72,64c0,4.4-3.6,8-8,8H8c-4.4,0-8-3.6-8-8V8c0-4.4,3.6-8,8-8h56c4.4,0,8,3.6,8,8V64z"/>
<path fill="#FFFFFF" d="M35.4,29c1.7-2.3,3.2-4.7,5-6.9c1.9-2.5,4.2-4.6,7-6.2c2-1.1,4.1-1.6,6.3-1.3c0.5,0.1,0.9,0.2,1.2,0.6
	c1.9,2,3,4.4,3.4,7.1c0.5,3.8-0.4,7.3-2,10.7c-0.7,1.5-1.5,2.9-2.5,4.3c-0.6,0.8-1.5,1.4-2.3,2c-2.1,1.4-4.4,2.2-6.9,2
	c-1-0.1-2.1-0.5-3.1-0.8c-0.2-0.1-0.3-0.3-0.4-0.5c-0.5-1.6-0.9-3.3-1.5-4.9C38.7,32.7,37.5,30.6,35.4,29z"/>
<path fill="#FFFFFF" d="M37,42.6c-1.1,1.2-2.5,1.4-4,1.2c-1.8-0.3-3.4-1-4.9-2c-4.3-2.9-8.3-6.2-11.5-10.3c-1.4-1.7-2.5-3.5-3-5.6
	c-0.3-1.1-0.3-2.1,0-3.2c0.2-0.6,0.6-0.9,1.2-1c1.3-0.2,2.5,0.1,3.7,0.5c2.6,0.9,5,2.1,7.2,3.6c2.2,1.4,4.3,2.9,6.4,4.4
	c0.2,0.1,0.3,0.3,0.3,0.5c0,2.2,0.7,4.2,1.5,6.1c0.8,1.8,1.7,3.5,2.6,5.3C36.8,42.2,36.9,42.4,37,42.6z"/>
<path fill="#FFFFFF" d="M56.2,35.6c0.6,1.7,0.8,3.5,0.4,5.3c-0.5,2.5-1.2,5-2.5,7.2c-0.4,0.6-0.8,1.2-1.3,1.8c-1.7,1.8-3.7,2.1-5.9,1
	c-1.9-1-3.4-2.5-4.8-4.1c-0.1-0.2-0.2-0.4-0.2-0.7c-0.2-1.5-0.3-3-0.5-4.6c2.9,1.4,5.7,1.3,8.5,0.1C52.7,40.3,54.9,38.5,56.2,35.6z"
	/>
<path fill="#FFFFFF" d="M27,42.3c1.9,1.5,4,2.4,6.4,2.8c1.7,0.2,2.7,0,4.4-1.4c0.7,1.3,1.8,2.5,1.9,4.2c0.2,1.7,0.5,3.5,0.8,5.2
	c0.1,0.4,0,0.7-0.2,1c-0.9,1.2-2,1.5-3.4,1c-1.3-0.4-2.3-1.2-3.3-2.2c-2.4-2.3-4.5-4.9-5.9-7.9c-0.4-0.8-0.6-1.8-0.9-2.7
	C26.9,42.3,27,42.3,27,42.3z"/>
<path fill="#FFFFFF" d="M41,46.6c-0.1-0.2-0.2-0.2-0.2-0.3c-2.5-3.8-4.8-7.7-6.3-11.9c-0.6-1.6-1-3.2-0.8-4.9c0-0.1,0-0.2,0-0.3
	c0,0,0,0,0.1-0.1c0.4,0.3,0.8,0.6,1.2,0.9c1.8,1.6,3,3.7,3.8,6c1.1,2.8,1.6,5.7,2,8.6C40.8,45.2,40.9,45.9,41,46.6z"/>
</svg>