<svg xmlns="http://www.w3.org/2000/svg" viewBox="0 0 72 72"><path fill="#003087" d="M72,64c0,4.4-3.6,8-8,8H8c-4.4,0-8-3.6-8-8V8c0-4.4,3.6-8,8-8h56c4.4,0,8,3.6,8,8V64z"/><path fill="#fff" d="M18.4 42.1l-1.5.6c-2.3 1-3.5 2-3.4 2.9.1 1.3 1.6 2.3 4.3 3 3.5.9 7 1.1 10.7.6v-3.7l-2.9 1.1c-3 1.1-4.6.2-4.6.2-.5-.3-.7-1 .6-1.5l1.6-.6 5.3-1.9v-4.3l-1.3.5-8.8 3.1zm22.2-14.8v10.9c2.3 1.1 4.3 1.2 5.8 0 1.6-1.1 2.4-3 2.4-5.9 0-3-.6-5.3-1.9-6.8-1.2-1.6-3.3-3-6.4-4-3.9-1.3-7.2-2.4-9.8-2.9v32.7l7 2.2V26.4c0-1.7 2.9-1.6 2.9.9zm17.9 16.9c0-1.1-1.4-2-3.8-2.8-2.7-.9-5-1.3-7.5-1.2-2.3 0-5.1.8-7.6 1.6V46l6.8-2.4s2.1-.8 3.8-.3c1.3.3 1.3 1.1-.1 1.6l-1.6.6-9 3.2V53l14.3-5.1 1.2-.5c2.5-1.1 3.6-2.1 3.5-3.2z"/></svg>