<?xml version="1.0" ?><!DOCTYPE svg  PUBLIC '-//W3C//DTD SVG 1.1//EN'
        'http://www.w3.org/Graphics/SVG/1.1/DTD/svg11.dtd'>
<svg height="2048px" style="shape-rendering:geometricPrecision; text-rendering:geometricPrecision; image-rendering:optimizeQuality; fill-rule:evenodd; clip-rule:evenodd" viewBox="0 0 2048 2048" width="2048px" xml:space="preserve" xmlns="http://www.w3.org/2000/svg" xmlns:xlink="http://www.w3.org/1999/xlink"><defs><style type="text/css">
   <![CDATA[
    .fil7 {fill:none}
    .fil5 {fill:#0688C7}
    .fil2 {fill:#0689C7}
    .fil4 {fill:#40B7A5}
    .fil1 {fill:#42B7A5}
    .fil0 {fill:#F5C136}
    .fil3 {fill:#F5C535}
    .fil6 {fill:#ED3237}
   ]]>
  </style></defs><g id="Layer_x0020_1"><g id="_305705728"><path class="fil0" d="M1077.72 1619.35l598.336 -213.862c117.21,-37.1906 166.309,-131.393 47.9067,-177.651 -158.33,-69.6827 -393.411,-73.9134 -505.073,-41.7886l-140.443 46.4221 -0.403937 214.833 0.124016 -65.4709 351.31 -124.715c46.3949,-18.5138 197.895,13.5213 123.187,45.1429l-474.667 169.662 -0.277559 147.428z" id="_305706184"/><path class="fil1" d="M1088.63 1229.11l-10.174 3.3626 -0.403937 214.833 0.124016 -65.4709 237.867 -84.443 -227.413 -68.2819zm363.42 109.119l-374.044 133.696 -0.0129921 6.35552 207.129 66.9426 390.943 -139.733 -224.015 -67.2615z" id="_305705656"/><path class="fil2" d="M1676.06 1405.49c117.21,-37.1906 166.309,-131.393 47.9067,-177.651 -158.33,-69.6827 -393.411,-73.9134 -505.073,-41.7886l-130.269 43.0595 227.413 68.2819 113.443 -40.2721c46.3949,-18.5138 197.895,13.5213 123.187,45.1429l-100.623 35.9658 224.015 67.2615z" id="_305705200"/><path class="fil3" d="M825.687 1081.17l-453.747 162.181c-117.21,37.1918 -166.309,131.394 -47.9067,177.651 155.483,68.4296 384.971,73.7351 498.92,43.4823l1.03819 -145.706 -205.473 72.9438c-46.3949,18.5138 -197.895,-13.5225 -123.187,-45.1429l329.301 -117.704 1.05354 -147.705z" id="_305705680"/><path class="fil4" d="M720.371 1118.81l-348.431 124.539c-3.46181,1.09843 -6.8563,2.25118 -10.1976,3.44528l216.76 70.0548 246.131 -87.9757 0.562205 -78.8634 -104.406 -31.3488 -0.418111 0.148819zm103.07 277.2l0.550394 -77.2335 -114.144 40.5213 113.594 36.7122z" id="_305705320"/><polygon class="fil5" id="_305705536" points="825.687,1081.17 720.79,1118.66 825.196,1150.01 "/><path class="fil6" d="M822.39 1543.36l255.333 75.9945 1.7752 -945.392c-1.23071,-81.7465 100.215,-52.6595 92.3422,24.7429l0 391.401c121.054,91.2957 295.109,2.5441 288.697,-178.237 1.30394,-187.61 -61.4339,-315.468 -267.064,-375.738l-363.133 -107.478 -7.95119 1114.71z" id="_305705776"/></g></g><rect class="fil7" height="2048" width="2048"/></svg>