<svg version="1.1" xmlns="http://www.w3.org/2000/svg" xmlns:xlink="http://www.w3.org/1999/xlink" x="0px" y="0px"
	 viewBox="0 0 72 72" style="enable-background:new 0 0 72 72;" xml:space="preserve">
<path fill="#003087" d="M72,64c0,4.4-3.6,8-8,8H8c-4.4,0-8-3.6-8-8V8c0-4.4,3.6-8,8-8h56c4.4,0,8,3.6,8,8V64z"/>
<g>
	<g>
		<path fill="#FFFFFF" d="M18.4,43l-1.5,0.6c-2.3,1-3.5,2-3.4,2.9c0.1,1.3,1.6,2.3,4.3,3c3.5,0.9,7,1.1,10.7,0.6v-3.7l0,0l-2.9,1.1
			c-3,1.1-4.6,0.2-4.6,0.2c-0.5-0.3-0.7-1,0.6-1.5l1.6-0.6l5.3-1.9v-4.3l-1.3,0.5L18.4,43z"/>
		<path fill="#FFFFFF" d="M40.6,28.2v10.9c2.3,1.1,4.3,1.2,5.8,0c1.6-1.1,2.4-3,2.4-5.9c0-3-0.6-5.3-1.9-6.8c-1.2-1.6-3.3-3-6.4-4
			c-3.9-1.3-7.2-2.4-9.8-2.9v32.7l7,2.2V27.3C37.7,25.6,40.6,25.7,40.6,28.2z"/>
		<path fill="#FFFFFF" d="M58.5,45.1c0-1.1-1.4-2-3.8-2.8c-2.7-0.9-5-1.3-7.5-1.2c-2.3,0-5.1,0.8-7.6,1.6v4.2l6.8-2.4
			c0,0,2.1-0.8,3.8-0.3c1.3,0.3,1.3,1.1-0.1,1.6l-1.6,0.6l-9,3.2v4.3l4.2-1.5l10.1-3.6l1.2-0.5C57.5,47.2,58.6,46.3,58.5,45.1z"/>
	</g>
</g>
</svg>