<?xml version="1.0" encoding="utf-8"?>
<svg version="1.1" id="skype" xmlns="http://www.w3.org/2000/svg" xmlns:xlink="http://www.w3.org/1999/xlink" x="0px" y="0px"
	 viewBox="0 0 72 72" enable-background="new 0 0 72 72" xml:space="preserve">
<path fill="#00AFF0" d="M72,64c0,4.4-3.6,8-8,8H8c-4.4,0-8-3.6-8-8V8c0-4.4,3.6-8,8-8h56c4.4,0,8,3.6,8,8V64z"/>
<path fill="#FFFFFF" d="M57.9,42.3c-0.5-1.3-0.5-1.5-0.3-3.7c0.4-4.2-0.2-7.8-1.9-11.3c-2.7-5.8-7.9-9.9-14.3-11.6
	c-1.4-0.4-2.5-0.5-5.4-0.5c-3.1,0-3.6-0.1-4.5-0.5c-1.2-0.6-3.3-1.1-5.1-1.1c-8.5,0-14.5,8.4-11.6,16.4c0.5,1.6,0.6,1.9,0.6,5.9
	c0,3.6,0.1,4.5,0.5,6c2.3,8.1,8.8,14,16.9,15.4c1.5,0.2,2.6,0.3,4.8,0.2c2.2-0.1,2.9-0.1,3.5,0.2c0.5,0.2,1.4,0.4,2,0.6v0h0.1
	c1.5,0.4,4,0.4,5.5,0.1c1.5-0.4,4-1.5,5.2-2.5C58,52.5,59.5,47,57.9,42.3z M47.9,45.2c-1.1,2.4-4.1,4.5-7.4,5.2l0,0h0.1
	c-1.9,0.4-6.4,0.4-8.4,0c-3.3-0.7-6-2.5-7.3-5.3c-1.5-3.1-0.5-5.6,2.4-5.6c1.3,0,2.1,0.7,3.1,2.6c1.4,2.8,2.6,3.6,5.4,3.9
	c2.3,0.1,4.2-0.4,5.4-1.6c0.8-0.8,0.9-1,0.9-2c0-0.9-0.2-1.3-0.6-1.8c-0.9-1-1.9-1.5-5.8-2.4c-5.5-1.3-7-1.9-8.8-3.6
	c-1.7-1.5-2-2.3-2-5c0-2.5,0.3-3.4,1.9-5.1c2-2,5.1-2.9,9.5-2.9c4.3,0,6.8,0.8,9.1,2.7c2.4,2.1,2.6,5.8,0.4,6.9
	c-1.7,0.8-3,0.3-4.4-1.7c-1.7-2.7-3-3.4-6-3.2c-2,0.1-3.5,0.7-4.2,1.7c-0.6,0.9-0.5,1.5,0.2,2.3c0.8,0.9,1.7,1.3,5.6,2.2
	c5.8,1.4,8.2,2.4,9.8,4.3C48.9,38.8,49.4,42.3,47.9,45.2z"/>
</svg>
