<svg version="1.1" xmlns="http://www.w3.org/2000/svg" xmlns:xlink="http://www.w3.org/1999/xlink" x="0px" y="0px"
	 viewBox="0 0 72 72" style="enable-background:new 0 0 72 72;" xml:space="preserve">
<path fill="#00AFF0" d="M72,64c0,4.4-3.6,8-8,8H8c-4.4,0-8-3.6-8-8V8c0-4.4,3.6-8,8-8h56c4.4,0,8,3.6,8,8V64z"/>
<g>
	<path fill="#FFFFFF" d="M54.3,38.4c0.6,0.8,1,1.7,1.3,2.6C55.8,42,56,43,56,44c0,1.5-0.3,2.8-0.9,4.1c-0.6,1.3-1.4,2.4-2.4,3.4
		c-1,1-2.2,1.7-3.6,2.3c-1.4,0.6-2.8,0.8-4.3,0.8c-2.2,0-4.1-0.5-5.9-1.5c-0.5,0.1-1,0.1-1.5,0.2c-0.5,0-1,0-1.5,0
		c-2.5,0-4.9-0.5-7.2-1.4c-2.2-0.9-4.2-2.2-5.9-3.7c-1.7-1.6-3-3.4-4-5.6c-1-2.1-1.4-4.4-1.4-6.8c0-0.5,0-0.9,0.1-1.3
		c0-0.4,0.1-0.8,0.2-1.3c-1.2-1.7-1.8-3.4-1.8-5.4c0-1.4,0.3-2.8,0.9-4c0.6-1.3,1.4-2.4,2.4-3.3c1-0.9,2.2-1.7,3.6-2.2
		c1.4-0.5,2.8-0.8,4.3-0.8c1.1,0,2.1,0.1,3.1,0.4c1,0.3,1.9,0.6,2.8,1.1c0.5-0.1,1-0.1,1.5-0.2c0.5,0,1,0,1.5,0c2.6,0,5,0.4,7.2,1.3
		c2.2,0.9,4.2,2.1,5.9,3.6c1.7,1.6,3,3.3,4,5.4c1,2,1.4,4.2,1.4,6.6C54.5,36.6,54.4,37.5,54.3,38.4z M44.8,43.7
		c0.8-1,1.2-2.3,1.2-3.7c0-1.1-0.2-2-0.7-2.8c-0.5-0.7-1.1-1.4-1.9-1.9c-0.8-0.5-1.7-0.9-2.9-1.3c-1.2-0.3-2.5-0.6-3.8-0.9l-1.5-0.3
		c-0.4-0.1-0.7-0.2-1-0.2c-0.3-0.1-0.5-0.1-0.7-0.2c-0.2-0.1-0.5-0.2-0.7-0.3c-0.5-0.2-0.8-0.4-1.1-0.7c-0.2-0.3-0.3-0.6-0.3-1
		c0-0.6,0.4-1.2,1.1-1.7c0.9-0.5,1.9-0.7,3.1-0.7c1.4,0,2.4,0.2,3,0.6c0.7,0.5,1.2,1.1,1.6,1.8c0.3,0.5,0.7,0.9,1,1.2
		c0.3,0.3,0.8,0.4,1.4,0.4c0.7,0,1.2-0.2,1.7-0.7c0.4-0.4,0.7-0.9,0.6-1.4c0-0.6-0.2-1.2-0.5-1.8c-0.3-0.5-0.9-1.1-1.6-1.7
		c-0.4-0.3-0.8-0.5-1.3-0.7c-0.5-0.2-1-0.4-1.5-0.6c-0.6-0.2-1.2-0.3-1.9-0.4c-0.7-0.1-1.4-0.1-2.1-0.1c-2,0-3.7,0.2-5,0.7
		c-1.5,0.5-2.6,1.2-3.3,2.1c-0.8,0.9-1.1,1.9-1.1,3.1c0,1.3,0.4,2.3,1.1,3.1c0.7,0.9,1.7,1.5,2.9,1.9c1.2,0.5,2.7,0.9,4.5,1.2
		c0.7,0.2,1.3,0.3,1.8,0.4c0.5,0.1,1,0.2,1.4,0.3c0.8,0.2,1.4,0.6,1.9,1.1c0.5,0.4,0.8,1,0.8,1.7c0,1-0.5,1.8-1.4,2.4
		c-0.9,0.6-2.1,0.9-3.6,0.9c-1.2,0-2.1-0.1-2.6-0.4c-0.7-0.3-1.2-0.7-1.5-1.2c-0.4-0.5-0.8-1.1-1-1.8c-0.2-0.6-0.6-1.1-1-1.4
		c-0.4-0.3-0.8-0.5-1.4-0.5c-0.7,0-1.2,0.2-1.7,0.6C26.2,39.5,26,40,26,40.6c0,1,0.4,2,1.1,2.9c0.7,1,1.6,1.8,2.7,2.4
		c1.6,0.8,3.7,1.3,6.1,1.3c2,0,3.8-0.3,5.4-0.9C42.9,45.6,44,44.7,44.8,43.7z"/>
</g>
</svg>