<svg xmlns="http://www.w3.org/2000/svg" viewBox="0 0 72 72"><path fill="#0078d7" d="M72.1 64.1c0 4.4-3.6 8-8 8h-56c-4.4 0-8-3.6-8-8v-56c0-4.4 3.6-8 8-8h56c4.4 0 8 3.6 8 8v56z"/><path fill="#fff" d="M57.8 42.2c-.5-1.3-.5-1.5-.3-3.7.4-4.2-.2-7.8-1.9-11.3-2.7-5.8-7.9-9.9-14.3-11.6-1.4-.4-2.5-.5-5.4-.5-3.1 0-3.6-.1-4.5-.5-1.2-.6-3.3-1.1-5.1-1.1-8.5 0-14.5 8.4-11.6 16.4.5 1.6.6 1.9.6 5.9 0 3.6.1 4.5.5 6 2.3 8.1 8.8 14 16.9 15.4 1.5.2 2.6.3 4.8.2s2.9-.1 3.5.2c.5.2 1.4.4 2 .6h.1c1.5.4 4 .4 5.5.1 1.5-.4 4-1.5 5.2-2.5 4.1-3.4 5.6-8.9 4-13.6zm-10 2.9c-1.1 2.4-4.1 4.5-7.4 5.2h.1c-1.9.4-6.4.4-8.4 0-3.3-.7-6-2.5-7.3-5.3-1.5-3.1-.5-5.6 2.4-5.6 1.3 0 2.1.7 3.1 2.6 1.4 2.8 2.6 3.6 5.4 3.9 2.3.1 4.2-.4 5.4-1.6.8-.8.9-1 .9-2 0-.9-.2-1.3-.6-1.8-.9-1-1.9-1.5-5.8-2.4-5.5-1.3-7-1.9-8.8-3.6-1.7-1.5-2-2.3-2-5 0-2.5.3-3.4 1.9-5.1 2-2 5.1-2.9 9.5-2.9 4.3 0 6.8.8 9.1 2.7 2.4 2.1 2.6 5.8.4 6.9-1.7.8-3 .3-4.4-1.7-1.7-2.7-3-3.4-6-3.2-2 .1-3.5.7-4.2 1.7-.6.9-.5 1.5.2 2.3.8.9 1.7 1.3 5.6 2.2 5.8 1.4 8.2 2.4 9.8 4.3 2.1 2 2.6 5.5 1.1 8.4z"/></svg>