<svg xmlns="http://www.w3.org/2000/svg" viewBox="0 0 72 72"><path d="M72,64c0,4.4-3.6,8-8,8H8c-4.4,0-8-3.6-8-8V8c0-4.4,3.6-8,8-8h56c4.4,0,8,3.6,8,8V64z"/><path fill="#fff" d="M55.3 30.2c0 2.3-1.9 4.1-4.1 4.1-2.3 0-4.1-1.9-4.1-4.1s1.9-4.1 4.1-4.1 4.1 1.9 4.1 4.1zm-1.7 7.1l-5 4.3c.1.4.1.7.1 1.1a6.7 6.7 0 0 1-6.7 6.7c-3.2 0-5.9-2.3-6.5-5.1L22.9 40c-1 .7-2.3 1.2-3.5 1.2-3.2 0-5.9-2.6-5.9-5.9s2.6-5.9 5.9-5.9c2.8 0 5.1 1.9 5.7 4.5L37.2 38c1.2-1.2 2.8-1.9 4.6-2l1.8-5.5v-.4c0-4.1 3.3-7.5 7.5-7.5s7.5 3.3 7.5 7.5c-.1 3.4-2.1 6.2-5 7.2zm-30.5-4.1c-.7-1.3-2.1-2.1-3.6-2.1-2.3 0-4.1 1.8-4.1 4.1s1.8 4.1 4.1 4.1c.5 0 .8-.1 1.2-.2l-2-.6c-1.5-.8-2.2-2.8-1.4-4.3s2.8-2.2 4.4-1.4l1.4.4zm22.2-3c0 3.2 2.6 5.9 5.9 5.9s5.9-2.6 5.9-5.9c0-3.2-2.6-5.9-5.9-5.9-3.3.2-5.9 2.7-5.9 5.9zm.1 13c0-2.4-2-4.4-4.4-4.4-.4 0-.7 0-1 .1l2.5.8c1.5.8 2.2 2.8 1.4 4.3s-2.8 2.2-4.4 1.4l-2.7-.9c.5 1.8 2.3 3.2 4.2 3.2 2.4-.1 4.4-2.1 4.4-4.5z"/></svg>