<svg version="1.1" xmlns="http://www.w3.org/2000/svg" xmlns:xlink="http://www.w3.org/1999/xlink" x="0px" y="0px"
	 viewBox="0 0 72 72" style="enable-background:new 0 0 72 72;" xml:space="preserve">
<path d="M72,64c0,4.4-3.6,8-8,8H8c-4.4,0-8-3.6-8-8V8c0-4.4,3.6-8,8-8h56c4.4,0,8,3.6,8,8V64z"/>
<g>
	<path fill="#FFFFFF" d="M57.3,29.6c0,2.5-2.1,4.6-4.6,4.6c-2.6,0-4.6-2.1-4.6-4.6s2.1-4.6,4.6-4.6
		C55.2,25,57.3,27.1,57.3,29.6z M55.4,37.4l-5.6,4.8c0.1,0.4,0.1,0.8,0.1,1.2c0,4.1-3.3,7.4-7.4,7.4c-3.5,0-6.5-2.5-7.2-5.7
		l-13.9-4.7c-1.1,0.8-2.5,1.3-3.9,1.3c-3.6,0-6.5-2.9-6.5-6.5c0-3.6,2.9-6.5,6.5-6.5c3.1,0,5.7,2.1,6.3,5l13.4,4.5
		c1.3-1.3,3.1-2.1,5.1-2.2l2-6.1c0-0.1,0-0.2,0-0.4c0-4.6,3.7-8.3,8.3-8.3c4.6,0,8.3,3.7,8.3,8.3C61,33.2,58.7,36.3,55.4,37.4z
		 M21.6,32.9c-0.8-1.4-2.3-2.3-4-2.3c-2.5,0-4.6,2-4.6,4.5s2,4.5,4.6,4.5c0.5,0,0.9-0.1,1.3-0.2l-2.2-0.7c-1.7-0.9-2.4-3.1-1.5-4.8
		c0.9-1.7,3.1-2.4,4.9-1.5L21.6,32.9z M46.2,29.6c0,3.6,2.9,6.5,6.5,6.5s6.5-2.9,6.5-6.5c0-3.6-2.9-6.5-6.5-6.5
		C49.1,23.2,46.2,26,46.2,29.6z M46.3,44c0-2.7-2.2-4.9-4.9-4.9c-0.4,0-0.8,0-1.1,0.1l2.8,0.9c1.7,0.9,2.4,3.1,1.5,4.8
		c-0.9,1.7-3.1,2.4-4.9,1.5l-3-1c0.6,2,2.5,3.5,4.7,3.5C44.1,48.9,46.3,46.7,46.3,44z"/>
</g>
</svg>