<?xml version="1.0" encoding="utf-8"?>
<svg version="1.1" id="steam" xmlns="http://www.w3.org/2000/svg" xmlns:xlink="http://www.w3.org/1999/xlink" x="0px" y="0px"
	 viewBox="0 0 72 72" enable-background="new 0 0 72 72" xml:space="preserve">
<path d="M72,64c0,4.4-3.6,8-8,8H8c-4.4,0-8-3.6-8-8V8c0-4.4,3.6-8,8-8h56c4.4,0,8,3.6,8,8V64z"/>
<path fill="#FFFFFF" d="M55.2,30.2c0,2.3-1.9,4.1-4.1,4.1c-2.3,0-4.1-1.9-4.1-4.1s1.9-4.1,4.1-4.1S55.2,28,55.2,30.2z M53.5,37.3
	l-5,4.3c0.1,0.4,0.1,0.7,0.1,1.1c0,3.7-3,6.7-6.7,6.7c-3.2,0-5.9-2.3-6.5-5.1L22.8,40c-1,0.7-2.3,1.2-3.5,1.2
	c-3.2,0-5.9-2.6-5.9-5.9s2.6-5.9,5.9-5.9c2.8,0,5.1,1.9,5.7,4.5L37.1,38c1.2-1.2,2.8-1.9,4.6-2l1.8-5.5c0-0.1,0-0.2,0-0.4
	c0-4.1,3.3-7.5,7.5-7.5s7.5,3.3,7.5,7.5C58.5,33.5,56.5,36.3,53.5,37.3z M23,33.2c-0.7-1.3-2.1-2.1-3.6-2.1c-2.3,0-4.1,1.8-4.1,4.1
	s1.8,4.1,4.1,4.1c0.5,0,0.8-0.1,1.2-0.2l-2-0.6c-1.5-0.8-2.2-2.8-1.4-4.3c0.8-1.5,2.8-2.2,4.4-1.4L23,33.2z M45.2,30.2
	c0,3.2,2.6,5.9,5.9,5.9s5.9-2.6,5.9-5.9c0-3.2-2.6-5.9-5.9-5.9C47.8,24.5,45.2,27,45.2,30.2z M45.3,43.2c0-2.4-2-4.4-4.4-4.4
	c-0.4,0-0.7,0-1,0.1l2.5,0.8c1.5,0.8,2.2,2.8,1.4,4.3s-2.8,2.2-4.4,1.4l-2.7-0.9c0.5,1.8,2.3,3.2,4.2,3.2
	C43.3,47.6,45.3,45.6,45.3,43.2z"/>
</svg>
