<svg baseProfile="tiny" xmlns="http://www.w3.org/2000/svg" viewBox="0 0 72 72">
    <path fill="#1DA1F2"
          d="M72 64c0 4.418-3.582 8-8 8h-56c-4.418 0-8-3.582-8-8v-56c0-4.418 3.582-8 8-8h56c4.418 0 8 3.582 8 8v56z"/>
    <path fill="#FFFFFF"
          d="M55.84 19.564c-1.665.988-3.508 1.705-5.472 2.091-1.571-1.676-3.811-2.722-6.289-2.722-4.758 0-8.618 3.858-8.617 8.618 0 .675.077 1.332.225 1.964-7.162-.36-13.512-3.791-17.762-9.004-.742 1.271-1.167 2.753-1.167 4.332 0 2.99 1.521 5.628 3.833 7.173-1.412-.045-2.741-.433-3.904-1.079v.108c0 4.175 2.97 7.657 6.912 8.449-.724.197-1.484.303-2.271.303-.556 0-1.095-.055-1.622-.155 1.097 3.423 4.28 5.915 8.051 5.984-2.951 2.311-6.665 3.689-10.702 3.689-.695 0-1.382-.041-2.056-.12 3.814 2.445 8.343 3.871 13.209 3.871 15.85 0 24.517-13.13 24.517-24.517 0-.372-.009-.744-.025-1.114 1.683-1.215 3.145-2.733 4.299-4.46-1.545.685-3.206 1.148-4.949 1.357 1.78-1.066 3.148-2.755 3.79-4.768z"/>
</svg>