<svg xmlns="http://www.w3.org/2000/svg" viewBox="0 0 72 72"><path fill="#1da1f2" d="M72,64c0,4.4-3.6,8-8,8H8c-4.4,0-8-3.6-8-8V8c0-4.4,3.6-8,8-8h56c4.4,0,8,3.6,8,8V64z"/><path fill="#fff" d="M57.3 18.4c-1.8 1.1-3.8 1.8-5.9 2.2-1.7-1.8-4.1-2.9-6.7-2.9-5.1 0-9.2 4.1-9.2 9.2 0 .7.1 1.4.2 2.1a26.51 26.51 0 0 1-19-9.6c-.8 1.4-1.3 2.9-1.3 4.6 0 3.2 1.6 6 4.1 7.7-1.5 0-2.9-.5-4.2-1.2v.1c0 4.5 3.2 8.2 7.4 9.1-.8.2-1.6.3-2.4.3-.6 0-1.2-.1-1.7-.2 1.2 3.7 4.6 6.3 8.6 6.4-3.2 2.5-7.1 4-11.5 4-.7 0-1.5 0-2.2-.1 4.2 2.7 9.2 4.1 14.2 4.1 17 0 26.3-14.1 26.3-26.3v-1.2c1.8-1.3 3.4-2.9 4.6-4.8-1.7.7-3.4 1.2-5.3 1.5 1.7-1 3.2-2.9 4-5z"/></svg>