<svg version="1.1" xmlns="http://www.w3.org/2000/svg" xmlns:xlink="http://www.w3.org/1999/xlink" x="0px" y="0px"
	 viewBox="0 0 72 72" style="enable-background:new 0 0 72 72;" xml:space="preserve">
<path fill="#1AB7EA" d="M72,64c0,4.4-3.6,8-8,8H8c-4.4,0-8-3.6-8-8V8c0-4.4,3.6-8,8-8h56c4.4,0,8,3.6,8,8V64z"/>
<g>
	<path fill="#FFFFFF" d="M51.9,18.9c4.4,0.1,6.5,2.6,6.6,7.4c0,0.3,0,0.6,0,1c-0.2,4.1-3.2,9.7-9.2,16.8C43.2,51.4,38,55.1,33.8,55.1
		c-2.6,0-4.8-2.3-6.6-6.8l-1.9-6.2l-1.8-6.2c-1.3-4.5-2.8-6.7-4.3-6.7c-0.3,0-1.5,0.7-3.5,2l-2.1-2.5l3.3-2.8l3.3-2.7
		c2.9-2.3,5.1-3.6,6.7-3.8c0.2,0,0.4,0,0.6,0c3.1,0,5.1,2.2,5.8,6.7c0.4,2.6,0.8,4.6,1.1,6.3c0.3,1.6,0.5,2.7,0.7,3.4
		c1,4.3,2.1,6.4,3.3,6.4c0.9,0,2.3-1.4,4.2-4.2c1.9-2.8,2.9-5,3-6.3c0-0.3,0.1-0.5,0.1-0.8c0-1.9-1-2.8-3.1-2.8
		c-1,0-2.1,0.2-3.3,0.6c2.1-6.5,6.2-9.8,12.2-9.8C51.6,18.9,51.8,18.9,51.9,18.9z"/>
</g>
</svg>