<svg version="1.1"  xmlns="http://www.w3.org/2000/svg" xmlns:xlink="http://www.w3.org/1999/xlink" x="0px" y="0px"
	 viewBox="0 0 72 72" style="enable-background:new 0 0 72 72;" xml:space="preserve">
<path fill="#45668E" d="M72,64c0,4.4-3.6,8-8,8H8c-4.4,0-8-3.6-8-8V8c0-4.4,3.6-8,8-8h56c4.4,0,8,3.6,8,8V64z"/>
<g>
	<path fill="#FFFFFF" d="M56.3,46.4c-0.1-0.1-0.1-0.2-0.2-0.3c-0.8-1.4-2.3-3.1-4.5-5.2l0,0l0,0l0,0h0c-1-1-1.6-1.6-1.9-1.9
		c-0.5-0.6-0.6-1.3-0.3-1.9c0.2-0.5,0.9-1.5,2.1-3.1c0.6-0.8,1.1-1.5,1.5-2c2.7-3.6,3.9-5.9,3.5-6.9l-0.1-0.2
		c-0.1-0.1-0.3-0.3-0.7-0.4c-0.4-0.1-0.9-0.1-1.5-0.1l-6.7,0c-0.1,0-0.3,0-0.5,0c-0.2,0-0.3,0.1-0.3,0.1l-0.1,0.1l-0.1,0.1
		c-0.1,0-0.2,0.1-0.3,0.2c-0.1,0.1-0.2,0.3-0.2,0.4c-0.7,1.9-1.6,3.6-2.5,5.3c-0.6,1-1.1,1.8-1.6,2.5c-0.5,0.7-0.9,1.2-1.2,1.6
		c-0.3,0.3-0.6,0.6-0.9,0.8c-0.3,0.2-0.5,0.3-0.6,0.3c-0.1,0-0.3-0.1-0.4-0.1c-0.2-0.1-0.4-0.3-0.5-0.6c-0.1-0.2-0.2-0.5-0.3-0.9
		c0-0.4-0.1-0.7-0.1-0.9c0-0.3,0-0.6,0-1.1c0-0.5,0-0.8,0-1c0-0.6,0-1.2,0-1.9c0-0.7,0-1.2,0.1-1.7c0-0.4,0-0.8,0-1.3
		c0-0.5,0-0.8-0.1-1.1c-0.1-0.3-0.1-0.5-0.2-0.7c-0.1-0.2-0.3-0.4-0.5-0.6c-0.2-0.1-0.5-0.2-0.8-0.3c-0.8-0.2-1.9-0.3-3.2-0.3
		c-2.9,0-4.8,0.2-5.6,0.6c-0.3,0.2-0.6,0.4-0.9,0.7c-0.3,0.3-0.3,0.5-0.1,0.6c0.9,0.1,1.6,0.5,2,1l0.1,0.3c0.1,0.2,0.2,0.6,0.3,1.1
		c0.1,0.5,0.2,1.1,0.2,1.7c0.1,1.1,0.1,2.1,0,2.9c-0.1,0.8-0.2,1.4-0.2,1.9s-0.2,0.8-0.3,1.1c-0.1,0.3-0.2,0.5-0.3,0.5
		c0,0.1-0.1,0.1-0.1,0.1c-0.2,0.1-0.4,0.1-0.6,0.1c-0.2,0-0.5-0.1-0.8-0.3c-0.3-0.2-0.6-0.5-1-0.9c-0.3-0.4-0.7-0.9-1.1-1.6
		c-0.4-0.7-0.9-1.5-1.3-2.4l-0.4-0.7c-0.2-0.4-0.6-1.1-1-1.9c-0.4-0.8-0.8-1.6-1.1-2.4c-0.1-0.3-0.3-0.6-0.6-0.7l-0.1-0.1
		c-0.1-0.1-0.2-0.1-0.4-0.2c-0.2-0.1-0.4-0.1-0.5-0.2l-6.4,0c-0.7,0-1.1,0.1-1.3,0.4l-0.1,0.1c0,0.1-0.1,0.2-0.1,0.4
		c0,0.2,0,0.4,0.1,0.6c0.9,2.2,2,4.3,3.1,6.4c1.1,2,2.1,3.7,2.9,4.9c0.8,1.2,1.6,2.4,2.5,3.5c0.8,1.1,1.4,1.8,1.7,2.1
		c0.3,0.3,0.5,0.5,0.6,0.7l0.6,0.6c0.4,0.4,0.9,0.8,1.7,1.3c0.7,0.5,1.5,1,2.4,1.5c0.9,0.5,1.9,0.9,3.1,1.2c1.2,0.3,2.3,0.4,3.4,0.4
		h2.7c0.5,0,1-0.2,1.2-0.5l0.1-0.1c0.1-0.1,0.1-0.2,0.2-0.4c0.1-0.2,0.1-0.4,0.1-0.6c0-0.7,0-1.3,0.2-1.8c0.1-0.5,0.2-0.9,0.4-1.2
		c0.1-0.3,0.3-0.5,0.5-0.7c0.2-0.2,0.3-0.3,0.4-0.3c0.1,0,0.1-0.1,0.2-0.1c0.4-0.1,0.8,0,1.3,0.4c0.5,0.4,1,0.8,1.4,1.4
		c0.4,0.5,1,1.1,1.6,1.8c0.6,0.7,1.2,1.2,1.6,1.5l0.5,0.3c0.3,0.2,0.7,0.4,1.2,0.5c0.5,0.2,0.9,0.2,1.3,0.1l6-0.1
		c0.6,0,1.1-0.1,1.4-0.3c0.3-0.2,0.5-0.4,0.6-0.6c0.1-0.2,0.1-0.5,0-0.8C56.4,46.7,56.3,46.5,56.3,46.4z"/>
</g>
</svg>