<?xml version="1.0" encoding="UTF-8" standalone="no"?>
<!-- Created with Inkscape (http://www.inkscape.org/) -->

<svg
   xmlns:dc="http://purl.org/dc/elements/1.1/"
   xmlns:cc="http://creativecommons.org/ns#"
   xmlns:rdf="http://www.w3.org/1999/02/22-rdf-syntax-ns#"
   xmlns:svg="http://www.w3.org/2000/svg"
   xmlns="http://www.w3.org/2000/svg"
   xmlns:sodipodi="http://sodipodi.sourceforge.net/DTD/sodipodi-0.dtd"
   xmlns:inkscape="http://www.inkscape.org/namespaces/inkscape"
   width="100mm"
   height="100mm"
   viewBox="0 0 100 100"
   version="1.1"
   id="svg8"
   inkscape:version="0.92.1 r15371"
   sodipodi:docname="vk.svg">
  <defs
     id="defs2" />
  <sodipodi:namedview
     id="base"
     pagecolor="#ffffff"
     bordercolor="#666666"
     borderopacity="1.0"
     inkscape:pageopacity="0.0"
     inkscape:pageshadow="2"
     inkscape:zoom="1.4"
     inkscape:cx="31.349507"
     inkscape:cy="233.86568"
     inkscape:document-units="mm"
     inkscape:current-layer="layer1"
     showgrid="false"
     inkscape:window-width="1920"
     inkscape:window-height="1017"
     inkscape:window-x="-8"
     inkscape:window-y="-8"
     inkscape:window-maximized="1" />
  <metadata
     id="metadata5">
    <rdf:RDF>
      <cc:Work
         rdf:about="">
        <dc:format>image/svg+xml</dc:format>
        <dc:type
           rdf:resource="http://purl.org/dc/dcmitype/StillImage" />
        <dc:title></dc:title>
      </cc:Work>
    </rdf:RDF>
  </metadata>
  <g
     inkscape:label="Layer 1"
     inkscape:groupmode="layer"
     id="layer1"
     transform="translate(0,-197)">
    <g
       id="g4607"
       transform="matrix(0.82962353,0,0,0.82962353,-159.70524,74.214233)">
      <path
         id="path3680"
         d="m 313.03987,255.14546 c 0,7.39626 -5.99672,13.39293 -13.39299,13.39293 h -93.75066 c -7.39626,0 -13.39295,-5.99667 -13.39295,-13.39293 v -93.75072 c 0,-7.39625 5.99669,-13.39295 13.39295,-13.39295 h 93.75066 c 7.39627,0 13.39299,5.9967 13.39299,13.39295 z"
         inkscape:connector-curvature="0"
         style="fill:#44678d;fill-opacity:1;stroke-width:1.67411959" />
      <path
         inkscape:connector-curvature="0"
         style="fill:#ffffff;stroke-width:0.26458332"
         d="m 223.81337,184.77023 c 2.88978,7.13634 6.55214,13.8647 11.37576,19.90487 0.63976,0.8038 1.44621,1.51844 2.29579,2.10026 1.24089,0.85223 2.41167,0.55272 2.91624,-0.86677 0.53366,-1.48961 1.0234,-4.5085 1.05251,-6.07272 0.0796,-4.08728 -0.0119,-6.76592 -0.23151,-10.84818 -0.14235,-2.61461 -1.07183,-4.9104 -4.91781,-5.60335 -1.18772,-0.21484 -1.29805,-1.19247 -0.53499,-2.16773 1.58856,-2.03041 3.80153,-2.35399 6.2013,-2.48205 3.88938,-0.21008 7.79304,-0.0386 11.68718,0 1.58618,0.0146 3.18188,0.14234 4.74398,0.48286 2.03755,0.44424 3.1287,1.87352 3.46445,3.86265 0.17383,1.02606 0.26326,2.08095 0.23892,3.11918 -0.10134,4.4614 -0.31618,8.92042 -0.36698,13.37945 -0.0217,1.75022 0.1061,3.54409 0.48049,5.24854 0.52387,2.37543 2.14127,2.9718 3.79518,1.25544 2.10026,-2.1799 3.95208,-4.63285 5.69013,-7.12417 3.1578,-4.53152 5.5163,-9.50462 7.54671,-14.63225 1.05013,-2.64583 1.8542,-3.22051 4.70032,-3.22765 5.34988,-0.0122 10.69975,-0.0169 16.04963,0 0.94879,0.005 1.94098,0.0942 2.83659,0.37915 1.45336,0.46355 2.03042,1.64888 1.6899,3.15304 -0.79428,3.52478 -2.69902,6.52065 -4.73895,9.40091 -3.27369,4.62068 -6.70428,9.1305 -10.05496,13.69801 -0.42731,0.58181 -0.80381,1.20226 -1.15412,1.83223 -1.25306,2.26457 -1.16601,3.53431 0.66146,5.41973 2.9091,3.0009 6.02351,5.8084 8.84079,8.89132 2.04735,2.24288 3.94229,4.67625 5.56472,7.23768 2.0521,3.23982 0.78449,6.29126 -3.04906,6.83445 -2.41168,0.34052 -14.19252,0.003 -14.80132,0 -3.16733,-0.0143 -5.9436,-1.11284 -8.17933,-3.2639 -2.48656,-2.39474 -4.74636,-5.02153 -7.13396,-7.52025 -0.7194,-0.75327 -1.48723,-1.47505 -2.31511,-2.10529 -1.95315,-1.4896 -3.87006,-1.15888 -4.7826,1.1348 -0.77973,1.97009 -1.45336,7.14348 -1.48485,7.58534 -0.16404,2.31034 -1.63433,3.78301 -4.22248,3.92536 -7.47183,0.4056 -14.71216,-0.42731 -21.45718,-4.04125 -5.71685,-3.06123 -10.28197,-7.38981 -14.23644,-12.4378 -6.28173,-8.01793 -11.24346,-16.83147 -15.7734,-25.90376 -0.23151,-0.46382 -4.81965,-10.22694 -4.94294,-10.68811 -0.40984,-1.54411 -0.0275,-3.01916 1.27714,-3.5269 0.81333,-0.31644 15.94062,-0.001 16.19224,0.0124 2.41379,0.1307 4.05976,1.14908 5.07656,3.65442 z"
         id="path3698" />
    </g>
    <g
       id="g3702"
       transform="matrix(0.26458333,0,0,0.26458333,192.57666,148.07517)" />
    <g
       id="g3704"
       transform="matrix(0.26458333,0,0,0.26458333,192.57666,148.07517)" />
    <g
       id="g3706"
       transform="matrix(0.26458333,0,0,0.26458333,192.57666,148.07517)" />
    <g
       id="g3708"
       transform="matrix(0.26458333,0,0,0.26458333,192.57666,148.07517)" />
    <g
       id="g3710"
       transform="matrix(0.26458333,0,0,0.26458333,192.57666,148.07517)" />
    <g
       id="g3712"
       transform="matrix(0.26458333,0,0,0.26458333,192.57666,148.07517)" />
    <g
       id="g3714"
       transform="matrix(0.26458333,0,0,0.26458333,192.57666,148.07517)" />
    <g
       id="g3716"
       transform="matrix(0.26458333,0,0,0.26458333,192.57666,148.07517)" />
    <g
       id="g3718"
       transform="matrix(0.26458333,0,0,0.26458333,192.57666,148.07517)" />
    <g
       id="g3720"
       transform="matrix(0.26458333,0,0,0.26458333,192.57666,148.07517)" />
    <g
       id="g3722"
       transform="matrix(0.26458333,0,0,0.26458333,192.57666,148.07517)" />
    <g
       id="g3724"
       transform="matrix(0.26458333,0,0,0.26458333,192.57666,148.07517)" />
    <g
       id="g3726"
       transform="matrix(0.26458333,0,0,0.26458333,192.57666,148.07517)" />
    <g
       id="g3728"
       transform="matrix(0.26458333,0,0,0.26458333,192.57666,148.07517)" />
    <g
       id="g3730"
       transform="matrix(0.26458333,0,0,0.26458333,192.57666,148.07517)" />
  </g>
</svg>
