<?xml version="1.0" ?><!DOCTYPE svg  PUBLIC '-//W3C//DTD SVG 1.1//EN'
        'http://www.w3.org/Graphics/SVG/1.1/DTD/svg11.dtd'>
<svg height="1.04167in" style="shape-rendering:geometricPrecision; text-rendering:geometricPrecision; image-rendering:optimizeQuality; fill-rule:evenodd; clip-rule:evenodd" version="1.1" viewBox="0 0 187 187" width="1.04167in" xml:space="preserve" xmlns="http://www.w3.org/2000/svg" xmlns:xlink="http://www.w3.org/1999/xlink"><defs><style type="text/css">
   <![CDATA[
    .fil1 {fill:#FEFEFE}
    .fil0 {fill:#009846}
   ]]>
  </style></defs><g id="Layer_x0020_1"><g id="_521245888"><rect class="fil0" height="187" rx="18" ry="18" width="187"/><g><path class="fil1" d="M95 146c-11,0 -22,-3 -31,-9l-21 7 7 -20c-6,-9 -10,-20 -10,-32 0,-2 0,-4 0,-5 3,-28 26,-50 55,-50 29,0 52,22 55,51 0,1 0,2 0,4 0,30 -25,54 -55,54zm65 -56c-1,-35 -30,-63 -65,-63 -35,0 -64,27 -66,62 0,1 0,2 0,3 0,12 4,24 10,33l-12 35 36 -11c9,5 20,8 32,8 36,0 65,-29 65,-65 0,-1 0,-1 0,-2z"/><path class="fil1" d="M125 105c-2,-1 -10,-5 -11,-5 -2,-1 -3,-1 -4,1 -1,1 -4,5 -5,6 -1,1 -2,1 -3,0 -2,-1 -7,-2 -13,-8 -5,-4 -8,-9 -9,-11 -1,-1 0,-2 0,-3 1,-1 2,-2 3,-3 0,0 0,0 0,-1 1,0 1,-1 1,-1 1,-2 1,-2 0,-3 0,-1 -3,-9 -5,-12 -1,-3 -2,-3 -3,-3 -1,0 -2,0 -3,0 -1,0 -3,1 -5,2 -1,2 -5,6 -5,13 0,2 0,4 1,6 1,5 5,10 5,11 1,1 11,18 28,24 16,6 16,4 19,4 3,0 10,-4 11,-8 1,-3 1,-7 1,-7 -1,-1 -2,-1 -3,-2z"/></g></g></g></svg>