<svg version="1.1" xmlns="http://www.w3.org/2000/svg" xmlns:xlink="http://www.w3.org/1999/xlink" x="0px" y="0px"
	 viewBox="0 0 72 72" style="enable-background:new 0 0 72 72;" xml:space="preserve">
<g>
	<path fill="#075E54" d="M6.9,0h58.1C68.9,0,72,3.1,72,6.9v58.1c0,3.8-3.1,6.9-6.9,6.9H6.9C3.1,72,0,68.9,0,65.1V6.9
		C0,3.1,3.1,0,6.9,0z"/>
	<g>
		<path fill="#FFFFFF" d="M36.6,56.2c-4.2,0-8.5-1.2-11.9-3.5l-8.1,2.7l2.7-7.7c-2.3-3.5-3.9-7.7-3.9-12.3c0-0.8,0-1.5,0-1.9
			c1.2-10.8,10-19.3,21.2-19.3s20,8.5,21.2,19.6c0,0.4,0,0.8,0,1.5C57.8,47,48.1,56.2,36.6,56.2z M61.6,34.7
			c-0.4-13.5-11.6-24.3-25-24.3S11.9,20.8,11.2,34.3c0,0.4,0,0.8,0,1.2c0,4.6,1.5,9.2,3.9,12.7l-4.6,13.5l13.9-4.2
			c3.5,1.9,7.7,3.1,12.3,3.1c13.9,0,25-11.2,25-25C61.6,35,61.6,35,61.6,34.7z"/>
		<path fill="#FFFFFF" d="M48.1,40.4c-0.8-0.4-3.9-1.9-4.2-1.9c-0.8-0.4-1.2-0.4-1.5,0.4c-0.4,0.4-1.5,1.9-1.9,2.3
			c-0.4,0.4-0.8,0.4-1.2,0c-0.8-0.4-2.7-0.8-5-3.1c-1.9-1.5-3.1-3.5-3.5-4.2c-0.4-0.4,0-0.8,0-1.2c0.4-0.4,0.8-0.8,1.2-1.2
			c0,0,0,0,0-0.4c0.4,0,0.4-0.4,0.4-0.4c0.4-0.8,0.4-0.8,0-1.2c0-0.4-1.2-3.5-1.9-4.6c-0.4-1.2-0.8-1.2-1.2-1.2s-0.8,0-1.2,0
			c-0.4,0-1.2,0.4-1.9,0.8c-0.4,0.8-1.9,2.3-1.9,5c0,0.8,0,1.5,0.4,2.3c0.4,1.9,1.9,3.9,1.9,4.2c0.4,0.4,4.2,6.9,10.8,9.2
			c6.2,2.3,6.2,1.5,7.3,1.5s3.9-1.5,4.2-3.1c0.4-1.2,0.4-2.7,0.4-2.7C48.9,40.8,48.5,40.8,48.1,40.4z"/>
	</g>
</g>
</svg>