<svg xmlns="http://www.w3.org/2000/svg" viewBox="0 0 72 72"><path fill="#25d366" d="M6.9,0H65c3.9,0,7,3.1,7,6.9V65c0,3.8-3.1,6.9-6.9,6.9H6.9C3.1,72,0,68.9,0,65.1V6.9C0,3.1,3.1,0,6.9,0z"/><path d="M36.5 53.7c-3.7 0-7.5-1.1-10.4-3.1L19 53l2.4-6.8c-2-3.1-3.4-6.8-3.4-10.8v-1.7c1.1-9.5 8.8-16.9 18.6-16.9S54.1 24.3 55.2 34v1.3c-.1 10.4-8.6 18.4-18.7 18.4zm22-18.8c-.4-11.9-10.2-21.3-22-21.3s-21.7 9.1-22.3 21v1.1c0 4 1.3 8.1 3.4 11.1l-4 11.8 12.2-3.7c3.1 1.7 6.8 2.7 10.8 2.7a21.83 21.83 0 0 0 21.9-21.9v-.8zm-11.9 5c-.7-.4-3.4-1.7-3.7-1.7-.7-.4-1.1-.4-1.3.4-.4.4-1.3 1.7-1.7 2-.4.4-.7.4-1.1 0-.7-.4-2.4-.7-4.4-2.7-1.7-1.3-2.7-3.1-3.1-3.7-.4-.4 0-.7 0-1.1l1.1-1.1v-.4c.4 0 .4-.4.4-.4.4-.7.4-.7 0-1.1 0-.4-1.1-3.1-1.7-4-.4-1.1-.7-1.1-1.1-1.1h-1.1c-.4 0-1.1.4-1.7.7-.4.7-1.7 2-1.7 4.4 0 .7 0 1.3.4 2 .4 1.7 1.7 3.4 1.7 3.7.4.4 3.7 6.1 9.5 8.1 5.4 2 5.4 1.3 6.4 1.3s3.4-1.3 3.7-2.7c.4-1.1.4-2.4.4-2.4-.3.1-.6.1-1-.2z" fill="#fff"/></svg>