<?xml version="1.0" encoding="utf-8"?>
<svg version="1.1" id="whatsapp" xmlns="http://www.w3.org/2000/svg" xmlns:xlink="http://www.w3.org/1999/xlink" x="0px" y="0px"
	 viewBox="0 0 72 72" enable-background="new 0 0 72 72" xml:space="preserve">
<path fill="#25D366" d="M6.9,0H65c3.9,0,7,3.1,7,6.9V65c0,3.8-3.1,6.9-6.9,6.9H6.9C3.1,72,0,68.9,0,65.1V6.9C0,3.1,3.1,0,6.9,0z"/>
<g>
	<path fill="#FFFFFF" d="M36.5,53.7c-3.7,0-7.5-1.1-10.4-3.1L19,53l2.4-6.8c-2-3.1-3.4-6.8-3.4-10.8c0-0.7,0-1.3,0-1.7
		c1.1-9.5,8.8-16.9,18.6-16.9s17.5,7.5,18.6,17.2c0,0.4,0,0.7,0,1.3C55.1,45.7,46.6,53.7,36.5,53.7z M58.5,34.9
		C58.1,23,48.3,13.6,36.5,13.6s-21.7,9.1-22.3,21c0,0.4,0,0.7,0,1.1c0,4,1.3,8.1,3.4,11.1l-4,11.8l12.2-3.7
		c3.1,1.7,6.8,2.7,10.8,2.7c12.2,0,21.9-9.8,21.9-21.9C58.5,35.1,58.5,35.1,58.5,34.9z"/>
	<path fill="#FFFFFF" d="M46.6,39.9c-0.7-0.4-3.4-1.7-3.7-1.7c-0.7-0.4-1.1-0.4-1.3,0.4c-0.4,0.4-1.3,1.7-1.7,2
		c-0.4,0.4-0.7,0.4-1.1,0c-0.7-0.4-2.4-0.7-4.4-2.7c-1.7-1.3-2.7-3.1-3.1-3.7c-0.4-0.4,0-0.7,0-1.1c0.4-0.4,0.7-0.7,1.1-1.1
		c0,0,0,0,0-0.4c0.4,0,0.4-0.4,0.4-0.4c0.4-0.7,0.4-0.7,0-1.1c0-0.4-1.1-3.1-1.7-4c-0.4-1.1-0.7-1.1-1.1-1.1c-0.4,0-0.7,0-1.1,0
		c-0.4,0-1.1,0.4-1.7,0.7c-0.4,0.7-1.7,2-1.7,4.4c0,0.7,0,1.3,0.4,2c0.4,1.7,1.7,3.4,1.7,3.7c0.4,0.4,3.7,6.1,9.5,8.1
		c5.4,2,5.4,1.3,6.4,1.3c1,0,3.4-1.3,3.7-2.7c0.4-1.1,0.4-2.4,0.4-2.4C47.3,40.2,47,40.2,46.6,39.9z"/>
</g>
</svg>
