<svg version="1.1" xmlns="http://www.w3.org/2000/svg" xmlns:xlink="http://www.w3.org/1999/xlink" x="0px" y="0px"
	 viewBox="0 0 72 72" style="enable-background:new 0 0 72 72;" xml:space="preserve">
<path fill="#410093" d="M72,64c0,4.4-3.6,8-8,8H8c-4.4,0-8-3.6-8-8V8c0-4.4,3.6-8,8-8h56c4.4,0,8,3.6,8,8V64z"/>
<g>
	<path fill="#FFFFFF" d="M36,56c11,0,20-9,20-20c0-11-9-20-20-20c-11,0-20,9-20,20C16,47,25,56,36,56z
		 M41.1,25.1c1.4,0,2.6,1.2,2.6,2.6c0,1.4-1.2,2.6-2.6,2.6c-1.4,0-2.6-1.2-2.6-2.6C38.5,26.2,39.7,25.1,41.1,25.1z M31.2,25.1
		c1.4,0,2.6,1.2,2.6,2.6c0,1.4-1.2,2.6-2.6,2.6c-1.4,0-2.6-1.2-2.6-2.6C28.6,26.2,29.8,25.1,31.2,25.1z M21.9,33.4h28.1v5.2H50
		c-0.6,7.2-6.6,12.9-14,12.9c-7.4,0-13.4-5.7-14-12.9h-0.1V33.4z M48.2,38.1H23.5v-3.2h24.6L48.2,38.1L48.2,38.1z"/>
</g>
</svg>