<?xml version="1.0" encoding="utf-8"?>
<svg version="1.1" id="youtube" xmlns="http://www.w3.org/2000/svg" xmlns:xlink="http://www.w3.org/1999/xlink" x="0px" y="0px"
	 viewBox="0 0 72 72" enable-background="new 0 0 72 72" xml:space="preserve">
<path fill="#CD201F" d="M72,64c0,4.4-3.6,8-8,8H8c-4.4,0-8-3.6-8-8V8c0-4.4,3.6-8,8-8h56c4.4,0,8,3.6,8,8V64z"/>
<path fill="#FFFFFF" d="M32.5,51.8c-8.6-0.2-11.5-0.3-13.3-0.7c-1.2-0.2-2.3-0.8-3.1-1.6c-0.6-0.6-1.1-1.5-1.4-2.8
	c-0.3-1.1-0.4-1.9-0.6-4.1c-0.3-4.9-0.3-8.8,0-13.3c0.3-2.4,0.4-5.4,2.2-7.1c0.9-0.8,1.9-1.3,3-1.5c1.8-0.3,9.3-0.6,17.1-0.6
	c7.8,0,15.3,0.3,17.1,0.6c1.4,0.3,2.7,1.1,3.5,2.1c1.7,2.6,1.7,5.9,1.9,8.4c0.1,1.2,0.1,8.1,0,9.3c-0.3,4-0.5,5.5-1.1,6.9
	c-0.4,0.9-0.7,1.4-1.2,2c-0.9,0.8-2,1.4-3.1,1.6C45.9,51.8,39.6,52,32.5,51.8L32.5,51.8z M43.8,35.6c-4.1-2.2-8.1-4.2-12.1-6.4v12.7
	C35.9,39.6,40.4,37.5,43.8,35.6L43.8,35.6L43.8,35.6z"/>
</svg>
