<svg xmlns="http://www.w3.org/2000/svg" viewBox="0 0 72 72"><path fill="#cd201f" d="M72,64c0,4.4-3.6,8-8,8H8c-4.4,0-8-3.6-8-8V8c0-4.4,3.6-8,8-8h56c4.4,0,8,3.6,8,8V64z"/><path fill="#fff" d="M32.1 51.8c-8.6-.2-11.5-.3-13.3-.7-1.2-.2-2.3-.8-3.1-1.6-.6-.6-1.1-1.5-1.4-2.8-.3-1.1-.4-1.9-.6-4.1-.3-4.9-.3-8.8 0-13.3.3-2.4.4-5.4 2.2-7.1.9-.8 1.9-1.3 3-1.5 1.8-.3 9.3-.6 17.1-.6s15.3.3 17.1.6c1.4.3 2.7 1.1 3.5 2.1 1.7 2.6 1.7 5.9 1.9 8.4.1 1.2.1 8.1 0 9.3-.3 4-.5 5.5-1.1 6.9-.4.9-.7 1.4-1.2 2-.9.8-2 1.4-3.1 1.6-7.6.8-13.9 1-21 .8zm11.3-16.2l-12.1-6.4v12.7c4.2-2.3 8.7-4.4 12.1-6.3z"/></svg>