<svg baseProfile="tiny" xmlns="http://www.w3.org/2000/svg" viewBox="0 0 72 72">
    <path fill="#b00"
          d="M72 64c0 4.418-3.582 8-8 8h-56c-4.418 0-8-3.582-8-8v-56c0-4.418 3.582-8 8-8h56c4.418 0 8 3.582 8 8v56z"/>
    <path fill="#fff"
          d="M49.125 20.022h-26.25c-4.331 0-7.875 3.595-7.875 7.989v15.978c0 4.394 3.544 7.989 7.875 7.989h26.25c4.331 0 7.875-3.595 7.875-7.989v-15.978c0-4.394-3.544-7.989-7.875-7.989zm5.25 23.967c0 1.415-.549 2.749-1.545 3.759-.996 1.01-2.311 1.567-3.705 1.567h-26.25c-1.395 0-2.71-.557-3.705-1.567-.996-1.01-1.545-2.344-1.545-3.759v-15.978c0-1.415.549-2.749 1.545-3.759.996-1.01 2.311-1.567 3.705-1.567h26.25c1.395 0 2.71.557 3.705 1.567.996 1.01 1.545 2.344 1.545 3.759v15.978zm-23.625 2.663l13.125-10.652-13.125-10.652v21.304z"/>
</svg>