<?xml version="1.0" encoding="utf-8"?>
<svg version="1.1" id="icq" xmlns="http://www.w3.org/2000/svg" xmlns:xlink="http://www.w3.org/1999/xlink" x="0px" y="0px"
	 viewBox="0 0 72 72" enable-background="new 0 0 72 72" xml:space="preserve">
<path fill="#00CC00" d="M72,64c0,4.4-3.6,8-8,8H8c-4.4,0-8-3.6-8-8V8c0-4.4,3.6-8,8-8h56c4.4,0,8,3.6,8,8V64z"/>
<path fill="#FFFFFF" d="M18.1,37.6c-0.5-0.3-1-0.5-1.4-0.8c-3.6-2.5-3.5-8,0.3-10.7c2-1.5,4.4-2,6.8-1.6c0.1,0,0.3,0,0.6,0
	c-0.2-0.4-0.3-0.8-0.5-1.1c-0.6-1.4-0.9-2.7-0.6-4.2c0.7-3.5,4-5.4,7.6-4.3c1,0.3,1.9,1,2.8,1.5c0.3,0.2,0.5,0.4,0.9,0.7
	c1.3-2,3.1-3.3,5.4-3.7c1.7-0.3,3.3,0.1,4.8,0.8c3.4,1.7,4.6,4.4,4,8.9c0.5,0,1,0.1,1.5,0.1c3,0.2,5.7,2.3,6.2,4.9
	c0.4,2-0.2,3.9-1.5,5.5c-0.2,0.3-0.5,0.6-0.7,0.8c0,0,0,0.1-0.1,0.3c1.9,1.3,3.1,3.1,3.4,5.4c0.2,1.8-0.3,3.6-1.3,5.1
	c-1.8,3.2-4.7,4.2-9.2,3.1c0,0.3-0.1,0.6-0.1,1c-0.2,2.4-1.3,4.4-3.5,5.4c-2.2,1-4.3,0.5-6.2-1c-0.1-0.1-0.2-0.1-0.4-0.2
	c-1,2.2-2.5,3.9-4.9,4.5c-1.8,0.5-3.7,0.3-5.4-0.5c-3.9-1.7-5-4.7-3.8-10C16.9,47.6,14.6,41.5,18.1,37.6z M39,30.7
	c2-2.4,4.2-4.8,6.2-7.4c1.5-1.9,1.2-4.3-0.7-5.7c-2.1-1.6-5.1-1.5-6.6,0.2c-0.8,1-1,2-1,3.2c0.2,2.5,0.4,5.1,0.5,7.6
	C37.4,29.7,37.7,30.4,39,30.7z M49.9,37.1c-0.5,0-1.3,0.1-2,0.2c-2,0.2-4,0.4-6,0.6c-0.7,0.1-0.9,0.6-1,1.1c-0.1,0.2,0,0.6,0.2,0.7
	c2.2,1.8,4.4,3.8,6.6,5.5c1.6,1.3,3.5,1.2,4.9,0c1.6-1.3,2.3-3.7,1.6-5.5C53.7,37.7,52.4,37,49.9,37.1z M34.3,50.3
	C34.3,49,34.2,48,34.1,47c-0.2-1.5-0.3-2.9-0.5-4.3c-0.1-0.4-0.6-0.7-0.9-0.9c-0.2-0.1-0.8,0-0.9,0.1c-1.8,2-3.8,4.1-5.4,6.2
	c-1.4,1.7-1.2,3.9,0.2,5.3c1.5,1.6,4.4,2.1,6,1C34.2,53.5,34.5,51.9,34.3,50.3z M21.2,34.9c1.6-0.2,3.3-0.4,5-0.7
	c0.8-0.1,1.5-0.2,2.3-0.4s1.4-1.4,0.9-1.8c-1.2-1.3-2.3-2.5-3.6-3.6c-2.6-2-6.6-1.4-8.1,1.5c-1.1,1.9-0.2,4.3,1.8,4.8
	C20,34.9,20.6,34.9,21.2,34.9z M41.8,34.3c2.9-0.4,5.5-0.7,8.1-1.1c1.6-0.3,2.8-1.3,3.4-2.9c0.5-1.4,0.2-2.2-0.8-3.2
	c-1.5-1.3-3.7-1.5-5.1-0.2c-2.1,1.8-4.2,3.7-6.2,5.6c-0.2,0.2-0.2,0.8,0,1.1C41.3,34.2,41.7,34.3,41.8,34.3z M34,29.1
	c-0.3-2.7-0.5-5-0.8-7.5c-0.2-2.2-1.5-3.5-3.6-4c-1.5-0.3-2.8,0.5-3.2,1.9c-0.3,1.2,0.1,2.2,0.8,3.1c1.6,2.2,3.4,4.5,5,6.7
	c0.4,0.5,0.8,0.5,1.2,0.2C33.7,29.6,33.9,29.2,34,29.1z M41.2,52.4c1.3-0.1,2.1-0.7,2.5-1.7c0.6-1.4,0.4-2.7-0.5-3.8
	c-1.5-1.6-2.9-3.2-4.4-4.7c-0.2-0.2-0.7-0.4-0.9-0.3c-0.3,0.2-0.6,0.6-0.6,1c0.2,2.1,0.4,4.2,0.8,6.3c0.2,1,0.9,1.8,1.5,2.6
	C40.1,52,40.6,52.1,41.2,52.4z M35.1,39.6c2,0,3.7-1.6,3.7-3.7s-1.6-3.7-3.7-3.7c-2,0-3.7,1.7-3.7,3.8C31.5,38,33.1,39.7,35.1,39.6z
	"/>
</svg>
