<svg xmlns="http://www.w3.org/2000/svg" viewBox="0 0 48 48"><path fill="#ff8095" d="M14.2 27.2v9.4h2.7c2.4 0 4.3-1.9 4.3-4.3v-5.1h-7z"/><path fill="#ccf7ff" d="M9.5 27.2v11.2c0 2 1.6 3.6 3.6 3.6s3.6-1.6 3.6-3.6V27.2H9.5z"/><path opacity=".3" fill="#333" d="M14.2 27.2H9.5v5.1c4.1.2 8 .7 11.4 1.4.1-.4.2-.9.2-1.4v-5.1h-6.9z"/><path fill="#ccf7ff" d="M9.4 12.2c-4.8.2-8.6 4.2-8.6 9s3.8 8.8 8.6 9c16.4.8 28.3 6.3 28.3 6.3V5.9s-12 5.5-28.3 6.3z"/><path fill="#85a1a6" d="M.8 20.4v.8c0 4.8 3.8 8.8 8.6 9 16.4.8 28.3 6.3 28.3 6.3V20.4H.8z"/><ellipse fill="#ff8095" cx="37.7" cy="21.2" rx="9.6" ry="15.3"/><path fill="#526366" d="M37.7 32c-2 0-5-4.3-5-10.7s3-10.7 5-10.7 5 4.3 5 10.7-3.1 10.7-5 10.7z"/><path fill="#85a1a6" d="M32.7 21.2c0 1.4.1 2.7.4 3.9h4.6v-7.8H33c-.2 1.2-.3 2.5-.3 3.9z"/><ellipse fill="#ccf7ff" cx="37.7" cy="21.2" rx="1.9" ry="3.9"/><path d="M11.6 22H4.7c-.4 0-.7-.3-.7-.8s.3-.8.8-.8h6.9c.4 0 .8.3.8.8s-.5.8-.9.8zm.7-2.5H5.4c-.4 0-.8-.3-.8-.8s.4-.7.8-.7h6.9c.4 0 .8.3.8.8s-.4.7-.8.7zm0 5H5.4c-.4 0-.8-.3-.8-.8s.4-.7.8-.7h6.9c.4 0 .8.3.8.8-.1.4-.4.7-.8.7z" fill="#526366"/><path d="M11.6 22c.4 0 .8-.3.8-.8s-.3-.8-.8-.8H4.7c-.4 0-.8.3-.8.8s.4.8.8.8h6.9zm.7-4H5.4c-.4 0-.8.3-.8.8s.3.8.8.8h6.9c.4 0 .8-.3.8-.8s-.4-.8-.8-.8zm0 5H5.4c-.4 0-.8.3-.8.8s.3.8.8.8h6.9c.4 0 .8-.3.8-.8s-.4-.8-.8-.8zm32.8-13c-1.9-3.1-4.6-4.8-7.4-4.8-1.7 0-3.3.6-4.8 1.8-5.3 1.8-13.6 4-23.5 4.5C4.1 11.7 0 16 0 21.2c0 5 3.8 9.2 8.7 9.7v7.4c0 2.4 2 4.4 4.4 4.4s4.4-2 4.4-4.4v-1.2c2.4-.3 4.2-2.3 4.3-4.7a87.55 87.55 0 0 1 11 3c1.5 1.2 3.1 1.8 4.8 1.8 2.8 0 5.5-1.7 7.4-4.8 1.9-3 2.9-7 2.9-11.2C48 17 47 13 45.1 10zM16 36.6v1.9c0 1.6-1.3 2.9-2.9 2.9s-2.9-1.3-2.9-2.9v-7.3h1.4c1.4.1 2.9.3 4.3.4l.1 5zm4.4-4.3a3.44 3.44 0 0 1-2.8 3.4v-3.9c.9.2 1.8.3 2.8.5zm-9.9-2.7s-.1 0 0 0c-.4 0-.7 0-1.1-.1-4.4-.2-7.9-3.8-7.9-8.3s3.5-8 7.9-8.2c8.6-.4 16-2.1 21.3-3.7-.4.6-.8 1.2-1.2 1.9-2.2 4.3-2.7 9.2-2 13.9a19.58 19.58 0 0 0 2 6.2c.4.7.7 1.3 1.2 1.9-5-1.5-12.1-3.1-20.2-3.6zm33.3 2.1c-1.7 2.7-3.8 4.1-6.1 4.1-1.3 0-2.7-.5-3.9-1.5-.3-.2-.6-.5-.8-.8-.1-.1-.1-.2-.2-.2-.4-.5-.8-1-1.2-1.6-3.7-5.9-3.7-14.9 0-20.8.4-.6.8-1.1 1.2-1.6.3-.4.7-.7 1-1h.1c1.2-1 2.5-1.5 3.9-1.5 2.3 0 4.5 1.5 6.1 4.1 1.7 2.8 2.7 6.5 2.7 10.4s-1.1 7.6-2.8 10.4zm-6.1-22c-1.3 0-2.8 1.3-3.9 3.3-.6 1.2-1.1 2.6-1.4 4v.1a18.45 18.45 0 0 0 0 8.1v.1c.3 1.5.8 2.8 1.4 4 1.1 2.1 2.6 3.3 3.9 3.3s2.8-1.3 3.9-3.3c1.2-2.2 1.8-5.1 1.8-8.1s-.7-5.9-1.8-8.1C40.5 11 39 9.7 37.7 9.7zm-4 14.7c-.1-.7-.2-1.4-.2-2.2v-2c0-.7.1-1.5.2-2.2h2c-.8 1.6-.8 3.7-.3 5.4l.3.8c-.2.2-2 .2-2 .2zm4 6.8c-.9 0-2.7-1.8-3.7-5.3h3.7c1.5 0 2.7-2 2.7-4.7s-1.1-4.7-2.7-4.7H34c.9-3.5 2.8-5.3 3.7-5.3 1.2 0 4.2 3.5 4.2 10s-3 10-4.2 10zm-1.2-10c0-2.2.9-3.1 1.1-3.1.3 0 1.1.9 1.1 3.1s-.9 3.1-1.1 3.1c-.2.1-1.1-.9-1.1-3.1z" fill="#26150c"/></svg>