<?xml version="1.0" encoding="utf-8"?>
<!-- Generator: Adobe Illustrator 22.0.1, SVG Export Plug-In . SVG Version: 6.00 Build 0)  -->
<svg version="1.1" id="news" xmlns="http://www.w3.org/2000/svg" xmlns:xlink="http://www.w3.org/1999/xlink" x="0px" y="0px"
     viewBox="0 0 512 512" enable-background="new 0 0 512 512" xml:space="preserve">
<path fill="#FF8095" d="M151.2,290.1v99.8h28.7c25.1,0,45.4-20.3,45.4-45.4v-54.4L151.2,290.1L151.2,290.1z"/>
<path fill="#CCF7FF" d="M101.2,290.1v119.8c0,21.5,17.4,38.9,38.9,38.9l0,0c21.5,0,38.9-17.4,38.9-38.9V290.1H101.2z"/>
<path opacity="0.3" fill="#333333" enable-background="new    " d="M151.2,290.1h-50v54.6c44,2.2,85,7.7,121.6,14.7
    c1.6-4.7,2.5-9.6,2.5-14.8v-54.4H179L151.2,290.1L151.2,290.1z"/>
<path fill="#CCF7FF" d="M100,130.3c-51.4,2.4-91.8,44.8-91.8,96.3l0,0c0,51.5,40.4,93.8,91.8,96.3c174.5,8.2,301.7,67.1,301.7,67.1
    V63.2C401.7,63.2,274.4,122,100,130.3z"/>
<path fill="#85A1A6" d="M8.6,217.5c-0.3,3-0.4,6-0.4,9l0,0c0,51.5,40.4,93.8,91.8,96.3c174.5,8.2,301.7,67.1,301.7,67.1V217.5H8.6
    L8.6,217.5z"/>
<ellipse fill="#FF8095" cx="401.7" cy="226.6" rx="102.2" ry="163.3"/>
<path fill="#526366" d="M401.7,341.1c-21.2,0-53.3-45.7-53.3-114.5c0-68.8,32.1-114.5,53.3-114.5S455,157.7,455,226.6
    S422.9,341.1,401.7,341.1z"/>
<path fill="#85A1A6" d="M348.3,226.6c0,15,1.5,29,4.2,41.6h49.2V185h-49.2C349.9,197.6,348.3,211.5,348.3,226.6z"/>
<ellipse fill="#CCF7FF" cx="401.7" cy="226.6" rx="20.2" ry="41.6"/>
<g>
    <path fill="#526366" d="M123.9,234.7H50.5c-4.5,0-8.1-3.6-8.1-8.1s3.6-8.1,8.1-8.1h73.4c4.5,0,8.1,3.6,8.1,8.1
        S128.4,234.7,123.9,234.7z"/>
    <path fill="#526366" d="M131,207.8H57.6c-4.5,0-8.1-3.6-8.1-8.1s3.6-8.1,8.1-8.1H131c4.5,0,8.1,3.6,8.1,8.1S135.5,207.8,131,207.8z
        "/>
    <path fill="#526366" d="M131,261.7H57.6c-4.5,0-8.1-3.6-8.1-8.1s3.6-8.1,8.1-8.1H131c4.5,0,8.1,3.6,8.1,8.1
        C139.1,258,135.5,261.7,131,261.7z"/>
</g>
<g>
    <path fill="#26150C" d="M123.9,234.7c4.5,0,8.1-3.6,8.1-8.1c0-4.5-3.6-8.1-8.1-8.1H50.5c-4.5,0-8.1,3.6-8.1,8.1
        c0,4.5,3.6,8.1,8.1,8.1H123.9z"/>
    <path fill="#26150C" d="M131,191.5H57.6c-4.5,0-8.1,3.6-8.1,8.1c0,4.5,3.6,8.1,8.1,8.1H131c4.5,0,8.1-3.6,8.1-8.1
        C139.1,195.1,135.5,191.5,131,191.5z"/>
    <path fill="#26150C" d="M131,245.4H57.6c-4.5,0-8.1,3.6-8.1,8.1s3.6,8.1,8.1,8.1H131c4.5,0,8.1-3.6,8.1-8.1S135.5,245.4,131,245.4z
        "/>
    <path fill="#26150C" d="M480.8,106.8c-20.8-33.3-49-51.7-79.2-51.7c-18.1,0-35.5,6.6-51,19.1c-56,19.2-144.6,42.9-251.1,48
        C43.7,124.8,0,170.7,0,226.6c0,53.7,40.4,98.2,93.1,103.9v79.4c0,25.9,21.1,47,47,47s47-21.1,47-47v-12.3
        c25.2-3.4,44.8-24.4,46.2-50.1c47.1,9.4,86.9,21.1,117.3,31.5c15.5,12.5,32.9,19.1,51,19.1c30.2,0,58.3-18.3,79.2-51.7
        c20.1-32.1,31.2-74.7,31.2-119.8C512,181.4,500.9,138.9,480.8,106.8z M170.9,389.9v20c0,17-13.8,30.7-30.7,30.7
        s-30.7-13.8-30.7-30.7v-78.4c2.4,0.1,4.8,0.3,7.3,0.5c0.1,0,0.3,0,0.4,0c2.5,0.2,4.9,0.3,7.4,0.5c0.1,0,0.3,0,0.4,0
        c15.3,1.2,30.7,2.7,46,4.7L170.9,389.9L170.9,389.9L170.9,389.9z M217.2,344.5c0,18.1-12.9,33.2-30,36.6v-41.5
        C197.2,341,207.2,342.6,217.2,344.5L217.2,344.5z M111.7,315.3c-0.2,0-0.4,0-0.6,0c-3.6-0.2-7.2-0.4-10.8-0.6
        c-47.1-2.2-84.1-40.9-84.1-88.1s36.9-85.9,84.1-88.1c92-4.3,170.9-22.4,227.5-39.7c-4.5,6.3-8.7,13.2-12.5,20.5
        c0,0.1-0.1,0.1-0.1,0.2c-23.2,45.6-28.8,97.7-20.9,147.9c3.6,22.7,10.4,45.9,20.9,66.4c0,0.1,0.1,0.1,0.1,0.2
        c3.8,7.3,7.9,14.2,12.5,20.5C273.6,337.8,198.8,320.6,111.7,315.3z M467,337.8c-17.8,28.4-41,44-65.4,44
        c-14.4,0-28.4-5.5-41.1-15.8c-0.2-0.2-0.4-0.3-0.5-0.5c-3-2.5-5.9-5.2-8.7-8.2c0,0,0,0,0,0c-0.7-0.8-1.5-1.6-2.2-2.4
        c-4.5-5-8.7-10.8-12.7-17.1c-39.7-63.4-39.7-158.9,0-222.4c4-6.3,8.2-12,12.7-17.1c3.5-3.9,7.2-7.5,11-10.7
        c0.2-0.2,0.4-0.3,0.6-0.5c12.7-10.3,26.7-15.8,41.1-15.8c24.4,0,47.6,15.6,65.4,44c18.5,29.6,28.7,69.1,28.7,111.2
        S485.5,308.2,467,337.8z"/>
    <path fill="#26150C" d="M401.7,103.9c-14.2,0-29.9,13.4-41.8,35.7c-6.7,12.6-11.8,27.2-15.2,42.9c-0.1,0.2-0.1,0.5-0.2,0.8
        c-5.9,28.3-5.9,58.1,0,86.5c0.1,0.3,0.1,0.5,0.2,0.8c3.3,15.7,8.4,30.3,15.1,42.9c11.9,22.4,27.6,35.7,41.8,35.7
        c14.2,0,29.9-13.4,41.8-35.7c12.7-23.8,19.7-54.6,19.7-86.9c0-32.3-7-63.1-19.7-86.9C431.5,117.3,415.9,103.9,401.7,103.9z
         M359.2,260c-1.3-7.5-2.1-15.2-2.5-23.1c0-0.9-0.1-1.9-0.1-2.8c0-0.7,0-1.4-0.1-2.1c0-1.8-0.1-3.6-0.1-5.4c0,0,0,0,0-0.1
        c0,0,0,0,0-0.1c0-1.8,0-3.6,0.1-5.4c0-0.7,0-1.4,0.1-2.1c0-1,0.1-1.9,0.1-2.8c0.4-7.9,1.2-15.6,2.5-23.1h21.2
        c-8.8,17.4-8.9,39.8-3.4,58.1c0.9,3,2,5.9,3.2,8.7C378.2,260,359.3,260.6,359.2,260z M401.7,332.9c-9.5,0-29-19.6-39-56.6h39l0,0
        c0,0,0,0,0,0c16.1,0,28.3-21.4,28.3-49.7s-12.2-49.7-28.3-49.7c0,0,0,0,0,0h-38.9c10-37.1,29.5-56.6,39-56.6
        c13.1,0,45.2,37.3,45.2,106.4C446.9,295.7,414.8,332.9,401.7,332.9z M389.7,226.6c0-23.4,9.1-33.4,12-33.4c0,0,0,0,0,0
        c2.9,0,12,10.1,12,33.4c0,23.4-9.1,33.4-12,33.4C398.8,260,389.7,249.9,389.7,226.6z"/>
</g>
</svg>
