<?xml version="1.0" encoding="iso-8859-1"?>
<!-- Generator: Adobe Illustrator 19.0.0, SVG Export Plug-In . SVG Version: 6.00 Build 0)  -->
<svg version="1.1" id="Layer_1" xmlns="http://www.w3.org/2000/svg" xmlns:xlink="http://www.w3.org/1999/xlink" x="0px" y="0px"
	 viewBox="0 0 512.001 512.001" style="enable-background:new 0 0 512.001 512.001;" xml:space="preserve">
<path style="fill:#FF8095;" d="M151.23,290.072v99.843h28.68c25.08,0,45.412-20.332,45.412-45.412v-54.432L151.23,290.072
	L151.23,290.072z"/>
<path style="fill:#CCF7FF;" d="M101.238,290.072v119.82c0,21.474,17.409,38.882,38.882,38.882l0,0
	c21.474,0,38.882-17.409,38.882-38.882v-119.82H101.238z"/>
<path style="opacity:0.3;fill:#333333;enable-background:new    ;" d="M151.23,290.072h-49.992v54.579
	c44.027,2.203,85.042,7.734,121.586,14.7c1.61-4.654,2.497-9.646,2.497-14.848v-54.432h-46.318L151.23,290.072L151.23,290.072z"/>
<path style="fill:#CCF7FF;" d="M99.974,130.297c-51.402,2.43-91.832,44.816-91.832,96.274l0,0c0,51.459,40.43,93.844,91.832,96.274
	c174.46,8.248,301.69,67.07,301.69,67.07V63.228C401.664,63.228,274.434,122.049,99.974,130.297z"/>
<path style="fill:#85A1A6;" d="M8.57,217.545c-0.277,2.974-0.429,5.982-0.429,9.026l0,0c0,51.459,40.43,93.844,91.832,96.274
	c174.46,8.248,301.69,67.07,301.69,67.07V217.545L8.57,217.545L8.57,217.545z"/>
<ellipse style="fill:#FF8095;" cx="401.666" cy="226.572" rx="102.191" ry="163.339"/>
<path style="fill:#526366;" d="M401.664,341.067c-21.237,0-53.347-45.665-53.347-114.496c0-68.83,32.109-114.496,53.347-114.496
	s53.346,45.665,53.346,114.496S422.902,341.067,401.664,341.067z"/>
<path style="fill:#85A1A6;" d="M348.318,226.571c0,15.041,1.534,28.976,4.151,41.57h49.195v-83.139h-49.195
	C349.851,197.595,348.318,211.53,348.318,226.571z"/>
<ellipse style="fill:#CCF7FF;" cx="401.666" cy="226.572" rx="20.152" ry="41.576"/>
<g>
	<path style="fill:#526366;" d="M123.865,234.713H50.477c-4.497,0-8.141-3.645-8.141-8.141s3.644-8.141,8.141-8.141h73.387
		c4.497,0,8.141,3.645,8.141,8.141S128.361,234.713,123.865,234.713z"/>
	<path style="fill:#526366;" d="M131,207.774H57.612c-4.497,0-8.141-3.645-8.141-8.141s3.644-8.141,8.141-8.141h73.387
		c4.497,0,8.141,3.645,8.141,8.141S135.497,207.774,131,207.774z"/>
	<path style="fill:#526366;" d="M131,261.652H57.612c-4.497,0-8.141-3.645-8.141-8.141s3.644-8.141,8.141-8.141h73.387
		c4.497,0,8.141,3.645,8.141,8.141S135.497,261.652,131,261.652z"/>
</g>
<g>
	<path style="fill:#26150C;" d="M123.864,234.712c4.497,0,8.141-3.644,8.141-8.141c0-4.497-3.644-8.141-8.141-8.141H50.477
		c-4.496,0-8.141,3.644-8.141,8.141c0,4.497,3.645,8.141,8.141,8.141H123.864z"/>
	<path style="fill:#26150C;" d="M131.001,191.491H57.613c-4.497,0-8.141,3.644-8.141,8.141c0,4.497,3.644,8.141,8.141,8.141H131
		c4.496,0,8.141-3.644,8.141-8.141C139.142,195.135,135.496,191.491,131.001,191.491z"/>
	<path style="fill:#26150C;" d="M131.001,245.369H57.613c-4.497,0-8.141,3.644-8.141,8.141s3.644,8.141,8.141,8.141H131
		c4.496,0,8.141-3.644,8.141-8.141S135.496,245.369,131.001,245.369z"/>
	<path style="fill:#26150C;" d="M480.828,106.752c-20.844-33.317-48.959-51.667-79.164-51.667c-18.129,0-35.503,6.617-51.006,19.106
		c-56.045,19.227-144.645,42.941-251.07,47.974C43.745,124.805,0,170.665,0,226.571c0,53.719,40.392,98.156,93.098,103.893v79.428
		c0,25.93,21.095,47.024,47.024,47.024s47.024-21.095,47.024-47.024v-12.338c25.158-3.415,44.821-24.353,46.233-50.085
		c47.076,9.363,86.95,21.076,117.282,31.482c15.502,12.488,32.876,19.105,51.004,19.105c30.205,0,58.32-18.348,79.164-51.666
		c20.102-32.129,31.172-74.682,31.172-119.82C512,181.434,500.93,138.881,480.828,106.752z M170.862,389.915v19.977
		c0,16.95-13.791,30.741-30.741,30.741s-30.741-13.791-30.741-30.741v-78.389c2.417,0.142,4.839,0.296,7.262,0.459
		c0.149,0.01,0.3,0.018,0.449,0.029c2.457,0.166,4.916,0.344,7.378,0.531c0.128,0.01,0.256,0.02,0.384,0.029
		c15.297,1.171,30.685,2.749,46.007,4.719v52.645H170.862z M217.18,344.505c0,18.075-12.935,33.187-30.035,36.565v-41.544
		c10.027,1.473,20.079,3.12,30.035,4.917V344.505z M111.744,315.334c-0.185-0.011-0.369-0.023-0.554-0.034
		c-3.593-0.214-7.198-0.415-10.832-0.586c-47.144-2.231-84.075-40.947-84.075-88.144s36.931-85.913,84.075-88.141
		c91.967-4.349,170.87-22.402,227.519-39.733c-4.534,6.319-8.696,13.196-12.465,20.535c-0.029,0.056-0.058,0.113-0.086,0.169
		c-23.219,45.58-28.791,97.693-20.913,147.876c3.57,22.735,10.378,45.901,20.895,66.435c0.036,0.071,0.072,0.142,0.107,0.212
		c3.768,7.334,7.928,14.207,12.46,20.523C273.583,337.835,198.836,320.569,111.744,315.334z M467.025,337.755
		c-17.759,28.385-40.972,44.019-65.361,44.019c-14.414,0-28.416-5.463-41.125-15.789c-0.175-0.173-0.357-0.339-0.549-0.497
		c-3.023-2.498-5.939-5.228-8.741-8.173c-0.012-0.012-0.023-0.024-0.035-0.037c-0.745-0.783-1.475-1.592-2.204-2.406
		c-4.477-5.046-8.73-10.759-12.708-17.118c-39.662-63.394-39.711-158.891,0-222.368c3.961-6.332,8.196-12.024,12.652-17.055
		c3.496-3.91,7.175-7.487,11.035-10.676c0.193-0.16,0.377-0.328,0.553-0.502c12.708-10.324,26.708-15.787,41.122-15.787
		c24.389,0,47.601,15.633,65.361,44.019c18.503,29.574,28.693,69.06,28.693,111.184S485.527,308.181,467.025,337.755z"/>
	<path style="fill:#26150C;" d="M401.665,103.935c-14.244,0-29.878,13.363-41.82,35.745c-6.719,12.593-11.821,27.188-15.151,42.915
		c-0.076,0.245-0.142,0.495-0.195,0.751c-5.872,28.331-5.861,58.116,0,86.453c0.053,0.256,0.12,0.506,0.196,0.752
		c3.329,15.726,8.43,30.321,15.15,42.914c11.942,22.382,27.576,35.745,41.82,35.745c14.244,0,29.877-13.363,41.819-35.746
		c12.683-23.77,19.668-54.628,19.668-86.892c0-32.263-6.985-63.121-19.668-86.892C431.542,117.296,415.908,103.935,401.665,103.935z
		 M359.216,260c-1.274-7.491-2.099-15.205-2.49-23.064c-0.046-0.94-0.09-1.879-0.124-2.832c-0.025-0.698-0.046-1.397-0.064-2.098
		c-0.044-1.773-0.077-3.556-0.078-5.373c0-0.021,0-0.04,0-0.061c0-0.021,0-0.04,0-0.061c0-1.817,0.034-3.601,0.078-5.372
		c0.018-0.701,0.039-1.4,0.064-2.099c0.033-0.952,0.078-1.89,0.124-2.829c0.391-7.859,1.216-15.575,2.49-23.066h21.151
		c-8.774,17.361-8.903,39.792-3.361,58.137c0.898,2.971,1.962,5.893,3.19,8.744C378.199,259.965,359.312,260.574,359.216,260z
		 M401.665,332.926c-9.506,0-28.963-19.583-38.963-56.644h38.961l0,0c0.001,0,0.001,0,0.002,0c16.13,0,28.293-21.372,28.293-49.712
		s-12.163-49.712-28.293-49.712c-0.009,0-0.017,0.001-0.026,0.001h-38.937c10-37.061,29.457-56.644,38.963-56.644
		c13.119,0,45.205,37.269,45.205,106.354C446.868,295.657,414.784,332.926,401.665,332.926z M389.654,226.571
		c0-23.368,9.114-33.427,12.009-33.428c0.002,0,0.004,0,0.008,0c2.902,0.014,12.004,10.074,12.004,33.428
		c0,23.371-9.115,33.429-12.01,33.429C398.769,259.999,389.654,249.94,389.654,226.571z"/>
</g>
<g>
</g>
<g>
</g>
<g>
</g>
<g>
</g>
<g>
</g>
<g>
</g>
<g>
</g>
<g>
</g>
<g>
</g>
<g>
</g>
<g>
</g>
<g>
</g>
<g>
</g>
<g>
</g>
<g>
</g>
</svg>
