<?xml version="1.0" encoding="utf-8"?>
<!-- Generator: Adobe Illustrator 22.0.1, SVG Export Plug-In . SVG Version: 6.00 Build 0)  -->
<svg version="1.1" id="news" xmlns="http://www.w3.org/2000/svg" xmlns:xlink="http://www.w3.org/1999/xlink" x="0px" y="0px"
     viewBox="0 0 48 48" enable-background="new 0 0 48 48" xml:space="preserve">
<path fill="#FF8095" d="M14.2,27.2v9.4h2.7c2.4,0,4.3-1.9,4.3-4.3v-5.1L14.2,27.2L14.2,27.2z"/>
<path fill="#CCF7FF" d="M9.5,27.2v11.2c0,2,1.6,3.6,3.6,3.6l0,0c2,0,3.6-1.6,3.6-3.6V27.2H9.5z"/>
<path opacity="0.3" fill="#333333" enable-background="new    " d="M14.2,27.2H9.5v5.1c4.1,0.2,8,0.7,11.4,1.4
    c0.1-0.4,0.2-0.9,0.2-1.4v-5.1h-4.3L14.2,27.2L14.2,27.2z"/>
<path fill="#CCF7FF" d="M9.4,12.2c-4.8,0.2-8.6,4.2-8.6,9l0,0c0,4.8,3.8,8.8,8.6,9c16.4,0.8,28.3,6.3,28.3,6.3V5.9
    C37.7,5.9,25.7,11.4,9.4,12.2z"/>
<path fill="#85A1A6" d="M0.8,20.4c0,0.3,0,0.6,0,0.8l0,0c0,4.8,3.8,8.8,8.6,9c16.4,0.8,28.3,6.3,28.3,6.3V20.4H0.8L0.8,20.4z"/>
<ellipse fill="#FF8095" cx="37.7" cy="21.2" rx="9.6" ry="15.3"/>
<path fill="#526366" d="M37.7,32c-2,0-5-4.3-5-10.7s3-10.7,5-10.7c2,0,5,4.3,5,10.7S39.6,32,37.7,32z"/>
<path fill="#85A1A6" d="M32.7,21.2c0,1.4,0.1,2.7,0.4,3.9h4.6v-7.8H33C32.8,18.5,32.7,19.8,32.7,21.2z"/>
<ellipse fill="#CCF7FF" cx="37.7" cy="21.2" rx="1.9" ry="3.9"/>
<g>
    <path fill="#526366" d="M11.6,22H4.7C4.3,22,4,21.7,4,21.2s0.3-0.8,0.8-0.8h6.9c0.4,0,0.8,0.3,0.8,0.8S12,22,11.6,22z"/>
    <path fill="#526366" d="M12.3,19.5H5.4c-0.4,0-0.8-0.3-0.8-0.8S5,18,5.4,18h6.9c0.4,0,0.8,0.3,0.8,0.8S12.7,19.5,12.3,19.5z"/>
    <path fill="#526366" d="M12.3,24.5H5.4c-0.4,0-0.8-0.3-0.8-0.8S5,23,5.4,23h6.9c0.4,0,0.8,0.3,0.8,0.8C13,24.2,12.7,24.5,12.3,24.5
        z"/>
</g>
<g>
    <path fill="#26150C" d="M11.6,22c0.4,0,0.8-0.3,0.8-0.8s-0.3-0.8-0.8-0.8H4.7c-0.4,0-0.8,0.3-0.8,0.8S4.3,22,4.7,22H11.6z"/>
    <path fill="#26150C" d="M12.3,18H5.4c-0.4,0-0.8,0.3-0.8,0.8s0.3,0.8,0.8,0.8h6.9c0.4,0,0.8-0.3,0.8-0.8S12.7,18,12.3,18z"/>
    <path fill="#26150C" d="M12.3,23H5.4c-0.4,0-0.8,0.3-0.8,0.8s0.3,0.8,0.8,0.8h6.9c0.4,0,0.8-0.3,0.8-0.8S12.7,23,12.3,23z"/>
    <path fill="#26150C" d="M45.1,10c-1.9-3.1-4.6-4.8-7.4-4.8c-1.7,0-3.3,0.6-4.8,1.8c-5.3,1.8-13.6,4-23.5,4.5C4.1,11.7,0,16,0,21.2
        c0,5,3.8,9.2,8.7,9.7v7.4c0,2.4,2,4.4,4.4,4.4s4.4-2,4.4-4.4v-1.2c2.4-0.3,4.2-2.3,4.3-4.7c4.4,0.9,8.1,2,11,3
        c1.5,1.2,3.1,1.8,4.8,1.8c2.8,0,5.5-1.7,7.4-4.8c1.9-3,2.9-7,2.9-11.2C48,17,47,13,45.1,10z M16,36.6v1.9c0,1.6-1.3,2.9-2.9,2.9
        c-1.6,0-2.9-1.3-2.9-2.9v-7.3c0.2,0,0.5,0,0.7,0c0,0,0,0,0,0c0.2,0,0.5,0,0.7,0c0,0,0,0,0,0c1.4,0.1,2.9,0.3,4.3,0.4L16,36.6
        L16,36.6L16,36.6z M20.4,32.3c0,1.7-1.2,3.1-2.8,3.4v-3.9C18.5,32,19.4,32.1,20.4,32.3L20.4,32.3z M10.5,29.6
        C10.5,29.6,10.4,29.6,10.5,29.6c-0.4,0-0.7,0-1.1-0.1c-4.4-0.2-7.9-3.8-7.9-8.3S5,13.2,9.4,13c8.6-0.4,16-2.1,21.3-3.7
        c-0.4,0.6-0.8,1.2-1.2,1.9c0,0,0,0,0,0c-2.2,4.3-2.7,9.2-2,13.9c0.3,2.1,1,4.3,2,6.2c0,0,0,0,0,0c0.4,0.7,0.7,1.3,1.2,1.9
        C25.7,31.7,18.6,30.1,10.5,29.6z M43.8,31.7c-1.7,2.7-3.8,4.1-6.1,4.1c-1.3,0-2.7-0.5-3.9-1.5c0,0,0,0,0,0
        c-0.3-0.2-0.6-0.5-0.8-0.8l0,0c-0.1-0.1-0.1-0.2-0.2-0.2c-0.4-0.5-0.8-1-1.2-1.6c-3.7-5.9-3.7-14.9,0-20.8c0.4-0.6,0.8-1.1,1.2-1.6
        c0.3-0.4,0.7-0.7,1-1c0,0,0,0,0.1,0c1.2-1,2.5-1.5,3.9-1.5c2.3,0,4.5,1.5,6.1,4.1c1.7,2.8,2.7,6.5,2.7,10.4S45.5,28.9,43.8,31.7z"
        />
    <path fill="#26150C" d="M37.7,9.7c-1.3,0-2.8,1.3-3.9,3.3c-0.6,1.2-1.1,2.6-1.4,4c0,0,0,0,0,0.1c-0.6,2.7-0.6,5.4,0,8.1
        c0,0,0,0,0,0.1c0.3,1.5,0.8,2.8,1.4,4c1.1,2.1,2.6,3.3,3.9,3.3s2.8-1.3,3.9-3.3c1.2-2.2,1.8-5.1,1.8-8.1s-0.7-5.9-1.8-8.1
        C40.5,11,39,9.7,37.7,9.7z M33.7,24.4c-0.1-0.7-0.2-1.4-0.2-2.2c0-0.1,0-0.2,0-0.3c0-0.1,0-0.1,0-0.2c0-0.2,0-0.3,0-0.5
        c0,0,0,0,0,0c0,0,0,0,0,0c0-0.2,0-0.3,0-0.5c0-0.1,0-0.1,0-0.2c0-0.1,0-0.2,0-0.3c0-0.7,0.1-1.5,0.2-2.2h2
        c-0.8,1.6-0.8,3.7-0.3,5.4c0.1,0.3,0.2,0.6,0.3,0.8C35.5,24.4,33.7,24.4,33.7,24.4z M37.7,31.2c-0.9,0-2.7-1.8-3.7-5.3h3.7l0,0l0,0
        c1.5,0,2.7-2,2.7-4.7s-1.1-4.7-2.7-4.7l0,0H34c0.9-3.5,2.8-5.3,3.7-5.3c1.2,0,4.2,3.5,4.2,10C41.9,27.7,38.9,31.2,37.7,31.2z
         M36.5,21.2c0-2.2,0.9-3.1,1.1-3.1l0,0c0.3,0,1.1,0.9,1.1,3.1c0,2.2-0.9,3.1-1.1,3.1C37.4,24.4,36.5,23.4,36.5,21.2z"/>
</g>
</svg>
