<svg xmlns="http://www.w3.org/2000/svg" viewBox="0 0 72 72"><path d="M72,64c0,4.4-3.6,8-8,8H8c-4.4,0-8-3.6-8-8V8c0-4.4,3.6-8,8-8h56c4.4,0,8,3.6,8,8V64z" fill="#3f51b5"/><path d="M46.4 30.9l6.8 2.5-5.6 15.4c-.5 1.4-3.4 6-5.4 6.9l-.5 1.3c-.1.3-.4.5-.8.5-.1 0-.2 0-.3-.1-.4-.2-.6-.6-.5-1.1l.5-1.2c-1-2-.3-7.7.2-8.9l5.6-15.3zm9.8-16.2c-1.9-.7-4 .7-4.7 2.4l-4.1 11.1 6.8 2.5 4.1-11.1c.6-1.4-.2-4.2-2.1-4.9zM44 30.3c.2.1.4.1.6.1.7 0 1.3-.4 1.6-1.1l4.3-11.6c.3-.9-.1-1.8-1-2.1s-1.8.1-2.1 1L43 28.2c-.3.9.1 1.8 1 2.1zm-7 21.8a6.2 6.2 0 0 0-1.9-1.3c-.7-.3-1.5-.3-2-.4h-.2c-.3-.9-1-1.5-2-1.7-1.3-.3-2.4.3-3.1.8l.3-1.1c.3-1 .5-2.1.3-3.1-.2-.8-.8-1.4-1.6-1.4-2-.1-3.7 1-5.2 2s-2.5 1.7-3.5 1.3c-1.2-.4-1.3-3.7-.7-6.6.5-2.6 1.5-7.5 4-9.7.8-.7 2-1.6 3-1.2 1.2.5 2.1 2.4 2.3 4.7.1 1 .9 1.7 1.9 1.6s1.7-.9 1.6-1.9c-.3-3.7-2.1-6.6-4.6-7.6-1.5-.6-3.8-.7-6.7 1.8-3.1 2.8-4.2 7.5-5.1 11.7-.4 2.1-1.4 9 3 10.6 2.7 1 4.9-.5 6.7-1.7.3-.2.6-.4 1-.6-.3 1.3-.5 2.6.3 3.8 1.1 1.7 2.8 1.9 4.8.6.1-.1.2-.1.3-.2.2.4.5.8 1.1 1.1.7.4 1.5.4 2 .4.2 0 .5 0 .6.1.3.1.5.3.9.7.3.3.6.5 1 .8.3.2.7.3 1.1.3.5 0 1.1-.2 1.4-.7.6-.8.4-1.9-.4-2.5l-.6-.6z" fill="#fff"/></svg>