<svg xmlns="http://www.w3.org/2000/svg" viewBox="0 0 72 72"><path d="M72,64c0,4.4-3.6,8-8,8H8c-4.4,0-8-3.6-8-8V8c0-4.4,3.6-8,8-8h56c4.4,0,8,3.6,8,8V64z" fill="#9c27b0"/><path d="M45.1 49.2c-3.3 0-6.1-2.6-6.2-5.9-.1-2.5 1.3-4.6 3.4-5.7l-3.7-3.9c-2.4.5-4.9-.2-6.7-1.9-2.2-2.2-3.4-9.4-3.7-12.5a1.37 1.37 0 0 1 1.5-1.5c3 .3 10.2 1.5 12.5 3.7 1.8 1.8 2.5 4.4 1.9 6.7l8.4 8c2.2-1.3 3.5-4.1 2.6-6.9-2.9-8.7-11-14.6-20.3-14.6-11.6 0-21.1 9.4-21.3 21-.1 5.7 2 11.1 6 15.2s9.3 6.4 15 6.5c4.3.1 8.4-1.1 12-3.5 2.1-1.4 1.1-4.7-1.4-4.7zm-23.6-8.4a5.34 5.34 0 0 1-5.3-5.3 5.34 5.34 0 0 1 5.3-5.3 5.34 5.34 0 0 1 5.3 5.3 5.34 5.34 0 0 1-5.3 5.3zm9.7 13a5.34 5.34 0 0 1-5.3-5.3 5.34 5.34 0 0 1 5.3-5.3 5.34 5.34 0 0 1 5.3 5.3 5.34 5.34 0 0 1-5.3 5.3zm-9.7-21a2.7 2.7 0 1 0 0 5.4 2.69 2.69 0 0 0 2.7-2.7c-.1-1.5-1.3-2.7-2.7-2.7zm9.7 13a2.7 2.7 0 1 0 0 5.4 2.69 2.69 0 0 0 2.7-2.7c-.1-1.5-1.3-2.7-2.7-2.7zm26.8-.9c-1-.9-14.5-13.7-15-14.1a7.69 7.69 0 0 1-1.8 1.8c12.2 13-1.8-1.9 14.2 15 .7.7 1.9.7 2.6 0 .7-.8.7-2 0-2.7zM31.1 20.6c.5 3.5 1.5 8 2.7 9.2 1.8 1.8 4.7 1.8 6.5 0s1.8-4.7 0-6.5c-1.2-1.1-5.7-2.1-9.2-2.7z" fill="#fff"/></svg>