<svg xmlns="http://www.w3.org/2000/svg" viewBox="0 0 72 72"><path d="M72,64c0,4.4-3.6,8-8,8H8c-4.4,0-8-3.6-8-8V8c0-4.4,3.6-8,8-8h56c4.4,0,8,3.6,8,8V64z" fill="#1b5e20"/><path d="M51.9 20.1c-4.2-4.2-9.9-6.6-15.9-6.6s-11.7 2.3-15.9 6.6S13.5 30 13.5 36s2.3 11.7 6.6 15.9c4.2 4.2 9.9 6.6 15.9 6.6s11.7-2.3 15.9-6.6c4.2-4.2 6.6-9.9 6.6-15.9s-2.3-11.7-6.6-15.9zm-5.4 3.1l1-4.1c3.9 2.7 6.9 6.7 8.2 11.4l-.5.1c-.8.1-1.4.7-1.6 1.5l-.2.8-1.2-.9c-.6-.5-1.5-.5-2.2-.2l-1.5.8c-.7.4-1.1 1.1-1.1 1.9s.6 1.5 1.3 1.8h.1l-.9 1.1-2.5-1.6c-.6-.4-1.3-.4-1.9-.1s-1.1.8-1.2 1.5l-.2 1.2c-.1.7.1 1.3.6 1.8l1.3 1.2-2.1 3.2a1.93 1.93 0 0 0-.3 1l-.2 4.6-2.8 2.8-1.8-1.1-.9-4.2-.8-2.2c-.3-.7-.9-1.2-1.7-1.3l-3.7-.3-2.1-3.7.5-3.5 3.3-2.5 3.2 1.3c.2.1.4.1.6.1l4.4.5c.5.1 1-.1 1.4-.4l2.9-2.1c.8-.6 1.1-1.6.7-2.5l-.3-.6c-.3-.7-1-1.2-1.7-1.2l-8.6-.1 2.4-.7c.3-.1.6-.3.9-.5l3-2.8 4.5-.5c.8-.1 1.5-.7 1.7-1.5zm-15.2-1.7l1.7-3.2c.2-.5.3-1 .2-1.5l-.2-1.1c1-.1 2-.2 3-.2s2 .1 3 .2c0 0-.2.3-.3.3l-2.4 1c-.3.1-.6.4-.9.6l-3.7 4.3c0 .1 0 .1-.1.1s-.2-.1-.2-.1c-.2-.1-.1-.4-.1-.4zm-8.7-1v3a2.61 2.61 0 0 1-1.1 2.1L19.3 27c-.5.3-.9.7-1.3 1.2l-2 2.9c1.1-4.2 3.4-7.9 6.6-10.6zM23.9 50l-.3 2.3c-3.2-2.4-5.7-5.8-7-9.7h1.3c.2 0 .3.1.4.2l2.6 4c.1.2.3.3.4.5l2.5 2.3c.1.1.1.3.1.4zM36 56.5c-3.8 0-7.4-1.1-10.5-2.9l.4-3.3c.1-.8-.2-1.6-.8-2.1 0 0-2.6-2.3-2.6-2.4l-2.6-4c-.5-.7-1.2-1.1-2.1-1.1H16c-.3-1.5-.5-3-.5-4.6v-.5l4.2-6.2c.2-.3.4-.5.7-.7l2.2-1.4c1.3-.8 2-2.2 2-3.7V19c1.9-1.3 4.1-2.3 6.5-2.9l.2 1.1v.2l-1.7 3.2c-.1.2-.2.7-.2.7-.1.7 0 1.4.5 1.9.4.5 1.1.8 1.7.8 0 0 1 0 1.7-.8l3.7-4.3.1-.1 2.4-1c.3-.1.6-.4.9-.6l.9-1c1.6.4 3.1 1 4.5 1.8 0 .1-1.2 4.7-1.2 4.7l-4.5.5c-.4 0-.9.2-1.2.5l-3 2.8-2.4.7c-.8.2-1.4.9-1.5 1.7a2.03 2.03 0 0 0 1 2c.3.2.6.2.9.3l8.1.4.3.6-2.9 2.1-4.4-.4-3.2-1.3a1.84 1.84 0 0 0-2 .3l-3.3 2.5c-.4.3-.7.8-.8 1.3l-.5 3.5c-.1.5 0 .9.3 1.3l2.1 3.7c.3.6.9.9 1.6 1l3.7.3.8 2.2.8 3.9c.1.6.5 1 1 1.3l1.8 1.1a1.93 1.93 0 0 0 1 .3c.5 0 1-.2 1.4-.6l2.8-2.8c.4-.4.6-.8.6-1.4l.2-4.6 2.1-3.2c.5-.8.4-1.9-.3-2.6L44 38.8l.2-1.2 2.5 1.6c.8.5 2 .4 2.6-.4l.9-1.1c.4-.5.6-1.2.4-1.8s-.6-1.2-1.3-1.4h-.1l1.5-.8 1.2.9c.5.4 1.3.5 1.9.3s1.1-.8 1.3-1.4l.2-.8.6-.1c.2 1.2.3 2.3.3 3.6.3 11.1-8.9 20.3-20.2 20.3z" fill="#fff"/></svg>