<svg xmlns="http://www.w3.org/2000/svg" viewBox="0 0 72 72"><path d="M72,64c0,4.4-3.6,8-8,8H8c-4.4,0-8-3.6-8-8V8c0-4.4,3.6-8,8-8h56c4.4,0,8,3.6,8,8V64z" fill="#f44336"/><path d="M42.2 29.8a1.11 1.11 0 0 0-1.1 1.1v19.9a1.11 1.11 0 0 0 1.1 1.1 1.11 1.11 0 0 0 1.1-1.1V30.9a1.11 1.11 0 0 0-1.1-1.1zm-12.4 0a1.11 1.11 0 0 0-1.1 1.1v19.9a1.11 1.11 0 0 0 1.1 1.1 1.11 1.11 0 0 0 1.1-1.1V30.9c-.1-.6-.5-1.1-1.1-1.1zm-9.1-2.9v26c0 1.5.6 3 1.5 4 1 1 2.3 1.6 3.8 1.6h20c1.4 0 2.8-.6 3.8-1.6s1.5-2.5 1.5-4v-26c2-.5 3.2-2.4 3-4.4-.3-2-2-3.5-4-3.5h-5.4v-1.3c0-1.1-.4-2.2-1.2-3s-1.8-1.2-3-1.2h-9.4c-1.1 0-2.2.4-3 1.2s-1.2 1.8-1.2 3V19h-5.4c-2 0-3.7 1.5-4 3.5-.2 2 1.1 3.9 3 4.4zM46 56.4H26c-1.8 0-3.2-1.5-3.2-3.5V27h26.3v25.9c.1 1.9-1.3 3.5-3.1 3.5zM29.3 17.7c0-.5.2-1.1.6-1.5s.9-.6 1.5-.6h9.4c.5 0 1.1.2 1.5.6s.6.9.6 1.5V19H29.3v-1.3zm-7.5 3.4h28.5c1 0 1.9.8 1.9 1.9 0 1-.8 1.9-1.9 1.9H21.8c-1 0-1.9-.8-1.9-1.9s.8-1.9 1.9-1.9zM36 29.8a1.11 1.11 0 0 0-1.1 1.1v19.9a1.11 1.11 0 0 0 1.1 1.1 1.11 1.11 0 0 0 1.1-1.1V30.9a1.11 1.11 0 0 0-1.1-1.1z" fill="#fff"/></svg>