<svg version="1.1" xmlns="http://www.w3.org/2000/svg" xmlns:xlink="http://www.w3.org/1999/xlink" x="0px" y="0px"
	 viewBox="0 0 512 512" style="enable-background:new 0 0 512 512;" xml:space="preserve">
<rect x="164.6" y="146.3" style="fill:#EA86A5;" width="237.7" height="164.6"/>
<path style="fill:#EAEAEA;" d="M457.1,329.1c-5.1,0-9.1-4.1-9.1-9.1V137.1c0-5.1,4.1-9.1,9.1-9.1h36.6V82.3H18.3V128h91.4
	c5.1,0,9.1,4.1,9.1,9.1V320c0,5.1-4.1,9.1-9.1,9.1H18.3v100.6h475.4V329.1H457.1z M182.9,393.1h-27.4v-18.3h27.4V393.1z
	 M228.6,393.1h-27.4v-18.3h27.4V393.1z M265.1,402.3c-10.1,0-18.3-8.2-18.3-18.3c0-10.1,8.2-18.3,18.3-18.3
	c10.1,0,18.3,8.2,18.3,18.3C283.4,394.1,275.2,402.3,265.1,402.3z M329.1,393.1h-27.4v-18.3h27.4V393.1z M374.9,393.1h-27.4v-18.3
	h27.4V393.1z M420.6,320c0,5.1-4.1,9.1-9.1,9.1h-256c-5.1,0-9.1-4.1-9.1-9.1V137.1c0-5.1,4.1-9.1,9.1-9.1h256c5.1,0,9.1,4.1,9.1,9.1
	V320z"/>
<g>
	<rect x="18.3" y="146.3" style="fill:#D26CBA;" width="82.3" height="164.6"/>
	<rect x="466.3" y="146.3" style="fill:#D26CBA;" width="27.4" height="164.6"/>
</g>
<g>
	<path style="fill:#314E55;" d="M502.9,64H9.1C4.1,64,0,68.1,0,73.1v64V320v118.9c0,5.1,4.1,9.1,9.1,9.1h493.7
		c5.1,0,9.1-4.1,9.1-9.1V320V137.1v-64C512,68.1,507.9,64,502.9,64z M18.3,146.3h82.3v164.6H18.3V146.3z M18.3,429.7V329.1h91.4
		c5.1,0,9.1-4.1,9.1-9.1V137.1c0-5.1-4.1-9.1-9.1-9.1H18.3V82.3h475.4V128h-36.6c-5.1,0-9.1,4.1-9.1,9.1V320c0,5.1,4.1,9.1,9.1,9.1
		h36.6v100.6H18.3z M493.7,310.9h-27.4V146.3h27.4V310.9z"/>
	<path style="fill:#314E55;" d="M265.1,365.7c-10.1,0-18.3,8.2-18.3,18.3c0,10.1,8.2,18.3,18.3,18.3c10.1,0,18.3-8.2,18.3-18.3
		C283.4,373.9,275.2,365.7,265.1,365.7z"/>
	<path style="fill:#314E55;" d="M411.4,128h-256c-5.1,0-9.1,4.1-9.1,9.1V320c0,5.1,4.1,9.1,9.1,9.1h256c5.1,0,9.1-4.1,9.1-9.1V137.1
		C420.6,132.1,416.5,128,411.4,128z M402.3,310.9H164.6V146.3h237.7L402.3,310.9L402.3,310.9z"/>
	<rect x="155.4" y="374.9" style="fill:#314E55;" width="27.4" height="18.3"/>
	<rect x="201.1" y="374.9" style="fill:#314E55;" width="27.4" height="18.3"/>
	<rect x="301.7" y="374.9" style="fill:#314E55;" width="27.4" height="18.3"/>
	<rect x="347.4" y="374.9" style="fill:#314E55;" width="27.4" height="18.3"/>
</g>
</svg>