<svg xmlns="http://www.w3.org/2000/svg" viewBox="0 0 512 512"><path d="M164.6 146.3h237.7v164.6H164.6z" fill="#ea86a5"/><path d="M457.1 329.1c-5.1 0-9.1-4.1-9.1-9.1V137.1c0-5.1 4.1-9.1 9.1-9.1h36.6V82.3H18.3V128h91.4c5.1 0 9.1 4.1 9.1 9.1V320c0 5.1-4.1 9.1-9.1 9.1H18.3v100.6h475.4V329.1h-36.6zm-274.2 64h-27.4v-18.3h27.4v18.3zm45.7 0h-27.4v-18.3h27.4v18.3zm36.5 9.2c-10.1 0-18.3-8.2-18.3-18.3s8.2-18.3 18.3-18.3 18.3 8.2 18.3 18.3-8.2 18.3-18.3 18.3zm64-9.2h-27.4v-18.3h27.4v18.3zm45.8 0h-27.4v-18.3h27.4v18.3zm45.7-73.1c0 5.1-4.1 9.1-9.1 9.1h-256c-5.1 0-9.1-4.1-9.1-9.1V137.1c0-5.1 4.1-9.1 9.1-9.1h256c5.1 0 9.1 4.1 9.1 9.1V320z" fill="#eaeaea"/><path d="M18.3 146.3h82.3v164.6H18.3zm448 0h27.4v164.6h-27.4z" fill="#d26cba"/><path d="M502.9 64H9.1c-5 0-9.1 4.1-9.1 9.1v365.8c0 5.1 4.1 9.1 9.1 9.1h493.7c5.1 0 9.1-4.1 9.1-9.1V73.1c.1-5-4-9.1-9-9.1zM18.3 146.3h82.3v164.6H18.3V146.3zm0 283.4V329.1h91.4c5.1 0 9.1-4.1 9.1-9.1V137.1c0-5.1-4.1-9.1-9.1-9.1H18.3V82.3h475.4V128h-36.6c-5.1 0-9.1 4.1-9.1 9.1V320c0 5.1 4.1 9.1 9.1 9.1h36.6v100.6H18.3zm475.4-118.8h-27.4V146.3h27.4v164.6zm-228.6 54.8c-10.1 0-18.3 8.2-18.3 18.3s8.2 18.3 18.3 18.3 18.3-8.2 18.3-18.3-8.2-18.3-18.3-18.3zM411.4 128h-256c-5.1 0-9.1 4.1-9.1 9.1V320c0 5.1 4.1 9.1 9.1 9.1h256c5.1 0 9.1-4.1 9.1-9.1V137.1c.1-5-4-9.1-9.1-9.1zm-9.1 182.9H164.6V146.3h237.7v164.6zm-246.9 64h27.4v18.3h-27.4zm45.7 0h27.4v18.3h-27.4zm100.6 0h27.4v18.3h-27.4zm45.7 0h27.4v18.3h-27.4z" fill="#314e55"/></svg>