<?xml version="1.0" encoding="utf-8"?>
<!-- Generator: Adobe Illustrator 22.0.0, SVG Export Plug-In . SVG Version: 6.00 Build 0)  -->
<svg version="1.1" id="journal" xmlns="http://www.w3.org/2000/svg" xmlns:xlink="http://www.w3.org/1999/xlink" x="0px" y="0px"
	 viewBox="0 0 256 256" enable-background="new 0 0 256 256" xml:space="preserve">
<path fill="#D89113" d="M223.3,256H32.6C14.7,256,0,241.3,0,223.4V32.6C0,14.7,14.7,0,32.6,0h190.8C241.3,0,256,14.7,256,32.6v190.8
	C256,241.3,241.3,256,223.3,256z"/>
<g>
	<path fill="#FFFFFF" d="M155.6,206.2c12.8-16.1,24.4-31,36.1-45.7c0.5,0.2,0.9,0.4,1.4,0.5c0,13.4,0.2,26.9-0.2,40.3
		c0,1.7-3,4.6-4.7,4.6C177.8,206.4,167.5,206.2,155.6,206.2z"/>
	<path fill="#FFFFFF" d="M63.3,101.4c0-8.6,0-15.9,0-24.3c-4.5,0-8.8,0-13.1,0c-4.1,0-7.5-0.8-7.6-5.8c-0.1-5.1,3.1-6.1,7.3-6
		c4.1,0.1,8.3,0,13.6,0c0-4,0-7.6,0-11.2c0-5.5,2.1-8.6,8.2-8.5c38,0.1,76,0.1,114,0c5.4,0,7.5,2.4,7.4,7.6
		c-0.1,19.8,0.1,39.6-0.2,59.4c-0.1,3.1-2,6.6-3.9,9.1c-18.2,23.4-36.8,46.7-55,70c-1.8,2.3-4.1,5-4.3,7.7c-0.5,6.5-4.2,7.1-9.4,7
		c-15.4-0.2-30.9,0-46.3-0.1c-9.2,0-10.4-1.3-10.5-10.4c0-3,0-5.9,0-10c-5.1,0-9.6,0-14,0c-3.9-0.1-6.8-1.2-6.9-5.9
		c0-4.7,2.7-5.7,6.7-5.9c14.2-0.7,14.2-0.8,14.2-14.8c0-2.8,0-5.5,0-9.8c-5.2,0-9.9,0-14.5,0c-3.6,0-6.4-1-6.4-5.4
		c0-4.7,2.7-5.7,6.7-5.9c14.2-0.7,14.2-0.8,14.2-15.5c0-9.6,0-9.6-9.8-9.6c-1.6,0-3.6,0.6-4.8-0.2c-2.4-1.4-5.5-3.2-6.1-5.5
		c-1.1-4.2,2.1-6.2,6.2-6.3C53.7,101.4,58.2,101.4,63.3,101.4z M76.5,152.5c5.2-0.3,8.2-3.1,8.8-8c0.5-4.4-4.1-9.2-8.6-8.8
		c-4.9,0.4-8.2,3.2-8.3,8.3C68.4,149.1,71.6,151.8,76.5,152.5z M76.7,188.5c5.1-0.5,8.4-3.3,8.5-8.3s-3-8.1-8-8.6
		c-4.6-0.5-9.1,3.9-8.8,8.5C68.7,185.2,71.8,187.9,76.7,188.5z M76.9,115.8c5.2-0.7,8.5-3.5,8.3-8.6c-0.2-4.9-3.4-8.1-8.6-7.9
		c-5.1,0.2-8.2,3.3-8.1,8.4C68.6,113,72.1,115.4,76.9,115.8z M75.7,79.4c5.9,0.1,9.1-2.8,9.5-7.7c0.3-5-2.6-8.4-7.9-8.7
		c-5.2-0.3-8.5,2.6-8.9,7.7C68.2,75.7,71.2,78.7,75.7,79.4z"/>
	<path fill="#FFFFFF" d="M148.8,207.9c-4.8-3.7-8.9-6.9-13.7-10.7c16.9-21.5,33.7-42.7,50.8-64.6c4.5,3.4,8.8,6.7,13.8,10.5
		C182.9,164.7,166.2,185.9,148.8,207.9z"/>
	<path fill="#FFFFFF" d="M207,135.5c-5.4-4.3-9.5-7.5-14.7-11.7c3.5-3.2,6.9-8.5,9.5-8.1c4.1,0.7,9.1,4.4,10.9,8.1
		C213.6,126.1,209.3,130.9,207,135.5z"/>
	<path fill="#FFFFFF" d="M134.6,202.3c3.2,2.5,6.3,5,9.5,7.5c-0.1,0.7-0.2,1.4-0.3,2.1c-2.7-0.1-6,0.7-7.8-0.6
		c-2.1-1.5-2.8-4.9-4.1-7.4C132.8,203.3,133.7,202.8,134.6,202.3z"/>
</g>
</svg>
