<?xml version="1.0" encoding="utf-8"?>
<!-- Generator: Adobe Illustrator 22.0.0, SVG Export Plug-In . SVG Version: 6.00 Build 0)  -->
<svg version="1.1" id="mods" xmlns="http://www.w3.org/2000/svg" xmlns:xlink="http://www.w3.org/1999/xlink" x="0px" y="0px"
	 viewBox="0 0 256 256" enable-background="new 0 0 256 256" xml:space="preserve">
<path fill="#C90D23" d="M223.3,256H32.6C14.7,256,0,241.3,0,223.4V32.6C0,14.7,14.7,0,32.6,0h190.8C241.3,0,256,14.7,256,32.6v190.8
	C256,241.3,241.3,256,223.3,256z"/>
<path fill="#FFFFFF" d="M202.8,185.7L148.1,131c-0.5-0.6-1-0.9-1.6-1.4l9.7-10.2c0.5-0.5,0.9-1,1.4-1.6c12.9,4.9,28,2.1,38.4-8.2
	c7.6-7.6,11.4-18,10.5-28.7c-0.1-1.2-0.9-2.2-2.1-2.7c-1.1-0.4-2.4-0.1-3.3,0.7l-17.5,17.5L165.8,92l-5-18.3l17.5-17.5
	c0.8-0.8,1.1-2.1,0.7-3.3c-0.4-1.1-1.5-2-2.7-2.1c-10.6-0.9-21.1,2.9-28.7,10.5c-10.4,10.4-13.1,25.5-8.2,38.4
	c-0.6,0.5-1,0.9-1.6,1.4l-14.3,13.7L97.3,88.6c-0.4-0.4-0.7-0.7-1-0.9c0.3-0.6,0.7-1.1,0.8-1.7c5.5,1,15.7-9.7,24.3-18.3l-25-25
	C85.1,53.9,76.9,61.4,78.1,66.9c-2.5,1.2-4.9,2.8-6.4,4.4l-3.5,3.5c-2.3,2.3-3.6,5.1-4.2,8.1c-0.4,0.4-0.7,0.8-1,1.2l-1.3,1.7
	c0,0-0.2,0.2-0.2,0.3l-1.2,1.7c-0.7,1-1.4,2.1-2.1,3.1c-0.2,0.4-0.5,0.7-0.7,1.1c0,0.1-0.1,0.1-0.1,0.2l-0.5,1
	c-0.7,1.2-1.3,2.4-1.9,3.8l-0.1,0.2c-0.7,1.6-1.4,3.3-1.9,4.9l-0.3,0.7c-0.2,0.7-0.4,1.2-0.6,2l-0.5,2.4c-0.4,1.5-0.5,3-0.6,4.3
	l-0.1,0.8c-0.2,1.4-0.1,2.6-0.1,3.8c0,0.4,0,0.7,0,1.2c0,0.2,0,0.4,0,0.7c0,0.5,0,1.1,0.1,1.7l0.3,2c0.1,0.4,0.1,0.7,0.2,1.1
	c0.1,0.8,0.3,1.6,0.5,2.4l1.3,4.5c0.4,1.3,1.7,2.2,3.1,2.1c0.7-0.1,1.4-0.4,1.9-0.8s0.7-1,0.8-1.7l0.7-4.5c0.1-0.4,0.2-0.8,0.4-1.4
	c0.1-0.4,0.2-0.7,0.3-1.1l0.5-1.7c0.1-0.2,0.2-0.5,0.3-0.7s0.2-0.5,0.3-0.7c0.2-0.4,0.3-0.7,0.5-1.1c0.3-0.7,0.6-1.4,1-2.1
	c0.2-0.3,0.4-0.7,0.6-0.9c0.5-0.7,0.8-1.5,1.3-2.1l0.1-0.1l1.1-1.5c0.2-0.3,0.5-0.6,0.7-0.8c0.2-0.2,0.4-0.4,0.6-0.7
	c0.7-0.7,1.4-1.5,2.1-2.1l0.4-0.4c0.6-0.5,1.2-1,1.9-1.5c0.3-0.2,0.6-0.4,0.8-0.7c0.4-0.2,0.7-0.5,1-0.7c0.7-0.4,1.1-0.7,1.8-1.1
	l1.3-0.7L78,102c0.5-0.3,0.9-0.5,1.3-0.6c0.3-0.1,0.5-0.2,0.7-0.3c0.3-0.1,0.5-0.2,0.7-0.3c0.3-0.1,0.6-0.2,0.8-0.3l0.6-0.3
	c0.4,0.7,0.8,1.2,1.4,1.8l25.9,25.9L54,181.5c0,0,0,0-0.1,0.1c-6.9,6.9-8,17-1.1,23.9s16.3,5.1,23.2-1.8l0.1-0.1l48.8-51.4
	c0.3,0.4,0.6,0.7,0.9,1l54.8,54.8c6.2,6.2,16.1,6.2,22.2,0C209,201.9,209,191.9,202.8,185.7z M68.9,198.1c-2.5,2.5-6.6,2.5-9.1,0
	s-2.5-6.6,0-9.1s6.6-2.5,9.1,0S71.4,195.5,68.9,198.1z"/>
</svg>
