<?xml version="1.0" encoding="utf-8"?>
<!-- Generator: Adobe Illustrator 22.1.0, SVG Export Plug-In . SVG Version: 6.00 Build 0)  -->
<svg version="1.1" id="php-fusion-icon" xmlns="http://www.w3.org/2000/svg" xmlns:xlink="http://www.w3.org/1999/xlink" x="0px"
	 y="0px" viewBox="0 0 512 512" style="enable-background:new 0 0 512 512;" xml:space="preserve">
<path d="M512,169c0,7.3,0,14.7,0,22c-0.3,1.1-0.9,2.1-1,3.2c-2.4,19.3-9.4,37-19.5,53.5c-10.2,16.6-22.5,31.4-36.4,44.8
	c-2.2,2.1-2.7,3.7-1.4,6.8c5.9,14.3,12.1,28.5,16.9,43.2c8.4,25.8,13.3,52.3,8.5,79.6c-5.4,30.5-21.9,52.4-52.2,61.4
	c-18.1,5.4-37,6.3-55.9,4.1c-25.9-3.1-49.9-12.3-73.1-23.9c-3.4-1.7-5.3-1.5-8.2,1.1c-19.5,17.5-40.7,32.3-65.6,40.9
	c-7.8,2.7-15.9,4.3-23.9,6.4c-7.7,0-15.3,0-23,0c-0.6-0.3-1.1-0.7-1.7-0.8c-19-3.1-34.3-12.5-47.6-26.1
	c-17.3-17.6-26.7-39-31.7-62.7c-0.7-3.5-2-4.9-5.8-5.9C77.8,413.2,65,410,52.9,405c-20.1-8.3-36.3-21.6-45.6-41.8
	C4,356.1,2.4,348.4,0,341c0-7.3,0-14.7,0-22c3.2-10.6,5.6-21.6,9.8-31.7c11.9-28.3,31.7-51,53.6-72c2.1-2,2.8-3.5,1.6-6.3
	c-12.2-30.3-17.3-61.7-15-94.2c1.5-22.3,7.9-42.5,25-58c17-15.5,37.8-20.2,60.1-19.6c25.7,0.7,49.7,8.2,73.2,18.1
	c3.7,1.5,7.6,4.8,10.9,4.2c3.3-0.6,5.9-4.9,8.8-7.6c1.3-1.2,2.7-2.5,4-3.7c20.1-18.3,41.8-34.1,67.9-42.7c7.2-2.4,14.7-3.7,22.1-5.5
	c9,0,18,0,27,0c0.6,0.3,1.1,0.7,1.7,0.8C374,4.7,391.9,17,405.5,36c11.7,16.4,18.2,35,22.1,54.6c0.6,3.1,2,4.2,4.9,5.1
	c9.4,2.9,18.9,5.5,27.8,9.5c23.9,10.9,41.9,27.5,49.2,53.7C510.3,162.3,511.1,165.7,512,169z M228.4,387.3c1.5-0.3,2.1-0.4,2.8-0.5
	c33.9-8.2,66.5-19.9,98-35c1.8-0.9,3.5-2.6,4.5-4.4c17.7-31,32-63.5,42.9-97.5c0.6-1.9,0.2-4.8-0.9-6.3
	c-29.2-39.2-63.1-73.9-101.7-103.9c-1.5-1.2-4.4-1.7-6.3-1.1c-36.4,11.1-71.2,25.9-104.2,45c-1.7,1-3.4,2.8-4.2,4.6
	c-13.1,27-23.8,54.9-31.8,83.8c-0.5,1.9,0,4.7,1.1,6.4c27.5,39.8,59.9,75.2,96.5,106.8C226.1,386.1,227.6,386.8,228.4,387.3z
	 M312,444.4c-0.4-0.3,0,0.1,0.4,0.3c18.5,9.2,37.3,17.7,58,20.9c15.3,2.4,30.7,2.3,45.1-4.3c21.1-9.7,28.4-28.1,29.4-49.6
	c1.5-32.2-9.4-61.5-22.2-90.5c-1.3,0.8-2.3,1.3-3.2,1.9c-14,9.3-28,18.6-41.9,28c-2.1,1.4-3.9,3.5-5.2,5.7
	c-7.6,12.3-14.4,25.2-22.6,37.1C337.8,411,324.8,427.5,312,444.4z M84,197.2c21.7-17.4,44.2-32.1,67.8-45.2c1.6-0.9,2.8-2.7,3.9-4.3
	c11.6-17.7,23.1-35.4,34.6-53.1c0.8-1.2,1.6-2.4,2.4-3.6c-19.3-10.6-53.3-17.3-74.7-14.9c-24.1,2.8-40.3,16.8-45.2,40.6
	C67.1,144.5,73.4,170.8,84,197.2z M240.3,70.3c14.4,9.5,28.1,18.4,41.8,27.6c2.7,1.9,5.1,2.3,8.3,1.6c30.6-7,61.6-10.7,93.1-10
	c3,0.1,6.1,0,9.3,0c-2.9-14.5-7.2-27.8-14.9-39.9c-13.9-22-35.8-31.2-60.9-25.9C286,30.3,262.7,49.4,240.3,70.3z M259.9,442.4
	c-0.8-0.7-1.3-1.2-1.8-1.6c-12.4-9-24.7-18.1-37.2-27c-1.5-1.1-3.9-1.3-5.9-1.1c-20.2,2.3-40.3,5.4-60.5,7.1
	c-12.2,1.1-24.6,0.2-38.2,0.2c3.4,9.2,6,18,9.8,26.2c12.5,26.7,35.6,39.8,61.9,35.4C216.5,476.9,238.7,460.9,259.9,442.4z
	 M431.6,126.5c0,12.8,0.5,24.6-0.1,36.4c-1.3,24.5-5.7,48.6-11.5,72.4c-0.4,1.5-0.7,3.5,0,4.7c7,11.5,14.2,22.9,21.7,34.7
	c3.5-3.7,7-7.2,10.2-10.9c14.9-16.9,27.9-34.9,34.6-56.7c6-19.6,4.9-38.3-8.9-54.6C465.7,138.5,449.8,131.6,431.6,126.5z
	 M90.9,389.6c0.1-0.3,0.4-0.6,0.4-0.9c-1.6-35,2.5-69.4,10.5-103.5c0.3-1.4,0.1-3.4-0.6-4.7c-6.5-11.4-13.2-22.6-20.1-34.3
	c-3.6,4-7.2,7.8-10.6,11.9c-13.6,16.2-25.1,33.6-31,54.2C27.5,354.5,55.2,381,90.9,389.6z M119.4,307.2c-5.8,17.5-9.2,71.4-5.8,87.5
	c15,4.1,67.5,3.1,82.8-1.8C168.1,366.7,142.4,338.6,119.4,307.2z M395.9,121c-25.7-2.1-51.2,0.5-75.9,4.8c23.3,24,46.7,48,69.7,71.6
	C394.2,184.3,398.5,134.1,395.9,121z M309.6,386.2c-0.3-0.3-0.5-0.5-0.8-0.8c-19.4,6.5-38.8,13.1-59.1,19.9
	c9.4,6.6,18.4,13,28.3,19.9C288.8,412,299.2,399.1,309.6,386.2z M190.9,131.2c0.3,0.2,0.6,0.5,0.9,0.7c14.9-5.9,29.9-11.8,45.8-18.1
	c-8.5-4.8-16.1-9.1-24.1-13.7C205.7,110.8,198.3,121,190.9,131.2z M110.7,251.2c5.3-14.8,10.3-28.7,15.3-42.6
	c-0.3-0.2-0.5-0.5-0.8-0.7c-8.8,7.1-17.7,14.1-26.8,21.4C102.6,236.7,106.5,243.5,110.7,251.2z M404.4,286.6
	c-3.5,8.6-6.8,16.6-10,24.5c-0.3,0.7-0.4,1.5-0.9,3.4c6.8-5.1,12.8-9.5,18.8-14C409.6,295.8,407.2,291.5,404.4,286.6z M287.2,258.3
	c0,17.2-13.2,30.7-30,30.7c-16.5,0-30.1-14-30.1-30.9c0-17,13.5-30.6,30.3-30.6C274.2,227.5,287.2,240.9,287.2,258.3z"/>
</svg>
