<svg xmlns="http://www.w3.org/2000/svg" viewBox="0 0 72 72"><path d="M72,64c0,4.4-3.6,8-8,8H8c-4.4,0-8-3.6-8-8V8c0-4.4,3.6-8,8-8h56c4.4,0,8,3.6,8,8V64z" fill="#4caf50"/><g fill="#fff"><path d="M58.1 14.5c-.3-.2-.6-.2-.8 0l-13.8 7.3-13.8-7.3h-.6l-15 5c-.3.1-.6.4-.6.8V56c0 .3.1.5.3.7.1.1.3.2.5.2h.3L29.3 52l13.9 5.7c.1 0 .2.1.3.1h.4l14.2-7.5c.3-.1.4-.4.4-.7V15.2c0-.3-.2-.6-.4-.7zm-42.9 6.3l13.3-4.4v22.5c-.4.1-.7.1-1.1.2a.89.89 0 0 0-.6 1c.1.4.4.6.8.6h.2c.2-.1.4-.1.6-.1v9.9l-13.3 4.4V20.8zm15 19.5c.3 0 .5-.1.8-.1.5 0 .8-.4.8-.9s-.4-.8-.8-.8h-.8V16.6l12.5 6.6v17.7c-.6 0-1.2-.1-1.8-.2-.5-.1-.9.2-1 .7s.2.9.7 1c.7.1 1.5.2 2.2.2v13.1l-12.5-5.1V40.3zm26.6 8.5l-12.5 6.6v-13c.3-.1.5-.5.5-.8s-.2-.6-.5-.7V23.2l12.5-6.6v32.2zM22.7 21a4.23 4.23 0 0 0-4.2 4.2c0 2 1.4 3.7 3.3 4.1V31c0 .5.4.8.8.8.5 0 .8-.4.8-.8v-1.8c1.9-.4 3.3-2.1 3.3-4.1.1-2.2-1.7-4.1-4-4.1zm0 6.7c-1.4 0-2.5-1.1-2.5-2.5s1.1-2.5 2.5-2.5 2.5 1.1 2.5 2.5-1.2 2.5-2.5 2.5zm28.4 8.9c.1 0 .2.1.3.1.3 0 .6-.2.8-.5.4-1 .7-2.1.9-3.4.1-.5-.2-.9-.7-1s-.9.2-1 .7c-.2 1.1-.5 2.1-.8 3.1-.2.3 0 .8.5 1zm-26.9 3.9c-1 .6-1.9 1.4-2.7 2.4-.3.4-.3.9.1 1.2.2.1.3.2.5.2s.5-.1.6-.3c.7-.8 1.4-1.5 2.3-2 .4-.2.5-.8.3-1.1-.2-.6-.7-.7-1.1-.4z"/><path d="M20.7 45.4c-.4-.2-.9 0-1.1.4-.9 1.9-1.1 3.4-1.1 3.4a.75.75 0 0 0 .7.9h.1c.4 0 .8-.3.8-.7 0 0 .2-1.3.9-2.9.3-.4.1-.9-.3-1.1zm26.5-3.8c.1 0 .3 0 .4-.1 1.1-.6 2-1.3 2.8-2.3.3-.4.2-.9-.1-1.2-.4-.3-.9-.2-1.2.1-.6.8-1.4 1.4-2.3 1.9-.4.2-.6.7-.4 1.1.2.3.5.5.8.5zm-9.4-1.9l-.6-.3c-.1 0-.1 0-.2-.1l-2.6-.5c-.5-.1-.9.2-1 .7s.2.9.7.9c.8.1 1.6.3 2.4.5.1.1.3.2.6.3.1 0 .2.1.3.1.3 0 .6-.2.8-.5.2-.4 0-.9-.4-1.1zm14.8-9.6c.5 0 .9-.3.9-.8.1-.8.1-1.6.1-2.5v-.9c0-.5-.4-.8-.8-.8-.5 0-.8.4-.8.8v.9l-.1 2.4c-.1.5.2.9.7.9z"/><path d="M20.4 37.4c.2.2.4.2.6.2s.4-.1.6-.2l1.1-1.1 1.1 1.1c.2.2.4.2.6.2s.4-.1.6-.2c.3-.3.3-.9 0-1.2l-1.1-1.1L25 34c.3-.3.3-.9 0-1.2s-.9-.3-1.2 0L22.7 34l-1.1-1.1c-.3-.3-.9-.3-1.2 0s-.3.9 0 1.2l1.1 1.1-1.1 1.1c-.3.3-.3.8 0 1.1z"/></g></svg>