<svg xmlns="http://www.w3.org/2000/svg" viewBox="0 0 72 72"><path d="M72,64c0,4.4-3.6,8-8,8H8c-4.4,0-8-3.6-8-8V8c0-4.4,3.6-8,8-8h56c4.4,0,8,3.6,8,8V64z" fill="#1769ff"/><path d="M58.3 36.6c-.2-1.5-.7-2.9-1.6-4.1-.9-1.4-2.1-2.3-3.5-3-1.4-.6-3-.9-4.7-.9-2.9 0-5.3.9-7.2 2.8-1.8 1.9-2.8 4.5-2.8 8 0 3.7 1 6.4 3.1 8 2 1.6 4.4 2.5 7.1 2.5 3.2 0 5.7-1 7.5-2.9 1.2-1.2 1.8-2.4 1.9-3.6h-5.4c-.3.6-.7 1-1.1 1.4-.7.6-1.7.9-2.9.9-1.1 0-2.1-.2-2.9-.8-1.3-.8-2-2.2-2.1-4.2h14.6c.2-1.9.2-3.2 0-4.1zm-14.3.5c.2-1.3.7-2.3 1.4-3.1s1.8-1.1 3.1-1.1c1.2 0 2.3.4 3.1 1.1s1.3 1.8 1.4 3.2l-9-.1zm-1.1-13.9h11.3V26H42.9v-2.8zm-8.6 10.2c.9-1 1.3-2.4 1.3-4.1s-.4-3.1-1.3-4.3c-1.4-1.9-3.8-2.9-7.3-3H13.5v28h12.6c1.4 0 2.7-.1 4-.4 1.2-.3 2.3-.7 3.2-1.4.8-.6 1.5-1.3 2-2.2.8-1.3 1.2-2.8 1.2-4.5 0-1.6-.4-3-1.1-4.1s-1.8-2-3.2-2.5c.9-.4 1.6-.9 2.1-1.5zM20 26.9h5.2c1.3 0 2.4.1 3.3.4 1 .4 1.5 1.3 1.5 2.6 0 1.2-.4 2-1.1 2.5-.8.5-1.7.7-3 .7H20v-6.2zm8.7 17.7c-.7.3-1.6.5-2.8.5H20v-7.5h6c1.2 0 2.1.2 2.8.5 1.2.5 1.8 1.5 1.8 3-.1 1.8-.7 2.9-1.9 3.5z" fill="#fff"/></svg>