<?xml version="1.0" encoding="utf-8"?>
<svg version="1.1" id="behance" xmlns="http://www.w3.org/2000/svg" xmlns:xlink="http://www.w3.org/1999/xlink" x="0px" y="0px"
	 viewBox="0 0 72 72" enable-background="new 0 0 72 72" xml:space="preserve">
<path fill="#1769FF" d="M72,64c0,4.4-3.6,8-8,8H8c-4.4,0-8-3.6-8-8V8c0-4.4,3.6-8,8-8h56c4.4,0,8,3.6,8,8V64z"/>
<g>
	<path fill="#FFFFFF" d="M57.3,36.6c-0.2-1.6-0.8-3-1.6-4.1c-0.9-1.4-2.1-2.3-3.5-3c-1.4-0.6-3-0.9-4.7-0.9c-2.9,0-5.3,0.9-7.2,2.8
		c-1.8,1.9-2.8,4.5-2.8,8c0,3.7,1,6.4,3.1,8c2,1.6,4.4,2.5,7.1,2.5c3.2,0,5.7-1,7.5-2.9c1.2-1.2,1.8-2.4,1.9-3.6h-5.4
		c-0.3,0.6-0.7,1-1.1,1.4c-0.7,0.6-1.7,0.9-2.9,0.9c-1.1,0-2.1-0.2-2.9-0.8c-1.3-0.8-2-2.2-2.1-4.2h14.6
		C57.5,38.8,57.5,37.5,57.3,36.6z M43,37.1c0.2-1.3,0.7-2.3,1.4-3.1c0.7-0.8,1.8-1.1,3.1-1.1c1.2,0,2.3,0.4,3.1,1.1
		c0.8,0.7,1.3,1.8,1.4,3.2L43,37.1L43,37.1z"/>
	<rect x="41.9" y="23.2" fill="#FFFFFF" width="11.3" height="2.8"/>
	<path fill="#FFFFFF" d="M33.3,33.4c0.9-1,1.3-2.4,1.3-4.1c0-1.7-0.4-3.1-1.3-4.3c-1.4-1.9-3.8-2.9-7.3-3H12.5v28h12.6
		c1.4,0,2.7-0.1,4-0.4c1.2-0.3,2.3-0.7,3.2-1.4c0.8-0.6,1.5-1.3,2-2.2c0.8-1.3,1.2-2.8,1.2-4.5c0-1.6-0.4-3-1.1-4.1
		c-0.7-1.1-1.8-2-3.2-2.5C32.1,34.5,32.8,34,33.3,33.4z M19,26.9h5.2c1.3,0,2.4,0.1,3.3,0.4c1,0.4,1.5,1.3,1.5,2.6
		c0,1.2-0.4,2-1.1,2.5c-0.8,0.5-1.7,0.7-3,0.7H19L19,26.9L19,26.9z M27.7,44.6c-0.7,0.3-1.6,0.5-2.8,0.5H19v-7.5h6
		c1.2,0,2.1,0.2,2.8,0.5c1.2,0.5,1.8,1.5,1.8,3C29.5,42.9,28.9,44,27.7,44.6z"/>
</g>
</svg>
