<?xml version="1.0" encoding="utf-8"?>
<!-- Generator: Adobe Illustrator 22.0.0, SVG Export Plug-In . SVG Version: 6.00 Build 0)  -->
<svg version="1.1" id="bugs" xmlns="http://www.w3.org/2000/svg" xmlns:xlink="http://www.w3.org/1999/xlink" x="0px" y="0px"
	 viewBox="0 0 256 256" enable-background="new 0 0 256 256" xml:space="preserve">
<path fill="#A54824" d="M223.4,256H32.6C14.7,256,0,241.3,0,223.4V32.6C0,14.7,14.7,0,32.6,0h190.8C241.3,0,256,14.7,256,32.6v190.8
	C256,241.3,241.3,256,223.4,256z"/>
<g>
	<path fill="#FFFFFF" d="M178.5,161.3c-0.1,1.6,0.7,3.1,2.1,3.8c1.3,0.6,2.6,1.3,3.8,2c15.6,8.4,23.7,22.1,24.5,41
		c0.2,5.1-0.6,9.7-6.2,10.1c-5.9,0.4-7.1-4.2-7.4-9.7c-0.8-14.8-7.9-25-20.4-29.4c-1.7-0.6-3.6,0-4.6,1.6
		c-7.3,11.3-16.1,20.7-28.5,26c-2.6,1.1-5.5-0.8-5.5-3.6c0-17.3,0.1-33.6-0.1-50c-0.1-5.6,0-14.2-6.1-14.3
		c-6.8-0.2-6.6,8.5-6.7,14.3c-0.3,15.8-0.1,31.5-0.1,47.2v2.7c0,2.8-2.9,4.7-5.5,3.6c-12.6-5.5-21.3-14.8-28.5-26
		c-1-1.5-2.9-2.2-4.7-1.6c-12.7,4.5-19.4,14.4-20.4,30.2c-0.3,5.2-1.9,9.3-7.4,8.9c-5.2-0.3-6.3-4.5-6.2-9.3
		c0.7-19.1,8.7-33.1,24.5-41.7c1.3-0.7,2.7-1.4,3.9-2.1c1.4-0.7,2.2-2.2,2.1-3.8c-0.5-6.5-4.4-7.9-10.3-7.3c-10,1-12.6,1.2-17.4-0.1
		c-1.8-0.5-4.6-1.5-7.6-3.9c-0.2-0.2-0.4-0.3-0.6-0.6c-0.4-0.5-0.9-1.2-1-2.3c-0.1-0.7,0-1.4,0.2-2c0.4-1.1,1.2-1.9,2.3-2.3
		c4-1.5,7.5-2.3,10-2.7c2.9-0.5,5.4-0.5,10-0.7c2.8-0.1,5.3-0.1,7.4-0.1c2,0,3.8-1.5,3.9-3.6c0.2-2.2,0-4.9-0.9-7.5
		c-0.8-2.3-2.2-4.4-4.4-6.5c-12.5-12.6-15.9-29.3-15.3-47c0.1-2.4,3.9-6.4,6-6.4c2.3,0,5.2,3.4,6.7,6c1.1,2,0.3,5.2,0.6,7.8
		c1.4,12.8,4,25.6,15.4,32.2c25.9,14.9,52.7,15.7,80,4.3c10.1-4.2,16.8-11.9,19.6-23.1c1.7-6.7,2-13.8,3-20.7c0.6-4.3,2.7-8,6.9-6.8
		c2.5,0.7,6,4.3,6.1,6.7c0.6,17.7-2.8,34.5-15.3,46.9c-4.3,4.3-5.7,8.5-5.2,13.9c0.2,2.1,2,3.6,4.1,3.5c3.5-0.1,6.5-0.1,8.9,0
		c3.3,0.2,6.3,0.3,10,1.1c3.3,0.7,6.1,1.6,8.1,2.4c0.5,0.2,1,0.5,1.4,0.9c0.7,0.8,1.1,1.8,0.9,2.9c-0.2,1.1-0.8,1.8-1.1,2
		c-2.9,3.3-5.8,4.6-7.8,5.2c-4.2,1.3-7,1.4-18,0C181.7,153,178.9,155.6,178.5,161.3z"/>
	<path fill="#FFFFFF" d="M130.7,117.6c-8.5-1.2-15.8-1.8-23-3.5c-9.4-2.3-14.9-8.9-16.2-19.6c-1.2-10.4,1.6-18.9,9.8-24.3
		c5.5-3.6,10.2-6.9,13.3-13.9c3-6.9,9.8-9.6,17.1-8.7c7.3,0.8,12,5.3,15.5,12.2c1.4,2.8,3.8,5.7,6.4,7.2c12,6.7,16.6,16.3,14,30.2
		c-1.5,8.2-5.8,13.9-13.1,15.8C146.4,115.3,138,116.3,130.7,117.6z"/>
</g>
</svg>
