<?xml version="1.0" encoding="utf-8"?>
<!-- Generator: Adobe Illustrator 19.2.1, SVG Export Plug-In . SVG Version: 6.00 Build 0)  -->
<svg version="1.1" id="Vrstva_1" xmlns="http://www.w3.org/2000/svg" xmlns:xlink="http://www.w3.org/1999/xlink" x="0px" y="0px"
	 viewBox="0 0 256.5 256.5" style="enable-background:new 0 0 256.5 256.5;" xml:space="preserve">
<style type="text/css">
	.st0{fill:#968E8C;stroke:#FFFFFF;stroke-width:0.5166;stroke-miterlimit:10;}
	.st1{fill:#FFFFFF;}
</style>
<path class="st0" d="M223.6,256.3H32.9c-17.9,0-32.6-14.7-32.6-32.6V32.9c0-17.9,14.7-32.6,32.6-32.6h190.8
	c17.9,0,32.6,14.7,32.6,32.6v190.8C256.3,241.6,241.6,256.3,223.6,256.3z"/>
<g>
	<g id="Game_Pad">
		<g>
			<path class="st1" d="M209.7,119.2c-8.4-38.3-20.2-47.8-27.4-51.6c-11.5-6.1-24.9-2.6-29.3-0.2c-5,2.6-8.4,7.5-13.5,9.7
				c-5.9,2.4-13.9,3.1-20,0.2c-4.8-2.4-9-7.5-14.9-9.7c-7.4-2.8-19.7-6.8-31.9,1.9c-2.9,2-23.4,19.3-29.6,73.1
				c-3.8,33.2,14.4,43.9,13.7,43.4c4.7,3.4,15.2,9,29.4,0.1c9.5-5.9,17.2-17.6,17.2-17.6s3.4-6.5,8-9.3c3.2-2,8.1-0.5,8.1-0.5h17.1
				c0,0,5.4-0.7,9.2,1c3.7,1.6,5.8,5.6,5.8,5.6s11.3,14.6,22.1,22c4.6,3.1,23,6.8,32.6-4.9C212.5,174.7,216.7,151.2,209.7,119.2z
				 M118.5,115.8c0,2.9-2.3,5.3-5.2,5.3h-12.9v13.2c0,2.9-2.3,5.3-5.2,5.3h-3.9c-2.8,0-5.2-2.3-5.2-5.3v-13.2h-13
				c-2.8,0-5.2-2.3-5.2-5.3v-4c0-2.9,2.3-5.3,5.2-5.3h12.9V93.3c0-2.9,2.3-5.3,5.2-5.3h3.9c2.8,0,5.2,2.4,5.2,5.3v13.2h12.9
				c2.8,0,5.2,2.3,5.2,5.3L118.5,115.8L118.5,115.8z M154.9,134.3c-5.3,0-9.7-4.4-9.7-9.9s4.3-9.9,9.7-9.9s9.7,4.4,9.7,9.9
				C164.6,129.9,160.3,134.3,154.9,134.3z M172.7,112.3c-5.3,0-9.6-4.4-9.6-9.8c0-5.4,4.3-9.8,9.6-9.8c5.3,0,9.6,4.4,9.6,9.8
				C182.3,107.9,178,112.3,172.7,112.3z"/>
		</g>
	</g>
</g>
</svg>
