<?xml version="1.0" encoding="utf-8"?>
<!-- Generator: Adobe Illustrator 22.0.0, SVG Export Plug-In . SVG Version: 6.00 Build 0)  -->
<svg version="1.1" id="graphics" xmlns="http://www.w3.org/2000/svg" xmlns:xlink="http://www.w3.org/1999/xlink" x="0px" y="0px"
	 viewBox="0 0 256 256" enable-background="new 0 0 256 256" xml:space="preserve">
<path fill="#08B514" d="M223.3,256H32.6C14.7,256,0,241.3,0,223.4V32.6C0,14.7,14.7,0,32.6,0h190.8C241.3,0,256,14.7,256,32.6v190.8
	C256,241.3,241.3,256,223.3,256z"/>
<g>
	<path fill="#FFFFFF" d="M136.5,124.3l7.3,7.8l5.5,5.9l4.3-5.7l-9.2-8.5c-0.9-0.9-0.9-2.2-0.1-3.1c0.8-0.9,2.1-0.9,3-0.1l8.9,8.2
		l1.8-2.4l-2-1.9l-10-9.7L136.5,124.3z"/>
	<path fill="#FFFFFF" d="M140.2,96.2c-0.1-0.2-10.5-11-24.7-11c-7.6,0-15.1,3.1-22.2,9.2c4.9,1.4,12.9,5.6,19.4,18
		c0.1,0.3,0.2,0.6,0.2,0.9c0.2,2.8,1.3,5.3,3.1,7.1c2,2,4.8,3.1,8.1,3.1c4.6,0,9.4-2.1,13.2-5.9c3.3-3.3,5.3-7.4,5.8-11.5
		C143.5,102.2,142.5,98.7,140.2,96.2z"/>
	<path fill="#FFFFFF" d="M132.2,126.1c-2.7,1.1-5.4,1.7-8.2,1.7c-4.4,0-8.4-1.6-11.2-4.4c-2.5-2.4-3.9-5.7-4.3-9.4
		c-8.2-15.2-18-16-19.9-16c-0.9,0.1-1.8-0.4-2.2-1.2c-0.3-0.8-0.2-1.8,0.4-2.4c8.9-8.9,18.5-13.4,28.5-13.4
		c16.1,0,27.3,11.8,27.8,12.3c3.3,3.3,4.8,8,4.2,13.3c-0.1,1-0.3,2.1-0.6,3.2c0.3,0.1,0.6,0.3,0.8,0.5l7.9,7.6V65.2
		c0-0.9-0.8-1.7-1.7-1.7H43.5c-0.9,0-1.7,0.8-1.7,1.7v65.1h94.4L132.2,126.1z"/>
	<path fill="#FFFFFF" d="M82.6,170.4c0,0.3,0.1,0.5,0.1,0.5l31.9-0.1c0-0.1,0.1-0.2,0.1-0.4v-3.2H82.6V170.4z"/>
	<path fill="#FFFFFF" d="M82.5,152.4c0.1,0,0,0.2,0,0.4v10h32.2v-10c0-0.2-0.1-0.3-0.1-0.4H82.5z"/>
	<path fill="#FFFFFF" d="M41.7,134.6v11.8c0,0.9,0.8,1.7,1.7,1.7h39h32.3h38.1l-12.6-13.5H41.7z"/>
	<path fill="#FFFFFF" d="M210.2,176.8l-49-47.3l-1.8,2.3l30.5,28.3c0.9,0.8,0.9,2.1,0.1,3c-0.4,0.5-1,0.7-1.6,0.7
		c-0.6,0-1.1-0.2-1.5-0.6l-30.2-28l-4.5,6l5.9,6.3l39.3,42.1c1.4,1.4,3.4,2.2,5.6,2.2c2.4,0,4.8-1,6.6-2.8
		C213.2,185.5,213.4,180,210.2,176.8z"/>
</g>
</svg>
