<svg xmlns="http://www.w3.org/2000/svg" viewBox="0 0 256 256"><path fill="#08b514" d="M223.3 256H32.6C14.7 256 0 241.3 0 223.4V32.6C0 14.7 14.7 0 32.6 0h190.8C241.3 0 256 14.7 256 32.6v190.8c0 17.9-14.7 32.6-32.7 32.6z"/><path d="M136.5 125.3l7.3 7.8 5.5 5.9 4.3-5.7-9.2-8.5c-.9-.9-.9-2.2-.1-3.1s2.1-.9 3-.1l8.9 8.2 1.8-2.4-2-1.9-10-9.7-9.5 9.5zm3.6-28c-.1-.2-10.5-11-24.6-11-7.6 0-15 3.1-22.1 9.2 4.9 1.4 12.8 5.6 19.3 17.9.1.3.2.6.2.9.2 2.8 1.3 5.3 3.1 7.1 2 2 4.8 3.1 8.1 3.1 4.6 0 9.4-2.1 13.1-5.9 3.3-3.3 5.3-7.4 5.8-11.4.4-3.9-.6-7.4-2.9-9.9zm-7.9 29.8c-2.7 1.1-5.4 1.7-8.2 1.7-4.4 0-8.4-1.6-11.2-4.4-2.5-2.4-3.9-5.7-4.3-9.4-8.2-15.1-17.9-15.9-19.8-15.9-.9.1-1.8-.4-2.2-1.2-.3-.8-.2-1.8.4-2.4 8.9-8.9 18.4-13.3 28.4-13.3 16 0 27.2 11.7 27.7 12.2 3.3 3.3 4.8 8 4.2 13.2a19.85 19.85 0 0 1-.6 3.2c.3.1.6.3.8.5l7.9 7.6V66.5c0-.9-.8-1.7-1.7-1.7H43.9c-.9 0-1.7.8-1.7 1.7v64.8h94l-4-4.2zm-49.4 44.1c0 .3.1.5.1.5l31.8-.1c0-.1.1-.2.1-.4V168h-32v3.2zm-.1-17.9c.1 0 0 .2 0 .4v10h32.1v-10c0-.2-.1-.3-.1-.4h-32zm-40.6-17.7v11.7c0 .9.8 1.7 1.7 1.7h108.9l-12.5-13.4H42.1zm167.7 42L161 130.5l-1.8 2.3 30.4 28.2c.9.8.9 2.1.1 3-.4.5-1 .7-1.6.7s-1.1-.2-1.5-.6l-30.1-27.9-4.5 6 5.9 6.3 39.1 41.9c1.4 1.4 3.4 2.2 5.6 2.2 2.4 0 4.8-1 6.6-2.8 3.6-3.6 3.8-9 .6-12.2z" fill="#fff"/></svg>