<svg xmlns="http://www.w3.org/2000/svg" xmlns:xlink="http://www.w3.org/1999/xlink" viewBox="0 0 256 256"><path fill="#465177" d="M223.3 256H32.6C14.7 256 0 241.3 0 223.4V32.6C0 14.7 14.7 0 32.6 0h190.8C241.3 0 256 14.7 256 32.6v190.8c0 17.9-14.7 32.6-32.7 32.6z"/><g fill="#fff"><use xlink:href="#B"/><path d="M149.7 62.9c1.4 0 2.6-1.1 2.6-2.5V45.2c0-1.4-1.1-2.5-2.6-2.5-1.4 0-2.5 1.1-2.5 2.5v15.1c-.1 1.4 1.1 2.6 2.5 2.6z"/><use xlink:href="#B" x="-27.9"/><use xlink:href="#C"/><use xlink:href="#C" x="-12.7"/><use xlink:href="#B" x="-68.3"/><path d="M60.3 89H45.2c-1.4 0-2.5 1.1-2.5 2.5s1.1 2.5 2.5 2.5h15.1c1.4 0 2.5-1.1 2.5-2.5S61.7 89 60.3 89z"/><use xlink:href="#D"/><use xlink:href="#E"/><use xlink:href="#D" y="27.9"/><path d="M60.3 143.5H45.2c-1.4 0-2.5 1.1-2.5 2.5s1.1 2.6 2.5 2.6h15.1c1.4 0 2.5-1.1 2.5-2.6.1-1.4-1.1-2.5-2.5-2.5z"/><use xlink:href="#E" y="40.4"/><use xlink:href="#F"/><path d="M149.7 192.5c-1.4 0-2.5 1.1-2.5 2.5v15.1c0 1.4 1.1 2.5 2.5 2.5s2.6-1.1 2.6-2.5V195c-.1-1.4-1.2-2.5-2.6-2.5z"/><use xlink:href="#F" x="-27.9"/><use xlink:href="#G"/><use xlink:href="#G" x="-12.7"/><use xlink:href="#G" x="-26.6"/><path d="M170.5 69.5H88.1c-8.7 0-15.6 7.1-15.6 15.6v82.4c0 8.7 7.1 15.7 15.6 15.7h82.4c8.7 0 15.6-7.1 15.6-15.7V85.2c.1-8.6-6.9-15.7-15.6-15.7zm-74.4 25a4.95 4.95 0 0 1-5-5 4.95 4.95 0 0 1 5-5c2.8 0 5 2.3 5 5a4.95 4.95 0 0 1-5 5zm59.8 56.8h-52.4v-53h52.4v53zM195 94.1h15.1c1.4 0 2.5-1.1 2.5-2.5s-1.1-2.5-2.5-2.5H195c-1.4 0-2.5 1.1-2.5 2.5s1.1 2.5 2.5 2.5z"/><use xlink:href="#H"/><use xlink:href="#I"/><use xlink:href="#H" y="27.9"/><path d="M210.2 143.5h-15.1c-1.4 0-2.5 1.1-2.5 2.5s1.1 2.6 2.5 2.6h15.1c1.4 0 2.5-1.1 2.5-2.6 0-1.4-1.1-2.5-2.5-2.5z"/><use xlink:href="#I" y="40.4"/></g><defs ><path id="B" d="M163.5 62.9c1.4 0 2.5-1.1 2.5-2.5V45.2c0-1.4-1.1-2.5-2.5-2.5s-2.5 1.1-2.5 2.5v15.1c0 1.4 1.1 2.6 2.5 2.6z"/><path id="C" d="M121.8 62.9c1.4 0 2.5-1.1 2.5-2.5V45.2c0-1.4-1.1-2.5-2.5-2.5s-2.5 1.1-2.5 2.5v15.1c-.1 1.4 1.1 2.6 2.5 2.6z"/><path id="D" d="M60.3 102.9H45.2c-1.4 0-2.5 1.1-2.5 2.5s1.1 2.5 2.5 2.5h15.1c1.4 0 2.5-1.1 2.5-2.5.1-1.4-1.1-2.5-2.5-2.5z"/><path id="E" d="M60.3 116.9H45.2c-1.4 0-2.5 1.1-2.5 2.5s1.1 2.5 2.5 2.5h15.1c1.4 0 2.5-1.1 2.5-2.5.1-1.3-1.1-2.5-2.5-2.5z"/><path id="F" d="M163.5 192.5c-1.4 0-2.5 1.1-2.5 2.5v15.1c0 1.4 1.1 2.5 2.5 2.5s2.5-1.1 2.5-2.5V195c.1-1.4-1.1-2.5-2.5-2.5z"/><path id="G" d="M121.8 192.5c-1.4 0-2.5 1.1-2.5 2.5v15.1c0 1.4 1.1 2.5 2.5 2.5s2.5-1.1 2.5-2.5V195c0-1.4-1.1-2.5-2.5-2.5z"/><path id="H" d="M210.2 102.9h-15.1c-1.4 0-2.5 1.1-2.5 2.5s1.1 2.5 2.5 2.5h15.1c1.4 0 2.5-1.1 2.5-2.5s-1.1-2.5-2.5-2.5z"/><path id="I" d="M210.2 116.9h-15.1c-1.4 0-2.5 1.1-2.5 2.5s1.1 2.5 2.5 2.5h15.1c1.4 0 2.5-1.1 2.5-2.5 0-1.3-1.1-2.5-2.5-2.5z"/></defs></svg>