<?xml version="1.0" encoding="utf-8"?>
<!-- Generator: Adobe Illustrator 22.0.0, SVG Export Plug-In . SVG Version: 6.00 Build 0)  -->
<svg version="1.1" id="journal" xmlns="http://www.w3.org/2000/svg" xmlns:xlink="http://www.w3.org/1999/xlink" x="0px" y="0px"
	 viewBox="0 0 256 256" enable-background="new 0 0 256 256" xml:space="preserve">
<path fill="#D89113" d="M223.3,256H32.6C14.7,256,0,241.3,0,223.4V32.6C0,14.7,14.7,0,32.6,0h190.8C241.3,0,256,14.7,256,32.6v190.8
	C256,241.3,241.3,256,223.3,256z"/>
<g>
	<path fill="#FFFFFF" d="M155.7,205.5c12.8-16.2,24.5-31.1,36.2-45.9c0.5,0.2,0.9,0.4,1.4,0.5c0,13.5,0.2,27-0.2,40.5
		c0,1.7-3,4.6-4.7,4.6C178,205.7,167.7,205.5,155.7,205.5z"/>
	<path fill="#FFFFFF" d="M63.1,100.3c0-8.6,0-16,0-24.4c-4.5,0-8.8,0-13.1,0c-4.1,0-7.5-0.8-7.6-5.8c-0.1-5.1,3.1-6.1,7.3-6
		c4.1,0.1,8.3,0,13.7,0c0-4,0-7.6,0-11.2c0-5.5,2.1-8.6,8.2-8.5c38.1,0.1,76.3,0.1,114.4,0c5.4,0,7.5,2.4,7.4,7.6
		c-0.1,19.9,0.1,39.8-0.2,59.6c-0.1,3.1-2,6.6-3.9,9.1c-18.3,23.5-36.9,46.9-55.2,70.3c-1.8,2.3-4.1,5-4.3,7.7
		c-0.5,6.5-4.2,7.1-9.4,7c-15.5-0.2-31,0-46.5-0.1c-9.2,0-10.4-1.3-10.5-10.4c0-3,0-5.9,0-10c-5.1,0-9.6,0-14.1,0
		c-3.9-0.1-6.8-1.2-6.9-5.9c0-4.7,2.7-5.7,6.7-5.9c14.3-0.7,14.3-0.8,14.3-14.9c0-2.8,0-5.5,0-9.8c-5.2,0-9.9,0-14.6,0
		c-3.6,0-6.4-1-6.4-5.4c0-4.7,2.7-5.7,6.7-5.9c14.3-0.7,14.3-0.8,14.3-15.6c0-9.6,0-9.6-9.8-9.6c-1.6,0-3.6,0.6-4.8-0.2
		c-2.4-1.4-5.5-3.2-6.1-5.5c-1.1-4.2,2.1-6.2,6.2-6.3C53.4,100.3,57.9,100.3,63.1,100.3z M76.3,151.6c5.2-0.3,8.2-3.1,8.8-8
		c0.5-4.4-4.1-9.2-8.6-8.8c-4.9,0.4-8.2,3.2-8.3,8.3C68.2,148.2,71.4,150.9,76.3,151.6z M76.5,187.7c5.1-0.5,8.4-3.3,8.5-8.3
		s-3-8.1-8-8.6c-4.6-0.5-9.1,3.9-8.8,8.5C68.5,184.4,71.6,187.1,76.5,187.7z M76.7,114.8c5.2-0.7,8.5-3.5,8.3-8.6
		c-0.2-4.9-3.4-8.1-8.6-7.9c-5.1,0.2-8.2,3.3-8.1,8.4C68.4,111.9,71.9,114.3,76.7,114.8z M75.5,78.2c5.9,0.1,9.1-2.8,9.5-7.7
		c0.3-5-2.6-8.4-7.9-8.7c-5.2-0.3-8.5,2.6-8.9,7.7C68,74.5,71,77.5,75.5,78.2z"/>
	<path fill="#FFFFFF" d="M148.9,207.2c-4.8-3.7-8.9-6.9-13.8-10.7c17-21.6,33.8-42.9,51-64.8c4.5,3.4,8.8,6.7,13.9,10.5
		C183.1,163.8,166.3,185.1,148.9,207.2z"/>
	<path fill="#FFFFFF" d="M207.3,134.5c-5.4-4.3-9.5-7.5-14.8-11.7c3.5-3.2,6.9-8.5,9.5-8.1c4.1,0.7,9.1,4.4,10.9,8.1
		C213.9,125.1,209.6,129.9,207.3,134.5z"/>
	<path fill="#FFFFFF" d="M134.6,201.6c3.2,2.5,6.3,5,9.5,7.5c-0.1,0.7-0.2,1.4-0.3,2.1c-2.7-0.1-6,0.7-7.8-0.6
		c-2.1-1.5-2.8-4.9-4.1-7.4C132.8,202.6,133.7,202.1,134.6,201.6z"/>
</g>
</svg>
