<?xml version="1.0" encoding="utf-8"?>
<!-- Generator: Adobe Illustrator 19.2.1, SVG Export Plug-In . SVG Version: 6.00 Build 0)  -->
<svg version="1.1" id="Vrstva_1" xmlns="http://www.w3.org/2000/svg" xmlns:xlink="http://www.w3.org/1999/xlink" x="0px" y="0px"
	 viewBox="0 0 256.5 256.5" style="enable-background:new 0 0 256.5 256.5;" xml:space="preserve">
<style type="text/css">
	.st0{fill:#D89113;stroke:#FFFFFF;stroke-width:0.5166;stroke-miterlimit:10;}
	.st1{fill:#FFFFFF;}
</style>
<path class="st0" d="M223.6,256.3H32.9c-17.9,0-32.6-14.7-32.6-32.6V32.9c0-17.9,14.7-32.6,32.6-32.6h190.8
	c17.9,0,32.6,14.7,32.6,32.6v190.8C256.3,241.6,241.6,256.3,223.6,256.3z"/>
<path class="st1" d="M63.4,100.6c0-8.6,0-16,0-24.4c-4.5,0-8.8,0-13.1,0c-4.1,0-7.5-0.8-7.6-5.8c-0.1-5.1,3.1-6.1,7.3-6
	c4.1,0.1,8.3,0,13.7,0c0-4,0-7.6,0-11.2c0-5.5,2.1-8.6,8.2-8.5c38.1,0.1,76.3,0.1,114.4,0c5.4,0,7.5,2.4,7.4,7.6
	c-0.1,19.9,0.1,39.8-0.2,59.6c-0.1,3.1-2,6.6-3.9,9.1c-18.3,23.5-36.9,46.9-55.2,70.3c-1.8,2.3-4.1,5-4.3,7.7
	c-0.5,6.5-4.2,7.1-9.4,7c-15.5-0.2-31,0-46.5-0.1c-9.2,0-10.4-1.3-10.5-10.4c0-3,0-5.9,0-10c-5.1,0-9.6,0-14.1,0
	c-3.9-0.1-6.8-1.2-6.9-5.9c0-4.7,2.7-5.7,6.7-5.9c14.3-0.7,14.3-0.8,14.3-14.9c0-2.8,0-5.5,0-9.8c-5.2,0-9.9,0-14.6,0
	c-3.6,0-6.4-1-6.4-5.4c0-4.7,2.7-5.7,6.7-5.9c14.3-0.7,14.3-0.8,14.3-15.6c0-9.6,0-9.6-9.8-9.6c-1.6,0-3.6,0.6-4.8-0.2
	c-2.4-1.4-5.5-3.2-6.1-5.5c-1.1-4.2,2.1-6.2,6.2-6.3C53.7,100.6,58.2,100.6,63.4,100.6z M76.6,151.9c5.2-0.3,8.2-3.1,8.8-8
	c0.5-4.4-4.1-9.2-8.6-8.8c-4.9,0.4-8.2,3.2-8.3,8.3C68.5,148.5,71.7,151.2,76.6,151.9z M76.8,188c5.1-0.5,8.4-3.3,8.5-8.3
	c0.1-5-3-8.1-8-8.6c-4.6-0.5-9.1,3.9-8.8,8.5C68.8,184.7,71.9,187.4,76.8,188z M77,115.1c5.2-0.7,8.5-3.5,8.3-8.6
	c-0.2-4.9-3.4-8.1-8.6-7.9c-5.1,0.2-8.2,3.3-8.1,8.4C68.7,112.2,72.2,114.6,77,115.1z M75.8,78.5c5.9,0.1,9.1-2.8,9.5-7.7
	c0.3-5-2.6-8.4-7.9-8.7c-5.2-0.3-8.5,2.6-8.9,7.7C68.3,74.8,71.3,77.8,75.8,78.5z"/>
<path class="st1" d="M149.2,207.5c-4.8-3.7-8.9-6.9-13.8-10.7c17-21.6,33.8-42.9,51-64.8c4.5,3.4,8.8,6.7,13.9,10.5
	C183.4,164.1,166.6,185.4,149.2,207.5z"/>
<path class="st1" d="M156,205.8c12.8-16.2,24.5-31.1,36.2-45.9c0.5,0.2,0.9,0.4,1.4,0.5c0,13.5,0.2,27-0.2,40.5c0,1.7-3,4.6-4.7,4.6
	C178.3,206,168,205.8,156,205.8z"/>
<path class="st1" d="M207.6,134.8c-5.4-4.3-9.5-7.5-14.8-11.7c3.5-3.2,6.9-8.5,9.5-8.1c4.1,0.7,9.1,4.4,10.9,8.1
	C214.2,125.4,209.9,130.2,207.6,134.8z"/>
<path class="st1" d="M134.9,201.9c3.2,2.5,6.3,5,9.5,7.5c-0.1,0.7-0.2,1.4-0.3,2.1c-2.7-0.1-6,0.7-7.8-0.6c-2.1-1.5-2.8-4.9-4.1-7.4
	C133.1,202.9,134,202.4,134.9,201.9z"/>
</svg>
