<?xml version="1.0" encoding="utf-8"?>
<!-- Generator: Adobe Illustrator 19.2.1, SVG Export Plug-In . SVG Version: 6.00 Build 0)  -->
<svg version="1.1" id="Vrstva_1" xmlns="http://www.w3.org/2000/svg" xmlns:xlink="http://www.w3.org/1999/xlink" x="0px" y="0px"
	 viewBox="0 0 256.5 256.5" style="enable-background:new 0 0 256.5 256.5;" xml:space="preserve">
<style type="text/css">
	.st0{fill:#0262A3;stroke:#FFFFFF;stroke-width:0.5166;stroke-miterlimit:10;}
	.st1{fill:#FFFFFF;}
</style>
<path class="st0" d="M223.6,256.3H32.9c-17.9,0-32.6-14.7-32.6-32.6V32.9c0-17.9,14.7-32.6,32.6-32.6h190.8
	c17.9,0,32.6,14.7,32.6,32.6v190.8C256.3,241.6,241.6,256.3,223.6,256.3z"/>
<path class="st1" d="M78,186.1c0.7-5.4,0.6-11.1,2.3-16.2c3.1-9.9,10.4-16,20.9-17c7.4-0.7,15.1-0.8,22.5-0.1
	c14.3,1.4,23.4,11.8,23.7,26.3c0.1,5.6-0.1,11.3,0.1,16.9c0.1,2.7-1,3.8-3.3,4.6c-11.6,4.3-23.6,6-35.9,4.7c-9-1-18-3.2-26.9-4.9
	c-2.1-0.4-2.9-1.4-2.8-3.6c0.2-3.5,0-7,0-10.5C78.4,186.1,78.2,186.1,78,186.1z"/>
<path class="st1" d="M86.8,132c2.6,5.9,5.1,11.5,7.7,17.2c-15.4,6-21.7,18.3-20.8,35.2c-10.2-0.4-19.6-2.5-28.9-5.4
	c-0.7-0.2-1.5-1.7-1.5-2.6c0-7.5-0.2-15.1,0.3-22.6c0.7-10.5,10-20.5,20.8-21.7C72,131.3,79.9,132,86.8,132z"/>
<path class="st1" d="M185.3,164.3c1.1-17.1-5.3-29.5-21.6-35.8c4-4.6,6.8-9.5,7.3-15.5c0-0.6,1.1-1.6,1.6-1.6
	c8,0.4,16.1-0.1,23.8,1.6c9.8,2.1,16.7,11.8,17.3,21.8c0.4,7,0.3,14,0.2,21c0,1-1,2.6-2,3C203.6,162.4,194.9,164,185.3,164.3z"/>
<path class="st1" d="M152,184.6c1.2-17-5.1-29.3-20.7-35.4c2.5-5.5,4.9-11,7.8-17.3c11.4-3.9,28.8,0.5,36.2,10
	c3.2,4.1,5,8.7,5.2,13.8c0.2,6.8,0.2,13.5,0.1,20.3c0,1-0.7,2.6-1.5,3C170.6,182.6,161.7,184.3,152,184.6z"/>
<path class="st1" d="M111.9,92.7c-12,0-21.8-9.7-21.8-21.7c0-12.1,10-22.1,22-22c11.9,0.2,21.7,10.1,21.7,22
	C133.7,83,123.9,92.7,111.9,92.7z"/>
<path class="st1" d="M113,150.9c-11.1,0-20.1-8.9-20.1-20c0-11.1,8.9-20.1,20-20.1c11.1,0,20.1,9,20.2,20.1
	C133.1,141.8,124.1,150.9,113,150.9z"/>
<path class="st1" d="M57.5,110.1c0-10.8,8.1-19.4,19.2-20.2c10-0.7,19.7,7.4,20.7,17.8c0.2,1.7-0.8,3.7-1.7,5.3
	c-2.1,3.9-4.4,7.7-6.8,11.5c-1,1.5-2.1,3.4-3.7,4.1C72.2,134.2,57.5,124.4,57.5,110.1z"/>
<path class="st1" d="M166.3,109.9c0.1,13.3-12.3,22.9-25.1,19.6c-2.2-0.6-3.7-1.5-4.2-4c-1-5.8-4-10.5-8.8-14
	c-2-1.4-2.2-3.1-1.8-5.2c1.9-9.8,11.3-17.3,20.8-16.4C158.4,90.9,166.3,99.2,166.3,109.9z"/>
<path class="st1" d="M199.6,89.8c0,13.2-12.6,22.8-25.3,19.4c-2.2-0.6-3.6-1.6-4-4.2c-1.1-5.7-4.3-10.3-8.8-14
	c-1.1-0.9-1.9-3-1.7-4.3c1.3-10,10.8-17.7,20.6-17C191.5,70.4,199.6,78.9,199.6,89.8z"/>
<path class="st1" d="M126.3,94.8c-1.6,4.5-2.9,8.5-4.4,12.7c-6.5-2.3-13.4-2.3-19.7,1c-1.5-4.6-2.9-8.9-4.4-13.7
	C107.1,94.8,116.6,94.8,126.3,94.8z"/>
</svg>
