<?xml version="1.0" encoding="utf-8"?>
<!-- Generator: Adobe Illustrator 22.0.0, SVG Export Plug-In . SVG Version: 6.00 Build 0)  -->
<svg version="1.1" id="members" xmlns="http://www.w3.org/2000/svg" xmlns:xlink="http://www.w3.org/1999/xlink" x="0px" y="0px"
	 viewBox="0 0 256 256" enable-background="new 0 0 256 256" xml:space="preserve">
<path fill="#0262A3" d="M223.3,256H32.6C14.7,256,0,241.3,0,223.4V32.6C0,14.7,14.7,0,32.6,0h190.8C241.3,0,256,14.7,256,32.6v190.8
	C256,241.3,241.3,256,223.3,256z"/>
<g>
	<path fill="#FFFFFF" d="M77.7,185.8c0.7-5.4,0.6-11.1,2.3-16.2c3.1-9.9,10.4-16,20.9-17c7.4-0.7,15.1-0.8,22.5-0.1
		c14.3,1.4,23.4,11.8,23.7,26.3c0.1,5.6-0.1,11.3,0.1,16.9c0.1,2.7-1,3.8-3.3,4.6c-11.6,4.3-23.6,6-35.9,4.7c-9-1-18-3.2-26.9-4.9
		c-2.1-0.4-2.9-1.4-2.8-3.6c0.2-3.5,0-7,0-10.5C78.1,185.8,77.9,185.8,77.7,185.8z"/>
	<path fill="#FFFFFF" d="M86.5,131.7c2.6,5.9,5.1,11.5,7.7,17.2c-15.4,6-21.7,18.3-20.8,35.2c-10.2-0.4-19.6-2.5-28.9-5.4
		c-0.7-0.2-1.5-1.7-1.5-2.6c0-7.5-0.2-15.1,0.3-22.6c0.7-10.5,10-20.5,20.8-21.7C71.7,131,79.6,131.7,86.5,131.7z"/>
	<path fill="#FFFFFF" d="M185,164c1.1-17.1-5.3-29.5-21.6-35.8c4-4.6,6.8-9.5,7.3-15.5c0-0.6,1.1-1.6,1.6-1.6
		c8,0.4,16.1-0.1,23.8,1.6c9.8,2.1,16.7,11.8,17.3,21.8c0.4,7,0.3,14,0.2,21c0,1-1,2.6-2,3C203.3,162.1,194.6,163.7,185,164z"/>
	<path fill="#FFFFFF" d="M151.7,184.3c1.2-17-5.1-29.3-20.7-35.4c2.5-5.5,4.9-11,7.8-17.3c11.4-3.9,28.8,0.5,36.2,10
		c3.2,4.1,5,8.7,5.2,13.8c0.2,6.8,0.2,13.5,0.1,20.3c0,1-0.7,2.6-1.5,3C170.3,182.3,161.4,184,151.7,184.3z"/>
	<path fill="#FFFFFF" d="M111.6,92.4c-12,0-21.8-9.7-21.8-21.7c0-12.1,10-22.1,22-22c11.9,0.2,21.7,10.1,21.7,22
		C133.4,82.7,123.6,92.4,111.6,92.4z"/>
	<path fill="#FFFFFF" d="M112.7,150.6c-11.1,0-20.1-8.9-20.1-20s8.9-20.1,20-20.1s20.1,9,20.2,20.1
		C132.8,141.5,123.8,150.6,112.7,150.6z"/>
	<path fill="#FFFFFF" d="M57.2,109.8c0-10.8,8.1-19.4,19.2-20.2c10-0.7,19.7,7.4,20.7,17.8c0.2,1.7-0.8,3.7-1.7,5.3
		c-2.1,3.9-4.4,7.7-6.8,11.5c-1,1.5-2.1,3.4-3.7,4.1C71.9,133.9,57.2,124.1,57.2,109.8z"/>
	<path fill="#FFFFFF" d="M166,109.6c0.1,13.3-12.3,22.9-25.1,19.6c-2.2-0.6-3.7-1.5-4.2-4c-1-5.8-4-10.5-8.8-14
		c-2-1.4-2.2-3.1-1.8-5.2c1.9-9.8,11.3-17.3,20.8-16.4C158.1,90.6,166,98.9,166,109.6z"/>
	<path fill="#FFFFFF" d="M199.3,89.5c0,13.2-12.6,22.8-25.3,19.4c-2.2-0.6-3.6-1.6-4-4.2c-1.1-5.7-4.3-10.3-8.8-14
		c-1.1-0.9-1.9-3-1.7-4.3c1.3-10,10.8-17.7,20.6-17C191.2,70.1,199.3,78.6,199.3,89.5z"/>
	<path fill="#FFFFFF" d="M126,94.5c-1.6,4.5-2.9,8.5-4.4,12.7c-6.5-2.3-13.4-2.3-19.7,1c-1.5-4.6-2.9-8.9-4.4-13.7
		C106.8,94.5,116.3,94.5,126,94.5z"/>
</g>
</svg>
