<?xml version="1.0" encoding="utf-8"?>
<!-- Generator: Adobe Illustrator 19.2.1, SVG Export Plug-In . SVG Version: 6.00 Build 0)  -->
<svg version="1.1" id="Vrstva_1" xmlns="http://www.w3.org/2000/svg" xmlns:xlink="http://www.w3.org/1999/xlink" x="0px" y="0px"
	 viewBox="0 0 256.5 256.5" style="enable-background:new 0 0 256.5 256.5;" xml:space="preserve">
<style type="text/css">
	.st0{fill:#C90D23;stroke:#FFFFFF;stroke-width:0.5166;stroke-miterlimit:10;}
	.st1{fill:#FFFFFF;}
</style>
<path class="st0" d="M223.6,256.3H32.9c-17.9,0-32.6-14.7-32.6-32.6V32.9c0-17.9,14.7-32.6,32.6-32.6h190.8
	c17.9,0,32.6,14.7,32.6,32.6v190.8C256.3,241.6,241.6,256.3,223.6,256.3z"/>
<g>
	<path class="st1" d="M209.5,189.2l-58.7-58.7c-0.5-0.6-1.1-1-1.7-1.5l10.4-10.9c0.5-0.5,1-1.1,1.5-1.7c13.8,5.2,30,2.3,41.1-8.8
		c8.1-8.1,12.2-19.3,11.2-30.7c-0.1-1.3-1-2.4-2.2-2.9c-1.2-0.4-2.6-0.1-3.5,0.8l-18.8,18.8l-19-4.8l-5.4-19.6l18.8-18.8
		c0.9-0.9,1.2-2.3,0.8-3.5c-0.4-1.2-1.6-2.1-2.9-2.2c-11.4-1-22.6,3.1-30.7,11.2c-11.1,11.1-14,27.3-8.8,41.1
		c-0.6,0.5-1.1,1-1.7,1.5l-15.3,14.7L96.4,85.1c-0.4-0.4-0.7-0.7-1.1-1c0.3-0.6,0.7-1.2,0.9-1.8c5.9,1.1,16.8-10.4,26-19.6
		L95.4,35.9c-12,12-20.8,20.1-19.6,26c-2.7,1.3-5.2,3-6.9,4.7l-3.8,3.8c-2.5,2.5-3.9,5.5-4.5,8.7c-0.4,0.4-0.7,0.9-1.1,1.3l-1.4,1.8
		c0,0-0.2,0.2-0.2,0.3l-1.3,1.8c-0.8,1.1-1.5,2.2-2.2,3.3c-0.2,0.4-0.5,0.8-0.8,1.2c0,0.1-0.1,0.1-0.1,0.2L53,90.1
		c-0.7,1.3-1.4,2.6-2,4.1l-0.1,0.2c-0.7,1.7-1.5,3.5-2,5.3l-0.3,0.8c-0.2,0.7-0.4,1.3-0.6,2.1l-0.5,2.6c-0.4,1.6-0.5,3.2-0.6,4.6
		l-0.1,0.9c-0.2,1.5-0.1,2.8-0.1,4.1c0,0.4,0,0.8,0,1.3c0,0.2,0,0.4,0,0.7c0,0.5,0,1.2,0.1,1.8l0.3,2.1c0.1,0.4,0.1,0.8,0.2,1.2
		c0.1,0.9,0.3,1.7,0.5,2.6l1.4,4.8c0.4,1.4,1.8,2.4,3.3,2.3c0.8-0.1,1.5-0.4,2-0.9c0.5-0.5,0.8-1.1,0.9-1.8l0.7-4.8
		c0.1-0.4,0.2-0.9,0.4-1.5c0.1-0.4,0.2-0.8,0.3-1.2l0.5-1.8c0.1-0.2,0.2-0.5,0.3-0.7c0.1-0.2,0.2-0.5,0.3-0.7
		c0.2-0.4,0.3-0.8,0.5-1.2c0.3-0.8,0.6-1.5,1.1-2.2c0.2-0.3,0.4-0.7,0.6-1c0.5-0.8,0.9-1.6,1.4-2.3c0,0,0.1-0.1,0.1-0.1l1.2-1.6
		c0.2-0.3,0.5-0.6,0.8-0.9c0.2-0.2,0.4-0.4,0.6-0.7c0.7-0.8,1.5-1.6,2.3-2.3l0.4-0.4c0.6-0.5,1.3-1.1,2-1.6c0.3-0.2,0.6-0.4,0.9-0.7
		c0.4-0.2,0.7-0.5,1.1-0.7c0.7-0.4,1.2-0.8,1.9-1.2l1.4-0.8l1.4-0.7c0.5-0.3,1-0.5,1.4-0.6c0.3-0.1,0.5-0.2,0.8-0.3
		c0.3-0.1,0.5-0.2,0.7-0.3c0.3-0.1,0.6-0.2,0.9-0.3L80,98c0.4,0.7,0.9,1.3,1.5,1.9l27.8,27.8l-59.3,57c0,0,0,0-0.1,0.1
		c-7.4,7.4-8.6,18.2-1.2,25.6c7.4,7.4,17.5,5.5,24.9-1.9c0,0,0.1-0.1,0.1-0.1l52.3-55.1c0.3,0.4,0.6,0.7,1,1.1l58.7,58.7
		c6.6,6.6,17.2,6.6,23.8,0C216.1,206.5,216.1,195.8,209.5,189.2z M66,202.4c-2.7,2.7-7.1,2.7-9.8,0c-2.7-2.7-2.7-7.1,0-9.8
		c2.7-2.7,7.1-2.7,9.8,0C68.7,195.3,68.7,199.7,66,202.4z"/>
</g>
</svg>
