<?xml version="1.0" encoding="utf-8"?>
<!-- Generator: Adobe Illustrator 22.0.0, SVG Export Plug-In . SVG Version: 6.00 Build 0)  -->
<svg version="1.1" id="network" xmlns="http://www.w3.org/2000/svg" xmlns:xlink="http://www.w3.org/1999/xlink" x="0px" y="0px"
	 viewBox="0 0 256 256" enable-background="new 0 0 256 256" xml:space="preserve">
<path fill="#061D72" d="M223.3,256H32.6C14.7,256,0,241.3,0,223.4V32.6C0,14.7,14.7,0,32.6,0h190.8C241.3,0,256,14.7,256,32.6v190.8
	C256,241.3,241.3,256,223.3,256z"/>
<path fill="#FFFFFF" d="M84,99.1c1.9,0,3.7,0.3,5.4,0.8c6.4-7.2,13.5-13.7,21.1-19.4c-0.3-1.4-0.5-2.8-0.5-4.2c0-2,0.3-3.9,0.9-5.8
	c-8.6-6.2-17.9-11.4-27.8-15.3c-9.3,5.8-17.4,13.3-23.9,22c4.8,8.5,10.5,16.4,16.9,23.6C78.5,99.8,81.2,99.1,84,99.1z M65.9,117.2
	c0-2.5,0.5-5,1.5-7.2c-5.8-6.4-11.1-13.3-15.6-20.6c-5.8,11.5-9.1,24.4-9.1,38.2c0,15.9,4.4,30.8,12,43.5c2.7-15.3,7.9-29.8,14.9-43
	C67.3,125.1,65.9,121.3,65.9,117.2z M128,58.2c4.8,0,9.1,1.9,12.4,4.9c9.5-4.1,19.4-7.2,29.7-9.2c-12.5-7.2-26.9-11.4-42.4-11.4
	c-10.6,0-20.6,1.9-29.9,5.4c7.4,3.7,14.4,7.9,21,12.7C121.5,59.1,124.6,58.2,128,58.2z M155,143.4c1.1-2.4,2.7-4.4,4.7-6.1
	c-5.4-16.4-13.8-31.5-24.7-44.4c-2.2,0.9-4.6,1.4-7.1,1.4c-3.9,0-7.6-1.3-10.5-3.4c-6.6,5-12.7,10.6-18.1,16.6
	c1.7,2.8,2.7,6,2.7,9.6c0,1.9-0.3,3.7-0.8,5.4C117.1,133.3,135.4,140.6,155,143.4z M178.5,167.9c0.3,3.4,0.4,6.9,0.4,10.4
	c0,6.2-0.4,12.2-1.1,18.1c14.4-10.6,25.4-25.5,30.9-42.8c-6.6,1.6-13.3,2.7-20.1,3.4C186.9,161.8,183.2,165.9,178.5,167.9z
	 M150.8,155.6c-21-3.5-40.5-11.5-57.4-22.9c-2.8,1.7-6,2.7-9.5,2.7c-1.3,0-2.5-0.1-3.7-0.4c-8.1,15.3-13.3,32.5-14.7,50.7
	c8.1,8.7,17.9,15.6,29.1,20.3C108.4,184.8,127.6,167.3,150.8,155.6z M184.8,64.6c-13.7,1.3-26.6,4.8-38.8,9.9
	c0.1,0.6,0.1,1.2,0.1,1.8c0,2.9-0.7,5.6-1.9,8c12.1,14.2,21.5,30.8,27.4,48.9c7.4,0.1,13.7,4.7,16.3,11.1c8.2-0.8,16.1-2.4,23.8-4.7
	c0.5-3.9,0.8-7.9,0.8-11.9C212.7,102.7,201.9,80.2,184.8,64.6z M159.9,165.3c-21.6,10.2-39.8,25.8-52.9,44.8
	c6.6,1.7,13.6,2.5,20.6,2.5c12.9,0,25-2.9,35.9-8c1.8-8.6,2.7-17.4,2.7-26.5c0-3.3-0.1-6.6-0.4-9.8
	C163.7,167.8,161.7,166.7,159.9,165.3z"/>
</svg>
