<?xml version="1.0" encoding="utf-8"?>
<!-- Generator: Adobe Illustrator 19.2.1, SVG Export Plug-In . SVG Version: 6.00 Build 0)  -->
<svg version="1.1" id="Vrstva_1" xmlns="http://www.w3.org/2000/svg" xmlns:xlink="http://www.w3.org/1999/xlink" x="0px" y="0px"
	 viewBox="0 0 256.5 256.5" style="enable-background:new 0 0 256.5 256.5;" xml:space="preserve">
<style type="text/css">
	.st0{fill:#061D72;stroke:#FFFFFF;stroke-width:0.5166;stroke-miterlimit:10;}
	.st1{fill:#FFFFFF;}
</style>
<path class="st0" d="M223.6,256.3H32.9c-17.9,0-32.6-14.7-32.6-32.6V32.9c0-17.9,14.7-32.6,32.6-32.6h190.8
	c17.9,0,32.6,14.7,32.6,32.6v190.8C256.3,241.6,241.6,256.3,223.6,256.3z"/>
<g>
	<path class="st1" d="M84.1,99.3c1.9,0,3.7,0.3,5.4,0.8c6.4-7.2,13.5-13.7,21.2-19.5c-0.3-1.4-0.5-2.8-0.5-4.2c0-2,0.3-3.9,0.9-5.8
		c-8.6-6.2-18-11.4-27.9-15.4c-9.3,5.8-17.5,13.3-24,22.1c4.8,8.5,10.5,16.5,17,23.7C78.6,100,81.3,99.3,84.1,99.3z M66,117.5
		c0-2.5,0.5-5,1.5-7.2c-5.8-6.4-11.1-13.3-15.7-20.7c-5.8,11.5-9.1,24.5-9.1,38.3c0,16,4.4,30.9,12,43.7c2.7-15.4,7.9-29.9,15-43.2
		C67.4,125.4,66,121.6,66,117.5z M128.3,58.3c4.8,0,9.1,1.9,12.4,4.9c9.5-4.1,19.5-7.2,29.8-9.2c-12.5-7.2-27-11.4-42.5-11.4
		c-10.6,0-20.7,1.9-30,5.4c7.4,3.7,14.5,7.9,21.1,12.7C121.8,59.2,124.9,58.3,128.3,58.3z M155.4,143.8c1.1-2.4,2.7-4.4,4.7-6.1
		c-5.4-16.5-13.8-31.6-24.8-44.6c-2.2,0.9-4.6,1.4-7.1,1.4c-3.9,0-7.6-1.3-10.5-3.4c-6.6,5-12.7,10.6-18.2,16.7
		c1.7,2.8,2.7,6,2.7,9.6c0,1.9-0.3,3.7-0.8,5.4C117.4,133.6,135.7,140.9,155.4,143.8z M179,168.3c0.3,3.4,0.4,6.9,0.4,10.4
		c0,6.2-0.4,12.2-1.1,18.2c14.5-10.6,25.5-25.6,31-43c-6.6,1.6-13.3,2.7-20.2,3.4C187.4,162.2,183.7,166.3,179,168.3z M151.2,156
		c-21.1-3.5-40.6-11.5-57.6-23c-2.8,1.7-6,2.7-9.5,2.7c-1.3,0-2.5-0.1-3.7-0.4c-8.1,15.4-13.3,32.6-14.8,50.9
		c8.1,8.7,18,15.7,29.2,20.4C108.6,185.3,127.9,167.7,151.2,156z M185.3,64.7c-13.7,1.3-26.7,4.8-38.9,9.9c0.1,0.6,0.1,1.2,0.1,1.8
		c0,2.9-0.7,5.6-1.9,8c12.1,14.3,21.6,30.9,27.5,49.1c7.4,0.1,13.7,4.7,16.4,11.1c8.2-0.8,16.2-2.4,23.9-4.7
		c0.5-3.9,0.8-7.9,0.8-11.9C213.3,102.9,202.5,80.3,185.3,64.7z M160.3,165.7c-21.7,10.2-39.9,25.9-53.1,45
		c6.6,1.7,13.6,2.5,20.7,2.5c12.9,0,25.1-2.9,36-8c1.8-8.6,2.7-17.5,2.7-26.6c0-3.3-0.1-6.6-0.4-9.8
		C164.1,168.2,162.1,167.1,160.3,165.7z"/>
</g>
</svg>
