<svg xmlns="http://www.w3.org/2000/svg" viewBox="0 0 256 256"><path fill="#061d72" d="M223.3 256H32.6C14.7 256 0 241.3 0 223.4V32.6C0 14.7 14.7 0 32.6 0h190.8C241.3 0 256 14.7 256 32.6v190.8c0 17.9-14.7 32.6-32.7 32.6z"/><path fill="#fff" d="M84 99.1c1.9 0 3.7.3 5.4.8a143.26 143.26 0 0 1 21.1-19.4c-.3-1.4-.5-2.8-.5-4.2 0-2 .3-3.9.9-5.8-8.6-6.2-17.9-11.4-27.8-15.3-9.3 5.8-17.4 13.3-23.9 22 4.8 8.5 10.5 16.4 16.9 23.6 2.4-1 5.1-1.7 7.9-1.7zm-18.1 18.1c0-2.5.5-5 1.5-7.2-5.8-6.4-11.1-13.3-15.6-20.6-5.8 11.5-9.1 24.4-9.1 38.2a84.51 84.51 0 0 0 12 43.5c2.7-15.3 7.9-29.8 14.9-43-2.3-3-3.7-6.8-3.7-10.9zm62.1-59c4.8 0 9.1 1.9 12.4 4.9 9.5-4.1 19.4-7.2 29.7-9.2-12.5-7.2-26.9-11.4-42.4-11.4-10.6 0-20.6 1.9-29.9 5.4 7.4 3.7 14.4 7.9 21 12.7 2.7-1.5 5.8-2.4 9.2-2.4zm27 85.2c1.1-2.4 2.7-4.4 4.7-6.1-5.4-16.4-13.8-31.5-24.7-44.4-2.2.9-4.6 1.4-7.1 1.4-3.9 0-7.6-1.3-10.5-3.4-6.6 5-12.7 10.6-18.1 16.6 1.7 2.8 2.7 6 2.7 9.6 0 1.9-.3 3.7-.8 5.4 15.9 10.8 34.2 18.1 53.8 20.9zm23.5 24.5c.3 3.4.4 6.9.4 10.4 0 6.2-.4 12.2-1.1 18.1 14.4-10.6 25.4-25.5 30.9-42.8-6.6 1.6-13.3 2.7-20.1 3.4-1.7 4.8-5.4 8.9-10.1 10.9zm-27.7-12.3c-21-3.5-40.5-11.5-57.4-22.9-2.8 1.7-6 2.7-9.5 2.7-1.3 0-2.5-.1-3.7-.4-8.1 15.3-13.3 32.5-14.7 50.7A83.97 83.97 0 0 0 94.6 206c13.8-21.2 33-38.7 56.2-50.4zm34-91c-13.7 1.3-26.6 4.8-38.8 9.9.1.6.1 1.2.1 1.8 0 2.9-.7 5.6-1.9 8a144.54 144.54 0 0 1 27.4 48.9c7.4.1 13.7 4.7 16.3 11.1 8.2-.8 16.1-2.4 23.8-4.7.5-3.9.8-7.9.8-11.9.2-25-10.6-47.5-27.7-63.1zm-24.9 100.7c-21.6 10.2-39.8 25.8-52.9 44.8 6.6 1.7 13.6 2.5 20.6 2.5 12.9 0 25-2.9 35.9-8 1.8-8.6 2.7-17.4 2.7-26.5 0-3.3-.1-6.6-.4-9.8-2.1-.5-4.1-1.6-5.9-3z"/></svg>