<?xml version="1.0" encoding="utf-8"?>
<!-- Generator: Adobe Illustrator 22.0.0, SVG Export Plug-In . SVG Version: 6.00 Build 0)  -->
<svg version="1.1" id="news" xmlns="http://www.w3.org/2000/svg" xmlns:xlink="http://www.w3.org/1999/xlink" x="0px" y="0px"
	 viewBox="0 0 256 256" enable-background="new 0 0 256 256" xml:space="preserve">
<path fill="#F99A10" d="M223.3,256H32.6C14.7,256,0,241.3,0,223.4V32.6C0,14.7,14.7,0,32.6,0h190.8C241.3,0,256,14.7,256,32.6v190.8
	C256,241.3,241.3,256,223.3,256z"/>
<g>
	<path fill="#FFFFFF" d="M207.2,212.7c-48.4,0-96.6,0-145,0c-0.4-0.1-0.7-0.3-1-0.4c-7.3-1.5-13.2-7.4-14.1-14.9
		c-0.4-3-0.2-5.9-0.2-9c0-46.9,0-94,0-140.9c0-2.2,0.6-3.7,2.4-4.9c47.9,0,95.8,0,143.7,0c2,1,2.7,2.6,2.6,4.8c-0.1,1.3,0,2.7,0,4
		c0,1.8,0,3.6,0,5.3c0.4,0.1,0.5,0.2,0.6,0.2c3,0,5.8,0,8.8,0c3.7,0,4.7,1,4.7,4.8c0,48.7,0,97.4,0,146.2
		C209.7,210,209.1,211.7,207.2,212.7z M54.1,50c0,47.2,0,94.3,0,141.5c44.8,0,89.6,0,134.2,0c0-47.2,0-94.3,0-141.5
		C143.5,50,98.7,50,54.1,50z M195.5,64.2c0,0.8,0,1.5,0,2.2c0,42.5,0,84.8,0,127.3c0,3.8-1,5-5,5c-44.6,0-89.3,0-133.8,0
		c-0.7,0-1.3,0-2.2,0c0.2,0.5,0.2,0.8,0.3,1c0.1,0.3,0.3,0.6,0.5,0.9c2.4,3.9,6,5.2,10.4,5.2c44.9,0,90,0,134.9,0c0.6,0,1.1,0,1.8,0
		c0-47.3,0-94.4,0-141.6C200.1,64.2,197.9,64.2,195.5,64.2z"/>
	<path fill="#FFFFFF" d="M89.3,99.5c8.1,0,16.1,0,24.2,0c2.9,0,4.1,1.2,4.1,4.2c0,13.7,0,27.5,0,41.1c0,2.9-1.3,4.2-4.2,4.2
		c-16.1,0-32.1,0-48.3,0c-2.8,0-4.2-1.3-4.2-4.1c0-13.7,0-27.6,0-41.3c0-2.9,1.4-4,4.3-4.1C73.2,99.5,81.3,99.5,89.3,99.5z
		 M110.5,141.9c0-11.9,0-23.6,0-35.3c-14.1,0-28.1,0-42.3,0c0,11.8,0,23.5,0,35.3C82.3,141.9,96.3,141.9,110.5,141.9z"/>
	<path fill="#FFFFFF" d="M128.8,76.2c1-3.1,2-5.8,2.9-8.5c0.8-2.3,1.7-3.1,3.6-3.1c1.9,0,3,0.8,3.7,3.1c0.9,2.7,1.8,5.2,3.1,7.9
		c1-3.6,1.8-7.2,2.8-10.8c0.4-1.4,0.7-2.9,1-4.4c0.7-2.6,2.3-3.8,4.5-3.3c2.1,0.5,3.1,2.4,2.4,5.1c-1.4,5.9-3,11.7-4.4,17.6
		c-0.8,3.1-1.5,6.3-2.4,9.4c-0.6,2.1-1.6,3.1-3.3,3.1c-1.8,0-3-0.8-3.6-2.8c-1.1-3.3-2.3-6.8-3.5-10.6c-1.1,3.2-2.1,6.1-3.1,9
		c-0.2,0.7-0.4,1.2-0.7,1.9c-0.7,1.8-1.9,2.6-3.6,2.5c-1.6-0.1-2.9-1.1-3.3-3c-1.3-5.4-2.8-10.9-4.1-16.4c-1-3.7-1.8-7.3-2.8-11.1
		c-0.6-2.3,0.5-4.3,2.4-4.8c2-0.5,3.8,0.6,4.4,3C126,65.2,127.3,70.5,128.8,76.2z"/>
	<path fill="#FFFFFF" d="M68.1,71.3c0,1,0,1.4,0,2c0,4.8,0,9.5,0,14.3c0,0.8-0.1,1.5-0.3,2.3c-0.4,1.5-1.7,2.5-3.3,2.4
		c-1.6,0-2.9-1-3.3-2.5c-0.1-0.5-0.2-1-0.2-1.4c0-9.2,0-18.2,0-27.4c0-0.9,0.3-1.9,0.9-2.6c1.4-2,4.2-1.8,5.8,0.5
		c3.8,5.1,7.6,10.2,11.4,15.3c1,1.2,1.8,2.4,3.1,4c0-1,0-1.5,0-2.1c0-4.9-0.1-9.7,0.1-14.6c0-1.1,0.5-2.6,1.2-3.4
		c1.7-1.9,5-1,5.6,1.5c0.2,0.6,0.3,1.2,0.3,1.8c0,8.9,0,17.8,0,26.7c0,3-1.8,4.8-4.2,4.2c-1-0.3-2-1.1-2.7-2
		c-4.4-5.7-8.7-11.5-13.1-17.4C69.1,72.5,68.8,72.1,68.1,71.3z"/>
	<path fill="#FFFFFF" d="M174.3,85.2c0-1.6,0.1-3,0-4.4c-0.1-1.8-1-2.7-2.9-2.6c-3.4,0.1-6.5-0.6-8.9-3.2c-5.2-5.6-2.5-16,4.7-17.7
		c2.2-0.5,4.5-0.2,6.8-0.3c1.3,0,2.7,0,4,0c2.1,0.1,3.4,1.4,3.5,3.4c0,2-1.3,3.5-3.3,3.5c-2.6,0.1-5.2,0-7.8,0
		c-2.4,0-3.1,0.8-3.1,3.4c0,2.9,0.7,3.6,3.1,3.6c4.5-0.1,8.3,1.2,10.2,5.5c1.6,3.5,1.3,7.3,0.5,11.1c-0.7,2.9-3.4,4.6-6.4,4.6
		c-3.4,0-6.9,0-10.3,0c-2.2,0-3.6-1.3-3.7-3.3c-0.1-2.1,1.4-3.6,3.6-3.6C167.4,85.2,170.7,85.2,174.3,85.2z"/>
	<path fill="#FFFFFF" d="M103.5,64.2c0,2.3,0,4.5,0,6.9c2.2,0,4.4,0,6.5,0c2.2,0,3.6,1,4,2.8c0.5,2.3-1,4.2-3.5,4.4
		c-1.6,0.1-3.3,0-5,0c-0.6,0-1.2,0-1.9,0c0,2.4,0,4.6,0,7.1c2.2,0,4.3,0,6.5,0c2.5,0,4.1,1.4,4,3.6c0,2.2-1.4,3.4-4,3.4
		c-3.2,0-6.5,0-9.8,0c-2.5,0-3.9-1.3-3.9-3.9c0-9.2,0-18.2,0-27.4c0-2.7,1.3-4,3.9-4c3.2,0,6.5,0,9.8,0c2.5,0,3.9,1.3,3.9,3.5
		c0,2.1-1.5,3.5-3.9,3.5c-2,0-4.1,0-6.1,0C103.9,64.1,103.8,64.2,103.5,64.2z"/>
	<path fill="#FFFFFF" d="M153,113.6c6.8,0,13.6,0,20.4,0c2.8,0,4.3,1.2,4.4,3.4c0.1,1.7-1,3.1-2.7,3.5c-0.7,0.2-1.4,0.2-2.1,0.2
		c-13.3,0-26.5,0-39.8,0c-3.2,0-5-1.2-5-3.6c0-2.3,1.7-3.5,5-3.5C139.8,113.6,146.4,113.6,153,113.6z"/>
	<path fill="#FFFFFF" d="M89.1,163.2c-6.8,0-13.5,0.1-20.2-0.1c-1.1,0-2.5-0.4-3.2-1.1c-1.9-1.7-1-5,1.4-5.7c0.5-0.2,1-0.2,1.6-0.2
		c13.7,0,27.6,0,41.3,0c2.5,0,3.9,1.2,4.1,3.2c0.2,2.4-1.3,3.9-4,3.9c-6.6,0-13.2,0-19.7,0C89.8,163.2,89.5,163.2,89.1,163.2z"/>
	<path fill="#FFFFFF" d="M153.1,156c6.9,0,13.7,0,20.6,0c2.5,0,4,1.3,4.1,3.4c0.1,1.9-1,3.2-3,3.6c-0.8,0.1-1.6,0.1-2.5,0.1
		c-13.1,0-26.1,0-39.1,0c-0.6,0-1.1,0-1.6,0c-1.9-0.2-3.2-1.7-3.2-3.5s1.4-3.3,3.3-3.5c0.5-0.1,1,0,1.5,0
		C139.7,156,146.4,156,153.1,156z"/>
	<path fill="#FFFFFF" d="M153.1,99.5c7,0,13.9,0,20.9,0c2.3,0,3.7,1.4,3.7,3.5s-1.5,3.4-3.8,3.5c-0.1,0-0.2,0-0.3,0
		c-13.7,0-27.6,0-41.3,0c-2.5,0-4.1-1.4-4.1-3.5s1.5-3.4,4-3.4C139.2,99.5,146.1,99.5,153.1,99.5z"/>
	<path fill="#FFFFFF" d="M153,134.9c-7,0-13.9,0-20.9,0c-2.2,0-3.6-1.2-3.8-3.1c-0.3-2.1,1.3-3.9,3.7-3.9c3.8,0,7.6,0,11.4,0
		c10.1,0,20.2,0,30.3,0c2.6,0,4.1,1.5,3.9,3.8c-0.1,2-1.6,3.2-3.9,3.2C166.9,134.9,160,134.9,153,134.9z"/>
	<path fill="#FFFFFF" d="M153,149c-7,0-13.9,0-20.9,0c-1.9,0-3.1-0.9-3.6-2.5c-0.5-1.5,0-2.9,1.3-3.8c0.7-0.5,1.5-0.7,2.3-0.7
		c14,0,28,0,42,0c2.3,0,3.8,1.4,3.8,3.4c0,2.1-1.5,3.5-3.9,3.5C166.9,149,160,149,153,149z"/>
	<path fill="#FFFFFF" d="M89.5,170.2c7,0,13.9,0,20.9,0c1.8,0,3.1,1,3.6,2.4s0,3.1-1.3,3.9c-0.6,0.4-1.4,0.7-2.2,0.7
		c-14,0-28,0-42.2,0c-2.3,0-3.8-1.5-3.7-3.5c0-2,1.5-3.5,3.8-3.5C75.3,170.2,82.4,170.2,89.5,170.2z"/>
	<path fill="#FFFFFF" d="M153,177.3c-7,0-13.9,0-20.9,0c-2.5,0-4.2-1.9-3.8-4.1c0.4-1.8,1.8-2.9,3.9-3c5.8,0,11.7,0,17.6,0
		c8.1,0,16.1,0,24.2,0c2.6,0,4.1,1.8,3.7,4.1c-0.3,1.8-1.7,2.9-3.8,2.9C166.9,177.3,160,177.3,153,177.3z"/>
</g>
</svg>
