<?xml version="1.0" encoding="utf-8"?>
<!-- Generator: Adobe Illustrator 22.0.0, SVG Export Plug-In . SVG Version: 6.00 Build 0)  -->
<svg version="1.1" id="news" xmlns="http://www.w3.org/2000/svg" xmlns:xlink="http://www.w3.org/1999/xlink" x="0px" y="0px"
	 viewBox="0 0 256 256" enable-background="new 0 0 256 256" xml:space="preserve">
<path fill="#F99A10" d="M223.3,256H32.6C14.7,256,0,241.3,0,223.4V32.6C0,14.7,14.7,0,32.6,0h190.8C241.3,0,256,14.7,256,32.6v190.8
	C256,241.3,241.3,256,223.3,256z"/>
<g>
	<path fill="#FFFFFF" d="M211,216.8c-50.7,0-101.3,0-152,0c-0.4-0.1-0.7-0.3-1.1-0.4c-7.7-1.6-13.8-7.8-14.8-15.6
		c-0.4-3.1-0.2-6.2-0.2-9.4c0-49.2,0-98.5,0-147.7c0-2.3,0.6-3.9,2.5-5.1c50.2,0,100.4,0,150.6,0c2.1,1,2.8,2.7,2.7,5
		c-0.1,1.4,0,2.8,0,4.2c0,1.9,0,3.8,0,5.6c0.4,0.1,0.5,0.2,0.6,0.2c3.1,0,6.1,0,9.2,0c3.9,0,4.9,1,4.9,5c0,51.1,0,102.1,0,153.2
		C213.6,214,213,215.7,211,216.8z M50.5,46.2c0,49.5,0,98.9,0,148.3c47,0,93.9,0,140.7,0c0-49.5,0-98.9,0-148.3
		C144.2,46.2,97.3,46.2,50.5,46.2z M198.8,61.1c0,0.8,0,1.6,0,2.3c0,44.5,0,88.9,0,133.4c0,4-1.1,5.2-5.2,5.2
		c-46.8,0-93.6,0-140.3,0c-0.7,0-1.4,0-2.3,0c0.2,0.5,0.2,0.8,0.3,1.1s0.3,0.6,0.5,0.9c2.5,4.1,6.3,5.5,10.9,5.5
		c47.1,0,94.3,0,141.4,0c0.6,0,1.2,0,1.9,0c0-49.6,0-99,0-148.4C203.6,61.1,201.3,61.1,198.8,61.1z"/>
	<path fill="#FFFFFF" d="M87.4,98.1c8.5,0,16.9,0,25.4,0c3,0,4.3,1.3,4.3,4.4c0,14.4,0,28.8,0,43.1c0,3-1.4,4.4-4.4,4.4
		c-16.9,0-33.7,0-50.6,0c-2.9,0-4.4-1.4-4.4-4.3c0-14.4,0-28.9,0-43.3c0-3,1.5-4.2,4.5-4.3C70.6,98.1,79,98.1,87.4,98.1z
		 M109.6,142.6c0-12.5,0-24.7,0-37c-14.8,0-29.5,0-44.3,0c0,12.4,0,24.6,0,37C80.1,142.6,94.8,142.6,109.6,142.6z"/>
	<path fill="#FFFFFF" d="M128.8,73.7c1.1-3.3,2.1-6.1,3-8.9c0.8-2.4,1.8-3.3,3.8-3.3s3.1,0.8,3.9,3.2c0.9,2.8,1.9,5.5,3.2,8.3
		c1-3.8,1.9-7.5,2.9-11.3c0.4-1.5,0.7-3,1.1-4.6c0.7-2.7,2.4-4,4.7-3.5c2.2,0.5,3.2,2.5,2.5,5.3c-1.5,6.2-3.1,12.3-4.6,18.5
		c-0.8,3.3-1.6,6.6-2.5,9.9c-0.6,2.2-1.7,3.2-3.5,3.2c-1.9,0-3.1-0.8-3.8-2.9c-1.2-3.5-2.4-7.1-3.7-11.1c-1.2,3.4-2.2,6.4-3.2,9.4
		c-0.2,0.7-0.4,1.3-0.7,2c-0.7,1.9-2,2.7-3.8,2.6c-1.7-0.1-3-1.2-3.5-3.1c-1.4-5.7-2.9-11.4-4.3-17.2c-1-3.9-1.9-7.7-2.9-11.6
		c-0.6-2.4,0.5-4.5,2.5-5c2.1-0.5,4,0.6,4.6,3.1C125.9,62.2,127.3,67.7,128.8,73.7z"/>
	<path fill="#FFFFFF" d="M65.2,68.6c0,1,0,1.5,0,2.1c0,5,0,10,0,15c0,0.8-0.1,1.6-0.3,2.4c-0.4,1.6-1.8,2.6-3.5,2.5
		c-1.7,0-3-1-3.5-2.6c-0.1-0.5-0.2-1-0.2-1.5c0-9.6,0-19.1,0-28.7c0-0.9,0.3-2,0.9-2.7c1.5-2.1,4.4-1.9,6.1,0.5c4,5.3,8,10.7,12,16
		c1,1.3,1.9,2.5,3.2,4.2c0-1.1,0-1.6,0-2.2c0-5.1-0.1-10.2,0.1-15.3c0-1.2,0.5-2.7,1.3-3.6c1.8-2,5.2-1,5.9,1.6
		c0.2,0.6,0.3,1.3,0.3,1.9c0,9.3,0,18.7,0,28c0,3.1-1.9,5-4.4,4.4c-1.1-0.3-2.1-1.2-2.8-2.1c-4.6-6-9.1-12.1-13.7-18.2
		C66.2,69.8,65.9,69.4,65.2,68.6z"/>
	<path fill="#FFFFFF" d="M176.5,83.2c0-1.7,0.1-3.1,0-4.6c-0.1-1.9-1-2.8-3-2.7c-3.6,0.1-6.8-0.6-9.3-3.4
		c-5.4-5.9-2.6-16.8,4.9-18.6c2.3-0.5,4.7-0.2,7.1-0.3c1.4,0,2.8,0,4.2,0c2.2,0.1,3.6,1.5,3.7,3.6c0,2.1-1.4,3.7-3.5,3.7
		c-2.7,0.1-5.4,0-8.2,0c-2.5,0-3.2,0.8-3.3,3.6c0,3,0.7,3.8,3.2,3.8c4.7-0.1,8.7,1.3,10.7,5.8c1.7,3.7,1.4,7.7,0.5,11.6
		c-0.7,3-3.6,4.8-6.7,4.8c-3.6,0-7.2,0-10.8,0c-2.3,0-3.8-1.4-3.9-3.5c-0.1-2.2,1.5-3.8,3.8-3.8C169.3,83.2,172.8,83.2,176.5,83.2z"
		/>
	<path fill="#FFFFFF" d="M102.3,61.1c0,2.4,0,4.7,0,7.2c2.3,0,4.6,0,6.8,0c2.3,0,3.8,1.1,4.2,2.9c0.5,2.4-1.1,4.4-3.7,4.6
		c-1.7,0.1-3.5,0-5.2,0c-0.6,0-1.3,0-2,0c0,2.5,0,4.8,0,7.4c2.3,0,4.5,0,6.8,0c2.6,0,4.3,1.5,4.2,3.8c0,2.3-1.5,3.6-4.2,3.6
		c-3.4,0-6.8,0-10.3,0c-2.6,0-4.1-1.4-4.1-4.1c0-9.6,0-19.1,0-28.7c0-2.8,1.4-4.2,4.1-4.2c3.4,0,6.8,0,10.3,0c2.6,0,4.1,1.4,4.1,3.7
		c0,2.2-1.6,3.7-4.1,3.7c-2.1,0-4.3,0-6.4,0C102.7,61,102.6,61.1,102.3,61.1z"/>
	<path fill="#FFFFFF" d="M154.2,112.9c7.1,0,14.3,0,21.4,0c2.9,0,4.5,1.3,4.6,3.6c0.1,1.8-1,3.3-2.8,3.7c-0.7,0.2-1.5,0.2-2.2,0.2
		c-13.9,0-27.8,0-41.7,0c-3.4,0-5.2-1.3-5.2-3.8c0-2.4,1.8-3.7,5.2-3.7C140.4,112.9,147.3,112.9,154.2,112.9z"/>
	<path fill="#FFFFFF" d="M87.2,164.9c-7.1,0-14.1,0.1-21.2-0.1c-1.2,0-2.6-0.4-3.4-1.2c-2-1.8-1.1-5.2,1.5-6
		c0.5-0.2,1.1-0.2,1.7-0.2c14.4,0,28.9,0,43.3,0c2.6,0,4.1,1.3,4.3,3.4c0.2,2.5-1.4,4.1-4.2,4.1c-6.9,0-13.8,0-20.7,0
		C88,164.9,87.6,164.9,87.2,164.9z"/>
	<path fill="#FFFFFF" d="M154.3,157.4c7.2,0,14.4,0,21.6,0c2.6,0,4.2,1.4,4.3,3.6c0.1,2-1.1,3.4-3.1,3.8c-0.8,0.1-1.7,0.1-2.6,0.1
		c-13.7,0-27.4,0-41,0c-0.6,0-1.2,0-1.7,0c-2-0.2-3.4-1.8-3.4-3.7s1.5-3.5,3.5-3.7c0.5-0.1,1,0,1.6,0
		C140.3,157.4,147.3,157.4,154.3,157.4z"/>
	<path fill="#FFFFFF" d="M154.3,98.1c7.3,0,14.6,0,21.9,0c2.4,0,3.9,1.5,3.9,3.7s-1.6,3.6-4,3.7c-0.1,0-0.2,0-0.3,0
		c-14.4,0-28.9,0-43.3,0c-2.6,0-4.3-1.5-4.3-3.7s1.6-3.6,4.2-3.6C139.7,98.1,147,98.1,154.3,98.1z"/>
	<path fill="#FFFFFF" d="M154.2,135.2c-7.3,0-14.6,0-21.9,0c-2.3,0-3.8-1.3-4-3.3c-0.3-2.2,1.4-4.1,3.9-4.1c4,0,8,0,12,0
		c10.6,0,21.2,0,31.8,0c2.7,0,4.3,1.6,4.1,4c-0.1,2.1-1.7,3.4-4.1,3.4C168.8,135.2,161.5,135.2,154.2,135.2z"/>
	<path fill="#FFFFFF" d="M154.2,150c-7.3,0-14.6,0-21.9,0c-2,0-3.3-0.9-3.8-2.6c-0.5-1.6,0-3,1.4-4c0.7-0.5,1.6-0.7,2.4-0.7
		c14.7,0,29.3,0,44,0c2.4,0,4,1.5,4,3.6c0,2.2-1.6,3.7-4.1,3.7C168.8,150,161.5,150,154.2,150z"/>
	<path fill="#FFFFFF" d="M87.6,172.3c7.3,0,14.6,0,21.9,0c1.9,0,3.3,1,3.8,2.5s0,3.3-1.4,4.1c-0.6,0.4-1.5,0.7-2.3,0.7
		c-14.7,0-29.4,0-44.2,0c-2.4,0-4-1.6-3.9-3.7c0-2.1,1.6-3.7,4-3.7C72.8,172.3,80.2,172.3,87.6,172.3z"/>
	<path fill="#FFFFFF" d="M154.2,179.7c-7.3,0-14.6,0-21.9,0c-2.6,0-4.4-2-4-4.3c0.4-1.9,1.9-3,4.1-3.1c6.1,0,12.3,0,18.4,0
		c8.5,0,16.9,0,25.4,0c2.7,0,4.3,1.9,3.9,4.3c-0.3,1.9-1.8,3-4,3C168.8,179.7,161.5,179.7,154.2,179.7z"/>
</g>
</svg>
