<?xml version="1.0" encoding="utf-8"?>
<!-- Generator: Adobe Illustrator 22.0.0, SVG Export Plug-In . SVG Version: 6.00 Build 0)  -->
<svg version="1.1" id="php-fusion" xmlns="http://www.w3.org/2000/svg" xmlns:xlink="http://www.w3.org/1999/xlink" x="0px" y="0px"
	 viewBox="0 0 256 256" enable-background="new 0 0 256 256" xml:space="preserve">
<path fill="#006692" d="M223.3,256H32.6C14.7,256,0,241.3,0,223.4V32.6C0,14.7,14.7,0,32.6,0h190.8C241.3,0,256,14.7,256,32.6v190.8
	C256,241.3,241.3,256,223.3,256z"/>
<path fill="#FFFFFF" d="M85.1,183c-22.7,0-38.7-7.5-43.9-20.8c-4.6-11.9,0-26.6,13.2-41.5c12.6-14.3,31.7-27.2,53.7-36.3
	c19.2-8,39.3-12.4,56.4-12.4c22.8,0,38.8,7.5,43.9,20.8c4.6,11.9,0,26.6-13.2,41.5c-12.6,14.3-31.7,27.2-53.7,36.3
	C122.3,178.6,102.2,183,85.1,183L85.1,183z M164.5,78c-16.5,0-35.7,4.2-54.3,12c-21.2,8.8-39.5,21.2-51.6,34.8
	c-11.5,13.1-15.8,25.6-12.1,35.3c4.2,10.8,18.3,17,38.5,17c16.5,0,35.7-4.2,54.3-12c21.2-8.8,39.5-21.2,51.6-34.8
	c11.5-13.1,15.8-25.6,12.1-35.3C198.8,84.2,184.7,78,164.5,78L164.5,78z M88.7,182.6c-22,0-37.5-7.4-42.4-20.2
	c-4.5-11.6,0-26,12.9-40.4c12.2-13.7,30.6-26.2,51.8-34.9c18.6-7.7,38-12,54.7-12c22,0,37.5,7.4,42.4,20.2
	c9.1,23.4-19.3,56.5-64.7,75.3C124.7,178.3,105.3,182.6,88.7,182.6L88.7,182.6z M165.6,82.3c-15.8,0-34.2,4.1-52.1,11.5
	c-20.3,8.4-37.7,20.2-49.2,33.1c-10.7,12.1-14.9,24-11.5,32.8c3.8,9.9,16.9,15.6,35.9,15.6c15.8,0,34.2-4.1,52.1-11.5
	c40.3-16.8,68.1-46.9,60.8-65.9C197.7,88,184.6,82.3,165.6,82.3z M172.4,205.4c-21.4,0-51.3-17-76.1-43.5
	c-16.9-17.9-29.7-38-35.9-56.5c-6.7-19.3-5.5-34.7,3.3-43.6c4.8-4.8,11.4-7.3,19.7-7.3c21.4,0,51.3,17,76.2,43.4
	c16.9,17.9,29.7,38,35.9,56.5c6.6,19.3,5.3,34.7-3.4,43.5C187.3,202.9,180.6,205.4,172.4,205.4L172.4,205.4z M83.4,60.5
	c-6.7,0-12,1.9-15.7,5.6c-7.1,7.1-7.8,20.4-2,37.4c6,17.7,18.3,37,34.7,54.3c23.9,25.3,52.1,41.7,72.1,41.7c6.7,0,12-1.9,15.7-5.6
	c7.1-7.1,7.8-20.4,2-37.3c-6-17.7-18.3-37-34.7-54.3C131.6,76.9,103.3,60.5,83.4,60.5L83.4,60.5z M168.4,205.8
	c-20.6,0-49.5-16.5-73.5-42.1c-16.3-17.2-28.6-36.6-34.7-54.3c-6.5-18.7-5.3-33.7,3.1-42.3C68,62.4,74.4,60,82.4,60
	c20.6,0,49.5,16.5,73.5,42.1c34.8,36.9,48.6,79.4,31.5,96.7C182.7,203.4,176.3,205.8,168.4,205.8z M82.4,67.3
	c-6.1,0-10.9,1.7-14.2,5c-6.4,6.4-6.9,19.1-1.5,34.7c5.8,16.8,17.6,35.2,33.1,51.7c22.8,24.2,49.8,39.9,68.6,39.9
	c6.1,0,10.9-1.7,14.2-5c13.9-14-0.6-53.5-31.6-86.4C128.1,82.9,101.2,67.2,82.4,67.3L82.4,67.3z M135.2,128.6
	c0,5.7-4.5,10.3-10,10.3s-10-4.7-10-10.3c0-5.7,4.5-10.3,10-10.3S135.2,122.9,135.2,128.6z M102.2,213.7c-4,0-7.8-0.8-11.3-2.5
	c-11.8-5.5-18.9-19.5-20-39.5c-1-19.3,3.7-42,13.2-63.9C101,69.1,128.9,42,152.1,42c4,0,7.8,0.8,11.3,2.5
	c11.8,5.5,18.9,19.5,20,39.5c1,19.2-3.7,42-13.2,63.9C153.4,186.7,125.4,213.7,102.2,213.7L102.2,213.7z M152.1,48
	c-20.7,0-47.1,26.2-62.8,62.2c-9.2,21.1-13.7,42.8-12.7,61.1c0.9,17.6,6.8,29.9,16.6,34.4c2.8,1.3,5.7,1.9,9,1.9
	c20.7,0,47.1-26.2,62.8-62.2c9.2-21.1,13.7-42.8,12.7-61.1c-0.9-17.6-6.8-29.9-16.6-34.4C158.3,48.7,155.3,48,152.1,48L152.1,48z
	 M98.9,211.2c-3.7,0-7.2-0.8-10.4-2.3c-11.3-5.3-17.9-19-18.6-38.7c-0.6-18.8,4.2-41,13.6-62.6c16.8-38.6,44-65.5,66.2-65.5
	c3.7,0,7.2,0.8,10.4,2.3c11.3,5.3,17.9,19,18.6,38.7c0.6,18.8-4.2,41-13.6,62.6C148.3,184.2,121,211.2,98.9,211.2z M149.7,49.4
	c-19.2,0-44.3,25.8-59.8,61.2c-9,20.6-13.6,41.7-13,59.3c0.6,16.8,5.7,28.2,14.5,32.3c2.3,1.1,4.8,1.6,7.5,1.6
	c19.2,0,44.3-25.8,59.8-61.2c9-20.6,13.6-41.7,13-59.3c-0.6-16.8-5.7-28.2-14.5-32.3C154.9,49.9,152.4,49.4,149.7,49.4L149.7,49.4z"
	/>
</svg>
