<?xml version="1.0" encoding="utf-8"?>
<!-- Generator: Adobe Illustrator 22.0.0, SVG Export Plug-In . SVG Version: 6.00 Build 0)  -->
<svg version="1.1" id="security" xmlns="http://www.w3.org/2000/svg" xmlns:xlink="http://www.w3.org/1999/xlink" x="0px" y="0px"
	 viewBox="0 0 256 256" enable-background="new 0 0 256 256" xml:space="preserve">
<path fill="#009F3C" d="M223.3,256H32.6C14.7,256,0,241.3,0,223.4V32.6C0,14.7,14.7,0,32.6,0h190.8C241.3,0,256,14.7,256,32.6v190.8
	C256,241.3,241.3,256,223.3,256z"/>
<path fill="#FFFFFF" d="M199,68.6c-29.3,0-51.7-8.4-70.7-26.8c-19,18.5-41.4,26.8-70.7,26.8c0,48.1-9.9,116.9,70.7,144.9
	C208.9,185.6,199,116.7,199,68.6z M122.4,153.2l-23.6-23.5l10.5-10.5l13,13l24.7-24.7l10.5,10.5L122.4,153.2z"/>
</svg>
