<?xml version="1.0" encoding="utf-8"?>
<!-- Generator: Adobe Illustrator 22.0.0, SVG Export Plug-In . SVG Version: 6.00 Build 0)  -->
<svg version="1.1" id="security" xmlns="http://www.w3.org/2000/svg" xmlns:xlink="http://www.w3.org/1999/xlink" x="0px" y="0px"
	 viewBox="0 0 256 256" enable-background="new 0 0 256 256" xml:space="preserve">
<path fill="#009F3C" d="M223.3,256H32.6C14.7,256,0,241.3,0,223.4V32.6C0,14.7,14.7,0,32.6,0h190.8C241.3,0,256,14.7,256,32.6v190.8
	C256,241.3,241.3,256,223.3,256z"/>
<path fill="#FFFFFF" d="M198.3,69.2c-29,0-51.2-8.3-70-26.5c-18.8,18.3-41,26.5-70,26.5c0,47.6-9.8,115.7,70,143.5
	C208.1,185,198.3,116.8,198.3,69.2z M122.5,152.9l-23.4-23.3l10.4-10.4l12.9,12.9l24.5-24.5l10.4,10.4L122.5,152.9z"/>
</svg>
