<?xml version="1.0" encoding="utf-8"?>
<!-- Generator: Adobe Illustrator 22.0.0, SVG Export Plug-In . SVG Version: 6.00 Build 0)  -->
<svg version="1.1" id="software" xmlns="http://www.w3.org/2000/svg" xmlns:xlink="http://www.w3.org/1999/xlink" x="0px" y="0px"
	 viewBox="0 0 256 256" enable-background="new 0 0 256 256" xml:space="preserve">
<path fill="#E0A80B" d="M223.3,256H32.6C14.7,256,0,241.3,0,223.4V32.6C0,14.7,14.7,0,32.6,0h190.8C241.3,0,256,14.7,256,32.6v190.8
	C256,241.3,241.3,256,223.3,256z"/>
<g>
	<path fill="#FFFFFF" d="M213.6,42.6c0,57.2,0,114.2,0,171.5c-33.3,0-66.4,0-100.1,0c1.4-0.6,2.4-1,3.4-1.4
		c25.7-8.5,41.7-30.6,41.2-57.4c-0.1-3.9,1-5.7,4.5-7c3-1.2,5.7-3.2,8.8-5c-0.9-2.2-1.9-3.9-2.2-5.7c-0.3-1.6-0.3-3.9,0.6-4.9
		c1.1-1.2,3.7-2.5,5-2c5.3,1.9,7.3-0.5,8.2-5.2c0.5-2.3,1.2-4.6,1.6-7c1.4-7.1,1.4-7.1-5.4-9.3c-3.9-1.2-4.9-5.6-2-8.4
		c1.5-1.4,3.1-2.8,5.4-4.8c-4-4.9-7.9-9.6-11.8-14.3c-2.3-2.7-3.9-0.1-5.6,1c-2.1,1.4-4.1,3.7-6.6,1.1c-1.2-1.3-2.6-3.3-2.5-4.9
		c0.2-5-2.1-6.4-6.6-6.2c-4,0.2-8-0.1-11.9,0.4c-1.2,0.2-2.8,2.1-3.2,3.5c-0.7,2.7,0.6,5.8-3.2,7.6c-3.9,1.8-5.3-1.5-7.8-2.7
		c-0.7-0.3-1.3-0.8-1.9-1.2c-7.1,4.7-13.2,13.6-12.3,18c-5.5,0-11.1-0.5-16.6,0.1s-10.8,2.3-16.3,3.5c-1.1-14.9-0.4-29.5,9.6-42
		c8.9-11,20.4-17.5,34.6-17.7c30.4-0.4,60.9-0.1,91.3-0.1C212,42.3,212.5,42.4,213.6,42.6z"/>
	<path fill="#FFFFFF" d="M156.1,156.9c-0.1,31.1-25.6,56.5-56.6,56.4c-31.3,0-56.8-25.6-56.6-57c0.2-31.2,25.5-56.5,56.6-56.5
		C130.8,99.9,156.2,125.5,156.1,156.9z M123.7,156.6c-0.1-13.5-10.9-24.4-24.3-24.3c-13.3,0-24.3,11-24.3,24.4
		c-0.1,13.2,11,24.2,24.4,24.2C113,180.9,123.8,170.1,123.7,156.6z"/>
	<path fill="#FFFFFF" d="M151.9,123.8c-6.7-6.3-12.5-11.7-18.7-17.4c1.9-4.7,7-7.9,13.1-7.2c5.9,0.7,10.8,5.2,11.7,10.8
		C159.1,116.7,156.2,122,151.9,123.8z"/>
	<path fill="#FFFFFF" d="M87.2,156.9c-0.1-7,5.2-12.5,12.2-12.5c6.9,0,12.5,5.4,12.5,12.3c0,6.5-5.5,12.2-12.1,12.4
		C93,169.2,87.3,163.7,87.2,156.9z"/>
</g>
</svg>
