<?xml version="1.0" encoding="utf-8"?>
<!-- Generator: Adobe Illustrator 19.2.1, SVG Export Plug-In . SVG Version: 6.00 Build 0)  -->
<svg version="1.1" id="Vrstva_1" xmlns="http://www.w3.org/2000/svg" xmlns:xlink="http://www.w3.org/1999/xlink" x="0px" y="0px"
	 viewBox="0 0 256.5 256.5" style="enable-background:new 0 0 256.5 256.5;" xml:space="preserve">
<style type="text/css">
	.st0{fill:#AF027E;stroke:#FFFFFF;stroke-width:0.5166;stroke-miterlimit:10;}
	.st1{fill:#FFFFFF;}
</style>
<path class="st0" d="M223.6,256.3H32.9c-17.9,0-32.6-14.7-32.6-32.6V32.9c0-17.9,14.7-32.6,32.6-32.6h190.8
	c17.9,0,32.6,14.7,32.6,32.6v190.8C256.3,241.6,241.6,256.3,223.6,256.3z"/>
<g>
	<path class="st1" d="M211,63.1c-0.3-0.8-1.1-1.4-1.9-1.5c-0.9-0.1-1.7,0.3-2.2,1c-3,4.2-6.9,5.6-11.5,7.2
		c-3.7,1.3-7.5,2.7-11.6,5.6c-5.8,4.2-8.5,9.8-7.1,15.2l-0.1,0.2c-2.4-3.5-5.1-6.8-7.8-9.7c-13-13.6-31.2-21.7-49.9-22.4
		c-0.8,0-1.7,0-2.5,0c-20.9,0-40.9,9.3-54.8,25.6c-13.9,16.2-20,37.3-16.9,57.8c0.3,1.7,0.6,3.5,1,5.2c5.1,22.6,18.2,39.8,36,47.2
		c4.4,1.8,8.8,2.7,13.1,2.7c10.7,0,20.1-5.7,25.7-15.8c2.1-3.8,3.5-7.8,4.1-11.7c0.3-2.3,0.1-4.7-0.1-6.9c-0.2-2.3-0.5-4.5-0.1-6.8
		c0.8-5.1,4.4-8.1,9.5-8.1c1.5,0,3,0.2,4.4,0.7c-1.7,3.2-3.3,6.3-4.7,9.1c-2.9,6-5,11-6,14.8c-0.7,2.3-2.4,8.6,1.8,11.5
		c1.3,0.9,3.1,1.3,4.8,0.9c1.6-0.3,6.5-1.2,20.3-16.9c3.7-4.2,7.7-9.1,11.9-14.5c10.7-3.6,19.1-12.6,21.3-22.9
		c0.6-2.6,0.8-5.3,0.7-8.2c4-6.2,7.5-12,11.1-18.2c0.1-0.1,0.1-0.2,0.2-0.4c5.1-1.4,9.6-5.4,12.2-11C215.6,84.5,215.3,74,211,63.1z
		 M153,101.8c-1.9,3-5.1,4.7-8.6,4.7c-1.9,0-3.8-0.5-5.4-1.6c-2.3-1.4-3.9-3.7-4.5-6.3s-0.1-5.3,1.3-7.6c1.9-3,5.1-4.7,8.6-4.7
		c1.9,0,3.8,0.5,5.4,1.6c2.3,1.4,3.9,3.7,4.5,6.3C154.9,96.8,154.4,99.6,153,101.8z M166.1,120.1c5.1-7.5,10.5-15,15.6-21.7
		c0.8,0.8,1.8,1.5,2.8,2.2c1.7,1.2,3.4,2.1,5.2,2.7c-4.3,7.4-9,14.8-14.6,23.1c-9.3,13.7-18.9,26.3-27.1,35.7
		c-4.6,5.2-8.6,9.3-11.7,11.8c1.2-3.8,3.5-9.1,6.7-15.3C148.6,147.5,156.8,133.8,166.1,120.1z M76.4,120.1c-1.9,0-3.8-0.5-5.4-1.6
		c-2.3-1.4-3.9-3.7-4.5-6.3c-0.6-2.6-0.1-5.3,1.3-7.6c1.9-3,5.1-4.7,8.6-4.7c1.9,0,3.8,0.5,5.4,1.6c4.7,3,6.1,9.2,3.2,13.9
		C83.1,118.3,79.9,120.1,76.4,120.1z M65.8,142.3c1.9-3,5.1-4.7,8.6-4.7c1.9,0,3.8,0.5,5.4,1.6c2.3,1.4,3.9,3.7,4.5,6.3
		c0.6,2.6,0.1,5.3-1.3,7.6c-1.9,3-5.1,4.7-8.6,4.7c-1.9,0-3.8-0.5-5.4-1.6c-2.3-1.4-3.9-3.7-4.5-6.3
		C63.9,147.3,64.3,144.6,65.8,142.3z M98.1,82.3c1.9-3,5.1-4.7,8.6-4.7c1.9,0,3.8,0.5,5.4,1.6c4.7,3,6.1,9.2,3.2,13.9
		c-1.9,3-5.1,4.7-8.6,4.7c-1.9,0-3.8-0.5-5.4-1.6c-2.3-1.4-3.9-3.7-4.5-6.3C96.2,87.3,96.7,84.6,98.1,82.3z"/>
</g>
</svg>
