<svg xmlns="http://www.w3.org/2000/svg" viewBox="0 0 256 256"><path fill="#af027e" d="M223.3 256H32.6C14.7 256 0 241.3 0 223.4V32.6C0 14.7 14.7 0 32.6 0h190.8C241.3 0 256 14.7 256 32.6v190.8c0 17.9-14.7 32.6-32.7 32.6z"/><path fill="#fff" d="M210.4 63c-.3-.8-1.1-1.4-1.9-1.5-.9-.1-1.7.3-2.2 1-3 4.2-6.9 5.6-11.5 7.2-3.7 1.3-7.5 2.7-11.6 5.6-5.8 4.2-8.5 9.8-7.1 15.2l-.1.2c-2.4-3.5-5.1-6.8-7.8-9.7-13-13.6-31.1-21.6-49.7-22.3H116c-20.8 0-40.8 9.3-54.6 25.5-13.9 16.1-19.9 37.2-16.8 57.6.3 1.7.6 3.5 1 5.2 5.1 22.5 18.1 39.7 35.9 47 4.4 1.8 8.8 2.7 13.1 2.7 10.7 0 20-5.7 25.6-15.7 2.1-3.8 3.5-7.8 4.1-11.7.3-2.3.1-4.7-.1-6.9-.2-2.3-.5-4.5-.1-6.8.8-5.1 4.4-8.1 9.5-8.1 1.5 0 3 .2 4.4.7l-4.7 9.1c-2.9 6-5 11-6 14.8-.7 2.3-2.4 8.6 1.8 11.5 1.3.9 3.1 1.3 4.8.9 1.6-.3 6.5-1.2 20.2-16.8 3.7-4.2 7.7-9.1 11.9-14.5 10.7-3.6 19-12.6 21.2-22.8.6-2.6.8-5.3.7-8.2 4-6.2 7.5-12 11.1-18.1.1-.1.1-.2.2-.4 5.1-1.4 9.6-5.4 12.2-11 3.6-8.4 3.3-18.8-1-29.7zm-57.8 38.6c-1.9 3-5.1 4.7-8.6 4.7-1.9 0-3.8-.5-5.4-1.6-2.3-1.4-3.9-3.7-4.5-6.3s-.1-5.3 1.3-7.6c1.9-3 5.1-4.7 8.6-4.7 1.9 0 3.8.5 5.4 1.6 2.3 1.4 3.9 3.7 4.5 6.3s.1 5.4-1.3 7.6zm13.1 18.2c5.1-7.5 10.5-15 15.5-21.6.8.8 1.8 1.5 2.8 2.2 1.7 1.2 3.4 2.1 5.2 2.7-4.3 7.4-9 14.8-14.6 23-9.3 13.7-18.8 26.2-27 35.6-4.6 5.2-8.6 9.3-11.7 11.8 1.2-3.8 3.5-9.1 6.7-15.3 5.6-11.1 13.8-24.7 23.1-38.4zm-89.4 0c-1.9 0-3.8-.5-5.4-1.6-2.3-1.4-3.9-3.7-4.5-6.3s-.1-5.3 1.3-7.6c1.9-3 5.1-4.7 8.6-4.7 1.9 0 3.8.5 5.4 1.6 4.7 3 6.1 9.2 3.2 13.9-1.9 2.9-5.1 4.7-8.6 4.7zM65.7 142c1.9-3 5.1-4.7 8.6-4.7 1.9 0 3.8.5 5.4 1.6 2.3 1.4 3.9 3.7 4.5 6.3s.1 5.3-1.3 7.6c-1.9 3-5.1 4.7-8.6 4.7-1.9 0-3.8-.5-5.4-1.6-2.3-1.4-3.9-3.7-4.5-6.3-.6-2.7-.2-5.4 1.3-7.6zm32.2-59.9c1.9-3 5.1-4.7 8.6-4.7 1.9 0 3.8.5 5.4 1.6 4.7 3 6.1 9.2 3.2 13.9-1.9 3-5.1 4.7-8.6 4.7-1.9 0-3.8-.5-5.4-1.6-2.3-1.4-3.9-3.7-4.5-6.3s-.1-5.3 1.3-7.6z"/></svg>