<?xml version="1.0" encoding="utf-8"?>
<!-- Generator: Adobe Illustrator 22.0.0, SVG Export Plug-In . SVG Version: 6.00 Build 0)  -->
<svg version="1.1" id="windows" xmlns="http://www.w3.org/2000/svg" xmlns:xlink="http://www.w3.org/1999/xlink" x="0px" y="0px"
	 viewBox="0 0 256 256" enable-background="new 0 0 256 256" xml:space="preserve">
<path fill="#F65314" d="M223.3,256H32.6C14.7,256,0,241.3,0,223.4V32.6C0,14.7,14.7,0,32.6,0h190.8C241.3,0,256,14.7,256,32.6v190.8
	C256,241.3,241.3,256,223.3,256z"/>
<path id="Windows_2_" fill="#FFFFFF" d="M77.2,58.4C88,54.1,97.4,52,106,51.8c4.5,0,8.8,0.5,12.9,1.4c6.2,1.6,14.8,6.2,18,8.1
	l-15.5,52.6c-7.9-5-17.4-9.9-30.2-10l0,0c-8.6,0-17.9,2-28.7,6L77.2,58.4z M101.4,184.7c3.8-12.9,13-44.1,15.8-53.5
	c-2-1.2-4-2.4-6.1-3.5c-7.9-4.1-15.7-6.1-22.9-6.1c-1,0-2,0-3,0.1c-9.3,0.8-17.8,3.2-23.3,5.1c-1.4,0.5-2.9,1.1-4.5,1.7l-15,51.7
	c10.3-3.8,19.4-5.6,27.7-5.6C83.5,174.5,93.3,179.5,101.4,184.7z M192.5,146.2c-9.7,3.2-19.1,4.7-27.9,4.7c-16,0-27.2-5.2-34.2-10.1
	l-15.1,52.1c4.5,2.6,19.5,10.6,31,10.6c9.3,0,19.7-2.4,31.8-7.2L192.5,146.2z M213,75.6c-9.8,3.8-19.4,5.7-28.5,5.7
	c-15.3,0-26.5-5.3-33.8-10.3l-15.3,52.8c10.3,6.6,21.4,9.9,33,9.9c9.5,0,19.3-2.2,29.3-6.7l-0.1-0.4l0.6-0.1L213,75.6z"/>
</svg>
