<?xml version="1.0" encoding="utf-8"?>
<!-- Generator: Adobe Illustrator 19.2.1, SVG Export Plug-In . SVG Version: 6.00 Build 0)  -->
<svg version="1.1" id="Vrstva_1" xmlns="http://www.w3.org/2000/svg" xmlns:xlink="http://www.w3.org/1999/xlink" x="0px" y="0px"
	 viewBox="0 0 256.5 256.5" style="enable-background:new 0 0 256.5 256.5;" xml:space="preserve">
<style type="text/css">
	.st0{fill:#F65314;stroke:#FFFFFF;stroke-width:0.5166;stroke-miterlimit:10;}
	.st1{fill:#FFFFFF;}
</style>
<path class="st0" d="M223.6,256.3H32.9c-17.9,0-32.6-14.7-32.6-32.6V32.9c0-17.9,14.7-32.6,32.6-32.6h190.8
	c17.9,0,32.6,14.7,32.6,32.6v190.8C256.3,241.6,241.6,256.3,223.6,256.3z"/>
<g>
	<path id="Windows_2_" class="st1" d="M77.5,58.7c10.8-4.3,20.2-6.4,28.8-6.6c4.5,0,8.8,0.5,12.9,1.4c6.2,1.6,14.8,6.2,18,8.1
		l-15.5,52.6c-7.9-5-17.4-9.9-30.2-10l0,0c-8.6,0-17.9,2-28.7,6L77.5,58.7z M101.7,185c3.8-12.9,13-44.1,15.8-53.5
		c-2-1.2-4-2.4-6.1-3.5c-7.9-4.1-15.7-6.1-22.9-6.1c-1,0-2,0-3,0.1c-9.3,0.8-17.8,3.2-23.3,5.1c-1.4,0.5-2.9,1.1-4.5,1.7l-15,51.7
		c10.3-3.8,19.4-5.6,27.7-5.6C83.8,174.8,93.6,179.8,101.7,185z M192.8,146.5c-9.7,3.2-19.1,4.7-27.9,4.7c-16,0-27.2-5.2-34.2-10.1
		l-15.1,52.1c4.5,2.6,19.5,10.6,31,10.6c9.3,0,19.7-2.4,31.8-7.2L192.8,146.5z M213.3,75.9c-9.8,3.8-19.4,5.7-28.5,5.7
		c-15.3,0-26.5-5.3-33.8-10.3l-15.3,52.8c10.3,6.6,21.4,9.9,33,9.9c9.5,0,19.3-2.2,29.3-6.7l-0.1-0.4l0.6-0.1L213.3,75.9z"/>
</g>
</svg>
