<svg xmlns="http://www.w3.org/2000/svg" viewBox="0 0 50 50"><path fill="#444" d="M5.7 50V.2h17.2c6.1 0 11 1.2 14.5 3.5s5.3 5.7 5.3 10.3c0 2.4-.5 4.5-1.7 6.3-1.2 1.9-2.9 3.2-5.2 4.2 2.9.7 5.1 2 6.5 4s2.1 4.3 2.1 7c0 4.9-1.6 8.6-4.9 11.1-3.2 2.5-8 3.7-14.1 3.7-.1-.3-19.7-.3-19.7-.3zm11.6-29.1h5.8c2.6-.1 4.6-.5 5.9-1.5s1.9-2.4 1.9-4.3c0-2.2-.7-3.7-2-4.6-1.3-1-3.4-1.5-6.1-1.5h-5.6c.1 0 .1 11.9.1 11.9zm0 7.6V41h8c2.5 0 4.3-.5 5.6-1.5 1.2-1 1.9-2.5 1.9-4.5 0-2.2-.5-3.8-1.6-4.9s-2.8-1.7-5.2-1.7l-8.7.1z"/></svg>