<svg version="1.1" xmlns="http://www.w3.org/2000/svg" xmlns:xlink="http://www.w3.org/1999/xlink" x="0px" y="0px"
	 viewBox="0 0 50 50" style="enable-background:new 0 0 50 50;" xml:space="preserve">
<g>
	<path fill="#444444" d="M5.7,50V0.2h17.2c6.1,0,11,1.2,14.5,3.5s5.3,5.7,5.3,10.3c0,2.4-0.5,4.5-1.7,6.3c-1.2,1.9-2.9,3.2-5.2,4.2
		c2.9,0.7,5.1,2,6.5,4s2.1,4.3,2.1,7c0,4.9-1.6,8.6-4.9,11.1c-3.2,2.5-8,3.7-14.1,3.7C25.3,50,5.7,50,5.7,50z M17.3,20.9h5.8
		c2.6-0.1,4.6-0.5,5.9-1.5c1.3-1,1.9-2.4,1.9-4.3c0-2.2-0.7-3.7-2-4.6c-1.3-1-3.4-1.5-6.1-1.5h-5.6C17.3,9,17.3,20.9,17.3,20.9z
		 M17.3,28.5V41h8c2.5,0,4.3-0.5,5.6-1.5c1.2-1,1.9-2.5,1.9-4.5c0-2.2-0.5-3.8-1.6-4.9c-1.1-1.1-2.8-1.7-5.2-1.7L17.3,28.5
		L17.3,28.5z"/>
</g>
</svg>