<svg version="1.1" xmlns="http://www.w3.org/2000/svg" xmlns:xlink="http://www.w3.org/1999/xlink" x="0px" y="0px"
	 viewBox="0 0 50 50" style="enable-background:new 0 0 50 50;" xml:space="preserve">
<path fill="#444444" d="M20.7,2.9c-5.4,0-9.7,0.9-12.9,2.6s-5.3,4.4-5.3,7.6c0,2.4,1.1,4.5,2.7,6c0.1,0.1,0.1,0.1,0.2,0.1L3,21.5
	c-3.3,3.3-3.3,8.6,0,11.9l11.1,11.2c1.6,1.6,3.8,2.5,6,2.5s4.3-0.8,6-2.5l13-13c1.8,0,7.7,0.6,7.7,10.3c0,7.5,3.7,6.9,3.7-7
	c0-13.4-14.3-20.4-18.7-21.8l-9.4-9.3c-0.2-0.3-0.5-0.6-0.8-0.8c0,0,0,0-0.1,0C21.3,2.9,21,2.9,20.7,2.9z M17.3,7c0.1,0,0.3,0,0.4,0
	l-7.5,7.5c0.5,0.2,1.1,0.4,1.6,0.6c0.8,0.3,1.8,0.5,2.7,0.7l7.2-7.2L39,26.1L23.3,41.8c-0.8,0.8-2,1.3-3.1,1.3
	c-1.2,0-2.3-0.5-3.1-1.3L5.9,30.7c-0.8-0.8-1.3-1.9-1.3-3.1c0-1.2,0.4-2.3,1.3-3.1l3-3c0.7,0.3,1.4,0.6,2.2,0.8
	c3.7,1.2,7.9,1.6,11.9,1.7c0.6,0.9,1.6,1.4,2.8,1.4c1.9,0,3.3-1.5,3.3-3.3s-1.5-3.3-3.3-3.3c-1.1,0-2.1,0.5-2.7,1.3
	c-3.7-0.1-7.6-0.5-10.7-1.5c-0.1,0-0.2-0.1-0.3-0.1c0,0,0,0-0.1,0c-1.7-0.6-3.1-1.4-4-2.2c-0.9-0.9-1.4-1.7-1.4-3
	c0-1.5,0.8-2.9,3.1-4.1C11.4,8.1,14,7.3,17.3,7z"/>
</svg>