<svg xmlns="http://www.w3.org/2000/svg" viewBox="0 0 50 50"><path fill="#444" d="M20.7 2.9c-5.4 0-9.7.9-12.9 2.6s-5.3 4.4-5.3 7.6c0 2.4 1.1 4.5 2.7 6 .1.1.1.1.2.1L3 21.5a8.39 8.39 0 0 0 0 11.9l11.1 11.2c1.6 1.6 3.8 2.5 6 2.5a8.32 8.32 0 0 0 6-2.5l13-13c1.8 0 7.7.6 7.7 10.3 0 7.5 3.7 6.9 3.7-7 0-13.4-14.3-20.4-18.7-21.8l-9.4-9.3c-.2-.3-.5-.6-.8-.8h-.1c-.2-.1-.5-.1-.8-.1zM17.3 7h.4l-7.5 7.5c.5.2 1.1.4 1.6.6.8.3 1.8.5 2.7.7l7.2-7.2L39 26.1 23.3 41.8c-.8.8-2 1.3-3.1 1.3-1.2 0-2.3-.5-3.1-1.3L5.9 30.7c-.8-.8-1.3-1.9-1.3-3.1s.4-2.3 1.3-3.1l3-3c.7.3 1.4.6 2.2.8C14.8 23.5 19 23.9 23 24c.6.9 1.6 1.4 2.8 1.4 1.9 0 3.3-1.5 3.3-3.3a3.33 3.33 0 0 0-3.3-3.3c-1.1 0-2.1.5-2.7 1.3-3.7-.1-7.6-.5-10.7-1.5-.1 0-.2-.1-.3-.1H12c-1.7-.6-3.1-1.4-4-2.2-.9-.9-1.4-1.7-1.4-3 0-1.5.8-2.9 3.1-4.1C11.4 8.1 14 7.3 17.3 7z"/></svg>