<svg version="1.1" xmlns="http://www.w3.org/2000/svg" xmlns:xlink="http://www.w3.org/1999/xlink" x="0px" y="0px"
	 viewBox="0 0 50 50" style="enable-background:new 0 0 50 50;" xml:space="preserve">
<path fill="#D11C25" d="M43.8,50H6.2C2.8,50,0,47.2,0,43.8V6.2C0,2.8,2.8,0,6.2,0h37.7C47.2,0,50,2.8,50,6.2v37.7
	C50,47.2,47.2,50,43.8,50z"/>
<path fill="#FFFFFF" d="M39.2,16.3c-7.5,0-8.3,6.5-8.3,6.5h3.3v5h-6c-4.5,14.5-14,12.5-14,12.5v-6.3c0,0,6.2,1.5,9.8-10
	c4.5-15.3,15.3-13.8,15.3-13.8V16.3z"/>
</svg>