<svg xmlns="http://www.w3.org/2000/svg" viewBox="0 0 50 50"><path fill="#fbbb00" d="M11.1 30.2l-1.7 6.5-6.4.1C1.1 33.3 0 29.3 0 25c0-4.1 1-8.1 2.8-11.5l5.7 1 2.5 5.6c-.5 1.5-.8 3.1-.8 4.8-.1 1.9.3 3.7.9 5.3z"/><path fill="#518ef8" d="M49.6 20.3c.3 1.5.4 3.1.4 4.7 0 1.8-.2 3.5-.5 5.2-1.3 5.8-4.4 10.8-8.8 14.3l-7.1-.4-1-6.3c2.9-1.7 5.2-4.4 6.4-7.6H25.5v-9.9h24.1z"/><path fill="#28b446" d="M40.6 44.5C36.4 47.9 30.9 50 25 50A24.87 24.87 0 0 1 3 36.8l8.1-6.6A14.81 14.81 0 0 0 25 39.8c2.7 0 5.3-.7 7.5-2l8.1 6.7z"/><path fill="#f14336" d="M41 5.8l-8.1 6.6c-2.3-1.4-5-2.2-7.9-2.2-6.5 0-12.1 4.2-14.1 10l-8.1-6.7C7 5.5 15.3 0 25 0c6.1 0 11.6 2.2 16 5.8z"/></svg>