<svg version="1.1" xmlns="http://www.w3.org/2000/svg" xmlns:xlink="http://www.w3.org/1999/xlink" x="0px" y="0px"
	 viewBox="0 0 50 50" style="enable-background:new 0 0 50 50;" xml:space="preserve">
<path fill="#FBBB00" d="M11.1,30.2l-1.7,6.5L3,36.8C1.1,33.3,0,29.3,0,25c0-4.1,1-8.1,2.8-11.5h0l5.7,1l2.5,5.6
	c-0.5,1.5-0.8,3.1-0.8,4.8C10.1,26.8,10.5,28.6,11.1,30.2z"/>
<path fill="#518EF8" d="M49.6,20.3c0.3,1.5,0.4,3.1,0.4,4.7c0,1.8-0.2,3.5-0.5,5.2C48.2,36,45.1,41,40.7,44.5l0,0l-7.1-0.4l-1-6.3
	c2.9-1.7,5.2-4.4,6.4-7.6H25.5v-9.9h13.6H49.6L49.6,20.3z"/>
<path fill="#28B446" d="M40.6,44.5L40.6,44.5C36.4,47.9,30.9,50,25,50c-9.5,0-17.8-5.3-22-13.2l8.1-6.6c2.1,5.6,7.5,9.6,13.9,9.6
	c2.7,0,5.3-0.7,7.5-2L40.6,44.5z"/>
<path fill="#F14336" d="M41,5.8l-8.1,6.6c-2.3-1.4-5-2.2-7.9-2.2c-6.5,0-12.1,4.2-14.1,10l-8.1-6.7h0C7,5.5,15.3,0,25,0
	C31.1,0,36.6,2.2,41,5.8z"/>
</svg>