<svg xmlns="http://www.w3.org/2000/svg" viewBox="0 0 50 50" fill="#444"><path d="M40.5 28.9c-1.9-3.1-6.9-5.3-13.4-5.8-.3 0-.6.1-.8.3l-.5.5c-.3.3-.6.7-.9.8-.3-.1-.6-.4-.9-.8-.2-.2-.3-.4-.5-.5-.2-.2-.5-.3-.8-.3-6.4.5-11.4 2.6-13.4 5.8-.3.5-7.4 13.3-1.5 20.7.3.3.6.4.9.4h32.5c.3 0 .6-.1.8-.4 6-7.5-1.4-20.6-1.5-20.7zM26.9 42.2c0 .1 0 .2-.1.3l-1.1 2.1c-.2.2-.4.4-.7.4s-.5-.2-.7-.4l-1.1-2.1c-.1-.1-.1-.2-.1-.3l-.4-15c0-.3.1-.5.3-.6l1.5-1.1c.3-.2.6-.2.9 0l1.5 1.1c.2.1.3.4.3.6l-.3 15zm-2.1-20.4a10.93 10.93 0 0 0 10.9-10.9A10.93 10.93 0 0 0 24.8 0a10.93 10.93 0 0 0-10.9 10.9 10.93 10.93 0 0 0 10.9 10.9z"/></svg>