<svg version="1.1" xmlns="http://www.w3.org/2000/svg" xmlns:xlink="http://www.w3.org/1999/xlink" x="0px" y="0px"
	 viewBox="0 0 50 50" style="enable-background:new 0 0 50 50;" xml:space="preserve">
<g>
	<g>
		<path fill="#444444" d="M40.5,28.9c-1.9-3.1-6.9-5.3-13.4-5.8c-0.3,0-0.6,0.1-0.8,0.3c-0.1,0.1-0.3,0.3-0.5,0.5
			c-0.3,0.3-0.6,0.7-0.9,0.8h0c-0.3-0.1-0.6-0.4-0.9-0.8c-0.2-0.2-0.3-0.4-0.5-0.5c-0.2-0.2-0.5-0.3-0.8-0.3
			c-6.4,0.5-11.4,2.6-13.4,5.8c-0.3,0.5-7.4,13.3-1.5,20.7C8.1,49.9,8.4,50,8.7,50h32.5c0.3,0,0.6-0.1,0.8-0.4
			C48,42.1,40.6,29,40.5,28.9z M26.9,42.2c0,0.1,0,0.2-0.1,0.3l-1.1,2.1C25.5,44.8,25.3,45,25,45c-0.3,0-0.5-0.2-0.7-0.4l-1.1-2.1
			c-0.1-0.1-0.1-0.2-0.1-0.3l-0.4-15c0-0.3,0.1-0.5,0.3-0.6l1.5-1.1c0.3-0.2,0.6-0.2,0.9,0l1.5,1.1c0.2,0.1,0.3,0.4,0.3,0.6
			L26.9,42.2z"/>
		<path fill="#444444" d="M24.8,21.8c6,0,10.9-4.9,10.9-10.9c0-6-4.9-10.9-10.9-10.9c-6,0-10.9,4.9-10.9,10.9
			C13.9,16.9,18.8,21.8,24.8,21.8z"/>
	</g>
</g>
</svg>