<svg version="1.1" xmlns="http://www.w3.org/2000/svg" xmlns:xlink="http://www.w3.org/1999/xlink" x="0px" y="0px"
	 viewBox="0 0 50 50" style="enable-background:new 0 0 50 50;" xml:space="preserve">
<g>
	<path fill="#00CC00" d="M49,27.4l-0.4-0.6c-0.6-0.8-1.1-1.7-2-2.3c-0.7-0.5-1.6-0.8-2.4-1.2c2.2-1.1,3.7-2.5,4.5-4.4
		c0.5-1.6-0.4-2.8-0.4-4.1v-0.1c0-1.4-2-2.3-3.7-2.8c-1.1-0.2-2.3-0.2-3.3-0.1l-2.4,0.5l0.8-1.8C40.4,8.3,40.2,6.1,39,4l-0.2-0.4
		c-1.1-1.8-2.7-2.8-4.8-3.4C31.7-0.3,29.8,0,27.8,1c-2,1.1-3.9,2.7-3.9,4.8v0.1l-0.3,0.5l-0.4-0.5l-0.8-1.3
		c-1.2-1.8-2.6-2.8-4.4-3.3c-1.6-0.4-2.9-0.2-4.2,0.5c-1.5,0.9-2.4,2.3-2.7,4.3c-0.4,2,0,4,1.1,6l0.5,0.7L11,12.3
		c-2.2-0.5-4.2-0.2-6.2,0.8c-2.1,1.1-3.4,2.5-4.2,4.6c-0.8,2-0.7,3.9,0.3,5.6c0.4,0.8,1.1,1.4,1.7,1.8c0.9,0.8,1.9,1.3,3.2,1.6
		l0.5,0.1l-1.1,0.9c-1,0.8-1.6,1.9-1.9,3C2.8,32,3,33.3,3.7,34.5c0.4,0.6,0.7,1.1,1.3,1.4c0.6,0.5,1.3,0.8,2.2,0.9
		c1.6,0.4,3.2,0.4,5-0.2l-1.3,2.1l-0.4,0.9c-0.7,2.3-0.5,4.2,0.6,6.3c0.5,0.8,1.1,1.5,1.7,2.1c0.9,0.8,1.9,1.3,3.2,1.6
		c2.2,0.6,4.3,0.5,6.4-0.6c2-1.1,3.3-2.8,4-4.9l0.1-0.4c1.4,1.5,2.7,2.5,4.1,2.8c1.4,0.4,2.9,0.4,4.2-0.5c1.2-0.7,2.1-1.9,2.5-3.4
		c0.4-1.6,0.4-3.1,0-4.9c0.7,0.5,1.4,0.8,2.3,1.1c2.3,0.7,4.3,0.6,6.3-0.4c1.9-1.1,3.2-2.8,3.9-4.9C50.2,31.5,50.1,29.4,49,27.4z
		 M38.6,15.7l0.9-0.4c1.3-0.6,2.5-0.7,3.8-0.6c1.2,0.1,2.1,0.7,2.5,1.6l0.3,0.9l-0.1,0.7c-0.5,1.3-1.6,2.3-3.4,3
		c-0.7,0.4-1.5,0.5-2.4,0.6l-8.8,1.1l-0.1-0.5l-0.1-0.2l0.3-0.4L38.6,15.7z M26.4,6.8c0.4-1.4,1.4-2.5,2.7-3.2
		c1.3-0.7,2.7-0.8,4.1-0.4c1.5,0.4,2.6,1.1,3.2,2.3C36.7,6.3,37,7.1,37,8.1l-0.2,1.5c-0.3,0.8-0.6,1.5-1.1,2.1l-6.5,7.8
		c-0.6-0.5-1.4-0.8-2.1-1.2l-0.7-8l-0.1-2.8L26.4,6.8z M14.1,7c0.1-1.3,0.6-2.1,1.4-2.6C16,4,16.6,4,17.2,4.3c1.3,0.4,2.4,1.3,3.2,3
		c0.4,0.7,0.7,1.4,0.9,2.3l1.4,8.3l-1.1,0.4l-6.4-6.8l-0.4-0.7C14.3,9.5,14,8.3,14.1,7z M3.6,21.9C3,20.9,3,19.8,3.4,18.8
		c0.5-1.3,1.4-2.4,2.8-3c1.3-0.7,2.6-0.9,4-0.6l1.9,0.8l6.3,4.5c-0.6,0.7-0.9,1.4-1.2,2.1L7,23.9l-0.7-0.1C5,23.6,4.1,23,3.6,21.9z
		 M23.9,42.7l-0.3,0.7c-0.5,1.3-1.5,2.3-2.7,2.9c-1.3,0.7-2.7,0.8-4,0.5c-1.4-0.4-2.5-1.2-3.1-2.3c-0.4-0.7-0.7-1.6-0.7-2.4l0.3-1.6
		c0.1-0.7,0.5-1.4,1.1-2l6-7.1c0.7,0.4,1.6,0.7,2.4,0.8c0.1,2.4,0.9,4.9,0.9,7.7V42.7z M21.2,28.6c-0.9-0.8-1.4-2-1.4-3.3
		c0-1.3,0.5-2.3,1.4-3.3c0.9-0.8,2-1.3,3.4-1.3c1.3,0,2.5,0.5,3.3,1.3c1,1,1.4,2,1.4,3.3c0,1.3-0.4,2.5-1.4,3.3
		c-0.9,0.9-2,1.4-3.3,1.4C23.2,30.1,22,29.6,21.2,28.6z M34.4,41c-0.1,1.3-0.6,2.2-1.4,2.5c-0.5,0.3-1.1,0.3-1.7,0.3
		c-1.4-0.4-2.4-1.4-3.2-3.1l-0.9-2.3l-1.1-6.1l1.2-0.4l0.9-0.5l3,3l1.9,2.3l0.4,0.7C34.2,38.5,34.6,39.6,34.4,41z M46.8,32.7
		c-0.4,1.4-1.2,2.5-2.4,3c-1.3,0.7-2.6,0.8-4,0.4c-0.9-0.2-1.4-0.6-1.9-1.1l-7.5-6.1l0.5-1.1l0.2-0.8l8.1-0.7l2.9-0.1l0.7,0.1
		c1.1,0.4,2.1,1,2.7,2c0.7,0.8,1.1,1.8,1.1,3L46.8,32.7z"/>
</g>
</svg>