<svg xmlns="http://www.w3.org/2000/svg" viewBox="0 0 50 50"><path fill="#0c0" d="M49 27.4l-.4-.6c-.6-.8-1.1-1.7-2-2.3-.7-.5-1.6-.8-2.4-1.2 2.2-1.1 3.7-2.5 4.5-4.4.5-1.6-.4-2.8-.4-4.1v-.1c0-1.4-2-2.3-3.7-2.8-1.1-.2-2.3-.2-3.3-.1l-2.4.5.8-1.8A7.85 7.85 0 0 0 39 4l-.2-.4C37.7 1.8 36.1.8 34 .2c-2.3-.5-4.2-.2-6.2.8-2 1.1-3.9 2.7-3.9 4.8v.1l-.3.5-.4-.5-.8-1.3c-1.2-1.8-2.6-2.8-4.4-3.3-1.6-.4-2.9-.2-4.2.5-1.5.9-2.4 2.3-2.7 4.3-.4 2 0 4 1.1 6l.5.7-1.7-.5c-2.2-.5-4.2-.2-6.2.8-2.1 1.1-3.4 2.5-4.2 4.6-.8 2-.7 3.9.3 5.6.4.8 1.1 1.4 1.7 1.8.9.8 1.9 1.3 3.2 1.6l.5.1-1.1.9c-1 .8-1.6 1.9-1.9 3-.5 1.3-.3 2.6.4 3.8.4.6.7 1.1 1.3 1.4.6.5 1.3.8 2.2.9 1.6.4 3.2.4 5-.2l-1.3 2.1-.4.9c-.7 2.3-.5 4.2.6 6.3.5.8 1.1 1.5 1.7 2.1.9.8 1.9 1.3 3.2 1.6 2.2.6 4.3.5 6.4-.6 2-1.1 3.3-2.8 4-4.9l.1-.4c1.4 1.5 2.7 2.5 4.1 2.8 1.4.4 2.9.4 4.2-.5 1.2-.7 2.1-1.9 2.5-3.4.4-1.6.4-3.1 0-4.9.7.5 1.4.8 2.3 1.1 2.3.7 4.3.6 6.3-.4 1.9-1.1 3.2-2.8 3.9-4.9.4-2 .3-4.1-.8-6.1zM38.6 15.7l.9-.4c1.3-.6 2.5-.7 3.8-.6 1.2.1 2.1.7 2.5 1.6l.3.9-.1.7c-.5 1.3-1.6 2.3-3.4 3-.7.4-1.5.5-2.4.6l-8.8 1.1-.1-.5-.1-.2.3-.4 7.1-5.8zM26.4 6.8c.4-1.4 1.4-2.5 2.7-3.2s2.7-.8 4.1-.4c1.5.4 2.6 1.1 3.2 2.3.3.8.6 1.6.6 2.6l-.2 1.5c-.3.8-.6 1.5-1.1 2.1l-6.5 7.8c-.6-.5-1.4-.8-2.1-1.2l-.7-8-.1-2.8.1-.7zM14.1 7c.1-1.3.6-2.1 1.4-2.6.5-.4 1.1-.4 1.7-.1 1.3.4 2.4 1.3 3.2 3 .4.7.7 1.4.9 2.3l1.4 8.3-1.1.4-6.4-6.8-.4-.7c-.5-1.3-.8-2.5-.7-3.8zM3.6 21.9c-.6-1-.6-2.1-.2-3.1.5-1.3 1.4-2.4 2.8-3 1.3-.7 2.6-.9 4-.6l1.9.8 6.3 4.5c-.6.7-.9 1.4-1.2 2.1L7 23.9l-.7-.1c-1.3-.2-2.2-.8-2.7-1.9zm20.3 20.8l-.3.7c-.5 1.3-1.5 2.3-2.7 2.9-1.3.7-2.7.8-4 .5-1.4-.4-2.5-1.2-3.1-2.3-.4-.7-.7-1.6-.7-2.4l.3-1.6c.1-.7.5-1.4 1.1-2l6-7.1c.7.4 1.6.7 2.4.8.1 2.4.9 4.9.9 7.7v2.8zm-2.7-14.1c-.9-.8-1.4-2-1.4-3.3s.5-2.3 1.4-3.3c.9-.8 2-1.3 3.4-1.3 1.3 0 2.5.5 3.3 1.3 1 1 1.4 2 1.4 3.3s-.4 2.5-1.4 3.3c-.9.9-2 1.4-3.3 1.4-1.4.1-2.6-.4-3.4-1.4zM34.4 41c-.1 1.3-.6 2.2-1.4 2.5-.5.3-1.1.3-1.7.3-1.4-.4-2.4-1.4-3.2-3.1l-.9-2.3-1.1-6.1 1.2-.4.9-.5 3 3 1.9 2.3.4.7c.7 1.1 1.1 2.2.9 3.6zm12.4-8.3c-.4 1.4-1.2 2.5-2.4 3-1.3.7-2.6.8-4 .4-.9-.2-1.4-.6-1.9-1.1L31 28.9l.5-1.1.2-.8 8.1-.7 2.9-.1.7.1c1.1.4 2.1 1 2.7 2 .7.8 1.1 1.8 1.1 3l-.4 1.4z"/></svg>