<svg xmlns="http://www.w3.org/2000/svg" viewBox="0 0 50 50"><path fill="#ecf0f1" d="M.9 1.2h48.2v47.7H.9z"/><path d="M50 50H0V0h50v50zM1.8 47.7h46.5V2.3H1.8v45.4zm2.6-42h41.2v38.6H4.4z" fill="#545e73"/><path fill="#ecf0f1" d="M46.5 45.5h-43v-41h43v41zM5.3 43.1h39.5V6.9H5.3v36.2z"/><ellipse fill="#f3d55a" cx="13.2" cy="15.4" rx="4" ry="5.2"/><path fill="#11a085" d="M44.7 33l-.8-1.1-10.6-12.6-9.2 13.1 4.8 6.2 3.6 4.5h12.2z"/><path fill="#26b999" d="M5.3 43.1h27.2l-3.6-4.5-9.6-12.4-14 15.9z"/></svg>