<?xml version="1.0" encoding="utf-8"?>
<!-- Generator: Adobe Illustrator 21.0.2, SVG Export Plug-In . SVG Version: 6.00 Build 0)  -->
<svg version="1.1" id="Capa_1" xmlns="http://www.w3.org/2000/svg" xmlns:xlink="http://www.w3.org/1999/xlink" x="0px" y="0px"
	 viewBox="0 0 50 50" style="enable-background:new 0 0 50 50;" xml:space="preserve">
<style type="text/css">
	.st0{fill:#ECF0F1;}
	.st1{fill:#545E73;}
	.st2{fill:#F3D55A;}
	.st3{fill:#11A085;}
	.st4{fill:#26B999;}
</style>
<g>
	<g>
		<rect x="0.9" y="6.6" class="st0" width="48.2" height="36.8"/>
		<path class="st1" d="M50,44.3H0V5.7h50V44.3z M1.8,42.5h46.5V7.5H1.8V42.5z"/>
	</g>
	<g>
		<rect x="4.4" y="10.1" class="st1" width="41.2" height="29.8"/>
		<path class="st0" d="M46.5,40.8h-43V9.2h43V40.8z M5.3,39h39.5V11H5.3V39z"/>
	</g>
	<circle class="st2" cx="13.2" cy="17.6" r="4"/>
	<polygon class="st3" points="44.7,31.2 43.9,30.3 33.3,20.6 24.1,30.7 28.9,35.5 32.5,39 44.7,39 	"/>
	<polygon class="st4" points="5.3,39 32.5,39 28.9,35.5 19.3,25.9 5.3,38.2 	"/>
</g>
</svg>
