<svg xmlns="http://www.w3.org/2000/svg" viewBox="0 0 50 50"><path fill="#2196f3" d="M37.8 4v14.4c0 2.2-1.7 4-3.9 4H18l-8.5 5.1-2.8-5.1H5.5c-2.1 0-3.9-1.8-3.9-4V4c0-2.2 1.7-4 3.9-4H34c2.1 0 3.8 1.8 3.8 4z"/><path fill="#cfd8dc" d="M12.2 46V31.6c0-2.2 1.7-4 3.9-4h16l8.5-5.1 2.8 5.1h1.1c2.1 0 3.9 1.8 3.9 4V46c0 2.2-1.7 4-3.9 4H16.1c-2.2 0-3.9-1.8-3.9-4z"/><path fill="#fff" d="M23.8 19.9h3.1L21.1 2.5h-2.9l-5.7 17.4h3l1-3.1h6.4l.9 3.1zm-6.3-6.1l2.2-6.9 2.2 6.9h-4.4z"/><path fill="#546e7a" d="M38.3 36v-2.7h-6.7v-2.7h-2.7v2.7h-6.6V36h10.4l-3 4.1c-.8-.8-1.5-1.7-2.1-2.7l-2.4 1.3c.8 1.2 1.7 2.3 2.6 3.3-2.3 2.3-4.2 3.6-4.3 3.6l1.6 2.3c.7-.5 2.5-1.7 4.7-3.9 3 2.6 5.7 4 5.7 4l1.3-2.3s-2.6-1.4-5.3-3.7c1.4-1.6 2.8-3.6 4.1-6h2.7z"/></svg>