<svg version="1.1" xmlns="http://www.w3.org/2000/svg" xmlns:xlink="http://www.w3.org/1999/xlink" x="0px" y="0px"
	 viewBox="0 0 50 50" enable-background="new 0 0 50 50" xml:space="preserve">
<path display="none" fill="#2196F3" d="M31.6,35L21,7H10c-1.7,0-3,1.3-3,3v33l8.6-8H31.6z"/>
<path fill="#2196F3" d="M37.8,4v14.4c0,2.2-1.7,4-3.9,4H18l-8.5,5.1l-2.8-5.1H5.5c-2.1,0-3.9-1.8-3.9-4V4c0-2.2,1.7-4,3.9-4h28.5
	C36.1,0,37.8,1.8,37.8,4z"/>
<path fill="#CFD8DC" d="M12.2,46V31.6c0-2.2,1.7-4,3.9-4h16l8.5-5.1l2.8,5.1h1.1c2.1,0,3.9,1.8,3.9,4V46c0,2.2-1.7,4-3.9,4H16.1
	C13.9,50,12.2,48.2,12.2,46z"/>
<path fill="#FFFFFF" d="M23.8,19.9h3.1L21.1,2.5h-2.9l-5.7,17.4h3l1-3.1h6.4L23.8,19.9z M17.5,13.8l2.2-6.9l2.2,6.9H17.5z"/>
<path fill="#546E7A" d="M38.3,36v-2.7h-6.7v-2.7h-2.7v2.7h-6.6V36h6.6h2.7h1.1c-1,1.5-2,2.9-3,4.1c-0.8-0.8-1.5-1.7-2.1-2.7
	l-2.4,1.3c0.8,1.2,1.7,2.3,2.6,3.3c-2.3,2.3-4.2,3.6-4.3,3.6l1.6,2.3c0.7-0.5,2.5-1.7,4.7-3.9c3,2.6,5.7,4,5.7,4l1.3-2.3
	c0,0-2.6-1.4-5.3-3.7c1.4-1.6,2.8-3.6,4.1-6H38.3z"/>
</svg>