<svg version="1.1" xmlns="http://www.w3.org/2000/svg" xmlns:xlink="http://www.w3.org/1999/xlink" x="0px" y="0px"
	 viewBox="0 0 50 50" style="enable-background:new 0 0 50 50;" xml:space="preserve">
<path fill="#64B5F6" d="M2.6,18c-0.5,0-0.8,0.6-0.4,0.9l21.3,20.6c0.9,0.7,2.2,0.7,3,0L47.8,19c0.4-0.3,0.1-0.9-0.4-0.9H2.6V18z"/>
<path fill="#64B5F6" d="M2.6,19c-0.5,0-0.8-0.5-0.4-0.8L23.5,0.5c0.9-0.6,2.2-0.6,3,0l21.3,17.7c0.4,0.3,0.1,0.8-0.4,0.8H2.6z"/>
<path fill="#2196F3" d="M2,49V18.5c0-0.4,0.5-0.6,0.8-0.4l15.8,16L2.8,49.4C2.4,49.6,2,49.4,2,49z"/>
<path fill="#2196F3" d="M48,49V18.5c0-0.4-0.5-0.6-0.8-0.4l-15.8,16l15.8,15.2C47.6,49.6,48,49.4,48,49z"/>
<path fill="#1976D2" d="M2.6,50c-0.5,0-0.8-0.6-0.4-1l21.3-20.6c0.9-0.7,2.2-0.7,3,0L47.8,49c0.4,0.4,0.1,1-0.4,1H2.6z"/>
<g>
	<path fill="#FFFFFF" d="M29.7,24.7c-1.7,0.8-3.4,1.1-5.4,1.1c-5,0-9.2-3.4-9.2-9c0-5.9,4.4-11,11.1-11c5.3,0,8.9,3.5,8.9,8.3
		c0,4.3-2.6,6.8-5.4,6.8c-1.2,0-2.3-0.8-2.3-2.5h-0.1c-1.1,1.7-2.5,2.5-4.3,2.5s-3.3-1.4-3.3-3.6c0-3.6,3-6.8,7.2-6.8
		c1.3,0,2.5,0.3,3.3,0.6l-1,5.2c-0.5,2.2-0.1,3.2,0.9,3.2c1.6,0,3.3-1.9,3.3-5.3C33.4,10,30.7,7,26,7c-5,0-9.1,3.7-9.1,9.5
		c0,4.8,3.3,7.8,7.8,7.8c1.7,0,3.4-0.3,4.6-1L29.7,24.7z M28,12.3c-0.3-0.1-0.8-0.2-1.5-0.2c-2.7,0-4.8,2.4-4.8,5.2
		c0,1.3,0.7,2.2,2,2.2c1.8,0,3.4-2.1,3.7-3.9L28,12.3z"/>
</g>
</svg>