<svg xmlns="http://www.w3.org/2000/svg" viewBox="0 0 50 50"><g fill="#64b5f6"><path d="M2.6 18c-.5 0-.8.6-.4.9l21.3 20.6c.9.7 2.2.7 3 0L47.8 19c.4-.3.1-.9-.4-.9H2.6V18z"/><path d="M2.6 19c-.5 0-.8-.5-.4-.8L23.5.5c.9-.6 2.2-.6 3 0l21.3 17.7c.4.3.1.8-.4.8H2.6z"/></g><path d="M2 49V18.5c0-.4.5-.6.8-.4l15.8 16L2.8 49.4c-.4.2-.8 0-.8-.4zm46 0V18.5c0-.4-.5-.6-.8-.4l-15.8 16 15.8 15.2c.4.3.8.1.8-.3z" fill="#2196f3"/><path fill="#1976d2" d="M2.6 50c-.5 0-.8-.6-.4-1l21.3-20.6c.9-.7 2.2-.7 3 0L47.8 49c.4.4.1 1-.4 1H2.6z"/><path fill="#fff" d="M29.7 24.7c-1.7.8-3.4 1.1-5.4 1.1-5 0-9.2-3.4-9.2-9 0-5.9 4.4-11 11.1-11 5.3 0 8.9 3.5 8.9 8.3 0 4.3-2.6 6.8-5.4 6.8-1.2 0-2.3-.8-2.3-2.5h-.1c-1.1 1.7-2.5 2.5-4.3 2.5s-3.3-1.4-3.3-3.6c0-3.6 3-6.8 7.2-6.8a9.73 9.73 0 0 1 3.3.6l-1 5.2c-.5 2.2-.1 3.2.9 3.2 1.6 0 3.3-1.9 3.3-5.3C33.4 10 30.7 7 26 7c-5 0-9.1 3.7-9.1 9.5 0 4.8 3.3 7.8 7.8 7.8 1.7 0 3.4-.3 4.6-1l.4 1.4zM28 12.3c-.3-.1-.8-.2-1.5-.2-2.7 0-4.8 2.4-4.8 5.2 0 1.3.7 2.2 2 2.2 1.8 0 3.4-2.1 3.7-3.9l.6-3.3z"/></svg>