<svg version="1.1" xmlns="http://www.w3.org/2000/svg" xmlns:xlink="http://www.w3.org/1999/xlink" x="0px" y="0px"
	 viewBox="0 0 50 50" style="enable-background:new 0 0 50 50;" xml:space="preserve">
<circle fill="#38454F" cx="25" cy="25" r="25"/>
<path fill="#7383BF" d="M14.2,17.2H7c-1,0-1.8,0.8-1.8,1.8v11c0,1,0.8,1.8,1.8,1.8h7.2c0.3,0,0.6,0.1,0.9,0.3l11.5,10.7
	c1.2,0.7,2.7-0.2,2.7-1.6V7.9c0-1.4-1.5-2.3-2.7-1.6L15.1,17C14.8,17.2,14.5,17.2,14.2,17.2z"/>
<path fill="#EFCE4A" d="M35.8,36.2c-0.2,0-0.4-0.1-0.6-0.3c-0.3-0.3-0.3-0.9,0-1.2c5.4-5.4,5.4-14.1,0-19.5c-0.3-0.3-0.3-0.9,0-1.2
	c0.3-0.3,0.9-0.3,1.2,0c6,6.1,6,15.9,0,21.9C36.3,36.2,36,36.2,35.8,36.2z"/>
<path fill="#EFCE4A" d="M32.8,32.8c-0.2,0-0.4-0.1-0.6-0.3c-0.3-0.3-0.3-0.9,0-1.2c3.7-3.7,3.7-9.7,0-13.4c-0.3-0.3-0.3-0.9,0-1.2
	c0.3-0.3,0.9-0.3,1.2,0c4.4,4.4,4.4,11.5,0,15.9C33.2,32.7,33,32.8,32.8,32.8z"/>
<path fill="#EFCE4A" d="M38.3,40.5c-0.2,0-0.4-0.1-0.6-0.3c-0.3-0.3-0.3-0.9,0-1.2c3.8-3.8,5.8-8.7,5.8-14s-2.1-10.3-5.8-14
	c-0.3-0.3-0.3-0.9,0-1.2c0.3-0.3,0.9-0.3,1.2,0c4.1,4.1,6.3,9.5,6.3,15.3S43,36.2,39,40.3C38.8,40.4,38.6,40.5,38.3,40.5z"/>
</svg>