<svg version="1.1" xmlns="http://www.w3.org/2000/svg" xmlns:xlink="http://www.w3.org/1999/xlink" x="0px" y="0px"
	 viewBox="0 0 50 50" style="enable-background:new 0 0 50 50;" xml:space="preserve">
    <path fill="#444444" d="M4.9-0.5L4.3,0.2c0,0-1.5,1.3-2.5,1.3v4c1.4,0,2.3-0.6,3.2-1.1v9.1h4v-12v-2H7H5.8H4.9z M15,5.5v4h34v-4H15z
	 M6,17.5c-2.8,0-5,2.2-5,5v1h4v-1c0-0.4,0.6-1,1-1s1,0.6,1,1l-0.1,0.1l-0.1,0.1l-5.2,5L1,28.3v0.9v0.4v2h2h8v-4H7.6l1.8-1.8l0.3-0.2
	l-0.1-0.1c1-0.8,1.5-2,1.5-3C11,19.7,8.8,17.5,6,17.5z M15,23.5v4h34v-4H15z M1,35.5v4h2.8l-0.5,0.8L3,40.8v0.6v0.2v2h2h1
	c0.4,0,1,0.6,1,1s-0.6,1-1,1H1v4h5c2.8,0,5-2.2,5-5c0-2-1.4-3.4-3.1-4.2l0.8-1.4L9,38.4v-0.6v-0.4v-2H7H1z M15,41.5v4h34v-4H15z"/>
</svg>