<svg version="1.1" xmlns="http://www.w3.org/2000/svg" xmlns:xlink="http://www.w3.org/1999/xlink" x="0px" y="0px"
	 viewBox="0 0 50 50" style="enable-background:new 0 0 50 50;" xml:space="preserve">
<radialGradient id="SVGID_1_" cx="108.5101" cy="-135.7223" r="32.8288" gradientTransform="matrix(1 0 0 -1 -93.5 -119.25)" gradientUnits="userSpaceOnUse">
	<stop  offset="0" style="stop-color:#FFFFFF"/>
	<stop  offset="0.5" style="stop-color:#4C6B97"/>
	<stop  offset="1" style="stop-color:#231F20"/>
</radialGradient>
<ellipse fill="url(#SVGID_1_)" cx="25" cy="25" rx="25" ry="13.2"/>
<ellipse fill="#6181B6" cx="25" cy="25" rx="24" ry="12.2"/>
<path fill="#FFFFFF" d="M29.9,28.9l1.2-6.1c0.3-1.4,0-2.4-0.7-3.1c-0.7-0.6-1.9-0.9-3.6-0.9h-2.1l0.6-3c0-0.2-0.1-0.4-0.3-0.5
	c0,0,0,0-0.1,0h-2.8c-0.2,0-0.3,0.1-0.4,0.3l-1.3,6.5c-0.1-0.7-0.4-1.3-0.9-1.9c-0.8-1-2.2-1.4-3.9-1.4h-5.5c-0.2,0-0.3,0.1-0.4,0.3
	L7.2,32.3c0,0.2,0.1,0.4,0.3,0.5c0,0,0,0,0.1,0h2.9c0.2,0,0.3-0.1,0.4-0.3l0.6-3.2h2.1c1.1,0,2.1-0.1,2.8-0.4
	c0.8-0.3,1.5-0.7,2.1-1.2c0.5-0.4,0.9-0.9,1.2-1.5l-0.5,2.6c0,0.2,0.1,0.4,0.3,0.5c0,0,0,0,0.1,0h2.8c0.2,0,0.3-0.1,0.4-0.3l1.4-7.2
	h2c0.8,0,1.1,0.2,1.1,0.2s0.2,0.3,0,1l-1.1,5.8c0,0.2,0.1,0.4,0.3,0.5c0,0,0,0,0.1,0h2.9C29.7,29.2,29.8,29.1,29.9,28.9z M16.7,23.9
	c-0.2,0.9-0.5,1.6-1,1.9c-0.5,0.4-1.3,0.6-2.4,0.6H12l0.9-4.7h1.6c1.2,0,1.7,0.3,1.9,0.5C16.8,22.4,16.8,23,16.7,23.9L16.7,23.9z"/>
<path fill="#FFFFFF" d="M42,20.2c-0.8-1-2.2-1.4-3.9-1.4h-5.5c-0.2,0-0.3,0.1-0.4,0.3l-2.6,13.2c0,0.2,0.1,0.4,0.3,0.5c0,0,0,0,0.1,0
	h2.9c0.2,0,0.3-0.1,0.4-0.3l0.6-3.2H36c1.1,0,2.1-0.1,2.8-0.4c0.8-0.3,1.5-0.7,2.1-1.2c1-0.9,1.7-2.1,1.9-3.4
	C43.1,22.5,42.9,21.2,42,20.2z M39.1,23.9c-0.2,0.9-0.5,1.6-1,1.9s-1.3,0.6-2.4,0.6h-1.3l0.9-4.7H37c1.2,0,1.7,0.3,1.9,0.5
	C39.2,22.4,39.2,23,39.1,23.9z"/>
<path fill="#000004" d="M14.6,21.3c1.1,0,1.8,0.2,2.2,0.6c0.4,0.4,0.5,1.1,0.3,2.1c-0.2,1-0.6,1.7-1.1,2.2c-0.6,0.4-1.4,0.7-2.6,0.7
	h-1.7l1.1-5.5H14.6z M7.6,32.4h2.9l0.7-3.5h2.5c1.1,0,2-0.1,2.7-0.3c0.7-0.2,1.4-0.6,1.9-1.1c0.9-0.8,1.6-2,1.8-3.2
	c0.3-1.6,0.1-2.8-0.7-3.7s-2-1.3-3.6-1.3h-5.5L7.6,32.4z"/>
<path fill="#000004" d="M22.1,15.7H25l-0.7,3.5h2.5c1.6,0,2.7,0.3,3.3,0.8c0.6,0.6,0.8,1.5,0.5,2.7l-1.2,6.1h-2.9l1.1-5.8
	c0.1-0.7,0.1-1.1-0.1-1.4c-0.2-0.2-0.7-0.4-1.4-0.4h-2.3l-1.5,7.6h-2.8L22.1,15.7z"/>
<path fill="#000004" d="M37,21.3c1.1,0,1.8,0.2,2.2,0.6c0.4,0.4,0.5,1.1,0.3,2.1c-0.2,1-0.6,1.7-1.1,2.2c-0.6,0.4-1.4,0.7-2.6,0.7H34
	l1.1-5.5H37z M30,32.4h2.9l0.7-3.5H36c1.1,0,2-0.1,2.7-0.3c0.7-0.2,1.4-0.6,1.9-1.1c0.9-0.8,1.6-2,1.8-3.2c0.3-1.6,0.1-2.8-0.7-3.7
	s-2-1.3-3.6-1.3h-5.5L30,32.4z"/>
</svg>