<svg xmlns="http://www.w3.org/2000/svg" viewBox="0 0 50 50"><path fill="#146a8a" d="M16.497 29.95l6.647-6.647 3.465 3.465-6.647 6.647z"/><path fill="#f7b93f" d="M17.8 27.9L0 45.7l2.1 2.2 9.7-8.2 8.1-9.6z"/><path fill="#f79a30" d="M2.105 47.86l17.82-17.82 2.12 2.12-17.82 17.82z"/><path fill="#82c8db" d="M23.3 4.6c-6.1 6.1-6.1 16 0 22.1l12.6-9.5 9.5-12.6c-6.1-6.1-16-6.1-22.1 0z"/><path fill="#62b3cd" d="M45.4 4.6L23.3 26.7c6.1 6.1 16 6.1 22.1 0s6.1-16 0-22.1z"/><path fill="#9ef3d3" d="M43.1 6.9L25.6 24.4c4.8 4.8 12.7 4.8 17.5 0s4.8-12.7 0-17.5z"/><path fill="#c7ffea" d="M43.1 6.9c-4.8-4.8-12.7-4.8-17.5 0s-4.8 12.7 0 17.5c3.5 3.5 10.3 2.5 15.2-2.3 4.8-4.9 5.8-11.6 2.3-15.2z"/></svg>