<svg version="1.1" xmlns="http://www.w3.org/2000/svg" xmlns:xlink="http://www.w3.org/1999/xlink" x="0px" y="0px"
	 viewBox="0 0 50 50" style="enable-background:new 0 0 50 50;" xml:space="preserve">
<rect fill="#146A8A" x="16.9" y="25.9" transform="matrix(0.7071 -0.7071 0.7071 0.7071 -13.7666 23.5876)" width="9.4" height="4.9"/>
<polygon fill="#F7B93F" points="17.8,27.9 0,45.7 2.1,47.9 11.8,39.7 19.9,30.1 "/>
<rect fill="#F79A30" x="-0.5" y="38.5" transform="matrix(0.7071 -0.7071 0.7071 0.7071 -24.7645 20.2836)" width="25.2" height="3"/>
<path fill="#82C8DB" d="M23.3,4.6c-6.1,6.1-6.1,16,0,22.1l12.6-9.5l9.5-12.6C39.3-1.5,29.4-1.5,23.3,4.6z"/>
<path fill="#62B3CD" d="M45.4,4.6L23.3,26.7c6.1,6.1,16,6.1,22.1,0S51.5,10.7,45.4,4.6z"/>
<path fill="#9EF3D3" d="M43.1,6.9L25.6,24.4c4.8,4.8,12.7,4.8,17.5,0S47.9,11.7,43.1,6.9z"/>
<path fill="#C7FFEA" d="M43.1,6.9c-4.8-4.8-12.7-4.8-17.5,0c-4.8,4.8-4.8,12.7,0,17.5c3.5,3.5,10.3,2.5,15.2-2.3
	C45.6,17.2,46.6,10.5,43.1,6.9z"/>
</svg>