<svg version="1.1" xmlns="http://www.w3.org/2000/svg" xmlns:xlink="http://www.w3.org/1999/xlink" x="0px" y="0px"
	 viewBox="0 0 50 50" style="enable-background:new 0 0 50 50;" xml:space="preserve">
<path fill="#444444" d="M0,48l10.8-32.1h4.6L26.3,48h-4.3l-3-9.8H7.2L4.2,48H0z M9.8,30l-1.5,4.9h9.6L16.4,30c-0.6-1.8-1.1-3.6-1.6-5.4
	c-0.5-1.8-1.1-3.6-1.5-5.5H13c-0.5,1.9-1,3.7-1.6,5.5C10.9,26.4,10.4,28.2,9.8,30z"/>
<path fill="#444444" d="M12.5,48L28,2h6.6L50,48h-6.2l-4.3-14H22.8l-4.4,14H12.5z M26.5,22.3l-2.2,7H38l-2.2-7
	c-0.8-2.6-1.6-5.1-2.3-7.7c-0.8-2.5-1.5-5.1-2.2-7.8H31c-0.7,2.7-1.5,5.3-2.2,7.8C28.1,17.2,27.3,19.7,26.5,22.3z"/>
</svg>