<svg version="1.1" xmlns="http://www.w3.org/2000/svg" xmlns:xlink="http://www.w3.org/1999/xlink" x="0px" y="0px"
	 viewBox="0 0 50 50" style="enable-background:new 0 0 50 50;" xml:space="preserve">
    <path fill="#444444" d="M4.2,2.1C1.9,2.1,0,3.9,0,6.3s1.9,4.2,4.2,4.2s4.2-1.9,4.2-4.2S6.5,2.1,4.2,2.1z M14.6,4.2v4.2H50V4.2H14.6z
	 M4.2,20.8C1.9,20.8,0,22.7,0,25s1.9,4.2,4.2,4.2s4.2-1.9,4.2-4.2S6.5,20.8,4.2,20.8z M14.6,22.9v4.2H50v-4.2H14.6z M4.2,39.6
	c-2.3,0-4.2,1.9-4.2,4.2s1.9,4.2,4.2,4.2s4.2-1.9,4.2-4.2S6.5,39.6,4.2,39.6z M14.6,41.7v4.2H50v-4.2H14.6z"/>
</svg>