<svg version="1.1" xmlns="http://www.w3.org/2000/svg" xmlns:xlink="http://www.w3.org/1999/xlink" x="0px" y="0px"
	 viewBox="0 0 50 50" style="enable-background:new 0 0 50 50;" xml:space="preserve">
<g>
	<path fill="#6FC5D6" d="M8.1,26.4l-4.9,4.9c-4.3,4.3-4.3,11.3,0,15.5s11.3,4.3,15.5,0l4.9-4.9c4.3-4.3,4.3-11.3,0-15.5
		S12.4,22.1,8.1,26.4z M20.5,38.8l-4.9,4.9c-2.6,2.6-6.8,2.6-9.3,0c-2.6-2.6-2.6-6.8,0-9.3l4.9-4.9c2.6-2.6,6.8-2.6,9.3,0
		S23.1,36.2,20.5,38.8z"/>
	<path fill="#6FC5D6" d="M31.3,3.2l-4.9,4.9c-4.3,4.3-4.3,11.3,0,15.5s11.3,4.3,15.5,0l4.9-4.9c4.3-4.3,4.3-11.3,0-15.5
		S35.5-1.1,31.3,3.2z M43.7,15.6l-4.9,4.9c-2.6,2.6-6.8,2.6-9.3,0s-2.6-6.8,0-9.3l4.9-4.9c2.6-2.6,6.8-2.6,9.3,0
		C46.3,8.9,46.3,13.1,43.7,15.6z"/>
</g>
<path fill="#609399" d="M34.9,18.2c0.9-0.9,0.9-2.2,0-3.1c-0.9-0.9-2.2-0.9-3.1,0c-0.1,0.1-16.7,16.7-16.7,16.7c-0.9,0.9-0.9,2.2,0,3.1
	c0.9,0.9,2.2,0.9,3.1,0C18.2,34.9,34.8,18.3,34.9,18.2z"/>
</svg>