<svg xmlns="http://www.w3.org/2000/svg" viewBox="0 0 50 50"><path d="M8.1 26.4l-4.9 4.9c-4.3 4.3-4.3 11.3 0 15.5s11.3 4.3 15.5 0l4.9-4.9c4.3-4.3 4.3-11.3 0-15.5s-11.2-4.3-15.5 0zm12.4 12.4l-4.9 4.9c-2.6 2.6-6.8 2.6-9.3 0-2.6-2.6-2.6-6.8 0-9.3l4.9-4.9c2.6-2.6 6.8-2.6 9.3 0s2.6 6.7 0 9.3zM31.3 3.2l-4.9 4.9c-4.3 4.3-4.3 11.3 0 15.5s11.3 4.3 15.5 0l4.9-4.9c4.3-4.3 4.3-11.3 0-15.5s-11.3-4.3-15.5 0zm12.4 12.4l-4.9 4.9c-2.6 2.6-6.8 2.6-9.3 0s-2.6-6.8 0-9.3l4.9-4.9c2.6-2.6 6.8-2.6 9.3 0 2.6 2.6 2.6 6.8 0 9.3z" fill="#6fc5d6"/><path fill="#609399" d="M34.9 18.2c.9-.9.9-2.2 0-3.1s-2.2-.9-3.1 0L15.1 31.8c-.9.9-.9 2.2 0 3.1s2.2.9 3.1 0l16.7-16.7z"/></svg>