<svg version="1.1" xmlns="http://www.w3.org/2000/svg" xmlns:xlink="http://www.w3.org/1999/xlink" x="0px" y="0px"
	 viewBox="0 0 50 50" style="enable-background:new 0 0 50 50;" xml:space="preserve">
<path fill="#444444" d="M10.4,14.6C4.6,14.6,0,19.2,0,25s4.6,10.4,10.4,10.4h6.2c3.3,0,6.5-1.7,8.3-4.2c1.9,2.5,5,4.2,8.3,4.2h6.3
	C45.4,35.4,50,30.8,50,25s-4.6-10.4-10.4-10.4h-6.3c-3.3,0-6.5,1.7-8.3,4.2c-1.9-2.5-5-4.2-8.3-4.2H10.4z M10.4,18.8h6.2
	c1.9,0,3.5,0.8,4.6,2.1h7.6c1-1.3,2.7-2.1,4.6-2.1h6.3c3.5,0,6.3,2.7,6.3,6.3s-2.7,6.3-6.3,6.3h-6.3c-1.9,0-3.5-0.8-4.6-2.1h-7.6
	c-1,1.3-2.7,2.1-4.6,2.1h-6.2c-3.5,0-6.3-2.7-6.3-6.3S6.9,18.8,10.4,18.8z M16.3,22.9c-1.2,0.1-2,1.1-1.9,2.3c0.1,1.2,1.1,2,2.3,1.9
	h16.7c1.2,0,2.1-0.9,2.1-2.1c0-1.2-0.9-2.1-2.1-2.1c0,0,0,0-0.1,0H16.7c-0.1,0-0.1,0-0.2,0C16.4,22.9,16.3,22.9,16.3,22.9z"/>
</svg>