<?xml version="1.0" encoding="utf-8"?>
<!-- Generator: Adobe Illustrator 21.0.2, SVG Export Plug-In . SVG Version: 6.00 Build 0)  -->
<svg version="1.1" id="Layer_1" xmlns="http://www.w3.org/2000/svg" xmlns:xlink="http://www.w3.org/1999/xlink" x="0px" y="0px"
	 viewBox="0 0 50 50" style="enable-background:new 0 0 50 50;" xml:space="preserve">
<style type="text/css">
	.st0{fill:#720E9E;}
	.st1{fill:#FFFFFF;}
</style>
<g>
	<path class="st0" d="M25,0c13.8,0,25,11.2,25,25c0,13.8-11.2,25-25,25S0,38.8,0,25C0,11.2,11.2,0,25,0z"/>
	<path class="st1" d="M36.4,19.7L36.4,19.7l0.9-0.9l0,0l0.1-0.1H25.7l0.4,1.6h3.2L24,25.2c-1.1-1.6-3.6-5.2-5.4-8h3.3v-1.1l0-0.3
		l0,0v-0.1H9.4v1.6h3.9c1.5,1.3,8.1,9.3,8.4,10c0.1,0.7,0.2,5,0,5.3c-0.3,0.5-3.9,0.2-4.5,0.3l0,1.6c1.1,0,4.6,0,5.8,0
		c2.3,0,6.3-0.1,6.9,0l0.1-1.5l-4.6-0.1c-0.1-0.7-0.2-4.9-0.1-5.3c0.4-1.3,7.5-6.8,8.2-7.1l0.7-0.2h2.1
		C36.1,20.3,36.4,19.7,36.4,19.7z M34.7,30.7l2,0.2l2.3-8.6c-0.4,0-3.9-0.3-4.4-0.4L34.7,30.7z M34.4,32.1l0,2.1l1,0.1l1.1,0.1
		l0.3-2l-1.2-0.1C35.7,32.3,34.4,32.1,34.4,32.1z"/>
</g>
</svg>
