<svg xmlns="http://www.w3.org/2000/svg" viewBox="0 0 50 50"><path d="M25 0c13.8 0 25 11.2 25 25S38.8 50 25 50 0 38.8 0 25 11.2 0 25 0z" fill="#720e9e"/><path d="M36.4 19.7l1-1H25.7l.4 1.6h3.2L24 25.2l-5.4-8h3.3v-1.5H9.4v1.6h3.9c1.5 1.3 8.1 9.3 8.4 10 .1.7.2 5 0 5.3-.3.5-3.9.2-4.5.3v1.6H23c2.3 0 6.3-.1 6.9 0L30 33l-4.6-.1c-.1-.7-.2-4.9-.1-5.3.4-1.3 7.5-6.8 8.2-7.1l.7-.2h2.1c-.2 0 .1-.6.1-.6zm-1.7 11l2 .2 2.3-8.6c-.4 0-3.9-.3-4.4-.4l.1 8.8zm-.3 1.4v2.1l1 .1 1.1.1.3-2-1.2-.1c.1 0-1.2-.2-1.2-.2z" fill="#fff"/></svg>