<svg version="1.1" xmlns="http://www.w3.org/2000/svg" xmlns:xlink="http://www.w3.org/1999/xlink" x="0px" y="0px"
	 viewBox="0 0 50 50" enable-background="new 0 0 50 50" xml:space="preserve">
	<path fill="#F00000" d="M35.8,1h-7.3c-7.1,0-13.2,5.4-13.2,16c0,6.3,2.9,11,8.2,13.3L13.7,48c-0.3,0.6,0,1,0.5,1h4.5
			c0.4,0,0.6-0.1,0.8-0.4l8.9-17.3h3.2v17.3c0,0.2,0.2,0.4,0.4,0.4h4c0.4,0,0.5-0.2,0.5-0.5V1.6C36.5,1.2,36.2,1,35.8,1z M31.5,27.1
			h-2.7c-4.2,0-8.3-3.1-8.3-10.8c0-8,3.8-11.3,7.7-11.3h3.3V27.1z"/>
</svg>