<svg version="1.1" xmlns="http://www.w3.org/2000/svg" xmlns:xlink="http://www.w3.org/1999/xlink" x="0px" y="0px"
	 viewBox="0 0 50 50" style="enable-background:new 0 0 50 50;" xml:space="preserve">
<path fill="#D8362A" d="M49.5,14.2c0,0-0.5-3.7-2-5.3c-1.9-2.2-4.1-2.2-5-2.2C35.5,6.1,25,6,25,6l0,0c0,0-10.5,0.1-17.5,0.6
	c-0.9,0.1-3.1,0.2-5,2.2c-1.6,1.6-2,5.3-2,5.3S0,18.6,0,23v4.1c0,4.4,0.5,8.7,0.5,8.7s0.5,3.7,2,5.3c1.9,2.2,4.4,2.1,5.5,2.3
	c4,0.4,17,0.5,17,0.5s10.5,0,17.5-0.6c0.9-0.1,3.1-0.2,5-2.2c1.5-1.6,2-5.3,2-5.3s0.5-4.4,0.5-8.7V23C50,18.6,49.5,14.2,49.5,14.2"
	/>
<polygon fill="#FFFFFF" points="19,16.3 19,35 35.3,25.9 "/>
</svg>