<?xml version="1.0" ?><!DOCTYPE svg  PUBLIC '-//W3C//DTD SVG 1.1//EN'
        'http://www.w3.org/Graphics/SVG/1.1/DTD/svg11.dtd'>
<svg height="1.04167in" style="shape-rendering:geometricPrecision; text-rendering:geometricPrecision; image-rendering:optimizeQuality; fill-rule:evenodd; clip-rule:evenodd" version="1.1" viewBox="0 0 99 99" width="1.04167in" xml:space="preserve" xmlns="http://www.w3.org/2000/svg" xmlns:xlink="http://www.w3.org/1999/xlink"><defs><style type="text/css">
   <![CDATA[
    .fil0 {fill:#3ACD01}
    .fil1 {fill:white;fill-rule:nonzero}
   ]]>
  </style></defs><g id="Layer_x0020_1"><g id="_521252008"><rect class="fil0" height="99.4661" rx="10" ry="10" width="99.4661"/><path class="fil1" d="M50 17c19,0 35,12 35,28 0,5 -2,11 -5,15 0,0 -1,0 -1,1l0 0c-1,1 -2,2 -4,3 -10,9 -26,20 -28,19 -2,-2 3,-9 -2,-10 -1,0 -1,0 -1,0l0 0 0 0c-17,-3 -30,-14 -30,-28 0,-16 16,-28 36,-28zm-21 37l0 0 0 0 7 0c1,0 2,-1 2,-2l0 0c0,-1 -1,-2 -2,-2l-5 0 0 -12c0,-1 -1,-1 -2,-1l0 0c-1,0 -2,0 -2,1l0 14c0,1 1,2 2,2zm44 -9l0 0 0 0c0,-1 0,-2 -1,-2l-6 0 0 -2 6 0c1,0 1,-1 1,-2l0 0c0,-1 0,-2 -1,-2l-7 0 0 0 -1 0c-1,0 -1,1 -1,2l0 13c0,1 0,2 1,2l1 0 0 0 7 0c1,0 1,-1 1,-2l0 0c0,-1 0,-2 -1,-2l-6 0 0 -3 6 0c1,0 1,-1 1,-2zm-13 8l0 0 0 0c0,0 0,0 0,-1l0 -14c0,-1 -1,-1 -2,-1l0 0c-1,0 -2,0 -2,1l0 9 -6 -9c-1,-1 -1,-1 -2,-1l0 0c-1,0 -2,0 -2,1l0 14c0,1 1,2 2,2l0 0c1,0 2,-1 2,-2l0 -8 7 9c0,0 0,0 0,0l0 0c0,1 0,1 1,1 0,0 0,0 0,0l0 0c1,0 1,0 1,0 0,0 1,0 1,-1zm-18 1l0 0 0 0c1,0 2,-1 2,-2l0 -14c0,-1 -1,-1 -2,-1l0 0c-1,0 -2,0 -2,1l0 14c0,1 1,2 2,2z"/></g></g></svg>