<svg xmlns="http://www.w3.org/2000/svg" viewBox="0 0 72 72"><path fill="#6b0094" d="M72,64c0,4.4-3.6,8-8,8H8c-4.4,0-8-3.6-8-8V8c0-4.4,3.6-8,8-8h56c4.4,0,8,3.6,8,8V64z"/><path d="M30.4 20.3c-9.5 0-16.7 7-16.7 16.2s7.2 16.2 16.7 16.2 16.7-7 16.7-16.2-7.3-16.2-16.7-16.2zm12.9 13l-3.6.3-7 6.2c0 1.6-.1 3.2-.1 4.8 1.4 0 2.7.1 4.1.2v1.5H24.1v-1.5l4.1-.3V40L21 31.2l-3.8-.3v-1.7h12.7c-.1.6-.1 1.1-.2 1.7l-3.5.3 5.3 6.5c1.7-1.5 3.4-2.9 5.2-4.4-1.3 0-2.6-.1-4-.2v-1.6l10.6-.2v2zm15.4-11.4l-9.6-.5-.5 22.9 4.6.5 5.5-22.9zM48.2 52.6h5.5V48l-6-.5.5 5.1z" fill="#fff"/></svg>