<?xml version="1.0" encoding="utf-8"?>
<svg version="1.1" id="yahoo" xmlns="http://www.w3.org/2000/svg" xmlns:xlink="http://www.w3.org/1999/xlink" x="0px" y="0px"
	 viewBox="0 0 72 72" enable-background="new 0 0 72 72" xml:space="preserve">
<path fill="#6B0094" d="M72,64c0,4.4-3.6,8-8,8H8c-4.4,0-8-3.6-8-8V8c0-4.4,3.6-8,8-8h56c4.4,0,8,3.6,8,8V64z"/>
<g>
	<path fill="#FFFFFF" d="M30.4,20.3L30.4,20.3c-9.5,0-16.7,7-16.7,16.2c0,9.2,7.2,16.2,16.7,16.2s16.7-7,16.7-16.2
		S39.8,20.3,30.4,20.3z M43.3,33.3c-1.2,0.1-2.4,0.2-3.6,0.3c-2.3,2.1-4.6,4.2-7,6.2c0,1.6-0.1,3.2-0.1,4.8c1.4,0,2.7,0.1,4.1,0.2
		v1.5H24.1v-1.5c1.4-0.1,2.7-0.2,4.1-0.3V40c-2.4-3-4.8-5.9-7.2-8.8c-1.3-0.1-2.5-0.2-3.8-0.3v-1.7h12.7c-0.1,0.6-0.1,1.1-0.2,1.7
		l0,0c-1.2,0.1-2.3,0.2-3.5,0.3c1.8,2.2,3.5,4.4,5.3,6.5c1.7-1.5,3.4-2.9,5.2-4.4c-1.3,0-2.6-0.1-4-0.2v-1.6
		c3.6-0.1,7.1-0.1,10.6-0.2V33.3z"/>
	<path fill="#FFFFFF" d="M58.7,21.9L58.7,21.9c-3.2-0.2-6.4-0.3-9.6-0.5c-0.2,7.6-0.3,15.3-0.5,22.9c1.5,0.2,3.1,0.3,4.6,0.5
		C55,37.2,56.9,29.6,58.7,21.9z"/>
	<path fill="#FFFFFF" d="M48.2,52.6h5.5V48c-2-0.2-4-0.3-6-0.5C47.8,49.3,48,51,48.2,52.6z"/>
</g>
</svg>
