<svg xmlns="http://www.w3.org/2000/svg" viewBox="0 0 72 72"><path fill="#333" d="M72,64c0,4.4-3.6,8-8,8H8c-4.4,0-8-3.6-8-8V8c0-4.4,3.6-8,8-8h56c4.4,0,8,3.6,8,8V64z"/><path fill="#fff" d="M55 27.4c.5-1.5.7-3 .7-4.5 0-2.1-.5-4.1-1.4-5.9-1.9 0-3.6.4-5.1 1.1s-3.2 1.8-5.1 3.3c-2.4-.6-4.9-.9-7.6-.9-2.9 0-5.7.3-8.4.9-1.9-1.5-3.6-2.6-5.1-3.3S19.8 17 17.9 17c-.9 1.8-1.4 3.8-1.4 5.9 0 1.6.2 3.1.7 4.6-2.5 2.9-3.7 6.4-3.7 10.7 0 3.8.6 6.7 1.7 9 .6 1.2 1.4 2.2 2.3 3.1 1 .9 2 1.6 3.3 2.2 1.2.6 2.5 1 3.7 1.4s2.6.6 4.1.8 2.8.3 4 .3h4c1.7 0 3.2 0 4.5-.1 1.4-.1 2.9-.3 4.6-.6s3.3-.7 4.6-1.3c1.3-.5 2.6-1.3 3.8-2.3s2.2-2.2 2.9-3.6c1.1-2.2 1.6-5.2 1.6-9-.1-4.2-1.3-7.8-3.6-10.7zm-3.2 19.7c-.6 1.2-1.3 2.1-2.2 2.8s-2 1.2-3.3 1.6-2.6.7-3.8.8-2.6.2-4 .2H34c-1.5 0-2.8-.1-4-.2s-2.5-.4-3.8-.8-2.4-.9-3.3-1.6-1.6-1.6-2.2-2.8-.9-2.6-.9-4.2c0-2.2.6-4 1.9-5.5 1.2-1.5 2.9-2.3 5.1-2.3.8 0 2.5.2 5.3.6 1.1.2 2.5.3 4.1.3s3-.1 4.2-.3c2.8-.4 4.5-.6 5.3-.6 2.1 0 3.8.8 5.1 2.3 1.2 1.5 1.9 3.4 1.9 5.5-.1 1.6-.3 3-.9 4.2zm-22.4-8.4c-.5-.6-1.2-.9-2-.9s-1.4.3-2 .9c-.5.6-.9 1.3-1.2 2.1-.2.8-.3 1.5-.3 2.2a8.33 8.33 0 0 0 .3 2.2c.2.8.6 1.4 1.2 2.1.6.6 1.2.9 2 .9s1.4-.3 2-.9c.5-.6.9-1.3 1.2-2.1.2-.8.3-1.5.3-2.2a8.33 8.33 0 0 0-.3-2.2c-.2-.9-.6-1.5-1.2-2.1zm17.4 0c-.5-.6-1.2-.9-2-.9s-1.4.3-2 .9c-.5.6-.9 1.3-1.2 2.1-.2.8-.3 1.5-.3 2.2a8.33 8.33 0 0 0 .3 2.2c.2.8.6 1.4 1.2 2.1.6.6 1.2.9 2 .9s1.4-.3 2-.9c.5-.6.9-1.3 1.2-2.1.2-.8.3-1.5.3-2.2a8.33 8.33 0 0 0-.3-2.2c-.2-.9-.6-1.5-1.2-2.1z"/></svg>