<svg xmlns="http://www.w3.org/2000/svg" viewBox="0 0 72 72"><path fill="#1ab7ea" d="M72,64c0,4.4-3.6,8-8,8H8c-4.4,0-8-3.6-8-8V8c0-4.4,3.6-8,8-8h56c4.4,0,8,3.6,8,8V64z"/><path fill="#fff" d="M51.9 17.9c4.4.1 6.5 2.6 6.6 7.4v1c-.2 4.1-3.2 9.7-9.2 16.8-6.1 7.3-11.3 11-15.5 11-2.6 0-4.8-2.3-6.6-6.8l-1.9-6.2-1.8-6.2c-1.3-4.5-2.8-6.7-4.3-6.7-.3 0-1.5.7-3.5 2l-2.1-2.5 3.3-2.8 3.3-2.7c2.9-2.3 5.1-3.6 6.7-3.8h.6c3.1 0 5.1 2.2 5.8 6.7.4 2.6.8 4.6 1.1 6.3.3 1.6.5 2.7.7 3.4 1 4.3 2.1 6.4 3.3 6.4.9 0 2.3-1.4 4.2-4.2s2.9-5 3-6.3c0-.3.1-.5.1-.8 0-1.9-1-2.8-3.1-2.8-1 0-2.1.2-3.3.6 2.1-6.5 6.2-9.8 12.2-9.8h.4z"/></svg>