<svg xmlns="http://www.w3.org/2000/svg" viewBox="0 0 72 72"><path fill="#fdd900" d="M72,64c0,4.4-3.6,8-8,8H8c-4.4,0-8-3.6-8-8V8c0-4.4,3.6-8,8-8h56c4.4,0,8,3.6,8,8V64z"/><path d="M47.3 58.3L45.1 55c-2.2-3-4.9-5.1-8.5-6.3-.3-.1-.5 0-.7.2-2.8 3.3-6 6.1-9.8 7.9-1.4.7-3 1.2-4.6 1.5-1-2.4-2.1-4.7-3-7 1.1-.3 2.3-.5 3.2-.9 2.9-1.1 4.9-3.3 6.5-5.9.5-.8.8-1.7.8-2.8-.1-3.2.3-6.4 1.5-9.3.8-2 2-3.6 3.7-4.9.3-.2.4-.2.7-.1 2.2.9 4.2 2 6.2 3.3.2.1.4.2.5.4.7.9 1.7 1.1 2.8 1.3 1.8.3 3.6.1 5.2-1 .4-.3.8-.7 1.3-1.1l3.5 5.7c-3.6 3.2-7.5 5.5-12.6 4v2.1c0 .1.2.2.3.3 2.6 1.5 5 3.3 7.3 5.4 1.5 1.5 3 3.2 3.7 5.2.1.4.1.6-.2.9-1.4 1.1-2.9 2.3-4.3 3.5-.5.5-.9.7-1.3.9zM49.1 20c0 3.6-2.9 6.5-6.6 6.5-3.6 0-6.5-3-6.5-6.6s3-6.5 6.6-6.5c3.7.1 6.6 3 6.5 6.6z" fill="#fff"/></svg>