<?xml version="1.0" encoding="utf-8"?>
<svg version="1.1" id="aim" xmlns="http://www.w3.org/2000/svg" xmlns:xlink="http://www.w3.org/1999/xlink" x="0px" y="0px"
	 viewBox="0 0 72 72" enable-background="new 0 0 72 72" xml:space="preserve">
<path fill="#FDD900" d="M72,64c0,4.4-3.6,8-8,8H8c-4.4,0-8-3.6-8-8V8c0-4.4,3.6-8,8-8h56c4.4,0,8,3.6,8,8V64z"/>
<g>
	<path fill="#FFFFFF" d="M47.3,58.3c-0.7-1.1-1.4-2.3-2.2-3.3c-2.2-3-4.9-5.1-8.5-6.3c-0.3-0.1-0.5,0-0.7,0.2
		c-2.8,3.3-6,6.1-9.8,7.9c-1.4,0.7-3,1.2-4.6,1.5c-1-2.4-2.1-4.7-3-7c1.1-0.3,2.3-0.5,3.2-0.9c2.9-1.1,4.9-3.3,6.5-5.9
		c0.5-0.8,0.8-1.7,0.8-2.8c-0.1-3.2,0.3-6.4,1.5-9.3c0.8-2,2-3.6,3.7-4.9c0.3-0.2,0.4-0.2,0.7-0.1c2.2,0.9,4.2,2,6.2,3.3
		c0.2,0.1,0.4,0.2,0.5,0.4c0.7,0.9,1.7,1.1,2.8,1.3c1.8,0.3,3.6,0.1,5.2-1c0.4-0.3,0.8-0.7,1.3-1.1c1.1,1.8,2.3,3.7,3.5,5.7
		c-3.6,3.2-7.5,5.5-12.6,4c0,0.7,0,1.4,0,2.1c0,0.1,0.2,0.2,0.3,0.3c2.6,1.5,5,3.3,7.3,5.4c1.5,1.5,3,3.2,3.7,5.2
		c0.1,0.4,0.1,0.6-0.2,0.9c-1.4,1.1-2.9,2.3-4.3,3.5C48.1,57.9,47.7,58.1,47.3,58.3z"/>
	<path fill="#FFFFFF" d="M49.1,20c0,3.6-2.9,6.5-6.6,6.5c-3.6,0-6.5-3-6.5-6.6s3-6.5,6.6-6.5C46.3,13.5,49.2,16.4,49.1,20z"/>
</g>
</svg>
