<svg xmlns="http://www.w3.org/2000/svg" viewBox="0 0 72 72"><path d="M72,64c0,4.4-3.6,8-8,8H8c-4.4,0-8-3.6-8-8V8c0-4.4,3.6-8,8-8h56c4.4,0,8,3.6,8,8V64z" fill="#525252"/><path d="M58.5 35.3V35c0-.5-.4-.9-.9-.9H36c-1 0-1.9.8-1.9 1.9 0 .5-.4.9-.9.9s-.9-.4-.9-.9c0-2.1 1.7-3.7 3.7-3.7h4.6c.5 0 .9-.4.9-.9 0-.3-.1-.5-.3-.7-3-2.9-7.7-2.9-10.6.1s-2.9 7.7.1 10.6 7.7 2.9 10.6-.1c.9-.9 1.6-2.1 1.9-3.4H47c-1 6.1-6.8 10.3-13 9.2s-10.3-6.8-9.2-13c1-6.1 6.8-10.3 13-9.2a11.98 11.98 0 0 1 4.8 2c.4.3.9.3 1.2 0l6.7-6.7c.4-.3.4-.9.1-1.3l-.1-.1c-9.5-8-23.7-6.8-31.7 2.6S12 45.2 21.5 53.2s23.7 6.8 31.7-2.6c3.4-4.1 5.3-9.2 5.3-14.6v-.7zM36 17.2c1 0 1.9.8 1.9 1.9 0 1-.8 1.9-1.9 1.9s-1.9-.8-1.9-1.9.9-1.9 1.9-1.9zm-13.3 5.5c.7-.7 1.9-.7 2.6 0s.7 1.9 0 2.7c-.7.7-1.9.7-2.7 0-.6-.8-.6-2 .1-2.7zm-3.6 15.1c-1 0-1.9-.8-1.9-1.9S18 34 19.1 34s1.9.9 1.9 2-.8 1.8-1.9 1.8zm6.3 11.4c-.7.7-1.9.7-2.7 0-.7-.7-.7-1.9 0-2.7.7-.7 1.9-.7 2.7 0 .4.3.6.8.6 1.3-.1.6-.3 1.1-.6 1.4zM36 54.7c-1 0-1.9-.8-1.9-1.9S35 51 36 51s1.9.8 1.9 1.9-.9 1.8-1.9 1.8zm13.3-5.5c-.7.7-1.9.7-2.7 0s-.7-1.9 0-2.7c.7-.7 1.9-.7 2.7 0 .4.3.6.8.6 1.3-.1.6-.3 1.1-.6 1.4zm-4.2-19.9c.5.7.9 1.5 1.3 2.3.2.4.5.6.9.6h9.8c.5 0 .9-.4.9-.9v-.2a23.32 23.32 0 0 0-4.7-9.6c-.2-.2-.4-.3-.7-.3s-.5.1-.7.3l-6.7 6.7c-.4.2-.4.8-.1 1.1z" fill="#fff"/></svg>