<?xml version="1.0" encoding="utf-8"?>
<!-- Generator: Adobe Illustrator 22.0.1, SVG Export Plug-In . SVG Version: 6.00 Build 0)  -->
<svg version="1.1" id="blog" xmlns="http://www.w3.org/2000/svg" xmlns:xlink="http://www.w3.org/1999/xlink" x="0px" y="0px"
     viewBox="0 0 512 512" enable-background="new 0 0 512 512" xml:space="preserve">
<path fill="#51A978" d="M268.7,21.1l-11-9.9v56.5l75.7,77.3c5.9,1.6,9.2-1.2,11-6.6C330,93.3,303.8,52.8,268.7,21.1z"/>
<g>
    <path fill="#8BB642" d="M257.7,130.3v57.7l93.1,95l2.2-12.6c2.1-11.8,3.4-23.8,4-35.7l0.1-2.9L257.7,130.3z"/>
    <path fill="#8BB642" d="M167.6,138.4c-0.1,8.1,4.6,8.7,11,6.6l75.7-77.3V11.2l-11,9.9C208.2,52.8,182,93.3,167.6,138.4z"/>
</g>
<path fill="#E0F4B4" d="M159.4,170.9c-2.4,13-3.9,26.3-4.5,39.7l-0.7,17.1l38.2-38.9c0.4-0.4,0.9-0.5,1.2-0.5c0.3,0,0.7,0.1,1,0.4
    l2.1,1.8l20.2-19.4l-2.5-2.3c-0.4-0.4-0.5-0.9-0.5-1.2c0-0.3,0.1-0.8,0.5-1.2l39.9-40.7V72.5L159.8,169L159.4,170.9z"/>
<path fill="#089AC6" d="M163.3,290.3c13.1,51.2,40.8,97,80.1,132.3l11,9.9V192.8l-92,93.9L163.3,290.3z"/>
<g>
    <path fill="#BBE095" d="M352.6,170.9l-0.4-2l-94.6-96.5v53.2l100.1,102.1l-0.7-17.1C356.5,197.3,355.1,184,352.6,170.9z"/>
    <path fill="#BBE095" d="M216.8,168.7c-0.4,0.4-0.9,0.5-1.2,0.5c-0.3,0-0.7-0.1-1.1-0.5l-19.7,20.1l0,0c0.6,0.6,0.6,1.7,0,2.3
        l-39.9,40.7l0.1,2.9c0.5,12,1.9,24,4,35.7l2.2,12.6l93.1-95v-57.7L216.8,168.7z"/>
</g>
<path fill="#4B58E3" d="M257.7,432.5l11-9.9c39.3-35.4,66.9-81.1,80.1-132.3l0.9-3.6l-92-93.9L257.7,432.5L257.7,432.5z"/>
<path d="M198.8,183.6c0.2,0.1,0.4,0.3,0.5,0.5c3.2,3.2,3.3,8.4,0.1,11.7l-37.9,38.6c0.5,11.8,1.9,23.5,3.9,34.9l82.3-83.9v-38.8
    l-26.3,26.8c-3.2,3.2-8.4,3.3-11.6,0.1c0,0,0,0,0,0c-3.3-3.2-3.3-8.4-0.1-11.7l38-38.8V88.6l-81.9,83.5c-2.4,12.7-3.8,25.6-4.4,38.7
    l26.2-26.7C190.7,181.1,195.6,180.9,198.8,183.6z M367.2,221.9c0,3.1-0.1,6.2-0.2,9.3c0,0.2,0,0.4,0,0.6
    c-1.4,40.2-11,78.7-28.7,114.6c-17.7,35.9-43.3,67.9-74.1,93v15.5l4.3-3.4c15.1-11.9,29.1-25.4,41.7-40.3c2.9-3.5,8.2-3.9,11.6-1
    c3.5,3,3.9,8.2,1,11.6c-13.3,15.7-28.1,30-44,42.6l-14.6,11.5v27.8c0,4.6-3.7,8.3-8.3,8.3c-4.6,0-8.3-3.7-8.3-8.3v-27.8l-14.6-11.5
    c-15.9-12.6-30.8-26.9-44-42.6c-3-3.5-2.5-8.7,1-11.6s8.7-2.5,11.6,1c12.6,14.9,26.6,28.4,41.7,40.3l4.3,3.4v-15.5
    c-30.9-25.1-56.5-57.1-74.1-93c-17.7-35.9-27.3-74.4-28.7-114.6c0-0.2,0-0.4,0-0.6c-0.1-3.1-0.2-6.2-0.2-9.3
    c0-43.8,9.7-85.7,28.9-124.6c18.2-37,44.9-70,77.1-95.4c0,0,0,0,0,0c0,0,0.1-0.1,0.1-0.1c0,0,0.1,0,0.1-0.1c0.7-0.5,1.4-0.9,2.3-1.2
    c0.1,0,0.1,0,0.2-0.1c0.4-0.1,0.8-0.2,1.2-0.3c0.1,0,0.1,0,0.2,0C255.2,0,255.6,0,256,0s0.8,0,1.2,0.1c0.1,0,0.1,0,0.2,0
    c0.4,0.1,0.8,0.2,1.2,0.3c0.1,0,0.1,0,0.2,0.1c0.8,0.3,1.6,0.7,2.3,1.2c0,0,0.1,0,0.1,0.1c0,0,0.1,0.1,0.1,0.1c0,0,0,0,0,0
    c32.2,25.4,58.9,58.4,77.1,95.4C357.5,136.2,367.2,178.1,367.2,221.9z M264.3,122.9l86.2,88c-0.5-13.1-2-26.1-4.3-38.7l-81.9-83.5
    V122.9z M350.4,234.4l-86.2-87.9v38.8l82.3,83.9C348.6,257.9,349.9,246.2,350.4,234.4z M342.3,288.6L264.3,209v208.7
    C302.8,383,329.6,338.3,342.3,288.6z M264.3,65l73.8,75.3c-14-43.7-39.2-83.1-73.8-114.3V65z M247.7,417.7V209l-78.1,79.7
    C182.4,338.3,209.2,383,247.7,417.7z M247.7,65V26c-34.6,31.2-59.9,70.6-73.8,114.3L247.7,65z"/>
</svg>
