<?xml version="1.0" encoding="iso-8859-1"?>
<!-- Generator: Adobe Illustrator 19.0.0, SVG Export Plug-In . SVG Version: 6.00 Build 0)  -->
<svg version="1.1" id="Layer_1" xmlns="http://www.w3.org/2000/svg" xmlns:xlink="http://www.w3.org/1999/xlink" x="0px" y="0px"
	 viewBox="0 0 512 512" style="enable-background:new 0 0 512 512;" xml:space="preserve">
<path style="fill:#51A978;" d="M268.68,21.132l-11.028-9.935v56.541l75.726,77.251c5.861,1.632,9.203-1.156,11.011-6.635
	C330.008,93.33,303.829,52.795,268.68,21.132z"/>
<g>
	<path style="fill:#8BB642;" d="M257.652,130.333v57.719l93.134,95.004l2.248-12.618c2.095-11.761,3.435-23.785,3.983-35.74
		l0.132-2.873L257.652,130.333z"/>
	<path style="fill:#8BB642;" d="M167.611,138.355c-0.085,8.07,4.568,8.748,11.011,6.635l75.726-77.251V11.197l-11.028,9.934
		C208.172,52.795,181.992,93.33,167.611,138.355z"/>
</g>
<path style="fill:#E0F4B4;" d="M159.383,170.929c-2.428,12.997-3.931,26.344-4.467,39.672l-0.69,17.136l38.167-38.921
	c0.408-0.415,0.872-0.503,1.189-0.503c0.266,0,0.66,0.064,1.025,0.367l2.121,1.757l20.173-19.424l-2.455-2.336
	c-0.405-0.396-0.494-0.853-0.498-1.166c-0.003-0.312,0.076-0.769,0.47-1.172l39.932-40.727V72.461l-94.597,96.492L159.383,170.929z"
	/>
<path style="fill:#089AC6;" d="M163.254,290.253c13.124,51.223,40.81,96.987,80.067,132.348l11.027,9.934V192.774l-92.018,93.874
	L163.254,290.253z"/>
<g>
	<path style="fill:#BBE095;" d="M352.617,170.929l-0.369-1.976l-94.597-96.492v53.15l100.097,102.117l-0.675-17.121
		C356.549,197.302,355.051,183.952,352.617,170.929z"/>
	<path style="fill:#BBE095;" d="M216.781,168.656c-0.423,0.431-0.925,0.494-1.187,0.494c-0.304,0-0.749-0.079-1.136-0.458
		l-19.728,20.089l0.041,0.037c0.611,0.644,0.608,1.667-0.018,2.305l-39.902,40.701l0.132,2.873
		c0.547,11.954,1.886,23.979,3.983,35.74l2.248,12.618l93.134-95.003v-57.721L216.781,168.656z"/>
</g>
<path style="fill:#4B58E3;" d="M257.652,432.535l11.028-9.933c39.257-35.36,66.943-81.125,80.067-132.348l0.924-3.606
	l-92.019-93.874V432.535z"/>
<path d="M198.821,183.593c0.187,0.143,0.363,0.308,0.54,0.473c3.248,3.193,3.303,8.423,0.11,11.682l-37.888,38.648
	c0.54,11.804,1.85,23.453,3.887,34.882l82.272-83.924v-38.846l-26.25,26.778c-3.182,3.237-8.401,3.303-11.649,0.132
	c-0.011-0.011-0.011-0.011-0.022-0.022c-3.259-3.193-3.314-8.423-0.121-11.682l38.042-38.802V88.637l-81.865,83.506
	c-2.367,12.673-3.832,25.6-4.36,38.725l26.162-26.679C190.706,181.105,195.551,180.885,198.821,183.593z M367.242,221.867
	c0,3.105-0.066,6.199-0.165,9.293c0,0.209-0.011,0.418-0.022,0.628c-1.365,40.211-10.978,78.727-28.672,114.644
	c-17.661,35.851-43.25,67.903-74.124,92.975v15.492l4.349-3.424c15.063-11.859,29.079-25.413,41.654-40.266
	c2.94-3.479,8.159-3.909,11.638-0.969c3.479,2.951,3.909,8.159,0.969,11.638c-13.29,15.701-28.11,30.026-44.043,42.579
	l-14.567,11.462v27.824c0,4.558-3.7,8.258-8.258,8.258c-4.558,0-8.258-3.7-8.258-8.258v-27.824l-14.567-11.462
	c-15.933-12.552-30.753-26.877-44.043-42.579c-2.951-3.479-2.51-8.688,0.969-11.638s8.687-2.51,11.638,0.969
	c12.574,14.853,26.591,28.408,41.654,40.266l4.349,3.424v-15.492c-30.874-25.071-56.463-57.124-74.124-92.975
	c-17.694-35.917-27.307-74.433-28.672-114.644c-0.011-0.209-0.022-0.418-0.022-0.628c-0.099-3.094-0.165-6.188-0.165-9.293
	c0-43.79,9.711-85.708,28.859-124.565c18.223-37.007,44.891-69.984,77.119-95.408c0.011,0,0.022-0.011,0.033-0.022
	c0.044-0.033,0.077-0.066,0.121-0.099c0.033-0.022,0.055-0.033,0.088-0.055c0.672-0.529,1.431-0.947,2.257-1.233
	c0.055-0.022,0.099-0.044,0.154-0.055c0.374-0.132,0.771-0.22,1.167-0.297c0.077-0.011,0.143-0.022,0.22-0.033
	C255.174,0.044,255.582,0,256,0c0.418,0,0.826,0.044,1.222,0.099c0.077,0.011,0.143,0.022,0.22,0.033
	c0.396,0.077,0.793,0.165,1.167,0.297c0.055,0.011,0.099,0.033,0.154,0.055c0.826,0.286,1.586,0.705,2.257,1.233
	c0.033,0.022,0.055,0.033,0.088,0.055c0.044,0.033,0.077,0.066,0.121,0.099c0.011,0.011,0.022,0.022,0.033,0.022
	c32.228,25.424,58.897,58.401,77.119,95.408C357.53,136.159,367.242,178.077,367.242,221.867z M264.258,122.913l86.214,87.954
	c-0.518-13.125-1.982-26.051-4.349-38.725l-81.865-83.506V122.913z M350.417,234.397l-86.159-87.888v38.846l82.272,83.924
	C348.567,257.85,349.878,246.2,350.417,234.397z M342.346,288.614l-78.088-79.663v208.742
	C302.752,383.02,329.629,338.25,342.346,288.614z M264.258,65.041l73.838,75.325c-13.973-43.746-39.198-83.12-73.838-114.325V65.041
	z M247.742,417.693V208.951l-78.088,79.663C182.371,338.25,209.248,383.02,247.742,417.693z M247.742,65.041v-39
	c-34.64,31.204-59.865,70.579-73.838,114.325L247.742,65.041z"/>
<g>
</g>
<g>
</g>
<g>
</g>
<g>
</g>
<g>
</g>
<g>
</g>
<g>
</g>
<g>
</g>
<g>
</g>
<g>
</g>
<g>
</g>
<g>
</g>
<g>
</g>
<g>
</g>
<g>
</g>
</svg>
