<svg xmlns="http://www.w3.org/2000/svg" viewBox="0 0 48 48"><path fill="#51a978" d="M25.2 2l-1-.9v5.3l7.1 7.2c.6.2.9-.1 1-.6-1.4-4.3-3.8-8.1-7.1-11z"/><path d="M24.2 12.2v5.4l8.7 8.9.2-1.2c.2-1.1.3-2.2.4-3.3v-.3l-9.3-9.5zm-8.5.8c0 .8.4.8 1 .6l7.1-7.2V1l-1 .9c-3.3 3-5.7 6.8-7.1 11.1z" fill="#8bb642"/><path fill="#e0f4b4" d="M15 16c-.2 1.2-.4 2.5-.4 3.7l-.1 1.6 3.6-3.6h.2l.2.2 1.9-1.8-.2-.2v-.2l3.7-3.8v-5l-8.9 9v.1z"/><path fill="#089ac6" d="M15.3 27.2c1.2 4.8 3.8 9.1 7.5 12.4l1 .9V18.1l-8.6 8.8.1.3z"/><path d="M33.1 16v-.2l-8.9-9v5l9.4 9.6-.1-1.6-.4-3.8zm-12.8-.2h-.2l-1.8 1.9c.1.1.1.2 0 .2l-3.7 3.8v.3c0 1.1.2 2.3.4 3.3l.2 1.2 8.7-8.9v-5.4l-3.6 3.6z" fill="#bbe095"/><path fill="#4b58e3" d="M24.2 40.5l1-.9c3.7-3.3 6.3-7.6 7.5-12.4l.1-.3-8.6-8.8v22.4z"/><path d="M18.6 17.2c.3.3.4.8.1 1.1L15.2 22c0 1.1.2 2.2.4 3.3l7.7-7.9v-3.6l-2.5 2.5c-.3.3-.8.3-1.1 0s-.3-.8 0-1.1l3.6-3.6V8.3l-7.7 7.8c-.2 1.2-.4 2.4-.4 3.6l2.5-2.5c.2-.2.6-.2.9 0zm15.8 3.6v1c-.1 3.8-1 7.4-2.7 10.7-1.7 3.4-4.1 6.4-6.9 8.7v1.5l.4-.3c1.4-1.1 2.7-2.4 3.9-3.8.3-.3.8-.4 1.1-.1s.4.8.1 1.1c-1.2 1.5-2.6 2.8-4.1 4l-1.4 1.1v2.6c0 .4-.3.8-.8.8s-.8-.3-.8-.8v-2.6l-1.4-1.1c-1.5-1.2-2.9-2.5-4.1-4-.3-.3-.2-.8.1-1.1s.8-.2 1.1.1c1.2 1.4 2.5 2.7 3.9 3.8l.4.3v-1.5c-2.9-2.4-5.3-5.4-6.9-8.7-1.7-3.4-2.6-7-2.7-10.7v-1a26.41 26.41 0 0 1 2.7-11.7C18 5.6 20.5 2.5 23.5.2c.1 0 .1-.1.2-.1h.4c.1 0 .1.1.2.1a26.95 26.95 0 0 1 7.2 8.9c2 3.7 2.9 7.6 2.9 11.7zm-9.6-9.3l8.1 8.2c0-1.2-.2-2.4-.4-3.6l-7.7-7.8v3.2zM32.9 22l-8.1-8.2v3.6l7.7 7.9c.2-1.1.3-2.2.4-3.3zm-.8 5.1l-7.3-7.5v19.6c3.6-3.3 6.1-7.5 7.3-12.1zm-7.3-21l6.9 7.1C30.4 9.1 28 5.4 24.8 2.4v3.7zm-1.6 33.1V19.6l-7.3 7.5c1.2 4.6 3.7 8.8 7.3 12.1zm0-33.1V2.4C20 5.3 17.6 9 16.3 13.1l6.9-7z"/></svg>