<?xml version="1.0" encoding="iso-8859-1"?>
<!-- Generator: Adobe Illustrator 19.0.0, SVG Export Plug-In . SVG Version: 6.00 Build 0)  -->
<svg version="1.1" id="Layer_1" xmlns="http://www.w3.org/2000/svg" xmlns:xlink="http://www.w3.org/1999/xlink" x="0px" y="0px"
	 viewBox="0 0 498.983 498.983" style="enable-background:new 0 0 498.983 498.983;" xml:space="preserve">
<g transform="translate(1 2)">
	<path style="fill:#F0CE49;" d="M284.505,83.912l127.566,127.566l-39.051,39.051c-33.844,33.844-33.844,89.383,0,123.227
		l29.505,29.505L10.281,485.702L92.722,92.59l29.505,29.505c33.844,33.844,89.383,33.844,123.227,0L284.505,83.912z"/>
	<polygon style="fill:#7383BF;" points="330.498,37.919 458.064,165.485 412.071,211.478 284.505,83.912 	"/>
	<polygon style="fill:#434C6D;" points="393.847,10.149 485.834,102.136 439.841,147.261 348.722,56.142 	"/>
	<path style="fill:#F8E7A1;" d="M260.207,278.298c-11.281,11.281-31.241,11.281-42.522,0c-12.149-12.149-12.149-31.241,0-42.522
		c6.075-6.075,13.017-8.678,21.695-8.678c7.81,0,15.62,3.471,21.695,8.678C271.488,247.925,271.488,267.017,260.207,278.298
		 M272.356,223.627c-8.678-8.678-20.827-13.885-33.844-13.885s-24.298,5.207-33.844,13.885
		c-8.678,8.678-13.885,20.827-13.885,33.844c0,9.546,2.603,19.092,8.678,26.902L4.207,479.627c-3.471,3.471-3.471,8.678,0,12.149
		c1.736,1.736,3.471,2.603,6.075,2.603s4.339-0.868,6.075-2.603L211.61,296.522c7.81,5.207,17.356,8.678,26.902,8.678
		c13.017,0,24.298-5.207,33.844-13.885c8.678-8.678,13.885-20.827,13.885-33.844C286.241,244.454,281.034,232.305,272.356,223.627"
		/>
	<path d="M-1,496.983L87.515,75.234l40.786,40.786c14.753,14.753,34.712,23.431,55.539,23.431s40.786-7.81,55.539-23.431
		l45.125-45.125l140.583,140.583l-45.125,45.125c-14.753,14.753-23.431,34.712-23.431,55.539c0,20.827,7.81,40.786,23.431,55.539
		l40.786,40.786L-1,496.983z M97.929,109.946L21.563,474.42l364.475-76.366l-18.224-18.224
		c-18.224-18.224-27.77-42.522-27.77-67.688s10.414-49.464,27.77-67.688l32.976-32.976L284.505,96.061l-32.976,32.976
		c-18.224,18.224-42.522,27.769-67.688,27.769c-26.034,0-49.464-10.414-67.688-27.769L97.929,109.946z"/>
	<path d="M10.281,494.38c-2.603,0-4.339-0.868-6.075-2.603c-3.471-3.471-3.471-8.678,0-12.149l201.329-201.329
		c3.471-3.471,8.678-3.471,12.149,0c3.471,3.471,3.471,8.678,0,12.149L16.356,491.776C14.62,493.512,12.885,494.38,10.281,494.38z"
		/>
	<path d="M412.071,223.627L272.356,83.912l58.142-58.142l139.715,139.715L412.071,223.627z M296.654,83.912l115.417,115.417
		l33.844-33.844L330.498,50.068L296.654,83.912z"/>
	<path d="M439.841,159.41L336.573,56.142L394.715-2l103.268,103.268L439.841,159.41z M360.871,56.142l78.969,78.969l33.844-33.844
		l-78.969-78.969L360.871,56.142z"/>
	<path d="M238.512,304.332c-12.149,0-24.298-4.339-33.844-13.885c-18.224-18.224-18.224-48.597,0-66.82l0,0l0,0
		c18.224-18.224,48.597-18.224,66.82,0s18.224,48.597,0,66.82C262.81,299.993,250.661,304.332,238.512,304.332z M238.512,227.098
		c-7.81,0-15.62,2.603-21.695,8.678l0,0c-12.149,12.149-12.149,31.241,0,42.522c12.149,12.149,31.241,12.149,42.522,0
		c12.149-12.149,12.149-31.241,0-42.522C254.132,229.702,246.322,227.098,238.512,227.098z M211.61,229.702L211.61,229.702
		L211.61,229.702z"/>
</g>
<g>
</g>
<g>
</g>
<g>
</g>
<g>
</g>
<g>
</g>
<g>
</g>
<g>
</g>
<g>
</g>
<g>
</g>
<g>
</g>
<g>
</g>
<g>
</g>
<g>
</g>
<g>
</g>
<g>
</g>
</svg>
