<?xml version="1.0" encoding="utf-8"?>
<!-- Generator: Adobe Illustrator 22.0.1, SVG Export Plug-In . SVG Version: 6.00 Build 0)  -->
<svg version="1.1" id="blog" xmlns="http://www.w3.org/2000/svg" xmlns:xlink="http://www.w3.org/1999/xlink" x="0px" y="0px"
     viewBox="0 0 48 48" enable-background="new 0 0 48 48" xml:space="preserve">
<path fill="#51A978" d="M25.2,2l-1-0.9v5.3l7.1,7.2c0.6,0.2,0.9-0.1,1-0.6C30.9,8.7,28.5,4.9,25.2,2z"/>
<g>
    <path fill="#8BB642" d="M24.2,12.2v5.4l8.7,8.9l0.2-1.2c0.2-1.1,0.3-2.2,0.4-3.3l0-0.3L24.2,12.2z"/>
    <path fill="#8BB642" d="M15.7,13c0,0.8,0.4,0.8,1,0.6l7.1-7.2V1l-1,0.9C19.5,4.9,17.1,8.7,15.7,13z"/>
</g>
<path fill="#E0F4B4" d="M15,16c-0.2,1.2-0.4,2.5-0.4,3.7l-0.1,1.6l3.6-3.6c0,0,0.1,0,0.1,0s0.1,0,0.1,0l0.2,0.2l1.9-1.8l-0.2-0.2
    c0,0,0-0.1,0-0.1c0,0,0-0.1,0-0.1l3.7-3.8v-5l-8.9,9L15,16z"/>
<path fill="#089AC6" d="M15.3,27.2c1.2,4.8,3.8,9.1,7.5,12.4l1,0.9V18.1l-8.6,8.8L15.3,27.2z"/>
<g>
    <path fill="#BBE095" d="M33.1,16l0-0.2l-8.9-9v5l9.4,9.6l-0.1-1.6C33.4,18.5,33.3,17.3,33.1,16z"/>
    <path fill="#BBE095" d="M20.3,15.8c0,0-0.1,0-0.1,0s-0.1,0-0.1,0l-1.8,1.9l0,0c0.1,0.1,0.1,0.2,0,0.2l-3.7,3.8l0,0.3
        c0,1.1,0.2,2.3,0.4,3.3l0.2,1.2l8.7-8.9v-5.4L20.3,15.8z"/>
</g>
<path fill="#4B58E3" d="M24.2,40.5l1-0.9c3.7-3.3,6.3-7.6,7.5-12.4l0.1-0.3l-8.6-8.8V40.5L24.2,40.5z"/>
<path d="M18.6,17.2C18.7,17.2,18.7,17.2,18.6,17.2c0.3,0.3,0.4,0.8,0.1,1.1L15.2,22c0,1.1,0.2,2.2,0.4,3.3l7.7-7.9v-3.6l-2.5,2.5
    c-0.3,0.3-0.8,0.3-1.1,0l0,0c-0.3-0.3-0.3-0.8,0-1.1l3.6-3.6V8.3l-7.7,7.8c-0.2,1.2-0.4,2.4-0.4,3.6l2.5-2.5
    C17.9,17,18.3,17,18.6,17.2z M34.4,20.8c0,0.3,0,0.6,0,0.9c0,0,0,0,0,0.1c-0.1,3.8-1,7.4-2.7,10.7c-1.7,3.4-4.1,6.4-6.9,8.7v1.5
    l0.4-0.3c1.4-1.1,2.7-2.4,3.9-3.8c0.3-0.3,0.8-0.4,1.1-0.1c0.3,0.3,0.4,0.8,0.1,1.1c-1.2,1.5-2.6,2.8-4.1,4l-1.4,1.1v2.6
    c0,0.4-0.3,0.8-0.8,0.8s-0.8-0.3-0.8-0.8v-2.6l-1.4-1.1c-1.5-1.2-2.9-2.5-4.1-4c-0.3-0.3-0.2-0.8,0.1-1.1c0.3-0.3,0.8-0.2,1.1,0.1
    c1.2,1.4,2.5,2.7,3.9,3.8l0.4,0.3v-1.5c-2.9-2.4-5.3-5.4-6.9-8.7c-1.7-3.4-2.6-7-2.7-10.7c0,0,0,0,0-0.1c0-0.3,0-0.6,0-0.9
    c0-4.1,0.9-8,2.7-11.7c1.7-3.5,4.2-6.6,7.2-8.9l0,0l0,0c0,0,0,0,0,0c0.1,0,0.1-0.1,0.2-0.1c0,0,0,0,0,0c0,0,0.1,0,0.1,0c0,0,0,0,0,0
    c0,0,0.1,0,0.1,0c0,0,0.1,0,0.1,0c0,0,0,0,0,0c0,0,0.1,0,0.1,0c0,0,0,0,0,0c0.1,0,0.1,0.1,0.2,0.1c0,0,0,0,0,0l0,0l0,0
    c3,2.4,5.5,5.5,7.2,8.9C33.5,12.8,34.4,16.7,34.4,20.8z M24.8,11.5l8.1,8.2c0-1.2-0.2-2.4-0.4-3.6l-7.7-7.8L24.8,11.5L24.8,11.5z
     M32.9,22l-8.1-8.2v3.6l7.7,7.9C32.7,24.2,32.8,23.1,32.9,22z M32.1,27.1l-7.3-7.5v19.6C28.4,35.9,30.9,31.7,32.1,27.1z M24.8,6.1
    l6.9,7.1C30.4,9.1,28,5.4,24.8,2.4V6.1z M23.2,39.2V19.6l-7.3,7.5C17.1,31.7,19.6,35.9,23.2,39.2z M23.2,6.1V2.4
    c-3.2,2.9-5.6,6.6-6.9,10.7L23.2,6.1z"/>
</svg>
