<svg xmlns="http://www.w3.org/2000/svg" xmlns:xlink="http://www.w3.org/1999/xlink" viewBox="0 0 72 72"><path d="M72,64c0,4.4-3.6,8-8,8H8c-4.4,0-8-3.6-8-8V8c0-4.4,3.6-8,8-8h56c4.4,0,8,3.6,8,8V64z" fill="#01579b"/><g fill="#fff"><path d="M53.3 54.8H18.7c-2.8 0-5.2-2.3-5.2-5.2V26.2c0-2.8 2.3-5.2 5.2-5.2H30c.8 0 1.4.6 1.4 1.4s-.6 1.4-1.4 1.4H18.7c-1.3 0-2.3 1.1-2.3 2.3v23.4c0 1.3 1.1 2.3 2.3 2.3h34.7c1.3 0 2.3-1.1 2.3-2.3V26.2c0-1.3-1.1-2.3-2.3-2.3H42.1c-.8 0-1.4-.6-1.4-1.4s.6-1.4 1.4-1.4h11.3c2.8 0 5.2 2.3 5.2 5.2v23.4c-.1 2.7-2.4 5.1-5.3 5.1z"/><path d="M40.2 27.6h-8.4a3.33 3.33 0 0 1-3.3-3.3v-3.8a3.33 3.33 0 0 1 3.3-3.3h8.4a3.33 3.33 0 0 1 3.3 3.3v3.8a3.33 3.33 0 0 1-3.3 3.3zm-8.4-7.5a.47.47 0 0 0-.5.5v3.8a.47.47 0 0 0 .5.5h8.4a.47.47 0 0 0 .5-.5v-3.8a.47.47 0 0 0-.5-.5h-8.4zm-4.2 19.6c-2.6 0-4.7-2.1-4.7-4.7s2.1-4.7 4.7-4.7 4.7 2.1 4.7 4.7c-.1 2.6-2.2 4.7-4.7 4.7zm0-6.5c-1 0-1.9.8-1.9 1.9 0 1 .8 1.9 1.9 1.9s1.9-.8 1.9-1.9c-.1-1.1-.9-1.9-1.9-1.9zm7 15.9c-.8 0-1.4-.6-1.4-1.4v-.9c0-1.3-1.1-2.3-2.3-2.3h-6.6c-1.3 0-2.3 1.1-2.3 2.3v.9c0 .8-.6 1.4-1.4 1.4s-1.4-.6-1.4-1.4v-.9c0-2.8 2.3-5.2 5.2-5.2H31c2.8 0 5.2 2.3 5.2 5.2v.9c-.2.8-.8 1.4-1.6 1.4z"/><use xlink:href="#B"/><use xlink:href="#B" y="7.5"/><use xlink:href="#B" y="15"/></g><defs ><path id="B" d="M51.5 34.1H41.2c-.8 0-1.4-.6-1.4-1.4s.6-1.4 1.4-1.4h10.3c.8 0 1.4.6 1.4 1.4s-.7 1.4-1.4 1.4z"/></defs></svg>