<svg xmlns="http://www.w3.org/2000/svg" viewBox="0 0 48 48"><path fill="#3498db" d="M20.7 7.9C9.3 7.9 0 16.2 0 26.5c0 3.8 1.3 7.3 3.4 10.2-.3 3.4-1.1 8.2-3.4 10.5 0 0 7-1 11.8-3.8 1.5-.9 3.2-2 3.6-2.3.2-.3.7-.4 1.1-.2.2.1.4.4.4.7 0 .5 0 .6-3 2.5 2.1.7 4.4 1 6.8 1 11.4 0 20.7-8.3 20.7-18.5S32.1 7.9 20.7 7.9z"/><path fill="#f1c40f" d="M48 19.4C48 9.1 38.7.8 27.3.8 19 .8 11.9 5.1 8.6 11.4c3.4-2.2 7.6-3.5 12.1-3.5 11.4 0 20.7 8.3 20.7 18.5 0 3.9-1.4 7.6-3.7 10.5 4.6 2.2 10.3 3 10.3 3-2.3-2.3-3.1-7.1-3.4-10.5 2.1-2.7 3.4-6.2 3.4-10z"/><path d="M26.9 21.5H15.3c-.5 0-.8-.4-.8-.8s.4-.8.8-.8h11.6c.5 0 .8.4.8.8s-.3.8-.8.8zm4.5 5.8H10.8c-.5 0-.8-.4-.8-.8 0-.5.4-.8.8-.8h20.7c.5 0 .8.4.8.8s-.4.8-.9.8zm0 5.8H10.8c-.5 0-.8-.4-.8-.8 0-.5.4-.8.8-.8h20.7c.5 0 .8.4.8.8s-.4.8-.9.8z" fill="#fff"/></svg>