<?xml version="1.0" encoding="utf-8"?>
<svg version="1.1" id="shouts" xmlns="http://www.w3.org/2000/svg" xmlns:xlink="http://www.w3.org/1999/xlink" x="0px" y="0px"
     viewBox="0 0 48 48" enable-background="new 0 0 48 48" xml:space="preserve">
<g>
    <path fill="#3498DB" d="M20.7,7.9C9.3,7.9,0,16.2,0,26.5c0,3.8,1.3,7.3,3.4,10.2C3.1,40.1,2.3,44.9,0,47.2c0,0,7-1,11.8-3.8
        c0,0,0,0,0,0c1.5-0.9,3.2-2,3.6-2.3c0.2-0.3,0.7-0.4,1.1-0.2c0.2,0.1,0.4,0.4,0.4,0.7c0,0.5,0,0.6-3,2.5c2.1,0.7,4.4,1,6.8,1
        c11.4,0,20.7-8.3,20.7-18.5S32.1,7.9,20.7,7.9z"/>
    <path fill="#F1C40F" d="M48,19.4C48,9.1,38.7,0.8,27.3,0.8c-8.3,0-15.4,4.3-18.7,10.6c3.4-2.2,7.6-3.5,12.1-3.5
        c11.4,0,20.7,8.3,20.7,18.5c0,3.9-1.4,7.6-3.7,10.5c4.6,2.2,10.3,3,10.3,3c-2.3-2.3-3.1-7.1-3.4-10.5C46.7,26.7,48,23.2,48,19.4z"
        />
    <path fill="#FFFFFF" d="M26.9,21.5H15.3c-0.5,0-0.8-0.4-0.8-0.8s0.4-0.8,0.8-0.8h11.6c0.5,0,0.8,0.4,0.8,0.8S27.4,21.5,26.9,21.5z"
        />
    <path fill="#FFFFFF" d="M31.4,27.3H10.8c-0.5,0-0.8-0.4-0.8-0.8c0-0.5,0.4-0.8,0.8-0.8h20.7c0.5,0,0.8,0.4,0.8,0.8
        S31.9,27.3,31.4,27.3z"/>
    <path fill="#FFFFFF" d="M31.4,33.1H10.8c-0.5,0-0.8-0.4-0.8-0.8c0-0.5,0.4-0.8,0.8-0.8h20.7c0.5,0,0.8,0.4,0.8,0.8
        C32.3,32.7,31.9,33.1,31.4,33.1z"/>
</g>
</svg>
