<svg xmlns="http://www.w3.org/2000/svg" viewBox="0 0 48 48"><path fill="#d4f5ff" d="M38.4 16h-.3c-1.8-3.8-5.7-6.4-10.1-6.4s-8.1 2.5-10 6.1c-1-.8-2.2-1.3-3.6-1.3-2.8 0-5.2 2.1-5.6 4.9-.3 0-.6-.1-.9-.1a7.17 7.17 0 0 0-7.2 7.2c0 4 3.3 7.2 7.3 7.2h30.5a8.75 8.75 0 0 0 8.8-8.8c0-4.9-4-8.8-8.9-8.8z"/><path d="M16.8 28.8v4.8h14.4v-4.8c0-1.3-1.1-2.4-2.4-2.4h-9.6c-1.3 0-2.4 1.1-2.4 2.4zM36 14.4c0-.5 0-1-.1-1.5-2-2-4.8-3.3-7.9-3.3-4.4 0-8.1 2.5-10 6.1-1-.8-2.2-1.3-3.6-1.3-.9 0-1.7.2-2.4.5-1.7.8-2.9 2.4-3.1 4.3-.3 0-.6-.1-.9-.1-4.1 0-7.5 3.5-7.2 7.7.2 3.8 3.6 6.7 7.4 6.7h1C8.4 32.4 8 31 8 29.5c0-3.5 2.4-6.3 5.7-7 .8-.2 1.6.1 2.2.6 2.1 2 5 3.2 8.2 3.2C30.6 26.4 36 21 36 14.4z" fill="#baefff"/><circle fill="#00c3ff" cx="24" cy="14.4" r="9.6"/><path d="M26.4 22.4c-5.3 0-9.6-4.3-9.6-9.6 0-2.8 1.2-5.4 3.1-7.1-3.3 1.5-5.6 4.9-5.6 8.7 0 5.3 4.3 9.6 9.6 9.6 2.5 0 4.8-1 6.5-2.5-1.2.6-2.5.9-4 .9zm2.4 14.4v-8h-9.6v8H16l8 6.4 8-6.4z" fill="#00aaf0"/><path d="M23.2 18.4c-.4 0-.8.3-.8.8 0 .4.3.8.8.8h1.6c.4 0 .8-.3.8-.8 0-.4-.3-.8-.8-.8v-5.7c.4 0 .8-.3.8-.8s-.3-.8-.8-.8h-1.6c-.4 0-.8.3-.8.8 0 .4.3.8.8.8v5.7zm.8-8.1c.4 0 .8-.3.8-.8s-.4-.7-.8-.7-.8.3-.8.8.4.7.8.7zm14.6 4.9c-1.1-2.2-3-4-5.1-5.1C31.8 6.5 28.2 4 24 4c-5.5 0-10 4.3-10.4 9.7-2.6.3-4.7 2.2-5.4 4.7H8c-4.4 0-8 3.6-8 8s3.6 8 8 8h10.5v1.7H16c-.3 0-.6.2-.7.5s0 .6.2.8l8 6.4c.1.1.3.2.5.2s.3-.1.5-.2l8-6.4c.3-.2.3-.5.2-.8s-.4-.5-.7-.5h-2.5v-1.7h8.9c5.3 0 9.6-4.3 9.6-9.6 0-5.2-4.2-9.5-9.4-9.6zM24 5.5c4.9 0 8.9 4 8.9 8.9s-4 8.9-8.9 8.9-8.9-4-8.9-8.9 4-8.9 8.9-8.9zm5.9 32.1L24 42.3l-5.9-4.7h1.1c.4 0 .8-.3.8-.8v-7.3h8.1v7.3c0 .4.3.8.8.8h1zm8.5-4.7h-8.9v-4.1c0-.4-.3-.8-.8-.8h-9.6c-.4 0-.8.3-.8.8v4.1H8a6.49 6.49 0 1 1 0-13h.8c.4 0 .8-.2.8-.6.3-2.2 2-3.8 4.1-4.2.4 5.3 4.9 9.6 10.3 9.6 5.7 0 10.4-4.6 10.4-10.4 0-.7-.1-1.4-.2-2 1.4 1 2.5 2.4 3.3 4 .1.3.4.4.7.4h.2c4.4 0 8.1 3.6 8.1 8.1s-3.6 8.1-8.1 8.1z"/></svg>