<?xml version="1.0" encoding="iso-8859-1"?>
<!-- Generator: Adobe Illustrator 19.0.0, SVG Export Plug-In . SVG Version: 6.00 Build 0)  -->
<svg version="1.1" id="Layer_1" xmlns="http://www.w3.org/2000/svg" xmlns:xlink="http://www.w3.org/1999/xlink" x="0px" y="0px"
	 viewBox="0 0 512 512" style="enable-background:new 0 0 512 512;" xml:space="preserve">
<polygon style="fill:#E0B76E;" points="372.717,190.761 255.999,503.91 36.681,380.249 36.681,132.906 "/>
<polygon style="fill:#F4CE8F;" points="255.999,9.245 36.681,132.906 255.999,256.578 255.999,503.91 475.317,380.249 
	475.317,132.906 "/>
<polygon style="fill:#F2CA7F;" points="256.763,256.578 256.763,503.91 476.081,380.249 476.081,132.906 "/>
<polyline style="fill:#79B1D6;" points="328.658,50.216 109.34,173.877 177.19,212.144 396.508,88.472 396.521,88.472 "/>
<path d="M365.19,397.196c4.787,0,8.668-3.881,8.668-8.668V263.952l10.013,6.957c3.932,2.733,9.333,1.759,12.064-2.172
	s1.759-9.332-2.172-12.064l-23.626-16.418c-2.006-1.394-4.507-1.876-6.887-1.329c-2.381,0.548-4.421,2.073-5.616,4.203
	l-24.381,43.412c-2.344,4.173-0.861,9.457,3.313,11.801c1.342,0.754,2.799,1.112,4.237,1.112c3.033,0,5.975-1.594,7.565-4.425
	l8.156-14.523v108.019C356.522,393.315,360.403,397.196,365.19,397.196z"/>
<path d="M66.175,219.334l98.806,55.714c1.345,0.758,2.807,1.119,4.25,1.119c3.027,0,5.966-1.588,7.558-4.412
	c2.351-4.17,0.877-9.456-3.294-11.808L74.69,204.232c-4.169-2.35-9.456-0.877-11.808,3.294
	C60.531,211.696,62.006,216.982,66.175,219.334z"/>
<path d="M173.495,309.533l-25.407-14.326c-4.169-2.351-9.456-0.876-11.808,3.294c-2.351,4.17-0.877,9.456,3.294,11.808
	l25.407,14.326c1.345,0.758,2.807,1.119,4.25,1.119c3.027,0,5.966-1.588,7.558-4.412C179.14,317.17,177.665,311.884,173.495,309.533
	z"/>
<path d="M121.849,280.412l-47.16-26.593c-4.17-2.352-9.456-0.878-11.808,3.293c-2.351,4.17-0.877,9.456,3.294,11.807l47.16,26.593
	c1.345,0.759,2.807,1.12,4.25,1.12c3.027,0,5.966-1.588,7.558-4.412C127.494,288.05,126.02,282.762,121.849,280.412z"/>
<path d="M475.317,312.087c4.787,0,8.668-3.881,8.668-8.668V132.328c0-3.128-1.685-6.014-4.41-7.55L260.256,1.117
	c-2.642-1.49-5.872-1.49-8.514,0L32.424,124.778c-2.725,1.537-4.41,4.422-4.41,7.55v247.344c0,3.129,1.685,6.014,4.41,7.55
	l219.318,123.66c1.321,0.745,2.79,1.118,4.258,1.118s2.937-0.372,4.258-1.118l219.318-123.66c2.725-1.537,4.41-4.422,4.41-7.55
	v-39.271c0-4.787-3.881-8.668-8.668-8.668s-8.668,3.881-8.668,8.668v34.208L264.668,488.495V261.063L466.65,147.167v156.253
	C466.649,308.206,470.53,312.087,475.317,312.087z M255.999,18.618l55.014,31.019l-132.779,74.865
	c-4.17,2.352-5.644,7.638-3.294,11.808c1.593,2.825,4.532,4.412,7.558,4.412c1.442,0,2.904-0.361,4.25-1.119L328.66,59.588
	l50.203,28.307L177.196,201.612l-50.21-28.312l25.28-14.253c4.17-2.352,5.644-7.637,3.294-11.808
	c-2.352-4.17-7.638-5.644-11.808-3.294l-34.413,19.403l-55.01-31.02L255.999,18.618z M45.349,147.166l201.982,113.896v227.432
	L45.349,374.608V147.166z M255.999,246.048l-61.156-34.485L396.51,97.844l61.159,34.484L255.999,246.048z"/>
<g>
</g>
<g>
</g>
<g>
</g>
<g>
</g>
<g>
</g>
<g>
</g>
<g>
</g>
<g>
</g>
<g>
</g>
<g>
</g>
<g>
</g>
<g>
</g>
<g>
</g>
<g>
</g>
<g>
</g>
</svg>
