<?xml version="1.0" encoding="iso-8859-1"?>
<!-- Generator: Adobe Illustrator 19.0.0, SVG Export Plug-In . SVG Version: 6.00 Build 0)  -->
<svg version="1.1" id="Layer_1" xmlns="http://www.w3.org/2000/svg" xmlns:xlink="http://www.w3.org/1999/xlink" x="0px" y="0px"
	 viewBox="0 0 512 512" style="enable-background:new 0 0 512 512;" xml:space="preserve">
<path style="fill:#D4F5FF;" d="M409.921,170.488c-1.029,0-2.028,0.121-3.051,0.154c-19.196-40.492-60.325-68.563-108.114-68.563
	c-46.599,0-86.883,26.683-106.663,65.55c-10.44-8.866-23.937-14.243-38.707-14.243c-30.352,0-55.367,22.611-59.268,51.898
	c-3.004-0.356-6.042-0.591-9.141-0.591c-42.505,0-76.96,34.456-76.96,76.96c0,42.503,34.456,76.96,76.96,76.96h324.944
	c51.949,0,94.063-42.113,94.063-94.063S461.87,170.488,409.921,170.488z"/>
<g>
	<path style="fill:#BAEFFF;" d="M179.04,307.306v51.307H332.96v-51.307c0-14.168-11.485-25.653-25.653-25.653H256h-51.307
		C190.525,281.653,179.04,293.138,179.04,307.306z"/>
	<path style="fill:#BAEFFF;" d="M384.267,153.386c0-5.565-0.474-11.007-1.161-16.385c-21.613-21.566-51.395-34.922-84.351-34.922
		c-46.599,0-86.883,26.683-106.663,65.55c-10.44-8.866-23.937-14.243-38.707-14.243c-9.08,0-17.663,2.06-25.366,5.68
		c0.001,0.022,0.005,0.044,0.006,0.065c-0.086,0.021-0.218-0.01-0.291,0.025c-17.907,8.527-30.895,25.704-33.617,46.128
		c-3.004-0.356-6.042-0.591-9.141-0.591c-44.199,0-79.696,37.258-76.795,82.081c2.649,40.907,38.44,71.839,79.431,71.839h10.34
		c-8.188-12.23-12.977-26.931-12.977-42.756c0-36.912,25.997-67.714,60.675-75.181c8.261-1.779,16.846,0.67,23.014,6.443
		c22.865,21.395,53.527,34.533,87.334,34.533C326.84,281.653,384.267,224.226,384.267,153.386z"/>
</g>
<circle style="fill:#00C3FF;" cx="256" cy="153.386" r="102.614"/>
<g>
	<path style="fill:#00AAF0;" d="M281.653,238.897c-56.673,0-102.614-45.942-102.614-102.614c0-30.083,13.024-57.054,33.648-75.824
		c-34.997,16.343-59.301,51.753-59.301,92.926c0,56.672,45.941,102.614,102.614,102.614c26.59,0,50.739-10.2,68.967-26.791
		C311.794,235.361,297.152,238.897,281.653,238.897z"/>
	<polygon style="fill:#00AAF0;" points="307.307,392.818 307.307,307.306 204.693,307.306 204.693,392.818 170.489,392.818 
		256,461.227 341.511,392.818 	"/>
</g>
<path d="M247.449,196.676c-4.427,0-8.017,3.589-8.017,8.017s3.589,8.017,8.017,8.017h17.102c4.427,0,8.017-3.589,8.017-8.017
	s-3.589-8.017-8.017-8.017h-0.534v-60.927h0.534c4.427,0,8.017-3.589,8.017-8.017s-3.589-8.017-8.017-8.017h-17.102
	c-4.427,0-8.017,3.589-8.017,8.017s3.589,8.017,8.017,8.017h0.534v60.927H247.449z"/>
<path d="M256.086,110.095c4.427,0,8.017-3.589,8.017-8.017s-3.589-8.017-8.017-8.017H256c-4.427,0-7.974,3.589-7.974,8.017
	S251.658,110.095,256.086,110.095z"/>
<path d="M411.755,162.487c-12.232-23.255-31.481-42.34-54.809-54.352C339.618,69.631,300.89,42.755,256,42.755
	c-58.462,0-106.469,45.583-110.368,103.072c-27.911,3.228-51.195,23.633-58.027,50.896c-0.893-0.032-1.768-0.048-2.628-0.048
	C38.121,196.676,0,234.796,0,281.653s38.121,84.977,84.977,84.977h111.699v18.171h-26.188c-3.404,0-6.438,2.151-7.565,5.364
	s-0.102,6.786,2.557,8.913l85.511,68.409c1.464,1.172,3.236,1.757,5.008,1.757c1.772,0,3.543-0.586,5.008-1.757l85.511-68.409
	c2.658-2.127,3.683-5.7,2.557-8.913c-1.127-3.213-4.16-5.364-7.565-5.364h-26.188V366.63h94.597
	C466.208,366.63,512,320.837,512,264.551C512,208.875,467.201,163.467,411.755,162.487z M256,58.789
	c52.161,0,94.597,42.436,94.597,94.597S308.161,247.983,256,247.983s-94.597-42.436-94.597-94.597S203.839,58.789,256,58.789z
	 M318.657,400.835L256,450.96l-62.657-50.126h11.351c4.427,0,8.017-3.589,8.017-8.017v-77.495h86.58v77.495
	c0,4.427,3.589,8.017,8.017,8.017H318.657z M409.921,350.597h-94.597v-43.29c0-4.427-3.589-8.017-8.017-8.017H204.693
	c-4.427,0-8.017,3.589-8.017,8.017v43.29H84.977c-38.015,0-68.944-30.928-68.944-68.944s30.928-68.944,68.944-68.944
	c2.474,0,5.156,0.175,8.197,0.536c4.358,0.518,8.311-2.559,8.89-6.902c3.07-23.037,21.221-40.971,43.638-44.355
	c4.404,56.997,52.19,102.028,110.298,102.028c61.002,0,110.63-49.629,110.63-110.63c0-7.463-0.747-14.754-2.163-21.808
	c14.959,10.968,27.141,25.586,35.159,42.498c1.367,2.883,4.298,4.692,7.501,4.578c0.53-0.017,1.055-0.051,1.58-0.088
	c0.402-0.028,0.803-0.062,1.212-0.062c47.446,0,86.046,38.6,86.046,86.046S457.367,350.597,409.921,350.597z"/>
<g>
</g>
<g>
</g>
<g>
</g>
<g>
</g>
<g>
</g>
<g>
</g>
<g>
</g>
<g>
</g>
<g>
</g>
<g>
</g>
<g>
</g>
<g>
</g>
<g>
</g>
<g>
</g>
<g>
</g>
</svg>
