<?xml version="1.0" encoding="utf-8"?>
<!-- Generator: Adobe Illustrator 22.0.1, SVG Export Plug-In . SVG Version: 6.00 Build 0)  -->
<svg version="1.1" id="downloads" xmlns="http://www.w3.org/2000/svg" xmlns:xlink="http://www.w3.org/1999/xlink" x="0px" y="0px"
     viewBox="0 0 512 512" enable-background="new 0 0 512 512" xml:space="preserve">
<path fill="#D4F5FF" d="M409.9,170.5c-1,0-2,0.1-3.1,0.2c-19.2-40.5-60.3-68.6-108.1-68.6c-46.6,0-86.9,26.7-106.7,65.6
    c-10.4-8.9-23.9-14.2-38.7-14.2c-30.4,0-55.4,22.6-59.3,51.9c-3-0.4-6-0.6-9.1-0.6c-42.5,0-77,34.5-77,77c0,42.5,34.5,77,77,77
    h324.9c51.9,0,94.1-42.1,94.1-94.1S461.9,170.5,409.9,170.5z"/>
<g>
    <path fill="#BAEFFF" d="M179,307.3v51.3H333v-51.3c0-14.2-11.5-25.7-25.7-25.7H256h-51.3C190.5,281.7,179,293.1,179,307.3z"/>
    <path fill="#BAEFFF" d="M384.3,153.4c0-5.6-0.5-11-1.2-16.4c-21.6-21.6-51.4-34.9-84.4-34.9c-46.6,0-86.9,26.7-106.7,65.6
        c-10.4-8.9-23.9-14.2-38.7-14.2c-9.1,0-17.7,2.1-25.4,5.7c0,0,0,0,0,0.1c-0.1,0-0.2,0-0.3,0c-17.9,8.5-30.9,25.7-33.6,46.1
        c-3-0.4-6-0.6-9.1-0.6c-44.2,0-79.7,37.3-76.8,82.1c2.6,40.9,38.4,71.8,79.4,71.8H98c-8.2-12.2-13-26.9-13-42.8
        c0-36.9,26-67.7,60.7-75.2c8.3-1.8,16.8,0.7,23,6.4c22.9,21.4,53.5,34.5,87.3,34.5C326.8,281.7,384.3,224.2,384.3,153.4z"/>
</g>
<circle fill="#00C3FF" cx="256" cy="153.4" r="102.6"/>
<g>
    <path fill="#00AAF0" d="M281.7,238.9C225,238.9,179,193,179,136.3c0-30.1,13-57.1,33.6-75.8c-35,16.3-59.3,51.8-59.3,92.9
        c0,56.7,45.9,102.6,102.6,102.6c26.6,0,50.7-10.2,69-26.8C311.8,235.4,297.2,238.9,281.7,238.9z"/>
    <polygon fill="#00AAF0" points="307.3,392.8 307.3,307.3 204.7,307.3 204.7,392.8 170.5,392.8 256,461.2 341.5,392.8 	"/>
</g>
<path d="M247.4,196.7c-4.4,0-8,3.6-8,8s3.6,8,8,8h17.1c4.4,0,8-3.6,8-8s-3.6-8-8-8H264v-60.9h0.5c4.4,0,8-3.6,8-8s-3.6-8-8-8h-17.1
    c-4.4,0-8,3.6-8,8c0,4.4,3.6,8,8,8h0.5v60.9H247.4z"/>
<path d="M256.1,110.1c4.4,0,8-3.6,8-8s-3.6-8-8-8H256c-4.4,0-8,3.6-8,8S251.7,110.1,256.1,110.1z"/>
<path d="M411.8,162.5c-12.2-23.3-31.5-42.3-54.8-54.4C339.6,69.6,300.9,42.8,256,42.8c-58.5,0-106.5,45.6-110.4,103.1
    c-27.9,3.2-51.2,23.6-58,50.9c-0.9,0-1.8,0-2.6,0c-46.9,0-85,38.1-85,85s38.1,85,85,85h111.7v18.2h-26.2c-3.4,0-6.4,2.2-7.6,5.4
    s-0.1,6.8,2.6,8.9l85.5,68.4c1.5,1.2,3.2,1.8,5,1.8s3.5-0.6,5-1.8l85.5-68.4c2.7-2.1,3.7-5.7,2.6-8.9c-1.1-3.2-4.2-5.4-7.6-5.4
    h-26.2v-18.2h94.6c56.3,0,102.1-45.8,102.1-102.1C512,208.9,467.2,163.5,411.8,162.5z M256,58.8c52.2,0,94.6,42.4,94.6,94.6
    S308.2,248,256,248s-94.6-42.4-94.6-94.6S203.8,58.8,256,58.8z M318.7,400.8L256,451l-62.7-50.1h11.4c4.4,0,8-3.6,8-8v-77.5h86.6
    v77.5c0,4.4,3.6,8,8,8L318.7,400.8L318.7,400.8z M409.9,350.6h-94.6v-43.3c0-4.4-3.6-8-8-8H204.7c-4.4,0-8,3.6-8,8v43.3H85
    c-38,0-68.9-30.9-68.9-68.9S47,212.7,85,212.7c2.5,0,5.2,0.2,8.2,0.5c4.4,0.5,8.3-2.6,8.9-6.9c3.1-23,21.2-41,43.6-44.4
    c4.4,57,52.2,102,110.3,102c61,0,110.6-49.6,110.6-110.6c0-7.5-0.7-14.8-2.2-21.8c15,11,27.1,25.6,35.2,42.5
    c1.4,2.9,4.3,4.7,7.5,4.6c0.5,0,1.1-0.1,1.6-0.1c0.4,0,0.8-0.1,1.2-0.1c47.4,0,86,38.6,86,86S457.4,350.6,409.9,350.6z"/>
</svg>
