<svg xmlns="http://www.w3.org/2000/svg" viewBox="0 0 72 72"><path fill="#3ace01" d="M7.2,0h57.6c4,0,7.2,3.2,7.2,7.2v57.6c0,4-3.2,7.2-7.2,7.2H7.2c-4,0-7.2-3.2-7.2-7.2V7.3 C-0.1,3.3,3.2,0,7.2,0z"/><path fill="#fff" d="M35.6 15.5c-12.4 0-22.5 8.1-22.5 18 0 8.9 8 16.2 18.5 17.7.2 0 .5.1.7.1 3.6.7.5 5.2 1.7 6.2 1.4 1.1 11.6-5.8 17.8-11.5.9-.8 1.7-1.6 2.4-2.4.2-.2.3-.4.4-.5 2.1-2.8 3.4-6 3.4-9.5.1-10-10-18.1-22.4-18.1zm-7.4 22.6c0 .6-.5 1.2-1.2 1.2h-4.5c-.6 0-1.2-.5-1.2-1.2v-8.7c0-.6.5-1.2 1.2-1.2h.1c.6 0 1.2.5 1.2 1.2v7.4h3.3c.6 0 1.1.5 1.1 1.3zm3.4 0c0 .6-.5 1.2-1.2 1.2h-.1c-.6 0-1.2-.5-1.2-1.2v-8.7c0-.6.5-1.2 1.2-1.2h.1c.6 0 1.2.5 1.2 1.2v8.7zm10.7 0c0 .3-.1.6-.3.8-.1.1-.2.2-.3.2-.2.1-.4.1-.5.1H41c-.2 0-.3 0-.4-.1-.2-.1-.3-.2-.5-.3l-.1-.1-4.3-5.8v5.2c0 .6-.5 1.2-1.2 1.2h-.1c-.6 0-1.2-.5-1.2-1.2v-8.7c0-.6.5-1.2 1.2-1.2h.1a1.1 1.1 0 0 1 1 .6l4.2 5.7v-5.1c0-.6.5-1.2 1.2-1.2h.1c.6 0 1.2.5 1.2 1.2v8.7zm8.3-8.6c0 .6-.5 1.2-1.2 1.2h-3.3v1.9h3.3c.6 0 1.2.5 1.2 1.2v.1c0 .6-.5 1.2-1.2 1.2h-3.3V37h3.3c.6 0 1.2.5 1.2 1.2v.1c0 .6-.5 1.2-1.2 1.2h-4.5c-.6 0-1.2-.5-1.2-1.2v-8.7c0-.6.5-1.2 1.2-1.2h4.5c.7-.2 1.2.4 1.2 1.1z"/></svg>