<?xml version="1.0" encoding="iso-8859-1"?>
<!-- Generator: Adobe Illustrator 19.0.0, SVG Export Plug-In . SVG Version: 6.00 Build 0)  -->
<svg version="1.1" id="Layer_1" xmlns="http://www.w3.org/2000/svg" xmlns:xlink="http://www.w3.org/1999/xlink" x="0px" y="0px"
	 viewBox="0 0 512 512" style="enable-background:new 0 0 512 512;" xml:space="preserve">
<path style="fill:#E6AF78;" d="M238.898,380.236v-38.676H119.182v38.676c0,7.508-4.897,14.138-12.073,16.345l-74.947,23.06
	c-14.352,4.417-24.145,17.676-24.145,32.692v34.596c0,9.446,7.656,17.102,17.102,17.102H332.96c9.446,0,17.102-7.656,17.102-17.102
	v-34.596c0-15.016-9.793-28.277-24.145-32.692l-74.947-23.06C243.794,394.374,238.898,387.744,238.898,380.236z"/>
<path style="fill:#D29B6E;" d="M109.306,395.496c81.143,27.061,129.235-48.235,129.235-48.235l0.065-5.699H119.182v38.675
	C119.182,386.904,115.198,392.697,109.306,395.496z"/>
<path style="fill:#00D2FF;" d="M325.917,419.642l-65.835-20.258c-11.259,15.699-42.853,59.299-81.042,66.119
	c-38.189-6.82-69.784-50.42-81.041-66.119l-65.835,20.258c-14.353,4.416-24.146,17.676-24.146,32.692v34.596
	c0,9.445,7.658,17.102,17.102,17.102H332.96c9.445,0,17.102-7.658,17.102-17.102v-34.596
	C350.063,437.319,340.269,424.058,325.917,419.642z"/>
<g>
	<path style="fill:#14C0F7;" d="M58.644,462.136l-40.625-33.737c-6.238,6.263-10.002,14.845-10.002,24.124v34.409
		c0,9.445,7.658,17.102,17.102,17.102h42.756v-22.189C67.875,474.23,64.493,467.009,58.644,462.136z"/>
	<path style="fill:#14C0F7;" d="M350.063,486.93v-34.409c0-9.31-3.785-17.923-10.06-24.191l-40.567,33.806
		c-5.849,4.874-9.231,12.093-9.231,19.707v22.189h42.756C342.405,504.032,350.063,496.375,350.063,486.93z"/>
</g>
<g>
	<path style="fill:#707487;" d="M89.766,256.049H78.758c-4.722,0-8.551,3.829-8.551,8.551v34.205c0,4.722,3.829,8.551,8.551,8.551
		h19.217L89.766,256.049z"/>
	<path style="fill:#707487;" d="M281.653,256.049h-13.34l-8.209,51.307h21.549c4.722,0,8.551-3.829,8.551-8.551V264.6
		C290.205,259.878,286.376,256.049,281.653,256.049z"/>
</g>
<path style="fill:#28AFF0;" d="M478.33,25.07h-48.792l-47.285,133.972c-1.964,5.564,2.163,11.398,8.064,11.398h88.013
	c14.168,0,25.653-11.485,25.653-25.653V50.723C503.983,36.555,492.498,25.07,478.33,25.07z"/>
<path style="fill:#E4EAF6;" d="M315.858,7.968c-14.168,0-25.653,11.485-25.653,25.653v94.063c0,14.168,11.485,25.653,25.653,25.653
	v28.304c0,5.333,6.448,8.004,10.219,4.233l32.537-32.537h25.653l47.285-133.972c1.964-5.564-2.163-11.398-8.064-11.398
	L315.858,7.968L315.858,7.968z"/>
<path style="fill:#F0C087;" d="M211.828,369.819l34.32-28.6c6.352-5.293,10.571-12.708,11.878-20.872l19.504-121.899
	c6.651-41.564-25.457-79.217-67.55-79.217h-61.88c-42.093,0-74.2,37.653-67.55,79.217l19.504,121.899
	c1.306,8.164,5.526,15.579,11.878,20.872l34.32,28.6c4.61,3.842,10.422,5.946,16.422,5.946h32.732
	C201.406,375.765,207.218,373.661,211.828,369.819z"/>
<path style="fill:#E6AF78;" d="M161.937,230.396h85.511v-34.205H82.474c-0.778,0.913-1.146,1.345-1.924,2.256l19.504,121.899
	c1.306,8.164,5.526,15.579,11.878,20.873l34.32,28.599c4.61,3.843,10.423,5.946,16.424,5.946h7.814l-14.03-42.092
	c-2.034-6.103-3.072-12.495-3.072-18.929v-75.797C153.386,234.225,157.215,230.396,161.937,230.396z"/>
<path style="fill:#5A4146;" d="M209.98,119.231h-30.94h-30.94c-42.093,0-74.2,37.653-67.55,79.217l9.216,57.602h13.621
	c4.18,0,7.747-3.022,8.435-7.146l6.17-37.016c0.687-4.123,4.254-7.146,8.435-7.146h105.228c4.18,0,7.747,3.022,8.435,7.146
	l6.17,37.016c0.687,4.123,4.254,7.146,8.435,7.146h13.621l9.216-57.602C284.18,156.884,252.073,119.231,209.98,119.231z"/>
<path style="fill:#14C0F7;" d="M179.04,495.481c1.411,0,2.823-0.117,4.217-0.351c2.589-0.43,63.774-11.353,103.566-80.986
	c1.069-1.869,1.791-3.827,2.348-5.809l-29.09-8.951c-11.258,15.699-42.852,59.299-81.041,66.119
	c-38.189-6.82-69.784-50.42-81.041-66.119l-29.09,8.951c0.557,1.983,1.279,3.94,2.348,5.809
	c39.792,69.633,100.977,80.555,103.566,80.986C176.217,495.364,177.629,495.481,179.04,495.481z"/>
<path d="M460.384,65.672c-0.982-3.441-4.128-5.814-7.708-5.814h-8.551c-3.58,0-6.725,2.373-7.708,5.814l-17.102,59.858
	c-1.216,4.257,1.248,8.694,5.506,9.911c4.258,1.215,8.694-1.247,9.911-5.506l3.225-11.288h20.889l3.225,11.289
	c1.006,3.521,4.216,5.816,7.705,5.816c0.729,0,1.471-0.1,2.206-0.311c4.256-1.216,6.722-5.653,5.506-9.911L460.384,65.672z
	 M442.537,102.614l5.864-20.523l5.864,20.523H442.537z"/>
<path d="M478.33,17.102h-46.402c0.13-3.659-0.966-7.267-3.209-10.328C425.564,2.469,420.693,0,415.355,0h-99.497
	c-18.566,0-33.67,15.105-33.67,33.67v94.063c0,15.805,10.945,29.101,25.653,32.706v35.703c0,3.242,1.953,6.166,4.949,7.406
	c0.992,0.41,2.033,0.61,3.067,0.61c2.086,0,4.137-0.814,5.67-2.348l40.406-40.407h8.877c-0.13,3.659,0.966,7.267,3.209,10.328
	c3.155,4.306,8.026,6.775,13.363,6.775h90.947c18.566,0,33.67-15.105,33.67-33.67V50.772C512,32.207,496.895,17.102,478.33,17.102z
	 M375.241,145.37h-16.628c-2.126,0-4.165,0.844-5.668,2.348l-29.071,29.071v-23.402c0-4.427-3.589-8.017-8.017-8.017
	c-9.725,0-17.637-7.912-17.637-17.637V33.67c0-9.725,7.912-17.637,17.637-17.637h99.497c0.088,0,0.27,0,0.431,0.218
	c0.16,0.219,0.106,0.393,0.079,0.477l-27.483,87.031c-0.36-0.215-0.735-0.413-1.136-0.573c-6.798-2.718-12.732-6.302-17.792-10.704
	c9-12.476,12.331-25.564,13.56-33.694h9.805c4.427,0,8.017-3.589,8.017-8.017s-3.589-8.017-8.017-8.017H366.63v-0.534
	c0-4.427-3.589-8.017-8.017-8.017c-4.427,0-8.017,3.589-8.017,8.017v0.534h-26.188c-4.427,0-8.017,3.589-8.017,8.017
	s3.589,8.017,8.017,8.017h42.318c-1.075,5.501-3.35,13.164-8.132,20.872c-1.283-2.081-2.46-4.255-3.505-6.544
	c-1.839-4.029-6.597-5.8-10.623-3.961c-4.028,1.84-5.801,6.596-3.961,10.623c2.051,4.491,4.504,8.695,7.321,12.596
	c-4.735,4.155-10.583,7.907-17.845,10.812c-4.111,1.645-6.11,6.31-4.466,10.421c1.254,3.135,4.264,5.042,7.446,5.042
	c0.991,0,1.999-0.185,2.975-0.575c9.268-3.708,16.734-8.477,22.757-13.761c6.486,5.704,14.058,10.345,22.595,13.761
	c0.788,0.314,1.595,0.49,2.399,0.548L375.241,145.37z M495.967,144.835c0,9.725-7.912,17.637-17.637,17.637h-90.946
	c-0.088,0-0.27,0-0.431-0.219c-0.159-0.219-0.105-0.392-0.078-0.477l40.622-128.64h50.832c9.725,0,17.637,7.912,17.637,17.637
	V144.835z"/>
<path d="M328.274,411.931l-74.947-23.06c-3.836-1.18-6.413-4.67-6.413-8.684v-29.22l4.365-3.637
	c7.842-6.535,13.049-15.686,14.662-25.765l0.998-6.24h6.162c13.851,0,25.119-11.268,25.119-25.119v-17.102
	c0-12.298-8.886-22.554-20.574-24.699l7.798-48.738c3.541-22.133-2.768-44.607-17.312-61.662
	c-14.543-17.055-35.738-26.839-58.153-26.839h-61.88c-22.415,0-43.611,9.781-58.154,26.837s-20.853,39.531-17.312,61.662
	l7.798,48.738c-11.687,2.146-20.573,12.402-20.573,24.7v17.102c0,13.851,11.268,25.119,25.119,25.119h6.162l0.998,6.24
	c1.613,10.08,6.82,19.229,14.662,25.765l4.365,3.638v29.219c0,4.014-2.577,7.505-6.413,8.684l-74.947,23.06
	C11.978,417.417,0,433.634,0,452.285v34.596C0,500.732,11.268,512,25.119,512H332.96c13.851,0,25.119-11.268,25.119-25.119v-34.596
	C358.079,433.634,346.101,417.417,328.274,411.931z M282.188,273.102v17.102c0,5.01-4.076,9.086-9.086,9.086h-3.597l5.606-35.042
	C279.158,265.167,282.188,268.784,282.188,273.102z M102.146,148.405c11.493-13.477,28.242-21.207,45.954-21.207h61.88
	c17.712,0,34.461,7.729,45.954,21.207c11.492,13.477,16.479,31.238,13.68,48.728l-8.135,50.85h-6.785
	c-0.263,0-0.484-0.188-0.527-0.447l-6.169-37.017c-1.337-8.021-8.21-13.843-16.342-13.843H126.427
	c-8.132,0-15.005,5.822-16.342,13.844l-6.169,37.016c-0.044,0.259-0.265,0.447-0.527,0.447h-6.785l-8.136-50.85
	C85.668,179.643,90.654,161.883,102.146,148.405z M84.977,299.29c-5.01,0-9.086-4.076-9.086-9.086v-17.102
	c0-4.318,3.03-7.935,7.075-8.854l5.607,35.042H84.977z M99.167,264.017h4.22c8.132,0,15.005-5.822,16.342-13.844l6.169-37.016
	c0.044-0.259,0.265-0.447,0.527-0.447h105.228c0.263,0,0.484,0.188,0.527,0.447l6.169,37.017c1.337,8.021,8.21,13.843,16.342,13.843
	h4.22l-6.161,38.51c-1.869,2.104-21.343,22.417-73.71,22.417c-4.427,0-8.017,3.589-8.017,8.017c0,4.427,3.589,8.017,8.017,8.017
	c33.609,0,55.601-7.707,69.003-15.148c-1.617,3.519-4.006,6.665-7.027,9.183l-34.32,28.6c-3.163,2.636-7.173,4.087-11.291,4.087
	h-32.732c-4.117,0-8.128-1.452-11.291-4.087l-34.32-28.6c-4.863-4.053-8.094-9.729-9.094-15.981L99.167,264.017z M109.466,404.196
	c10.606-3.263,17.732-12.911,17.732-24.008v-15.858l13.92,11.601c6.039,5.032,13.695,7.804,21.555,7.804h32.732
	c7.861,0,15.516-2.772,21.555-7.804l13.92-11.602v15.858c0,11.097,7.126,20.745,17.732,24.008l4.047,1.245
	c-28.422,43.606-66.2,54.402-73.639,56.15c-7.513-1.723-45.08-12.315-73.604-56.149L109.466,404.196z M89.527,410.331
	c35.591,57.965,86.007,66.991,88.194,67.355c0.436,0.073,0.876,0.109,1.318,0.109c0.441,0,0.882-0.036,1.318-0.109
	c2.187-0.365,52.605-9.39,88.194-67.355l55.007,16.925c1.216,0.374,2.381,0.842,3.505,1.371l-32.76,27.302
	c-7.7,6.414-12.116,15.842-12.116,25.865v14.172H75.891v-14.172c0-10.023-4.416-19.451-12.115-25.866l-32.762-27.302
	c1.123-0.529,2.288-0.997,3.505-1.371L89.527,410.331z M16.033,486.881v-34.596c0-4.537,1.157-8.833,3.212-12.596l34.267,28.555
	c4.033,3.361,6.346,8.3,6.346,13.549v14.172H25.119C20.109,495.967,16.033,491.891,16.033,486.881z M342.046,486.881
	c0,5.01-4.076,9.086-9.086,9.086h-34.739v-14.172c0-5.25,2.313-10.189,6.346-13.549l34.267-28.555
	c2.056,3.763,3.212,8.058,3.212,12.596V486.881z"/>
<g>
</g>
<g>
</g>
<g>
</g>
<g>
</g>
<g>
</g>
<g>
</g>
<g>
</g>
<g>
</g>
<g>
</g>
<g>
</g>
<g>
</g>
<g>
</g>
<g>
</g>
<g>
</g>
<g>
</g>
</svg>
