<?xml version="1.0" encoding="utf-8"?>
<svg version="1.1" id="instagram" xmlns="http://www.w3.org/2000/svg" xmlns:xlink="http://www.w3.org/1999/xlink" x="0px" y="0px"
	 viewBox="0 0 72 72" enable-background="new 0 0 72 72" xml:space="preserve">
<path fill="#E1306C" d="M72,64c0,4.4-3.6,8-8,8H8c-4.4,0-8-3.6-8-8V8c0-4.4,3.6-8,8-8h56c4.4,0,8,3.6,8,8V64z"/>
<path fill="#FFFFFF" d="M28.5,36c0-4.1,3.4-7.5,7.5-7.5s7.5,3.4,7.5,7.5s-3.4,7.5-7.5,7.5S28.5,40.1,28.5,36 M24.4,36
	c0,6.4,5.2,11.6,11.6,11.6S47.5,42.4,47.5,36S42.3,24.4,36,24.4S24.4,29.6,24.4,36 M45.3,24c0,1.5,1.2,2.7,2.7,2.7s2.7-1.2,2.7-2.7
	s-1.2-2.7-2.7-2.7S45.3,22.5,45.3,24 M26.9,54.3c-2.2-0.1-3.4-0.5-4.2-0.8c-1.1-0.4-1.8-0.9-2.6-1.7c-0.8-0.8-1.3-1.5-1.7-2.6
	c-0.3-0.8-0.7-2-0.8-4.2c-0.1-2.4-0.1-3.1-0.1-9.1s0-6.7,0.1-9.1c0.1-2.2,0.5-3.4,0.8-4.2c0.4-1.1,0.9-1.8,1.7-2.6
	c0.8-0.8,1.5-1.3,2.6-1.7c0.8-0.3,2-0.7,4.2-0.8c2.4-0.1,3.1-0.1,9.1-0.1s6.7,0,9.1,0.1c2.2,0.1,3.4,0.5,4.2,0.8
	c1.1,0.4,1.8,0.9,2.6,1.7c0.8,0.8,1.3,1.5,1.7,2.6c0.3,0.8,0.7,2,0.8,4.2c0.1,2.4,0.1,3.1,0.1,9.1s0,6.7-0.1,9.1
	c-0.1,2.2-0.5,3.4-0.8,4.2c-0.4,1.1-0.9,1.8-1.7,2.6s-1.5,1.3-2.6,1.7c-0.8,0.3-2,0.7-4.2,0.8c-2.4,0.1-3.1,0.1-9.1,0.1
	C29.9,54.4,29.2,54.4,26.9,54.3 M26.7,13.6c-2.4,0.1-4,0.5-5.5,1c-1.5,0.6-2.7,1.3-4,2.6c-1.3,1.3-2,2.5-2.6,4
	c-0.6,1.4-0.9,3.1-1,5.5s-0.1,3.2-0.1,9.3s0,6.9,0.1,9.3c0.1,2.4,0.5,4,1,5.5c0.6,1.5,1.3,2.7,2.6,4s2.5,2,4,2.6
	c1.4,0.6,3.1,0.9,5.5,1s3.2,0.1,9.3,0.1s6.9,0,9.3-0.1c2.4-0.1,4-0.5,5.5-1c1.5-0.6,2.7-1.3,4-2.6s2-2.5,2.6-4
	c0.6-1.4,0.9-3.1,1-5.5c0.1-2.4,0.1-3.2,0.1-9.3s0-6.9-0.1-9.3c-0.1-2.4-0.5-4-1-5.5c-0.6-1.5-1.3-2.7-2.6-4s-2.5-2-4-2.6
	c-1.4-0.6-3.1-0.9-5.5-1s-3.2-0.1-9.3-0.1C29.8,13.5,29.1,13.5,26.7,13.6"/>
</svg>
