<?xml version="1.0" encoding="iso-8859-1"?>
<!-- Generator: Adobe Illustrator 19.0.0, SVG Export Plug-In . SVG Version: 6.00 Build 0)  -->
<svg version="1.1" id="Layer_1" xmlns="http://www.w3.org/2000/svg" xmlns:xlink="http://www.w3.org/1999/xlink" x="0px" y="0px"
	 viewBox="0 0 512 512" style="enable-background:new 0 0 512 512;" xml:space="preserve">
<g transform="translate(1 1)">
	<path style="fill:#00DA6C;" d="M135.533,92.867v170.667h238.933V92.867c0-9.387-7.68-17.067-17.067-17.067h-17.067V58.733h-42.667
		V75.8h-85.333V58.733h-42.667V75.8H152.6C143.213,75.8,135.533,83.48,135.533,92.867"/>
	<path style="fill:#00AD55;" d="M331.8,75.8c9.387,0,17.067,7.68,17.067,17.067v170.667h25.6V92.867
		c0-9.387-7.68-17.067-17.067-17.067h-17.067H331.8z"/>
	<path style="fill:#FFFFFF;" d="M178.2,75.8c-9.387,0-17.067,7.68-17.067,17.067v170.667h-25.6V92.867
		c0-9.387,7.68-17.067,17.067-17.067h17.067H178.2z"/>
	<g>
		<path style="fill:#FFE100;" d="M92.867,263.533v-17.067H50.2v17.067H28.013c-11.093,0-20.48,11.093-20.48,23.04V434.2
			c0,11.093,5.973,17.067,17.067,17.067h25.6V434.2h42.667v17.067h76.8V434.2h42.667v17.067h25.6
			c11.093,0,17.067-5.973,17.067-17.067V280.6c0-11.093-5.973-17.067-17.067-17.067H92.867z"/>
		<path style="fill:#FFE100;" d="M275.48,263.533c-11.093,0-20.48,5.973-20.48,17.067v153.6c0,11.093,5.973,17.067,17.067,17.067
			h25.6V434.2h42.667v17.067h76.8V434.2H459.8v17.067h22.187c11.093,0,20.48-9.387,20.48-20.48V286.573
			c0-11.093-9.387-23.04-20.48-23.04H459.8v-17.067h-42.667v17.067H275.48z"/>
	</g>
	<path style="fill:#FFA800;" d="M456.387,263.533c11.093,0,20.48,11.093,20.48,23.04v144.213c0,10.24-7.68,18.773-17.067,20.48l0,0
		h22.187c11.093,0,20.48-9.387,20.48-20.48V286.573c0-11.093-9.387-23.04-20.48-23.04H459.8H456.387z"/>
	<path style="fill:#FFFFFF;" d="M53.613,263.533c-11.093,0-20.48,11.093-20.48,23.04v144.213c0,10.24,7.68,18.773,17.067,20.48l0,0
		H28.013c-11.093,0-20.48-9.387-20.48-20.48V286.573c0-11.947,9.387-23.04,20.48-23.04H50.2H53.613z"/>
	<path d="M237.933,459.8h-25.6c-5.12,0-8.533-3.413-8.533-8.533v-8.533h-25.6v8.533c0,5.12-3.413,8.533-8.533,8.533h-76.8
		c-5.12,0-8.533-3.413-8.533-8.533v-8.533h-25.6v8.533c0,5.12-3.413,8.533-8.533,8.533H24.6C8.387,459.8-1,450.413-1,434.2V286.573
		C-1,269.507,12.653,255,28.013,255h13.653v-8.533c0-5.12,3.413-8.533,8.533-8.533h42.667c5.12,0,8.533,3.413,8.533,8.533V255
		h136.533c16.213,0,25.6,9.387,25.6,25.6v153.6C263.533,450.413,254.147,459.8,237.933,459.8z M220.867,442.733h17.067
		c6.827,0,8.533-1.707,8.533-8.533V280.6c0-6.827-1.707-8.533-8.533-8.533H92.867c-5.12,0-8.533-3.413-8.533-8.533V255h-25.6v8.533
		c0,5.12-3.413,8.533-8.533,8.533H28.013c-5.973,0-11.947,6.827-11.947,14.507V434.2c0,6.827,1.707,8.533,8.533,8.533h17.067V434.2
		c0-5.12,3.413-8.533,8.533-8.533h42.667c5.12,0,8.533,3.413,8.533,8.533v8.533h59.733V434.2c0-5.12,3.413-8.533,8.533-8.533h42.667
		c5.12,0,8.533,3.413,8.533,8.533V442.733z"/>
	<path d="M481.987,459.8H459.8c-5.12,0-8.533-3.413-8.533-8.533v-8.533h-25.6v8.533c0,5.12-3.413,8.533-8.533,8.533h-76.8
		c-5.12,0-8.533-3.413-8.533-8.533v-8.533h-25.6v8.533c0,5.12-3.413,8.533-8.533,8.533h-25.6c-16.213,0-25.6-9.387-25.6-25.6V280.6
		c0-15.36,11.947-25.6,29.013-25.6H408.6v-8.533c0-5.12,3.413-8.533,8.533-8.533H459.8c5.12,0,8.533,3.413,8.533,8.533V255h13.653
		c15.36,0,29.013,14.507,29.013,31.573v144.213C511,447,498.2,459.8,481.987,459.8z M468.333,442.733h13.653
		c6.827,0,11.947-5.12,11.947-11.947V286.573c0-6.827-5.973-14.507-11.947-14.507H459.8c-5.12,0-8.533-3.413-8.533-8.533V255h-25.6
		v8.533c0,5.12-3.413,8.533-8.533,8.533H275.48c-4.267,0-11.947,0.853-11.947,8.533v153.6c0,6.827,1.707,8.533,8.533,8.533h17.067
		V434.2c0-5.12,3.413-8.533,8.533-8.533h42.667c5.12,0,8.533,3.413,8.533,8.533v8.533H408.6V434.2c0-5.12,3.413-8.533,8.533-8.533
		H459.8c5.12,0,8.533,3.413,8.533,8.533V442.733z"/>
	<path d="M374.467,272.067H135.533c-5.12,0-8.533-3.413-8.533-8.533V92.867c0-14.507,11.093-25.6,25.6-25.6h8.533v-8.533
		c0-5.12,3.413-8.533,8.533-8.533h42.667c5.12,0,8.533,3.413,8.533,8.533v8.533h68.267v-8.533c0-5.12,3.413-8.533,8.533-8.533
		h42.667c5.12,0,8.533,3.413,8.533,8.533v8.533h8.533c14.507,0,25.6,11.093,25.6,25.6v170.667
		C383,268.653,379.587,272.067,374.467,272.067z M144.067,255h221.867V92.867c0-5.12-3.413-8.533-8.533-8.533h-17.067
		c-5.12,0-8.533-3.413-8.533-8.533v-8.533h-25.6V75.8c0,5.12-3.413,8.533-8.533,8.533h-85.333c-5.12,0-8.533-3.413-8.533-8.533
		v-8.533h-25.6V75.8c0,5.12-3.413,8.533-8.533,8.533H152.6c-5.12,0-8.533,3.413-8.533,8.533V255z"/>
	<path d="M50.2,408.6H7.533c-5.12,0-8.533-3.413-8.533-8.533s3.413-8.533,8.533-8.533H50.2c5.12,0,8.533,3.413,8.533,8.533
		S55.32,408.6,50.2,408.6z"/>
	<path d="M33.133,374.467h-25.6c-5.12,0-8.533-3.413-8.533-8.533s3.413-8.533,8.533-8.533h25.6c5.12,0,8.533,3.413,8.533,8.533
		S38.253,374.467,33.133,374.467z"/>
</g>
<g>
</g>
<g>
</g>
<g>
</g>
<g>
</g>
<g>
</g>
<g>
</g>
<g>
</g>
<g>
</g>
<g>
</g>
<g>
</g>
<g>
</g>
<g>
</g>
<g>
</g>
<g>
</g>
<g>
</g>
</svg>
