<svg version="1.1" xmlns="http://www.w3.org/2000/svg" xmlns:xlink="http://www.w3.org/1999/xlink" x="0px" y="0px"
	 viewBox="0 0 512 512" style="enable-background:new 0 0 512 512;" xml:space="preserve">
<g transform="translate(1 1)">
	<path style="fill:#00DA6C;" d="M135.5,92.9v170.7h238.9V92.9c0-9.4-7.7-17.1-17.1-17.1h-17.1V58.7h-42.7v17.1h-85.3V58.7h-42.7
		v17.1h-17.1C143.2,75.8,135.5,83.5,135.5,92.9"/>
	<path style="fill:#00AD55;" d="M331.8,75.8c9.4,0,17.1,7.7,17.1,17.1v170.7h25.6V92.9c0-9.4-7.7-17.1-17.1-17.1h-17.1
		C340.3,75.8,331.8,75.8,331.8,75.8z"/>
	<path style="fill:#FFFFFF;" d="M178.2,75.8c-9.4,0-17.1,7.7-17.1,17.1v170.7h-25.6V92.9c0-9.4,7.7-17.1,17.1-17.1h17.1
		C169.7,75.8,178.2,75.8,178.2,75.8z"/>
	<g>
		<path style="fill:#FFE100;" d="M92.9,263.5v-17.1H50.2v17.1H28c-11.1,0-20.5,11.1-20.5,23v147.6c0,11.1,6,17.1,17.1,17.1h25.6
			v-17.1h42.7v17.1h76.8v-17.1h42.7v17.1h25.6c11.1,0,17.1-6,17.1-17.1V280.6c0-11.1-6-17.1-17.1-17.1L92.9,263.5L92.9,263.5z"/>
		<path style="fill:#FFE100;" d="M275.5,263.5c-11.1,0-20.5,6-20.5,17.1v153.6c0,11.1,6,17.1,17.1,17.1h25.6v-17.1h42.7v17.1h76.8
			v-17.1h42.7v17.1H482c11.1,0,20.5-9.4,20.5-20.5V286.6c0-11.1-9.4-23-20.5-23h-22.2v-17.1h-42.7v17.1H275.5z"/>
	</g>
	<path style="fill:#FFA800;" d="M456.4,263.5c11.1,0,20.5,11.1,20.5,23v144.2c0,10.2-7.7,18.8-17.1,20.5l0,0H482
		c11.1,0,20.5-9.4,20.5-20.5V286.6c0-11.1-9.4-23-20.5-23h-22.2H456.4z"/>
	<path style="fill:#FFFFFF;" d="M53.6,263.5c-11.1,0-20.5,11.1-20.5,23v144.2c0,10.2,7.7,18.8,17.1,20.5l0,0H28
		c-11.1,0-20.5-9.4-20.5-20.5V286.6c0-11.9,9.4-23,20.5-23h22.2H53.6z"/>
	<path d="M237.9,459.8h-25.6c-5.1,0-8.5-3.4-8.5-8.5v-8.5h-25.6v8.5c0,5.1-3.4,8.5-8.5,8.5H92.9c-5.1,0-8.5-3.4-8.5-8.5v-8.5H58.7
		v8.5c0,5.1-3.4,8.5-8.5,8.5H24.6C8.4,459.8-1,450.4-1,434.2V286.6c0-17.1,13.7-31.6,29-31.6h13.7v-8.5c0-5.1,3.4-8.5,8.5-8.5h42.7
		c5.1,0,8.5,3.4,8.5,8.5v8.5h136.5c16.2,0,25.6,9.4,25.6,25.6v153.6C263.5,450.4,254.1,459.8,237.9,459.8z M220.9,442.7h17.1
		c6.8,0,8.5-1.7,8.5-8.5V280.6c0-6.8-1.7-8.5-8.5-8.5H92.9c-5.1,0-8.5-3.4-8.5-8.5V255H58.7v8.5c0,5.1-3.4,8.5-8.5,8.5H28
		c-6,0-11.9,6.8-11.9,14.5v147.6c0,6.8,1.7,8.5,8.5,8.5h17.1v-8.5c0-5.1,3.4-8.5,8.5-8.5h42.7c5.1,0,8.5,3.4,8.5,8.5v8.5h59.7v-8.5
		c0-5.1,3.4-8.5,8.5-8.5h42.7c5.1,0,8.5,3.4,8.5,8.5L220.9,442.7L220.9,442.7z"/>
	<path d="M482,459.8h-22.2c-5.1,0-8.5-3.4-8.5-8.5v-8.5h-25.6v8.5c0,5.1-3.4,8.5-8.5,8.5h-76.8c-5.1,0-8.5-3.4-8.5-8.5v-8.5h-25.6
		v8.5c0,5.1-3.4,8.5-8.5,8.5h-25.6c-16.2,0-25.6-9.4-25.6-25.6V280.6c0-15.4,11.9-25.6,29-25.6h133.1v-8.5c0-5.1,3.4-8.5,8.5-8.5
		h42.7c5.1,0,8.5,3.4,8.5,8.5v8.5H482c15.4,0,29,14.5,29,31.6v144.2C511,447,498.2,459.8,482,459.8z M468.3,442.7H482
		c6.8,0,11.9-5.1,11.9-11.9V286.6c0-6.8-6-14.5-11.9-14.5h-22.2c-5.1,0-8.5-3.4-8.5-8.5V255h-25.6v8.5c0,5.1-3.4,8.5-8.5,8.5H275.5
		c-4.3,0-11.9,0.9-11.9,8.5v153.6c0,6.8,1.7,8.5,8.5,8.5h17.1v-8.5c0-5.1,3.4-8.5,8.5-8.5h42.7c5.1,0,8.5,3.4,8.5,8.5v8.5h59.7v-8.5
		c0-5.1,3.4-8.5,8.5-8.5h42.7c5.1,0,8.5,3.4,8.5,8.5L468.3,442.7L468.3,442.7z"/>
	<path d="M374.5,272.1H135.5c-5.1,0-8.5-3.4-8.5-8.5V92.9c0-14.5,11.1-25.6,25.6-25.6h8.5v-8.5c0-5.1,3.4-8.5,8.5-8.5h42.7
		c5.1,0,8.5,3.4,8.5,8.5v8.5h68.3v-8.5c0-5.1,3.4-8.5,8.5-8.5h42.7c5.1,0,8.5,3.4,8.5,8.5v8.5h8.5c14.5,0,25.6,11.1,25.6,25.6v170.7
		C383,268.7,379.6,272.1,374.5,272.1z M144.1,255h221.9V92.9c0-5.1-3.4-8.5-8.5-8.5h-17.1c-5.1,0-8.5-3.4-8.5-8.5v-8.5h-25.6v8.5
		c0,5.1-3.4,8.5-8.5,8.5h-85.3c-5.1,0-8.5-3.4-8.5-8.5v-8.5h-25.6v8.5c0,5.1-3.4,8.5-8.5,8.5h-17.1c-5.1,0-8.5,3.4-8.5,8.5V255z"/>
	<path d="M50.2,408.6H7.5c-5.1,0-8.5-3.4-8.5-8.5s3.4-8.5,8.5-8.5h42.7c5.1,0,8.5,3.4,8.5,8.5S55.3,408.6,50.2,408.6z"/>
	<path d="M33.1,374.5H7.5c-5.1,0-8.5-3.4-8.5-8.5s3.4-8.5,8.5-8.5h25.6c5.1,0,8.5,3.4,8.5,8.5S38.3,374.5,33.1,374.5z"/>
</g>
</svg>