<svg xmlns="http://www.w3.org/2000/svg" viewBox="0 0 512 512"><path d="M136.5 93.9v170.7h238.9V93.9c0-9.4-7.7-17.1-17.1-17.1h-17.1V59.7h-42.7v17.1h-85.3V59.7h-42.7v17.1h-17.1c-9.2 0-16.9 7.7-16.9 17.1" fill="#00da6c"/><path d="M332.8 76.8c9.4 0 17.1 7.7 17.1 17.1v170.7h25.6V93.9c0-9.4-7.7-17.1-17.1-17.1h-25.6z" fill="#00ad55"/><path d="M179.2 76.8c-9.4 0-17.1 7.7-17.1 17.1v170.7h-25.6V93.9c0-9.4 7.7-17.1 17.1-17.1h25.6z" fill="#fff"/><g fill="#ffe100"><path d="M93.9 264.5v-17.1H51.2v17.1H29c-11.1 0-20.5 11.1-20.5 23v147.6c0 11.1 6 17.1 17.1 17.1h25.6v-17.1h42.7v17.1h76.8v-17.1h42.7v17.1H239c11.1 0 17.1-6 17.1-17.1V281.6c0-11.1-6-17.1-17.1-17.1H93.9z"/><path d="M276.5 264.5c-11.1 0-20.5 6-20.5 17.1v153.6c0 11.1 6 17.1 17.1 17.1h25.6v-17.1h42.7v17.1h76.8v-17.1h42.7v17.1H483c11.1 0 20.5-9.4 20.5-20.5V287.6c0-11.1-9.4-23-20.5-23h-22.2v-17.1h-42.7v17.1H276.5z"/></g><path d="M457.4 264.5c11.1 0 20.5 11.1 20.5 23v144.2c0 10.2-7.7 18.8-17.1 20.5H483c11.1 0 20.5-9.4 20.5-20.5V287.6c0-11.1-9.4-23-20.5-23h-25.6z" fill="#ffa800"/><path d="M54.6 264.5c-11.1 0-20.5 11.1-20.5 23v144.2c0 10.2 7.7 18.8 17.1 20.5H29c-11.1 0-20.5-9.4-20.5-20.5V287.6c0-11.9 9.4-23 20.5-23h25.6z" fill="#fff"/><path d="M238.9 460.8h-25.6c-5.1 0-8.5-3.4-8.5-8.5v-8.5h-25.6v8.5c0 5.1-3.4 8.5-8.5 8.5H93.9c-5.1 0-8.5-3.4-8.5-8.5v-8.5H59.7v8.5c0 5.1-3.4 8.5-8.5 8.5H25.6C9.4 460.8 0 451.4 0 435.2V287.6C0 270.5 13.7 256 29 256h13.7v-8.5c0-5.1 3.4-8.5 8.5-8.5h42.7c5.1 0 8.5 3.4 8.5 8.5v8.5h136.5c16.2 0 25.6 9.4 25.6 25.6v153.6c0 16.2-9.4 25.6-25.6 25.6zm-17-17.1H239c6.8 0 8.5-1.7 8.5-8.5V281.6c0-6.8-1.7-8.5-8.5-8.5H93.9c-5.1 0-8.5-3.4-8.5-8.5V256H59.7v8.5c0 5.1-3.4 8.5-8.5 8.5H29c-6 0-11.9 6.8-11.9 14.5v147.6c0 6.8 1.7 8.5 8.5 8.5h17.1v-8.5c0-5.1 3.4-8.5 8.5-8.5h42.7c5.1 0 8.5 3.4 8.5 8.5v8.5h59.7v-8.5c0-5.1 3.4-8.5 8.5-8.5h42.7c5.1 0 8.5 3.4 8.5 8.5l.1 8.6z"/><path d="M483 460.8h-22.2c-5.1 0-8.5-3.4-8.5-8.5v-8.5h-25.6v8.5c0 5.1-3.4 8.5-8.5 8.5h-76.8c-5.1 0-8.5-3.4-8.5-8.5v-8.5h-25.6v8.5c0 5.1-3.4 8.5-8.5 8.5h-25.6c-16.2 0-25.6-9.4-25.6-25.6V281.6c0-15.4 11.9-25.6 29-25.6h133.1v-8.5c0-5.1 3.4-8.5 8.5-8.5h42.7c5.1 0 8.5 3.4 8.5 8.5v8.5H483c15.4 0 29 14.5 29 31.6v144.2c0 16.2-12.8 29-29 29zm-13.7-17.1H483c6.8 0 11.9-5.1 11.9-11.9V287.6c0-6.8-6-14.5-11.9-14.5h-22.2c-5.1 0-8.5-3.4-8.5-8.5V256h-25.6v8.5c0 5.1-3.4 8.5-8.5 8.5H276.5c-4.3 0-11.9.9-11.9 8.5v153.6c0 6.8 1.7 8.5 8.5 8.5h17.1v-8.5c0-5.1 3.4-8.5 8.5-8.5h42.7c5.1 0 8.5 3.4 8.5 8.5v8.5h59.7v-8.5c0-5.1 3.4-8.5 8.5-8.5h42.7c5.1 0 8.5 3.4 8.5 8.5v8.6z"/><path d="M375.5 273.1h-239c-5.1 0-8.5-3.4-8.5-8.5V93.9c0-14.5 11.1-25.6 25.6-25.6h8.5v-8.5c0-5.1 3.4-8.5 8.5-8.5h42.7c5.1 0 8.5 3.4 8.5 8.5v8.5h68.3v-8.5c0-5.1 3.4-8.5 8.5-8.5h42.7c5.1 0 8.5 3.4 8.5 8.5v8.5h8.5c14.5 0 25.6 11.1 25.6 25.6v170.7c.1 5.1-3.3 8.5-8.4 8.5zM145.1 256H367V93.9c0-5.1-3.4-8.5-8.5-8.5h-17.1c-5.1 0-8.5-3.4-8.5-8.5v-8.5h-25.6v8.5c0 5.1-3.4 8.5-8.5 8.5h-85.3c-5.1 0-8.5-3.4-8.5-8.5v-8.5h-25.6v8.5c0 5.1-3.4 8.5-8.5 8.5h-17.1c-5.1 0-8.5 3.4-8.5 8.5V256zM51.2 409.6H8.5c-5.1 0-8.5-3.4-8.5-8.5s3.4-8.5 8.5-8.5h42.7c5.1 0 8.5 3.4 8.5 8.5s-3.4 8.5-8.5 8.5zm-17.1-34.1H8.5c-5.1 0-8.5-3.4-8.5-8.5s3.4-8.5 8.5-8.5h25.6c5.1 0 8.5 3.4 8.5 8.5s-3.3 8.5-8.5 8.5z"/></svg>