<?xml version="1.0" encoding="iso-8859-1"?>
<!-- Generator: Adobe Illustrator 19.0.0, SVG Export Plug-In . SVG Version: 6.00 Build 0)  -->
<svg version="1.1" id="Layer_1" xmlns="http://www.w3.org/2000/svg" xmlns:xlink="http://www.w3.org/1999/xlink" x="0px" y="0px"
	 viewBox="0 0 512.001 512.001" style="enable-background:new 0 0 512.001 512.001;" xml:space="preserve">
<rect x="195.852" y="344.282" style="fill:#A4A9AD;" width="120.286" height="123.168"/>
<rect x="247.875" y="376.252" style="opacity:0.1;enable-background:new    ;" width="16.25" height="91.198"/>
<rect x="195.852" y="344.282" style="opacity:0.1;enable-background:new    ;" width="120.286" height="55.886"/>
<path style="fill:#D1D3D3;" d="M398.124,20.286c0-6.689-5.471-12.161-12.16-12.161H126.036c-6.688,0-12.16,5.472-12.16,12.161
	v343.808c0,6.69,5.471,12.161,12.16,12.161h259.928c6.688,0,12.16-5.471,12.16-12.161V20.286z"/>
<g>
	<circle style="fill:#A4A9AD;" cx="372.537" cy="33.714" r="8.252"/>
	<circle style="fill:#A4A9AD;" cx="139.463" cy="33.714" r="8.252"/>
	<circle style="fill:#A4A9AD;" cx="372.537" cy="350.663" r="8.252"/>
	<circle style="fill:#A4A9AD;" cx="139.463" cy="350.663" r="8.252"/>
</g>
<path style="fill:#00B3E3;" d="M166.163,333.696c-5.351,0-9.729-4.377-9.729-9.728V60.411c0-5.35,4.378-9.728,9.729-9.728h179.676
	c5.351,0,9.728,4.378,9.728,9.728v263.558c0,5.351-4.378,9.728-9.728,9.728H166.163z"/>
<path style="fill:#0071CE;" d="M217.008,333.696h128.831c5.351,0,9.728-4.377,9.728-9.728v-191
	C275.731,165.298,218.998,242.743,217.008,333.696z"/>
<path style="opacity:0.1;enable-background:new    ;" d="M345.839,50.683H166.163c-5.351,0-9.729,4.378-9.729,9.728v17.834
	c0-5.349,4.378-9.728,9.729-9.728h179.676c5.351,0,9.728,4.38,9.728,9.728V60.411C355.567,55.061,351.189,50.683,345.839,50.683z"/>
<path style="fill:#D1D3D3;" d="M355.965,491.714c0,6.689-5.471,12.161-12.16,12.161h-175.62c-6.688,0-12.16-5.472-12.16-12.161
	v-20.353c0-6.689,5.471-12.161,12.16-12.161h175.621c6.688,0,12.16,5.472,12.16,12.161v20.353H355.965z"/>
<g>
	<path style="fill:#FFFFFF;" d="M265.728,113.958h-74.173c-4.487,0-8.125-3.637-8.125-8.125s3.638-8.125,8.125-8.125h74.173
		c4.487,0,8.125,3.637,8.125,8.125S270.215,113.958,265.728,113.958z"/>
	<path style="fill:#FFFFFF;" d="M228.642,154.213h-37.086c-4.487,0-8.125-3.637-8.125-8.125s3.638-8.125,8.125-8.125h37.086
		c4.487,0,8.125,3.637,8.125,8.125C236.767,150.575,233.129,154.213,228.642,154.213z"/>
</g>
<path style="fill:#1E252B;" d="M385.965,0H126.036c-11.185,0-20.285,9.099-20.285,20.286v343.808
	c0,11.186,9.099,20.286,20.285,20.286h61.688v66.696h-19.54c-11.185,0-20.285,9.099-20.285,20.286v20.353
	c0,11.186,9.099,20.286,20.285,20.286h175.622c11.185,0,20.285-9.099,20.285-20.286v-20.354c0-11.186-9.099-20.286-20.285-20.286
	h-19.54v-66.696h61.698c11.185,0,20.285-9.099,20.285-20.286V20.286C406.25,9.099,397.149,0,385.965,0z M343.807,467.325
	c2.187,0,4.034,1.848,4.034,4.036v20.353c0,2.186-1.847,4.036-4.034,4.036H168.186c-2.187,0-4.034-1.848-4.034-4.036v-20.353
	c0-2.187,1.847-4.036,4.034-4.036H343.807z M203.976,451.075v-66.696h104.041v66.696H203.976z M389.999,364.093
	c0,2.186-1.847,4.036-4.034,4.036H126.036c-2.187,0-4.034-1.848-4.034-4.036V20.286c0-2.186,1.847-4.036,4.034-4.036h259.928
	c2.186,0,4.034,1.848,4.034,4.036V364.093z M345.839,42.558H166.163c-9.845,0-17.854,8.009-17.854,17.853v263.558
	c0,9.843,8.009,17.853,17.854,17.853h179.676c9.845,0,17.853-8.009,17.853-17.853V60.411
	C363.692,50.567,355.684,42.558,345.839,42.558z M347.441,323.968c0,0.869-0.735,1.602-1.602,1.602H166.163
	c-0.869,0-1.603-0.733-1.603-1.602V60.411c0-0.869,0.735-1.602,1.603-1.602h179.676c0.869,0,1.602,0.733,1.602,1.602V323.968z"/>
<g>
</g>
<g>
</g>
<g>
</g>
<g>
</g>
<g>
</g>
<g>
</g>
<g>
</g>
<g>
</g>
<g>
</g>
<g>
</g>
<g>
</g>
<g>
</g>
<g>
</g>
<g>
</g>
<g>
</g>
</svg>
