<svg xmlns="http://www.w3.org/2000/svg" viewBox="0 0 512 512"><path d="M195.9 344.3h120.3v123.2H195.9z" fill="#a4a9ad"/><path d="M247.9 376.3h16.3v91.2h-16.3z" opacity=".1"/><path d="M195.9 344.3h120.3v55.9H195.9z" opacity=".1"/><path d="M398.1 20.3c0-6.7-5.5-12.2-12.2-12.2H126c-6.7 0-12.2 5.5-12.2 12.2v343.8c0 6.7 5.5 12.2 12.2 12.2h260c6.7 0 12.2-5.5 12.2-12.2l-.1-343.8z" fill="#d1d3d3"/><g fill="#a4a9ad"><circle cx="372.5" cy="33.7" r="8.3"/><circle cx="139.5" cy="33.7" r="8.3"/><circle cx="372.5" cy="350.7" r="8.3"/><circle cx="139.5" cy="350.7" r="8.3"/></g><path d="M166.2 333.7c-5.4 0-9.7-4.4-9.7-9.7V60.4c0-5.3 4.4-9.7 9.7-9.7h179.7c5.4 0 9.7 4.4 9.7 9.7V324c0 5.4-4.4 9.7-9.7 9.7H166.2z" fill="#00b3e3"/><path d="M217,333.7h128.8c5.4,0,9.7-4.4,9.7-9.7V133C275.7,165.3,219,242.7,217,333.7z" fill="#0071ce"/><path d="M345.8 50.7H166.2c-5.4 0-9.7 4.4-9.7 9.7v17.8c0-5.3 4.4-9.7 9.7-9.7h179.7c5.4 0 9.7 4.4 9.7 9.7V60.4c0-5.3-4.4-9.7-9.8-9.7z" opacity=".1"/><path d="M356 491.7c0 6.7-5.5 12.2-12.2 12.2H168.2c-6.7 0-12.2-5.5-12.2-12.2v-20.4c0-6.7 5.5-12.2 12.2-12.2h175.6c6.7 0 12.2 5.5 12.2 12.2v20.4z" fill="#d1d3d3"/><path d="M265.7 114h-74.2c-4.5 0-8.1-3.6-8.1-8.1s3.6-8.1 8.1-8.1h74.2c4.5 0 8.1 3.6 8.1 8.1s-3.6 8.1-8.1 8.1zm-37.1 40.2h-37.1c-4.5 0-8.1-3.6-8.1-8.1s3.6-8.1 8.1-8.1h37.1c4.5 0 8.1 3.6 8.1 8.1.1 4.5-3.6 8.1-8.1 8.1z" fill="#fff"/><path d="M386 0H126c-11.2 0-20.3 9.1-20.3 20.3v343.8c0 11.2 9.1 20.3 20.3 20.3h61.7v66.7h-19.5c-11.2 0-20.3 9.1-20.3 20.3v20.4c0 11.2 9.1 20.3 20.3 20.3h175.6c11.2 0 20.3-9.1 20.3-20.3v-20.4c0-11.2-9.1-20.3-20.3-20.3h-19.5v-66.7H386c11.2 0 20.3-9.1 20.3-20.3V20.3C406.3 9.1 397.1 0 386 0zm-42.2 467.3c2.2 0 4 1.8 4 4v20.4c0 2.2-1.8 4-4 4H168.2c-2.2 0-4-1.8-4-4v-20.4c0-2.2 1.8-4 4-4h175.6zM204 451.1v-66.7h104v66.7H204zm186-87c0 2.2-1.8 4-4 4H126c-2.2 0-4-1.8-4-4V20.3c0-2.2 1.8-4 4-4h260c2.2 0 4 1.8 4 4v343.8zM345.8 42.6H166.2c-9.8 0-17.9 8-17.9 17.9V324c0 9.8 8 17.9 17.9 17.9h179.7c9.8 0 17.9-8 17.9-17.9V60.4c-.1-9.8-8.1-17.8-18-17.8zm1.6 281.4a1.58 1.58 0 0 1-1.6 1.6H166.2a1.58 1.58 0 0 1-1.6-1.6V60.4a1.58 1.58 0 0 1 1.6-1.6h179.7a1.58 1.58 0 0 1 1.6 1.6l-.1 263.6z" fill="#1e252b"/></svg>