<svg version="1.1" xmlns="http://www.w3.org/2000/svg" xmlns:xlink="http://www.w3.org/1999/xlink" x="0px" y="0px"
	 viewBox="0 0 512 512" style="enable-background:new 0 0 512 512;" xml:space="preserve">
<rect x="195.9" y="344.3" style="fill:#A4A9AD;" width="120.3" height="123.2"/>
<rect x="247.9" y="376.3" style="opacity:0.1;enable-background:new;" width="16.3" height="91.2"/>
<rect x="195.9" y="344.3" style="opacity:0.1;enable-background:new;" width="120.3" height="55.9"/>
<path style="fill:#D1D3D3;" d="M398.1,20.3c0-6.7-5.5-12.2-12.2-12.2H126c-6.7,0-12.2,5.5-12.2,12.2v343.8c0,6.7,5.5,12.2,12.2,12.2
	H386c6.7,0,12.2-5.5,12.2-12.2L398.1,20.3L398.1,20.3z"/>
<g>
	<circle style="fill:#A4A9AD;" cx="372.5" cy="33.7" r="8.3"/>
	<circle style="fill:#A4A9AD;" cx="139.5" cy="33.7" r="8.3"/>
	<circle style="fill:#A4A9AD;" cx="372.5" cy="350.7" r="8.3"/>
	<circle style="fill:#A4A9AD;" cx="139.5" cy="350.7" r="8.3"/>
</g>
<path style="fill:#00B3E3;" d="M166.2,333.7c-5.4,0-9.7-4.4-9.7-9.7V60.4c0-5.3,4.4-9.7,9.7-9.7h179.7c5.4,0,9.7,4.4,9.7,9.7V324
	c0,5.4-4.4,9.7-9.7,9.7L166.2,333.7L166.2,333.7z"/>
<path style="fill:#0071CE;" d="M217,333.7h128.8c5.4,0,9.7-4.4,9.7-9.7V133C275.7,165.3,219,242.7,217,333.7z"/>
<path style="opacity:0.1;enable-background:new;" d="M345.8,50.7H166.2c-5.4,0-9.7,4.4-9.7,9.7v17.8c0-5.3,4.4-9.7,9.7-9.7
	h179.7c5.4,0,9.7,4.4,9.7,9.7V60.4C355.6,55.1,351.2,50.7,345.8,50.7z"/>
<path style="fill:#D1D3D3;" d="M356,491.7c0,6.7-5.5,12.2-12.2,12.2H168.2c-6.7,0-12.2-5.5-12.2-12.2v-20.4
	c0-6.7,5.5-12.2,12.2-12.2h175.6c6.7,0,12.2,5.5,12.2,12.2L356,491.7L356,491.7z"/>
<g>
	<path style="fill:#FFFFFF;" d="M265.7,114h-74.2c-4.5,0-8.1-3.6-8.1-8.1s3.6-8.1,8.1-8.1h74.2c4.5,0,8.1,3.6,8.1,8.1
		S270.2,114,265.7,114z"/>
	<path style="fill:#FFFFFF;" d="M228.6,154.2h-37.1c-4.5,0-8.1-3.6-8.1-8.1s3.6-8.1,8.1-8.1h37.1c4.5,0,8.1,3.6,8.1,8.1
		C236.8,150.6,233.1,154.2,228.6,154.2z"/>
</g>
<path style="fill:#1E252B;" d="M386,0H126c-11.2,0-20.3,9.1-20.3,20.3v343.8c0,11.2,9.1,20.3,20.3,20.3h61.7v66.7h-19.5
	c-11.2,0-20.3,9.1-20.3,20.3v20.4c0,11.2,9.1,20.3,20.3,20.3h175.6c11.2,0,20.3-9.1,20.3-20.3v-20.4c0-11.2-9.1-20.3-20.3-20.3
	h-19.5v-66.7H386c11.2,0,20.3-9.1,20.3-20.3V20.3C406.3,9.1,397.1,0,386,0z M343.8,467.3c2.2,0,4,1.8,4,4v20.4c0,2.2-1.8,4-4,4
	H168.2c-2.2,0-4-1.8-4-4v-20.4c0-2.2,1.8-4,4-4H343.8z M204,451.1v-66.7h104v66.7H204z M390,364.1c0,2.2-1.8,4-4,4H126
	c-2.2,0-4-1.8-4-4V20.3c0-2.2,1.8-4,4-4H386c2.2,0,4,1.8,4,4L390,364.1L390,364.1z M345.8,42.6H166.2c-9.8,0-17.9,8-17.9,17.9V324
	c0,9.8,8,17.9,17.9,17.9h179.7c9.8,0,17.9-8,17.9-17.9V60.4C363.7,50.6,355.7,42.6,345.8,42.6z M347.4,324c0,0.9-0.7,1.6-1.6,1.6
	H166.2c-0.9,0-1.6-0.7-1.6-1.6V60.4c0-0.9,0.7-1.6,1.6-1.6h179.7c0.9,0,1.6,0.7,1.6,1.6L347.4,324L347.4,324z"/>
</svg>