<?xml version="1.0" ?><!DOCTYPE svg  PUBLIC '-//W3C//DTD SVG 1.1//EN'  'http://www.w3.org/Graphics/SVG/1.1/DTD/svg11.dtd'><svg enable-background="new 0 0 512 512" height="512px" id="Relationship" version="1.1" viewBox="0 0 512 512" width="512px" xml:space="preserve" xmlns="http://www.w3.org/2000/svg" xmlns:xlink="http://www.w3.org/1999/xlink"><linearGradient gradientUnits="userSpaceOnUse" id="SVGID_1_" x1="67.9395" x2="184.4797" y1="392.2939" y2="275.7537"><stop offset="0" style="stop-color:#B3B3B3"/><stop offset="0.0161" style="stop-color:#B7B7B7"/><stop offset="0.152" style="stop-color:#D1D1D1"/><stop offset="0.3016" style="stop-color:#E5E5E5"/><stop offset="0.4698" style="stop-color:#F4F4F4"/><stop offset="0.6721" style="stop-color:#FCFCFC"/><stop offset="1" style="stop-color:#FFFFFF"/></linearGradient><path d="M208.166,368.605H44.251v-49.008c0-26.878,21.789-48.666,48.667-48.666h66.581  c26.878,0,48.667,21.788,48.667,48.666V368.605z" fill="url(#SVGID_1_)"/><linearGradient gradientUnits="userSpaceOnUse" id="SVGID_2_" x1="92.3213" x2="170.2849" y1="243.1074" y2="165.1438"><stop offset="0" style="stop-color:#B3B3B3"/><stop offset="0.0161" style="stop-color:#B7B7B7"/><stop offset="0.152" style="stop-color:#D1D1D1"/><stop offset="0.3016" style="stop-color:#E5E5E5"/><stop offset="0.4698" style="stop-color:#F4F4F4"/><stop offset="0.6721" style="stop-color:#FCFCFC"/><stop offset="1" style="stop-color:#FFFFFF"/></linearGradient><circle cx="131.303" cy="204.125" fill="url(#SVGID_2_)" r="55.129"/><path d="M467.749,368.605H303.834v-49.008c0-26.878,21.789-48.666,48.667-48.666h66.581  c26.878,0,48.667,21.788,48.667,48.666V368.605z" fill="#3F5EAB"/><circle cx="390.886" cy="204.125" fill="#3F5EAB" r="55.129"/><linearGradient gradientUnits="userSpaceOnUse" id="SVGID_3_" x1="97.2925" x2="1008.9116" y1="435.2168" y2="435.2168"><stop offset="0" style="stop-color:#FF7BAC"/><stop offset="0.0431" style="stop-color:#FA7DAE"/><stop offset="0.0924" style="stop-color:#EC85B2"/><stop offset="0.1447" style="stop-color:#D590BA"/><stop offset="0.1991" style="stop-color:#B5A1C4"/><stop offset="0.2553" style="stop-color:#8CB7D1"/><stop offset="0.3128" style="stop-color:#59D1E2"/><stop offset="0.3703" style="stop-color:#1FEFF5"/><stop offset="0.398" style="stop-color:#00FFFF"/></linearGradient><path d="M409.754,381.531c-6.459-4.252-15.14-2.465-19.392,3.994  c-28.103,42.685-75.338,68.168-126.354,68.168c-31.121,0-60.731-9.315-85.74-26.625l40.025,4l-25.534-31.186l-66.799-6.658  l-6.658,66.799l25.533,31.188l5.025-50.574c32.035,26.595,71.92,41.057,114.147,41.057c60.465,0,116.442-30.195,149.741-80.771  C418.001,394.465,416.212,385.783,409.754,381.531z" fill="url(#SVGID_3_)"/><linearGradient gradientUnits="userSpaceOnUse" id="SVGID_4_" x1="430.7236" x2="-480.8985" y1="76.7827" y2="76.7826"><stop offset="0" style="stop-color:#FF7BAC"/><stop offset="0.0431" style="stop-color:#FA7DAE"/><stop offset="0.0924" style="stop-color:#EC85B2"/><stop offset="0.1447" style="stop-color:#D590BA"/><stop offset="0.1991" style="stop-color:#B5A1C4"/><stop offset="0.2553" style="stop-color:#8CB7D1"/><stop offset="0.3128" style="stop-color:#59D1E2"/><stop offset="0.3703" style="stop-color:#1FEFF5"/><stop offset="0.398" style="stop-color:#00FFFF"/></linearGradient><path d="M383.181,20.789l-5.026,50.574c-32.034-26.595-71.919-41.057-114.146-41.057  c-60.464,0-116.442,30.194-149.742,80.771c-4.252,6.458-2.463,15.14,3.994,19.392c2.372,1.562,5.044,2.309,7.687,2.309  c4.552,0,9.016-2.217,11.706-6.303c28.104-42.685,75.34-68.168,126.355-68.168c31.121,0,60.731,9.316,85.74,26.626l-40.025-4.001  l25.533,31.187l66.8,6.657l6.658-66.799L383.181,20.789z" fill="url(#SVGID_4_)"/></svg>