<?xml version="1.0" ?><!DOCTYPE svg  PUBLIC '-//W3C//DTD SVG 1.1//EN'  'http://www.w3.org/Graphics/SVG/1.1/DTD/svg11.dtd'><svg enable-background="new 0 0 512 512" height="512px" id="Badge" version="1.1" viewBox="0 0 512 512" width="512px" xml:space="preserve" xmlns="http://www.w3.org/2000/svg" xmlns:xlink="http://www.w3.org/1999/xlink"><polygon fill="#3F5EAB" points="351.703,499.986 256,445.672 160.297,499.986 160.297,244.439 351.703,244.439 "/><linearGradient gradientUnits="userSpaceOnUse" id="SVGID_1_" x1="126.2759" x2="385.725" y1="325.1963" y2="65.7471"><stop offset="0" style="stop-color:#00FFFF"/><stop offset="1" style="stop-color:#FF7BAC"/></linearGradient><path d="M417.854,156.822l-14.332-4.204c-3.171-10.934-7.524-21.365-12.913-31.146l7.169-13.119  c6.276-11.488,1.231-29.32-12.054-42.605l0,0c-13.285-13.286-31.117-18.331-42.605-12.054L330,60.862  c-9.781-5.389-20.212-9.742-31.146-12.913l-4.204-14.332C290.965,21.055,274.788,12.013,256,12.013  c-18.789,0-34.965,9.042-38.65,21.604l-4.204,14.332C202.212,51.12,191.781,55.473,182,60.862l-13.119-7.168  c-11.488-6.277-29.32-1.232-42.605,12.054l0,0c-13.285,13.286-18.33,31.118-12.053,42.605l7.168,13.119  c-5.389,9.781-9.742,20.212-12.913,31.146l-14.332,4.204c-12.562,3.685-21.604,19.861-21.604,38.65l0,0  c0,18.788,9.042,34.965,21.604,38.649l14.332,4.204c3.171,10.935,7.524,21.364,12.913,31.146l-7.168,13.119  c-6.277,11.488-1.232,29.32,12.053,42.605v0.001c13.286,13.285,31.118,18.33,42.605,12.054L182,330.081  c9.781,5.389,20.212,9.741,31.146,12.913l4.204,14.332c3.685,12.562,19.861,21.604,38.65,21.604  c18.788,0,34.965-9.042,38.649-21.604l4.204-14.332c10.935-3.172,21.365-7.524,31.146-12.913l13.119,7.169  c11.488,6.276,29.32,1.231,42.605-12.054v-0.001c13.285-13.285,18.33-31.117,12.054-42.605l-7.169-13.119  c5.389-9.781,9.742-20.211,12.913-31.146l14.332-4.204c12.562-3.685,21.604-19.861,21.604-38.649l0,0  C439.458,176.683,430.416,160.506,417.854,156.822z" fill="url(#SVGID_1_)"/><linearGradient gradientUnits="userSpaceOnUse" id="SVGID_2_" x1="255.9995" x2="255.9995" y1="54.2896" y2="336.6538"><stop offset="0" style="stop-color:#FFFFFF"/><stop offset="0.3279" style="stop-color:#FCFCFC"/><stop offset="0.5302" style="stop-color:#F4F4F4"/><stop offset="0.6984" style="stop-color:#E5E5E5"/><stop offset="0.848" style="stop-color:#D1D1D1"/><stop offset="0.9839" style="stop-color:#B7B7B7"/><stop offset="1" style="stop-color:#B3B3B3"/></linearGradient><path d="M380.557,165.729l-11.029-3.235c-2.44-8.415-5.79-16.441-9.938-23.969l5.517-10.096  c4.831-8.84,0.948-22.563-9.275-32.787l0,0c-10.225-10.224-23.947-14.106-32.788-9.276l-10.096,5.517  c-7.527-4.147-15.554-7.497-23.969-9.937l-3.235-11.029C282.907,61.248,270.459,54.29,256,54.29s-26.908,6.958-29.743,16.625  l-3.235,11.029c-8.415,2.44-16.441,5.79-23.969,9.937l-10.096-5.517c-8.841-4.83-22.564-0.948-32.788,9.276l0,0  c-10.224,10.224-14.106,23.947-9.276,32.787l5.516,10.096c-4.146,7.527-7.497,15.554-9.937,23.969l-11.029,3.235  c-9.667,2.835-16.625,15.284-16.625,29.743l0,0c0,14.459,6.958,26.908,16.625,29.743l11.029,3.235  c2.44,8.415,5.791,16.441,9.937,23.969l-5.516,10.096c-4.831,8.841-0.948,22.563,9.276,32.788l0,0  c10.224,10.224,23.947,14.105,32.788,9.275l10.096-5.517c7.527,4.147,15.554,7.497,23.969,9.937l3.235,11.03  c2.835,9.667,15.284,16.625,29.743,16.625s26.907-6.958,29.743-16.625l3.235-11.03c8.415-2.439,16.441-5.789,23.969-9.937  l10.096,5.517c8.841,4.83,22.563,0.948,32.788-9.275l0,0c10.224-10.225,14.106-23.947,9.275-32.788l-5.517-10.096  c4.147-7.527,7.497-15.554,9.938-23.969l11.029-3.235c9.667-2.835,16.625-15.284,16.625-29.743l0,0  C397.182,181.013,390.224,168.564,380.557,165.729z" fill="url(#SVGID_2_)"/><linearGradient gradientUnits="userSpaceOnUse" id="SVGID_3_" x1="188.3281" x2="323.6723" y1="263.1436" y2="127.7994"><stop offset="0" style="stop-color:#00FFFF"/><stop offset="1" style="stop-color:#FF7BAC"/></linearGradient><circle cx="256" cy="195.472" fill="url(#SVGID_3_)" r="95.703"/></svg>