<?xml version="1.0" encoding="utf-8"?>
<!-- Generator: Adobe Illustrator 19.2.1, SVG Export Plug-In . SVG Version: 6.00 Build 0)  -->
<svg version="1.1" id="Vrstva_1" xmlns="http://www.w3.org/2000/svg" xmlns:xlink="http://www.w3.org/1999/xlink" x="0px" y="0px"
	 viewBox="0 0 17 17" style="enable-background:new 0 0 17 17;" xml:space="preserve">
<style type="text/css">
	.st0{fill:#333333;}
</style>
<path class="st0" d="M12.1,0.8c1.9,0.9,3.2,2.3,4.1,4.2l-1,0.5c-0.7-1.4-2.1-2.8-3.6-3.6">
<animate  accumulate="none" additive="replace" attributeName="fill" begin="0s" calcMode="linear" dur="1s" fill="remove" repeatCount="indefinite" restart="always" values="#333;#eee;#333;#333">
		</animate>
</path>
<path class="st0" d="M16.5,5.6c0.7,2.1,0.7,4,0,5.9l-1.1-0.4c0.6-1.5,0.6-3.6,0-5.1">
<animate  accumulate="none" additive="replace" attributeName="fill" begin="0.125s" calcMode="linear" dur="1s" fill="remove" repeatCount="indefinite" restart="always" values="#333;#eee;#333;#333">
		</animate>
</path>
<path class="st0" d="M16.2,12.1c-0.9,2-2.3,3.2-4.2,4.2l-0.6-1.1c1.4-0.7,2.8-2.1,3.6-3.6">
<animate  accumulate="none" additive="replace" attributeName="fill" begin="0.250s" calcMode="linear" dur="1s" fill="remove" repeatCount="indefinite" restart="always" values="#333;#eee;#333;#333">
		</animate>
</path>
<path class="st0" d="M11.5,16.5c-2.1,0.7-3.9,0.7-5.9,0L6,15.4c1.4,0.6,3.6,0.6,5.1,0">
<animate  accumulate="none" additive="replace" attributeName="fill" begin="0.375s" calcMode="linear" dur="1s" fill="remove" repeatCount="indefinite" restart="always" values="#333;#eee;#333;#333">
		</animate>
</path>
<path class="st0" d="M5,16.4c-1.9-0.9-3.2-2.3-4.1-4.2l1-0.6c0.7,1.4,2.1,2.8,3.6,3.6">
<animate  accumulate="none" additive="replace" attributeName="fill" begin="0.500s" calcMode="linear" dur="1s" fill="remove" repeatCount="indefinite" restart="always" values="#333;#eee;#333;#333">
		</animate>
</path>
<path class="st0" d="M0.5,11.5c-0.7-2-0.7-3.9,0-5.9l1.1,0.5c-0.6,1.5-0.6,3.6,0,5.1">
<animate  accumulate="none" additive="replace" attributeName="fill" begin="0.625s" calcMode="linear" dur="1s" fill="remove" repeatCount="indefinite" restart="always" values="#333;#eee;#333;#333">
		</animate>
</path>
<path class="st0" d="M0.9,5c0.9-2,2.2-3.3,4.1-4.2l0.5,1C4.1,2.6,2.7,4.1,1.9,5.4">
<animate  accumulate="none" additive="replace" attributeName="fill" begin="0.750s" calcMode="linear" dur="1s" fill="remove" repeatCount="indefinite" restart="always" values="#333;#eee;#333;#333">
		</animate>
</path>
<path class="st0" d="M5.6,0.5c2.1-0.7,3.9-0.7,5.9,0l-0.4,1.1C9.7,1.1,7.5,1.1,6,1.6">
<animate  accumulate="none" additive="replace" attributeName="fill" begin="0.875s" calcMode="linear" dur="1s" fill="remove" repeatCount="indefinite" restart="always" values="#333;#eee;#333;#333">
		</animate>
</path>
<path class="st0" d="M5.5,12.2c-1.7,0-2.8-0.6-3.2-1.5C2,9.9,2.3,8.8,3.2,7.8s2.3-2,3.9-2.6c1.3-0.6,2.8-0.9,4.1-0.9
	c1.7,0,2.8,0.6,3.2,1.5c0.3,0.9,0,1.9-0.9,2.9c-0.9,1-2.3,2-3.9,2.6C8.2,12,6.7,12.2,5.5,12.2L5.5,12.2z M11.2,4.8
	C10,4.8,8.6,5,7.3,5.6C5.8,6.2,4.5,7.1,3.6,8.1s-1.1,1.8-0.9,2.5c0.3,0.8,1.3,1.2,2.8,1.2c1.2,0,2.6-0.3,3.9-0.9
	c1.5-0.6,2.8-1.5,3.7-2.5S14.3,6.7,14,6C13.7,5.1,12.6,4.8,11.2,4.8L11.2,4.8z M5.8,12.2c-1.6,0-2.7-0.6-3-1.4s0-1.9,0.9-2.8
	c0.9-1,2.2-1.9,3.7-2.6c1.3-0.6,2.7-0.9,4-0.9c1.6,0,2.7,0.6,3,1.4c0.7,1.7-1.3,4.1-4.6,5.4C8.4,12,6.9,12.2,5.8,12.2L5.8,12.2z
	 M11.3,5c-1.1,0-2.5,0.3-3.7,0.9C6.1,6.6,4.9,7.3,4,8.3C3.2,9.1,3,10,3.1,10.6c0.3,0.7,1.2,1.1,2.6,1.1c1.1,0,2.5-0.3,3.7-0.9
	c2.8-1.2,4.9-3.3,4.4-4.7C13.6,5.4,12.6,5,11.3,5z M11.8,13.9c-1.5,0-3.7-1.2-5.5-3.1C5,9.5,4.2,8.1,3.7,6.7S3.3,4.3,3.9,3.5
	c0.4-0.3,0.9-0.5,1.5-0.5c1.5,0,3.7,1.2,5.5,3.1c1.2,1.3,2.1,2.7,2.6,4.1c0.5,1.3,0.4,2.5-0.2,3.1C12.8,13.8,12.3,13.9,11.8,13.9
	L11.8,13.9z M5.4,3.5c-0.5,0-0.9,0.2-1.1,0.4C3.7,4.4,3.7,5.4,4.1,6.6c0.5,1.3,1.3,2.7,2.5,3.9c1.7,1.8,3.7,3,5.1,3
	c0.5,0,0.9-0.2,1.1-0.4c0.6-0.6,0.6-1.4,0.2-2.7c-0.5-1.3-1.3-2.7-2.5-3.9C8.8,4.7,6.8,3.5,5.4,3.5L5.4,3.5z M11.5,13.9
	c-1.4,0-3.6-1.2-5.3-3C5,9.7,4.1,8.3,3.7,7C3.2,5.7,3.3,4.6,3.9,3.9c0.3-0.3,0.8-0.6,1.3-0.6c1.5,0,3.6,1.2,5.3,3
	c2.5,2.7,3.5,5.7,2.3,7C12.5,13.8,12.1,13.9,11.5,13.9z M5.3,3.9c-0.5,0-0.8,0.2-0.9,0.4C3.9,4.8,3.8,5.7,4.2,6.8
	c0.4,1.2,1.3,2.5,2.4,3.7c1.7,1.7,3.6,2.8,4.9,2.8c0.5,0,0.8-0.2,0.9-0.4c0.9-0.9-0.1-3.9-2.3-6.3C8.5,5,6.7,3.9,5.3,3.9L5.3,3.9z
	 M9.1,8.5c0,0.4-0.3,0.8-0.7,0.8c-0.4,0-0.7-0.3-0.7-0.8c0-0.4,0.3-0.8,0.7-0.8C8.8,7.7,9.1,8,9.1,8.5z M6.7,14.5
	c-0.3,0-0.6-0.1-0.9-0.2c-0.9-0.4-1.3-1.4-1.4-2.8c-0.1-1.3,0.2-3,0.9-4.6C6.7,4,8.6,2.1,10.3,2.1c0.3,0,0.6,0.1,0.9,0.2
	c0.9,0.4,1.3,1.3,1.4,2.8c0.1,1.3-0.2,3-0.9,4.6C10.3,12.6,8.5,14.5,6.7,14.5L6.7,14.5z M10.3,2.6C8.8,2.6,6.9,4.5,5.8,7
	c-0.7,1.5-0.9,3.1-0.9,4.4c0.1,1.3,0.5,2.1,1.2,2.5C6.3,13.9,6.5,14,6.7,14c1.5,0,3.4-1.9,4.5-4.5c0.7-1.5,0.9-3.1,0.9-4.4
	c-0.1-1.3-0.6-2.2-1.2-2.5C10.7,2.7,10.5,2.6,10.3,2.6L10.3,2.6z M6.6,14.3c-0.3,0-0.6-0.1-0.8-0.2c-0.9-0.4-1.3-1.3-1.3-2.8
	C4.4,10,4.8,8.4,5.4,6.8C6.7,4,8.6,2.1,10.2,2.1c0.3,0,0.6,0.1,0.8,0.2c0.9,0.4,1.3,1.3,1.3,2.8c0.1,1.3-0.3,2.9-0.9,4.5
	C10.1,12.3,8.1,14.3,6.6,14.3z M10.2,2.8c-1.3,0-3.2,1.8-4.4,4.4c-0.7,1.5-0.9,3-0.9,4.3s0.4,2.1,1,2.3c0.2,0.1,0.4,0.2,0.6,0.2
	c1.3,0,3.2-1.8,4.4-4.4c0.7-1.5,0.9-3,0.9-4.3c-0.1-1.2-0.4-2.1-1-2.4C10.5,2.8,10.3,2.8,10.2,2.8L10.2,2.8z"/>
</svg>
