<svg version="1.1" xmlns="http://www.w3.org/2000/svg" xmlns:xlink="http://www.w3.org/1999/xlink" x="0px" y="0px" viewBox="0 0 500 500" style="enable-background:new 0 0 500 500;" xml:space="preserve"><path fill="#333333" d="M355,22.9c56.6,28.5,95.4,66.1,120.8,122.9l-31.3,15.1C424.5,119.7,381.5,76.6,340,56"><animate  accumulate="none" additive="replace" attributeName="fill" begin="0s" calcMode="linear" dur="1s" fill="remove" repeatCount="indefinite" restart="always" values="#333;#eee;#333;#333"></animate></path><path fill="#333333" d="M484.8,163.9c20,60.2,21,114.5-1,172.7L451,325.2c15-43.5,15-104.4,0-148.6"><animate  accumulate="none" additive="replace" attributeName="fill" begin="0.125s" calcMode="linear" dur="1s" fill="remove" repeatCount="indefinite" restart="always" values="#333;#eee;#333;#333"></animate></path><path fill="#333333" d="M476.2,354.9c-28.3,56.8-65.7,95.9-122.2,121.5l-15.2-31.5c41.2-20.1,84.1-63.3,104.5-105"><animate  accumulate="none" additive="replace" attributeName="fill" begin="0.250s" calcMode="linear" dur="1s" fill="remove" repeatCount="indefinite" restart="always" values="#333;#eee;#333;#333"></animate></path><path fill="#333333" d="M335.5,484.7c-59.9,20.1-113.8,21.1-171.7-1l11.4-33.1c43.1,15.1,103.8,15.1,147.8,0"><animate  accumulate="none" additive="replace" attributeName="fill" begin="0.375s" calcMode="linear" dur="1s" fill="remove" repeatCount="indefinite" restart="always" values="#333;#eee;#333;#333"></animate></path><path fill="#333333" d="M145.6,479c-56.5-28.5-95.3-66.1-120.8-122.9l31.3-15.3c20,41.5,62.9,84.5,104.4,105.1"><animate  accumulate="none" additive="replace" attributeName="fill" begin="0.500s" calcMode="linear" dur="1s" fill="remove" repeatCount="indefinite" restart="always" values="#333;#eee;#333;#333"></animate></path><path fill="#333333" d="M15.2,338.3c-20-60.2-21-114.5,1-172.7l32.9,11.4c-15,43.7-15,104.4,0,148.6"><animate  accumulate="none" additive="replace" attributeName="fill" begin="0.625s" calcMode="linear" dur="1s" fill="remove" repeatCount="indefinite" restart="always" values="#333;#eee;#333;#333"></animate></path><path fill="#333333" d="M23.3,145.8c28.2-57,65.6-96.1,122-121.5l15.3,31.4c-41.1,20.1-83.9,63.3-104.4,105"><animate  accumulate="none" additive="replace" attributeName="fill" begin="0.750s" calcMode="linear" dur="1s" fill="remove" repeatCount="indefinite" restart="always" values="#333;#eee;#333;#333"></animate></path><path fill="#333333" d="M164.3,15.3c59.9-20.1,113.8-21.1,171.7,1l-11.5,32.9c-43.2-15.1-103.8-15.1-147.8,0"><animate  accumulate="none" additive="replace" attributeName="fill" begin="0.875s" calcMode="linear" dur="1s" fill="remove" repeatCount="indefinite" restart="always" values="#333;#eee;#333;#333"></animate></path><path fill="#333333" d="M161.4,360.3c-47.9,0-81.6-15.9-92.4-43.8c-9.7-25.1,0.1-56.1,27.7-87.4c26.6-30.1,66.7-57.3,113.1-76.5 c40.5-16.8,82.7-26.1,118.9-26.1c48,0,81.7,15.9,92.5,43.8c9.7,25.1-0.1,56.1-27.7,87.4c-26.6,30.1-66.7,57.3-113.1,76.5 C239.8,351,197.5,360.3,161.4,360.3L161.4,360.3z M328.6,139c-34.7,0-75.3,8.9-114.4,25.2c-44.7,18.6-83.3,44.6-108.6,73.4 c-24.3,27.6-33.3,53.9-25.4,74.3c8.9,22.8,38.5,35.9,81.2,35.9c34.7,0,75.3-8.9,114.4-25.2C320.5,304,359,278,384.4,249.2 c24.3-27.5,33.3-53.9,25.4-74.3C401,152.1,371.3,139,328.6,139L328.6,139z M169,359.4c-46.3,0-78.9-15.5-89.4-42.5 c-9.5-24.5,0.1-54.7,27.1-85.1c25.7-28.9,64.4-55.1,109.1-73.6c39.2-16.3,80.1-25.3,115.2-25.3c46.3,0,78.9,15.5,89.4,42.5 c19.1,49.3-40.7,119.1-136.2,158.7C244.9,350.4,204,359.4,169,359.4L169,359.4z M331,148.1c-33.2,0-72.1,8.6-109.7,24.2 c-42.7,17.7-79.5,42.5-103.7,69.8c-22.6,25.4-31.4,50.6-24.3,69.1c8.1,20.9,35.7,32.9,75.7,32.9c33.2,0,72.1-8.6,109.7-24.2 c84.9-35.3,143.5-98.8,128-138.9C398.5,160.1,370.9,148.1,331,148.1z M345.2,407.4c-45,0-108-35.9-160.4-91.6 c-35.6-37.7-62.5-80-75.7-119c-13.8-40.6-11.2-73.1,7.3-91.8c10.1-10.2,24.1-15.4,41.5-15.4c45,0,108,35.9,160.5,91.5 c35.6,37.8,62.5,80,75.7,119c13.8,40.6,11.2,73.1-7.2,91.7C376.6,402.2,362.6,407.4,345.2,407.4L345.2,407.4z M157.8,102.3 c-14.2,0-25.3,4-33.1,11.8c-14.9,15-16.4,42.9-4.3,78.7c12.7,37.3,38.6,77.9,73,114.4c50.3,53.3,109.8,87.8,151.8,87.8 c14.2,0,25.3-4,33.1-11.8c14.9-15,16.4-42.9,4.3-78.6c-12.7-37.3-38.6-77.9-73-114.4C259.3,136.7,199.7,102.3,157.8,102.3 L157.8,102.3z M336.8,408.3c-43.3,0-104.2-34.8-154.9-88.6c-34.3-36.3-60.2-77-73.1-114.4c-13.6-39.4-11.1-71,6.8-89.2 c9.8-9.9,23.3-14.9,40.2-14.9c43.4,0,104.2,34.8,154.9,88.6C383.9,267.6,413.1,357,377,393.4C367.1,403.3,353.6,408.3,336.8,408.3z  M155.7,116.5c-12.8,0-22.9,3.6-29.9,10.6c-13.4,13.5-14.6,40.2-3.2,73.1c12.2,35.4,37,74.1,69.8,108.9c48.1,51,104.8,84,144.4,84 c12.8,0,22.9-3.6,29.9-10.6c29.2-29.4-1.3-112.7-66.6-181.9C252,149.4,195.3,116.4,155.7,116.5L155.7,116.5z M267,245.7 c0,12.1-9.4,21.8-21.1,21.8s-21.1-9.8-21.1-21.8c0-12.1,9.4-21.8,21.1-21.8C257.6,223.9,267,233.7,267,245.7z M197.4,425 c-8.5,0-16.5-1.7-23.9-5.2c-24.9-11.6-39.9-41.1-42.2-83.2c-2.2-40.6,7.7-88.4,27.9-134.6c35.5-81.5,94.4-138.5,143.3-138.5 c8.5,0,16.5,1.7,23.9,5.2c24.9,11.6,39.9,41.1,42.1,83.2c2.2,40.5-7.7,88.4-27.9,134.6C305.2,368,246.3,425,197.4,425L197.4,425z  M302.5,76c-43.6,0-99.2,55.1-132.3,131.1c-19.4,44.5-28.9,90.2-26.8,128.8c2,37.1,14.4,62.9,35,72.5c5.8,2.7,12.1,4.1,18.9,4.1 c43.6,0,99.2-55.1,132.3-131.1c19.4-44.5,28.9-90.2,26.8-128.8c-2-37.1-14.4-62.9-35-72.4C315.7,77.4,309.3,76,302.5,76L302.5,76z  M190.4,419.7c-7.8,0-15.2-1.6-22-4.8c-23.9-11.1-37.8-40.1-39.2-81.5c-1.3-39.5,8.8-86.3,28.7-131.8c35.4-81.3,92.7-138,139.4-138 c7.8,0,15.2,1.6,22,4.8c23.9,11.1,37.8,40,39.2,81.5c1.3,39.5-8.8,86.3-28.6,131.8C294.5,362.9,237.1,419.7,190.4,419.7z  M297.4,78.9c-40.4,0-93.4,54.3-125.9,129c-18.9,43.4-28.6,87.8-27.4,125c1.2,35.3,12,59.5,30.5,68.1c4.9,2.3,10.2,3.4,15.9,3.4 c40.4,0,93.4-54.3,125.9-129c18.9-43.4,28.6-87.8,27.4-125c-1.2-35.3-12-59.5-30.5-68.1C308.4,80,303.1,78.9,297.4,78.9L297.4,78.9z"/></svg>