<svg xmlns="http://www.w3.org/2000/svg" viewBox="0 0 512 512"><path d="M439.046 72.952c62.147 62.16 62.147 163.306 0 225.453-62.16 62.16-163.306 62.16-225.453 0-62.16-62.147-62.16-163.293 0-225.453 31.08-31.08 71.897-46.614 112.726-46.614 40.817.001 81.646 15.547 112.727 46.614zm15.94 112.727c0-34.36-13.386-66.68-37.694-90.974C393 70.396 360.68 57 326.32 57c-34.374 0-66.68 13.386-90.987 37.694-24.295 24.295-37.68 56.614-37.68 90.974 0 34.374 13.386 66.68 37.68 90.987 24.308 24.295 56.614 37.68 90.987 37.68 34.36 0 66.68-13.386 90.974-37.68 24.31-24.307 37.694-56.612 37.694-90.986z" fill="#31ccc9"/><path d="M398.664 113.334c19.328 19.328 29.973 45.02 29.973 72.345 0 27.338-10.645 53.03-29.973 72.358s-45.02 29.96-72.345 29.96c-27.338 0-53.03-10.632-72.358-29.96S224 213.018 224 185.68c0-27.325 10.632-53.017 29.96-72.345S298.98 83.36 326.32 83.36c27.325 0 53.017 10.645 72.345 29.973zm-23.294 41.923c5.15-5.15 5.15-13.49 0-18.63-13.083-13.096-30.5-20.303-49.05-20.303s-35.98 7.207-49.064 20.303c-5.138 5.138-5.138 13.478 0 18.63a13.14 13.14 0 0 0 18.63 0c8.116-8.116 18.92-12.582 30.435-12.582 11.502 0 22.32 4.466 30.42 12.582 5.15 5.14 13.49 5.14 18.63 0z" fill="#e4f5f4"/><path d="M177.07 380.012l-18.735 18.748-45.098-45.098 18.748-18.735z" fill="#ffdb6f"/><path d="M457.675 54.323c-72.437-72.437-190.288-72.424-262.725 0-69.288 69.3-72.28 180.17-8.972 253.068l-22.134 22.134L141.3 306.97a13.19 13.19 0 0 0-18.63 0L17.033 412.607c-22.7 22.7-22.7 59.657 0 82.358C28.4 506.322 43.304 512 58.205 512c14.914 0 29.828-5.678 41.185-17.035l105.638-105.638c5.138-5.138 5.138-13.478 0-18.63l-22.556-22.543 22.134-22.134c34.796 30.224 78.247 45.35 121.712 45.35 47.562 0 95.138-18.116 131.356-54.32 72.425-72.437 72.425-190.288.001-262.725zM158.336 398.76l-45.098-45.098 18.748-18.735 45.085 45.085-18.735 18.748zM35.663 476.335c-12.437-12.437-12.437-32.66 0-45.098L94.6 372.3l45.098 45.098-58.946 58.946c-12.437 12.424-32.66 12.438-45.098 0zm177.93-177.93c-62.16-62.147-62.16-163.293 0-225.453 31.08-31.08 71.897-46.614 112.726-46.614 40.817 0 81.646 15.547 112.726 46.614 62.147 62.16 62.147 163.306 0 225.453-62.16 62.16-163.305 62.16-225.452 0zm203.7-203.7C392.998 70.396 360.68 57 326.32 57c-34.374 0-66.68 13.386-90.987 37.694-24.295 24.295-37.68 56.614-37.68 90.974 0 34.374 13.386 66.68 37.68 90.987 24.308 24.295 56.614 37.68 90.987 37.68 34.36 0 66.68-13.386 90.974-37.68 24.308-24.308 37.694-56.614 37.694-90.987 0-34.36-13.385-66.68-37.694-90.974zM326.32 287.997c-27.338 0-53.03-10.632-72.358-29.96S224 213.018 224 185.68c0-27.325 10.632-53.017 29.96-72.345s45.02-29.975 72.36-29.975c27.325 0 53.017 10.646 72.345 29.973s29.973 45.02 29.973 72.345c0 27.338-10.645 53.03-29.973 72.358s-45.02 29.96-72.345 29.96zm0-171.672c-18.55 0-35.98 7.207-49.064 20.303-5.138 5.138-5.138 13.478 0 18.63a13.14 13.14 0 0 0 18.63 0c8.116-8.116 18.92-12.582 30.435-12.582 11.502 0 22.32 4.466 30.42 12.582a13.19 13.19 0 0 0 18.63 0c5.15-5.15 5.15-13.5 0-18.63-13.084-13.096-30.5-20.303-49.052-20.303z" fill="#201f2e"/><path d="M139.707 417.4L80.76 476.336c-12.437 12.424-32.66 12.437-45.098 0s-12.437-32.66 0-45.098l58.946-58.946 45.098 45.098z" fill="#31ccc9"/></svg>