<?xml version="1.0" encoding="iso-8859-1"?>
<!-- Generator: Adobe Illustrator 19.0.0, SVG Export Plug-In . SVG Version: 6.00 Build 0)  -->
<svg version="1.1" id="Layer_1" xmlns="http://www.w3.org/2000/svg" xmlns:xlink="http://www.w3.org/1999/xlink" x="0px" y="0px"
	 viewBox="0 0 512 512" style="enable-background:new 0 0 512 512;" xml:space="preserve">
<path style="fill:#31CCC9;" d="M439.046,72.952c62.147,62.16,62.147,163.306,0,225.453c-62.16,62.16-163.306,62.16-225.453,0
	c-62.16-62.147-62.16-163.293,0-225.453c31.08-31.08,71.897-46.614,112.726-46.614C367.136,26.339,407.965,41.885,439.046,72.952z
	 M454.987,185.679c0-34.361-13.386-66.679-37.694-90.974C392.999,70.396,360.68,57.01,326.319,57.01
	c-34.374,0-66.679,13.386-90.987,37.694c-24.295,24.295-37.681,56.614-37.681,90.974c0,34.374,13.386,66.679,37.681,90.987
	c24.308,24.295,56.614,37.681,90.987,37.681c34.361,0,66.679-13.386,90.974-37.681C441.602,252.358,454.987,220.053,454.987,185.679
	z"/>
<path style="fill:#E4F5F4;" d="M398.664,113.334c19.328,19.328,29.973,45.019,29.973,72.345c0,27.338-10.645,53.03-29.973,72.358
	c-19.328,19.328-45.019,29.96-72.345,29.96c-27.338,0-53.03-10.632-72.358-29.96s-29.96-45.019-29.96-72.358
	c0-27.325,10.632-53.017,29.96-72.345s45.019-29.973,72.358-29.973C353.644,83.361,379.336,94.006,398.664,113.334z M375.37,155.257
	c5.151-5.151,5.151-13.491,0-18.63c-13.083-13.096-30.5-20.303-49.051-20.303c-18.551,0-35.981,7.207-49.064,20.303
	c-5.138,5.138-5.138,13.478,0,18.63c2.569,2.569,5.942,3.86,9.315,3.86c3.373,0,6.746-1.291,9.315-3.86
	c8.116-8.116,18.919-12.582,30.435-12.582c11.502,0,22.319,4.466,30.421,12.582C361.892,160.396,370.232,160.396,375.37,155.257z"/>
<polygon style="fill:#FFDB6F;" points="177.071,380.012 158.336,398.76 113.238,353.662 131.986,334.927 "/>
<g>
	<path style="fill:#201F2E;" d="M457.675,54.323c-72.437-72.437-190.288-72.424-262.725,0
		c-69.288,69.301-72.279,180.17-8.972,253.068l-22.134,22.134l-22.543-22.556c-5.151-5.138-13.491-5.138-18.63,0L17.033,412.607
		c-22.701,22.701-22.701,59.657,0,82.358C28.39,506.322,43.304,512,58.205,512c14.914,0,29.828-5.678,41.185-17.035l105.638-105.638
		c5.138-5.138,5.138-13.478,0-18.63l-22.556-22.543l22.134-22.134c34.796,30.224,78.247,45.349,121.712,45.349
		c47.562,0,95.138-18.116,131.356-54.321C530.099,244.611,530.099,126.76,457.675,54.323z M158.336,398.76l-45.098-45.098
		l18.748-18.735l45.085,45.085L158.336,398.76z M35.663,476.335c-12.437-12.437-12.437-32.661,0-45.098l58.946-58.946l45.098,45.098
		l-58.946,58.946C68.324,488.759,48.1,488.773,35.663,476.335z M213.593,298.405c-62.16-62.147-62.16-163.293,0-225.453
		c31.08-31.08,71.897-46.614,112.726-46.614c40.817,0,81.646,15.547,112.726,46.614c62.147,62.16,62.147,163.306,0,225.453
		C376.885,360.565,275.74,360.565,213.593,298.405z"/>
	<path style="fill:#201F2E;" d="M417.293,94.704C392.998,70.396,360.68,57.01,326.319,57.01c-34.374,0-66.679,13.386-90.987,37.694
		c-24.295,24.295-37.681,56.614-37.681,90.974c0,34.374,13.386,66.679,37.681,90.987c24.308,24.295,56.614,37.681,90.987,37.681
		c34.361,0,66.679-13.386,90.974-37.681c24.308-24.308,37.694-56.614,37.694-90.987C454.987,151.318,441.602,118.999,417.293,94.704
		z M326.319,287.997c-27.338,0-53.03-10.632-72.358-29.96s-29.96-45.019-29.96-72.358c0-27.325,10.632-53.017,29.96-72.345
		s45.019-29.973,72.358-29.973c27.325,0,53.017,10.646,72.345,29.973s29.973,45.019,29.973,72.345
		c0,27.338-10.645,53.03-29.973,72.358C379.336,277.364,353.644,287.997,326.319,287.997z"/>
	<path style="fill:#201F2E;" d="M326.319,116.325c-18.551,0-35.981,7.207-49.064,20.303c-5.138,5.138-5.138,13.478,0,18.63
		c2.569,2.569,5.942,3.86,9.315,3.86c3.373,0,6.746-1.291,9.315-3.86c8.116-8.116,18.919-12.582,30.435-12.582
		c11.502,0,22.319,4.466,30.421,12.582c5.151,5.138,13.491,5.138,18.63,0c5.151-5.151,5.151-13.491,0-18.63
		C362.287,123.532,344.87,116.325,326.319,116.325z"/>
</g>
<path style="fill:#31CCC9;" d="M139.707,417.39l-58.946,58.946c-12.437,12.424-32.661,12.437-45.098,0s-12.437-32.661,0-45.098
	l58.946-58.946L139.707,417.39z"/>
<g>
</g>
<g>
</g>
<g>
</g>
<g>
</g>
<g>
</g>
<g>
</g>
<g>
</g>
<g>
</g>
<g>
</g>
<g>
</g>
<g>
</g>
<g>
</g>
<g>
</g>
<g>
</g>
<g>
</g>
</svg>
