<?xml version="1.0" encoding="utf-8"?>
<!-- Generator: Adobe Illustrator 22.1.0, SVG Export Plug-In . SVG Version: 6.00 Build 0)  -->
<svg version="1.1" id="php-fusion-icon" xmlns="http://www.w3.org/2000/svg" xmlns:xlink="http://www.w3.org/1999/xlink" x="0px"
	 y="0px" viewBox="0 0 500 500" style="enable-background:new 0 0 500 500;" xml:space="preserve">
<style type="text/css">
	.st0{fill:#04688D;}
	.st1{fill:#F6A504;}
	.st2{fill:#585858;}
</style>
<path class="st0" d="M389.5,475.8c-62.7,0-150.3-49.5-222.9-126.7C117,297,79.5,238.5,61.3,184.6c-19.6-56.2-16.1-101,9.7-127
	c14.1-14,33.4-21.3,57.7-21.3c62.7,0,150.3,49.5,223.2,126.4c49.5,52.1,87,110.6,105.2,164.6c19.3,56.3,15.5,101.1-10,126.7
	C433.1,468.6,413.5,475.8,389.5,475.8L389.5,475.8z M128.7,53.9c-19.6,0-35.2,5.6-46,16.3c-20.8,20.7-22.9,59.4-5.9,108.9
	c17.6,51.6,53.6,107.7,101.7,158.1c70,73.6,152.6,121.4,211.2,121.4c19.6,0,35.2-5.6,46-16.3c20.8-20.7,22.9-59.4,5.9-108.6
	C424,282.1,388,226,339.9,175.6C269.9,101.7,187,53.9,128.7,53.9L128.7,53.9z M377.7,477c-60.4,0-145-48-215.3-122.6
	c-47.8-50.1-83.8-106.5-101.7-158.1c-19-54.5-15.5-98.1,9.1-123.1c13.8-13.7,32.5-20.7,56-20.7c60.4,0,145,48,215.3,122.6
	c102,107.4,142.4,231.3,92.3,281.6C419.6,470,400.9,477,377.7,477z M125.8,73.6c-17.9,0-31.9,5-41.6,14.6
	c-18.7,18.7-20.2,55.7-4.4,101.1c17,48.9,51.6,102.5,97,150.6c66.8,70.5,145.9,116.2,201,116.2c17.9,0,31.9-5,41.6-14.6
	c40.7-40.7-1.8-155.8-92.6-251.6C259.7,119.1,180.9,73.3,125.8,73.6L125.8,73.6z"/>
<path class="st1" d="M133.7,410.6c-66.5,0-113.4-21.9-128.6-60.5c-13.5-34.7,0-77.4,38.7-120.9c36.9-41.6,92.9-79.2,157.3-105.7
	c56.2-23.3,115.1-36.1,165.2-36.1c66.8,0,113.7,21.9,128.6,60.5c13.5,34.7,0,77.4-38.7,120.9c-36.9,41.6-92.9,79.2-157.3,105.7
	C242.7,397.8,183.8,410.6,133.7,410.6L133.7,410.6z M366.3,104.9c-48.3,0-104.6,12.2-159.1,35c-62.1,25.6-115.7,61.7-151.2,101.4
	c-33.7,38.1-46.3,74.4-35.4,102.7c12.3,31.4,53.6,49.5,112.8,49.5c48.3,0,104.6-12.2,159.1-35c62.1-25.6,115.7-61.7,151.2-101.4
	c33.7-38.2,46.3-74.5,35.4-102.8C466.8,122.9,425.5,104.9,366.3,104.9L366.3,104.9z M144.2,409.5c-64.5,0-109.9-21.6-124.2-58.8
	C6.8,316.9,20,275,57.8,233c35.7-39.9,89.6-76.3,151.8-101.7c54.5-22.5,111.3-35,160.3-35c64.5,0,109.9,21.6,124.2,58.8
	c26.7,68.2-56.5,164.6-189.5,219.2C249.7,396.9,192.9,409.5,144.2,409.5L144.2,409.5z M369.5,117.4c-46.3,0-100.2,11.9-152.6,33.5
	c-59.5,24.4-110.4,58.8-144.1,96.4c-31.3,35.2-43.7,69.8-33.7,95.5c11.1,28.8,49.5,45.4,105.2,45.4c46.3,0,100.2-11.9,152.6-33.5
	C414.9,305.8,496.4,218.1,475,162.8C463.6,134,425.2,117.4,369.5,117.4z"/>
<path class="st2" d="M183.8,500c-11.7,0-22.9-2.3-33.1-7.3c-34.6-16-55.4-56.7-58.6-115c-2.9-56.3,10.8-122.3,38.7-186
	C180.3,78.9,262,0,330,0c11.7,0,22.9,2.3,33.1,7.3c34.6,16,55.4,56.7,58.6,115c2.9,56-10.8,122.3-38.7,186
	C333.8,421.4,251.8,500,183.8,500L183.8,500z M330,17.5c-60.6,0-138,76.3-184,181.2c-27,61.4-40.1,124.6-37.2,177.9
	c2.6,51.3,19.9,87.1,48.6,100.2c8.2,3.8,16.7,5.6,26.4,5.6c60.6,0,138-76.3,184-181.2c27-61.4,40.1-124.6,37.2-177.9
	C402.3,72,385.1,36.1,356.3,23C348.1,19.5,339.4,17.5,330,17.5L330,17.5z M174.1,492.7c-10.8,0-21.1-2.3-30.5-6.7
	c-33.1-15.4-52.4-55.4-54.5-112.7c-1.8-54.8,12.3-119.4,39.8-182.3C178.2,78.6,257.9,0.3,322.9,0.3c10.8,0,21.1,2.3,30.5,6.7
	c33.1,15.4,52.4,55.4,54.5,112.7c1.8,54.8-12.3,119.4-39.8,182.3C318.8,414.1,238.9,492.7,174.1,492.7z M322.9,21.6
	c-56.2,0-129.8,75.1-175.2,178.2c-26.4,60-39.8,121.4-38.1,172.7c1.8,48.9,16.7,82.1,42.5,94c6.7,3.2,14.1,4.7,22,4.7
	c56.2,0,129.8-75.1,175.2-178.2c26.4-60,39.8-121.4,38.1-172.7c-1.8-48.9-16.7-82.1-42.5-94C338.2,23,330.9,21.6,322.9,21.6
	L322.9,21.6z"/>
<ellipse cx="251.2" cy="252.1" rx="29.3" ry="30"/>
</svg>
