<svg xmlns="http://www.w3.org/2000/svg" viewBox="0 0 342.2 87.4"><linearGradient id="A" gradientUnits="userSpaceOnUse" x1="113.257" y1="43.274" x2="182.235" y2="43.274"><stop offset=".202" stop-color="#0b3c56"/><stop offset=".315" stop-color="#075980"/><stop offset=".867" stop-color="#0079b1"/><stop offset=".985" stop-color="#0b4c6d"/></linearGradient><path fill="url(#A)" d="M160.1 29.7C142.4 14.1 122.4 7.5 115.6 15s2 26.2 19.8 41.9c17.8 15.6 37.7 22.2 44.6 14.7s-2.1-26.3-19.9-41.9zm14.5 38.2c-5.7 6.4-23 .7-38.7-12.7-15.6-13.4-23.6-29.5-17.9-36 5.7-6.4 23-.7 38.7 12.7 15.6 13.4 23.6 29.5 17.9 36z"/><linearGradient id="B" gradientUnits="userSpaceOnUse" x1="109.428" y1="-24.688" x2="186.247" y2="108.366"><stop offset="0" stop-color="#00b4d8"/><stop offset=".089" stop-color="#0192c1"/><stop offset=".473" stop-color="#015d8f"/><stop offset=".744" stop-color="#076f93"/><stop offset="1" stop-color="#1f406f"/></linearGradient><path fill="url(#B)" d="M160.8 27.4c-18.6-16.6-39.4-23.6-46.6-15.7-7.1 8 2.1 27.9 20.7 44.6 18.6 16.6 39.4 23.6 46.6 15.7 7.1-8-2.2-28-20.7-44.6zm15 40.6c-6 6.8-24.1.8-40.4-13.5s-24.7-31.4-18.7-38.3c6-6.8 24.1-.8 40.4 13.5C173.5 44 181.8 61.2 175.8 68z"/><linearGradient id="C" gradientUnits="userSpaceOnUse" x1="120.847" y1="-1.271" x2="172.476" y2="88.153"><stop offset=".32" stop-color="#b96d1f"/><stop offset=".527" stop-color="#f4ac1b"/><stop offset="1" stop-color="#905c1e"/></linearGradient><path fill="url(#C)" d="M187.1 24.3c-4.5-9.4-26.3-8.4-48.6 2.2s-36.8 26.8-32.3 36.2 26.3 8.4 48.6-2.2c22.3-10.7 36.8-26.8 32.3-36.2zm-33 34.6c-19 9-37.5 9.9-41.3 1.9s8.4-21.7 27.4-30.7 37.5-9.9 41.3-1.9c3.9 7.9-8.4 21.7-27.4 30.7z"/><linearGradient id="D" gradientUnits="userSpaceOnUse" x1="105.318" y1="41.838" x2="190.358" y2="41.838"><stop offset="0" stop-color="#f2a41d"/><stop offset=".33" stop-color="#f7be1b"/><stop offset=".631" stop-color="#f7be1b"/><stop offset=".833" stop-color="#fbd010"/></linearGradient><path fill="url(#D)" d="M189.6 23.6c-4.3-9.8-26.4-9.6-49.5.5S101.8 50.3 106 60c4.3 9.8 26.4 9.6 49.5-.5 23.1-10 38.4-26.1 34.1-35.9zm-34.7 34.3c-19.6 8.6-38.5 8.8-42.1.5s9.4-21.9 29-30.5 38.5-8.8 42.1-.5-9.4 22-29 30.5z"/><radialGradient id="E" cx="144.599" cy="45.81" r="4.687" gradientTransform="matrix(1 0 0 -1 0 90)" gradientUnits="userSpaceOnUse"><stop offset=".315" stop-color="#4c4c4c"/><stop offset=".892" stop-color="#181918"/></radialGradient><ellipse fill="url(#E)" cx="144.6" cy="44.2" rx="4.9" ry="4.5"/><ellipse transform="matrix(.7643 -.6448 .6448 .7643 7.2102 103.8115)" fill="#fff" cx="145.6" cy="42" rx=".9" ry="1.5"/><linearGradient id="F" gradientUnits="userSpaceOnUse" x1="127.029" y1="7.967" x2="168.645" y2="80.047"><stop offset=".704" stop-color="#181918"/><stop offset="1" stop-color="#5a5b5b"/></linearGradient><path fill="url(#F)" d="M164.7 52.5c-10.2 20-26.9 32.1-37.1 27.1-10.2-5.1-10.3-25.4 0-45.4 10.2-20 26.9-32.1 37.1-27 10.3 5 10.3 25.3 0 45.3zM168 1.8c-12-5.5-30.7 8.9-41.8 32.2s-10.5 46.6 1.5 52.2c12 5.5 30.7-8.9 41.8-32.2S180 7.4 168 1.8z"/><linearGradient id="G" gradientUnits="userSpaceOnUse" x1="111.272" y1="104.139" x2="181.471" y2="-17.45"><stop offset="0" stop-color="#454645"/><stop offset=".291" stop-color="#5a5b5b"/><stop offset=".685" stop-color="#3a3a3a"/><stop offset=".975" stop-color="#717171"/></linearGradient><path fill="url(#G)" d="M166.2 1.2c-11.7-5.5-30.1 8.9-41.1 32.2-10.9 23.3-10.3 46.6 1.5 52.2 11.7 5.5 30.1-8.9 41.1-32.2 10.9-23.4 10.2-46.7-1.5-52.2zM163 51.9c-10.1 20-26.4 32.1-36.4 27-10.1-5.1-10.1-25.4 0-45.4S153 1.4 163 6.5c10 5 10 25.4 0 45.4z"/><path fill="#f2a30a" d="M128.3 30.2c-.1.1-.2.1-.3.2l-2.1 1.3c-.3.6-.6 1.1-.8 1.7l-2.7 6.2 2-1.6 2.1-1.5c.4-.7.7-1.5 1.1-2.2.9-1.9 2-3.6 3-5.3-.8.3-1.5.7-2.3 1.2z"/><linearGradient id="H" gradientUnits="userSpaceOnUse" x1="121.461" y1="36.922" x2="129.066" y2="36.922"><stop offset=".32" stop-color="#b96d1f"/><stop offset="1" stop-color="#905c1e"/></linearGradient><path fill="url(#H)" d="M126.8 32.9l-.1.1a14.29 14.29 0 0 0-2 1.4l-3.2 7.9 1.8-1.6c.7-.5 2-1.6 2.7-2.2.7-1.6.8-2.7 1.6-4.4l1.4-2.7c-.7.6-1.4 1.1-2.2 1.5z"/><path fill="#0f3951" d="M147.1 63.3l-.9-.5-1.5-.9c-.8.2-2.8-.5-3.6-.3l2.3 1.7c.2.1.3.2.5.3.1.1.2.1.3.2l1.1.7c.1-.9 1.2-1 1.8-1.2z"/><linearGradient id="I" gradientUnits="userSpaceOnUse" x1="122.454" y1="34.222" x2="131.021" y2="34.222"><stop offset="0" stop-color="#f4af19"/><stop offset=".961" stop-color="#f7be1b"/></linearGradient><path fill="url(#I)" d="M128.3 30.2c-.1.1-.2.1-.3.2l-2.1 1.3a10.19 10.19 0 0 0-1.6 2.2c-1 2.1-1.6 3.5-1.9 5.7l2-1.6 3.1-2.3c.9-.9 2.3-2.3 2.7-3.1.9-1.8.9-1.8.4-3.8l-2.3 1.4z"/><path fill="#04688d" d="M148.5 64.1l-2.1-1.3-1.8-1.2c-.8.2-2.6-.3-3.4-.1l2.4 1.7c.2.1.3.2.5.4.1.1.2.1.3.2.3.2.7.5 1.1.7 1.1-.3 2.4-.2 3-.4z"/><radialGradient id="J" cx="16.424" cy="335.76" r="18.155" gradientTransform="matrix(1 0 0 -8 0 2739.1514)" gradientUnits="userSpaceOnUse"><stop offset=".547" stop-color="#fff"/><stop offset="1" stop-color="#bcbcbc"/></radialGradient><path fill="url(#J)" d="M17.3 63c-4.3 0-8.1-1.5-10.6-4.1v13.9H0V34h6.3v4c2.3-3 6.4-4.6 11-4.6 9 0 15.5 6.4 15.5 14.8 0 8.5-6.5 14.8-15.5 14.8zm-1.1-24.1c-5 0-9.5 3.1-9.5 9.3 0 6.3 4.6 9.3 9.5 9.3 5.4 0 9.7-3.8 9.7-9.3s-4.2-9.3-9.7-9.3z"/><radialGradient id="K" cx="49.623" cy="348.146" r="18.193" gradientTransform="matrix(1 0 0 -8 0 2825.855)" gradientUnits="userSpaceOnUse"><stop offset=".547" stop-color="#fff"/><stop offset="1" stop-color="#bcbcbc"/></radialGradient><path fill="url(#K)" d="M63.4 62.4h-6.8V45.5c0-3.9-2.7-6.6-6.9-6.6s-7.2 2.7-7.2 6.6v16.9h-6.8V19h6.8v17.8c2.1-2.3 5.3-3.5 9.1-3.5 7.2 0 11.7 4.6 11.7 11.3l.1 17.8z"/><radialGradient id="L" cx="84.432" cy="335.76" r="18.156" gradientTransform="matrix(1 0 0 -8 0 2739.1514)" gradientUnits="userSpaceOnUse"><stop offset=".547" stop-color="#fff"/><stop offset="1" stop-color="#bcbcbc"/></radialGradient><path fill="url(#L)" d="M85.3 63c-4.3 0-8.1-1.5-10.6-4.1v13.9H68V34h6.3v4c2.3-3 6.4-4.6 11-4.6 9 0 15.5 6.4 15.5 14.8.1 8.5-6.5 14.8-15.5 14.8zm-1.1-24.1c-5 0-9.5 3.1-9.5 9.3 0 6.3 4.6 9.3 9.5 9.3 5.4 0 9.7-3.8 9.7-9.3s-4.2-9.3-9.7-9.3z"/><radialGradient id="M" cx="202.962" cy="348.465" r="17.127" gradientTransform="matrix(1 0 0 -8 0 2828.0835)" gradientUnits="userSpaceOnUse"><stop offset=".547" stop-color="#fff"/><stop offset="1" stop-color="#bcbcbc"/></radialGradient><path fill="url(#M)" d="M204.2 34h7.5v5.3h-7.5v23.2h-6.8V39.2h-4.5V34h4.5v-5.7c0-6.7 4.3-9.9 11.3-9.9 1.7 0 3.2.2 4.4.5V24c-1-.1-1.9-.2-2.7-.2-4.1 0-6.2 1.3-6.2 4.9V34z"/><radialGradient id="N" cx="225.6" cy="340.332" r="14.161" gradientTransform="matrix(1 0 0 -8 0 2771.1572)" gradientUnits="userSpaceOnUse"><stop offset=".547" stop-color="#fff"/><stop offset="1" stop-color="#bcbcbc"/></radialGradient><path fill="url(#N)" d="M211.8 34h6.7v17c0 3.9 3 6.5 7.1 6.5 3.9 0 7-2.5 7-6.5V34h6.8v16.5c0 7.6-6 12.6-13.7 12.6-7.9 0-13.8-4.9-13.8-12.6l-.1-16.5z"/><radialGradient id="O" cx="253.295" cy="340.651" r="13.602" gradientTransform="matrix(1 0 0 -8 0 2773.3857)" gradientUnits="userSpaceOnUse"><stop offset=".547" stop-color="#fff"/><stop offset="1" stop-color="#bcbcbc"/></radialGradient><path fill="url(#O)" d="M244.9 53.7c2.8 2.6 5.5 4.1 8.9 4.1 2.9 0 5.1-1.1 5.1-3.2 0-1.7-1.4-2.4-4.4-3.5l-3.2-1.2c-5.6-2.1-8.2-4.3-8.2-8.3 0-5.1 4.7-8.2 11.1-8.2 4.6 0 8.2 1.4 10.9 4.4l-3.7 3.8c-2-1.9-4.6-2.9-7.4-2.9-2.6 0-4.3.9-4.3 2.7 0 1.4 1.1 2.2 4.2 3.4l3 1.1c6 2.3 8.6 4.6 8.6 8.6 0 2.7-1.1 4.9-3.4 6.4s-5 2.3-8.4 2.3c-5.4 0-9.9-2.2-12.8-5.5l4-4z"/><radialGradient id="P" cx="271.871" cy="347.973" r="15.57" gradientTransform="matrix(1 0 0 -8 0 2824.6416)" gradientUnits="userSpaceOnUse"><stop offset=".547" stop-color="#fff"/><stop offset="1" stop-color="#bcbcbc"/></radialGradient><path fill="url(#P)" d="M271.9 19.3c2.5 0 4.6 1.8 4.6 4.1s-2.1 4-4.6 4c-2.6 0-4.6-1.7-4.6-4s2-4.1 4.6-4.1zM268.5 34h6.8v28.4h-6.8V34z"/><radialGradient id="Q" cx="294.96" cy="340.652" r="15.828" gradientTransform="matrix(1 0 0 -8 0 2773.3926)" gradientUnits="userSpaceOnUse"><stop offset=".547" stop-color="#fff"/><stop offset="1" stop-color="#bcbcbc"/></radialGradient><path fill="url(#Q)" d="M294.9 33.3c9.2-.2 17 6.8 16.8 14.8.2 8-7.6 15-16.8 14.9-9.1.2-16.9-6.8-16.7-14.9-.2-8.1 7.6-14.9 16.7-14.8zm.1 5.6c-5.6 0-9.9 4.1-9.9 9.3s4.3 9.2 9.8 9.2c5.6 0 9.9-4.1 9.9-9.2-.1-5.3-4.4-9.3-9.8-9.3z"/><radialGradient id="R" cx="328.415" cy="340.969" r="14.176" gradientTransform="matrix(1 0 0 -8 0 2775.6143)" gradientUnits="userSpaceOnUse"><stop offset=".547" stop-color="#fff"/><stop offset="1" stop-color="#bcbcbc"/></radialGradient><path fill="url(#R)" d="M342.2 62.4h-6.8v-17c0-3.9-2.8-6.6-6.9-6.6-4.2 0-7.2 2.7-7.2 6.6v17h-6.8V34h6.3v2.8c2.4-2.3 5.5-3.4 9.5-3.4 7.4 0 11.9 4.5 11.9 11.3v17.7z"/></svg>