<?xml version="1.0" encoding="utf-8"?>
<!-- Generator: Adobe Illustrator 16.2.0, SVG Export Plug-In . SVG Version: 6.00 Build 0)  -->
<!DOCTYPE svg PUBLIC "-//W3C//DTD SVG 1.1//EN" "http://www.w3.org/Graphics/SVG/1.1/DTD/svg11.dtd">
<svg xmlns:xlink="http://www.w3.org/1999/xlink" version="1.1" id="Layer_1" xmlns="http://www.w3.org/2000/svg" x="0px"
     y="0px"
     width="342.231px" height="87.351px" viewBox="-0.001 -2.522 342.231 87.351"
     enable-background="new -0.001 -2.522 342.231 87.351" xml:space="preserve">
<g>
	<linearGradient id="SVGID_1_" gradientUnits="userSpaceOnUse" x1="113.2551" y1="40.751" x2="182.2341" y2="40.751">
		<stop offset="0.202" style="stop-color:#0B3C56"/>
        <stop offset="0.3153" style="stop-color:#075980"/>
        <stop offset="0.867" style="stop-color:#0079B1"/>
        <stop offset="0.9852" style="stop-color:#0B4C6D"/>
	</linearGradient>
    <path fill="url(#SVGID_1_)" d="M160.129,27.18c-17.772-15.622-37.724-22.208-44.563-14.714c-6.839,7.497,2.02,26.238,19.795,41.859
		c17.771,15.621,37.723,22.207,44.563,14.713S177.902,42.801,160.129,27.18z M174.552,65.346
		c-5.734,6.422-23.046,0.736-38.671-12.703c-15.625-13.435-23.639-29.533-17.906-35.953c5.731-6.423,23.043-0.735,38.667,12.698
		C172.267,42.827,180.283,58.926,174.552,65.346z"/>
    <linearGradient id="SVGID_2_" gradientUnits="userSpaceOnUse" x1="109.427" y1="17.1411" x2="186.2453" y2="61.4922">
		<stop offset="0" style="stop-color:#00B4D8"/>
        <stop offset="0.0887" style="stop-color:#0192C1"/>
        <stop offset="0.4729" style="stop-color:#015D8F"/>
        <stop offset="0.7438" style="stop-color:#076F93"/>
        <stop offset="1" style="stop-color:#1F406F"/>
	</linearGradient>
    <path fill="url(#SVGID_2_)" d="M160.776,24.87C142.207,8.24,121.365,1.229,114.218,9.207c-7.145,7.979,2.111,27.93,20.68,44.559
		c18.567,16.627,39.412,23.637,46.558,15.66C188.601,61.447,179.344,41.498,160.776,24.87z M175.844,65.496
		c-5.992,6.834-24.077,0.781-40.401-13.521c-16.323-14.303-24.697-31.438-18.708-38.272c5.989-6.835,24.074-0.782,40.397,13.518
		C173.455,41.525,181.832,58.662,175.844,65.496z"/>
    <linearGradient id="SVGID_3_" gradientUnits="userSpaceOnUse" x1="120.8455" y1="26.0146" x2="172.4746" y2="55.8228">
		<stop offset="0.3202" style="stop-color:#B96D1F"/>
        <stop offset="0.5271" style="stop-color:#F4AC1B"/>
        <stop offset="1" style="stop-color:#905C1E"/>
	</linearGradient>
    <path fill="url(#SVGID_3_)" d="M187.078,21.751c-4.51-9.381-26.259-8.404-48.582,2.182c-22.321,10.587-36.761,26.774-32.252,36.153
		c4.508,9.383,26.258,8.406,48.58-2.18C177.145,47.319,191.586,31.132,187.078,21.751z M154.103,56.348
		c-18.976,9.012-37.464,9.869-41.294,1.908c-3.83-7.953,8.449-21.712,27.424-30.725c18.977-9.014,37.464-9.866,41.294-1.91
		C185.357,33.579,173.08,47.334,154.103,56.348z"/>
    <linearGradient id="SVGID_4_" gradientUnits="userSpaceOnUse" x1="105.3176" y1="39.3159" x2="190.3572" y2="39.3159">
		<stop offset="0" style="stop-color:#F2A41D"/>
        <stop offset="0.33" style="stop-color:#F7BE1B"/>
        <stop offset="0.6305" style="stop-color:#F7BE1B"/>
        <stop offset="0.8325" style="stop-color:#FBD010"/>
	</linearGradient>
    <path fill="url(#SVGID_4_)" d="M189.646,21.124c-4.254-9.775-26.42-9.554-49.511,0.493c-23.091,10.047-38.36,26.116-34.107,35.893
		c4.253,9.773,26.419,9.551,49.51-0.494C178.629,46.968,193.899,30.898,189.646,21.124z M154.861,55.391
		c-19.629,8.557-38.473,8.771-42.085,0.479c-3.614-8.292,9.37-21.949,29-30.505c19.63-8.555,38.471-8.767,42.086-0.476
		C187.473,33.181,174.491,46.839,154.861,55.391z"/>
    <radialGradient id="SVGID_5_" cx="144.5979" cy="41.668" r="4.6871" gradientUnits="userSpaceOnUse">
		<stop offset="0.3153" style="stop-color:#4C4C4C"/>
        <stop offset="0.8916" style="stop-color:#181918"/>
	</radialGradient>
    <ellipse fill="url(#SVGID_5_)" cx="144.598" cy="41.668" rx="4.876" ry="4.49"/>
    <ellipse transform="matrix(0.7643 -0.6448 0.6448 0.7643 8.8363 103.2181)" fill="#FFFFFF" cx="145.632" cy="39.52"
             rx="0.87" ry="1.468"/>
    <linearGradient id="SVGID_6_" gradientUnits="userSpaceOnUse" x1="127.0281" y1="29.4717" x2="168.6438" y2="53.4985">
		<stop offset="0.7044" style="stop-color:#181918"/>
        <stop offset="1" style="stop-color:#5A5B5B"/>
	</linearGradient>
    <path fill="url(#SVGID_6_)" d="M164.748,50.002c-10.248,20.004-26.862,32.113-37.109,27.051
		c-10.249-5.066-10.25-25.383-0.004-45.384c10.247-20.001,26.862-32.11,37.11-27.046C174.992,9.686,174.994,30.003,164.748,50.002z
		 M167.997-0.684C156.035-6.199,137.314,8.21,126.179,31.5c-11.134,23.292-10.463,46.639,1.497,52.155
		c11.961,5.514,30.684-8.895,41.818-32.186C180.629,28.181,179.957,4.831,167.997-0.684z"/>
    <linearGradient id="SVGID_7_" gradientUnits="userSpaceOnUse" x1="111.2703" y1="61.0859" x2="181.4699" y2="20.5562">
		<stop offset="0" style="stop-color:#454645"/>
        <stop offset="0.2906" style="stop-color:#5A5B5B"/>
        <stop offset="0.6847" style="stop-color:#3A3A3A"/>
        <stop offset="0.9754" style="stop-color:#717171"/>
	</linearGradient>
    <path fill="url(#SVGID_7_)" d="M166.168-1.346c-11.746-5.515-30.131,8.894-41.065,32.182c-10.935,23.293-10.275,46.641,1.47,52.156
		c11.747,5.514,30.131-8.895,41.066-32.188C178.572,27.518,177.914,4.167,166.168-1.346z M162.977,49.34
		c-10.063,20.002-26.378,32.111-36.442,27.049c-10.063-5.064-10.065-25.381-0.003-45.384c10.063-20,26.379-32.108,36.442-27.045
		C173.037,9.023,173.039,29.341,162.977,49.34z"/>
    <g>
		<path fill="#F2A30A" d="M128.314,27.668c-0.02,0.01-0.039,0.023-0.058,0.036c-0.07,0.041-0.143,0.081-0.212,0.122
			c-0.002,0.005-0.004,0.008-0.006,0.013c-0.716,0.431-1.422,0.864-2.112,1.304c-0.278,0.562-0.554,1.123-0.822,1.694
			c-0.978,2.082-1.858,4.164-2.651,6.234c0.649-0.549,1.322-1.096,2.022-1.638c0.665-0.515,1.355-1.025,2.063-1.53
			c0.353-0.745,0.716-1.489,1.097-2.233c0.947-1.851,1.951-3.632,2.997-5.339c-0.787,0.441-1.56,0.889-2.319,1.34
			C128.312,27.669,128.313,27.668,128.314,27.668z"/>
	</g>
    <linearGradient id="SVGID_8_" gradientUnits="userSpaceOnUse" x1="121.4612" y1="34.4004" x2="129.0657" y2="34.4004">
		<stop offset="0.3202" style="stop-color:#B96D1F"/>
        <stop offset="1" style="stop-color:#905C1E"/>
	</linearGradient>
    <path fill="url(#SVGID_8_)" d="M126.844,30.404c0.001-0.004,0.003-0.007,0.004-0.01c-0.05,0.032-0.096,0.065-0.145,0.097
		c-0.013,0.009-0.026,0.017-0.039,0.024c0,0,0,0.002-0.002,0.003c-0.69,0.449-1.369,0.902-2.034,1.36
		c-1.204,2.646-2.264,5.293-3.168,7.911c0.592-0.539,1.206-1.079,1.846-1.614l0,0c0.653-0.546,2.021-1.616,2.723-2.154
		c0.698-1.624,0.772-2.726,1.605-4.353c0.463-0.904,0.944-1.787,1.431-2.657C128.311,29.47,127.571,29.934,126.844,30.404z"/>
    <path fill="#0F3951" d="M147.067,60.736c-0.459-0.273-0.395-0.189-0.857-0.479c-0.491-0.305-0.981-0.607-1.474-0.934
		c-0.791,0.232-2.788-0.465-3.564-0.264c0.362,0.262,1.937,1.432,2.299,1.686c-0.003,0.002-0.006,0.002-0.009,0.004
		c0.167,0.117,0.333,0.229,0.5,0.346c0.1,0.068,0.201,0.143,0.3,0.211c0.002,0,0.004-0.002,0.006-0.002
		c0.322,0.223,0.76,0.516,1.083,0.73C145.424,61.061,146.489,60.955,147.067,60.736z"/>
    <g>
		<linearGradient id="SVGID_9_" gradientUnits="userSpaceOnUse" x1="122.4519" y1="31.6997" x2="131.0198"
                        y2="31.6997">
			<stop offset="0" style="stop-color:#F4AF19"/>
            <stop offset="0.9606" style="stop-color:#F7BE1B"/>
		</linearGradient>
        <path fill="url(#SVGID_9_)" d="M128.314,27.668c-0.02,0.01-0.039,0.023-0.058,0.036c-0.07,0.041-0.143,0.081-0.212,0.122
			c-0.002,0.005-0.004,0.008-0.006,0.013c-0.716,0.431-1.422,0.864-2.112,1.304c-0.581,0.621-1.288,1.646-1.556,2.217
			c-0.977,2.082-1.568,3.49-1.917,5.71c0.649-0.549,1.322-1.096,2.022-1.638c0.665-0.515,2.41-1.771,3.119-2.277
			c0.935-0.943,2.278-2.323,2.659-3.067c0.948-1.849,0.948-1.849,0.378-3.758c-0.787,0.441-1.56,0.889-2.319,1.34
			C128.312,27.669,128.313,27.668,128.314,27.668z"/>
	</g>
    <path fill="#04688D" d="M148.516,61.545c-0.473-0.287-1.626-1.002-2.102-1.307c-0.504-0.322-1.268-0.83-1.775-1.172
		c-0.813,0.24-2.606-0.271-3.405-0.059c0.373,0.275,1.991,1.475,2.365,1.744c-0.003,0.002-0.006,0.002-0.01,0.004
		c0.171,0.121,0.342,0.238,0.514,0.361c0.104,0.07,0.207,0.148,0.309,0.223c0.003-0.002,0.004-0.002,0.007-0.002
		c0.331,0.234,0.724,0.502,1.055,0.729C146.638,61.65,147.922,61.775,148.516,61.545z"/>
</g>
    <g>

		<radialGradient id="SVGID_10_" cx="16.4231" cy="50.5498" r="18.1552"
                        gradientTransform="matrix(1 0 0 8 0 -353.8486)" gradientUnits="userSpaceOnUse">
		<stop offset="0.5468" style="stop-color:#FFFFFF"/>
            <stop offset="1" style="stop-color:#BCBCBC"/>
	</radialGradient>
        <path fill="url(#SVGID_10_)" d="M17.325,60.504c-4.315,0-8.051-1.505-10.563-4.109v13.891h-6.763V31.45h6.312v3.993
		c2.318-2.952,6.376-4.63,11.014-4.63c8.953,0,15.522,6.424,15.522,14.816C32.847,54.138,26.278,60.504,17.325,60.504z
		 M16.23,36.369c-4.959,0-9.532,3.067-9.532,9.261c0,6.25,4.573,9.317,9.532,9.317c5.41,0,9.661-3.819,9.661-9.26
		S21.704,36.369,16.23,36.369z"/>
        <radialGradient id="SVGID_11_" cx="49.6223" cy="38.1636" r="18.1922"
                        gradientTransform="matrix(1 0 0 8 0 -267.145)" gradientUnits="userSpaceOnUse">
		<stop offset="0.5468" style="stop-color:#FFFFFF"/>
            <stop offset="1" style="stop-color:#BCBCBC"/>
	</radialGradient>
        <path fill="url(#SVGID_11_)" d="M63.438,59.867h-6.763v-16.9c0-3.935-2.706-6.598-6.892-6.598c-4.187,0-7.214,2.72-7.214,6.598
		v16.9h-6.763V16.46h6.763v17.826c2.125-2.258,5.346-3.473,9.146-3.473c7.213,0,11.722,4.572,11.722,11.285V59.867z"/>
        <radialGradient id="SVGID_12_" cx="84.4314" cy="50.5498" r="18.1552"
                        gradientTransform="matrix(1 0 0 8 0 -353.8486)" gradientUnits="userSpaceOnUse">
		<stop offset="0.5468" style="stop-color:#FFFFFF"/>
            <stop offset="1" style="stop-color:#BCBCBC"/>
	</radialGradient>
        <path fill="url(#SVGID_12_)" d="M85.333,60.504c-4.315,0-8.051-1.505-10.563-4.109v13.891h-6.763V31.45h6.312v3.993
		c2.318-2.952,6.376-4.63,11.014-4.63c8.953,0,15.522,6.424,15.522,14.816C100.855,54.138,94.286,60.504,85.333,60.504z
		 M84.238,36.369c-4.959,0-9.532,3.067-9.532,9.261c0,6.25,4.573,9.317,9.532,9.317c5.41,0,9.661-3.819,9.661-9.26
		S89.713,36.369,84.238,36.369z"/>
        <radialGradient id="SVGID_13_" cx="202.9617" cy="37.8452" r="17.1254"
                        gradientTransform="matrix(1 0 0 8 0 -264.9165)" gradientUnits="userSpaceOnUse">
		<stop offset="0.5468" style="stop-color:#FFFFFF"/>
            <stop offset="1" style="stop-color:#BCBCBC"/>
	</radialGradient>
        <path fill="url(#SVGID_13_)" d="M204.154,31.45h7.471v5.267h-7.471v23.15h-6.764v-23.15h-4.508V31.45h4.508v-5.73
		c0-6.656,4.316-9.896,11.271-9.896c1.738,0,3.156,0.173,4.379,0.521v5.151c-1.029-0.116-1.932-0.174-2.705-0.174
		c-4.121,0-6.182,1.273-6.182,4.92V31.45z"/>
        <radialGradient id="SVGID_14_" cx="225.5994" cy="45.9775" r="14.1597"
                        gradientTransform="matrix(1 0 0 8 0 -321.8428)" gradientUnits="userSpaceOnUse">
		<stop offset="0.5468" style="stop-color:#FFFFFF"/>
            <stop offset="1" style="stop-color:#BCBCBC"/>
	</radialGradient>
        <path fill="url(#SVGID_14_)" d="M211.816,31.45h6.699v16.957c0,3.936,3.025,6.482,7.148,6.482c3.928,0,6.955-2.547,6.955-6.482
		V31.45h6.764v16.494c0,7.64-5.99,12.56-13.719,12.56c-7.922,0-13.848-4.92-13.848-12.56V31.45z"/>
        <radialGradient id="SVGID_15_" cx="253.2917" cy="45.6592" r="13.6036"
                        gradientTransform="matrix(1 0 0 8 0 -319.6143)" gradientUnits="userSpaceOnUse">
		<stop offset="0.5468" style="stop-color:#FFFFFF"/>
            <stop offset="1" style="stop-color:#BCBCBC"/>
	</radialGradient>
        <path fill="url(#SVGID_15_)" d="M244.918,51.186c2.77,2.604,5.539,4.052,8.889,4.052c2.898,0,5.088-1.1,5.088-3.184
		c0-1.679-1.352-2.373-4.443-3.53l-3.221-1.216c-5.604-2.083-8.244-4.282-8.244-8.275c0-5.094,4.701-8.219,11.143-8.219
		c4.572,0,8.18,1.447,10.949,4.398l-3.672,3.762c-1.996-1.852-4.637-2.894-7.406-2.894c-2.641,0-4.314,0.926-4.314,2.72
		c0,1.447,1.094,2.199,4.186,3.357l3.027,1.1c5.99,2.257,8.631,4.572,8.631,8.565c0,2.721-1.096,4.861-3.35,6.425
		c-2.254,1.504-5.023,2.257-8.373,2.257c-5.41,0-9.918-2.199-12.752-5.498L244.918,51.186z"/>
        <radialGradient id="SVGID_16_" cx="271.8699" cy="38.3369" r="15.5685"
                        gradientTransform="matrix(1 0 0 8 0 -268.3584)" gradientUnits="userSpaceOnUse">
		<stop offset="0.5468" style="stop-color:#FFFFFF"/>
            <stop offset="1" style="stop-color:#BCBCBC"/>
	</radialGradient>
        <path fill="url(#SVGID_16_)" d="M271.902,16.807c2.512,0,4.572,1.794,4.572,4.051c0,2.258-2.061,3.994-4.572,3.994
		c-2.576,0-4.637-1.736-4.637-3.994C267.265,18.601,269.326,16.807,271.902,16.807z M268.488,31.45h6.764v28.417h-6.764V31.45z"/>
        <radialGradient id="SVGID_17_" cx="294.9587" cy="45.6582" r="15.8279"
                        gradientTransform="matrix(1 0 0 8 0 -319.6074)" gradientUnits="userSpaceOnUse">
		<stop offset="0.5468" style="stop-color:#FFFFFF"/>
            <stop offset="1" style="stop-color:#BCBCBC"/>
	</radialGradient>
        <path fill="url(#SVGID_17_)" d="M294.894,30.813c9.209-0.174,17.004,6.771,16.811,14.816c0.193,8.045-7.602,15.048-16.811,14.874
		c-9.082,0.174-16.875-6.829-16.682-14.874C278.019,37.469,285.812,30.697,294.894,30.813z M294.959,36.369
		c-5.604,0-9.855,4.052-9.855,9.318s4.252,9.202,9.791,9.202c5.604,0,9.854-4.051,9.854-9.202
		C304.748,40.421,300.433,36.369,294.959,36.369z"/>
        <radialGradient id="SVGID_18_" cx="328.4148" cy="45.3408" r="14.1754"
                        gradientTransform="matrix(1 0 0 8 0 -317.3857)" gradientUnits="userSpaceOnUse">
		<stop offset="0.5468" style="stop-color:#FFFFFF"/>
            <stop offset="1" style="stop-color:#BCBCBC"/>
	</radialGradient>
        <path fill="url(#SVGID_18_)" d="M342.23,59.867h-6.764V42.909c0-3.936-2.77-6.598-6.891-6.598c-4.188,0-7.215,2.721-7.215,6.598
		v16.958h-6.762V31.45h6.313v2.777c2.383-2.257,5.539-3.414,9.467-3.414c7.406,0,11.852,4.514,11.852,11.285V59.867z"/>
</g>
</svg>
