<svg xmlns="http://www.w3.org/2000/svg" width="342.231" height="87.351" viewBox="-0.001 -2.522 342.231 87.351"><linearGradient id="A" gradientUnits="userSpaceOnUse" x1="113.255" y1="40.751" x2="182.234" y2="40.751"><stop offset=".202" stop-color="#0b3c56"/><stop offset=".315" stop-color="#075980"/><stop offset=".867" stop-color="#0079b1"/><stop offset=".985" stop-color="#0b4c6d"/></linearGradient><path fill="url(#A)" d="M160.129 27.18c-17.772-15.622-37.724-22.208-44.563-14.714s2.02 26.238 19.795 41.859 37.723 22.207 44.563 14.713-2.022-26.237-19.795-41.858zm14.423 38.166c-5.734 6.422-23.046.736-38.671-12.703S112.242 23.11 117.975 16.69s23.043-.735 38.667 12.698c15.625 13.439 23.641 29.538 17.91 35.958z"/><linearGradient id="B" gradientUnits="userSpaceOnUse" x1="109.427" y1="17.141" x2="186.245" y2="61.492"><stop offset="0" stop-color="#00b4d8"/><stop offset=".089" stop-color="#0192c1"/><stop offset=".473" stop-color="#015d8f"/><stop offset=".744" stop-color="#076f93"/><stop offset="1" stop-color="#1f406f"/></linearGradient><path fill="url(#B)" d="M160.776 24.87C142.207 8.24 121.365 1.229 114.218 9.207s2.111 27.93 20.68 44.559 39.412 23.637 46.558 15.66-2.112-27.928-20.68-44.556zm15.068 40.626c-5.992 6.834-24.077.781-40.401-13.521s-24.697-31.438-18.708-38.272 24.074-.782 40.397 13.518 24.7 31.441 18.712 38.275z"/><linearGradient id="C" gradientUnits="userSpaceOnUse" x1="120.846" y1="26.015" x2="172.475" y2="55.823"><stop offset=".32" stop-color="#b96d1f"/><stop offset=".527" stop-color="#f4ac1b"/><stop offset="1" stop-color="#905c1e"/></linearGradient><path fill="url(#C)" d="M187.078 21.751c-4.51-9.381-26.259-8.404-48.582 2.182s-36.761 26.774-32.252 36.153 26.258 8.406 48.58-2.18 36.762-26.774 32.254-36.155zm-32.975 34.597c-18.976 9.012-37.464 9.869-41.294 1.908-3.83-7.953 8.449-21.712 27.424-30.725s37.464-9.866 41.294-1.91-8.447 21.713-27.424 30.727z"/><linearGradient id="D" gradientUnits="userSpaceOnUse" x1="105.318" y1="39.316" x2="190.357" y2="39.316"><stop offset="0" stop-color="#f2a41d"/><stop offset=".33" stop-color="#f7be1b"/><stop offset=".631" stop-color="#f7be1b"/><stop offset=".833" stop-color="#fbd010"/></linearGradient><path fill="url(#D)" d="M189.646 21.124c-4.254-9.775-26.42-9.554-49.511.493s-38.36 26.116-34.107 35.893 26.419 9.551 49.51-.494 38.361-26.118 34.108-35.892zm-34.785 34.267c-19.629 8.557-38.473 8.771-42.085.479s9.37-21.949 29-30.505 38.471-8.767 42.086-.476-9.371 21.95-29.001 30.502z"/><radialGradient id="E" cx="144.598" cy="41.668" r="4.687" gradientUnits="userSpaceOnUse"><stop offset=".315" stop-color="#4c4c4c"/><stop offset=".892" stop-color="#181918"/></radialGradient><ellipse fill="url(#E)" cx="144.598" cy="41.668" rx="4.876" ry="4.49"/><ellipse transform="matrix(.7643 -.6448 .6448 .7643 8.8363 103.2181)" fill="#fff" cx="145.632" cy="39.52" rx=".87" ry="1.468"/><linearGradient id="F" gradientUnits="userSpaceOnUse" x1="127.028" y1="29.472" x2="168.644" y2="53.499"><stop offset=".704" stop-color="#181918"/><stop offset="1" stop-color="#5a5b5b"/></linearGradient><path fill="url(#F)" d="M164.748 50.002c-10.248 20.004-26.862 32.113-37.109 27.051s-10.25-25.383-.004-45.384 26.862-32.11 37.11-27.046 10.249 25.38.003 45.379zm3.249-50.686C156.035-6.199 137.314 8.21 126.179 31.5s-10.463 46.639 1.497 52.155 30.684-8.895 41.818-32.186 10.463-46.638-1.497-52.153z"/><linearGradient id="G" gradientUnits="userSpaceOnUse" x1="111.27" y1="61.086" x2="181.47" y2="20.556"><stop offset="0" stop-color="#454645"/><stop offset=".291" stop-color="#5a5b5b"/><stop offset=".685" stop-color="#3a3a3a"/><stop offset=".975" stop-color="#717171"/></linearGradient><path fill="url(#G)" d="M166.168-1.346c-11.746-5.515-30.131 8.894-41.065 32.182s-10.275 46.641 1.47 52.156 30.131-8.895 41.066-32.188c10.933-23.286 10.275-46.637-1.471-52.15zm-3.191 50.686c-10.063 20.002-26.378 32.111-36.442 27.049s-10.065-25.381-.003-45.384S152.911-1.103 162.974 3.96s10.065 25.381.003 45.38z"/><path fill="#f2a30a" d="M128.314 27.668c-.02.01-.039.023-.058.036l-.212.122-2.118 1.317-.822 1.694-2.651 6.234 2.022-1.638 2.063-1.53 1.097-2.233 2.997-5.339-2.319 1.34z"/><linearGradient id="H" gradientUnits="userSpaceOnUse" x1="121.461" y1="34.4" x2="129.066" y2="34.4"><stop offset=".32" stop-color="#b96d1f"/><stop offset="1" stop-color="#905c1e"/></linearGradient><path fill="url(#H)" d="M126.844 30.404c-.046.022-.092.055-.141.087a.41.41 0 0 1-.039.024l-2.036 1.363-3.168 7.911 1.846-1.614 2.723-2.154c.698-1.624.772-2.726 1.605-4.353l1.431-2.657-2.221 1.393z"/><path fill="#0f3951" d="M147.067 60.736c-.459-.273-.395-.189-.857-.479l-1.474-.934c-.791.232-2.788-.465-3.564-.264l2.299 1.686.491.35.3.211 1.089.728c.073-.973 1.138-1.079 1.716-1.298z"/><linearGradient id="I" gradientUnits="userSpaceOnUse" x1="122.452" y1="31.7" x2="131.02" y2="31.7"><stop offset="0" stop-color="#f4af19"/><stop offset=".961" stop-color="#f7be1b"/></linearGradient><path fill="url(#I)" d="M128.314 27.668c-.02.01-.039.023-.058.036l-.212.122-2.118 1.317c-.581.621-1.288 1.646-1.556 2.217-.977 2.082-1.568 3.49-1.917 5.71l2.022-1.638 3.119-2.277c.935-.943 2.278-2.323 2.659-3.067.948-1.849.948-1.849.378-3.758l-2.319 1.34z"/><path fill="#04688d" d="M148.516 61.545l-2.102-1.307-1.775-1.172c-.813.24-2.606-.271-3.405-.059l2.365 1.744.504.365.309.223 1.062.727c1.164-.416 2.448-.291 3.042-.521z"/><linearGradient id="J" gradientUnits="userSpaceOnUse" x1="-6.104" y1="65.854" x2="25.726" y2="34.024"><stop offset=".547" stop-color="#181918"/><stop offset="1" stop-color="#5a5b5b"/></linearGradient><path fill="url(#J)" d="M17.325 62.176c-4.315 0-8.051-1.506-10.563-4.109v13.891H-.001V33.121h6.312v3.994c2.318-2.952 6.376-4.63 11.014-4.63 8.953 0 15.522 6.424 15.522 14.817 0 8.507-6.569 14.874-15.522 14.874zM16.23 38.04c-4.959 0-9.532 3.067-9.532 9.261 0 6.25 4.573 9.318 9.532 9.318 5.41 0 9.661-3.82 9.661-9.261s-4.187-9.318-9.661-9.318z"/><linearGradient id="K" gradientUnits="userSpaceOnUse" x1="31.864" y1="57.596" x2="57.066" y2="32.393"><stop offset=".547" stop-color="#181918"/><stop offset="1" stop-color="#5a5b5b"/></linearGradient><path fill="url(#K)" d="M63.438 61.539h-6.763V44.638c0-3.935-2.706-6.598-6.892-6.598s-7.214 2.72-7.214 6.598v16.901h-6.763V18.131h6.763v17.826c2.125-2.257 5.346-3.473 9.146-3.473 7.213 0 11.722 4.572 11.722 11.286v17.769z"/><linearGradient id="L" gradientUnits="userSpaceOnUse" x1="61.903" y1="65.853" x2="93.733" y2="34.023"><stop offset=".547" stop-color="#181918"/><stop offset="1" stop-color="#5a5b5b"/></linearGradient><path fill="url(#L)" d="M85.333 62.176c-4.315 0-8.051-1.506-10.563-4.109v13.891h-6.763V33.121h6.312v3.994c2.318-2.952 6.376-4.63 11.014-4.63 8.953 0 15.522 6.424 15.522 14.817 0 8.507-6.569 14.874-15.522 14.874zM84.238 38.04c-4.959 0-9.532 3.067-9.532 9.261 0 6.25 4.573 9.318 9.532 9.318 5.41 0 9.661-3.82 9.661-9.261s-4.186-9.318-9.661-9.318z"/><linearGradient id="M" gradientUnits="userSpaceOnUse" x1="189.43" y1="53.578" x2="219.018" y2="23.991"><stop offset=".547" stop-color="#181918"/><stop offset="1" stop-color="#5a5b5b"/></linearGradient><path fill="url(#M)" d="M204.154 33.121h7.471v5.267h-7.471v23.151h-6.764V38.388h-4.508v-5.267h4.508v-5.729c0-6.656 4.316-9.897 11.271-9.897 1.739 0 3.156.173 4.38.521v5.151c-1.03-.116-1.933-.174-2.705-.174-4.122 0-6.183 1.273-6.183 4.919v5.209z"/><linearGradient id="N" gradientUnits="userSpaceOnUse" x1="213.277" y1="56.3" x2="237.92" y2="31.657"><stop offset=".547" stop-color="#181918"/><stop offset="1" stop-color="#5a5b5b"/></linearGradient><path fill="url(#N)" d="M211.816 33.121h6.699v16.958c0 3.936 3.026 6.482 7.148 6.482 3.929 0 6.956-2.547 6.956-6.482V33.121h6.763v16.495c0 7.641-5.99 12.561-13.719 12.561-7.922 0-13.848-4.92-13.848-12.561V33.121z"/><linearGradient id="O" gradientUnits="userSpaceOnUse" x1="242.901" y1="58.584" x2="264.845" y2="36.64"><stop offset=".547" stop-color="#181918"/><stop offset="1" stop-color="#5a5b5b"/></linearGradient><path fill="url(#O)" d="M244.919 52.857c2.77 2.604 5.538 4.051 8.888 4.051 2.898 0 5.088-1.1 5.088-3.184 0-1.678-1.352-2.373-4.443-3.529l-3.221-1.217c-5.604-2.083-8.244-4.282-8.244-8.276 0-5.093 4.702-8.219 11.143-8.219 4.572 0 8.18 1.447 10.949 4.399l-3.671 3.762c-1.997-1.852-4.638-2.894-7.407-2.894-2.641 0-4.314.926-4.314 2.72 0 1.447 1.094 2.199 4.186 3.357l3.027 1.1c5.99 2.257 8.631 4.572 8.631 8.566 0 2.721-1.096 4.861-3.35 6.424-2.254 1.504-5.023 2.258-8.373 2.258-5.41 0-9.918-2.199-12.752-5.498l3.863-3.82z"/><linearGradient id="P" gradientUnits="userSpaceOnUse" x1="259.738" y1="52.788" x2="284.006" y2="28.52"><stop offset=".547" stop-color="#181918"/><stop offset="1" stop-color="#5a5b5b"/></linearGradient><path fill="url(#P)" d="M271.902 18.478c2.512 0 4.573 1.794 4.573 4.051s-2.062 3.994-4.573 3.994c-2.576 0-4.637-1.736-4.637-3.994s2.061-4.051 4.637-4.051zm-3.413 14.643h6.763v28.418h-6.763V33.121z"/><linearGradient id="Q" gradientUnits="userSpaceOnUse" x1="283.736" y1="58.517" x2="306.156" y2="36.097"><stop offset=".547" stop-color="#181918"/><stop offset="1" stop-color="#5a5b5b"/></linearGradient><path fill="url(#Q)" d="M294.894 32.484c9.21-.173 17.004 6.771 16.811 14.817.193 8.045-7.601 15.049-16.811 14.875-9.082.174-16.875-6.83-16.682-14.875-.193-8.161 7.6-14.933 16.682-14.817zm.065 5.556c-5.604 0-9.854 4.052-9.854 9.318s4.251 9.202 9.79 9.202c5.604 0 9.854-4.051 9.854-9.202-.001-5.266-4.316-9.318-9.79-9.318z"/><linearGradient id="R" gradientUnits="userSpaceOnUse" x1="314.403" y1="61.342" x2="339.621" y2="36.124"><stop offset=".547" stop-color="#181918"/><stop offset="1" stop-color="#5a5b5b"/></linearGradient><path fill="url(#R)" d="M342.23 61.539h-6.764V44.58c0-3.936-2.769-6.598-6.891-6.598-4.187 0-7.214 2.72-7.214 6.598v16.959h-6.763V33.121h6.313v2.778c2.383-2.257 5.539-3.415 9.467-3.415 7.407 0 11.852 4.515 11.852 11.286v17.769z"/></svg>