<svg xmlns="http://www.w3.org/2000/svg" viewBox="0 0 72 72"><path d="M72,64c0,4.4-3.6,8-8,8H8c-4.4,0-8-3.6-8-8V8c0-4.4,3.6-8,8-8h56c4.4,0,8,3.6,8,8V64z" fill="#f50057"/><path d="M29.9 40.6c0-.1 0-.1-.1-.2 0-.1 0-.1-.1-.2l-.1-.1c-.2-.2-.5-.3-.8-.2-.1 0-.1 0-.2.1-.1 0-.1 0-.2.1l-.2.2s-.1.1-.1.2 0 .1-.1.2v.4c0 .1 0 .1.1.2 0 .1 0 .1.1.2l.2.2s.1.1.2.1.1 0 .2.1h.2c.2 0 .5-.1.6-.3l.1-.1s.1-.1.1-.2 0-.1.1-.2v-.2c.1-.2.1-.2 0-.3zm27.7 15.2h-1.8V42.5c0-1.5-1.2-2.6-2.6-2.6h-1.5v-8.7c0-1.5-1.2-2.6-2.6-2.6h-2.7V26c.6-.2 1.2-.5 1.6-.9 1.1-1.1 1.4-2.7.7-4.1l-2.4-4.9c-.1-.3-.5-.5-.8-.5s-.6.2-.8.5L42.3 21c-.7 1.4-.4 3 .7 4.1.5.5 1 .8 1.6.9v2.6h-7.7v-3.8c.6-.2 1.2-.5 1.6-.9 1.1-1.1 1.4-2.7.7-4.1l-2.4-4.9c-.1-.3-.5-.5-.8-.5s-.6.2-.8.5l-2.4 4.9c-.7 1.4-.4 3 .7 4.1.5.5 1 .8 1.6.9v3.8h-7.7v-2.5c.6-.2 1.2-.5 1.6-.9 1.1-1.1 1.4-2.7.7-4.1l-2.4-4.9c-.1-.3-.5-.5-.8-.5s-.6.2-.8.5L23.3 21c-.7 1.4-.4 3 .7 4.1.5.5 1 .8 1.6.9v2.5H23c-1.5 0-2.6 1.2-2.6 2.6v8.7h-1.5c-1.5 0-2.6 1.2-2.6 2.6v13.3h-1.8c-.5 0-.9.4-.9.9s.4.9.9.9h43.2c.5 0 .9-.4.9-.9s-.5-.8-1-.8zM44.2 23.9c-.5-.5-.7-1.4-.3-2.1l1.6-3.3 1.6 3.3a2.01 2.01 0 0 1-.3 2.1c-.1.1-.3.2-.4.3-.5.3-1.2.3-1.8 0-.2-.1-.3-.2-.4-.3zm-9.5-1.2c-.5-.5-.7-1.4-.3-2.1l1.6-3.3 1.6 3.3a2.01 2.01 0 0 1-.3 2.1c-.1.1-.3.2-.4.3-.5.3-1.2.3-1.8 0-.1-.1-.3-.2-.4-.3zm-9.4 1.2c-.5-.5-.7-1.4-.3-2.1l1.6-3.3 1.6 3.3a2.01 2.01 0 0 1-.3 2.1c-.1.1-.3.2-.4.3-.5.3-1.2.3-1.8 0-.2-.1-.3-.2-.4-.3zM23 30.4h26c.5 0 .9.4.9.9V34c-.4.1-.8.2-1.3.2-1.3 0-1.9-.4-2.7-.9-.8-.6-1.8-1.2-3.6-1.2s-2.8.6-3.6 1.2c-.8.5-1.4.9-2.7.9s-1.9-.4-2.7-.9c-.8-.6-1.8-1.2-3.6-1.2s-2.8.6-3.6 1.2c-.8.5-1.4.9-2.7.9-.5 0-.9-.1-1.3-.2v-2.8c0-.4.4-.8.9-.8zm31 25.4H18v-8.4c.7.1 1.2.5 1.8.8.8.6 1.8 1.2 3.6 1.2s2.8-.6 3.6-1.2c.8-.5 1.4-.9 2.7-.9s1.9.4 2.7.9c.8.6 1.8 1.2 3.6 1.2s2.8-.6 3.6-1.2c.8-.5 1.4-.9 2.7-.9s1.9.4 2.7.9c.8.6 1.8 1.2 3.6 1.2s2.8-.6 3.6-1.2c.6-.4 1-.7 1.8-.8v8.4zm0-10.2c-1.3.2-2.1.7-2.8 1.1-.8.5-1.4.9-2.7.9s-1.9-.4-2.7-.9c-.8-.6-1.8-1.2-3.6-1.2s-2.8.6-3.6 1.2c-.8.5-1.4.9-2.7.9s-1.9-.4-2.7-.9c-.8-.6-1.8-1.2-3.6-1.2s-2.8.6-3.6 1.2c-.8.5-1.4.9-2.7.9s-1.9-.4-2.7-.9c-.7-.5-1.5-1-2.8-1.1v-3c0-.5.4-.9.9-.9h6.7c.5 0 .9-.4.9-.9s-.4-.9-.9-.9h-3.5v-4.1c.4.1.8.1 1.3.1 1.8 0 2.8-.6 3.6-1.2.8-.5 1.4-.9 2.7-.9s1.9.4 2.7.9c.8.6 1.8 1.2 3.6 1.2s2.8-.6 3.6-1.2c.8-.5 1.4-.9 2.7-.9s1.9.4 2.7.9c.8.6 1.8 1.2 3.6 1.2.5 0 .9 0 1.3-.1v4.1H32.6c-.5 0-.9.4-.9.9s.4.9.9.9h20.6c.5 0 .9.4.9.9l-.1 3zm-31.9 8c0-.1 0-.1-.1-.2 0-.1 0-.1-.1-.2l-.2-.2s-.1-.1-.2-.1-.1 0-.2-.1c-.3-.1-.6 0-.8.2l-.1.1s-.1.1-.1.2 0 .1-.1.2v.4c0 .1 0 .1.1.2s0 .1.1.2l.1.1c.2.2.4.3.6.3h.2c.1 0 .1 0 .2-.1s.1 0 .2-.1l.2-.2s.1-.1.1-.2 0-.1.1-.2v-.3zm9.4-2.6c0-.1 0-.1-.1-.2 0-.1 0-.1-.1-.2l-.2-.2s-.1-.1-.2-.1-.1 0-.2-.1h-.3c-.1 0-.1 0-.2.1-.1 0-.1 0-.2.1l-.2.2s-.1.1-.1.2 0 .1-.1.2v.4c0 .1 0 .1.1.2 0 .1 0 .1.1.2l.2.2s.1.1.2.1.1 0 .2.1.1 0 .2 0h.2c.1 0 .1 0 .2-.1.1 0 .1 0 .2-.1l.2-.2s.1-.1.1-.2 0-.1.1-.2v-.2c-.1-.1-.1-.1-.1-.2zm10.2 2.6c0-.1 0-.1-.1-.2 0-.1 0-.1-.1-.2l-.2-.2s-.1-.1-.2-.1-.1 0-.2-.1h-.3c-.1 0-.1 0-.2.1-.1 0-.1 0-.2.1l-.2.2s-.1.1-.1.2 0 .1-.1.2v.4c0 .1 0 .1.1.2s0 .1.1.2l.2.2s.1.1.2.1.1 0 .2.1h.2c.2 0 .5-.1.6-.3l.1-.1s.1-.1.1-.2 0-.1.1-.2v-.4zm10-2.1c0-.1 0-.1-.1-.2 0-.1 0-.1-.1-.2l-.1-.1c-.2-.2-.4-.3-.6-.3s-.5.1-.6.3l-.1.1s-.1.1-.1.2 0 .1-.1.2 0 .1 0 .2v.2c0 .1 0 .1.1.2 0 .1 0 .1.1.2l.2.2s.1.1.2.1.1 0 .2.1h.2c.2 0 .5-.1.6-.3l.1-.1s.1-.1.1-.2 0-.1.1-.2v-.2c-.1-.1-.1-.1-.1-.2zm-8.8-14.3c0-.1 0-.1-.1-.2 0-.1 0-.1-.1-.2l-.2-.2s-.1-.1-.2-.1-.1 0-.2-.1h-.3c-.1 0-.1 0-.2.1-.1 0-.1 0-.2.1l-.2.2s-.1.1-.1.2 0 .1-.1.2v.4c0 .1 0 .1.1.2s0 .1.1.2l.2.2s.1.1.2.1.1 0 .2.1h.4c.1 0 .1 0 .2-.1.1 0 .1 0 .2-.1l.2-.2s.1-.1.1-.2 0-.1.1-.2v-.2c-.1-.1-.1-.2-.1-.2zM31.4 36c0-.1 0-.1-.1-.2s0-.1-.1-.2l-.2-.2s-.1-.1-.2-.1-.1 0-.2-.1h-.3c-.1 0-.1 0-.2.1s-.1 0-.2.1l-.2.2s-.1.1-.1.2 0 .1-.1.2v.4c0 .1 0 .1.1.2 0 .1 0 .1.1.2l.2.2s.1.1.2.1.1 0 .2.1h.4c.1 0 .1 0 .2-.1s.1 0 .2-.1l.2-.2s.1-.1.1-.2 0-.1.1-.2v-.2c-.1-.1-.1-.2-.1-.2z" fill="#fff"/></svg>