<svg xmlns="http://www.w3.org/2000/svg" viewBox="0 0 72 72"><path fill="#45668e" d="M72,64c0,4.4-3.6,8-8,8H8c-4.4,0-8-3.6-8-8V8c0-4.4,3.6-8,8-8h56c4.4,0,8,3.6,8,8V64z"/><path fill="#fff" d="M58.3 46.3c-.1-.1-.1-.2-.2-.3-.8-1.4-2.3-3.1-4.5-5.2l-1.9-1.9c-.5-.6-.6-1.3-.3-1.9.2-.5.9-1.5 2.1-3.1l1.5-2c2.7-3.6 3.9-5.9 3.5-6.9l-.1-.2c-.1-.1-.3-.3-.7-.4s-.9-.1-1.5-.1H49c-.2 0-.3.1-.3.1l-.2.2c-.1 0-.2.1-.3.2s-.2.2-.2.4c-.7 1.9-1.6 3.6-2.5 5.3L43.9 33l-1.2 1.6c-.3.3-.6.6-.9.8s-.5.3-.6.3-.3-.1-.4-.1c-.2-.1-.4-.3-.5-.6-.1-.2-.2-.5-.3-.9 0-.4-.1-.7-.1-.9v-4c0-.7 0-1.2.1-1.7v-1.3c0-.5 0-.8-.1-1.1s-.1-.5-.2-.7-.3-.4-.5-.6c-.2-.1-.5-.2-.8-.3-.8-.2-1.9-.3-3.2-.3-2.9 0-4.8.2-5.6.6-.3.2-.6.4-.9.7s-.3.5-.1.6c.9.1 1.6.5 2 1l.1.3c.1.2.2.6.3 1.1s.2 1.1.2 1.7c.1 1.1.1 2.1 0 2.9L31 34c0 .5-.2.8-.3 1.1s-.2.5-.3.5c0 .1-.1.1-.1.1-.2.1-.4.1-.6.1s-.5-.1-.8-.3-.6-.5-1-.9c-.3-.4-.7-.9-1.1-1.6l-1.3-2.4-.4-.7-1-1.9-1.1-2.4c-.1-.3-.3-.6-.6-.7l-.1-.1c-.1-.1-.2-.1-.4-.2s-.4-.1-.5-.2H15c-.7 0-1.1.1-1.3.4l-.1.1c0 .1-.1.2-.1.4s0 .4.1.6c.9 2.2 2 4.3 3.1 6.4l2.9 4.9 2.5 3.5c.8 1.1 1.4 1.8 1.7 2.1s.5.5.6.7l.6.6c.4.4.9.8 1.7 1.3.7.5 1.5 1 2.4 1.5s1.9.9 3.1 1.2 2.3.4 3.4.4h2.7c.5 0 1-.2 1.2-.5l.1-.1c.1-.1.1-.2.2-.4s.1-.4.1-.6c0-.7 0-1.3.2-1.8.1-.5.2-.9.4-1.2.1-.3.3-.5.5-.7s.3-.3.4-.3.1-.1.2-.1c.4-.1.8 0 1.3.4s1 .8 1.4 1.4c.4.5 1 1.1 1.6 1.8.5.6 1 1.1 1.6 1.5l.5.3c.3.2.7.4 1.2.5.5.2.9.2 1.3.1l6-.1c.6 0 1.1-.1 1.4-.3s.5-.4.6-.6.1-.5 0-.8l-.2-.7z"/></svg>