<svg xmlns="http://www.w3.org/2000/svg" viewBox="0 0 72 72"><path d="M72,64c0,4.4-3.6,8-8,8H8c-4.4,0-8-3.6-8-8V8c0-4.4,3.6-8,8-8h56c4.4,0,8,3.6,8,8V64z" fill="#cddc39"/><path d="M31.2 21.5c-2.6 0-5 .4-7.2 1.3s-4 2.1-5.3 3.5c-1.3 1.5-2 3.1-2 4.8 0 1.4.4 2.7 1.3 4s2.1 2.4 3.7 3.3l2.4 1.4-.8 2.2c.6-.3 1.1-.7 1.6-1l1.1-.8 1.3.3 3.8.4c2.6 0 5-.4 7.2-1.3s4-2.1 5.3-3.5c1.3-1.5 2-3.1 2-4.8s-.7-3.3-2-4.8-3.1-2.7-5.3-3.5c-2.2-1-4.6-1.5-7.1-1.5zm0-3.2c3.2 0 6.2.6 8.9 1.7s4.9 2.7 6.4 4.7c1.6 2 2.4 4.1 2.4 6.5s-.8 4.5-2.4 6.5-3.7 3.5-6.4 4.7c-2.7 1.1-5.7 1.7-8.9 1.7-1.4 0-2.9-.1-4.4-.4-2.1 1.5-4.4 2.5-7 3.2-.6.2-1.3.3-2.2.4h-.1c-.2 0-.4-.1-.5-.2a.55.55 0 0 1-.3-.5v-.4c0-.1 0-.1.1-.2l1.1-1.1c.3-.3.5-.6.7-.7.1-.2.3-.4.6-.7s.5-.6.6-1 .3-.7.5-1.1c-2.1-1.2-3.7-2.7-4.9-4.4s-1.8-3.6-1.8-5.6c0-2.3.8-4.5 2.4-6.5s3.7-3.5 6.4-4.7 5.6-1.9 8.8-1.9zm20.6 29.4c.2.4.3.8.5 1.1l.6 1c.2.3.4.6.6.7s.4.4.7.7l.9.9c0 .1.1.1.1.1l.1.1.1.2v.4l-.3.6c-.2.1-.4.2-.6.2-.8-.1-1.6-.3-2.2-.4-2.6-.7-4.9-1.7-7-3.2-1.5.3-3 .4-4.4.4-4.5 0-8.5-1.1-11.9-3.3a20.34 20.34 0 0 0 2.2.1c2.7 0 5.3-.4 7.8-1.1 2.5-.8 4.7-1.8 6.6-3.2 2.1-1.5 3.7-3.3 4.8-5.3s1.7-4.1 1.7-6.4c0-1.3-.2-2.6-.6-3.8 2.2 1.2 3.9 2.7 5.1 4.5s1.9 3.7 1.9 5.8c0 2-.6 3.9-1.8 5.6-1.2 1.6-2.8 3.1-4.9 4.3z" fill="#fff"/></svg>