<svg xmlns="http://www.w3.org/2000/svg" viewBox="0 0 512 512"><path fill="#E4EAF8" d="M486.9 465.5H25.1c-9.4 0-17.1-7.7-17.1-17.1V63.6c0-9.4 7.7-17.1 17.1-17.1h461.8c9.4 0 17.1 7.7 17.1 17.1v384.8c0 9.4-7.7 17.1-17.1 17.1z"/><path fill="#00C3FF" d="M153.4 149.1L85 217.5l171 205.2V149.1"/><g fill="#00AAF0"><path d="M153.4 149.1L85 217.5h94M179 217.5l77 205.2V217.5"/></g><path fill="#80E1FF" d="M179 217.5l77-68.4v68.4"/><path fill="#5B5D6E" d="M486.9 465.5H256V89.3h248v359.1c0 9.4-7.7 17.1-17.1 17.1z"/><path fill="#D5DCED" d="M504 89.3H50.8V46.5h436.1c9.4 0 17.1 7.7 17.1 17.1v25.7z"/><path fill="#FF5050" d="M375.7 46.5h42.8v42.8h-42.8z"/><path fill="#FFF082" d="M418.5 46.5h42.8v42.8h-42.8z"/><path fill="#A0FFB4" d="M504 89.3h-42.8V46.5h25.7c9.4 0 17.1 7.7 17.1 17.1v25.7z"/><path d="M486.9 38.5H264v-9.1c0-4.4-3.6-8-8-8s-8 3.6-8 8v9.1H25.1C11.3 38.5 0 49.7 0 63.6v384.8c0 13.9 11.3 25.1 25.1 25.1H248v9.1c0 4.4 3.6 8 8 8s8-3.6 8-8v-9.1h222.9c13.9 0 25.1-11.3 25.1-25.1V63.6c0-13.9-11.3-25.1-25.1-25.1zm9.1 25.1v17.6h-26.7V54.5h17.6c5 0 9.1 4.1 9.1 9.1zm-69.5 17.6V54.5h26.7v26.7h-26.7zm-42.8 0V54.5h26.7v26.7h-26.7zm-16-26.7v26.7H264V54.5h103.7zM248 81.2H58.8V54.5H248v26.7zM25.1 54.5h17.6v26.7H16V63.6c0-5 4.1-9.1 9.1-9.1zm0 403c-5 0-9.1-4.1-9.1-9.1V97.3h232v43.8h-94.6c-2.1 0-4.2.8-5.7 2.3l-68.4 68.4c-2.9 2.9-3.1 7.6-.5 10.8l169.2 203v31.8H25.1zm222.9-232v153l-57.4-153H248zm-47.9-16L248 167v42.5h-47.9zm-17.7-5.7L165 157.1h70l-52.6 46.7zm-32.1-40.2l17.2 45.9h-63.1l45.9-45.9zm23.2 61.9l58.4 155.8-129.8-155.8h71.4zm313.4 232H264V97.3h232v351.1c0 5-4.1 9.1-9.1 9.1z"/><path d="M298.8 165.7h17.1c4.4 0 8-3.6 8-8s-3.6-8-8-8h-17.1c-4.4 0-8 3.6-8 8-.1 4.4 3.5 8 8 8zM298.8 234.1h17.1c4.4 0 8-3.6 8-8s-3.6-8-8-8h-17.1c-4.4 0-8 3.6-8 8s3.5 8 8 8zM316.4 191.9c0 4.4 3.6 8 8 8h17.1c4.4 0 8-3.6 8-8s-3.6-8-8-8h-17.1c-4.4 0-8 3.5-8 8zM461.2 149.6H350.1c-4.4 0-8 3.6-8 8s3.6 8 8 8h111.2c4.4 0 8-3.6 8-8-.1-4.4-3.6-8-8.1-8zM461.2 218.1H350.1c-4.4 0-8 3.6-8 8s3.6 8 8 8h111.2c4.4 0 8-3.6 8-8s-3.6-8-8.1-8zM461.2 183.9h-85.5c-4.4 0-8 3.6-8 8s3.6 8 8 8h85.5c4.4 0 8-3.6 8-8s-3.5-8-8-8zM349.5 260.3c0-4.4-3.6-8-8-8h-17.1c-4.4 0-8 3.6-8 8s3.6 8 8 8h17.1c4.4 0 8-3.6 8-8zM461.2 252.3h-85.5c-4.4 0-8 3.6-8 8s3.6 8 8 8h85.5c4.4 0 8-3.6 8-8 0-4.5-3.5-8-8-8zM298.8 302.5h17.1c4.4 0 8-3.6 8-8s-3.6-8-8-8h-17.1c-4.4 0-8 3.6-8 8-.1 4.4 3.5 8 8 8zM323.9 362.9c0-4.4-3.6-8-8-8h-17.1c-4.4 0-8 3.6-8 8s3.6 8 8 8h17.1c4.4 0 8-3.6 8-8zM316.4 328.7c0 4.4 3.6 8 8 8h17.1c4.4 0 8-3.6 8-8s-3.6-8-8-8h-17.1c-4.4 0-8 3.6-8 8zM461.2 286.5H350.1c-4.4 0-8 3.6-8 8s3.6 8 8 8h111.2c4.4 0 8-3.6 8-8-.1-4.4-3.6-8-8.1-8zM461.2 354.9H350.1c-4.4 0-8 3.6-8 8s3.6 8 8 8h111.2c4.4 0 8-3.6 8-8-.1-4.4-3.6-8-8.1-8zM461.2 320.7h-85.5c-4.4 0-8 3.6-8 8s3.6 8 8 8h85.5c4.4 0 8-3.6 8-8s-3.5-8-8-8zM341.5 389.1h-17.1c-4.4 0-8 3.6-8 8s3.6 8 8 8h17.1c4.4 0 8-3.6 8-8s-3.6-8-8-8zM461.2 389.1h-85.5c-4.4 0-8 3.6-8 8s3.6 8 8 8h85.5c4.4 0 8-3.6 8-8s-3.5-8-8-8z"/></svg>