<svg version="1.1" xmlns="http://www.w3.org/2000/svg" xmlns:xlink="http://www.w3.org/1999/xlink" x="0px" y="0px"
	 viewBox="0 0 512 512" style="enable-background:new 0 0 512 512;" xml:space="preserve">
<path style="fill:#E4EAF8;" d="M486.9,465.5H25.1c-9.4,0-17.1-7.7-17.1-17.1V63.6c0-9.4,7.7-17.1,17.1-17.1h461.8
	c9.4,0,17.1,7.7,17.1,17.1v384.8C504,457.8,496.3,465.5,486.9,465.5z"/>
<polygon style="fill:#00C3FF;" points="153.4,149.1 85,217.5 256,422.7 256,149.1 "/>
<g>
	<polygon style="fill:#00AAF0;" points="153.4,149.1 85,217.5 179,217.5"/>
	<polygon style="fill:#00AAF0;" points="179,217.5 256,422.7 256,217.5"/>
</g>
<polygon style="fill:#80E1FF;" points="179,217.5 256,149.1 256,217.5 "/>
<path style="fill:#5B5D6E;" d="M486.9,465.5H256V89.3h248v359.1C504,457.8,496.3,465.5,486.9,465.5z"/>
<path style="fill:#D5DCED;" d="M504,89.3H50.8V46.5h436.1c9.4,0,17.1,7.7,17.1,17.1V89.3z"/>
<rect x="375.7" y="46.5" style="fill:#FF5050;" width="42.8" height="42.8"/>
<rect x="418.5" y="46.5" style="fill:#FFF082;" width="42.8" height="42.8"/>
<path style="fill:#A0FFB4;" d="M504,89.3h-42.8V46.5h25.7c9.4,0,17.1,7.7,17.1,17.1L504,89.3L504,89.3z"/>
<path d="M486.9,38.5H264v-9.1c0-4.4-3.6-8-8-8c-4.4,0-8,3.6-8,8v9.1H25.1C11.3,38.5,0,49.7,0,63.6v384.8c0,13.9,11.3,25.1,25.1,25.1
	H248v9.1c0,4.4,3.6,8,8,8c4.4,0,8-3.6,8-8v-9.1h222.9c13.9,0,25.1-11.3,25.1-25.1V63.6C512,49.7,500.7,38.5,486.9,38.5z M496,63.6
	v17.6h-26.7V54.5h17.6C491.9,54.5,496,58.6,496,63.6z M426.5,81.2V54.5h26.7v26.7H426.5z M383.7,81.2V54.5h26.7v26.7H383.7z
	 M367.7,54.5v26.7H264V54.5H367.7z M248,81.2H58.8V54.5H248V81.2z M25.1,54.5h17.6v26.7H16V63.6C16,58.6,20.1,54.5,25.1,54.5z
	 M25.1,457.5c-5,0-9.1-4.1-9.1-9.1V97.3H248v43.8h-94.6c-2.1,0-4.2,0.8-5.7,2.3l-68.4,68.4c-2.9,2.9-3.1,7.6-0.5,10.8l169.2,203
	v31.8H25.1z M248,225.5v153l-57.4-153L248,225.5L248,225.5z M200.1,209.5L248,167v42.5H200.1z M182.4,203.8L165,157.1h70
	L182.4,203.8z M150.3,163.6l17.2,45.9h-63.1L150.3,163.6z M173.5,225.5l58.4,155.8L102.1,225.5H173.5z M486.9,457.5H264V97.3H496
	v351.1C496,453.4,491.9,457.5,486.9,457.5z"/>
<path d="M298.8,165.7h17.1c4.4,0,8-3.6,8-8c0-4.4-3.6-8-8-8h-17.1c-4.4,0-8,3.6-8,8C290.7,162.1,294.3,165.7,298.8,165.7z"/>
<path d="M298.8,234.1h17.1c4.4,0,8-3.6,8-8s-3.6-8-8-8h-17.1c-4.4,0-8,3.6-8,8S294.3,234.1,298.8,234.1z"/>
<path d="M316.4,191.9c0,4.4,3.6,8,8,8h17.1c4.4,0,8-3.6,8-8s-3.6-8-8-8h-17.1C320,183.9,316.4,187.4,316.4,191.9z"/>
<path d="M461.2,149.6H350.1c-4.4,0-8,3.6-8,8c0,4.4,3.6,8,8,8h111.2c4.4,0,8-3.6,8-8C469.2,153.2,465.7,149.6,461.2,149.6z"/>
<path d="M461.2,218.1H350.1c-4.4,0-8,3.6-8,8s3.6,8,8,8h111.2c4.4,0,8-3.6,8-8S465.7,218.1,461.2,218.1z"/>
<path d="M461.2,183.9h-85.5c-4.4,0-8,3.6-8,8s3.6,8,8,8h85.5c4.4,0,8-3.6,8-8S465.7,183.9,461.2,183.9z"/>
<path d="M349.5,260.3c0-4.4-3.6-8-8-8h-17.1c-4.4,0-8,3.6-8,8c0,4.4,3.6,8,8,8h17.1C345.9,268.3,349.5,264.7,349.5,260.3z"/>
<path d="M461.2,252.3h-85.5c-4.4,0-8,3.6-8,8c0,4.4,3.6,8,8,8h85.5c4.4,0,8-3.6,8-8C469.2,255.8,465.7,252.3,461.2,252.3z"/>
<path d="M298.8,302.5h17.1c4.4,0,8-3.6,8-8c0-4.4-3.6-8-8-8h-17.1c-4.4,0-8,3.6-8,8C290.7,298.9,294.3,302.5,298.8,302.5z"/>
<path d="M323.9,362.9c0-4.4-3.6-8-8-8h-17.1c-4.4,0-8,3.6-8,8c0,4.4,3.6,8,8,8h17.1C320.3,370.9,323.9,367.3,323.9,362.9z"/>
<path d="M316.4,328.7c0,4.4,3.6,8,8,8h17.1c4.4,0,8-3.6,8-8c0-4.4-3.6-8-8-8h-17.1C320,320.7,316.4,324.3,316.4,328.7z"/>
<path d="M461.2,286.5H350.1c-4.4,0-8,3.6-8,8c0,4.4,3.6,8,8,8h111.2c4.4,0,8-3.6,8-8C469.2,290.1,465.7,286.5,461.2,286.5z"/>
<path d="M461.2,354.9H350.1c-4.4,0-8,3.6-8,8c0,4.4,3.6,8,8,8h111.2c4.4,0,8-3.6,8-8C469.2,358.5,465.7,354.9,461.2,354.9z"/>
<path d="M461.2,320.7h-85.5c-4.4,0-8,3.6-8,8c0,4.4,3.6,8,8,8h85.5c4.4,0,8-3.6,8-8C469.2,324.3,465.7,320.7,461.2,320.7z"/>
<path d="M341.5,389.1h-17.1c-4.4,0-8,3.6-8,8c0,4.4,3.6,8,8,8h17.1c4.4,0,8-3.6,8-8C349.5,392.7,345.9,389.1,341.5,389.1z"/>
<path d="M461.2,389.1h-85.5c-4.4,0-8,3.6-8,8c0,4.4,3.6,8,8,8h85.5c4.4,0,8-3.6,8-8C469.2,392.7,465.7,389.1,461.2,389.1z"/>
</svg>