<svg xmlns="http://www.w3.org/2000/svg" viewBox="0 0 72 72"><path d="M72,64c0,4.4-3.6,8-8,8H8c-4.4,0-8-3.6-8-8V8c0-4.4,3.6-8,8-8h56c4.4,0,8,3.6,8,8V64z" fill="#212121"/><g fill="#fff"><circle cx="32.9" cy="24.2" r="10.7"/><path d="M18.9 54.3l7.6 2c3.3.9 8.6.8 11.8-.2l3.1-.9c1.7 2 4.3 3.3 7.1 3.3a9.4 9.4 0 1 0 0-18.8c-.9 0-1.7.1-2.5.4-2-2.3-4.5-4.1-7.5-5.1-1.8 1-3.8 1.7-6.1 1.7-2.2 0-4.3-.6-6.1-1.7-5.7 1.8-9.8 6.1-11.9 11.8-1.1 3.2 1.2 6.7 4.5 7.5zM48.5 41c4.5 0 8.1 3.6 8.1 8.1s-3.6 8.1-8.1 8.1-8.1-3.6-8.1-8.1S44 41 48.5 41zM44 53.2c.3.3.7.5 1.1.5.3 0 .7-.1 1-.4l2.5-2.3 2.5 2.3c.3.3.6.4 1 .4s.8-.2 1.1-.5c.5-.6.5-1.5-.1-2l-2.3-2.1 2.3-2.1c.6-.5.6-1.5.1-2s-1.5-.6-2-.1l-2.5 2.3-2.7-2.3c-.6-.5-1.5-.5-2 .1s-.5 1.5.1 2l2.3 2.1-2.4 2.1c-.5.5-.6 1.4 0 2z"/></g></svg>