<svg xmlns="http://www.w3.org/2000/svg" xmlns:xlink="http://www.w3.org/1999/xlink" id="Layer_1" x="0" y="0" enable-background="new 0 0 512 512" version="1.1" viewBox="0 0 512 512" xml:space="preserve"><path fill="#73AF00" d="M112,0C50.144,0,0,50.144,0,112v278.737L388.414,0H112z"/><path fill="#4173CD" d="M400,512c61.856,0,112-50.144,112-112V121.263L123.586,512H400z"/><path fill="#FFE15A" d="M400,0h-16.861L0,383.14V400c0,61.856,50.144,112,112,112h16.861L512,128.86V112 C512,50.144,461.856,0,400,0z"/><path fill="#464655" d="M427.941,3.514L3.514,427.94c10.119,39.405,41.14,70.427,80.545,80.546L508.486,84.06 C498.367,44.655,467.346,13.633,427.941,3.514z"/></svg>