<svg xmlns="http://www.w3.org/2000/svg" xmlns:xlink="http://www.w3.org/1999/xlink" id="Layer_1" x="0" y="0" enable-background="new 0 0 512 512" version="1.1" viewBox="0 0 512 512" xml:space="preserve"><path fill="#464655" d="M400,0H112C59.335,0,15.167,36.354,3.203,85.333h505.594C496.833,36.354,452.665,0,400,0z"/><path fill="#FFE15A" d="M3.203,85.333C1.115,93.88,0,102.809,0,112v58.667h512V112c0-9.191-1.115-18.12-3.203-26.667H3.203z"/><rect width="512" height="85.33" y="170.67" fill="#FF4B55"/><rect width="512" height="85.33" y="256" fill="#464655"/><path fill="#FFE15A" d="M0,400c0,9.19,1.115,18.119,3.203,26.667h505.594C510.885,418.119,512,409.19,512,400v-58.667H0V400z"/><path fill="#FF4B55" d="M112,512h288c52.665,0,96.833-36.353,108.797-85.333H3.203C15.167,475.647,59.334,512,112,512z"/><circle cx="256" cy="256" r="80.84" fill="#F5F5F5"/><path fill="#FF4B55" d="M260.876,206.78l7.964-3.185c1.154-0.462,1.712-1.785,1.201-2.917 c-1.786-3.96-6.571-12.153-15.665-12.399c-5.759-0.156-10.064,1.142-12.494,2.144c-1.241,0.512-1.74,1.989-1.062,3.148l4.806,8.21 L260.876,206.78z"/><path fill="#FFE15A" d="M254.375,188.278c-0.662-0.018-1.26,0.021-1.883,0.039l-0.867,12.713l4.626,2.563l10.004-9.051 C263.619,191.353,259.757,188.423,254.375,188.278z"/><path fill="#464655" d="M288.629,281.538l-36.004-42.005c0-8.694,3.142-15.793,4.877-19.057 c4.956-2.213,8.151-7.663,6.822-13.679c-0.967-4.375-4.498-7.946-8.866-8.945c-7.859-1.797-14.835,4.125-14.835,11.677 c0,0.284,0.064,0.551,0.084,0.83c-7.766,2.048-9.21,4.546-9.21,4.546s5.09-1.354,9.508-2.511c0.089,0.36,0.207,0.708,0.327,1.055 l-8.71,2.957l9.512-1.158c1.056,1.932,2.622,3.539,4.513,4.649c-7.109,5.727-18.025,16.489-18.025,28.637 c0,11.109,8.229,18.511,18.591,23.433c3.622,1.721,6.953,3.992,9.691,6.922l0.102,0.109l0.902,13.791c-7.432,0-16.293,0-20.285,0 c-7.501,0-9.564,4.875-9.564,12.939l3.563-5.063l3,5.626l0.375-6.376l3.188,4.125c0,0-0.033-5.387,4.032-6.094 c2.156-0.375,9.628-0.844,15.972-0.844l1.344,20.551c-8.606-0.041-18.347,4.014-18.347,4.014c3-0.563,10.314,0.563,10.314,0.563 l-1.219,3.563c8.438-4.594,23.909-4.688,23.909-4.688s-3.375-2.301-11.251-3.202l0.182-20.8h12.381l1.875-4.875 c0,0-6.389-8.474-6.389-12.964C280.893,281.143,288.629,281.538,288.629,281.538z M263.159,292.789l0.063-7.135 c3.717,3.983,6.655,7.135,6.655,7.135S267.102,292.789,263.159,292.789z"/><path fill="#696E7D" d="M288.629,287.539c-3-12.001-16.149-15.69-30.003-24.003c-15.002-9.001-6.001-24.003-6.001-24.003 s50.256,14.752,54.006,36.004c2.921,16.551-9.001,27.003-15.002,30.003l2.156-6.001h-11.158c0,0,11.814-9.189,12.001-18.002 L288.629,287.539z"/><path fill="#FFFCFF" d="M306.631,275.537c-2.507-14.207-25.784-25.501-40.95-31.433l0,0 c-4.853-0.54-9.118,7.618,4.196,16.431c17.911,11.857,18.752,27.003,18.752,27.003l6.001-6.001 c-0.188,8.814-12.001,18.002-12.001,18.002h11.158l-2.156,6.001C297.63,302.54,309.552,292.088,306.631,275.537z"/><path fill="#FF4B55" d="M306.631,275.537c-1.662-9.416-12.452-17.541-23.953-23.684c-5.539-1.656-10.363-1.444-10.363-1.444 c3.375,2.063,4.875,7.313,4.875,7.313c-2.438-1.5-7.876-0.75-7.876-0.75c1.512,1.297,2.946,3.942,3.904,5.968 c14.667,11.401,15.411,24.597,15.411,24.597l6.001-6.001c-0.188,8.814-12.001,18.002-12.001,18.002h11.158l-2.156,6.001 C297.63,302.54,309.552,292.088,306.631,275.537z"/><circle cx="247.75" cy="208.41" r="2" fill="#F5F5F5"/><path fill="#FF4B55" d="M242.499,216.031c0,0-4.375,5.126-1.5,6.626s5.649-2.76,5.649-2.76L242.499,216.031z"/></svg>