<svg xmlns="http://www.w3.org/2000/svg" xmlns:xlink="http://www.w3.org/1999/xlink" id="Layer_1" x="0" y="0" enable-background="new 0 0 512 512" version="1.1" viewBox="0 0 512 512" xml:space="preserve"><path fill="#73AF00" d="M400,0H112C50.144,0,0,50.144,0,112v288c0,61.856,50.144,112,112,112h288 c61.856,0,112-50.144,112-112V112C512,50.144,461.856,0,400,0z"/><rect width="512" height="269.47" y="121.26" fill="#FFE15A"/><path fill="#FF4B55" d="M140.415,249.017L24.05,42.651C8.99,61.725,0,85.812,0,112v288c0,26.189,8.99,50.275,24.05,69.349 l116.365-206.365C142.422,259.414,142.422,252.586,140.415,249.017z"/><g><path fill="#464655" d="M230.663,203.329l10.031,30.076l31.704,0.246c4.105,0.032,5.807,5.27,2.505,7.708l-25.504,18.834 l9.563,30.228c1.238,3.914-3.218,7.151-6.557,4.764l-25.793-18.436l-25.793,18.436c-3.339,2.387-7.795-0.851-6.557-4.764 l9.563-30.228l-25.504-18.834c-3.302-2.438-1.6-7.677,2.505-7.708l31.704-0.246l10.031-30.076 C223.856,199.435,229.364,199.435,230.663,203.329z"/><path fill="#464655" d="M377.019,203.329l10.031,30.076l31.704,0.246c4.105,0.032,5.807,5.27,2.505,7.708l-25.504,18.834 l9.563,30.228c1.238,3.914-3.218,7.151-6.557,4.764l-25.793-18.436l-25.793,18.436c-3.339,2.387-7.795-0.851-6.557-4.764 l9.563-30.228l-25.504-18.834c-3.302-2.438-1.6-7.677,2.505-7.708l31.704-0.246l10.031-30.076 C370.212,199.435,375.72,199.435,377.019,203.329z"/></g></svg>