<svg xmlns="http://www.w3.org/2000/svg" xmlns:xlink="http://www.w3.org/1999/xlink" id="Layer_1" x="0" y="0" enable-background="new 0 0 512 512" version="1.1" viewBox="0 0 512 512" xml:space="preserve"><path fill="#F5F5F5" d="M400,0H112C50.144,0,0,50.144,0,112v288c0,61.856,50.144,112,112,112h288 c61.856,0,112-50.144,112-112V112C512,50.144,461.856,0,400,0z"/><g><path fill="#41479B" d="M350.316,256L38.103,27.845c-4.435,3.897-8.561,8.137-12.333,12.682l270.89,197.956H120.799H81.57 l26.187,29.209l203.33,226.791H51.838C69.216,505.572,89.857,512,112,512h238.316L120.799,256H350.316z"/><path fill="#41479B" d="M0,112v288c0,22.142,6.428,42.783,17.516,60.161V51.839C6.428,69.217,0,89.857,0,112z"/></g><path fill="#FF4B55" d="M107.757,267.692L81.57,238.483h39.229H296.66L25.77,40.527c-2.978,3.589-5.736,7.366-8.254,11.313 v408.321c8.799,13.79,20.533,25.524,34.322,34.323h259.249L107.757,267.692z"/><g><path fill="#F5F5F5" d="M102.79,317.66l10.787,22.258l20.47-13.883c0.903-0.613,2.115,0.087,2.036,1.176l-1.788,24.669 l24.669-1.788c1.089-0.079,1.788,1.133,1.176,2.036l-13.883,20.47l22.258,10.786c0.982,0.476,0.982,1.875,0,2.351l-22.258,10.786 l13.883,20.47c0.613,0.903-0.087,2.115-1.176,2.036l-24.669-1.788l1.788,24.669c0.079,1.089-1.133,1.788-2.036,1.176l-20.47-13.883 l-10.787,22.258c-0.476,0.982-1.875,0.982-2.351,0l-10.786-22.258l-20.47,13.883c-0.903,0.613-2.115-0.087-2.036-1.176 l1.788-24.669l-24.669,1.788c-1.089,0.079-1.788-1.133-1.176-2.036l13.883-20.47l-22.258-10.786c-0.982-0.476-0.982-1.875,0-2.351 l22.258-10.786l-13.883-20.47c-0.613-0.903,0.087-2.115,1.176-2.036l24.669,1.788l-1.788-24.669 c-0.079-1.089,1.133-1.788,2.036-1.176l20.47,13.883l10.786-22.258C100.914,316.678,102.314,316.678,102.79,317.66z"/><path fill="#F5F5F5" d="M130.795,188.935l-9.365-6.397l8.244-8.64l-11.748-2.143l4.018-11.244l-11.604,2.82l-0.904-11.906 l-9.453,7.295l-5.669-10.51l-5.669,10.51l-9.453-7.295l-0.904,11.906l-11.604-2.82l4.018,11.244l-11.748,2.143l8.244,8.64 l-9.365,6.397c-11.815-5.517-22.203-13.576-30.379-23.547c5.492,31.993,33.296,56.366,66.858,56.366s61.367-24.372,66.858-56.366 C152.998,175.359,142.61,183.419,130.795,188.935z"/></g></svg>