<?xml version="1.0" encoding="iso-8859-1"?>
<!-- Generator: Adobe Illustrator 19.0.0, SVG Export Plug-In . SVG Version: 6.00 Build 0)  -->
<svg xmlns:xlink="http://www.w3.org/1999/xlink" xmlns="http://www.w3.org/2000/svg" version="1.1" id="Layer_1" x="0px"
     y="0px" viewBox="0 0 512 512" style="enable-background:new 0 0 512 512;" xml:space="preserve">
<path style="fill:#41479B;"
      d="M32.804,32.804C12.541,53.067,0.007,81.057,0,111.976v288.048C0.013,461.869,50.152,512,112,512h288  c30.928,0,58.928-12.536,79.196-32.804L32.804,32.804z"/>
    <path style="fill:#73AF00;"
          d="M512,400V112C512,50.144,461.856,0,400,0H112C81.072,0,53.072,12.536,32.804,32.804l446.392,446.392  C499.464,458.928,512,430.928,512,400z"/>
    <path style="fill:#FFE15A;"
          d="M316.831,211.555c44.388,73.235-32.04,149.663-105.275,105.275  c-6.697-4.059-12.326-9.688-16.386-16.386c-44.388-73.235,32.04-149.663,105.275-105.275  C307.142,199.229,312.771,204.858,316.831,211.555z"/>
    <g>
	<path style="fill:#F5F5F5;"
          d="M44.838,327.549l3.064,7.761l7.978-2.443c0.443-0.136,0.824,0.341,0.593,0.743l-4.157,7.234   l6.884,4.714c0.382,0.262,0.247,0.857-0.212,0.927l-8.248,1.26l0.607,8.322c0.034,0.462-0.516,0.727-0.856,0.412l-6.128-5.663   l-6.128,5.663c-0.34,0.315-0.89,0.05-0.856-0.412l0.607-8.322l-8.248-1.26c-0.458-0.07-0.594-0.665-0.212-0.927l6.884-4.714   l-4.157-7.234c-0.231-0.402,0.149-0.879,0.593-0.743l7.978,2.443l3.064-7.761C44.057,327.118,44.668,327.118,44.838,327.549z"/>
        <path style="fill:#F5F5F5;"
              d="M156.416,306.628l3.064,7.761l7.978-2.443c0.443-0.136,0.824,0.341,0.593,0.743l-4.157,7.234   l6.884,4.714c0.382,0.262,0.247,0.857-0.212,0.927l-8.248,1.26l0.607,8.322c0.034,0.462-0.516,0.727-0.857,0.412l-6.128-5.663   l-6.128,5.663c-0.34,0.315-0.89,0.05-0.856-0.412l0.607-8.322l-8.248-1.26c-0.458-0.07-0.594-0.665-0.212-0.927l6.884-4.714   l-4.157-7.234c-0.231-0.402,0.149-0.879,0.593-0.743l7.978,2.443l3.064-7.761C155.636,306.197,156.246,306.197,156.416,306.628z"/>
        <path style="fill:#F5F5F5;"
              d="M100.627,256.318l3.064,7.761l7.978-2.443c0.443-0.136,0.824,0.341,0.593,0.743l-4.157,7.234   l6.884,4.714c0.382,0.262,0.247,0.857-0.211,0.927l-8.248,1.26l0.607,8.321c0.034,0.462-0.516,0.727-0.856,0.412l-6.128-5.663   l-6.128,5.663c-0.34,0.315-0.89,0.05-0.856-0.412l0.607-8.321l-8.248-1.26c-0.458-0.07-0.594-0.665-0.212-0.927l6.884-4.714   l-4.157-7.234c-0.231-0.402,0.149-0.879,0.593-0.743l7.978,2.443l3.064-7.761C99.847,255.887,100.457,255.887,100.627,256.318z"/>
        <path style="fill:#F5F5F5;"
              d="M100.627,439.127l3.064,7.761l7.978-2.443c0.443-0.136,0.824,0.341,0.593,0.743l-4.157,7.234   l6.884,4.714c0.382,0.262,0.247,0.857-0.211,0.927l-8.248,1.26l0.607,8.321c0.034,0.462-0.516,0.727-0.856,0.413l-6.128-5.663   l-6.128,5.663c-0.34,0.314-0.89,0.05-0.856-0.413l0.607-8.321l-8.248-1.26c-0.458-0.07-0.594-0.665-0.212-0.927l6.884-4.714   l-4.157-7.234c-0.231-0.402,0.149-0.879,0.593-0.743l7.978,2.443l3.064-7.761C99.847,438.696,100.457,438.696,100.627,439.127z"/>
        <path style="fill:#F5F5F5;"
              d="M123.462,334.572l2.139,6.413l6.76,0.052c0.524,0.004,0.741,0.672,0.32,0.984l-5.438,4.016   l2.039,6.446c0.158,0.499-0.411,0.912-0.837,0.608l-5.5-3.931l-5.5,3.931c-0.426,0.305-0.995-0.109-0.837-0.608l2.039-6.446   l-5.438-4.016c-0.421-0.311-0.204-0.98,0.32-0.984l6.76-0.052l2.139-6.413C122.594,334.075,123.297,334.075,123.462,334.572z"/>
</g>
    <path style="fill:#73AF00;"
          d="M212.115,224.182c-3.025-0.706-6.065,7.076-2.696,9.772s9.435,7.75,5.728,10.783  c-3.706,3.033-5.054,3.37-5.728,7.076c-0.674,3.706,0,4.38-3.033,6.065s-10.109,5.054-7.076,8.424  c3.033,3.37,7.076,1.348,9.772-4.043c0,0,18.87-0.674,19.543,0.674c0.674,1.348,2.359,6.402,6.402,5.054  c4.044-1.348,4.044-1.348,4.044-1.348s2.359-1.011,4.043,1.011c1.685,2.022,5.728,2.696,10.446,2.696  c4.717,0,8.761,2.696,8.424,9.098c-0.216,4.101-1.261,12.628-1.985,18.227c-0.388,2.998,1.669,5.757,4.651,6.254l8.628,1.438  c2.269,0.378,4.379-1.242,4.58-3.534c0.406-4.61,0.993-11.363,0.973-11.602c-0.194-2.422,4.717-14.826,4.38-20.554  s-0.337-5.728-0.337-5.728s5.054-0.674,7.076-4.043c2.022-3.37,6.402-11.793,15.163-14.826l2.359-5.728c0,0-6.739-3.033-5.391-5.054  c1.348-2.022,2.022-7.413,1.011-11.793c-1.011-4.38-1.348-10.446-1.348-10.446s-2.402-1.015-2.91,0.381  c-0.507,1.395-1.015,2.157-2.283,1.903c-1.268-0.254-3.171-0.381-3.679-1.522c-0.508-1.142-1.903-2.283-3.171-1.649  c-1.268,0.634-3.425,9.133-6.469,10.021c0,0-0.254-3.679-2.156-2.918s-1.776,2.537-2.03,5.708s-21.565,24.61-40.213,18.901  c0,0-2.03-4.059-6.216-3.679c-4.186,0.381-8.245,0.254-10.656-2.664C219.551,233.617,215.714,225.023,212.115,224.182z"/>
    <path style="fill:#FFE15A;"
          d="M305.597,180.72c4.024,4.276,48.24,16.316,92.932-7.094c44.693-23.41,71.295-30.15,71.295-30.15  s0.355-6.03,5.853-6.917s2.838-3.192,1.419-4.966s-8.335-6.562-17.735-2.483c0,0-10.937,0.414-12.592-14.72  s-2.365-30.504-6.148-37.126c-3.784-6.621-34.997-39.727-38.781-37.126c-3.783,2.601,9.459,35.47,21.755,47.057  c0,0,2.838,20.336-0.709,21.282s-23.174-17.026-58.171-21.282c0,0,14.897,20.336,33.106,28.849  c18.208,8.513,23.174,16.316,22.701,19.627c-0.473,3.311-6.621,19.154-16.789,26.484c-10.168,7.331-35.707,27.194-93.642,16.789  C310.09,178.947,303.705,178.71,305.597,180.72z"/>
    <g>
</g>
    <g>
</g>
    <g>
</g>
    <g>
</g>
    <g>
</g>
    <g>
</g>
    <g>
</g>
    <g>
</g>
    <g>
</g>
    <g>
</g>
    <g>
</g>
    <g>
</g>
    <g>
</g>
    <g>
</g>
    <g>
</g>
</svg>
