<svg xmlns="http://www.w3.org/2000/svg" xmlns:xlink="http://www.w3.org/1999/xlink" id="Layer_1" x="0" y="0" enable-background="new 0 0 512 512" version="1.1" viewBox="0 0 512 512" xml:space="preserve"><path fill="#F5F5F5" d="M511.989,400V112c0-61.856-50.144-112-112-112h-288C51.239,0,1.79,48.368,0.041,108.695v294.61 C1.79,463.632,51.239,512,111.989,512h288C461.845,512,511.989,461.856,511.989,400z"/><g><path fill="#464655" d="M256.041,0H111.989c-30.915,0-58.904,12.525-79.17,32.778L256.041,256V0z"/><path fill="#464655" d="M511.989,256V112c0-30.926-12.535-58.925-32.801-79.193L256.041,256H511.989z"/><path fill="#464655" d="M0.041,256l-0.03,145.781c0.472,30.222,12.905,57.54,32.785,77.418L256.041,256H0.041z"/><path fill="#464655" d="M256.041,512h143.948c30.93,0,58.931-12.538,79.199-32.808L256.041,256V512z"/></g><path fill="#FF4B55" d="M288.378,237.137v43.116c0,17.831-14.506,32.337-32.337,32.337s-32.337-14.506-32.337-32.337v-43.116 H288.378 M299.157,215.579h-86.232c-5.953,0-10.779,4.826-10.779,10.779v53.895c0,29.765,24.13,53.895,53.895,53.895 s53.895-24.13,53.895-53.895v-53.895C309.936,220.405,305.11,215.579,299.157,215.579L299.157,215.579z"/><path fill="#F5F5F5" d="M288.378,237.137v43.116c0,17.831-14.506,32.337-32.337,32.337s-32.337-14.506-32.337-32.337v-43.116 H288.378"/><g><path fill="#FFE15A" d="M217.143,222.912c3.554,5.467-2.281,11.302-7.748,7.748c-0.34-0.221-0.635-0.516-0.856-0.856 c-3.554-5.467,2.281-11.302,7.748-7.748C216.627,222.277,216.922,222.572,217.143,222.912z"/><path fill="#FFE15A" d="M303.375,222.912c3.554,5.467-2.281,11.302-7.748,7.748c-0.34-0.221-0.635-0.516-0.856-0.856 c-3.554-5.467,2.281-11.302,7.748-7.748C302.859,222.277,303.154,222.572,303.375,222.912z"/><path fill="#FFE15A" d="M217.143,266.027c3.554,5.467-2.281,11.302-7.748,7.748c-0.34-0.221-0.635-0.516-0.856-0.856 c-3.554-5.467,2.281-11.302,7.748-7.748C216.627,265.393,216.922,265.687,217.143,266.027z"/><path fill="#FFE15A" d="M303.375,266.027c3.554,5.467-2.281,11.302-7.748,7.748c-0.34-0.221-0.635-0.516-0.856-0.856 c-3.554-5.467,2.281-11.302,7.748-7.748C302.859,265.393,303.154,265.687,303.375,266.027z"/><path fill="#FFE15A" d="M260.259,222.912c3.554,5.467-2.281,11.302-7.748,7.748c-0.34-0.221-0.635-0.516-0.856-0.856 c-3.554-5.467,2.281-11.302,7.748-7.748C259.743,222.277,260.038,222.572,260.259,222.912z"/><path fill="#FFE15A" d="M260.259,320.345c3.554,5.467-2.281,11.302-7.748,7.748c-0.34-0.221-0.635-0.516-0.856-0.856 c-3.554-5.467,2.281-11.302,7.748-7.748C259.743,319.71,260.038,320.005,260.259,320.345z"/><path fill="#FFE15A" d="M292.618,305.775c3.554,5.467-2.281,11.302-7.748,7.748c-0.34-0.221-0.635-0.516-0.856-0.856 c-3.554-5.467,2.281-11.302,7.748-7.748C292.102,305.14,292.397,305.435,292.618,305.775z"/><path fill="#FFE15A" d="M228.535,305.775c3.554,5.467-2.281,11.302-7.748,7.748c-0.34-0.221-0.635-0.516-0.856-0.856 c-3.554-5.467,2.281-11.302,7.748-7.748C228.019,305.14,228.314,305.435,228.535,305.775z"/></g><g><path fill="#41479B" d="M263.003,266.741v9.282c0,3.839-3.123,6.961-6.961,6.961c-3.838,0-6.961-3.123-6.961-6.961v-9.282 H263.003"/><path fill="#41479B" d="M263.003,244.734v9.282c0,3.839-3.123,6.961-6.961,6.961c-3.838,0-6.961-3.123-6.961-6.961v-9.282 H263.003"/><path fill="#41479B" d="M263.003,288.973v9.282c0,3.839-3.123,6.961-6.961,6.961c-3.838,0-6.961-3.123-6.961-6.961v-9.282 H263.003"/><path fill="#41479B" d="M281.754,266.741v9.282c0,3.839-3.123,6.961-6.961,6.961s-6.961-3.123-6.961-6.961v-9.282H281.754"/><path fill="#41479B" d="M244.252,266.741v9.282c0,3.839-3.123,6.961-6.961,6.961c-3.839,0-6.961-3.123-6.961-6.961v-9.282 H244.252"/></g><path fill="#FFE15A" d="M310.797,215.579H201.819c-2.079,0-3.765-1.686-3.765-3.765v-9.115c0-2.079,1.686-3.765,3.765-3.765 h108.978c2.079,0,3.765,1.686,3.765,3.765v9.115C314.562,213.893,312.876,215.579,310.797,215.579z"/><polygon fill="#FF4B55" points="256.308 203.096 247.986 207.257 256.308 211.418 264.63 207.257"/><g><ellipse cx="283.36" cy="207.26" fill="#4173CD" rx="6.241" ry="4.161"/><ellipse cx="229.26" cy="207.26" fill="#4173CD" rx="6.241" ry="4.161"/></g><g><path fill="#F5F5F5" d="M272.562,205.973c1.299,2.081-0.893,4.273-2.974,2.974c-0.162-0.101-0.306-0.245-0.407-0.407 c-1.299-2.081,0.893-4.273,2.974-2.974C272.317,205.667,272.461,205.811,272.562,205.973z"/><path fill="#F5F5F5" d="M297.528,205.973c1.299,2.081-0.893,4.273-2.974,2.974c-0.162-0.101-0.306-0.245-0.407-0.407 c-1.299-2.081,0.893-4.273,2.974-2.974C297.283,205.667,297.427,205.811,297.528,205.973z"/><path fill="#F5F5F5" d="M243.435,205.973c1.299,2.081-0.893,4.273-2.974,2.974c-0.162-0.101-0.306-0.245-0.407-0.407 c-1.299-2.081,0.893-4.273,2.974-2.974C243.19,205.667,243.334,205.811,243.435,205.973z"/><path fill="#F5F5F5" d="M218.469,205.973c1.299,2.081-0.893,4.273-2.974,2.974c-0.162-0.101-0.306-0.245-0.407-0.407 c-1.299-2.081,0.893-4.273,2.974-2.974C218.224,205.667,218.368,205.811,218.469,205.973z"/></g><g><polygon fill="#FF4B55" points="198.054 205.176 198.054 209.337 202.215 211.418 210.537 207.257 202.215 203.096"/><polygon fill="#FF4B55" points="314.562 209.337 314.562 205.176 310.401 203.096 302.079 207.257 310.401 211.418"/></g><g><path fill="#F5F5F5" d="M228.617,171.868c-1.327-0.654-2.906-0.252-4.234,0.776c0.682-1.009,1.073-2.354,0.999-3.819 c-0.152-2.977-2.135-5.295-4.43-5.178s-4.033,2.624-3.881,5.6c0.08,1.582,0.697,2.942,1.584,3.886 c-1.792-0.875-3.752-0.789-4.95,0.409c-1.625,1.624-1.234,4.651,0.873,6.758c2.107,2.108,5.133,2.499,6.758,0.874 c0.454-0.454,0.713-1.028,0.859-1.65c0.331,0.87,0.842,1.625,1.652,2.025c2.061,1.016,4.8-0.328,6.118-3.001 C231.282,175.875,230.679,172.884,228.617,171.868z M222.5,174.87c-0.305,0.619-0.484,1.255-0.589,1.88 c-0.31-0.821-0.746-1.629-1.449-2.332c-0.121-0.122-0.268-0.179-0.395-0.29c0.456,0.189,0.932,0.324,1.434,0.299 c0.674-0.035,1.272-0.321,1.815-0.718C223.026,174.075,222.72,174.423,222.5,174.87z"/><path fill="#F5F5F5" d="M282.118,178.548c1.317,2.673,4.056,4.017,6.118,3.001c0.81-0.399,1.32-1.154,1.652-2.025 c0.146,0.622,0.405,1.196,0.859,1.65c1.625,1.625,4.651,1.234,6.758-0.874c2.107-2.107,2.499-5.133,0.873-6.758 c-1.198-1.199-3.158-1.284-4.95-0.409c0.887-0.943,1.504-2.304,1.585-3.886c0.151-2.977-1.586-5.484-3.881-5.6 c-2.295-0.117-4.278,2.201-4.43,5.178c-0.075,1.465,0.316,2.81,0.999,3.819c-1.329-1.028-2.907-1.43-4.234-0.776 C281.404,172.884,280.8,175.875,282.118,178.548z M288.767,173.708c0.544,0.397,1.142,0.684,1.815,0.718 c0.502,0.025,0.978-0.11,1.434-0.299c-0.127,0.11-0.274,0.168-0.395,0.29c-0.703,0.703-1.139,1.512-1.449,2.332 c-0.105-0.625-0.283-1.261-0.589-1.88C289.363,174.423,289.056,174.075,288.767,173.708z"/></g><path fill="#FFE15A" d="M331.981,159.645c-5.994-2.133-18.603-3.275-23.401,7.619c-0.927,2.105,0.026,4.559,2.129,5.486 c2.033,0.897,4.369,0.009,5.363-1.956l1.569,1.858c-1.312,3.688-1.839,6.987-1.986,8.123c-2.141,8.875-10.38,9.838-13.842,9.838 c-5.585,0-8.743-5.986-8.773-6.046c-0.569-1.101-1.609-1.902-2.822-2.166c-1.217-0.264-2.487,0.016-3.462,0.78 c-2.28,1.792-9.372,6.632-14.724,7.485c-2.58,0.415-4.685-0.016-6.107-1.235c-1.152-0.983-1.56-2.219-1.56-2.979 c0-1.865,2.294-4.161,4.161-4.161c1.414,0,1.956,0.906,1.956,0.906c0.988,2.089,3.47,2.97,5.545,1.991 c2.078-0.987,2.964-3.466,1.981-5.542c-0.807-1.707-3.032-4.339-6.685-5.292c2.22-3.522,4.259-7.804,5.525-12.867l-12.483-4.161 c0,0,4.161-12.483-8.322-12.483s-8.322,12.483-8.322,12.483l-12.483,4.161c1.266,5.063,3.305,9.345,5.525,12.867 c-3.653,0.953-5.878,3.586-6.685,5.292c-0.983,2.076-0.098,4.555,1.981,5.542c2.074,0.979,4.557,0.098,5.54-1.983 c0,0,0.546-0.914,1.961-0.914c1.867,0,4.161,2.296,4.161,4.161c0,0.76-0.408,1.995-1.56,2.979c-1.422,1.219-3.527,1.65-6.107,1.235 c-5.352-0.853-12.444-5.693-14.724-7.485c-0.975-0.764-2.245-1.044-3.462-0.78c-1.213,0.264-2.253,1.065-2.822,2.166 c-0.03,0.061-3.188,6.046-8.773,6.046c-3.462,0-11.701-0.963-13.842-9.838c-0.147-1.136-0.674-4.435-1.986-8.123l1.569-1.858 c0.993,1.965,3.33,2.853,5.363,1.956c2.103-0.926,3.056-3.381,2.129-5.486c-4.799-10.894-17.408-9.752-23.402-7.619 c-1.717,0.609-2.838,2.263-2.767,4.084c0.069,1.82,1.316,3.381,3.076,3.856c5.098,1.369,7.385,11.114,7.784,14.417 c0.018,0.142,0.045,0.293,0.075,0.435c2.326,10.175,10.758,16.498,22.002,16.498c6.445,0,10.9-3.649,13.487-6.672 c3.645,2.401,9.51,5.75,14.986,6.619c1.05,0.167,2.078,0.252,3.082,0.252c3.759,0,7.141-1.158,9.736-3.373 c2.806-2.393,4.48-5.876,4.48-9.309c0,3.434,1.674,6.916,4.48,9.309c2.595,2.215,5.977,3.373,9.736,3.373 c1.004,0,2.032-0.085,3.082-0.252c5.475-0.87,11.341-4.218,14.986-6.619c2.586,3.023,7.042,6.672,13.487,6.672 c11.244,0,19.675-6.323,22.002-16.498c0.03-0.142,0.057-0.293,0.075-0.435c0.398-3.304,2.686-13.048,7.784-14.417 c1.76-0.475,3.007-2.036,3.076-3.856C334.82,161.908,333.698,160.255,331.981,159.645z"/><g><ellipse cx="186.174" cy="173.977" fill="#4173CD" rx="4.161" ry="6.241" transform="matrix(-0.9237 0.3831 -0.3831 -0.9237 424.7957 263.3565)"/><ellipse cx="325.914" cy="173.974" fill="#4173CD" rx="4.161" ry="6.241" transform="matrix(0.9237 0.3831 -0.3831 0.9237 91.5153 -111.5852)"/><ellipse cx="256.04" cy="169.81" fill="#4173CD" rx="6.241" ry="8.322"/></g></svg>