<?xml version="1.0" encoding="iso-8859-1"?>
<!-- Generator: Adobe Illustrator 19.0.0, SVG Export Plug-In . SVG Version: 6.00 Build 0)  -->
<svg xmlns:xlink="http://www.w3.org/1999/xlink" xmlns="http://www.w3.org/2000/svg" version="1.1" id="Layer_1" x="0px"
     y="0px" viewBox="0 0 512 512" style="enable-background:new 0 0 512 512;" xml:space="preserve">
<path style="fill:#41479B;"
      d="M400,0H112C50.144,0,0,50.144,0,112v288c0,61.856,50.144,112,112,112h288  c61.856,0,112-50.144,112-112V112C512,50.144,461.856,0,400,0z"/>
    <g>
	<polygon style="fill:#F5F5F5;"
             points="148.21,256.046 161.684,256.046 161.684,174.276 256,236.069 256,216.105 172.232,161.73    196.98,161.73 256,200.041 256,187.747 216.29,161.73 256,161.73 256,148.257 148.21,148.257  "/>
        <polygon style="fill:#F5F5F5;"
                 points="94.316,256.046 107.789,256.046 107.789,148.257 0,148.257 0,161.73 39.71,161.73    0,187.747 0,206.647 69.197,161.73 93.945,161.73 0,222.712 0,236.069 94.316,174.276  "/>
        <path style="fill:#F5F5F5;"
              d="M107.789,0.087c-4.566,0.169-9.063,0.608-13.474,1.308v80.421l-66.561-43.61   c-4.003,4.567-7.639,9.463-10.867,14.641l63.955,41.515H56.094l-45.65-29.633c-1.25,2.68-2.398,5.416-3.437,8.207L39.71,94.362   H1.387c-0.698,4.411-1.135,8.907-1.302,13.474h107.704V0.087z"/>
        <polygon style="fill:#F5F5F5;"
                 points="256,107.836 256,94.362 216.29,94.362 256,68.345 256,49.203 186.432,94.362    161.684,94.362 256,33.138 256,20.023 161.684,81.816 161.684,0.046 148.21,0.046 148.21,107.836  "/>
</g>
    <g>
	<path style="fill:#FF4B55;"
          d="M107.789,256.046h40.421v-107.79H256v-40.421H148.21V0.046h-39.347   c-0.359,0.01-0.716,0.027-1.074,0.041v107.749H0.085C0.034,109.218,0,110.605,0,112v36.256h107.789V256.046z"/>
        <polygon style="fill:#FF4B55;" points="69.197,161.73 0,206.647 0,222.712 93.945,161.73  "/>
        <polygon style="fill:#FF4B55;" points="172.232,161.73 256,216.105 256,200.041 196.98,161.73  "/>
        <path style="fill:#FF4B55;"
              d="M80.842,94.362L16.887,52.847c-2.377,3.813-4.53,7.78-6.443,11.882l45.65,29.633H80.842z"/>
        <polygon style="fill:#FF4B55;" points="186.432,94.362 256,49.203 256,33.138 161.684,94.362  "/>
</g>
    <g>
	<path style="fill:#F5F5F5;"
          d="M366.172,241.595l3.447,10.335l10.895,0.085c0.844,0.007,1.194,1.084,0.515,1.585l-8.764,6.472   l3.286,10.387c0.255,0.805-0.662,1.47-1.348,0.98l-8.863-6.335l-8.863,6.335c-0.687,0.491-1.603-0.175-1.348-0.98l3.286-10.387   l-8.764-6.472c-0.679-0.501-0.329-1.579,0.515-1.585l10.895-0.085l3.447-10.335C364.772,240.795,365.905,240.795,366.172,241.595z"/>
        <path style="fill:#F5F5F5;"
              d="M319.847,254.307l7.353,8.04l9.987-4.354c0.774-0.337,1.531,0.504,1.115,1.238l-5.374,9.477   l7.227,8.153c0.56,0.632-0.006,1.612-0.833,1.443l-10.674-2.183l-5.52,9.393c-0.428,0.728-1.536,0.492-1.63-0.346l-1.223-10.826   l-10.639-2.348c-0.824-0.182-0.943-1.308-0.174-1.657l9.918-4.508l-1.055-10.844C318.242,254.145,319.277,253.684,319.847,254.307z   "/>
        <path style="fill:#F5F5F5;"
              d="M282.697,284.762l9.987,4.354l7.353-8.04c0.57-0.623,1.604-0.162,1.523,0.678l-1.055,10.844   l9.918,4.508c0.768,0.349,0.65,1.476-0.174,1.658l-10.639,2.348l-1.223,10.826c-0.095,0.839-1.202,1.074-1.63,0.347l-5.52-9.393   l-10.674,2.182c-0.827,0.169-1.393-0.812-0.833-1.443l7.227-8.153L281.582,286C281.165,285.266,281.923,284.424,282.697,284.762z"/>
        <path style="fill:#F5F5F5;"
              d="M261.146,327.694l10.895-0.084l3.447-10.335c0.267-0.801,1.4-0.801,1.667,0l3.447,10.335   l10.895,0.084c0.844,0.007,1.194,1.084,0.515,1.585l-8.764,6.472l3.286,10.387c0.255,0.805-0.662,1.47-1.348,0.98l-8.863-6.335   l-8.863,6.335c-0.687,0.491-1.603-0.175-1.348-0.98l3.286-10.387l-8.764-6.472C259.952,328.777,260.302,327.7,261.146,327.694z"/>
        <path style="fill:#F5F5F5;"
              d="M258.92,375.68l9.918-4.508l-1.055-10.844c-0.082-0.84,0.953-1.301,1.523-0.678l7.353,8.04   l9.987-4.354c0.774-0.337,1.532,0.504,1.115,1.238l-5.374,9.477l7.227,8.153c0.56,0.632-0.006,1.612-0.833,1.443l-10.674-2.182   l-5.52,9.393c-0.428,0.728-1.535,0.492-1.63-0.346l-1.223-10.826l-10.639-2.348C258.27,377.155,258.152,376.029,258.92,375.68z"/>
        <path style="fill:#F5F5F5;"
              d="M276.405,420.422l7.227-8.153l-5.374-9.477c-0.416-0.734,0.341-1.576,1.115-1.239l9.987,4.354   l7.353-8.04c0.57-0.623,1.604-0.162,1.523,0.678l-1.055,10.844l9.918,4.508c0.768,0.349,0.65,1.476-0.174,1.658l-10.639,2.348   l-1.223,10.826c-0.095,0.839-1.203,1.074-1.63,0.346l-5.52-9.393l-10.674,2.182C276.411,422.035,275.845,421.054,276.405,420.422z"/>
        <path style="fill:#F5F5F5;"
              d="M310.576,454.185l3.286-10.387l-8.764-6.472c-0.679-0.501-0.329-1.579,0.515-1.585l10.895-0.084   l3.447-10.335c0.267-0.801,1.4-0.801,1.667,0l3.447,10.335l10.895,0.084c0.844,0.007,1.194,1.084,0.515,1.585l-8.764,6.472   L331,454.185c0.255,0.805-0.662,1.47-1.348,0.98l-8.863-6.335l-8.864,6.335C311.238,455.655,310.321,454.99,310.576,454.185z"/>
        <path style="fill:#F5F5F5;"
              d="M355.526,471.13l-1.223-10.826l-10.639-2.348c-0.824-0.182-0.943-1.308-0.174-1.658l9.918-4.508   l-1.055-10.844c-0.082-0.84,0.953-1.301,1.523-0.678l7.353,8.04l9.987-4.354c0.774-0.337,1.532,0.504,1.115,1.238l-5.374,9.477   l7.227,8.153c0.56,0.632-0.006,1.612-0.833,1.443l-10.674-2.182l-5.52,9.393C356.728,472.204,355.62,471.969,355.526,471.13z"/>
        <path style="fill:#F5F5F5;"
              d="M403.481,468.328l-5.52-9.393l-10.674,2.183c-0.827,0.169-1.393-0.812-0.833-1.443l7.227-8.153   l-5.374-9.477c-0.416-0.734,0.341-1.576,1.115-1.239l9.987,4.354l7.353-8.04c0.57-0.623,1.604-0.162,1.523,0.678l-1.055,10.844   l9.918,4.508c0.768,0.349,0.65,1.476-0.174,1.658l-10.639,2.348l-1.223,10.826C405.017,468.82,403.909,469.056,403.481,468.328z"/>
        <path style="fill:#F5F5F5;"
              d="M446.151,446.262l-8.863-6.335l-8.864,6.335c-0.687,0.491-1.603-0.175-1.348-0.98l3.286-10.387   l-8.764-6.472c-0.679-0.501-0.329-1.578,0.515-1.585l10.895-0.084l3.447-10.335c0.267-0.801,1.4-0.801,1.667,0l3.447,10.335   l10.895,0.084c0.844,0.007,1.194,1.084,0.515,1.585l-8.764,6.472l3.286,10.387C447.754,446.087,446.838,446.753,446.151,446.262z"/>
        <path style="fill:#F5F5F5;"
              d="M476.157,408.749l-10.674-2.182l-5.52,9.393c-0.428,0.728-1.535,0.492-1.63-0.346l-1.223-10.826   l-10.639-2.348c-0.824-0.182-0.943-1.308-0.174-1.658l9.918-4.508l-1.055-10.844c-0.082-0.84,0.953-1.301,1.523-0.678l7.353,8.04   l9.987-4.354c0.774-0.337,1.532,0.504,1.115,1.239l-5.374,9.477l7.227,8.153C477.55,407.938,476.984,408.918,476.157,408.749z"/>
        <path style="fill:#F5F5F5;"
              d="M488.311,362.275l-10.639,2.348l-1.223,10.826c-0.095,0.839-1.203,1.074-1.63,0.346l-5.52-9.393   l-10.674,2.182c-0.827,0.169-1.393-0.812-0.833-1.443l7.227-8.153l-5.374-9.477c-0.416-0.734,0.341-1.576,1.115-1.239l9.987,4.354   l7.353-8.04c0.57-0.623,1.604-0.162,1.523,0.678l-1.055,10.844l9.918,4.508C489.253,360.966,489.135,362.093,488.311,362.275z"/>
        <path style="fill:#F5F5F5;"
              d="M480.511,314.875l-8.764,6.472l3.286,10.387c0.255,0.805-0.662,1.47-1.348,0.98l-8.863-6.335   l-8.863,6.335c-0.687,0.491-1.603-0.175-1.348-0.98l3.286-10.387l-8.764-6.472c-0.679-0.501-0.329-1.578,0.515-1.585l10.894-0.084   l3.447-10.335c0.267-0.801,1.4-0.801,1.667,0l3.447,10.335l10.895,0.084C480.84,313.296,481.19,314.373,480.511,314.875z"/>
        <path style="fill:#F5F5F5;"
              d="M454.106,274.745l-5.374,9.477l7.227,8.153c0.56,0.632-0.006,1.612-0.833,1.443l-10.674-2.182   l-5.52,9.393c-0.428,0.728-1.535,0.492-1.63-0.346l-1.223-10.826l-10.639-2.348c-0.824-0.182-0.943-1.308-0.174-1.658l9.918-4.508   l-1.055-10.844c-0.082-0.84,0.953-1.301,1.523-0.678l7.353,8.04l9.987-4.354C453.765,273.169,454.522,274.011,454.106,274.745z"/>
        <path style="fill:#F5F5F5;"
              d="M413.662,248.825l-1.055,10.844l9.918,4.508c0.768,0.349,0.65,1.476-0.174,1.658l-10.639,2.348   l-1.223,10.826c-0.095,0.839-1.203,1.074-1.63,0.346l-5.52-9.393l-10.674,2.182c-0.827,0.169-1.393-0.812-0.833-1.443l7.227-8.153   l-5.374-9.477c-0.416-0.734,0.342-1.576,1.115-1.239l9.987,4.354l7.353-8.04C412.709,247.524,413.744,247.985,413.662,248.825z"/>
        <path style="fill:#F5F5F5;"
              d="M366.172,241.595l3.447,10.335l10.895,0.085c0.844,0.007,1.194,1.084,0.515,1.585l-8.764,6.472   l3.286,10.387c0.255,0.805-0.662,1.47-1.348,0.98l-8.863-6.335l-8.863,6.335c-0.687,0.491-1.603-0.175-1.348-0.98l3.286-10.387   l-8.764-6.472c-0.679-0.501-0.329-1.579,0.515-1.585l10.895-0.085l3.447-10.335C364.772,240.795,365.905,240.795,366.172,241.595z"/>
</g>
    <g>
</g>
    <g>
</g>
    <g>
</g>
    <g>
</g>
    <g>
</g>
    <g>
</g>
    <g>
</g>
    <g>
</g>
    <g>
</g>
    <g>
</g>
    <g>
</g>
    <g>
</g>
    <g>
</g>
    <g>
</g>
    <g>
</g>
</svg>
