<svg xmlns="http://www.w3.org/2000/svg" xmlns:xlink="http://www.w3.org/1999/xlink" id="Layer_1" x="0" y="0" enable-background="new 0 0 512 512" version="1.1" viewBox="0 0 512 512" xml:space="preserve"><path fill="#FF4B55" d="M400,0H112C50.144,0,0,50.144,0,112v58.092h512V112C512,50.144,461.856,0,400,0z"/><path fill="#464655" d="M0,400c0,61.856,50.144,112,112,112h288c61.856,0,112-50.144,112-112v-58.092H0V400z"/><rect width="512" height="171.82" y="170.09" fill="#F5F5F5"/><g><path fill="#73AF00" d="M150.03,223.314l7.36,22.068l23.262,0.18c3.012,0.023,4.261,3.867,1.838,5.656l-18.714,13.819 l7.017,22.18c0.909,2.872-2.361,5.247-4.811,3.496l-18.926-13.527l-18.925,13.527c-2.45,1.751-5.72-0.624-4.811-3.496l7.017-22.18 l-18.714-13.819c-2.423-1.789-1.174-5.633,1.838-5.656l23.262-0.18l7.36-22.068C145.036,220.456,149.077,220.456,150.03,223.314z"/><path fill="#73AF00" d="M367.917,223.314l7.36,22.068l23.262,0.18c3.012,0.023,4.26,3.867,1.838,5.656l-18.714,13.819 l7.017,22.18c0.909,2.872-2.361,5.247-4.811,3.496l-18.926-13.527l-18.926,13.527c-2.45,1.751-5.72-0.624-4.811-3.496l7.017-22.18 l-18.714-13.819c-2.423-1.789-1.174-5.633,1.838-5.656l23.262-0.18l7.36-22.068C362.923,220.456,366.964,220.456,367.917,223.314z"/></g></svg>