<?xml version="1.0" encoding="iso-8859-1"?>
<!-- Generator: Adobe Illustrator 19.0.0, SVG Export Plug-In . SVG Version: 6.00 Build 0)  -->
<svg xmlns:xlink="http://www.w3.org/1999/xlink" xmlns="http://www.w3.org/2000/svg" version="1.1" id="Layer_1" x="0px"
     y="0px" viewBox="0 0 512 512" style="enable-background:new 0 0 512 512;" xml:space="preserve">
<path style="fill:#73AF00;"
      d="M400,0h-288c-61.856,0-112,50.144-112,112v288c0,61.856,50.144,112,112,112h288  c61.827,0,111.952-50.097,111.999-111.913V111.913C511.953,50.097,461.828,0,400,0z"/>
    <g>
	<path style="fill:#FFE15A;"
          d="M273.284,371.945c-28.522,0-51.645-23.122-51.645-51.645c0-28.523,23.122-51.644,51.645-51.644   c3.784,0,7.452,0.453,10.987,1.264c1.409,0.323,2.156-1.568,0.927-2.33c-10.816-6.706-23.841-10.184-37.744-9.053   c-30.263,2.462-54.593,27.134-56.653,57.427c-2.462,36.188,26.164,66.309,61.826,66.309c11.954,0,23.11-3.397,32.573-9.264   c1.23-0.762,0.485-2.653-0.925-2.33C280.74,371.492,277.07,371.945,273.284,371.945z"/>
        <path style="fill:#FFE15A;"
              d="M318.297,276.572l3.878,9.824l10.099-3.093c0.561-0.172,1.043,0.432,0.75,0.941l-5.262,9.157   l8.715,5.967c0.484,0.332,0.312,1.085-0.268,1.173l-10.44,1.595l0.768,10.534c0.043,0.585-0.653,0.92-1.084,0.522l-7.757-7.168   l-7.757,7.168c-0.431,0.398-1.127,0.063-1.084-0.522l0.768-10.534l-10.44-1.595c-0.58-0.089-0.752-0.842-0.268-1.173l8.715-5.967   l-5.262-9.157c-0.292-0.509,0.189-1.113,0.75-0.941l10.099,3.093l3.878-9.824C317.31,276.026,318.083,276.026,318.297,276.572z"/>
        <path style="fill:#FFE15A;"
              d="M459.539,250.089l3.878,9.824l10.099-3.093c0.561-0.172,1.043,0.432,0.75,0.941l-5.262,9.157   l8.715,5.967c0.484,0.332,0.312,1.085-0.268,1.173l-10.44,1.595l0.768,10.534c0.043,0.585-0.653,0.92-1.084,0.522l-7.757-7.168   l-7.757,7.168c-0.431,0.398-1.127,0.063-1.084-0.522l0.768-10.534l-10.44-1.595c-0.58-0.089-0.752-0.842-0.268-1.173l8.714-5.967   l-5.262-9.157c-0.292-0.509,0.189-1.113,0.75-0.941l10.099,3.093l3.878-9.824C458.552,249.544,459.323,249.544,459.539,250.089z"/>
        <path style="fill:#FFE15A;"
              d="M388.919,186.404l3.878,9.824l10.099-3.093c0.561-0.172,1.043,0.432,0.75,0.941l-5.262,9.157   l8.715,5.967c0.484,0.331,0.312,1.085-0.268,1.173l-10.44,1.595l0.768,10.534c0.043,0.585-0.653,0.92-1.084,0.522l-7.757-7.168   l-7.757,7.168c-0.431,0.398-1.127,0.063-1.084-0.522l0.768-10.534l-10.44-1.595c-0.58-0.089-0.752-0.842-0.268-1.173l8.714-5.967   l-5.262-9.157c-0.292-0.509,0.189-1.113,0.75-0.941l10.099,3.093l3.878-9.824C387.93,185.858,388.703,185.858,388.919,186.404z"/>
        <path style="fill:#FFE15A;"
              d="M388.919,417.814l3.878,9.824l10.099-3.093c0.561-0.172,1.043,0.432,0.75,0.941l-5.262,9.157   l8.715,5.967c0.484,0.332,0.312,1.085-0.268,1.173l-10.44,1.595l0.768,10.534c0.043,0.585-0.653,0.92-1.084,0.522l-7.757-7.168   l-7.757,7.168c-0.431,0.398-1.127,0.063-1.084-0.522l0.768-10.534l-10.44-1.595c-0.58-0.089-0.752-0.842-0.268-1.173l8.714-5.967   l-5.262-9.157c-0.292-0.509,0.189-1.113,0.75-0.941l10.099,3.093l3.878-9.824C387.93,417.268,388.703,417.268,388.919,417.814z"/>
        <path style="fill:#FFE15A;"
              d="M417.826,285.462l2.708,8.118l8.558,0.066c0.663,0.005,0.938,0.851,0.405,1.245l-6.884,5.084   l2.581,8.159c0.2,0.632-0.52,1.155-1.059,0.77l-6.962-4.976l-6.962,4.976c-0.539,0.386-1.259-0.137-1.059-0.77l2.581-8.159   l-6.884-5.084c-0.533-0.394-0.258-1.24,0.405-1.245l8.558-0.066l2.708-8.118C416.727,284.833,417.615,284.833,417.826,285.462z"/>
        <path style="fill:#FFE15A;"
              d="M163.242,72.476c37.89,67.05-30.641,135.581-97.691,97.691c-8.104-4.58-14.832-11.308-19.412-19.412   c-37.89-67.05,30.641-135.581,97.691-97.691C151.934,57.644,158.661,64.372,163.242,72.476z"/>
</g>
    <path style="fill:#964B50;"
          d="M97.555,165.668h18.737c0,0,10.646-47.693,0.852-64.727l-5.962,3.832  C111.182,104.774,120.976,137.563,97.555,165.668z"/>
    <path style="fill:#73AF00;"
          d="M98.265,103.071c0,0-10.788,7.381-7.381,29.241c0,0,8.233-6.813,12.775-21.859  c0,0-6.529,12.491,2.555,22.427c0,0,9.652-13.627,8.233-25.55c0,0,32.089,33.51,25.266,24.982  c-1.136-1.419,1.703-15.614-9.368-27.253c0,0,18.169,4.542,24.982,2.839c0,0,0.568-14.478-16.749-17.033l3.974-11.355  c0,0-13.343-0.852-20.44,5.962c0,0-1.703-17.601,5.394-26.118c0,0-21.008-3.123-21.859,24.414c0,0-7.665-17.601-31.228-13.343  c0,0,13.343,9.652,15.614,13.91c0,0-18.737-12.775-27.537,5.11c0,0,15.046-3.975,20.44,3.123c0,0-24.131-2.555-26.118,18.169  C56.817,110.736,79.243,100.232,98.265,103.071z"/>
    <g>
</g>
    <g>
</g>
    <g>
</g>
    <g>
</g>
    <g>
</g>
    <g>
</g>
    <g>
</g>
    <g>
</g>
    <g>
</g>
    <g>
</g>
    <g>
</g>
    <g>
</g>
    <g>
</g>
    <g>
</g>
    <g>
</g>
</svg>
