<svg xmlns="http://www.w3.org/2000/svg" xmlns:xlink="http://www.w3.org/1999/xlink" id="Layer_1" x="0" y="0" enable-background="new 0 0 512 512" version="1.1" viewBox="0 0 512 512" xml:space="preserve"><path fill="#41479B" d="M400,0H112C50.144,0,0,50.144,0,112v288c0,61.856,50.144,112,112,112h288 c61.856,0,112-50.144,112-112V112C512,50.144,461.856,0,400,0z"/><g><polygon fill="#F5F5F5" points="148.21 256.046 161.684 256.046 161.684 174.276 256 236.069 256 216.105 172.232 161.73 196.98 161.73 256 200.041 256 187.747 216.29 161.73 256 161.73 256 148.257 148.21 148.257"/><polygon fill="#F5F5F5" points="94.316 256.046 107.789 256.046 107.789 148.257 0 148.257 0 161.73 39.71 161.73 0 187.747 0 206.647 69.197 161.73 93.945 161.73 0 222.712 0 236.069 94.316 174.276"/><path fill="#F5F5F5" d="M107.789,0.087c-4.566,0.169-9.063,0.608-13.474,1.308v80.421l-66.561-43.61 c-4.004,4.567-7.639,9.463-10.867,14.641l63.955,41.515H56.094l-45.65-29.633c-1.25,2.68-2.398,5.416-3.437,8.207L39.71,94.362 H1.387c-0.698,4.411-1.135,8.907-1.302,13.474h107.704V0.087z"/><polygon fill="#F5F5F5" points="256 107.836 256 94.362 216.29 94.362 256 68.345 256 49.203 186.432 94.362 161.684 94.362 256 33.138 256 20.023 161.684 81.816 161.684 .046 148.21 .046 148.21 107.836"/></g><g><path fill="#FF4B55" d="M107.789,256.046h40.421v-107.79H256v-40.421H148.21V0.046h-39.347 c-0.359,0.01-0.716,0.027-1.074,0.041v107.749H0.085C0.034,109.218,0,110.605,0,112v36.256h107.789V256.046z"/><polygon fill="#FF4B55" points="69.197 161.73 0 206.647 0 222.712 93.945 161.73"/><polygon fill="#FF4B55" points="172.232 161.73 256 216.105 256 200.041 196.98 161.73"/><path fill="#FF4B55" d="M80.842,94.362L16.887,52.847c-2.377,3.813-4.53,7.78-6.443,11.882l45.65,29.633H80.842z"/><polygon fill="#FF4B55" points="186.432 94.362 256 49.203 256 33.138 161.684 94.362"/></g><path fill="#F5F5F5" d="M331.911,289.65c-1.407,18.749-7.225,137.888,68.365,164.82 c75.617-26.94,69.775-146.075,68.365-164.82c-9.159,3.59-42.312,14.471-68.365-4.072 C374.223,304.118,341.075,293.243,331.911,289.65z"/><g><path fill="#FFA028" d="M437.418,313.686c-4.144-3.223-11.818,2.763-20.413,2.148c-7.971-0.569-17.796-8.642-30.565-5.162 c-3.528-3.249-1.819-10.8-1.819-10.8c-8.866,5.73-9.501,13.576-8.944,17.831c-6.322,8.354-5.895,21.1-4.716,24.991 c1.535,5.065,4.451,5.679,4.911,11.357c0.46,5.679,2.609,3.684,2.609,3.684c4.44-2.49,5.085-7.186,6.952-14.873 c7.212,0.921,11.927-5.54,11.927-5.54c-4.733,1.485-7.716-1.124-9.343-3.421c0.254-0.758,0.457-1.459,0.748-2.258 c5.372-14.734,31.076-10.684,33.459-6.6c4.298,7.367,9.976,10.13,9.976,10.13c0-7.68-5.679-14.427-5.679-14.427 C435.116,319.211,437.418,313.686,437.418,313.686z M375.566,345.303c-0.848,0-1.535-0.687-1.535-1.535s0.687-1.535,1.535-1.535 s1.535,0.687,1.535,1.535S376.413,345.303,375.566,345.303z"/><path fill="#FFA028" d="M412.108,407.969c5.005-1.584,4.43-11.299,9.812-18.028c4.991-6.241,17.213-9.751,21.592-22.241 c4.677-1.062,9.926,4.629,9.926,4.629c0.311-10.552-5.789-15.526-9.609-17.481c-3.292-9.945-14.031-16.826-17.904-18.062 c-5.041-1.61-7.201,0.443-12.139-2.399c-4.938-2.843-4.514,0.059-4.514,0.059c-0.469,5.069,3.033,8.264,8.303,14.162 c-4.85,5.417-2.204,12.965-2.204,12.965c1.462-4.74,5.303-5.716,8.118-5.753c0.481,0.639,0.942,1.204,1.434,1.897 c9.086,12.783-8.833,31.652-13.548,31.297c-8.505-0.641-14.002,2.468-14.002,2.468c6.324,4.357,15.102,3.509,15.102,3.509 C408.864,402.938,412.108,407.969,412.108,407.969z M421.164,339.097c0.481-0.698,1.437-0.874,2.135-0.393s0.874,1.436,0.393,2.135 c-0.481,0.698-1.436,0.874-2.134,0.393C420.859,340.75,420.683,339.795,421.164,339.097z"/><path fill="#FFA028" d="M344.441,339.747c-0.669,5.207,8.386,8.773,12.225,16.487c3.561,7.154,1.602,19.718,11.09,28.946 c-1.005,4.689-8.376,7.056-8.376,7.056c9.441,4.723,16.52,1.282,19.901-1.36c10.407,1.198,21.168-5.648,23.919-8.64 c3.582-3.896,2.628-6.719,7.285-10.002c4.657-3.283,1.846-4.119,1.846-4.119c-4.401-2.558-8.773-0.727-16.342,1.572 c-2.873-6.679-10.833-7.455-10.833-7.455c3.684,3.321,2.954,7.216,1.803,9.785c-0.782,0.167-1.489,0.348-2.325,0.503 c-15.419,2.863-24.996-21.333-22.69-25.46c4.16-7.445,3.653-13.74,3.653-13.74c-6.614,3.903-9.538,12.223-9.538,12.223 C350.37,338.922,344.441,339.747,344.441,339.747z M403.107,376.945c0.431,0.73,0.188,1.671-0.542,2.102 c-0.73,0.431-1.671,0.188-2.102-0.542c-0.431-0.73-0.188-1.671,0.542-2.102C401.736,375.973,402.676,376.216,403.107,376.945z"/></g><path fill="#CDCE0C" d="M400.276,458.373l-0.604-0.209c-85.117-29.609-71.363-169.961-71.214-171.378l0.266-2.536 l2.326,1.054c0.401,0.183,39.891,17.698,68.122-3.482l1.104-0.827l1.104,0.827c28.272,21.209,67.726,3.662,68.12,3.482l2.327-1.058 l0.266,2.54c0.149,1.417,13.903,141.769-71.214,171.378L400.276,458.373z M331.911,289.65 c-1.407,18.749-7.225,137.888,68.365,164.82c75.617-26.94,69.775-146.075,68.365-164.82c-9.159,3.59-42.312,14.471-68.365-4.072 C374.223,304.118,341.075,293.243,331.911,289.65z"/><path fill="#82AFFF" d="M352.868,412.221c10.324,18.723,25.397,34.407,47.408,42.249 c22.017-7.844,37.093-23.527,47.418-42.249H352.868z"/></svg>