<?xml version="1.0" encoding="iso-8859-1"?>
<!-- Generator: Adobe Illustrator 19.0.0, SVG Export Plug-In . SVG Version: 6.00 Build 0)  -->
<svg xmlns:xlink="http://www.w3.org/1999/xlink" xmlns="http://www.w3.org/2000/svg" version="1.1" id="Layer_1" x="0px"
     y="0px" viewBox="0 0 512.001 512.001" style="enable-background:new 0 0 512.001 512.001;" xml:space="preserve">
<path style="fill:#F5F5F5;" d="M112.001,0C50.145,0,0,50.144,0,112v288c0,61.856,50.144,112,112,112h127.316V0H112.001z"/>
    <path style="fill:#873250;"
          d="M400.001,0H130.99c0.356,0,0.71,0.052,1.05,0.158l81.484,24.898c3.394,1.036,3.391,5.842-0.003,6.877  l-70.722,21.533c-3.395,1.035-3.397,5.839-0.003,6.877l70.729,21.615c3.394,1.036,3.391,5.842-0.003,6.875l-70.723,21.535  c-3.395,1.034-3.397,5.839-0.003,6.876l70.729,21.615c3.394,1.036,3.391,5.842-0.003,6.875L142.82,167.26  c-3.397,1.036-3.397,5.844,0,6.878l70.701,21.526c3.395,1.034,3.397,5.839,0.003,6.877l-70.729,21.615  c-3.394,1.038-3.391,5.844,0.003,6.876l70.723,21.533c3.395,1.033,3.397,5.839,0.003,6.877l-70.729,21.615  c-3.394,1.038-3.391,5.842,0.003,6.877l70.723,21.533c3.395,1.033,3.397,5.839,0.003,6.875l-70.729,21.615  c-3.394,1.038-3.391,5.844,0.003,6.877l70.722,21.534c3.395,1.033,3.397,5.839,0.003,6.875l-70.729,21.614  c-3.394,1.038-3.391,5.842,0.003,6.877l70.702,21.53c3.396,1.033,3.396,5.842,0,6.875l-70.702,21.53  c-3.395,1.033-3.397,5.839-0.003,6.875l70.729,21.615c3.394,1.036,3.391,5.842-0.003,6.875l-81.484,24.811  c-0.339,0.104-0.691,0.156-1.047,0.156h269.011c61.856,0,112-50.144,112-112V112C512,50.144,461.857,0,400.001,0z"/>
    <g>
</g>
    <g>
</g>
    <g>
</g>
    <g>
</g>
    <g>
</g>
    <g>
</g>
    <g>
</g>
    <g>
</g>
    <g>
</g>
    <g>
</g>
    <g>
</g>
    <g>
</g>
    <g>
</g>
    <g>
</g>
    <g>
</g>
</svg>
