<svg xmlns="http://www.w3.org/2000/svg" xmlns:xlink="http://www.w3.org/1999/xlink" id="Layer_1" x="0" y="0" enable-background="new 0 0 512 512" version="1.1" viewBox="0 0 512 512" xml:space="preserve"><path fill="#41479B" d="M400,0H112C50.144,0,0,50.144,0,112v288c0,61.856,50.144,112,112,112h288 c61.856,0,112-50.144,112-112V112C512,50.144,461.856,0,400,0z"/><path fill="#FF4B55" d="M467.204,489.602c7.205-5.413,13.734-11.674,19.443-18.635L56.713,256L486.647,41.034 c-5.708-6.962-12.238-13.223-19.443-18.635L0,256L467.204,489.602z"/><path fill="#F5F5F5" d="M486.647,470.966C502.49,451.646,512,426.935,512,400V112c0-26.935-9.511-51.646-25.353-70.967 L56.713,256L486.647,470.966z"/><path fill="#FFF5DC" d="M450.583,211.231c0,0,31.476,1.334,34.41-1.067s3.468-18.406-6.936-20.806 c-10.403-2.401-38.678,13.071-38.678,13.071L450.583,211.231z"/><g><path fill="#D27D69" d="M388.965,236.039c0,0-0.356,0.889-0.534,4.801c-0.178,3.912,0.534,14.049,12.804,18.495 l-2.845,11.915l12.982,7.825c0,0,9.603-14.227,10.136-26.141C422.041,241.018,388.965,236.039,388.965,236.039z"/><path fill="#D27D69" d="M350.02,228.036l5.068-5.068c0,0-10.375,6.33-14.315,0.622c-5.157-7.469,1.778-15.294,8.98-18.761 c7.202-3.468,21.607-0.8,21.607-0.8l9.069,23.207l-27.475,17.339L350.02,228.036z"/><path fill="#D27D69" d="M435.112,183.756l24.541-2.934c0,0-7.202,10.403-21.34,18.139c0,0,14.671,0,18.939,5.068 s-4.268,9.87-7.469,11.47s-30.943,18.672-30.943,18.672l-24.807-2.934L435.112,183.756z"/><path fill="#D27D69" d="M453.34,164.906c0,0,5.335-12.448,5.157-21.162l-17.961,12.448c0,0,4.09-1.956,2.668-9.069 l-58.685,31.832l-11.915,21.162l36.278,11.203L453.34,164.906z"/></g><path fill="#FFE15A" d="M409.104,261.913l-6.135,9.736c0,0-10.937-2.401-14.671,0.267 c-3.734,2.667-4.135,12.671,2.401,13.471c0,0,4.535,2.801,7.202,0.533c0,0,5.468,2.134,6.402-1.334 c0.934-3.468-0.267-6.402-0.267-6.402h3.868l6.802-12.137L409.104,261.913z"/><path fill="#B95546" d="M354.288,240.84c0,0,17.072-8.536,17.072-21.34s-15.827-13.515-28.631-9.247 c0,0-7.647-6.046-1.245-12.092c8.776-8.289,46.948-25.608,46.948-25.608l-4.268,21.34c0,0,15.205,8.003,21.34,4.268 c5.156-3.138,55.483-42.68,55.483-42.68s-4.268,21.34-34.144,42.68l-3.166,15.828c-0.695,3.477-2.957,6.439-6.129,8.025 l-12.045,6.022c0,0,34.144,4.268,34.144,8.536c0,4.268-8.536,25.608-25.608,34.144l-8.536-8.536l4.268-12.804 c0,0-12.804-4.268-21.34-8.536c0,0-12.804,4.268-21.34,4.268C358.555,245.108,354.288,240.84,354.288,240.84z"/><path fill="#FFF5DC" d="M328.68,262.18v-8.868c0-2.52,1.001-4.937,2.783-6.719l18.557-18.557l4.268,8.536h17.072 l-4.268,4.268v4.268l-21.34,12.804L328.68,262.18z"/><g><path fill="#FFE15A" d="M337.216,257.912h-8.536c0,0-8.536,12.804,0,12.804c0,0,12.804-8.536,17.072-12.804 C345.752,257.912,345.752,253.644,337.216,257.912z"/><path fill="#FFE15A" d="M441.324,276.845h-59.001c-0.486-0.524-1.167-0.862-1.938-0.862c0,0-10.335-4.283-11.805-4.283 h-1.211c-1.47,0-2.661,1.191-2.661,2.661v2.484H351.22v-2.484c0-1.47-1.191-2.661-2.661-2.661h-1.211 c-1.47,0-2.661,1.191-2.661,2.661v0.045c-5.781-0.236-18.14-0.972-24.541-3.106L286,279.836l34.144,8.536 c6.401-2.134,18.76-2.871,24.541-3.107v0.045c0,1.469,1.191,2.661,2.661,2.661h1.211c1.47,0,2.661-1.192,2.661-2.661v-2.484h13.488 v2.484c0,1.469,1.191,2.661,2.661,2.661h1.211c1.47,0,11.805-4.283,11.805-4.283c0.771,0,1.451-0.338,1.937-0.862h59.002 c1.652,0,2.991-1.34,2.991-2.991C444.315,278.183,442.976,276.845,441.324,276.845z"/><path fill="#FFE15A" d="M438.758,288.321c-3.557-0.712-44.28,6.402-44.28,6.402s-2.49-2.49,4.979-9.425l-3.557-0.889 c0,0-7.824,5.513-11.025,6.224c-2.757,0.613-8.915,3.606-10.238,7.604l-24.795,4.133l0.534,2.134l24.321-2.85 c1.161,3.737,4.983,4.498,7.689,3.384c0,0,3.557,1.423,6.758-1.067c0,0,6.402,1.067,6.757-4.801l44.636-6.758 C440.536,292.411,442.314,289.033,438.758,288.321z"/><path fill="#FFE15A" d="M413.505,318.375c0,0-3.379,4.446-11.737,0.534c-8.358-3.912-18.139,0.356-23.474-0.889 s-13.337-4.446-20.806-1.6c-7.469,2.845-11.559,2.668-9.959-0.889c1.6-3.557,2.49-6.224,0-7.469l2.845-3.557l-0.534-2.134 c0,0-14.226-5.513-23.829,2.134s-6.758,25.074,9.247,26.319c0,0,4.979,6.224,17.25,4.446c0,0,8.002,5.513,21.695,3.023 c0,0,0.534,1.6,9.425,0.889c8.892-0.711,18.85,0.356,17.072,6.402c0,0,6.58-1.245,2.668-7.291c0,0,7.825-0.356,13.159,4.268 c0,0,0.356-5.335-4.801-8.18c0,0,8.714-3.023,13.515,0c0,0-3.201-6.758-11.737-5.868c0,0,6.224-4.979,9.069-3.735 c0,0-2.668-3.201-10.492,0C412.083,324.777,417.062,321.754,413.505,318.375z"/></g></svg>