<svg xmlns="http://www.w3.org/2000/svg" xmlns:xlink="http://www.w3.org/1999/xlink" id="Layer_1" x="0" y="0" enable-background="new 0 0 512 512" version="1.1" viewBox="0 0 512 512" xml:space="preserve"><path fill="#FF4B55" d="M400,0H112C53.379,0,5.284,45.039,0.414,102.4h511.172C506.716,45.039,458.621,0,400,0z"/><path fill="#F5F5F5" d="M0.414,102.4C0.145,105.565,0,108.765,0,112v92.8h512V112c0-3.235-0.145-6.435-0.414-9.6H0.414z"/><g><rect width="512" height="102.4" y="204.8" fill="#FF4B55"/><path fill="#FF4B55" d="M112,512h288c58.621,0,106.716-45.039,111.586-102.4H0.414C5.284,466.961,53.379,512,112,512z"/></g><path fill="#F5F5F5" d="M0,400c0,3.234,0.145,6.435,0.414,9.6h511.172c0.269-3.165,0.414-6.365,0.414-9.6v-92.8H0V400z"/><path fill="#41479B" d="M266.758,247.598L34.041,31.596C13.05,51.952,0,80.45,0,112v288c0,31.55,13.05,60.047,34.041,80.404 l232.716-216.002C271.03,260.436,271.03,251.564,266.758,247.598z"/><path fill="#F5F5F5" d="M109.034,199.093l12.802,38.386l40.463,0.314c5.239,0.041,7.411,6.726,3.197,9.838l-32.551,24.037 l12.206,38.579c1.58,4.995-4.107,9.127-8.369,6.08l-32.92-23.53l-32.92,23.53c-4.262,3.046-9.949-1.085-8.369-6.08l12.206-38.579 l-32.551-24.037c-4.214-3.112-2.042-9.798,3.197-9.838l40.463-0.314l12.802-38.386C100.347,194.124,107.376,194.124,109.034,199.093 z"/></svg>