<svg xmlns="http://www.w3.org/2000/svg" xmlns:xlink="http://www.w3.org/1999/xlink" id="Layer_1" x="0" y="0" enable-background="new 0 0 512 512" version="1.1" viewBox="0 0 512 512" xml:space="preserve"><path fill="#FFE15A" d="M400,0H112C50.144,0,0,50.144,0,112v16h512v-16C512,50.144,461.856,0,400,0z"/><rect width="512" height="128" y="128" fill="#F5F5F5"/><rect width="512" height="128" y="256" fill="#FF4B55"/><path fill="#4173CD" d="M0,400c0,61.856,50.144,112,112,112h288c61.856,0,112-50.144,112-112v-16H0V400z"/><path fill="#73AF00" d="M253.285,249.017L33.086,32.528C12.654,52.818,0,80.93,0,112v288 c0,31.07,12.654,59.182,33.086,79.471l220.198-216.488C256.905,259.414,256.905,252.586,253.285,249.017z"/><g><path fill="#F5F5F5" d="M63.777,256c0-42.49,27.774-78.442,66.144-90.824c2.017-0.651,1.736-3.596-0.365-3.871 c-3.949-0.518-7.973-0.796-12.065-0.796C64.753,160.509,22,203.262,22,256s42.753,95.491,95.491,95.491 c4.092,0,8.115-0.278,12.065-0.796c2.102-0.275,2.382-3.22,0.365-3.871C91.552,334.442,63.777,298.49,63.777,256z"/><path fill="#F5F5F5" d="M130.41,183.063l2.629,7.882l8.308,0.064c1.076,0.008,1.522,1.381,0.656,2.02l-6.684,4.936 l2.506,7.922c0.325,1.026-0.843,1.874-1.718,1.248l-6.76-4.831l-6.759,4.831c-0.875,0.626-2.043-0.223-1.718-1.248l2.506-7.922 l-6.684-4.936c-0.865-0.639-0.419-2.012,0.656-2.02l8.308-0.064l2.629-7.882C128.627,182.043,130.07,182.043,130.41,183.063z"/><path fill="#F5F5F5" d="M130.41,223.006l2.629,7.882l8.308,0.064c1.076,0.008,1.522,1.381,0.656,2.02l-6.684,4.936 l2.506,7.922c0.325,1.026-0.843,1.874-1.718,1.249l-6.76-4.831l-6.759,4.831c-0.875,0.626-2.043-0.223-1.718-1.249l2.506-7.922 l-6.684-4.936c-0.865-0.639-0.419-2.012,0.656-2.02l8.308-0.064l2.629-7.882C128.627,221.986,130.07,221.986,130.41,223.006z"/><path fill="#F5F5F5" d="M130.41,262.948l2.629,7.882l8.308,0.064c1.076,0.008,1.522,1.381,0.656,2.02l-6.684,4.936 l2.506,7.922c0.325,1.026-0.843,1.874-1.718,1.249l-6.76-4.831l-6.759,4.831c-0.875,0.625-2.043-0.223-1.718-1.249l2.506-7.922 l-6.684-4.936c-0.865-0.639-0.419-2.012,0.656-2.02l8.308-0.064l2.629-7.882C128.627,261.928,130.07,261.928,130.41,262.948z"/><path fill="#F5F5F5" d="M130.41,302.891l2.629,7.882l8.308,0.065c1.076,0.008,1.522,1.381,0.656,2.02l-6.684,4.936 l2.506,7.922c0.325,1.026-0.843,1.874-1.718,1.249l-6.76-4.831l-6.759,4.831c-0.875,0.626-2.043-0.223-1.718-1.249l2.506-7.922 l-6.684-4.936c-0.865-0.639-0.419-2.012,0.656-2.02l8.308-0.065l2.629-7.882C128.627,301.871,130.07,301.871,130.41,302.891z"/></g></svg>