<svg xmlns="http://www.w3.org/2000/svg" xmlns:xlink="http://www.w3.org/1999/xlink" id="Layer_1" x="0" y="0" enable-background="new 0 0 512 512" version="1.1" viewBox="0 0 512 512" xml:space="preserve"><g><path fill="#41479B" d="M112,512h288c45.991,0,85.5-27.724,102.745-67.369H9.255C26.5,484.276,66.009,512,112,512z"/><path fill="#41479B" d="M400,0H112C66.009,0,26.5,27.724,9.255,67.368h493.49C485.5,27.724,445.991,0,400,0z"/></g><g><path fill="#F5F5F5" d="M502.745,67.368H9.255c-3.692,8.488-6.365,17.521-7.86,26.947h509.211 C509.11,84.889,506.438,75.856,502.745,67.368z"/><path fill="#F5F5F5" d="M9.255,444.631h493.49c3.692-8.488,6.365-17.521,7.86-26.947H1.395 C2.89,427.11,5.563,436.143,9.255,444.631z"/></g><path fill="#FF4B55" d="M1.395,94.316C0.481,100.077,0,105.982,0,112v288c0,6.018,0.481,11.923,1.395,17.684h509.211 C511.52,411.923,512,406.018,512,400V112c0-6.018-0.48-11.923-1.395-17.684H1.395z"/><circle cx="163.21" cy="256" r="107.79" fill="#F5F5F5"/><path fill="#FF4B55" d="M166.081,157.866l21.623,64.835l68.344,0.53c2.907,0.023,4.113,3.733,1.774,5.46l-54.98,40.6 l20.615,65.163c0.877,2.772-2.279,5.065-4.644,3.374l-55.603-39.743l-55.603,39.743c-2.365,1.691-5.521-0.602-4.644-3.374 l20.616-65.163l-54.98-40.6c-2.339-1.727-1.133-5.437,1.774-5.46l68.344-0.53l21.623-64.835 C161.26,155.108,165.161,155.108,166.081,157.866z"/></svg>