<svg xmlns="http://www.w3.org/2000/svg" xmlns:xlink="http://www.w3.org/1999/xlink" id="Layer_1" x="0" y="0" enable-background="new 0 0 512 512" version="1.1" viewBox="0 0 512 512" xml:space="preserve"><path fill="#73AF00" d="M400,0H112C50.144,0,0,50.144,0,112v288c0,61.856,50.144,112,112,112h288 c61.856,0,112-50.144,112-112V112C512,50.144,461.856,0,400,0z"/><rect width="61.793" height="336.84" x="326.62" y="175.16" fill="#FF4B55"/><path fill="#464655" d="M388.414,175.158V512H400c18.053,0,35.105-4.277,50.207-11.864V175.158H388.414z"/><g><path fill="#FF9B55" d="M450.207,500.136C486.851,481.727,512,443.803,512,400V175.158h-61.793V500.136z"/><path fill="#FF9B55" d="M496.62,88.492c0.192-0.386,0.1-0.853-0.223-1.137c-0.325-0.287-0.799-0.316-1.157-0.079 c-1.78,1.182-3.575,2.255-5.354,3.229c5.728-4.735,6.532-8.847,6.583-9.146c0.064-0.376-0.102-0.755-0.423-0.962 c-0.323-0.208-0.735-0.203-1.05,0.012c-6.188,4.197-12.382,7.194-17.723,9.302c7.173-4.532,10.014-9.154,10.188-9.447 c0.224-0.375,0.164-0.855-0.145-1.163c-0.309-0.309-0.789-0.367-1.164-0.141c-5.726,3.451-12.508,6.174-18.989,8.269 c0.86-1.328,1.473-2.82,0.923-3.658c-0.512-0.777-1.444-0.777-2.778,0.004c-2.697,1.581-23.143,6.792-31.064,8.734 c-8.074-1.459-14.765,0.611-16.849,1.375c-0.555-0.661-0.809-1.301-0.916-1.802c-0.174-0.814-0.048-1.643,0.337-2.216 c0.628-0.934,1.926-1.024,3.071-1.103c0.498-0.034,0.942-0.064,1.332-0.162c0.249,0.073,0.555,0.218,0.549,0.329 c-0.023,0.434,0.251,0.828,0.666,0.958c0.415,0.13,0.864-0.036,1.094-0.406c0.058-0.093,1.405-2.299,0.361-4.176 c-0.759-1.365-2.5-2.083-5.179-2.134c-1.099-0.767-5.251-3.263-10.368-1.334c-5.183,1.955-7.483,7.278-8.243,9.527 c-4.033-0.56-22.55-3.386-32.617-9.296c-0.489-0.223-2.159-0.877-3.092,0.011c-0.573,0.544-0.64,1.388-0.201,2.508 c0.233,0.594,0.59,1.176,1.066,1.745c-5.388-2.473-12.653-5.929-18.145-9c-0.859-0.398-2.418-0.939-3.222-0.096 c-0.504,0.53-0.497,1.301,0.024,2.292c0.11,0.209,0.218,0.443,0.336,0.699c0.535,1.152,1.263,2.722,3.044,4.535 c-1.331-0.727-2.53-1.475-3.492-2.222c-4.82-3.75-5.473-4.117-6.336-3.535c-0.743,0.501-0.504,1.347-0.249,2.243l0.067,0.237 c0.209,0.745,0.551,1.945,1.487,3.393c-0.747-0.509-1.389-0.612-1.895-0.26c-0.302,0.208-0.755,0.727-0.406,1.87 c0.838,2.733,6.631,9.927,17.649,12.047c-1.108,0.162-2.272,0.282-3.398,0.304c-0.427,0.009-0.797,0.301-0.903,0.716 c-0.106,0.414,0.077,0.849,0.448,1.062c0.201,0.115,4.096,2.295,11.236,2.111c-1.068,0.269-2.28,0.477-3.62,0.557 c-0.417,0.025-0.769,0.317-0.868,0.723c-0.1,0.405,0.076,0.828,0.433,1.043c0.212,0.128,4.355,2.566,10.771,2.206l-0.559,0.344 c-0.322,0.198-0.496,0.567-0.445,0.941s0.319,0.683,0.682,0.786c0.2,0.057,3.816,1.063,8.321,0.588l-0.792,0.564 c-0.318,0.226-0.466,0.624-0.373,1.003c0.093,0.379,0.407,0.664,0.794,0.717c0.082,0.012,0.665,0.087,1.598,0.087 c0.615,0,1.383-0.034,2.259-0.14c-0.02,0.227,0.007,0.454,0.082,0.679c0.451,1.357,2.449,1.685,3.113,1.694 c0.041,0.001,0.081,0.001,0.121,0.001c0.804,0,1.654-0.113,2.522-0.286c1.389,1.298,3.925,1.179,6.384,0.606 c-0.145,0.221-0.257,0.442-0.326,0.662c-0.142,0.45-0.034,0.909,0.288,1.229c0.314,0.311,1.068,1.06,7.944-0.874 c-0.029,0.022-0.057,0.044-0.086,0.066c-0.914,0.707-0.856,1.439-0.739,1.812c0.421,1.353,3.454,2.218,8.958,2.588 c0.122,3.061-0.729,6.386-0.738,6.422c-0.096,0.367,0.035,0.755,0.333,0.989c0.297,0.232,0.706,0.269,1.04,0.09 c0.318-0.172,0.635-0.393,0.934-0.632l-0.026,1.012c-0.01,0.367,0.192,0.707,0.52,0.874c0.137,0.069,0.285,0.104,0.432,0.104 c0.037,0,0.073-0.014,0.11-0.018c-0.103,0.862-0.452,1.892-1.558,2.134c-0.502,0.11-1.034,0.164-1.548,0.217 c-2.343,0.24-4.998,0.512-5.418,5.882c-0.032,0.403,0.195,0.782,0.564,0.946c0.368,0.161,0.801,0.076,1.079-0.218l1.02-1.085 c0.6,0.148,1.557,0.299,2.58,0.133c-0.258,1.242-0.182,2.771,1.061,4.068c0.27,0.28,0.682,0.369,1.043,0.224 s0.597-0.495,0.597-0.884v-0.688c0.591-0.138,1.377-0.424,2.118-1.016c0.434,0.938,1.264,2.039,2.844,2.968 c0.15,0.088,0.317,0.131,0.483,0.131c0.218,0,0.434-0.074,0.609-0.22c0.309-0.257,0.424-0.68,0.286-1.058l-0.497-1.368 c0.347-0.343,0.798-0.831,1.192-1.354c0.195,0.283,0.522,0.446,0.871,0.411c0.362-0.035,0.673-0.273,0.801-0.614l0.35-0.932 c0.207-0.057,0.404-0.125,0.592-0.203c0.234,2.063,1.821,3.781,1.916,3.882c0.182,0.194,0.435,0.3,0.694,0.3 c0.077,0,0.155-0.009,0.232-0.028c0.335-0.084,0.598-0.344,0.688-0.677l0.531-1.98c1.406-0.713,1.543-2.003,1.629-2.805 c0.017-0.157,0.04-0.376,0.045-0.487c0.549,0.27,1.714,1.579,2.592,2.935c0.175,0.27,0.474,0.434,0.795,0.435 c0.327-0.023,0.622-0.159,0.799-0.427c0,0,0.744-1.126,1.106-1.783c1.535-2.787-0.791-4.456-1.909-5.258 c-0.274-0.197-0.65-0.466-0.711-0.541c-0.21-0.51-0.136-0.986,0.002-1.355c0.932,0.643,1.992,1.184,3.165,1.46 c0.072,0.017,0.146,0.025,0.218,0.025c0.306,0,0.6-0.148,0.78-0.407c0.224-0.319,0.23-0.742,0.016-1.068 c-0.021-0.033-1.772-2.727-2.901-6.04c1.823,1.069,4.291,2.361,5.57,2.361c0.878,0,1.214-0.546,1.318-0.781 c0.061-0.138,0.171-0.387,0.084-0.854c1.695,0.916,3.605,1.625,5.057,1.249c0.429-0.11,1.435-0.37,1.587-1.272 c0.078-0.457-0.077-0.826-0.414-1.19c1.573,0.382,3.27,0.572,4.933,0.352c1.388-0.183,1.796-0.856,1.895-1.388 c0.063-0.341,0.174-0.995-1.063-2.234c2.389-0.131,4.525-0.654,4.699-2.095c0.016-0.129-0.008-0.247-0.02-0.368 c7.681-0.837,13.526-5.642,13.784-5.858c0.075-0.063,0.125-0.141,0.176-0.219c4.65-0.581,9.933-1.631,14.208-3.553 c8.07-3.628,12.157-8.526,11.425-10.304c-0.213-0.517-0.823-0.892-1.575-0.61c-0.211,0.079-0.639,0.252-1.199,0.48 C494.572,92.449,496.442,88.851,496.62,88.492z"/></g><path fill="#464655" d="M496.62,88.492c0.192-0.386,0.1-0.852-0.223-1.137c-0.325-0.286-0.799-0.316-1.157-0.079 c-1.78,1.182-3.575,2.256-5.355,3.229c5.729-4.735,6.532-8.847,6.583-9.146c0.065-0.377-0.102-0.755-0.423-0.962 c-0.322-0.208-0.735-0.203-1.05,0.012c-6.188,4.197-12.382,7.194-17.723,9.301c7.173-4.532,10.014-9.154,10.188-9.446 c0.225-0.376,0.164-0.855-0.145-1.164c-0.31-0.309-0.789-0.366-1.164-0.141c-5.726,3.451-12.508,6.174-18.989,8.27 c0.86-1.328,1.473-2.82,0.923-3.658c-0.512-0.777-1.444-0.777-2.778,0.004c-2.697,1.581-23.142,6.792-31.064,8.734 c-8.075-1.459-14.765,0.611-16.85,1.375c-0.555-0.661-0.809-1.301-0.916-1.801c-0.174-0.814-0.047-1.643,0.337-2.216 c0.628-0.934,1.926-1.023,3.072-1.102c0.497-0.034,0.942-0.065,1.332-0.162c0.249,0.073,0.555,0.218,0.549,0.328 c-0.023,0.434,0.251,0.828,0.666,0.958c0.416,0.13,0.864-0.036,1.094-0.406c0.058-0.093,1.404-2.299,0.362-4.176 c-0.759-1.366-2.5-2.083-5.179-2.134c-1.1-0.767-5.252-3.263-10.368-1.334c-5.182,1.954-7.483,7.278-8.243,9.527 c-4.033-0.56-22.55-3.386-32.617-9.296c-0.489-0.222-2.159-0.877-3.092,0.011c-0.573,0.544-0.64,1.388-0.201,2.508 c0.233,0.594,0.59,1.175,1.066,1.745c-5.389-2.473-12.653-5.929-18.145-9c-0.858-0.398-2.418-0.939-3.221-0.096 c-0.504,0.53-0.497,1.301,0.024,2.292c0.11,0.209,0.218,0.443,0.336,0.699c0.535,1.152,1.262,2.722,3.044,4.536 c-1.331-0.727-2.531-1.475-3.492-2.222c-4.82-3.75-5.473-4.117-6.336-3.535c-0.743,0.501-0.503,1.347-0.249,2.243l0.067,0.237 c0.209,0.745,0.551,1.945,1.487,3.393c-0.747-0.509-1.389-0.612-1.895-0.259c-0.302,0.207-0.755,0.727-0.405,1.869 c0.837,2.733,6.631,9.927,17.648,12.047c-1.108,0.162-2.272,0.282-3.397,0.304c-0.428,0.009-0.797,0.301-0.904,0.715 c-0.106,0.414,0.077,0.849,0.448,1.062c0.201,0.116,4.096,2.295,11.236,2.111c-1.068,0.269-2.28,0.477-3.62,0.557 c-0.416,0.025-0.769,0.318-0.868,0.723c-0.1,0.405,0.076,0.828,0.433,1.043c0.212,0.128,4.356,2.566,10.771,2.206l-0.559,0.344 c-0.322,0.198-0.496,0.567-0.445,0.941c0.052,0.374,0.32,0.683,0.682,0.786c0.2,0.057,3.817,1.063,8.322,0.588l-0.792,0.563 c-0.318,0.227-0.466,0.624-0.373,1.003c0.093,0.379,0.407,0.663,0.793,0.717c0.082,0.012,0.664,0.088,1.598,0.088 c0.615,0,1.383-0.034,2.258-0.141c-0.02,0.227,0.007,0.454,0.082,0.679c0.451,1.357,2.449,1.685,3.114,1.694 c0.041,0.001,0.081,0.001,0.121,0.001c0.804,0,1.654-0.113,2.522-0.286c1.389,1.297,3.925,1.179,6.384,0.607 c-0.145,0.221-0.257,0.442-0.327,0.662c-0.142,0.45-0.034,0.909,0.288,1.229c0.314,0.31,1.068,1.06,7.944-0.874 c-0.029,0.022-0.057,0.044-0.086,0.067c-0.914,0.707-0.856,1.439-0.739,1.812c0.421,1.352,3.454,2.217,8.959,2.588 c0.122,3.06-0.729,6.385-0.738,6.422c-0.096,0.367,0.035,0.755,0.333,0.989c0.297,0.233,0.705,0.269,1.039,0.09 c0.319-0.172,0.635-0.393,0.934-0.632l-0.026,1.011c-0.01,0.367,0.192,0.707,0.52,0.874c0.137,0.069,0.284,0.104,0.432,0.104 c0.037,0,0.073-0.014,0.11-0.018c-0.103,0.862-0.452,1.892-1.558,2.134c-0.502,0.11-1.034,0.164-1.548,0.217 c-2.343,0.24-4.999,0.513-5.419,5.882c-0.031,0.403,0.195,0.782,0.565,0.945c0.368,0.161,0.801,0.076,1.079-0.218l1.02-1.085 c0.6,0.148,1.557,0.299,2.58,0.133c-0.258,1.242-0.182,2.771,1.061,4.068c0.27,0.28,0.682,0.369,1.043,0.225 c0.361-0.145,0.597-0.495,0.597-0.884v-0.688c0.591-0.138,1.377-0.424,2.118-1.016c0.434,0.939,1.265,2.039,2.845,2.969 c0.15,0.088,0.317,0.132,0.483,0.132c0.218,0,0.434-0.075,0.609-0.22c0.309-0.257,0.423-0.68,0.286-1.058l-0.497-1.368 c0.346-0.342,0.798-0.831,1.192-1.354c0.194,0.283,0.522,0.445,0.87,0.411c0.363-0.035,0.674-0.273,0.801-0.614l0.35-0.932 c0.207-0.057,0.404-0.125,0.591-0.202c0.234,2.063,1.821,3.78,1.916,3.881c0.182,0.195,0.435,0.3,0.694,0.3 c0.078,0,0.155-0.009,0.232-0.028c0.336-0.084,0.598-0.343,0.688-0.677l0.531-1.98c1.406-0.712,1.543-2.003,1.629-2.805 c0.017-0.157,0.04-0.377,0.045-0.487c0.549,0.27,1.714,1.579,2.592,2.935c0.175,0.27,0.474,0.434,0.795,0.436 c0.327-0.024,0.622-0.159,0.799-0.428c0,0,0.744-1.126,1.106-1.783c1.535-2.787-0.791-4.456-1.909-5.258 c-0.274-0.197-0.65-0.466-0.711-0.541c-0.21-0.51-0.136-0.986,0.002-1.355c0.932,0.643,1.992,1.184,3.165,1.46 c0.072,0.017,0.145,0.025,0.218,0.025c0.306,0,0.6-0.148,0.78-0.407c0.224-0.319,0.23-0.742,0.016-1.068 c-0.021-0.033-1.772-2.727-2.901-6.04c1.824,1.069,4.291,2.362,5.571,2.362c0.878,0,1.214-0.546,1.317-0.782 c0.061-0.137,0.171-0.387,0.084-0.854c1.695,0.916,3.605,1.624,5.058,1.249c0.429-0.111,1.435-0.371,1.587-1.272 c0.077-0.457-0.077-0.826-0.414-1.19c1.573,0.382,3.269,0.572,4.933,0.352c1.388-0.183,1.796-0.856,1.895-1.389 c0.062-0.34,0.175-0.995-1.063-2.234c2.389-0.131,4.524-0.654,4.699-2.095c0.016-0.13-0.008-0.247-0.019-0.368 c7.681-0.838,13.526-5.642,13.784-5.858c0.075-0.063,0.125-0.141,0.176-0.219c4.651-0.58,9.933-1.631,14.208-3.553 c8.07-3.628,12.157-8.526,11.425-10.304c-0.213-0.517-0.823-0.892-1.575-0.61c-0.211,0.079-0.639,0.252-1.198,0.48 C494.572,92.449,496.442,88.851,496.62,88.492z M482.593,83.085c-3.507,3.432-10.116,8.367-21.014,11.231 c-0.095,0.025-0.176,0.074-0.256,0.124c-2.292-0.178-5.188-0.597-7.729-1.546C461.648,91.067,472.964,87.92,482.593,83.085z M434.097,94.218c0.134,0.024,0.27,0.02,0.402-0.011c1.133-0.277,27.368-6.711,31.58-8.884c-0.49,0.965-1.431,2.317-2.199,2.881 c-0.022,0.016-0.032,0.04-0.052,0.057c-11.296,3.354-20.882,4.767-21.041,4.789c-0.521,0.075-0.882,0.558-0.807,1.078 c0.075,0.521,0.556,0.882,1.078,0.807c0.087-0.013,2.998-0.442,7.468-1.374c2.314,1.326,5.159,2.059,7.749,2.455 c-3.869,0.327-7.45,0.14-7.509,0.136c-0.451-0.017-0.89,0.297-0.985,0.759c-0.095,0.463,0.162,0.924,0.605,1.086l3.602,1.32 c-5.066,1.079-9.949,0.066-10.006,0.054c-0.391-0.087-0.789,0.083-1.002,0.419c-0.214,0.334-0.198,0.766,0.04,1.084 c0.688,0.918,2.628,1.882,4.321,2.592c-6.963,1.318-11.755-2.95-11.98-3.155c-0.387-0.353-0.987-0.328-1.341,0.057 c-0.356,0.385-0.335,0.984,0.047,1.341c5.5,5.148,15.753,7.34,20.354,8.096c-0.681,0.403-1.503,0.782-2.364,0.936 c-3.532,0.627-11.685-3.251-17.422-6.389l-4.594-2.652c-0.45-0.26-1.028-0.11-1.294,0.337c-0.267,0.448-0.125,1.027,0.319,1.299 c0.22,0.135,2.022,1.239,4.582,2.645l11.182,6.453c-3.431,0.424-7.05-0.344-7.095-0.354c-0.027-0.006-0.054,0.003-0.082-0.001 c-2.617-1.84-6.841-4.94-13.182-10.198c-1.021-3.643-2.933-5.244-5.327-6.764C421.848,94.288,427.555,92.992,434.097,94.218z M441.009,114.414c-0.006,0.002-0.01,0.007-0.016,0.009c0,0-0.009-0.007-0.013-0.01C440.99,114.413,440.999,114.413,441.009,114.414 z M378.972,110.094l2.179-1.55c0.387-0.276,0.513-0.795,0.293-1.216c-0.22-0.422-0.718-0.615-1.165-0.457 c-3.599,1.285-7.242,1.154-9.523,0.862l2.523-1.552c0.402-0.247,0.562-0.752,0.377-1.186c-0.185-0.433-0.659-0.666-1.117-0.547 c-4.591,1.205-8.415,0.705-10.918,0.014c3.979-0.93,6.29-2.69,6.411-2.784c0.348-0.27,0.466-0.742,0.285-1.144 c-0.181-0.401-0.612-0.622-1.045-0.545c-5.246,0.988-9.296,0.662-12.015,0.1c2.81-0.472,5.043-1.143,5.182-1.185 c0.016-0.005,0.027-0.018,0.043-0.023c0.065-0.023,0.119-0.059,0.176-0.095c0.048-0.031,0.098-0.056,0.14-0.094 c0.046-0.041,0.079-0.092,0.116-0.142c0.036-0.048,0.074-0.092,0.1-0.147c0.025-0.052,0.035-0.109,0.051-0.164 c0.018-0.064,0.036-0.126,0.041-0.193c0.001-0.016,0.009-0.029,0.009-0.045c0-0.05-0.02-0.093-0.027-0.142 c-0.007-0.048,0.001-0.095-0.014-0.144c-0.005-0.015-0.016-0.025-0.021-0.04c-0.023-0.064-0.059-0.118-0.094-0.175 c-0.031-0.05-0.056-0.101-0.095-0.144c-0.04-0.045-0.09-0.077-0.138-0.113c-0.049-0.037-0.095-0.077-0.151-0.104 c-0.051-0.025-0.107-0.035-0.163-0.05c-0.064-0.018-0.127-0.038-0.195-0.041c-0.016-0.001-0.029-0.01-0.045-0.01 c-12.235-0.115-18.987-6.551-21.148-9.835c3.812,2.656,8.82,4.91,12.467,6.205l0.003,0.001c4.85,1.873,10.897,3.067,11.152,3.116 c0.515,0.1,1.016-0.235,1.117-0.752c0.101-0.516-0.236-1.017-0.751-1.117c-0.061-0.012-6.159-1.215-10.859-3.034 c-10.136-3.923-12.19-8.171-12.874-10.317c1.095,0.779,2.568,1.924,3.356,2.537c5.933,4.615,19.739,8.979,20.324,9.162 c0.5,0.158,1.028-0.117,1.19-0.612c0.162-0.496-0.105-1.03-0.598-1.198c-14.274-4.863-16.418-9.485-17.57-11.969 c-0.1-0.216-0.194-0.417-0.286-0.604c0.192,0.059,0.393,0.133,0.555,0.206c7.914,4.429,19.543,9.671,23.94,11.618 c-0.791,0.38-1.62,0.699-2.17,0.729c-0.367,0.02-0.69,0.25-0.828,0.59c-0.14,0.34-0.071,0.729,0.176,1.001 c0.058,0.064,0.992,1.064,2.803,1.455l-1.286,0.839c-0.302,0.197-0.467,0.548-0.426,0.907c0.041,0.359,0.281,0.663,0.621,0.786 c0.088,0.032,1.557,0.549,3.5,0.754l-1.07,0.781c-0.271,0.198-0.419,0.526-0.386,0.861c0.032,0.335,0.239,0.628,0.543,0.771 c0.125,0.058,1.589,0.723,3.938,0.612l-0.08,0.056c-0.31,0.218-0.462,0.598-0.387,0.969s0.363,0.662,0.732,0.742 c0.146,0.031,1.944,0.401,4.525,0.107l-0.586,0.391c-0.312,0.207-0.473,0.58-0.411,0.949c0.062,0.37,0.335,0.669,0.697,0.764 c0.277,0.071,4.445,1.109,9.915-0.626c-1.147,0.754-2.216,1.302-3.099,1.501c-0.403,0.091-0.702,0.431-0.74,0.843 c-0.037,0.411,0.196,0.8,0.575,0.962c0.025,0.011,0.119,0.047,0.243,0.091C384.062,109.221,381.075,109.893,378.972,110.094z M374.363,92.815c-0.185-0.426-0.647-0.659-1.1-0.547c-1.103,0.269-1.995,0.242-2.684,0.097c1.129-0.502,2.093-1.102,2.264-1.21 c0.069-0.044,0.128-0.097,0.183-0.154c1.695,0.682,3.619,1.336,5.777,1.962l-3.656,2.668c-1.225,0.13-2.439,0.013-3.407-0.16 l2.269-1.479C374.398,93.738,374.548,93.241,374.363,92.815z M382.921,112.413c-0.362-0.004-1.03-0.189-1.278-0.367 c0.062-0.1,0.221-0.296,0.574-0.576c2.249-0.576,4.83-1.669,7.305-3.688c2.596,0.189,6.68-0.429,10.84-4.61 c0.154,0.279,0.314,0.56,0.502,0.847C400.412,104.362,389.66,112.474,382.921,112.413z M390.35,105.91 c3.08-1.853,6.525-5.078,8.675-7.231c0.033,0.788,0.186,1.692,0.527,2.685c-0.074,0.044-0.151,0.084-0.213,0.149 C395.927,105.112,392.606,105.906,390.35,105.91z M408.242,118.239c-3.135-0.214-6.055-0.702-7.122-1.173 c2.594-2.025,3.338-2.919,3.416-3.017c0.262-0.328,0.278-0.79,0.04-1.136c-0.24-0.347-0.679-0.496-1.077-0.365 c-3.419,1.105-7.411,2.183-9.383,2.46c0.905-0.813,2.516-1.84,3.971-2.568c0.466-0.234,0.659-0.799,0.431-1.267 c-0.228-0.47-0.79-0.667-1.262-0.446c-2.593,1.219-6.302,2.448-8.626,2.429c6.321-2.276,12.766-7.144,13.379-7.615 c0.486,0.58,1.023,1.168,1.668,1.768C409.366,112.598,408.743,116.747,408.242,118.239z M409.811,124.046 c-0.052,0.063-0.122,0.146-0.208,0.241c0.207-1.41,0.355-3.178,0.219-4.861c0.524-1.152,1.585-4.566-1.162-9.094 c1.811,0.263,5.967,1.135,7.766,3.751c0.238,0.347,0.475,0.731,0.71,1.131l-0.002,0.003c-0.089,0.211-1.89,4.572-1.315,10.025 c-0.421-0.496-0.824-1.104-1.094-1.818c-0.127-0.334-0.43-0.57-0.786-0.609c-0.352-0.038-0.703,0.125-0.9,0.423 c-0.401,0.61-0.983,1.444-1.56,2.206l0.02-0.77c0.011-0.406-0.237-0.774-0.618-0.917 C410.501,123.618,410.07,123.731,409.811,124.046z M415.952,135.903c-0.19,0.568-1.205,1.663-1.866,2.259 c-0.024,0.021-0.046,0.044-0.067,0.067c-0.497-0.822-0.48-1.474-0.479-1.51c0.033-0.446-0.248-0.854-0.675-0.983 c-0.429-0.129-0.887,0.058-1.105,0.447c-0.871,1.555-2.401,1.715-2.681,1.732c0.048-1.148,0.711-2.19,0.753-2.255 c0.263-0.401,0.188-0.935-0.177-1.246c-0.363-0.312-0.902-0.305-1.258,0.017c-1.398,1.266-3.619,0.447-3.638,0.44 c-0.092-0.035-0.186-0.056-0.281-0.062c0.615-1.338,1.691-1.448,3.178-1.6c0.567-0.059,1.154-0.119,1.761-0.251 c2.931-0.641,3.277-3.882,3.05-5.505c-0.007-0.045-0.031-0.081-0.043-0.124c0.459-0.565,0.916-1.182,1.296-1.716 c0.186,0.284,0.385,0.54,0.586,0.783c0.006,0.696,0.045,2.837,0.286,3.965c0.192,0.896,0.845,1.499,1.474,1.886 c-0.103,0.203-0.191,0.416-0.248,0.647c-0.224,0.922-0.034,1.937,0.25,2.806C416.026,135.765,415.977,135.826,415.952,135.903z M416.453,129.962c-0.091-0.425-0.149-1.093-0.186-1.765c0.266,0.184,0.453,0.293,0.48,0.308c0.332,0.183,0.741,0.155,1.043-0.077 c0.301-0.231,0.436-0.619,0.344-0.986c-1.005-4.024-0.332-7.787,0.226-9.849c1.64,3.604,2.816,8.053,2.409,10.986 c-0.063,0.449,0.2,0.879,0.628,1.029c0.089,0.031,0.18,0.04,0.271,0.045c-0.01,0.1-0.019,0.205-0.032,0.298 c-0.964-0.03-2.551,0.118-4.09,0.919C417.106,130.685,416.536,130.349,416.453,129.962z M428.996,134.885 c-0.076,0.137-0.169,0.296-0.269,0.46c-1.136-1.505-2.698-3.054-4.034-2.549c-1.077,0.41-1.187,1.447-1.261,2.133 c-0.087,0.828-0.151,1.174-0.842,1.411c-0.3,0.102-0.53,0.348-0.612,0.654l-0.106,0.396c-0.363-0.799-0.556-1.765-0.014-2.587 c0.278-0.422,0.176-0.985-0.229-1.286c-0.406-0.301-0.977-0.233-1.301,0.155c-0.009,0.01-0.872,1.025-2.126,1.204 c-0.13,0.019-0.253,0.063-0.361,0.13c-0.182-0.582-0.287-1.191-0.172-1.663c0.069-0.281,0.208-0.473,0.45-0.619 c1.908-1.154,4.133-0.826,4.153-0.822c0.502,0.083,0.965-0.234,1.08-0.721c0.051-0.217,0.46-2.075,0.162-3.631l1.232-2.069 c0.443,0.567,1.042,1.261,1.775,1.945c-0.404,0.741-0.8,1.94-0.237,3.307c0.226,0.549,0.752,0.927,1.362,1.363 C429.198,133.209,429.611,133.768,428.996,134.885z M425.49,123.239c-0.175-0.286-0.521-0.442-0.819-0.458 c-0.334,0.001-0.643,0.177-0.814,0.465l-1.238,2.079c-0.523-4.211-2.506-9.243-4.623-12.322c-2.752-4.003-9.556-4.762-10.84-4.757 c-0.624-0.758-1.322-1.532-2.182-2.333c-5.648-5.25-3.792-9.448-3.701-9.642c0.008-0.017,0.006-0.034,0.013-0.051 c0.026-0.061,0.036-0.123,0.048-0.187c0.011-0.059,0.026-0.115,0.026-0.174c0-0.06-0.014-0.117-0.025-0.176 c-0.012-0.061-0.02-0.12-0.043-0.178c-0.022-0.053-0.054-0.098-0.085-0.147c-0.035-0.057-0.07-0.112-0.118-0.161 c-0.013-0.013-0.018-0.031-0.032-0.044c-0.034-0.031-0.076-0.043-0.113-0.068c-0.038-0.026-0.066-0.062-0.109-0.083 c-0.017-0.009-0.036-0.007-0.054-0.015c-0.062-0.026-0.124-0.037-0.188-0.049c-0.059-0.011-0.115-0.026-0.174-0.026 c-0.06-0.001-0.116,0.013-0.176,0.024c-0.061,0.011-0.121,0.02-0.178,0.043c-0.053,0.021-0.099,0.054-0.148,0.085 c-0.057,0.036-0.112,0.07-0.161,0.118c-0.013,0.013-0.031,0.018-0.043,0.032l-0.002,0.002l-0.001,0.001 c-6.462,7.059-13.227,7.899-16.732,7.752l4.066-2.711c0.798-0.446,1.605-0.978,2.407-1.608c0.403-0.316,0.484-0.893,0.183-1.308 c-0.3-0.416-0.875-0.517-1.299-0.234l-2.232,1.487c-2.753,1.527-5.413,1.939-7.271,1.996l2.118-1.484 c1.627-0.787,3.403-1.968,5.274-3.708c0.366-0.341,0.407-0.907,0.092-1.296c-0.314-0.388-0.875-0.467-1.287-0.181l-5.049,3.539 c-2.398,1.13-4.363,1.268-5.682,1.148l7.219-5.27c0.297-0.216,0.442-0.585,0.374-0.945c-0.068-0.361-0.337-0.651-0.691-0.745 c-11.769-3.132-14.597-6.33-15.235-7.958c-0.056-0.144-0.092-0.257-0.115-0.347c0.237,0.036,0.555,0.125,0.76,0.212 c11.531,6.776,33.133,9.491,34.047,9.603c0.47,0.047,0.907-0.237,1.033-0.691c0.326-1.173,2.209-7.119,7.327-9.05 c4.826-1.817,8.628,1.122,8.785,1.245c0.169,0.135,0.379,0.209,0.595,0.209c2.051,0,3.41,0.409,3.828,1.153 c0.133,0.239,0.172,0.512,0.158,0.784c-0.333-0.17-0.7-0.283-1.061-0.336c-0.164-0.026-0.33-0.006-0.485,0.054 c-0.188,0.073-0.661,0.105-1.078,0.134c-1.344,0.092-3.374,0.232-4.522,1.941c-0.677,1.008-0.903,2.347-0.619,3.675 c0.177,0.828,0.622,1.911,1.633,2.968c0.1,0.197,0.258,0.341,0.447,0.429c0.346,0.308,0.733,0.611,1.196,0.901 c2.248,1.405,3.897,2.702,4.773,5.882c0.006,0.112,0.036,0.219,0.081,0.322c0.358,1.436,0.573,3.231,0.622,5.568 c0.011,0.519,0.436,0.933,0.952,0.933c0,0,0.014,0,0.02,0c0.526-0.011,0.943-0.447,0.933-0.972 c-0.027-1.309-0.113-2.459-0.242-3.501c7.094,5.795,11.283,8.674,13.383,10.115c0.296,0.204,0.577,0.396,0.823,0.569 c-2.138,0.195-5.523-1.757-8.17-3.775c-0.87-0.785-1.693-1.435-2.139-1.775c-0.405-0.311-0.982-0.247-1.309,0.146 c-0.327,0.391-0.289,0.97,0.088,1.314c0.241,0.22,1.008,0.907,2.089,1.742c1.247,1.134,2.211,2.204,2.513,2.82 c-1.483-0.312-5.55-2.731-8.856-5.092c-0.408-0.292-0.969-0.217-1.288,0.169c-0.318,0.386-0.284,0.952,0.078,1.297 c2.283,2.168,3.689,4.148,4.583,8.392l0,0c0.509,2.421,1.497,4.718,2.34,6.383C426.942,125.594,425.509,123.271,425.49,123.239z M447.212,120.598c-5.04,0.662-10.746-3.181-10.802-3.219c-0.407-0.277-0.958-0.2-1.27,0.179c-0.314,0.378-0.289,0.933,0.059,1.281 c1.651,1.651,3.334,2.772,4.563,3.589c0.178,0.119,0.37,0.247,0.554,0.372c-1.832-0.091-5.016-2.157-6.773-3.595 c-0.385-0.315-0.95-0.281-1.295,0.082c-0.343,0.362-0.348,0.928-0.012,1.296c0.71,0.778,1.385,1.649,1.793,2.285 c-1.391-0.509-3.739-1.845-5.436-2.93c-0.392-1.738-0.875-3.152-1.469-4.35c5.533,3.295,6.464,2.184,6.814,1.764 c0.203-0.244,0.431-0.664,0.362-1.281c0-0.004,0-0.006,0-0.006c2.259,1.143,4.679,1.817,6.537,0.949 c0.195-0.091,0.474-0.236,0.699-0.466c3.428,1.915,5.221,3.349,5.767,4.037C447.274,120.588,447.244,120.593,447.212,120.598z M445.917,116.979c-1.051-0.714-2.398-1.536-4.17-2.496c-0.036-0.02-0.077-0.02-0.114-0.035c0.312,0.012,0.631,0.02,0.959,0.02 c0.915,0,1.88-0.062,2.836-0.202c0.073,0.048,0.143,0.099,0.23,0.127c2.95,0.928,4.726,1.633,5.293,2.103 C450.194,116.825,448.017,117.04,445.917,116.979z M451.53,114.606c0,0-0.011,0.004-0.017,0.004 c-0.766-0.446-1.854-0.884-3.24-1.361c0.049-0.101,0.088-0.207,0.099-0.323c0.023-0.236-0.042-0.466-0.175-0.65 c1.618,0.387,3.065,0.539,4.193,0.339c1.42-0.254,2.708-0.953,3.64-1.583h0.002c0.956,0,3.671-0.034,7.15-0.32 C460.669,112.265,456.386,114.393,451.53,114.606z M489.943,98.331c-1.296,1.63-4.239,4.298-9.585,6.701 c-7.3,3.282-18.079,3.937-22.572,4.063c-0.007-0.071-0.016-0.143-0.039-0.213c-0.119-0.35-0.43-0.6-0.797-0.641 c-0.084-0.009-4.908-0.569-10.271-2.187c3.216,0.304,6.25,0.454,9.089,0.454c8.019,0,14.57-1.117,19.897-2.792 c0.028-0.005,0.055,0.003,0.083-0.005c2.935-0.769,9.93-3.634,13.688-5.173C489.613,98.467,489.782,98.397,489.943,98.331z M484.863,97.422c-6.197,3.835-17.002,7.933-34.096,7.018c0.332-0.161,0.549-0.494,0.543-0.869 c-0.008-0.401-0.267-0.754-0.647-0.884c-0.765-0.258-1.673-0.601-2.557-0.97c2.617,0.077,6.022-0.167,9.259-1.415 c0.37-0.143,0.612-0.5,0.609-0.897c-0.004-0.397-0.252-0.75-0.625-0.886l-1.244-0.455c3.158-0.132,7.029-0.546,9.729-1.683 c0.425-0.179,0.66-0.637,0.559-1.087c-0.005-0.024-0.02-0.042-0.027-0.064c5.704-1.429,16.207-4.726,27.049-11.519 c-2.334,3.88-9.118,11.097-28.318,15.634c-0.497,0.118-0.814,0.606-0.717,1.108c0.098,0.502,0.575,0.832,1.078,0.761 c0.143-0.022,13.195-2.072,26.672-9.785C490.535,93.203,488.177,95.372,484.863,97.422z"/></svg>