<svg xmlns="http://www.w3.org/2000/svg" xmlns:xlink="http://www.w3.org/1999/xlink" id="Layer_1" x="0" y="0" enable-background="new 0 0 512 512" version="1.1" viewBox="0 0 512 512" xml:space="preserve"><path fill="#73AF00" d="M512,400V112C512,50.144,461.856,0,400,0H112C50.15,0,0.011,50.134,0,111.98v288.04 C0.011,461.866,50.15,512,112,512h288C461.856,512,512,461.856,512,400z"/><g><path fill="#FFE15A" d="M400,0h-24.914L0,375.085v24.934c0.001,4.884,0.316,9.694,0.923,14.414L414.432,0.923 C409.707,0.315,404.891,0,400,0z"/><path fill="#FFE15A" d="M512,112c0-4.891-0.315-9.707-0.923-14.433L97.568,511.077C102.293,511.685,107.11,512,112,512 h24.914L512,136.914V112z"/></g><path fill="#464655" d="M414.432,0.923L0.923,414.433c6.473,50.313,46.331,90.171,96.645,96.644l413.509-413.51 C504.604,47.254,464.746,7.397,414.432,0.923z"/><g><path fill="#F5F5F5" d="M161.231,298.781l20.997,10.015l16.273-16.624c2.107-2.152,5.741-0.384,5.348,2.602l-3.037,23.064 l20.839,10.34c2.698,1.339,2.139,5.341-0.822,5.89l-22.874,4.239l-3.394,23.014c-0.439,2.979-4.419,3.685-5.856,1.038l-11.1-20.444 l-22.936,3.884c-2.97,0.503-4.87-3.064-2.797-5.248l16.013-16.874l-10.781-20.614C155.708,300.394,158.513,297.484,161.231,298.781 z"/><path fill="#F5F5F5" d="M307.231,150.781l20.997,10.015l16.273-16.624c2.107-2.152,5.741-0.384,5.348,2.602l-3.037,23.064 l20.839,10.34c2.698,1.339,2.139,5.341-0.822,5.89l-22.874,4.239l-3.394,23.014c-0.439,2.979-4.419,3.685-5.856,1.038l-11.1-20.444 l-22.936,3.884c-2.97,0.503-4.87-3.064-2.797-5.248l16.013-16.874l-10.781-20.614C301.708,152.394,304.513,149.484,307.231,150.781 z"/></g><path fill="#FF4B55" d="M512,400V136.914L136.914,512H400C461.856,512,512,461.856,512,400z"/></svg>