<?xml version="1.0" encoding="iso-8859-1"?>
<!-- Generator: Adobe Illustrator 19.0.0, SVG Export Plug-In . SVG Version: 6.00 Build 0)  -->
<svg xmlns:xlink="http://www.w3.org/1999/xlink" xmlns="http://www.w3.org/2000/svg" version="1.1" id="Layer_1" x="0px"
     y="0px" viewBox="0 0 512 512" style="enable-background:new 0 0 512 512;" xml:space="preserve">
<path style="fill:#FFE15A;" d="M0,400c0,61.856,50.144,112,112,112h288c61.856,0,112-50.144,112-112v-16H0V400z"/>
    <rect y="256" style="fill:#73AF00;" width="512" height="128"/>
    <rect y="128" style="fill:#F5F5F5;" width="512" height="128"/>
    <path style="fill:#41479B;" d="M400,0H112C50.144,0,0,50.144,0,112v16h512v-16C512,50.144,461.856,0,400,0z"/>
    <rect x="192" style="fill:#FF4B55;" width="128" height="512"/>
    <path style="fill:#FFE15A;"
          d="M91.062,17.245l11.243,33.71l35.535,0.275c2.753,0.021,3.895,3.535,1.68,5.17l-28.586,21.11  l10.719,33.881c0.83,2.625-2.158,4.796-4.398,3.195l-28.91-20.664l-28.91,20.664c-2.24,1.601-5.228-0.57-4.398-3.195L65.755,77.51  L37.169,56.4c-2.215-1.635-1.073-5.149,1.68-5.17l35.535-0.275l11.243-33.71C86.497,14.633,90.191,14.633,91.062,17.245z"/>
    <g>
</g>
    <g>
</g>
    <g>
</g>
    <g>
</g>
    <g>
</g>
    <g>
</g>
    <g>
</g>
    <g>
</g>
    <g>
</g>
    <g>
</g>
    <g>
</g>
    <g>
</g>
    <g>
</g>
    <g>
</g>
    <g>
</g>
</svg>
