<?xml version="1.0" encoding="iso-8859-1"?>
<!-- Generator: Adobe Illustrator 19.0.0, SVG Export Plug-In . SVG Version: 6.00 Build 0)  -->
<svg xmlns:xlink="http://www.w3.org/1999/xlink" xmlns="http://www.w3.org/2000/svg" version="1.1" id="Layer_1" x="0px"
     y="0px" viewBox="0 0 512 512" style="enable-background:new 0 0 512 512;" xml:space="preserve">
<g>
	<path style="fill:#73AF00;"
          d="M60.73,499.599C76.093,507.523,93.523,512,112,512h288c18.477,0,35.907-4.477,51.27-12.401   L256,304.329L60.73,499.599z"/>
    <path style="fill:#73AF00;"
          d="M451.27,12.401C435.907,4.477,418.477,0,400,0H112C93.523,0,76.093,4.477,60.73,12.401L256,207.671   L451.27,12.401z"/>
</g>
    <path style="fill:#FFE15A;"
          d="M499.599,60.73c-10.68-20.704-27.624-37.649-48.329-48.329L256,207.671L60.73,12.401  C40.025,23.081,23.081,40.026,12.401,60.73L207.671,256L12.401,451.27c10.68,20.705,27.624,37.649,48.329,48.329L256,304.329  l195.27,195.27c20.704-10.68,37.649-27.625,48.329-48.329L304.329,256L499.599,60.73z"/>
    <g>
	<path style="fill:#464655;"
          d="M304.329,256l195.27,195.27C507.523,435.907,512,418.477,512,400V112   c0-18.477-4.477-35.907-12.401-51.27L304.329,256z"/>
        <path style="fill:#464655;"
              d="M12.401,60.73C4.477,76.093,0,93.523,0,112v288c0,18.477,4.477,35.907,12.401,51.27L207.671,256   L12.401,60.73z"/>
</g>
    <g>
</g>
    <g>
</g>
    <g>
</g>
    <g>
</g>
    <g>
</g>
    <g>
</g>
    <g>
</g>
    <g>
</g>
    <g>
</g>
    <g>
</g>
    <g>
</g>
    <g>
</g>
    <g>
</g>
    <g>
</g>
    <g>
</g>
</svg>
