<?xml version="1.0" encoding="iso-8859-1"?>
<!-- Generator: Adobe Illustrator 19.0.0, SVG Export Plug-In . SVG Version: 6.00 Build 0)  -->
<svg xmlns:xlink="http://www.w3.org/1999/xlink" xmlns="http://www.w3.org/2000/svg" version="1.1" id="Layer_1" x="0px"
     y="0px" viewBox="0 0 498.373 498.373" style="enable-background:new 0 0 498.373 498.373;" xml:space="preserve">
<path style="fill:#FF6E55;"
      d="M466.442,31.931L31.931,466.441c19.729,19.729,46.983,31.931,77.088,31.931h280.335  c60.21,0,109.019-48.809,109.019-109.019V109.019C498.373,78.914,486.17,51.659,466.442,31.931z"/>
    <path style="fill:#FFE15A;"
          d="M389.354,0H109.019C48.809,0,0,48.81,0,109.019v280.335c0,30.105,12.202,57.36,31.931,77.088  L466.442,31.931C446.713,12.203,419.458,0,389.354,0z"/>
    <g>
	<path style="fill:#FFF5DC;"
          d="M287.103,133.341c-6.59,1.412-16.945-2.118-16.945-2.118c2.133,3.674,7.838,6.147,12.983,7.705   c-4.154,0.415-8.893,0.649-14.16,0.532c-21.181-0.471-31.065,13.414-31.065,13.414c7.531-4.707,15.297-4.707,26.828-3.06   c11.532,1.648,36.006-5.649,36.006-5.649l2.118-9.414C302.869,134.754,293.691,131.929,287.103,133.341z"/>
        <path style="fill:#FFF5DC;"
              d="M308.87,89.216c0,0,10.951,2.321,22.067,8.698c-0.669,0.351-1.308,0.781-1.919,1.284   c-3.592-1.785-7.931-3.231-13.559-3.805c0,0,5.826,1.515,11.422,5.899c-1.45,1.707-2.643,3.648-3.563,5.375   c-12.312-13.202-25.627-4.391-25.627-4.391c16.517-1.257,20.414,9.357,21.342,14.482c-3.198-2.138-6.211-3.899-9.038-5.333   c0.415-0.311,0.626-0.59,1.11-0.91c0,0-1.035,0.041-2.469,0.255c-21.079-10.131-31.421-2.139-31.421-2.139   c9.361-1.145,18.012,1.291,24.877,4.32c-3.017,1.737-5.06,4.795-3.374,9.996c-11.822-3.217-26.679-6.385-33.976-4.432   c-13.18,3.53-8.943,15.768-8.943,15.768s0.236-8.237,9.178-10.12c6.695-1.409,40.008,9.178,40.008,9.178l10.825-5.176l-4.471-3.766   c0,0-8.594-3.449-4.908-9.377c6.161,3.284,10.085,6.553,10.085,6.553l2.649-3.871c0.129,1.001,0.175,1.753,0.175,1.753l7.531-3.294   l1.647-2.354c0.66-3.573,1.751-6.112,3.005-8.013c2.178,2.737,3.981,6.12,4.879,10.307l6.825,0.706c0,0-1.109-7.889-8.745-14.163   c0.677-0.483,1.346-0.88,2.005-1.148c5.029,3.608,9.719,8.122,12.975,13.781l12.591-0.176   C362.057,115.104,341.347,92.04,308.87,89.216z"/>
        <path style="fill:#FFF5DC;"
              d="M441.712,190.51c10.119,15.883-6.721,32.723-22.605,22.605c-1.122-0.714-2.082-1.675-2.797-2.798   c-10.119-15.883,6.721-32.723,22.605-22.605C440.037,188.428,440.996,189.388,441.712,190.51z"/>
        <path style="fill:#FFF5DC;"
              d="M409.16,319.723c13.76,21.381-8.985,44.126-30.367,30.367c-1.423-0.916-2.642-2.135-3.558-3.558   c-13.76-21.381,8.985-44.126,30.367-30.367C407.025,317.081,408.244,318.3,409.16,319.723z"/>
        <path style="fill:#FFF5DC;"
              d="M244.446,312.344c10.76,16.888-7.147,34.795-24.035,24.035c-1.193-0.76-2.214-1.781-2.975-2.975   c-10.76-16.888,7.147-34.795,24.035-24.035C242.665,310.129,243.686,311.151,244.446,312.344z"/>
        <path style="fill:#FFF5DC;"
              d="M207.98,390.347c12.421,19.498-8.25,40.17-27.748,27.748c-1.377-0.877-2.556-2.057-3.434-3.434   c-12.421-19.498,8.25-40.17,27.748-27.748C205.923,387.791,207.102,388.97,207.98,390.347z"/>
        <path style="fill:#FFF5DC;"
              d="M376.766,159.23c0,0,36.253,12.92,45.008,17.297c12.355,6.178,31.77-11.826,45.362,2.118   c0,0-2.354-9.296-13.65-10.002c0,0,0.236-9.178-10.355-8.708c0,0,7.767,5.649,3.295,9.649c0,0-3.059-6.825-11.767-5.649   c0,0,6.59,2.589,4.942,6.59c0,0-10.473,5.06-15.179,1.765c-4.707-3.295-41.891-23.357-53.657-23.828L376.766,159.23z"/>
</g>
    <path style="fill:#F5F5F5;"
          d="M367.47,170.526c0,0,7.766,2.294,19.063,14.12c5.236,5.481,18.709,5.825,16.591-4.766  c-2.118-10.59-28.241-17.121-31.065-17.121C369.235,162.759,367.47,170.526,367.47,170.526z"/>
    <g>
	<path style="fill:#FFF5DC;"
          d="M424.069,147.227l-14.827,4.942c0,0,1.647,10.061-6.825,14.473   c-5.218,2.718-8.707,9.766-8.472,14.943c0,0,4.942-6.824,12.002-10.59c1.663-0.887,3.195-1.664,4.591-2.453   c-0.28,3.528-0.356,7.232,0.116,10.455c1.412,9.648-1.648,12.943-1.648,12.943s8.237-6.354,7.296-16.708   c-0.362-3.978,0.291-6.797,1.304-8.937c0.729,7.211,4.58,10.585,4.58,10.585c-2.824-5.649,3.059-11.768,5.413-16.71   C429.952,155.228,424.069,147.227,424.069,147.227z"/>
        <path style="fill:#FFF5DC;"
              d="M461.547,126.753c-5.837-1.986-11.472,1.589-14.827,4.59c-1.427,1.277-5.191,1.926-9.041,2.275   c2.571-1.819,5.306-3.966,6.746-5.805c3.177-4.06,9.002-4.766,13.944-6.354c4.942-1.589,7.06-7.943,7.06-7.943   s-2.648,3.883-10.061,3.53c-7.413-0.353-9.884-0.706-14.827,4.59c-1.518,1.627-3.648,2.887-5.854,3.898   c0.047-2.314,0.247-5.256,0.912-7.252c1.235-3.707,6.884-6.707,7.237-14.12s0.706-6.708,4.942-11.12s5.471-12.709,4.236-10.061   s-6.884,5.825-11.649,10.237c-4.766,4.412-1.412,9.354-3.883,13.238c-2.471,3.883-8.295,4.766-8.649,12.002   c-0.353,7.237-5.471,11.472-5.471,11.472s-12.532,6.884,2.471,12.355c15.003,5.471,27.14-9.751,34.595-9.355   c16.591,0.883,21.004-4.59,21.004-4.59C477.608,128.341,470.371,129.754,461.547,126.753z"/>
        <path style="fill:#FFF5DC;"
              d="M279.571,243.01c-0.941-0.706-17.18-18.592-22.592-21.181l1.177,4.472c0,0-3.53-0.236-9.884-8.001   c-6.354-7.767-11.061-9.884-11.061-9.884s4.472,7.06,4.236,11.532c0,0-9.649-0.706-20.004,4.236c0,0-4.706-9.178-8.708-10.826   c0,0,1.412,9.649-1.883,12.002c-3.295,2.354,31.065,18.592,35.771,19.063C251.331,244.892,279.571,243.01,279.571,243.01z"/>
        <path style="fill:#FFF5DC;"
              d="M300.987,207.945c-0.335-0.084-2.071,1.138-4.312,2.738c-0.991-5.714-2.983-17.27-2.983-17.8   c0-0.706-16.003-23.062-16.474-24.005c-0.008-0.017-0.061-0.018-0.072-0.033c1.554-3.759,3.228-10.158-6.281-5.145   c-12.944,6.825-18.121,22.592-18.121,22.592c2.951-3.079,8.1-5.428,12.21-6.956c0.085,1.92,0.1,4.199-2.561,8.133   c-5.413,8-2.354,11.061-2.354,11.061c4.236-7.296,13.65-8.002,13.65-8.002c-1.412,8.708,3.53,13.65,3.53,13.65l4.001-4.706   c-0.493,6.738,3.114,13.967,5.354,17.766c-0.886,0.427-1.694,0.755-2.294,0.824c-4.001,0.471-10.355,3.53-10.355,3.53   s5.149-1.098,8.074,1.161c2.923,2.258,7.575,3.987,10.1,3.456c0,0-1.196,6.113,0.133,8.373c0,0-3.322-0.932-7.177-0.798   c-3.855,0.133-6.659-2.542-6.659-2.542s7.06,10.118,12.238,12.236c5.177,2.118,14.12-5.649,14.12-5.649   S301.928,208.179,300.987,207.945z"/>
        <path style="fill:#FFF5DC;"
              d="M179.317,355.503c0,0-4.472,0.471-8.708,6.824l-1.883-6.59c0,0-5.177,3.765-10.826,1.412   c0,0,5.177-1.177,6.119-5.883c0.941-4.706,2.824-5.177,2.824-5.177s-3.53-3.765-7.296-3.53c0,0,10.355-5.413,16.003-0.236   C181.199,347.5,179.317,355.503,179.317,355.503z"/>
        <path style="fill:#FFF5DC;"
              d="M303.811,303.492c0,0-4.472,0.471-8.708,6.824l-1.883-6.59c0,0-5.177,3.765-10.825,1.412   c0,0,5.177-1.177,6.119-5.883c0.941-4.707,2.824-5.177,2.824-5.177s-3.53-3.765-7.296-3.53c0,0,10.355-5.413,16.003-0.236   C305.693,295.491,303.811,303.492,303.811,303.492z"/>
        <path style="fill:#FFF5DC;"
              d="M380.144,236.54c0,0-2.183,3.931,0.585,11.048l-6.475-2.244c0,0,0.108,6.401-5.063,9.673   c0,0,2.011-4.915-1.301-8.389c-3.312-3.474-2.616-5.285-2.616-5.285s-5.11,0.727-7.08,3.944c0,0,1.517-11.585,8.999-13.235   C374.676,230.402,380.144,236.54,380.144,236.54z"/>
</g>
    <path style="fill:#FF6E55;" d="M402.804,316.072l4.556,2.717C406.034,317.65,404.461,316.796,402.804,316.072z"/>
    <path style="fill:#FFF5DC;"
          d="M145.9,338.793c0,0-20.945,29.418-44.95,35.772l8.472-10.826c0,0-11.296,9.884-24.005,12.002  l15.297-17.65c0,0-34.124,31.77-77.897,38.36c0,0,33.888-21.415,40.714-28.947c0,0-16.474,6.59-31.3,6.825  c0,0,42.596-16.474,49.656-23.063c0,0-16.945,3.765-27.534,0.236c0,0,36.713-10.59,41.891-9.178c0,0-21.181-8.472-33.888-7.531  c0,0,21.651-5.177,46.832,0l-5.413-5.883c0,0,14.355-3.765,28.476-4.706c14.12-0.941,7.06-2.118,7.06-2.118l1.647-4.707  c0,0-9.178,1.177-16.709,0c0,0,22.592-12.708,28.946-18.356s2.118-3.059,2.118-3.059s-11.767,4.001-16.003,4.706  c0,0,10.59-12.237,13.885-20.24c0,0-9.649,3.765-17.886,0c0,0,9.884-2.824,14.827-7.766c4.942-4.942,12.237-17.239,12.237-17.239  l-8.472,3.707c0,0,7.413-12.709,13.944-15.886c0,0-11.12,0.883-14.649-1.765c0,0,11.826-2.824,15.356-5.649  c3.53-2.824,11.296-10.237,19.239-7.413c0,0,11.12-10.237,7.413-16.945c0,0,7.237,0.53,10.943,4.942  c3.707,4.412,9.531,8.119,9.531,8.119l-30.241,23.651l-23.063,74.838L145.9,338.793z"/>
    <g>
	<path style="fill:#F5F5F5;"
          d="M442.19,197.589c8.708,14.12-2.118,15.532-2.118,15.532c-1.647-13.414-12.943-11.766-12.943-11.766   l3.059,9.884c-18.826,2.354-17.415-16.475-17.415-16.475c-2.824,2.354-7.531,12.002-7.531,12.002s-50.833,16.946-85.194-33.416   c0,0-0.941-8.943,1.884-13.18l-21.181-16.002l-27.3,3.766c0,0-10.825,24.475,2.354,39.537   c13.179,15.061,28.711,36.241,25.887,46.126c-1.674,5.859-6.656,8.246-13.573,7.746c-4.752-0.343-10.417-2.047-16.55-4.922   c-15.062-7.06-51.775-22.121-78.133-9.884c-26.357,12.238-29.217,33.414-34.359,49.893c-4.552,14.588-14.653,51.827-86.615,85.803   c-3.437,1.623-1.689,6.848,2,5.931c31.194-7.757,73.72-20.677,86.85-35.959l10.59,0.353l-3.883,16.238   c0,0,13.768,4.236,15.886,24.357c0,0-24.122,6.589-10.473,27.299c0,0,2.118-15.062,18.826-15.768c0,0,3.766,4.942,12.002,5.649   c0,0,4.236,6.825,2.118,12.474c0,0,16.709-5.177,2.589-25.182c0,0,15.768-3.764,17.885,16.004c0,0,10.12-32.007-26.005-29.653   c0,0,0-5.648-9.531-15.886c0,0-2.354-5.766,0-13.768c0.708-2.407,1.348-4.906,1.883-7.454c1.961,1.088,4.981,2.376,8.942,2.512   c0,0,5.884,9.648,23.299,8c0,0-12.709-5.882-11.532-17.178c1.177-11.296,16.003-17.416,22.358-12.944c0,0-1.648-14.827-24.71-5.177   c0,0,0-11.061,12.237-11.766c0,0-19.768-15.062-24.239,13.65l-8.18,2.045c-3.997-11.08-9.059-36.803,13.357-46.171   c23.651-9.885,48.362,12.355,92.135,14.473c0,0-4.236,25.769,9.885,32.124c14.12,6.354,48.715,12.355,48.715,12.355   c-0.353,37.183,26.711,32.24,26.711,32.24c-13.135-7.871-13.135-22.888-5.028-31.659c11.05-11.955,30.209-0.581,30.209-0.581   c-0.27-18.098-25.652-15.298-25.652-15.298c4.001-11.766,19.768-14.827,19.768-14.827c-21.887-8-40.008,15.651-40.008,15.651   l-37.065-10.59c0,0-1.412-7.413,7.413-17.297c8.825-9.885,16.238-26.476,13.768-44.126c0,0,10.237-7.179,22.946-0.119   c12.708,7.06,40.008-8.472,40.008-8.472c11.767,15.061,39.771,12.238,43.538-5.882C455.84,199.707,442.19,197.589,442.19,197.589z"/>
        <path style="fill:#F5F5F5;"
              d="M403.359,154.288c-7.001-4.083-19.533-7.531-23.769,1.883c-4.236,9.414-8.943,18.827-23.534,18.356   c-14.591-0.47-21.181,12.002-31.3,8.472c0,0,9.414-3.059,11.296-7.531c1.883-4.472,9.414-12.709,9.414-12.709l-0.941-8.472   c0,0-17.415,0.939-22.592,5.882s-24.71-4.235-24.71-4.235l2.354-20.474c0,0,15.062-23.063,36.006-21.415s24.475-3.765,34.595-3.059   c10.119,0.706,15.297,11.061,26.123,13.414c10.826,2.354,32.477-2.118,35.301,4.472s-5.413,9.178-7.531,18.356   C421.95,156.406,417.48,162.524,403.359,154.288z"/>
</g>
    <g>
	<path style="fill:#FFF5DC;"
          d="M342.171,148.404c0,0-10.119,6.824-18.592,4.001c-8.472-2.824-16.003-1.883-24.71,0.941   c0,0,16.003-1.883,22.592,4.236c6.59,6.119,23.299,2.118,24.475-0.47L342.171,148.404z"/>
        <path style="fill:#FFF5DC;"
              d="M347.348,164.171c0,0-9.885,7.06-19.768,5.177c-9.884-1.883-18.827,2.118-18.827,2.118   s7.296-8.001,17.179-6.59c9.884,1.412,13.414-8.237,13.414-8.237l6.59,0.471L347.348,164.171z"/>
        <path style="fill:#FFF5DC;"
              d="M366.025,147.279c8.315,13.218-5.642,27.174-18.859,18.859c-1.002-0.63-1.859-1.487-2.489-2.489   c-8.315-13.218,5.642-27.174,18.859-18.859C364.537,145.42,365.394,146.277,366.025,147.279z"/>
        <path style="fill:#FFF5DC;"
              d="M347.584,145.58c0,0-5.177-6.59-18.121-4.001c-12.943,2.589-16.003-2.118-16.003-2.118   s6.119,9.414,15.768,8.237c9.649-1.177,13.65,5.413,13.65,5.413L347.584,145.58z"/>
        <path style="fill:#FFF5DC;"
              d="M391.126,129.1c1.164-1.604,2.626-3.131,4.626-4.296c1.18-0.686,2.394-1.119,3.595-1.477   c0.268-1.786,0.005-3.714-1.014-5.464c-2.224-3.819-6.85-5.268-10.332-3.24c-3.481,2.029-4.501,6.767-2.276,10.586   C386.976,127.355,388.991,128.646,391.126,129.1z"/>
        <path style="fill:#FFF5DC;"
              d="M379.567,144.263c0.663-1.868,1.632-3.747,3.222-5.43c0.937-0.993,1.979-1.751,3.03-2.433   c-0.249-1.789-1.046-3.564-2.519-4.954c-3.214-3.033-8.061-3.115-10.826-0.184c-2.765,2.93-2.402,7.764,0.813,10.797   C375.092,143.762,377.39,144.431,379.567,144.263z"/>
</g>
    <g>
</g>
    <g>
</g>
    <g>
</g>
    <g>
</g>
    <g>
</g>
    <g>
</g>
    <g>
</g>
    <g>
</g>
    <g>
</g>
    <g>
</g>
    <g>
</g>
    <g>
</g>
    <g>
</g>
    <g>
</g>
    <g>
</g>
</svg>
