<svg xmlns="http://www.w3.org/2000/svg" xmlns:xlink="http://www.w3.org/1999/xlink" id="Layer_1" x="0" y="0" enable-background="new 0 0 512 512" version="1.1" viewBox="0 0 512 512" xml:space="preserve"><path fill="#41479B" d="M400,0H112C50.144,0,0,50.144,0,112v288c0,61.856,50.144,112,112,112h288 c61.856,0,112-50.144,112-112V112C512,50.144,461.856,0,400,0z"/><g><polygon fill="#F5F5F5" points="148.21 256 161.684 256 161.684 174.23 256 236.023 256 216.059 172.232 161.684 196.98 161.684 256 199.995 256 187.701 216.29 161.684 256 161.684 256 148.21 148.21 148.21"/><polygon fill="#F5F5F5" points="94.316 256 107.79 256 107.79 148.21 0 148.21 0 161.684 39.71 161.684 0 187.701 0 206.602 69.197 161.684 93.945 161.684 0 222.666 0 236.023 94.316 174.23"/><path fill="#F5F5F5" d="M107.79,0.087c-4.566,0.169-9.063,0.608-13.474,1.308V81.77L27.779,38.177 c-4.005,4.566-7.643,9.46-10.872,14.638l63.935,41.502H56.094L10.461,64.694c-1.251,2.679-2.4,5.415-3.44,8.205L39.71,94.316H1.395 c-0.7,4.411-1.139,8.907-1.308,13.474H107.79V0.087z"/><polygon fill="#F5F5F5" points="256 107.789 256 94.316 216.29 94.316 256 68.299 256 49.157 186.432 94.316 161.684 94.316 256 33.092 256 19.976 161.684 81.77 161.684 0 148.21 0 148.21 107.789"/></g><g><path fill="#FF4B55" d="M107.79,256h40.421V148.21H256v-40.421H148.21V0H112c-1.41,0-2.813,0.035-4.21,0.087V107.79H0.087 C0.035,109.187,0,110.589,0,112v36.21h107.79V256z"/><polygon fill="#FF4B55" points="69.197 161.684 0 206.602 0 222.666 93.945 161.684"/><polygon fill="#FF4B55" points="172.232 161.684 256 216.059 256 199.995 196.98 161.684"/><path fill="#FF4B55" d="M80.842,94.316L16.907,52.814c-2.378,3.813-4.533,7.778-6.447,11.88l45.634,29.622H80.842z"/><polygon fill="#FF4B55" points="186.432 94.316 256 49.157 256 33.092 161.684 94.316"/></g><rect width="137.56" height="106.29" x="305.73" y="280.18" fill="#82AFFF"/><path fill="#C86464" d="M305.726,386.477c0,36.258,40.642,65.652,68.778,65.652l0,0c25.01,0,68.778-29.394,68.778-65.652 H305.726z"/><path fill="#73AF00" d="M392.871,319.002c2.214,0.391,5.992,0.912,6.383,6.253s-1.563,24.359-3.517,26.704 c0,0,6.383,14.459,6.643,23.056s-0.912,34.324-0.13,38.427c0.782,4.103,3.712,12.505,3.712,12.505s-8.988-5.276-12.505-1.954 s-16.413,7.816-21.493,2.54c0,0,6.057-17.194,6.057-36.734s0-67.801,0-67.801s2.54-2.019,5.862-2.084 C387.205,319.848,392.871,319.002,392.871,319.002z"/><g><path fill="#FFF5E1" d="M394.174,422.299c0.391,2.475,1.433,4.299,0.912,5.21c-0.521,0.912-3.908,9.249-1.954,9.249 c1.954,0,5.341-1.042,6.253-2.866s1.303-4.559,1.824-5.341s-0.912-4.689-2.084-5.341 C397.952,422.56,394.174,422.299,394.174,422.299z"/><path fill="#FFF5E1" d="M371.639,324.473l-7.164,0.912c0,0,0.912-4.689,1.042-7.946c0.13-3.256,0.391-9.248,0.391-9.248 s5.08-3.126,5.211-3.648c0.065-0.26,0.668-1.889,0.195-2.735s-2.019-0.912-2.019-0.912s-5.992,3.126-5.992,3.647 s0,3.648-0.651,4.82s-4.299,10.942-4.559,13.547c-0.26,2.605-0.651,8.076,0.391,8.337c1.042,0.26,11.854,1.433,13.026,0.912 C372.681,331.637,371.639,324.473,371.639,324.473z"/></g><polygon fill="#464655" points="404.096 298.746 378.022 298.746 378.022 286.436 369.033 286.436 369.033 298.746 342.959 298.746 342.959 307.734 369.033 307.734 369.033 425.947 378.022 425.947 378.022 307.734 404.096 307.734"/><path fill="#963C3C" d="M388.703,314.703c0,0,8.727,2.513,9.9-0.391c1.368-3.387-3.191-3.843-4.038-7.425 c-0.095-0.401-0.912-5.211-4.429-6.122c-3.517-0.912-6.774,0-6.904,2.345C383.102,305.454,388.703,314.703,388.703,314.703z"/><path fill="#FFF5E1" d="M384.013,325.775c-0.257,0.043-0.651-2.605-0.13-5.862s0-4.299,0-4.299s-3.647,0.391-3.647-1.042 c0-1.433,0.782-8.076,2.996-11.463c0,0,1.563,1.954,4.429,1.954c0,0-0.13,2.345,1.433,3.908c0,0-1.954,1.693-1.042,2.866 c0.912,1.172,2.605,2.605,2.605,2.605s0.13,2.736,2.215,4.559C392.871,319.002,390.266,324.733,384.013,325.775z"/><g><rect width=".781" height="15.5" x="348.32" y="382.31" fill="#464655"/><rect width=".782" height="21.502" x="351.47" y="379.31" fill="#464655"/><rect width=".782" height="26.986" x="354.61" y="376.57" fill="#464655"/><rect width=".782" height="34.823" x="357.76" y="372.65" fill="#464655"/><rect width=".781" height="45.07" x="360.9" y="367.52" fill="#464655"/><rect width=".782" height="47.18" x="364.05" y="367.52" fill="#464655"/></g><path fill="#FFE15A" d="M378.152,392.209c-3.454-17.963-13.026-28.397-16.413-28.918s-5.862,2.215-6.122,4.169 s-2.084,7.816-5.862,10.551c-3.778,2.736-10.812,4.299-12.375,9.379s2.605,7.295,5.08,6.773c0.185-0.039,0.368-0.111,0.552-0.172 l26.629,32.756c0.967,1.19,2.85,0.995,3.524-0.383C375.903,420.769,381.097,407.525,378.152,392.209z M345.247,392.572 c1.044-1.12,1.484-2.667,0.339-4.271c-1.954-2.736-4.168,1.172-4.168,1.172s-0.651-3.387,4.429-5.08s10.812-4.559,13.417-10.681 c2.605-6.122,2.475-4.95,2.475-4.95s10.421,5.862,11.854,24.229s-3.647,25.792-3.647,25.792L345.247,392.572z"/><g><path fill="#FFF5E1" d="M369.033,352.909c-1.196,0.766-2.274,1.424-3.029,1.817c-2.442,1.27-5.373,2.54-5.666,3.712 s-1.954,2.149-1.856,3.517c0.098,1.368,0,5.471,0,5.471c1.465-0.293,4.396-0.782,5.373-2.54c0.977-1.759,1.856-5.178,4.983-6.643 c0.056-0.026,0.137-0.053,0.195-0.079L369.033,352.909L369.033,352.909z"/><path fill="#FFF5E1" d="M394.923,327.957c-1.466,0.684-5.862,5.959-6.546,8.402s-2.833,8.207-2.833,8.207 s-4.439,0.58-7.523,2.305v8.532c1.708-0.495,3.22-0.982,4.103-1.458c2.54-1.368,6.155-3.908,8.011-4.396s3.419-3.615,4.103-5.471 s2.833-7.327,3.126-11.04C397.659,329.325,396.388,327.273,394.923,327.957z"/></g><path fill="#F5F5F5" d="M374.504,454.346l-0.342-0.055c-69.823-11.024-70.625-71.499-70.625-74.066v-102.23h141.935v102.23 c0,2.568-0.803,63.042-70.625,74.066L374.504,454.346z M307.915,282.373v97.852c0,2.412,0.756,59.1,66.589,69.688 c65.834-10.588,66.589-67.276,66.589-69.688v-97.852H307.915z"/></svg>