<?xml version="1.0" encoding="iso-8859-1"?>
<!-- Generator: Adobe Illustrator 19.0.0, SVG Export Plug-In . SVG Version: 6.00 Build 0)  -->
<svg xmlns:xlink="http://www.w3.org/1999/xlink" xmlns="http://www.w3.org/2000/svg" version="1.1" id="Layer_1" x="0px"
     y="0px" viewBox="0 0 512 512" style="enable-background:new 0 0 512 512;" xml:space="preserve">
<path style="fill:#73AF00;"
      d="M407.092,0.391H104.908C59.752,3.213,21.849,32.786,6.871,73.455h498.258  C490.151,32.786,452.248,3.213,407.092,0.391z"/>
    <path style="fill:#F5F5F5;"
          d="M511.999,112.074c-0.01-13.574-2.436-26.582-6.87-38.619H6.871C2.428,85.518,0,98.556,0,112.161  v34.358h511.999V112.074z"/>
    <rect y="146.52" style="fill:#73AF00;" width="512" height="73.06"/>
    <rect y="219.58" style="fill:#F5F5F5;" width="512" height="73.06"/>
    <rect y="292.65" style="fill:#73AF00;" width="512" height="73.06"/>
    <path style="fill:#F5F5F5;"
          d="M0,365.711v34.45c0,13.57,2.415,26.577,6.836,38.614h498.328c4.412-12.012,6.824-24.988,6.835-38.527  v-34.537L0,365.711L0,365.711z"/>
    <path style="fill:#73AF00;"
          d="M103.459,511.839h305.083c44.552-3.36,81.828-32.783,96.623-73.064H6.836  C21.631,479.056,58.907,508.479,103.459,511.839z"/>
    <path style="fill:#FF4B55;" d="M342.667,0.161H112c-61.856,0-112,50.144-112,112v107.015h342.667V0.161z"/>
    <g>
	<path style="fill:#F5F5F5;"
          d="M184.473,201.885h-21.684c-1.972,0-3.736-1.228-4.421-3.077l-6.981-18.848   c-2.725-7.358-3.949-15.188-3.599-23.027l2.43-54.439c0.062-1.382,0.949-2.59,2.249-3.063l0,0c2.231-0.811,4.59,0.841,4.59,3.215   v24.791c0,0.693,0.562,1.255,1.255,1.255l0,0c0.669,0,1.221-0.525,1.254-1.193l1.949-39.529c0.079-1.605,1.286-2.929,2.876-3.156   l0,0c1.973-0.282,3.754,1.208,3.827,3.199l1.345,36.853c0.027,0.74,0.682,1.297,1.417,1.206l0,0c0.622-0.078,1.092-0.6,1.105-1.227   l0.808-40.951c0.044-2.236,2.243-3.789,4.365-3.081l0,0c1.299,0.433,2.198,1.619,2.264,2.987l1.998,41.392   c0.022,0.46,0.291,0.873,0.703,1.079l0,0c0.832,0.416,1.816-0.171,1.845-1.101l1.002-32.071c0.076-2.422,2.613-3.969,4.801-2.927   l0,0c1.105,0.526,1.836,1.612,1.909,2.833l2.333,39.363l6.245,18.216c0.351,1.023,1.788,1.042,2.16,0.027   c1.769-4.828,5.783-13.843,12.225-17.814c1.141-0.703,2.604-0.612,3.676,0.192l0,0c1.577,1.183,1.762,3.464,0.413,4.901   c-3.14,3.342-7.717,10.366-7.386,22.717c0.042,1.572-0.413,3.117-1.342,4.386l-17.595,24.038c-1.762,2.407-2.892,5.218-3.286,8.174   l-0.079,0.59C188.834,200.136,186.836,201.885,184.473,201.885z"/>
        <path style="fill:#F5F5F5;"
              d="M173.688,18.578l3.533,10.594l11.167,0.087c0.865,0.007,1.224,1.111,0.528,1.625l-8.984,6.634   l3.368,10.648c0.261,0.825-0.678,1.507-1.382,1.004l-9.085-6.494l-9.085,6.494c-0.704,0.503-1.643-0.179-1.382-1.004l3.368-10.648   l-8.984-6.634c-0.696-0.514-0.337-1.618,0.528-1.625l11.167-0.087l3.533-10.594C172.253,17.757,173.414,17.757,173.688,18.578z"/>
        <path style="fill:#F5F5F5;"
              d="M121.156,33.821l3.533,10.594l11.167,0.087c0.865,0.007,1.224,1.111,0.528,1.625l-8.984,6.634   l3.369,10.647c0.261,0.825-0.678,1.507-1.382,1.004l-9.085-6.494l-9.086,6.494c-0.704,0.503-1.643-0.179-1.382-1.004l3.369-10.647   l-8.984-6.634c-0.696-0.514-0.337-1.618,0.528-1.625l11.167-0.087l3.533-10.594C119.722,33,120.882,33,121.156,33.821z"/>
        <path style="fill:#F5F5F5;"
              d="M227.499,33.821l3.533,10.594l11.167,0.087c0.865,0.007,1.224,1.111,0.528,1.625l-8.984,6.634   l3.368,10.647c0.261,0.825-0.678,1.507-1.382,1.004l-9.085-6.494l-9.085,6.494c-0.704,0.503-1.643-0.179-1.382-1.004l3.369-10.647   l-8.984-6.634c-0.696-0.514-0.337-1.618,0.528-1.625l11.167-0.087l3.533-10.594C226.064,33,227.225,33,227.499,33.821z"/>
        <path style="fill:#F5F5F5;"
              d="M262.73,73.88l3.533,10.594l11.167,0.087c0.865,0.007,1.224,1.111,0.528,1.625l-8.984,6.634   l3.368,10.647c0.261,0.825-0.678,1.507-1.382,1.004l-9.085-6.494l-9.085,6.494c-0.704,0.503-1.643-0.179-1.382-1.004l3.369-10.647   l-8.984-6.634c-0.696-0.514-0.337-1.618,0.528-1.625l11.167-0.087l3.533-10.594C261.295,73.059,262.456,73.059,262.73,73.88z"/>
        <path style="fill:#F5F5F5;"
              d="M82.994,73.88l3.533,10.594l11.167,0.087c0.865,0.007,1.224,1.111,0.528,1.625l-8.984,6.634   l3.369,10.647c0.261,0.825-0.678,1.507-1.382,1.004l-9.085-6.494l-9.086,6.494c-0.704,0.503-1.643-0.179-1.382-1.004l3.369-10.647   l-8.984-6.634c-0.696-0.514-0.337-1.618,0.528-1.625l11.167-0.087l3.533-10.594C81.559,73.059,82.72,73.059,82.994,73.88z"/>
        <path style="fill:#F5F5F5;"
              d="M272.862,126.424l3.533,10.594l11.167,0.087c0.865,0.007,1.224,1.111,0.528,1.625l-8.984,6.634   l3.369,10.647c0.261,0.825-0.678,1.507-1.382,1.004l-9.085-6.494l-9.086,6.494c-0.704,0.503-1.643-0.179-1.382-1.004l3.369-10.647   l-8.984-6.634c-0.696-0.514-0.337-1.618,0.528-1.625l11.167-0.087l3.533-10.594C271.427,125.603,272.588,125.603,272.862,126.424z"/>
        <path style="fill:#F5F5F5;"
              d="M69.304,126.424l3.533,10.594l11.167,0.087c0.865,0.007,1.224,1.111,0.528,1.625l-8.984,6.634   l3.369,10.647c0.261,0.825-0.678,1.507-1.382,1.004l-9.085-6.494l-9.085,6.494c-0.704,0.503-1.643-0.179-1.382-1.004l3.369-10.647   l-8.984-6.634c-0.696-0.514-0.337-1.618,0.528-1.625l11.167-0.087l3.533-10.594C67.869,125.603,69.03,125.603,69.304,126.424z"/>
</g>
    <g>
</g>
    <g>
</g>
    <g>
</g>
    <g>
</g>
    <g>
</g>
    <g>
</g>
    <g>
</g>
    <g>
</g>
    <g>
</g>
    <g>
</g>
    <g>
</g>
    <g>
</g>
    <g>
</g>
    <g>
</g>
    <g>
</g>
</svg>
