<svg xmlns="http://www.w3.org/2000/svg" xmlns:xlink="http://www.w3.org/1999/xlink" id="Layer_1" x="0" y="0" enable-background="new 0 0 512 512" version="1.1" viewBox="0 0 512 512" xml:space="preserve"><path fill="#FF4B55" d="M400,0H112C50.144,0,0,50.144,0,112v288c0,61.856,50.144,112,112,112h288 c61.856,0,112-50.144,112-112V112C512,50.144,461.856,0,400,0z"/><path fill="#F5F5F5" d="M257.529,121.263c74.359,0,134.629,60.433,134.629,134.737c0,74.519-60.27,134.737-134.629,134.737 c-74.519,0-134.844-60.218-134.844-134.737C122.685,181.696,183.01,121.263,257.529,121.263"/><g><path fill="#FF4B55" d="M282.012,331.501c-41.71,0-75.542-33.831-75.542-75.493c0-41.561,33.832-75.392,75.542-75.392 c14.187,0,27.444,3.975,38.776,10.839c1.698,1.028,3.483-1.195,2.069-2.588c-17-16.749-40.278-27.125-65.992-27.125 c-52.201,0-94.466,42.266-94.466,94.266c0,52.1,42.266,94.365,94.466,94.365c25.7,0,48.968-10.366,65.965-27.112 c1.414-1.393-0.371-3.616-2.069-2.588C309.436,327.533,296.188,331.501,282.012,331.501z"/><path fill="#FF4B55" d="M275.11,203.169l20.825,28.276l33.495-10.55c4.336-1.366,7.916,3.574,5.267,7.27l-20.457,28.543 l20.384,28.595c2.639,3.702-0.953,8.633-5.286,7.256l-33.468-10.635l-20.897,28.223c-2.706,3.654-8.505,1.761-8.534-2.785 l-0.227-35.116l-33.299-11.153c-4.311-1.444-4.303-7.545,0.012-8.977l33.327-11.068l0.317-35.116 C266.609,201.386,272.413,199.508,275.11,203.169z"/></g></svg>