<svg xmlns="http://www.w3.org/2000/svg" xmlns:xlink="http://www.w3.org/1999/xlink" id="Layer_1" x="0" y="0" enable-background="new 0 0 512 512" version="1.1" viewBox="0 0 512 512" xml:space="preserve"><path fill="#73AF00" d="M400,0H112C50.144,0,0,50.144,0,112v288c0,61.856,50.144,112,112,112h288 c61.856,0,112-50.144,112-112V112C512,50.144,461.856,0,400,0z"/><g><path fill="#FFE15A" d="M351.048,224.98c-0.236-1.509-2.424-1.433-2.596,0.084c-5.265,46.402-44.626,82.453-92.452,82.453 c-47.811,0-87.184-36.05-92.453-82.451c-0.172-1.517-2.359-1.593-2.596-0.084c-0.731,4.667-1.132,9.441-1.132,14.315 c0,53.067,43.07,96.151,96.18,96.151c53.127,0,96.179-43.083,96.179-96.151C352.18,234.423,351.779,229.648,351.048,224.98z"/><path fill="#FFE15A" d="M254.81,185.266l-6.955,20.855l-21.983,0.17c-1.205,0.009-1.705,1.547-0.735,2.263l17.684,13.059 l-6.631,20.96c-0.364,1.149,0.945,2.1,1.925,1.399L256,231.189l17.885,12.783c0.98,0.701,2.289-0.25,1.925-1.399l-6.631-20.96 l17.685-13.059c0.97-0.716,0.47-2.254-0.735-2.263l-21.983-0.17l-6.955-20.855C256.809,184.123,255.191,184.123,254.81,185.266z"/></g></svg>