<svg xmlns="http://www.w3.org/2000/svg" xmlns:xlink="http://www.w3.org/1999/xlink" id="Layer_1" x="0" y="0" enable-background="new 0 0 512 512" version="1.1" viewBox="0 0 512 512" xml:space="preserve"><path fill="#FF4B55" d="M400,0H112C50.144,0,0,50.144,0,112v58.667h512V112C512,50.144,461.856,0,400,0z"/><path fill="#73AF00" d="M0,400c0,61.856,50.144,112,112,112h288c61.856,0,112-50.144,112-112v-58.667H0V400z"/><rect width="512" height="170.67" y="170.67" fill="#FFE15A"/><path fill="#464655" d="M261.681,191.755l14.061,42.161l44.443,0.344c5.754,0.045,8.14,7.388,3.511,10.806l-35.753,26.402 l13.406,42.374c1.736,5.486-4.511,10.024-9.192,6.678L256,294.677l-36.158,25.844c-4.681,3.346-10.928-1.192-9.192-6.678 l13.406-42.374l-35.753-26.402c-4.629-3.418-2.243-10.761,3.511-10.806l44.443-0.344l14.061-42.161 C252.139,186.296,259.861,186.296,261.681,191.755z"/></svg>