<?xml version="1.0" encoding="iso-8859-1"?>
<!-- Generator: Adobe Illustrator 19.0.0, SVG Export Plug-In . SVG Version: 6.00 Build 0)  -->
<svg xmlns:xlink="http://www.w3.org/1999/xlink" xmlns="http://www.w3.org/2000/svg" version="1.1" id="Layer_1" x="0px"
     y="0px" viewBox="0 0 512 512" style="enable-background:new 0 0 512 512;" xml:space="preserve">
<path style="fill:#F5F5F5;"
      d="M112,0C50.152,0,0.013,50.131,0,111.976v288.048C0.013,461.869,50.152,512,112,512h58.667V0H112z"/>
    <rect x="170.67" style="fill:#4173CD;" width="170.67" height="512"/>
    <path style="fill:#FFE15A;"
          d="M512,400V112C512,50.144,461.856,0,400,0h-58.666v512H400C461.856,512,512,461.856,512,400z"/>
    <g>
	<path style="fill:#C17400;"
          d="M229.356,265.746c-0.101,2.636-4.055,3.751-4.055,3.751c-0.405-4.46,4.156-12.671,5.069-13.381   c0.912-0.71,4.562-4.055,0.912-3.345c-3.649,0.71-7.197,8.92-8.008,10.34c-0.811,1.419-2.737,1.318-2.737,1.318s0-6.589,0-8.008   s6.285-4.46,6.285-4.46s1.014-6.082,0.101-6.691c-0.912-0.608-2.838,1.115-5.575,1.318c-2.737,0.203-6.082,0.304-8.921,2.94   c-2.838,2.636-2.94,4.46-2.94,8.921c0,4.46,0,0,0,10.746c0,10.745-10.036,18.247-13.786,21.997   c-1.021,1.021-1.413,2.269-1.445,3.58c-0.754,0.707-2.416,1.735-3.806,1.437c-2.135-0.458-2.453-4.212-2.453-6.41   c0-0.672-0.544-1.216-1.216-1.216s-1.217,0.544-1.217,1.216c0,7.432,3.163,8.755,5.049,8.883c0.103,0.007,0.208,0.009,0.314,0.009   c1.249,0,2.592-0.494,3.707-1.18c0.725,2.624,2.252,5.062,2.69,6.048c0.811,1.825-3.649,4.764-3.649,4.764l3.649,11.252h4.967   c0-2.788-3.396-2.23-3.903-2.939c-0.507-0.71-1.115-7.147-1.115-7.147l7.048-5.896c0.544-0.455,0.859-1.128,0.859-1.838v-3.138   c0,0,5.17,0.836,6.462,1.977c1.292,1.14,0.152,4.562,0.152,5.018s6.538,6.234,6.538,6.234h4.486c0-2.053-2.129-1.977-3.193-2.357   s-4.258-4.334-4.258-4.334s1.723-5.348,1.723-6.665c0-1.318-7.4-6.69-7.4-6.69s1.014-1.723,8.515-6.386   c7.501-4.663,6.893-9.934,6.893-9.934l6.488-7.299v-5.271C231.586,262.908,229.457,263.111,229.356,265.746z"/>
        <path style="fill:#C17400;"
              d="M282.829,265.746c0.102,2.636,4.055,3.751,4.055,3.751c0.405-4.46-4.156-12.671-5.069-13.381   c-0.912-0.71-4.562-4.055-0.912-3.345c3.649,0.71,7.197,8.92,8.008,10.34c0.811,1.419,2.737,1.318,2.737,1.318s0-6.589,0-8.008   s-6.285-4.46-6.285-4.46s-1.014-6.082-0.102-6.691c0.912-0.608,2.839,1.115,5.576,1.318c2.737,0.203,6.082,0.304,8.921,2.94   c2.838,2.636,2.94,4.46,2.94,8.921c0,4.46,0,0,0,10.746c0,10.745,10.036,18.247,13.786,21.997c1.021,1.021,1.413,2.269,1.445,3.58   c0.753,0.707,2.416,1.735,3.806,1.437c2.135-0.458,2.453-4.212,2.453-6.41c0-0.672,0.544-1.216,1.216-1.216   s1.216,0.544,1.216,1.216c0,7.432-3.163,8.755-5.049,8.883c-0.103,0.007-0.208,0.009-0.314,0.009c-1.249,0-2.592-0.494-3.707-1.18   c-0.725,2.624-2.252,5.062-2.69,6.048c-0.811,1.825,3.649,4.764,3.649,4.764l-3.649,11.252h-4.967c0-2.788,3.396-2.23,3.903-2.939   c0.507-0.71,1.115-7.147,1.115-7.147l-7.048-5.896c-0.544-0.455-0.859-1.128-0.859-1.838v-3.138c0,0-5.17,0.836-6.462,1.977   c-1.293,1.14-0.152,4.562-0.152,5.018s-6.538,6.234-6.538,6.234h-4.486c0-2.053,2.129-1.977,3.193-2.357s4.258-4.334,4.258-4.334   s-1.723-5.348-1.723-6.665c0-1.318,7.4-6.69,7.4-6.69s-1.014-1.723-8.515-6.386s-6.893-9.934-6.893-9.934l-6.488-7.299v-5.271   C280.599,262.908,282.727,263.111,282.829,265.746z"/>
</g>
    <g>
	<polygon style="fill:#C8C8C8;" points="246.335,258.802 239.037,266.101 253.634,266.101  "/>
        <polygon style="fill:#C8C8C8;" points="265.799,258.802 258.5,266.101 273.097,266.101  "/>
        <polygon style="fill:#C8C8C8;" points="246.335,270.967 239.037,278.266 253.634,278.266  "/>
        <polygon style="fill:#C8C8C8;" points="265.799,270.967 258.5,278.266 273.097,278.266  "/>
        <polygon style="fill:#C8C8C8;" points="246.335,283.132 239.037,290.43 253.634,290.43  "/>
        <polygon style="fill:#C8C8C8;" points="265.799,283.132 258.5,290.43 273.097,290.43  "/>
        <polygon style="fill:#C8C8C8;" points="256.067,295.296 248.768,302.595 263.366,302.595  "/>
</g>
    <g>
	<rect x="254.85" y="219.88" style="fill:#FFE15A;" width="2.433" height="14.597"/>
        <path style="fill:#FFE15A;"
              d="M242.723,234.768c-0.04-0.157-0.937-3.892,1.579-6.614c2.215-2.4,6.246-3.132,11.965-2.179   l-0.399,2.4c-4.798-0.803-8.178-0.306-9.779,1.428c-1.607,1.742-1.012,4.35-1.006,4.376L242.723,234.768z"/>
        <path style="fill:#FFE15A;"
              d="M236.06,242.86c-3.04-1.52-4.534-5.935-3.263-9.641c0.533-1.554,2.928-6.491,11.345-4.804   l-0.477,2.385c-4.445-0.896-7.561,0.283-8.565,3.207c-0.867,2.526,0.111,5.707,2.049,6.676L236.06,242.86z"/>
        <path style="fill:#FFE15A;"
              d="M269.411,234.768l-2.359-0.589l1.18,0.295l-1.182-0.29c0.007-0.026,0.611-2.649-1.018-4.395   c-1.607-1.725-4.985-2.214-9.765-1.414l-0.399-2.4c5.726-0.955,9.751-0.221,11.965,2.179   C270.348,230.876,269.452,234.611,269.411,234.768z"/>
        <path style="fill:#FFE15A;"
              d="M276.074,242.86l-1.088-2.176c1.939-0.969,2.916-4.151,2.049-6.676   c-1.004-2.925-4.125-4.101-8.565-3.207l-0.478-2.385c8.421-1.684,10.811,3.253,11.345,4.804   C280.609,236.926,279.114,241.34,276.074,242.86z"/>
</g>
    <path style="fill:#FF4B55;"
          d="M265.799,234.474c0,0-4.866-2.433-9.732-2.433s-9.732,2.433-9.732,2.433  c-4.866-2.433-12.165,0-12.165,4.866s7.299,12.164,7.299,12.164h14.597h14.597c0,0,7.299-7.299,7.299-12.164  S270.664,232.041,265.799,234.474z"/>
    <rect x="253.63" y="221.09" style="fill:#FFE15A;" width="4.866" height="2.433"/>
    <g>
	<rect x="231.74" y="207.71" style="fill:#C8C8C8;" width="48.658" height="9.732"/>
        <rect x="225.645" y="212.182" transform="matrix(0.3161 0.9487 -0.9487 0.3161 365.4131 -67.1646)"
              style="fill:#C8C8C8;" width="7.297" height="15.387"/>
        <rect x="275.138" y="216.223" transform="matrix(0.9487 0.3162 -0.3162 0.9487 84.0342 -78.1496)"
              style="fill:#C8C8C8;" width="15.387" height="7.298"/>
</g>
    <path style="fill:#464655;"
          d="M256.067,311.11c-14.085,0-25.545-7.094-25.545-15.814v-41.359c0-2.012,1.637-3.649,3.649-3.649  h43.792c2.012,0,3.649,1.637,3.649,3.649v41.359C281.612,304.015,270.152,311.11,256.067,311.11z M234.171,252.72  c-0.671,0-1.216,0.546-1.216,1.216v41.359c0,7.377,10.368,13.381,23.112,13.381c12.744,0,23.113-6.004,23.113-13.381v-41.359  c0-0.67-0.545-1.216-1.216-1.216H234.171z"/>
    <g>
</g>
    <g>
</g>
    <g>
</g>
    <g>
</g>
    <g>
</g>
    <g>
</g>
    <g>
</g>
    <g>
</g>
    <g>
</g>
    <g>
</g>
    <g>
</g>
    <g>
</g>
    <g>
</g>
    <g>
</g>
    <g>
</g>
</svg>
