<svg xmlns="http://www.w3.org/2000/svg" xmlns:xlink="http://www.w3.org/1999/xlink" id="Layer_1" x="0" y="0" enable-background="new 0 0 512 512" version="1.1" viewBox="0 0 512 512" xml:space="preserve"><path fill="#4173CD" d="M400,0H112C50.144,0,0,50.144,0,112v288c0,61.856,50.144,112,112,112h288 c61.856,0,112-50.144,112-112V112C512,50.144,461.856,0,400,0z"/><path fill="#F5F5F5" d="M499.599,60.73c-10.68-20.704-27.624-37.649-48.329-48.329L256,207.671L60.73,12.401 C40.026,23.081,23.081,40.026,12.401,60.73L207.671,256L12.401,451.27c10.68,20.705,27.624,37.649,48.329,48.329L256,304.329 l195.27,195.27c20.704-10.68,37.649-27.625,48.329-48.329L304.329,256L499.599,60.73z"/></svg>