<?xml version="1.0" encoding="iso-8859-1"?>
<!-- Generator: Adobe Illustrator 19.0.0, SVG Export Plug-In . SVG Version: 6.00 Build 0)  -->
<svg xmlns:xlink="http://www.w3.org/1999/xlink" xmlns="http://www.w3.org/2000/svg" version="1.1" id="Layer_1" x="0px"
     y="0px" viewBox="0 0 512 512" style="enable-background:new 0 0 512 512;" xml:space="preserve">
<path style="fill:#FFE15A;" d="M400,0H112C50.144,0,0,50.144,0,112v144h512V112C512,50.144,461.856,0,400,0z"/>
    <path style="fill:#73AF00;" d="M0,400c0,61.856,50.144,112,112,112h288c61.856,0,112-50.144,112-112V256H0V400z"/>
    <path style="fill:#FF4B55;" d="M112,0C50.144,0,0,50.144,0,112v288c0,61.856,50.144,112,112,112h55.724V0H112z"/>
    <path style="fill:#464655;"
          d="M82.197,211.96l-9.732,29.179l-30.758,0.239c-1.686,0.013-2.385,2.165-1.029,3.167l24.744,18.272  l-9.278,29.327c-0.509,1.608,1.322,2.938,2.694,1.957l25.024-17.886l25.024,17.886c1.372,0.981,3.202-0.349,2.694-1.957  l-9.278-29.327l24.744-18.272c1.356-1.002,0.657-3.154-1.029-3.167l-30.758-0.238l-9.732-29.179  C84.993,210.36,82.731,210.36,82.197,211.96z"/>
    <g>
</g>
    <g>
</g>
    <g>
</g>
    <g>
</g>
    <g>
</g>
    <g>
</g>
    <g>
</g>
    <g>
</g>
    <g>
</g>
    <g>
</g>
    <g>
</g>
    <g>
</g>
    <g>
</g>
    <g>
</g>
    <g>
</g>
</svg>
