<?xml version="1.0" encoding="iso-8859-1"?>
<!-- Generator: Adobe Illustrator 19.0.0, SVG Export Plug-In . SVG Version: 6.00 Build 0)  -->
<svg xmlns:xlink="http://www.w3.org/1999/xlink" xmlns="http://www.w3.org/2000/svg" version="1.1" id="Layer_1" x="0px"
     y="0px" viewBox="0 0 512 512" style="enable-background:new 0 0 512 512;" xml:space="preserve">
<path style="fill:#73AF00;"
      d="M403.962,0.077H108.038C48.018,2.165,0,51.471,0,112v288c0,60.529,48.018,109.835,108.038,111.923  h295.924C463.982,509.835,512,460.529,512,400V112C512,51.471,463.982,2.165,403.962,0.077z"/>
    <g>
	<path style="fill:#FF4B55;"
          d="M497.756,57.315C478.584,23.117,441.995,0,400,0H112C69.94,0,33.302,23.188,14.155,57.474   L253.24,217.59L497.756,57.315z"/>
        <path style="fill:#FF4B55;"
              d="M14.274,454.738C33.454,488.907,70.027,512,112,512h288c42.037,0,78.658-23.164,97.814-57.419   L256.052,296.332L14.274,454.738z"/>
</g>
    <path style="fill:#F5F5F5;"
          d="M334.934,163.986c-21.21-18.215-48.729-29.29-78.882-29.29c-30.152,0-57.672,11.076-78.882,29.29  L14.383,57.066C5.229,73.298,0,92.037,0,112v16.453l140.177,91.804c-3.467,11.278-5.351,23.251-5.351,35.665  s1.884,24.387,5.351,35.665L0,383.411V400c0,19.879,5.186,38.545,14.269,54.729l162.902-106.87  c21.21,18.215,48.73,29.29,78.882,29.29s57.672-11.076,78.882-29.29l162.884,106.716C506.847,438.426,512,419.816,512,400v-16.641  l-140.072-91.771c3.467-11.278,5.351-23.251,5.351-35.665s-1.884-24.388-5.351-35.665L512,128.486V112  c0-19.863-5.177-38.513-14.246-54.688L334.934,163.986z"/>
    <polygon style="fill:#FF4B55;"
             points="247.325,217.158 229.061,217.632 238.597,202.044 229.061,186.457 247.325,186.93   256.052,170.869 264.78,186.93 283.044,186.457 273.508,202.044 283.044,217.632 264.78,217.158 256.052,233.219 "/>
    <path style="fill:#73AF00;"
          d="M256.052,175.105l7.543,13.874l15.787-0.405l-8.244,13.47l8.244,13.47l-15.787-0.404l-7.543,13.874  l-7.543-13.874l-15.787,0.404l8.244-13.47l-8.244-13.47l15.787,0.405L256.052,175.105 M256.052,166.645l-3.55,6.529l-6.362,11.702  l-13.315-0.342l-7.43-0.191l3.88,6.34l6.953,11.36l-6.953,11.36l-3.88,6.34l7.43-0.191l13.315-0.342l6.362,11.702l3.55,6.529  l3.55-6.529l6.362-11.702l13.315,0.342l7.43,0.191l-3.88-6.34l-6.953-11.36l6.953-11.36l3.88-6.34l-7.43,0.191l-13.315,0.342  l-6.362-11.702L256.052,166.645L256.052,166.645z"/>
    <polygon style="fill:#FF4B55;"
             points="197.164,306.435 178.9,306.909 188.436,291.321 178.9,275.734 197.164,276.208   205.891,260.147 214.619,276.208 232.883,275.734 223.347,291.321 232.883,306.909 214.619,306.435 205.891,322.496 "/>
    <path style="fill:#73AF00;"
          d="M205.891,264.382l7.543,13.874l15.787-0.404l-8.244,13.47l8.244,13.47l-15.787-0.404l-7.543,13.874  l-7.543-13.874l-15.787,0.404l8.244-13.47l-8.244-13.47l15.787,0.404L205.891,264.382 M205.891,255.923l-3.55,6.529l-6.362,11.702  l-13.315-0.342l-7.43-0.191l3.88,6.34l6.953,11.36l-6.953,11.36l-3.88,6.34l7.43-0.191l13.315-0.342l6.362,11.702l3.55,6.529  l3.55-6.529l6.362-11.702l13.315,0.342l7.43,0.191l-3.88-6.34l-6.953-11.36l6.953-11.36l3.88-6.34l-7.43,0.191l-13.315,0.342  l-6.362-11.702L205.891,255.923L205.891,255.923z"/>
    <polygon style="fill:#FF4B55;"
             points="297.486,306.435 279.221,306.909 288.758,291.321 279.221,275.734 297.486,276.208   306.213,260.147 314.941,276.208 333.205,275.734 323.669,291.321 333.205,306.909 314.941,306.435 306.213,322.496 "/>
    <path style="fill:#73AF00;"
          d="M306.213,264.382l7.543,13.874l15.787-0.404l-8.244,13.47l8.244,13.47l-15.787-0.404l-7.543,13.874  l-7.543-13.874l-15.787,0.404l8.244-13.47l-8.244-13.47l15.787,0.404L306.213,264.382 M306.213,255.923l-3.55,6.529l-6.362,11.702  l-13.315-0.342l-7.43-0.191l3.88,6.34l6.953,11.36l-6.953,11.36l-3.88,6.34l7.43-0.191l13.315-0.342l6.362,11.702l3.55,6.529  l3.55-6.529l6.362-11.702l13.315,0.342l7.43,0.191l-3.88-6.34l-6.953-11.36l6.953-11.36l3.88-6.34l-7.43,0.191l-13.315,0.342  l-6.362-11.702L306.213,255.923L306.213,255.923z"/>
    <g>
</g>
    <g>
</g>
    <g>
</g>
    <g>
</g>
    <g>
</g>
    <g>
</g>
    <g>
</g>
    <g>
</g>
    <g>
</g>
    <g>
</g>
    <g>
</g>
    <g>
</g>
    <g>
</g>
    <g>
</g>
    <g>
</g>
</svg>
