<?xml version="1.0" encoding="iso-8859-1"?>
<!-- Generator: Adobe Illustrator 19.0.0, SVG Export Plug-In . SVG Version: 6.00 Build 0)  -->
<svg xmlns:xlink="http://www.w3.org/1999/xlink" xmlns="http://www.w3.org/2000/svg" version="1.1" id="Layer_1" x="0px"
     y="0px" viewBox="0 0 512 512" style="enable-background:new 0 0 512 512;" xml:space="preserve">
<path style="fill:#FF4B55;" d="M0,400c0,61.856,50.144,112,112,112h288c61.856,0,112-50.144,112-112v-58.667H0V400z"/>
    <path style="fill:#FFE15A;" d="M400,0H112C50.144,0,0,50.144,0,112v58.667h512V112C512,50.144,461.856,0,400,0z"/>
    <rect y="170.67" style="fill:#73AF00;" width="512" height="170.67"/>
    <path style="fill:#F5F5F5;"
          d="M263.681,86.517l40.348,120.98l127.527,0.989c7.779,0.06,11.005,9.988,4.747,14.61l-102.591,75.758  l38.468,121.591c2.347,7.417-6.099,13.553-12.428,9.029L256,355.315l-103.753,74.159c-6.329,4.524-14.774-1.612-12.428-9.029  l38.468-121.591l-102.59-75.759c-6.258-4.621-3.033-14.549,4.747-14.61l127.527-0.989l40.348-120.98  C250.781,79.136,261.22,79.136,263.681,86.517z"/>
    <g>
</g>
    <g>
</g>
    <g>
</g>
    <g>
</g>
    <g>
</g>
    <g>
</g>
    <g>
</g>
    <g>
</g>
    <g>
</g>
    <g>
</g>
    <g>
</g>
    <g>
</g>
    <g>
</g>
    <g>
</g>
    <g>
</g>
</svg>
