<?xml version="1.0" encoding="iso-8859-1"?>
<!-- Generator: Adobe Illustrator 19.0.0, SVG Export Plug-In . SVG Version: 6.00 Build 0)  -->
<svg xmlns:xlink="http://www.w3.org/1999/xlink" xmlns="http://www.w3.org/2000/svg" version="1.1" id="Layer_1" x="0px"
     y="0px" viewBox="0 0 512 512" style="enable-background:new 0 0 512 512;" xml:space="preserve">
<g>
	<path style="fill:#41479B;" d="M512,400V256L256,512h144C461.856,512,512,461.856,512,400z"/>
    <path style="fill:#41479B;" d="M0,400.024C0.013,461.869,50.152,512,112,512h144L0,256V400.024z"/>
</g>
    <g>
	<path style="fill:#FF4B55;" d="M256,0H112C50.152,0,0.013,50.131,0,111.976V256L256,0z"/>
        <path style="fill:#FF4B55;" d="M512,112C512,50.144,461.856,0,400,0H256l256,256V112z"/>
</g>
    <polygon style="fill:#F5F5F5;" points="512,256 256,0 0,256 256,512 "/>
    <path style="fill:#FFE15A;"
          d="M258.647,158.703l21.19,60.962l64.527,1.315c2.657,0.054,3.753,3.43,1.636,5.035l-51.43,38.992  l18.689,61.775c0.769,2.543-2.102,4.63-4.283,3.112L256,293.03l-52.976,36.864c-2.181,1.518-5.053-0.569-4.283-3.112l18.689-61.775  L166,226.015c-2.117-1.605-1.02-4.981,1.636-5.035l64.527-1.315l21.19-60.962C254.225,156.193,257.775,156.193,258.647,158.703z"/>
    <g>
</g>
    <g>
</g>
    <g>
</g>
    <g>
</g>
    <g>
</g>
    <g>
</g>
    <g>
</g>
    <g>
</g>
    <g>
</g>
    <g>
</g>
    <g>
</g>
    <g>
</g>
    <g>
</g>
    <g>
</g>
    <g>
</g>
</svg>
