<?xml version="1.0" encoding="iso-8859-1"?>
<!-- Generator: Adobe Illustrator 19.0.0, SVG Export Plug-In . SVG Version: 6.00 Build 0)  -->
<svg xmlns:xlink="http://www.w3.org/1999/xlink" xmlns="http://www.w3.org/2000/svg" version="1.1" id="Layer_1" x="0px"
     y="0px" viewBox="0 0 512 512" style="enable-background:new 0 0 512 512;" xml:space="preserve">
<path style="fill:#41479B;" d="M112,0C50.144,0,0,50.144,0,112v278.737L388.414,0H112z"/>
    <path style="fill:#73AF00;" d="M400,512c61.856,0,112-50.144,112-112V121.263L123.586,512H400z"/>
    <path style="fill:#F5F5F5;"
          d="M400,0h-16.861L0,383.14V400c0,61.856,50.144,112,112,112h16.861L512,128.86V112  C512,50.144,461.856,0,400,0z"/>
    <path style="fill:#FF4B55;"
          d="M427.941,3.514L3.514,427.94c10.119,39.405,41.14,70.426,80.545,80.545L508.486,84.06  C498.367,44.655,467.346,13.633,427.941,3.514z"/>
    <g>
	<path style="fill:#FFE15A;"
          d="M100.241,76.413c9.889,0,18.841,4.006,25.324,10.484l3.555-24.677l-19.611,15.432l-9.268-23.17   l-9.268,23.17L71.362,62.221l3.555,24.677C81.4,80.419,90.353,76.413,100.241,76.413z"/>
        <path style="fill:#FFE15A;"
              d="M74.897,137.565c-6.478-6.483-10.484-15.435-10.484-25.324S68.419,93.4,74.897,86.917L50.22,83.362   l15.432,19.611l-23.17,9.268l23.17,9.268L50.22,141.12L74.897,137.565z"/>
        <path style="fill:#FFE15A;"
              d="M158,112.241l-23.17-9.268l15.432-19.611l-24.677,3.555c6.478,6.483,10.484,15.435,10.484,25.324   c0,9.888-4.006,18.841-10.484,25.324l24.677,3.555l-15.432-19.611L158,112.241z"/>
        <path style="fill:#FFE15A;"
              d="M100.241,148.07c-9.889,0-18.841-4.006-25.324-10.484l-3.555,24.676l19.611-15.432l9.268,23.17   l9.268-23.17l19.611,15.432l-3.555-24.676C119.082,144.063,110.13,148.07,100.241,148.07z"/>
        <circle style="fill:#FFE15A;" cx="100.24" cy="112.24" r="29.25"/>
</g>
    <g>
</g>
    <g>
</g>
    <g>
</g>
    <g>
</g>
    <g>
</g>
    <g>
</g>
    <g>
</g>
    <g>
</g>
    <g>
</g>
    <g>
</g>
    <g>
</g>
    <g>
</g>
    <g>
</g>
    <g>
</g>
    <g>
</g>
</svg>
