<svg xmlns="http://www.w3.org/2000/svg" xmlns:xlink="http://www.w3.org/1999/xlink" id="Layer_1" x="0" y="0" enable-background="new 0 0 512 512" version="1.1" viewBox="0 0 512 512" xml:space="preserve"><path fill="#73AF00" d="M0,400c0,61.856,50.144,112,112,112h288c61.856,0,112-50.144,112-112v-58.667H0V400z"/><path fill="#464655" d="M400,0H112C50.144,0,0,50.144,0,112v58.667h512V112C512,50.144,461.856,0,400,0z"/><rect width="512" height="170.67" y="170.67" fill="#C8414B"/><g><rect width="512" height="26.947" y="161.68" fill="#F5F5F5"/><rect width="512" height="26.947" y="323.37" fill="#F5F5F5"/><path fill="#F5F5F5" d="M328.147,142.469c10.85-22.371,22.169-74.194,22.169-74.194s-33.69,40.973-44.54,63.344 c-2.274,4.689-1.31,10.081,1.976,13.729L184.171,400.142l8.389,4.069l123.581-254.794 C321.041,149.739,325.872,147.158,328.147,142.469z"/><path fill="#F5F5F5" d="M183.854,142.469c-10.85-22.371-22.169-74.194-22.169-74.194s33.69,40.973,44.54,63.344 c2.274,4.689,1.31,10.081-1.976,13.729L327.83,400.142l-8.389,4.069L195.859,149.417 C190.96,149.739,186.128,147.158,183.854,142.469z"/></g><path fill="#C8414B" d="M323.368,256c0,74.413-54.966,134.737-67.368,134.737S188.632,330.413,188.632,256 S243.598,121.263,256,121.263C268.402,121.263,323.368,181.587,323.368,256z"/><g><path fill="#464655" d="M309.895,321.007c7.937-19.28,13.474-41.424,13.474-65.007c0-23.582-5.537-45.727-13.474-65.007 c-7.937,19.28-13.474,41.424-13.474,65.007C296.421,279.582,301.958,301.727,309.895,321.007z"/><path fill="#464655" d="M202.105,190.993c-7.937,19.28-13.474,41.424-13.474,65.007c0,23.582,5.537,45.727,13.474,65.007 c7.937-19.28,13.474-41.424,13.474-65.007C215.579,232.418,210.042,210.273,202.105,190.993z"/></g><g><ellipse cx="256" cy="256" fill="#F5F5F5" rx="13.474" ry="20.21"/><path fill="#F5F5F5" d="M258.021,121.263V235.79c3.673-7.647,10.189-30.243,10.189-57.263 C268.211,151.505,261.695,128.91,258.021,121.263z"/><path fill="#F5F5F5" d="M253.979,121.263c-3.674,7.647-10.189,30.241-10.189,57.263c0,27.02,6.516,49.616,10.189,57.263 V121.263z"/><path fill="#F5F5F5" d="M258.021,276.211v114.526c3.673-7.647,10.189-30.243,10.189-57.263 C268.211,306.452,261.695,283.857,258.021,276.211z"/><path fill="#F5F5F5" d="M253.979,276.211c-3.674,7.647-10.189,30.241-10.189,57.263c0,27.02,6.516,49.616,10.189,57.263 V276.211z"/></g></svg>