<?xml version="1.0" encoding="iso-8859-1"?>
<!-- Generator: Adobe Illustrator 19.0.0, SVG Export Plug-In . SVG Version: 6.00 Build 0)  -->
<svg xmlns:xlink="http://www.w3.org/1999/xlink" xmlns="http://www.w3.org/2000/svg" version="1.1" id="Layer_1" x="0px"
     y="0px" viewBox="0 0 512 512" style="enable-background:new 0 0 512 512;" xml:space="preserve">
<path style="fill:#82AFFF;" d="M400,0H112C50.144,0,0,50.144,0,112v144h512V112C512,50.144,461.856,0,400,0z"/>
    <path style="fill:#73AF00;" d="M0,400c0,61.856,50.144,112,112,112h288c61.856,0,112-50.144,112-112V256H0V400z"/>
    <path style="fill:#F5F5F5;"
          d="M32.804,32.804C12.536,53.072,0,81.072,0,112v288c0,30.928,12.536,58.928,32.804,79.196L256,256  L32.804,32.804z"/>
    <path style="fill:#FF4B55;"
          d="M60.158,311.88l12.125-41.391l-35.237-24.871c-1.932-1.364-1.016-4.401,1.347-4.47l43.112-1.259  L94.27,198.69c0.7-2.259,3.872-2.327,4.668-0.1l14.52,40.613l43.126-0.59c2.364-0.032,3.409,2.963,1.538,4.408l-34.138,26.359  l13.888,40.833c0.761,2.239-1.765,4.158-3.718,2.825l-35.618-24.322l-34.543,25.827C62.099,315.958,59.493,314.149,60.158,311.88z"/>
    <g>
</g>
    <g>
</g>
    <g>
</g>
    <g>
</g>
    <g>
</g>
    <g>
</g>
    <g>
</g>
    <g>
</g>
    <g>
</g>
    <g>
</g>
    <g>
</g>
    <g>
</g>
    <g>
</g>
    <g>
</g>
    <g>
</g>
</svg>
