<svg xmlns="http://www.w3.org/2000/svg" xmlns:xlink="http://www.w3.org/1999/xlink" id="Layer_1" x="0" y="0" enable-background="new 0 0 512.001 512.001" version="1.1" viewBox="0 0 512.001 512.001" xml:space="preserve"><path fill="#F5F5F5" d="M400,0H112C50.144,0,0,50.146,0,112v288c0,61.856,50.144,112,112,112h288 c61.856,0,112-50.144,112-112V112C512,50.146,461.856,0,400,0z"/><g><path fill="#41479B" d="M409.487,363.789c-25.611,0-25.611-13.474-51.221-13.474c-25.589,0-25.589,13.474-51.177,13.474 c-25.602,0-25.602-13.474-51.205-13.474c-25.596,0-25.596,13.474-51.191,13.474s-25.595-13.474-51.191-13.474 c-25.595,0-25.595,13.474-51.191,13.474c-25.584,0-25.584-13.474-51.168-13.474c-25.572,0-25.572,13.474-51.143,13.474V400 c0,1.41,0.035,2.811,0.087,4.209c25.482-0.031,25.515-13.472,51.056-13.472c25.584,0,25.584,13.474,51.168,13.474 c25.595,0,25.595-13.474,51.191-13.474c25.595,0,25.595,13.474,51.191,13.474s25.596-13.474,51.191-13.474 c25.602,0,25.602,13.474,51.205,13.474c25.588,0,25.588-13.474,51.177-13.474c25.611,0,25.611,13.474,51.221,13.474 c25.628,0,25.628-13.474,51.257-13.474c25.599,0,25.631,13.441,51.17,13.472C511.965,402.813,512,401.41,512,400v-36.211 c-25.628,0-25.628-13.474-51.257-13.474S435.115,363.789,409.487,363.789z"/><path fill="#41479B" d="M409.487,202.105c-25.611,0-25.611-13.474-51.221-13.474c-25.589,0-25.589,13.474-51.177,13.474 c-25.602,0-25.602-13.474-51.205-13.474c-25.596,0-25.596,13.474-51.191,13.474s-25.595-13.474-51.191-13.474 c-25.595,0-25.595,13.474-51.191,13.474c-25.584,0-25.584-13.474-51.168-13.474c-25.572,0-25.572,13.474-51.143,13.474v40.421 c25.571,0,25.571-13.474,51.143-13.474c25.584,0,25.584,13.474,51.168,13.474c25.595,0,25.595-13.474,51.191-13.474 c25.595,0,25.595,13.474,51.191,13.474s25.596-13.474,51.191-13.474c25.602,0,25.602,13.474,51.205,13.474 c25.588,0,25.588-13.474,51.177-13.474c25.611,0,25.611,13.474,51.221,13.474c25.628,0,25.628-13.474,51.257-13.474 s25.628,13.474,51.257,13.474v-40.421c-25.628,0-25.628-13.474-51.257-13.474S435.115,202.105,409.487,202.105z"/><path fill="#41479B" d="M409.487,121.263c-25.611,0-25.611-13.474-51.221-13.474c-25.589,0-25.589,13.474-51.177,13.474 c-25.602,0-25.602-13.474-51.205-13.474c-25.596,0-25.596,13.474-51.191,13.474s-25.595-13.474-51.191-13.474 c-25.595,0-25.595,13.474-51.191,13.474c-25.584,0-25.584-13.474-51.168-13.474c-25.572,0-25.572,13.474-51.143,13.474v40.421 c25.571,0,25.571-13.474,51.143-13.474c25.584,0,25.584,13.474,51.168,13.474c25.595,0,25.595-13.474,51.191-13.474 c25.595,0,25.595,13.474,51.191,13.474s25.596-13.474,51.191-13.474c25.602,0,25.602,13.474,51.205,13.474 c25.588,0,25.588-13.474,51.177-13.474c25.611,0,25.611,13.474,51.221,13.474c25.628,0,25.628-13.474,51.257-13.474 s25.628,13.474,51.257,13.474v-40.421c-25.628,0-25.628-13.474-51.257-13.474S435.115,121.263,409.487,121.263z"/><path fill="#41479B" d="M102.311,80.842c25.595,0,25.595-13.474,51.191-13.474c25.595,0,25.595,13.474,51.191,13.474 s25.596-13.474,51.191-13.474c25.602,0,25.602,13.474,51.205,13.474c25.588,0,25.588-13.474,51.177-13.474 c25.611,0,25.611,13.474,51.221,13.474c25.628,0,25.628-13.474,51.257-13.474c24.055,0,25.534,11.869,46.816,13.326 c-5.894-20.284-17.366-38.191-32.65-51.951c-3.793-1.087-8.305-1.796-14.166-1.796c-25.628,0-25.628,13.474-51.257,13.474 c-25.611,0-25.611-13.474-51.221-13.474c-25.589,0-25.589,13.474-51.177,13.474c-25.602,0-25.602-13.474-51.205-13.474 c-25.596,0-25.596,13.474-51.191,13.474s-25.595-13.474-51.191-13.474c-25.595,0-25.595,13.474-51.191,13.474 c-25.584,0-25.584-13.474-51.168-13.474c-5.784,0-10.253,0.693-14.012,1.76C21.827,42.473,10.339,60.395,4.44,80.694 c21.226-1.46,22.705-13.326,46.703-13.326C76.727,67.368,76.727,80.842,102.311,80.842z"/><path fill="#41479B" d="M409.487,282.947c-25.611,0-25.611-13.474-51.221-13.474c-25.589,0-25.589,13.474-51.177,13.474 c-25.602,0-25.602-13.474-51.205-13.474c-25.596,0-25.596,13.474-51.191,13.474s-25.595-13.474-51.191-13.474 c-25.595,0-25.595,13.474-51.191,13.474c-25.584,0-25.584-13.474-51.168-13.474c-25.572,0-25.572,13.474-51.143,13.474v40.421 c25.571,0,25.571-13.474,51.143-13.474c25.584,0,25.584,13.474,51.168,13.474c25.595,0,25.595-13.474,51.191-13.474 c25.595,0,25.595,13.474,51.191,13.474s25.596-13.474,51.191-13.474c25.602,0,25.602,13.474,51.205,13.474 c25.588,0,25.588-13.474,51.177-13.474c25.611,0,25.611,13.474,51.221,13.474c25.628,0,25.628-13.474,51.257-13.474 s25.628,13.474,51.257,13.474v-40.421c-25.628,0-25.628-13.474-51.257-13.474S435.115,282.947,409.487,282.947z"/><path fill="#41479B" d="M409.487,444.632c-25.611,0-25.611-13.474-51.221-13.474c-25.589,0-25.589,13.474-51.177,13.474 c-25.602,0-25.602-13.474-51.205-13.474c-25.596,0-25.596,13.474-51.191,13.474s-25.595-13.474-51.191-13.474 c-25.595,0-25.595,13.474-51.191,13.474c-25.584,0-25.584-13.474-51.168-13.474c-22.166,0-25.128,10.118-42.176,12.815 c5.097,11.926,12.205,22.786,20.896,32.158c5.228-2.5,11.307-4.552,21.28-4.552c25.584,0,25.584,13.474,51.168,13.474 c25.595,0,25.595-13.474,51.191-13.474c25.595,0,25.595,13.474,51.191,13.474s25.596-13.474,51.191-13.474 c25.602,0,25.602,13.474,51.205,13.474c25.588,0,25.588-13.474,51.177-13.474c25.611,0,25.611,13.474,51.221,13.474 c25.628,0,25.628-13.474,51.257-13.474c10.024,0,16.124,2.063,21.373,4.573c8.7-9.376,15.815-20.242,20.915-32.176 c-17.103-2.692-20.065-12.818-42.289-12.818C435.115,431.158,435.115,444.632,409.487,444.632z"/></g><path fill="#965032" d="M396.23,461.929h-3.293c-3.059,0-5.538-2.479-5.538-5.538V224.84h14.369v231.551 C401.768,459.449,399.288,461.929,396.23,461.929z"/><polygon fill="#73AF00" points="495.167 253.579 480.797 246.395 427.893 239.783 460.626 197.697 465.706 182.456 450.466 187.536 408.381 220.269 401.768 167.366 394.583 152.995 387.399 167.366 380.786 220.269 338.701 187.536 323.46 182.456 328.54 197.697 361.273 239.783 308.369 246.395 294 253.579 308.369 260.763 361.273 267.375 328.54 309.46 323.46 324.701 338.701 319.621 384.423 284.06 394.583 267.947 404.744 284.06 450.466 319.621 465.706 324.701 460.626 309.46 427.893 267.375 480.797 260.763"/><path fill="#FFE15A" d="M425.861,337.253c-6.456-6.444-20.283-4.076-27.686-2.207v-6.03c0-1.984-1.608-3.592-3.592-3.592 s-3.592,1.609-3.592,3.592v6.029c-7.402-1.875-21.226-4.243-27.686,2.208c-6.158,6.155-1.697,20.996,2.54,31.313v9.553 c0,2.641,2.14,4.781,4.781,4.781h47.915c2.64,0,4.781-2.14,4.781-4.781v-9.553C427.558,358.248,432.019,343.408,425.861,337.253z M420.782,342.332c2.742,2.745-0.329,14.775-5.278,26.198h-17.328v-26.065C406.241,340.182,417.289,338.833,420.782,342.332z M368.385,342.332c3.49-3.499,14.538-2.15,22.606,0.134v26.064h-17.328C368.714,357.107,365.643,345.077,368.385,342.332z"/><g><path fill="#41479B" d="M94.316,1.395C67.937,5.579,44.628,18.971,27.779,38.177L94.316,81.77V1.395z"/><path fill="#41479B" d="M7.021,72.899C4.47,79.746,2.569,86.91,1.395,94.316H39.71L7.021,72.899z"/><polygon fill="#41479B" points="0 161.686 0 187.702 39.71 161.686"/><polygon fill="#41479B" points="256 19.977 256 0 161.684 0 161.684 81.77"/><polygon fill="#41479B" points="256 187.702 256 161.686 216.29 161.686"/><polygon fill="#41479B" points="161.684 256 256 256 256 236.023 161.684 174.23"/><polygon fill="#41479B" points="256 94.316 256 68.299 216.29 94.316"/><polygon fill="#41479B" points="94.316 174.23 0 236.023 0 256 94.316 256"/></g><g><polygon fill="#F5F5F5" points="148.211 256 161.684 256 161.684 174.23 256 236.023 256 216.061 172.232 161.686 196.98 161.686 256 199.995 256 187.702 216.29 161.686 256 161.686 256 148.212 148.211 148.212"/><polygon fill="#F5F5F5" points="94.316 256 107.79 256 107.79 148.212 0 148.212 0 161.686 39.71 161.686 0 187.702 0 206.604 69.197 161.686 93.945 161.686 0 222.668 0 236.023 94.316 174.23"/><path fill="#F5F5F5" d="M107.79,0.087c-4.566,0.169-9.063,0.608-13.474,1.308V81.77L27.779,38.177 c-4.005,4.566-7.643,9.46-10.872,14.637l63.935,41.502H56.094L10.461,64.694c-1.251,2.68-2.4,5.415-3.44,8.205L39.71,94.316H1.395 c-0.7,4.411-1.139,8.907-1.308,13.474H107.79V0.087z"/><polygon fill="#F5F5F5" points="256 107.79 256 94.316 216.29 94.316 256 68.299 256 49.159 186.432 94.316 161.684 94.316 256 33.093 256 19.977 161.684 81.77 161.684 0 148.211 0 148.211 107.79"/></g><g><path fill="#FF4B55" d="M107.79,256h40.421V148.21H256v-40.42H148.211V0H112c-1.411,0-2.813,0.035-4.211,0.087V107.79H0.087 C0.035,109.187,0,110.59,0,112v36.21h107.79V256z"/><polygon fill="#FF4B55" points="69.197 161.686 0 206.604 0 222.668 93.945 161.686"/><polygon fill="#FF4B55" points="172.232 161.686 256 216.061 256 199.995 196.98 161.686"/><path fill="#FF4B55" d="M80.842,94.316L16.907,52.814c-2.378,3.813-4.533,7.778-6.447,11.88l45.634,29.622H80.842z"/><polygon fill="#FF4B55" points="186.432 94.316 256 49.159 256 33.093 161.684 94.316"/></g></svg>