<?xml version="1.0" encoding="iso-8859-1"?>
<!-- Generator: Adobe Illustrator 19.0.0, SVG Export Plug-In . SVG Version: 6.00 Build 0)  -->
<svg xmlns:xlink="http://www.w3.org/1999/xlink" xmlns="http://www.w3.org/2000/svg" version="1.1" id="Layer_1" x="0px"
     y="0px" viewBox="0 0 512 512" style="enable-background:new 0 0 512 512;" xml:space="preserve">
<path style="fill:#82AFFF;"
      d="M400,0H112C50.144,0,0,50.144,0,112v288c0,61.856,50.144,112,112,112h288  c61.856,0,112-50.144,112-112V112C512,50.144,461.856,0,400,0z"/>
    <g>
	<path style="fill:#41479B;" d="M94.316,1.395C67.937,5.579,44.628,18.971,27.779,38.177L94.316,81.77V1.395z"/>
        <path style="fill:#41479B;" d="M7.021,72.899C4.47,79.746,2.569,86.91,1.395,94.316H39.71L7.021,72.899z"/>
        <polygon style="fill:#41479B;" points="0,161.684 0,187.701 39.71,161.684  "/>
        <polygon style="fill:#41479B;" points="256,19.977 256,0 161.684,0 161.684,81.77  "/>
        <polygon style="fill:#41479B;" points="256,187.701 256,161.684 216.29,161.684  "/>
        <polygon style="fill:#41479B;" points="161.684,256 256,256 256,236.023 161.684,174.23  "/>
        <polygon style="fill:#41479B;" points="256,94.316 256,68.299 216.29,94.316  "/>
        <polygon style="fill:#41479B;" points="94.316,174.23 0,236.023 0,256 94.316,256  "/>
</g>
    <g>
	<polygon style="fill:#F5F5F5;"
             points="148.211,256 161.684,256 161.684,174.23 256,236.023 256,216.059 172.232,161.684    196.98,161.684 256,199.995 256,187.701 216.29,161.684 256,161.684 256,148.21 148.211,148.21  "/>
        <polygon style="fill:#F5F5F5;"
                 points="94.316,256 107.79,256 107.79,148.21 0,148.21 0,161.684 39.71,161.684 0,187.701    0,206.602 69.198,161.684 93.945,161.684 0,222.666 0,236.023 94.316,174.23  "/>
        <path style="fill:#F5F5F5;"
              d="M107.79,0.087c-4.566,0.169-9.063,0.608-13.474,1.308V81.77L27.779,38.177   c-4.005,4.566-7.643,9.46-10.872,14.637l63.935,41.502H56.094L10.461,64.694c-1.251,2.68-2.4,5.415-3.44,8.205L39.71,94.316H1.395   c-0.7,4.411-1.139,8.907-1.308,13.474H107.79V0.087z"/>
        <polygon style="fill:#F5F5F5;"
                 points="256,107.79 256,94.316 216.29,94.316 256,68.299 256,49.157 186.432,94.316 161.684,94.316    256,33.093 256,19.977 161.684,81.77 161.684,0 148.211,0 148.211,107.79  "/>
</g>
    <g>
	<path style="fill:#FF4B55;"
          d="M107.79,256h40.421V148.21H256v-40.42H148.211V0H112c-1.41,0-2.813,0.035-4.211,0.087V107.79H0.087   C0.035,109.187,0,110.59,0,112v36.21h107.79V256z"/>
        <polygon style="fill:#FF4B55;" points="69.198,161.684 0,206.602 0,222.666 93.945,161.684  "/>
        <polygon style="fill:#FF4B55;" points="172.232,161.684 256,216.059 256,199.995 196.98,161.684  "/>
        <path style="fill:#FF4B55;"
              d="M80.842,94.316L16.907,52.814c-2.378,3.813-4.533,7.778-6.447,11.88l45.634,29.622H80.842z"/>
        <polygon style="fill:#FF4B55;" points="186.432,94.316 256,49.157 256,33.093 161.684,94.316  "/>
</g>
    <g>
	<path style="fill:#FFE15A;"
          d="M203.959,415.958l-4.726,14.17l-14.936,0.116c-1.432,0.011-2.026,1.839-0.874,2.69l12.016,8.873   l-4.506,14.241c-0.432,1.366,1.123,2.495,2.288,1.662l12.152-8.686l12.152,8.686c1.165,0.833,2.72-0.297,2.288-1.662l-4.505-14.241   l12.016-8.873c1.152-0.851,0.558-2.679-0.874-2.69l-14.936-0.116l-4.726-14.17C206.334,414.6,204.412,414.6,203.959,415.958z"/>
        <path style="fill:#FFE15A;"
              d="M434.028,305.614l-4.726,14.169l-14.936,0.116c-1.432,0.011-2.026,1.839-0.874,2.69l12.016,8.873   l-4.505,14.241c-0.432,1.366,1.123,2.495,2.288,1.662l12.152-8.686l12.152,8.686c1.165,0.833,2.72-0.297,2.288-1.663l-4.505-14.241   l12.016-8.873c1.152-0.851,0.558-2.679-0.874-2.69l-14.936-0.116l-4.726-14.169C436.403,304.255,434.481,304.255,434.028,305.614z"/>
        <path style="fill:#FFE15A;"
              d="M434.028,186.441l-4.726,14.169l-14.936,0.116c-1.432,0.011-2.026,1.839-0.874,2.69l12.016,8.873   l-4.505,14.241c-0.432,1.366,1.123,2.495,2.288,1.663l12.152-8.686l12.152,8.686c1.165,0.833,2.72-0.297,2.288-1.663l-4.505-14.241   l12.016-8.873c1.152-0.851,0.558-2.679-0.874-2.69l-14.936-0.116l-4.726-14.169C436.403,185.083,434.481,185.083,434.028,186.441z"/>
        <path style="fill:#FFE15A;"
              d="M263.104,341.412l4.665,14.19l-11.915,9.008c-1.143,0.864-0.528,2.685,0.904,2.68l14.937-0.052   l4.885,14.115c0.468,1.354,2.39,1.332,2.828-0.032l4.566-14.222l14.934-0.284c1.432-0.027,2.005-1.862,0.844-2.699l-12.115-8.737   l4.345-14.291c0.417-1.37-1.151-2.483-2.307-1.637l-12.053,8.822l-12.249-8.548C264.199,338.904,262.657,340.051,263.104,341.412z"/>
        <path style="fill:#FFE15A;"
              d="M262.001,402.653l4.665,14.19l-11.915,9.008c-1.143,0.864-0.528,2.685,0.904,2.68l14.937-0.052   l4.885,14.115c0.468,1.354,2.39,1.332,2.828-0.032l4.566-14.222l14.934-0.284c1.432-0.027,2.005-1.862,0.844-2.699l-12.115-8.737   l4.345-14.291c0.417-1.37-1.151-2.483-2.307-1.637l-12.053,8.822l-12.249-8.548C263.095,400.145,261.553,401.293,262.001,402.653z"/>
        <path style="fill:#FFE15A;"
              d="M326.552,387.205l4.665,14.19l-11.915,9.008c-1.143,0.864-0.528,2.685,0.904,2.68l14.937-0.052   l4.885,14.115c0.469,1.354,2.39,1.332,2.828-0.032l4.566-14.222l14.934-0.284c1.432-0.027,2.005-1.862,0.844-2.699l-12.115-8.737   l4.345-14.291c0.417-1.37-1.151-2.483-2.307-1.637l-12.053,8.822l-12.249-8.548C327.647,384.697,326.105,385.844,326.552,387.205z"/>
        <path style="fill:#FFE15A;"
              d="M325.449,253.688l4.665,14.189l-11.915,9.008c-1.143,0.864-0.528,2.685,0.904,2.68l14.937-0.052   l4.885,14.115c0.468,1.354,2.39,1.332,2.828-0.032l4.566-14.222l14.934-0.284c1.432-0.027,2.005-1.862,0.844-2.7l-12.115-8.737   l4.345-14.291c0.417-1.37-1.151-2.483-2.307-1.637l-12.053,8.822L327.718,252C326.544,251.18,325.002,252.327,325.449,253.688z"/>
        <path style="fill:#FFE15A;"
              d="M380.07,235.481l4.665,14.189l-11.915,9.008c-1.143,0.864-0.528,2.685,0.904,2.68l14.937-0.052   l4.885,14.116c0.468,1.354,2.39,1.332,2.828-0.032l4.566-14.222l14.934-0.284c1.432-0.027,2.005-1.862,0.844-2.699l-12.115-8.737   l4.345-14.291c0.417-1.37-1.151-2.483-2.307-1.637l-12.053,8.822l-12.249-8.548C381.164,232.973,379.622,234.12,380.07,235.481z"/>
</g>
    <g>
</g>
    <g>
</g>
    <g>
</g>
    <g>
</g>
    <g>
</g>
    <g>
</g>
    <g>
</g>
    <g>
</g>
    <g>
</g>
    <g>
</g>
    <g>
</g>
    <g>
</g>
    <g>
</g>
    <g>
</g>
    <g>
</g>
</svg>
