<svg xmlns="http://www.w3.org/2000/svg" xmlns:xlink="http://www.w3.org/1999/xlink" id="Layer_1" x="0" y="0" enable-background="new 0 0 512 512" version="1.1" viewBox="0 0 512 512" xml:space="preserve"><path fill="#41479B" d="M512,400V112C512,50.144,461.856,0,400,0H112C50.152,0,0.014,50.131,0,111.976v288.048 C0.014,461.869,50.152,512,112,512h288C461.856,512,512,461.856,512,400z"/><path fill="#F5F5F5" d="M400,0H112C50.144,0,0,50.144,0,112v288c0,30.928,12.536,58.928,32.804,79.196L479.196,32.804 C458.928,12.536,430.928,0,400,0z"/><path fill="#FFE15A" d="M224.779,0H112C50.148,0,0.007,50.138,0,111.988V224.78L224.779,0z"/><path fill="#464655" d="M196.481,223.236c-4.006-26.737-25.089-47.82-51.825-51.826l-9.207-18.416l-9.207,18.416 c-26.736,4.005-47.819,25.088-51.825,51.826L56,232.443l18.415,9.207c4.006,26.737,25.089,47.82,51.825,51.825l9.207,18.416 l9.207-18.416c26.736-4.005,47.819-25.088,51.825-51.825l18.415-9.207L196.481,223.236z M135.448,285.409 c-29.252,0-52.965-23.713-52.965-52.965s23.713-52.965,52.965-52.965s52.965,23.713,52.965,52.965 C188.414,261.695,164.701,285.409,135.448,285.409z"/><polygon fill="#FF4B55" points="135.448 198.498 144.953 215.981 164.845 215.471 154.457 232.443 164.845 249.415 144.953 248.905 135.448 266.388 125.944 248.905 106.051 249.415 116.439 232.443 106.051 215.471 125.944 215.981"/></svg>