<svg xmlns="http://www.w3.org/2000/svg" xmlns:xlink="http://www.w3.org/1999/xlink" id="Layer_1" x="0" y="0" enable-background="new 0 0 512 512" version="1.1" viewBox="0 0 512 512" xml:space="preserve"><g><path fill="#73AF00" d="M400,0H112C53.379,0,5.285,45.039,0.414,102.4h511.172C506.716,45.039,458.621,0,400,0z"/><rect width="512" height="102.4" y="204.8" fill="#73AF00"/></g><path fill="#FFE15A" d="M0.414,102.4C0.145,105.565,0,108.765,0,112v92.8h512V112c0-3.235-0.145-6.435-0.414-9.6H0.414z"/><path fill="#73AF00" d="M112,512h288c58.621,0,106.716-45.039,111.586-102.4H0.414C5.285,466.961,53.379,512,112,512z"/><path fill="#FFE15A" d="M0,400c0,3.234,0.145,6.435,0.414,9.6h511.172c0.269-3.165,0.414-6.366,0.414-9.6v-92.8H0V400z"/><path fill="#FF4B55" d="M309.895,299.2V0H112C50.144,0,0,50.144,0,112v195.2h301.895 C306.313,307.2,309.895,303.618,309.895,299.2z"/><path fill="#F5F5F5" d="M151.616,72.288l-19.472,58.385L70.6,131.15c-3.374,0.026-4.773,4.332-2.059,6.336l49.51,36.561 l-18.565,58.68c-1.018,3.217,2.645,5.878,5.39,3.916l50.071-35.789l50.071,35.789c2.745,1.962,6.408-0.699,5.39-3.916l-18.565-58.68 l49.51-36.561c2.714-2.004,1.315-6.31-2.059-6.336l-61.545-0.477l-19.472-58.385C157.211,69.087,152.684,69.087,151.616,72.288z"/></svg>