<?xml version="1.0" encoding="iso-8859-1"?>
<!-- Generator: Adobe Illustrator 19.0.0, SVG Export Plug-In . SVG Version: 6.00 Build 0)  -->
<svg xmlns:xlink="http://www.w3.org/1999/xlink" xmlns="http://www.w3.org/2000/svg" version="1.1" id="Layer_1" x="0px"
     y="0px" viewBox="0 0 512 512" style="enable-background:new 0 0 512 512;" xml:space="preserve">
<path style="fill:#464655;"
      d="M512,400V112C512,50.144,461.856,0,400,0H112C51.25,0,1.801,48.368,0.052,108.695v294.61  C1.801,463.632,51.25,512,112,512h288C461.856,512,512,461.856,512,400z"/>
    <polygon style="fill:#FFE15A;"
             points="256.052,62.478 269.588,133.19 309.153,73.04 294.598,143.549 354.17,103.119   313.739,162.691 384.249,148.136 324.099,187.701 394.811,201.236 324.099,214.771 384.249,254.337 313.739,239.781 354.17,299.353   294.598,258.923 309.153,329.432 269.588,269.282 256.052,339.995 242.517,269.282 202.952,329.432 217.507,258.923   157.935,299.353 198.366,239.781 127.856,254.337 188.006,214.771 117.294,201.236 188.006,187.701 127.856,148.136   198.366,162.691 157.935,103.119 217.507,143.549 202.952,73.04 242.517,133.19 "/>
    <g>
	<path style="fill:#FF4B55;"
          d="M0,112v288c0,61.856,50.144,112,112,112h144.052L22.401,44.792C8.337,63.513,0,86.782,0,112z"/>
        <path style="fill:#FF4B55;"
              d="M512,400V112c0-25.197-8.323-48.45-22.366-67.163L256.052,512H400C461.856,512,512,461.856,512,400z   "/>
</g>
    <polygon style="fill:#4173CD;" points="155,309.895 357.105,309.895 411,202.105 101.105,202.105 "/>
    <polygon style="fill:#F5F5F5;" points="155,309.895 256.052,512 357.105,309.895 "/>
    <g>
</g>
    <g>
</g>
    <g>
</g>
    <g>
</g>
    <g>
</g>
    <g>
</g>
    <g>
</g>
    <g>
</g>
    <g>
</g>
    <g>
</g>
    <g>
</g>
    <g>
</g>
    <g>
</g>
    <g>
</g>
    <g>
</g>
</svg>
