<?xml version="1.0" encoding="iso-8859-1"?>
<!-- Generator: Adobe Illustrator 19.0.0, SVG Export Plug-In . SVG Version: 6.00 Build 0)  -->
<svg xmlns:xlink="http://www.w3.org/1999/xlink" xmlns="http://www.w3.org/2000/svg" version="1.1" id="Layer_1" x="0px"
     y="0px" viewBox="0 0 512 512" style="enable-background:new 0 0 512 512;" xml:space="preserve">
<path style="fill:#73AF00;"
      d="M400,0H112C50.144,0,0,50.144,0,112v288c0,61.856,50.144,112,112,112h288  c61.856,0,112-50.144,112-112V112C512,50.144,461.856,0,400,0z"/>
    <g>
	<path style="fill:#F5F5F5;"
          d="M0,400c0,6.018,0.481,11.923,1.395,17.684h509.211C511.52,411.923,512,406.018,512,400v-36.211H0   V400z"/>
        <path style="fill:#F5F5F5;"
              d="M1.395,94.316C0.481,100.077,0,105.982,0,112v36.211h512V112c0-6.018-0.48-11.923-1.395-17.684   H1.395z"/>
</g>
    <rect y="148.21" style="fill:#C8414B;" width="512" height="215.58"/>
    <path style="fill:#FFE15A;"
          d="M252.643,172.99l-19.619,58.826l-62.01,0.481c-3.4,0.026-4.809,4.365-2.074,6.384l49.884,36.837  l-18.705,59.123c-1.025,3.241,2.665,5.923,5.431,3.946L256,302.528l50.45,36.06c2.766,1.977,6.456-0.704,5.431-3.946l-18.705-59.123  l49.884-36.837c2.735-2.02,1.325-6.358-2.074-6.384l-62.01-0.481l-19.619-58.826C258.281,169.765,253.719,169.765,252.643,172.99z"/>
    <g>
</g>
    <g>
</g>
    <g>
</g>
    <g>
</g>
    <g>
</g>
    <g>
</g>
    <g>
</g>
    <g>
</g>
    <g>
</g>
    <g>
</g>
    <g>
</g>
    <g>
</g>
    <g>
</g>
    <g>
</g>
    <g>
</g>
</svg>
