<svg xmlns="http://www.w3.org/2000/svg" xmlns:xlink="http://www.w3.org/1999/xlink" id="Layer_1" x="0" y="0" enable-background="new 0 0 512 512" version="1.1" viewBox="0 0 512 512" xml:space="preserve"><rect width="170.67" height="512" x="170.67" fill="#FFE15A"/><g><path fill="#41479B" d="M112,0C50.15,0,0.011,50.134,0,111.981v288.038C0.011,461.866,50.15,512,112,512h58.667V0H112z"/><path fill="#41479B" d="M512,400V112C512,50.144,461.856,0,400,0h-58.666v512H400C461.856,512,512,461.856,512,400z"/></g><path fill="#464655" d="M326.621,207.256c0,0-24.564,0-42.987,18.423h12.282c0,0-11.898,21.493-18.039,58.339l-12.666-2.067 v-56.454l12.282,4.021L256,176.552l-21.493,52.965l12.282-4.094v56.528l-12.666,2.067c-6.141-36.846-18.039-58.339-18.039-58.339 h12.282c-18.423-18.423-42.987-18.423-42.987-18.423c30.705,36.846,30.705,98.255,30.705,98.255l30.705-5.117v41.962h18.423v-41.962 l30.705,5.117C295.916,305.511,295.916,244.102,326.621,207.256z"/></svg>