<svg xmlns="http://www.w3.org/2000/svg" xmlns:xlink="http://www.w3.org/1999/xlink" id="Layer_1" x="0" y="0" enable-background="new 0 0 512 512" version="1.1" viewBox="0 0 512 512" xml:space="preserve"><path fill="#41479B" d="M400,0H112C50.144,0,0,50.144,0,112v288c0,61.856,50.144,112,112,112h288 c61.856,0,112-50.144,112-112V112C512,50.144,461.856,0,400,0z"/><path fill="#73AF00" d="M33.247,479.628C53.479,499.64,81.295,512,112,512h288c61.856,0,112-50.144,112-112V112 c0-27.677-10.044-53.004-26.68-72.549L33.247,479.628z"/><path fill="#FFE15A" d="M466.185,21.648L21.648,466.186c6.776,9.234,14.932,17.39,24.166,24.166L490.352,45.814 C483.576,36.58,475.42,28.424,466.185,21.648z"/><g><path fill="#F5F5F5" d="M62.983,41.744l-6.133,18.39l-19.385,0.15c-1.859,0.014-2.63,2.387-1.134,3.491l15.595,11.516 l-5.847,18.483c-0.561,1.772,1.457,3.239,2.97,2.158L64.82,84.659l15.77,11.273c1.512,1.081,3.531-0.385,2.97-2.158l-5.848-18.483 l15.595-11.516c1.495-1.104,0.725-3.477-1.134-3.491l-19.385-0.15l-6.133-18.39C66.066,39.98,63.571,39.98,62.983,41.744z"/><path fill="#F5F5F5" d="M210.654,41.744l-6.133,18.39l-19.385,0.15c-1.859,0.014-2.63,2.387-1.134,3.491l15.595,11.516 l-5.848,18.483c-0.561,1.772,1.457,3.239,2.97,2.158l15.771-11.273l15.771,11.273c1.512,1.081,3.531-0.385,2.97-2.158 l-5.847-18.483l15.595-11.516c1.495-1.104,0.725-3.477-1.134-3.491l-19.385-0.15l-6.133-18.39 C213.737,39.98,211.242,39.98,210.654,41.744z"/><path fill="#F5F5F5" d="M136.819,107.543l-6.133,18.39l-19.385,0.15c-1.859,0.014-2.63,2.387-1.134,3.491l15.595,11.516 l-5.847,18.483c-0.561,1.772,1.457,3.239,2.97,2.158l15.771-11.273l15.771,11.273c1.512,1.081,3.53-0.385,2.97-2.158l-5.848-18.483 l15.595-11.516c1.495-1.104,0.725-3.477-1.134-3.491l-19.385-0.15l-6.133-18.39C139.901,105.779,137.407,105.779,136.819,107.543z"/><path fill="#F5F5F5" d="M62.983,173.342l-6.133,18.39l-19.385,0.15c-1.859,0.014-2.63,2.387-1.134,3.491l15.595,11.516 l-5.847,18.483c-0.561,1.772,1.457,3.239,2.97,2.158l15.771-11.273l15.77,11.273c1.512,1.081,3.531-0.385,2.97-2.158l-5.848-18.483 l15.595-11.516c1.495-1.104,0.725-3.477-1.134-3.491l-19.385-0.15l-6.133-18.39C66.066,171.579,63.571,171.579,62.983,173.342z"/><path fill="#F5F5F5" d="M210.654,173.342l-6.133,18.39l-19.385,0.15c-1.859,0.014-2.63,2.387-1.134,3.491l15.595,11.516 l-5.848,18.483c-0.561,1.772,1.457,3.239,2.97,2.158l15.771-11.273l15.771,11.273c1.512,1.081,3.531-0.385,2.97-2.158 l-5.847-18.483l15.595-11.516c1.495-1.104,0.725-3.477-1.134-3.491l-19.385-0.15l-6.133-18.39 C213.737,171.579,211.242,171.579,210.654,173.342z"/></g></svg>