<svg xmlns="http://www.w3.org/2000/svg" xmlns:xlink="http://www.w3.org/1999/xlink" id="Layer_1" x="0" y="0" enable-background="new 0 0 512 512" version="1.1" viewBox="0 0 512 512" xml:space="preserve"><path fill="#4173CD" d="M512,400V112C512,50.144,461.856,0,400,0H112C50.152,0,0.013,50.131,0,111.976v288.048 C0.013,461.869,50.152,512,112,512h288C461.856,512,512,461.856,512,400z"/><polygon fill="#FFE15A" points="512 211.862 229.518 211.862 229.518 0 141.242 0 141.242 211.862 0 211.862 0 300.138 141.242 300.138 141.242 512 229.518 512 229.518 300.138 512 300.138"/><polygon fill="#FF4B55" points="512 238.345 203.035 238.345 203.035 0 167.724 0 167.724 238.345 0 238.345 0 273.655 167.724 273.655 167.724 512 203.035 512 203.035 273.655 512 273.655"/></svg>