<?xml version="1.0" encoding="iso-8859-1"?>
<!-- Generator: Adobe Illustrator 19.0.0, SVG Export Plug-In . SVG Version: 6.00 Build 0)  -->
<svg xmlns:xlink="http://www.w3.org/1999/xlink" xmlns="http://www.w3.org/2000/svg" version="1.1" id="Layer_1" x="0px"
     y="0px" viewBox="0 0 512.003 512.003" style="enable-background:new 0 0 512.003 512.003;" xml:space="preserve">
<polygon style="fill:#FFE15A;" points="97.647,35.665 120.188,139.961 155.457,125.352 "/>
    <polygon style="fill:#FFCD5A;" points="97.647,35.665 137.822,132.656 120.188,139.961 "/>
    <polygon style="fill:#FFE15A;" points="185.302,247.282 162.762,142.987 127.492,157.596 "/>
    <polygon style="fill:#FFCD5A;" points="185.302,247.282 145.127,150.291 162.762,142.987 "/>
    <polygon style="fill:#FFE15A;" points="247.283,97.646 142.987,120.187 157.597,155.456 "/>
    <polygon style="fill:#FFCD5A;" points="247.283,97.646 150.292,137.822 142.987,120.187 "/>
    <polygon style="fill:#FFE15A;" points="35.666,185.301 139.962,162.761 125.353,127.491 "/>
    <polygon style="fill:#FFCD5A;" points="35.666,185.301 132.657,145.126 139.962,162.761 "/>
    <polygon style="fill:#FFE15A;" points="185.302,35.665 127.492,125.352 162.762,139.961 "/>
    <polygon style="fill:#FFCD5A;" points="185.302,35.665 145.127,132.656 127.492,125.352 "/>
    <polygon style="fill:#FFE15A;" points="97.647,247.282 155.457,157.596 120.188,142.987 "/>
    <polygon style="fill:#FFCD5A;" points="97.647,247.282 137.822,150.291 155.457,157.596 "/>
    <polygon style="fill:#FFE15A;" points="247.283,185.301 157.597,127.491 142.987,162.761 "/>
    <polygon style="fill:#FFCD5A;" points="247.283,185.301 150.292,145.126 157.597,127.491 "/>
    <polygon style="fill:#FFE15A;" points="35.666,97.646 125.353,155.456 139.962,120.187 "/>
    <polygon style="fill:#FFCD5A;" points="35.666,97.646 132.657,137.822 125.353,155.456 "/>
    <g>
	<path style="fill:#F5F5F5;"
          d="M497.519,56.889C497.519,56.889,497.518,56.888,497.519,56.889c-1.188-2.097-2.442-4.15-3.757-6.159   c-0.037-0.056-0.074-0.112-0.111-0.168c-1.961-2.983-4.061-5.866-6.29-8.642c-0.052-0.065-0.105-0.13-0.157-0.195   c-2.221-2.753-4.57-5.398-7.038-7.927c-0.076-0.077-0.151-0.155-0.227-0.232c-1.647-1.679-3.346-3.308-5.096-4.881   c-0.046-0.041-0.093-0.082-0.139-0.123c-0.813-0.728-1.638-1.444-2.472-2.149c-0.103-0.087-0.206-0.175-0.309-0.261   c-1.776-1.49-3.599-2.926-5.466-4.305c-0.11-0.081-0.22-0.16-0.33-0.241c-0.828-0.607-1.666-1.203-2.511-1.787   c-0.132-0.091-0.264-0.184-0.396-0.275c-1.888-1.294-3.819-2.531-5.789-3.71c-0.171-0.102-0.343-0.203-0.515-0.304   c-0.842-0.498-1.69-0.985-2.546-1.461c-0.161-0.089-0.32-0.18-0.481-0.269c-1.987-1.093-4.012-2.126-6.071-3.099   c-0.227-0.107-0.456-0.213-0.684-0.319c-0.858-0.399-1.722-0.787-2.592-1.165c-0.183-0.079-0.364-0.161-0.547-0.239   c-1.049-0.448-2.105-0.883-3.17-1.3c-0.122-0.048-0.245-0.092-0.367-0.14c-0.924-0.358-1.855-0.703-2.791-1.038   c-0.273-0.097-0.546-0.194-0.82-0.289c-0.887-0.309-1.779-0.607-2.676-0.894c-0.19-0.061-0.378-0.125-0.569-0.185   c-1.079-0.339-2.165-0.662-3.258-0.969c-0.215-0.061-0.433-0.116-0.648-0.176c-0.882-0.242-1.769-0.473-2.66-0.694   c-0.309-0.077-0.618-0.153-0.928-0.227c-0.934-0.223-1.872-0.435-2.814-0.634c-0.176-0.037-0.351-0.078-0.527-0.115   c-1.109-0.229-2.224-0.44-3.344-0.635c-0.279-0.049-0.559-0.092-0.839-0.139c-0.868-0.145-1.74-0.28-2.614-0.405   c-0.33-0.047-0.66-0.094-0.991-0.139c-1.017-0.136-2.038-0.26-3.064-0.368c-0.123-0.013-0.245-0.029-0.367-0.042   c-1.14-0.117-2.286-0.212-3.436-0.295c-0.32-0.023-0.642-0.041-0.963-0.061c-0.871-0.055-1.745-0.1-2.622-0.135   c-0.34-0.014-0.679-0.028-1.02-0.039C402.343,0.024,401.175,0,400.001,0h-117v56.889H497.519z"/>
        <path style="fill:#F5F5F5;"
              d="M14.484,455.112c1.187,2.096,2.441,4.15,3.757,6.16c0.036,0.055,0.073,0.111,0.109,0.166   c1.961,2.983,4.061,5.867,6.29,8.643c0.053,0.065,0.105,0.131,0.158,0.196c2.221,2.753,4.57,5.398,7.037,7.927   c0.076,0.078,0.151,0.155,0.227,0.232c1.647,1.679,3.347,3.308,5.096,4.881c0.046,0.041,0.092,0.082,0.138,0.123   c0.813,0.729,1.638,1.445,2.472,2.149c0.103,0.087,0.205,0.174,0.308,0.261c1.776,1.49,3.598,2.925,5.465,4.304   c0.111,0.082,0.223,0.162,0.334,0.244c0.827,0.606,1.663,1.2,2.506,1.784c0.133,0.092,0.266,0.186,0.4,0.277   c1.888,1.294,3.819,2.531,5.788,3.709c0.17,0.102,0.342,0.202,0.513,0.303c0.841,0.497,1.69,0.984,2.545,1.46   c0.162,0.09,0.322,0.181,0.484,0.271c1.986,1.093,4.011,2.125,6.068,3.098c0.228,0.108,0.457,0.214,0.686,0.32   c0.857,0.399,1.721,0.787,2.59,1.164c0.183,0.079,0.364,0.161,0.547,0.24c1.049,0.448,2.105,0.883,3.17,1.3   c0.122,0.048,0.245,0.092,0.367,0.14c0.924,0.358,1.854,0.703,2.79,1.037c0.273,0.098,0.548,0.194,0.822,0.29   c0.887,0.309,1.778,0.607,2.675,0.894c0.19,0.061,0.379,0.125,0.569,0.185c1.079,0.339,2.164,0.662,3.257,0.969   c0.216,0.061,0.434,0.117,0.651,0.176c0.882,0.242,1.767,0.473,2.657,0.694c0.31,0.077,0.62,0.153,0.93,0.227   c0.933,0.223,1.871,0.434,2.814,0.634c0.176,0.037,0.351,0.078,0.528,0.115c1.109,0.229,2.224,0.439,3.344,0.635   c0.279,0.049,0.56,0.092,0.84,0.139c0.868,0.145,1.739,0.28,2.613,0.405c0.33,0.047,0.661,0.094,0.992,0.139   c1.017,0.136,2.037,0.26,3.062,0.368c0.123,0.013,0.245,0.029,0.369,0.042c1.14,0.117,2.286,0.212,3.436,0.295   c0.32,0.023,0.642,0.041,0.964,0.061c0.871,0.055,1.745,0.1,2.622,0.135c0.34,0.014,0.679,0.028,1.02,0.039   c1.165,0.036,2.333,0.06,3.507,0.06h288c1.174,0,2.342-0.024,3.507-0.06c0.34-0.01,0.68-0.025,1.02-0.039   c0.876-0.035,1.75-0.08,2.622-0.135c0.321-0.02,0.643-0.038,0.964-0.061c1.15-0.082,2.296-0.178,3.436-0.295   c0.123-0.013,0.245-0.029,0.369-0.042c1.025-0.108,2.045-0.232,3.062-0.368c0.331-0.044,0.662-0.091,0.992-0.139   c0.874-0.125,1.745-0.26,2.613-0.405c0.28-0.047,0.561-0.09,0.84-0.139c1.12-0.196,2.235-0.406,3.344-0.635   c0.177-0.036,0.351-0.077,0.528-0.115c0.942-0.199,1.88-0.411,2.813-0.634c0.311-0.074,0.62-0.15,0.93-0.227   c0.89-0.221,1.776-0.452,2.657-0.694c0.217-0.059,0.435-0.115,0.651-0.176c1.093-0.307,2.178-0.63,3.257-0.969   c0.19-0.06,0.379-0.124,0.569-0.185c0.897-0.287,1.788-0.585,2.675-0.894c0.274-0.096,0.549-0.192,0.822-0.29   c0.936-0.334,1.866-0.679,2.79-1.037c0.122-0.047,0.245-0.092,0.367-0.14c1.065-0.417,2.121-0.851,3.17-1.3   c0.183-0.078,0.365-0.16,0.547-0.24c0.869-0.377,1.733-0.765,2.59-1.164c0.229-0.106,0.458-0.212,0.686-0.32   c2.058-0.973,4.082-2.006,6.068-3.098c0.162-0.089,0.322-0.181,0.484-0.271c0.855-0.476,1.704-0.963,2.545-1.46   c0.171-0.101,0.343-0.201,0.513-0.303c1.969-1.179,3.9-2.416,5.788-3.709c0.134-0.092,0.267-0.185,0.4-0.277   c0.844-0.584,1.68-1.178,2.506-1.784c0.111-0.082,0.223-0.162,0.334-0.244c1.867-1.379,3.689-2.814,5.465-4.304   c0.103-0.086,0.205-0.174,0.308-0.261c0.834-0.705,1.659-1.421,2.473-2.149c0.046-0.041,0.092-0.082,0.138-0.123   c1.75-1.573,3.449-3.202,5.096-4.881c0.076-0.077,0.151-0.155,0.227-0.232c2.467-2.529,4.816-5.174,7.037-7.927   c0.053-0.065,0.105-0.131,0.158-0.196c2.229-2.776,4.329-5.659,6.29-8.643c0.036-0.055,0.073-0.111,0.109-0.166   c1.316-2.009,2.57-4.063,3.757-6.16c0,0,0,0,0-0.001L14.484,455.112C14.483,455.111,14.484,455.112,14.484,455.112z"/>
</g>
    <path style="fill:#4173CD;"
          d="M511.945,108.606c-0.01-0.339-0.025-0.677-0.039-1.015c-0.032-0.815-0.071-1.627-0.12-2.437  c-0.021-0.354-0.043-0.708-0.067-1.061c-0.064-0.92-0.14-1.838-0.226-2.752c-0.018-0.196-0.033-0.394-0.052-0.59  c-0.112-1.12-0.241-2.236-0.386-3.346c-0.03-0.233-0.066-0.464-0.097-0.696c-0.121-0.887-0.252-1.772-0.394-2.652  c-0.048-0.301-0.098-0.602-0.149-0.902c-0.15-0.887-0.311-1.771-0.483-2.651c-0.041-0.212-0.08-0.425-0.122-0.636  c-0.445-2.22-0.957-4.416-1.532-6.586c-0.054-0.206-0.111-0.411-0.167-0.616c-0.25-0.923-0.511-1.841-0.783-2.754  c-0.051-0.169-0.1-0.339-0.151-0.508c-0.667-2.193-1.397-4.358-2.192-6.491c-0.026-0.07-0.053-0.14-0.08-0.21  c-0.373-0.995-0.761-1.983-1.161-2.965c-0.048-0.117-0.095-0.234-0.143-0.35c-1.312-3.185-2.766-6.297-4.355-9.327  c-0.035-0.067-0.07-0.133-0.105-0.2c-0.526-0.999-1.065-1.989-1.621-2.969c0,0-0.001-0.001-0.001-0.002H283.001v56.889h229V112  C512.001,110.864,511.979,109.734,511.945,108.606z"/>
    <rect x="283" y="113.78" style="fill:#F5F5F5;" width="229" height="56.889"/>
    <rect x="283" y="170.67" style="fill:#4173CD;" width="229" height="56.889"/>
    <polygon style="fill:#F5F5F5;"
             points="283.001,283.995 0.001,283.995 0.001,284.444 512.001,284.444 512.001,227.556   283.001,227.556 "/>
    <rect x="0.001" y="284.44" style="fill:#4173CD;" width="512" height="56.889"/>
    <rect x="0.001" y="341.33" style="fill:#F5F5F5;" width="512" height="56.889"/>
    <path style="fill:#4173CD;"
          d="M0.001,400c0,1.136,0.022,2.267,0.056,3.394c0.01,0.339,0.025,0.677,0.038,1.015  c0.032,0.815,0.071,1.627,0.12,2.437c0.021,0.354,0.043,0.708,0.067,1.061c0.064,0.921,0.14,1.839,0.226,2.753  c0.019,0.196,0.033,0.393,0.052,0.589c0.112,1.121,0.241,2.236,0.386,3.347c0.03,0.232,0.066,0.463,0.097,0.695  c0.121,0.888,0.252,1.773,0.394,2.654c0.048,0.3,0.098,0.6,0.149,0.9c0.151,0.888,0.312,1.773,0.483,2.654  c0.041,0.211,0.079,0.423,0.121,0.633c0.445,2.221,0.958,4.418,1.533,6.589c0.054,0.205,0.111,0.408,0.166,0.613  c0.25,0.923,0.511,1.841,0.784,2.754c0.051,0.17,0.1,0.341,0.152,0.511c0.667,2.193,1.397,4.358,2.192,6.492  c0.025,0.068,0.052,0.136,0.078,0.204c0.374,0.997,0.762,1.988,1.164,2.972c0.047,0.115,0.094,0.23,0.141,0.345  c1.313,3.187,2.767,6.301,4.357,9.332c0.034,0.065,0.068,0.129,0.102,0.194c0.527,1,1.067,1.992,1.623,2.973l0.001,0.001  l483.036,0.001c0,0,0.001-0.001,0.001-0.002c0.556-0.982,1.096-1.973,1.623-2.973c0.034-0.065,0.068-0.129,0.102-0.194  c1.59-3.032,3.045-6.145,4.357-9.332c0.047-0.115,0.094-0.23,0.141-0.345c0.401-0.984,0.79-1.974,1.164-2.972  c0.026-0.068,0.052-0.136,0.078-0.204c0.795-2.134,1.525-4.299,2.192-6.492c0.052-0.17,0.101-0.341,0.152-0.511  c0.273-0.913,0.534-1.831,0.784-2.754c0.055-0.204,0.112-0.408,0.166-0.613c0.575-2.171,1.087-4.368,1.533-6.589  c0.042-0.211,0.08-0.423,0.121-0.633c0.171-0.881,0.332-1.766,0.483-2.654c0.051-0.3,0.101-0.6,0.149-0.9  c0.142-0.881,0.273-1.766,0.394-2.654c0.032-0.232,0.067-0.463,0.097-0.695c0.145-1.111,0.274-2.226,0.386-3.347  c0.02-0.196,0.034-0.393,0.052-0.589c0.086-0.914,0.162-1.832,0.226-2.753c0.025-0.353,0.046-0.707,0.067-1.061  c0.049-0.81,0.089-1.622,0.12-2.437c0.013-0.338,0.028-0.676,0.039-1.015c0.034-1.128,0.056-2.258,0.056-3.394v-1.778H0.001V400z"/>
    <path style="fill:#F5F5F5;"
          d="M283.001,227.556v-56.889v-56.889V56.889V0h-171c-61.856,0-112,50.144-112,112v1.778v56.889v56.889  v56.439h283V227.556z"/>
    <polygon style="fill:#FFE15A;" points="141.475,26.947 122.387,131.93 160.562,131.93 "/>
    <polygon style="fill:#FFCD5A;" points="141.475,26.947 141.475,131.93 122.387,131.93 "/>
    <polygon style="fill:#FFE15A;" points="141.475,256 160.562,151.018 122.387,151.018 "/>
    <polygon style="fill:#FFCD5A;" points="141.475,256 141.475,151.018 160.562,151.018 "/>
    <polygon style="fill:#FFE15A;" points="256.001,141.474 151.019,122.386 151.019,160.561 "/>
    <polygon style="fill:#FFCD5A;" points="256.001,141.474 151.019,141.474 151.019,122.386 "/>
    <polygon style="fill:#FFE15A;" points="26.948,141.474 131.931,160.561 131.931,122.386 "/>
    <polygon style="fill:#FFCD5A;" points="26.948,141.474 131.931,141.474 131.931,160.561 "/>
    <polygon style="fill:#FFE15A;" points="222.457,60.491 134.726,121.228 161.72,148.222 "/>
    <polygon style="fill:#FFCD5A;" points="222.457,60.491 148.223,134.725 134.726,121.228 "/>
    <polygon style="fill:#FFE15A;" points="60.492,222.456 148.223,161.719 121.229,134.725 "/>
    <polygon style="fill:#FFCD5A;" points="60.492,222.456 134.726,148.222 148.223,161.719 "/>
    <polygon style="fill:#FFE15A;" points="222.457,222.456 161.72,134.725 134.726,161.719 "/>
    <polygon style="fill:#FFCD5A;" points="222.457,222.456 148.223,148.222 161.72,134.725 "/>
    <polygon style="fill:#FFE15A;" points="60.492,60.491 121.229,148.222 148.223,121.228 "/>
    <polygon style="fill:#FFCD5A;" points="60.492,60.491 134.726,134.725 121.229,148.222 "/>
    <circle style="fill:#FFE15A;" cx="141.47" cy="141.47" r="38.17"/>
    <g>
</g>
    <g>
</g>
    <g>
</g>
    <g>
</g>
    <g>
</g>
    <g>
</g>
    <g>
</g>
    <g>
</g>
    <g>
</g>
    <g>
</g>
    <g>
</g>
    <g>
</g>
    <g>
</g>
    <g>
</g>
    <g>
</g>
</svg>
