<svg xmlns="http://www.w3.org/2000/svg" xmlns:xlink="http://www.w3.org/1999/xlink" id="Layer_1" x="0" y="0" enable-background="new 0 0 512 512" version="1.1" viewBox="0 0 512 512" xml:space="preserve"><path fill="#FF4B55" d="M400,0H112C50.144,0,0,50.144,0,112v144h512V112C512,50.144,461.856,0,400,0z"/><path fill="#73AF00" d="M0,400c0,61.856,50.144,112,112,112h288c61.856,0,112-50.144,112-112V256H0V400z"/><path fill="#FFE15A" d="M260.15,182.515l16.951,50.826l53.577,0.415c4.151,0.032,5.872,5.329,2.533,7.795l-43.101,31.828 l16.161,51.083c1.252,3.958-3.254,7.231-6.631,4.818l-43.589-31.156l-43.589,31.156c-3.377,2.414-7.883-0.86-6.631-4.818 l16.161-51.083l-43.101-31.828c-3.339-2.466-1.618-7.763,2.533-7.795l53.577-0.415l16.951-50.826 C253.267,178.578,258.837,178.578,260.15,182.515z"/></svg>