<svg xmlns="http://www.w3.org/2000/svg" xmlns:xlink="http://www.w3.org/1999/xlink" id="Layer_1" x="0" y="0" enable-background="new 0 0 512 512" version="1.1" viewBox="0 0 512 512" xml:space="preserve"><path fill="#FF4B55" d="M512,400V112C512,50.144,461.856,0,400,0H112C50.151,0,0.011,50.134,0,111.981v288.038 C0.011,461.867,50.151,512,112,512h288C461.856,512,512,461.856,512,400z"/><path fill="#73AF00" d="M502.818,444.465C508.721,430.834,512,415.801,512,400v-2.658L296.266,256L512,114.658V112 c0-15.659-3.218-30.564-9.022-44.098L256,229.619L9.104,67.715C3.251,81.293,0.003,96.257,0,111.982v2.676L215.735,256L0,397.343 v2.676c0.003,15.721,3.25,30.683,9.1,44.259L256,282.382L502.818,444.465z"/><polygon fill="#F5F5F5" points="512 233.931 278.069 233.931 278.069 0 233.931 0 233.931 233.931 0 233.931 0 278.069 233.931 278.069 233.931 512 278.069 512 278.069 278.069 512 278.069"/></svg>