<svg xmlns="http://www.w3.org/2000/svg" xmlns:xlink="http://www.w3.org/1999/xlink" id="Layer_1" x="0" y="0" enable-background="new 0 0 512 512" version="1.1" viewBox="0 0 512 512" xml:space="preserve"><path fill="#FFE15A" d="M400,0H112C70.18,0,33.718,22.924,14.482,56.889h483.036C478.282,22.924,441.82,0,400,0z"/><path fill="#FF4B55" d="M14.482,56.889C5.266,73.161,0,91.964,0,112v1.778h512V112c0-20.036-5.266-38.839-14.482-55.111 H14.482z"/><rect width="512" height="56.889" y="113.78" fill="#FFE15A"/><rect width="512" height="56.889" y="170.67" fill="#FF4B55"/><g><rect width="512" height="56.889" y="227.56" fill="#FFE15A"/><path fill="#FFE15A" d="M112,512h288c41.82,0,78.282-22.924,97.518-56.889H14.482C33.718,489.076,70.18,512,112,512z"/></g><rect width="512" height="56.889" y="284.44" fill="#FF4B55"/><rect width="512" height="56.889" y="341.33" fill="#FFE15A"/><path fill="#FF4B55" d="M0,400c0,20.036,5.266,38.839,14.482,55.111h483.036C506.734,438.839,512,420.036,512,400v-1.778H0 V400z"/><path fill="#64466E" d="M353.737,245.629V0H112C50.144,0,0,50.144,0,112v144h343.366 C349.094,256,353.737,251.357,353.737,245.629z"/><path fill="#F5F5F5" d="M316.989,115.778h-26.972V84.953h3.853v-7.706h-3.853h-30.826h-3.853v7.706h3.853v30.825h-15.413 V84.953h3.853v-7.706h-3.853h-30.826H209.1v7.706h3.853v30.825h-23.119V77.247h3.853V69.54h-38.532v7.706h3.853v38.532h-23.119 V84.953h3.853v-7.706h-3.853h-30.826h-3.853v7.706h3.853v30.825H89.651V84.953h3.853v-7.706h-3.853H58.825h-3.853v7.706h3.853 v30.825H31.853H28v7.706h3.853v69.357h26.972h26.972v-23.119c0-4.256,3.45-7.706,7.706-7.706c4.256,0,7.706,3.451,7.706,7.706 v23.119h3.853h30.826h3.853v-23.119c0-4.256,3.45-7.706,7.706-7.706s7.706,3.451,7.706,7.706v23.119h3.853h3.853V165.87 c0-6.384,5.175-11.56,11.56-11.56c6.384,0,11.56,5.176,11.56,11.56v26.972h3.853h3.853v-23.119c0-4.256,3.45-7.706,7.706-7.706 s7.706,3.451,7.706,7.706v23.119h3.853h30.826h3.853v-23.119c0-4.256,3.45-7.706,7.706-7.706s7.706,3.451,7.706,7.706v23.119h26.972 h26.972v-69.357h3.853v-7.706L316.989,115.778L316.989,115.778z M81.945,146.604H66.532v-23.119c0-4.256,3.45-7.706,7.706-7.706 c4.256,0,7.706,3.451,7.706,7.706L81.945,146.604L81.945,146.604z M128.183,146.604H112.77v-23.119c0-4.256,3.45-7.706,7.706-7.706 c4.256,0,7.706,3.451,7.706,7.706v23.119H128.183z M182.127,123.485h-15.413v-15.413c0-4.256,3.45-7.706,7.706-7.706 s7.706,3.451,7.706,7.706v15.413H182.127z M236.072,146.604h-15.413v-23.119c0-4.256,3.45-7.706,7.706-7.706 s7.706,3.451,7.706,7.706v23.119H236.072z M282.31,146.604h-15.413v-23.119c0-4.256,3.45-7.706,7.706-7.706s7.706,3.451,7.706,7.706 v23.119H282.31z"/></svg>