<svg xmlns="http://www.w3.org/2000/svg" xmlns:xlink="http://www.w3.org/1999/xlink" id="Layer_1" x="0" y="0" enable-background="new 0 0 512 512" version="1.1" viewBox="0 0 512 512" xml:space="preserve"><path fill="#41479B" d="M400,0H112C50.144,0,0,50.144,0,112v288c0,61.856,50.144,112,112,112h288 c61.856,0,112-50.144,112-112V112C512,50.144,461.856,0,400,0z"/><path fill="#F5F5F5" d="M29.23,475.45c3.545,3.887,7.36,7.523,11.415,10.879L512,188.632V112 c0-5.677-0.426-11.254-1.241-16.704L29.23,475.45z"/><path fill="#FF9B55" d="M478.298,31.928L20.94,465.215c2.564,3.574,5.332,6.993,8.29,10.236L510.759,95.296 C507.069,70.621,495.328,48.583,478.298,31.928z"/><polygon fill="#F5F5F5" points="176.42 146.853 233.552 139.719 176.42 132.585 205.375 114.825 169.349 123.634 191.274 93.721 161.361 115.646 170.17 79.619 152.411 108.575 145.276 51.443 138.141 108.575 120.382 79.619 129.191 115.646 99.278 93.721 121.203 123.634 85.176 114.825 114.132 132.585 57 139.719 114.131 146.853 85.176 164.613 121.203 155.804 99.278 185.717 129.191 163.792 120.382 199.818 138.141 170.863 145.276 227.995 152.411 170.863 170.17 199.818 161.361 163.792 191.274 185.717 169.349 155.804 205.375 164.613"/></svg>