<?xml version="1.0" encoding="iso-8859-1"?>
<!-- Generator: Adobe Illustrator 19.0.0, SVG Export Plug-In . SVG Version: 6.00 Build 0)  -->
<svg xmlns:xlink="http://www.w3.org/1999/xlink" xmlns="http://www.w3.org/2000/svg" version="1.1" id="Layer_1" x="0px"
     y="0px" viewBox="0 0 512 512" style="enable-background:new 0 0 512 512;" xml:space="preserve">
<path style="fill:#73AF00;"
      d="M112,0C50.152,0,0.013,50.131,0,111.976v288.048C0.013,461.869,50.152,512,112,512h58.667V0H112z"/>
    <rect x="170.67" style="fill:#FF4B55;" width="170.67" height="512"/>
    <g>
	<path style="fill:#FFE15A;"
          d="M512,400V112C512,50.144,461.856,0,400,0h-58.666v512H400C461.856,512,512,461.856,512,400z"/>
        <path style="fill:#FFE15A;"
              d="M258.434,213.061l10.065,30.178l31.811,0.247c2.465,0.019,3.487,3.164,1.504,4.628l-25.591,18.898   l9.596,30.331c0.743,2.35-1.932,4.294-3.937,2.86L256,281.704l-25.881,18.499c-2.005,1.433-4.68-0.511-3.937-2.86l9.596-30.331   l-25.591-18.898c-1.983-1.464-0.961-4.609,1.504-4.628l31.811-0.247l10.065-30.178   C254.347,210.723,257.654,210.723,258.434,213.061z"/>
</g>
    <g>
</g>
    <g>
</g>
    <g>
</g>
    <g>
</g>
    <g>
</g>
    <g>
</g>
    <g>
</g>
    <g>
</g>
    <g>
</g>
    <g>
</g>
    <g>
</g>
    <g>
</g>
    <g>
</g>
    <g>
</g>
    <g>
</g>
</svg>
