<?xml version="1.0" encoding="iso-8859-1"?>
<!-- Generator: Adobe Illustrator 19.0.0, SVG Export Plug-In . SVG Version: 6.00 Build 0)  -->
<svg xmlns:xlink="http://www.w3.org/1999/xlink" xmlns="http://www.w3.org/2000/svg" version="1.1" id="Layer_1" x="0px"
     y="0px" viewBox="0 0 512 512" style="enable-background:new 0 0 512 512;" xml:space="preserve">
<path style="fill:#F5F5F5;"
      d="M400,0H112C50.144,0,0,50.144,0,112v288c0,61.856,50.144,112,112,112h288  c61.856,0,112-50.144,112-112V112C512,50.144,461.856,0,400,0z"/>
    <path style="fill:#FF4B55;" d="M400,0H256v256h256V112C512,50.144,461.856,0,400,0z"/>
    <g>
	<path style="fill:#4173CD;" d="M0,256v144c0,61.856,50.144,112,112,112h144V256H0z"/>
        <path style="fill:#4173CD;"
              d="M131.4,90.349l8.416,25.234l26.6,0.206c3.444,0.027,4.872,4.422,2.101,6.467l-21.398,15.802   l8.023,25.361c1.039,3.283-2.7,6-5.501,3.997L128,151.949l-21.641,15.468c-2.802,2.003-6.54-0.714-5.501-3.997l8.023-25.361   l-21.398-15.802c-2.77-2.046-1.342-6.441,2.101-6.467l26.599-0.206l8.416-25.234C125.689,87.082,130.311,87.082,131.4,90.349z"/>
</g>
    <path style="fill:#FF4B55;"
          d="M387.4,346.349l8.416,25.234l26.6,0.206c3.444,0.027,4.872,4.422,2.101,6.467l-21.398,15.802  l8.023,25.361c1.039,3.284-2.7,6-5.501,3.997L384,407.949l-21.641,15.468c-2.802,2.003-6.54-0.714-5.501-3.997l8.023-25.361  l-21.398-15.802c-2.77-2.046-1.342-6.441,2.101-6.467l26.6-0.206l8.416-25.234C381.69,343.082,386.31,343.082,387.4,346.349z"/>
    <g>
</g>
    <g>
</g>
    <g>
</g>
    <g>
</g>
    <g>
</g>
    <g>
</g>
    <g>
</g>
    <g>
</g>
    <g>
</g>
    <g>
</g>
    <g>
</g>
    <g>
</g>
    <g>
</g>
    <g>
</g>
    <g>
</g>
</svg>
