<svg xmlns="http://www.w3.org/2000/svg" xmlns:xlink="http://www.w3.org/1999/xlink" id="Layer_1" x="0" y="0" enable-background="new 0 0 512 512" version="1.1" viewBox="0 0 512 512" xml:space="preserve"><path fill="#73AF00" d="M400,0H112C50.144,0,0,50.144,0,112v58.667h512V112C512,50.144,461.856,0,400,0z"/><path fill="#FF4B55" d="M0,400c0,61.856,50.144,112,112,112h288c61.856,0,112-50.144,112-112v-58.667H0V400z"/><rect width="512" height="170.67" y="170.67" fill="#F5F5F5"/><path fill="#464655" d="M141.238,170.433L29.79,35.948C11.304,55.921,0,82.638,0,112v288 c0,29.362,11.304,56.079,29.79,76.052l111.451-134.489L141.238,170.433z"/></svg>