<svg xmlns="http://www.w3.org/2000/svg" xmlns:xlink="http://www.w3.org/1999/xlink" id="Layer_1" x="0" y="0" enable-background="new 0 0 512.001 512.001" version="1.1" viewBox="0 0 512.001 512.001" xml:space="preserve"><g><path fill="#FF4B55" d="M400,0.001H112C51.5,0.001,2.212,47.973,0.081,107.953H511.92C509.788,47.973,460.5,0.001,400,0.001 z"/><path fill="#FF4B55" d="M112,512h288c60.5,0,109.788-47.972,111.919-107.952H0.081C2.212,464.03,51.5,512,112,512z"/></g><path fill="#41479B" d="M0.081,107.953C0.033,109.297,0,110.645,0,112.001v288c0,1.356,0.033,2.704,0.081,4.048H511.92 c0.048-1.344,0.081-2.692,0.081-4.048v-288c0-1.356-0.033-2.704-0.081-4.048H0.081z"/><circle cx="256" cy="256.001" r="92.21" fill="#F5F5F5"/></svg>