<?xml version="1.0" encoding="iso-8859-1"?>
<!-- Generator: Adobe Illustrator 19.0.0, SVG Export Plug-In . SVG Version: 6.00 Build 0)  -->
<svg xmlns:xlink="http://www.w3.org/1999/xlink" xmlns="http://www.w3.org/2000/svg" version="1.1" id="Layer_1" x="0px"
     y="0px" viewBox="0 0 512 512" style="enable-background:new 0 0 512 512;" xml:space="preserve">
<path style="fill:#F5F5F5;" d="M400,0H112C50.144,0,0,50.144,0,112v144h512V112C512,50.144,461.856,0,400,0z"/>
    <g>
	<path style="fill:#FF4B55;" d="M0,400c0,61.856,50.144,112,112,112h288c61.856,0,112-50.144,112-112V256H0V400z"/>
        <path style="fill:#FF4B55;"
              d="M176.552,141.241c-63.379,0-114.759,51.379-114.759,114.759H291.31   C291.31,192.621,239.931,141.241,176.552,141.241z"/>
</g>
    <path style="fill:#F5F5F5;"
          d="M176.552,370.759c63.379,0,114.759-51.379,114.759-114.759H61.793  C61.793,319.379,113.172,370.759,176.552,370.759z"/>
    <g>
</g>
    <g>
</g>
    <g>
</g>
    <g>
</g>
    <g>
</g>
    <g>
</g>
    <g>
</g>
    <g>
</g>
    <g>
</g>
    <g>
</g>
    <g>
</g>
    <g>
</g>
    <g>
</g>
    <g>
</g>
    <g>
</g>
</svg>
