<svg xmlns="http://www.w3.org/2000/svg" xmlns:xlink="http://www.w3.org/1999/xlink" id="Layer_1" x="0" y="0" enable-background="new 0 0 512 512" version="1.1" viewBox="0 0 512 512" xml:space="preserve"><path fill="#41479B" d="M400,0H112C50.144,0,0,50.144,0,112v288c0,61.856,50.144,112,112,112h288 c61.856,0,112-50.144,112-112V112C512,50.144,461.856,0,400,0z"/><path fill="#73AF00" d="M369.608,240.539H292.35c0,0,0,99.981,0,140.883c0,31.812,77.258,63.624,77.258,63.624 s77.258-31.812,77.258-63.624c0-40.901,0-140.883,0-140.883H369.608z"/><path fill="#FF4B55" d="M324.376,348.037c0,0-0.434-1.496-0.048-2.846c0.386-1.351-0.607-2.591-0.82-3.763 c-0.579-3.184,2.123-4.004,2.267-6.851c0,0,1.93,1.978,1.206,3.86s1.061,2.171,0.82,3.956s-2.219,3.667-2.026,5.258L324.376,348.037 z"/><path fill="#FFE15A" d="M354.752,345.013c-1.578-1.974-4.347,0.152-6.373,1.698c-0.282,0.217-0.52,0.382-0.771,0.563 l-7.476-11.04c0.21-0.315,0.361-0.672,0.361-1.079c0-1.1-0.891-1.991-1.991-1.991s-1.991,0.891-1.991,1.991 c0,0.407,0.152,0.764,0.361,1.079l-7.711,11.387H323.7c0,0-0.225,3.394,5.737,3.806c0.769,1.163,1.865,2.09,3.178,2.615 c-0.616,0.1-1.114,0.576-1.114,1.221v0.798c0,0.05,0.048,0.08,0.054,0.129h13.891c0.005-0.049,0.053-0.079,0.053-0.129v-0.798 c0-0.652-0.506-1.138-1.133-1.229c2.325-0.935,3.958-3.111,4.233-5.696c0.216-0.161,0.419-0.307,0.653-0.486 c1.466-1.125,3.674-2.839,4.379-1.942c0.176,0.22,0.158,0.34,0.15,0.384c-0.08,0.521-1.193,1.27-2.089,1.87 c-1.408,0.945-2.863,1.926-2.977,3.316c-0.034,0.396,0.26,0.741,0.655,0.777c0.02,0,0.042,0,0.06,0c0.371,0,0.685-0.284,0.715-0.657 c0.058-0.705,1.328-1.558,2.349-2.243c1.302-0.877,2.529-1.702,2.705-2.843C355.281,345.995,355.131,345.49,354.752,345.013z M341.975,347.622c-0.411-1.57-1.382-3.078-2.595-3.622c0.642-0.33,1.094-0.981,1.094-1.752c0-1.1-0.891-1.991-1.991-1.991 s-1.991,0.891-1.991,1.991c0,0.772,0.452,1.422,1.094,1.752c-1.213,0.544-2.184,2.052-2.595,3.622h-4.097l7.156-10.567 c0.15,0.036,0.293,0.092,0.454,0.092s0.304-0.056,0.453-0.092l7.156,10.567H341.975z"/><path fill="#FFC8B9" d="M364.684,280.683c0,0-7.196-2.13-10.415,23.054c0,0-17.61,22.392-18.178,23.717 c-0.568,1.326-0.047,10.841,1.846,10.083s5.302-5.16,5.113-8.379s1.263-5.015,2.698-6.628c2.698-3.03,17.894-16.758,18.462-19.788 C364.779,299.714,364.684,280.683,364.684,280.683z"/><g><path fill="#F5F5F5" d="M375.857,275.902c0,0,11.125-1.467,14.391,9.894c0,0-9.137,5.018-8,11.551 c1.136,6.533-0.142,36.357-0.142,36.357c-17.468,5.681-26.699-1.42-26.699-1.42s4.545-16.9,3.834-30.676 c0,0-4.119-3.124-3.124-6.675c0.994-3.55,3.55-7.527,4.403-10.509c0.852-2.982,3.124-7.953,8.663-8.379 C374.72,275.618,375.857,275.902,375.857,275.902z"/><path fill="#F5F5F5" d="M358.625,328.97c0,0-8.711,32.948-5.681,77.826c0,0,27.173,3.598,41.943-1.799 c0,0-7.669-53.683-15.054-74.702L358.625,328.97z"/></g><path fill="#FFC8B9" d="M363.738,256.495v13.65c0,1.499,1.215,2.714,2.714,2.714h0.244c1.061,0,1.921,0.86,1.921,1.921v3.263 c0,0,1.83,4.777,8.944-0.813v-20.633L363.738,256.495z"/><path fill="#8C5A28" d="M362.128,253.7c-0.441,1.104,0.024,4.095,2.746,3.882c3.399-0.266,7.503-0.284,8.426,3.479 c0.858,3.499,0.284,12.237,4.071,12.805c3.787,0.568,8.081-1.948,8-9.468c-0.071-6.628-4.403-14.557-10.462-13.35 c0,0-5.373-3.764-8.521,0.473C366.389,251.522,363.075,251.333,362.128,253.7z"/><path fill="#FFC8B9" d="M390.248,285.796c0,0,3.876,25.537,3.693,27.646c-0.189,2.178-13.729,23.102-12.971,25.374 c0.757,2.272,1.515,5.302-2.651,6.438c-4.166,1.136-3.74-5.515-2.604-8.924c1.136-3.408,10.651-21.563,10.651-23.646 s-5.397-15.527-4.071-20.829C383.62,286.553,390.248,285.796,390.248,285.796z"/><path fill="#FF4B55" d="M307.334,267.458c0,0-0.434-1.496-0.048-2.846c0.386-1.351-0.607-2.591-0.82-3.763 c-0.579-3.184,2.123-4.004,2.267-6.851c0,0,1.93,1.978,1.206,3.859c-0.724,1.882,1.061,2.171,0.82,3.956s-2.219,3.666-2.026,5.259 L307.334,267.458z"/><path fill="#FFE15A" d="M337.71,264.435c-1.578-1.974-4.347,0.152-6.373,1.698c-0.282,0.217-0.52,0.382-0.771,0.563 l-7.476-11.04c0.21-0.315,0.361-0.672,0.361-1.079c0-1.1-0.891-1.991-1.991-1.991s-1.991,0.891-1.991,1.991 c0,0.407,0.152,0.764,0.361,1.079l-7.711,11.387h-5.461c0,0-0.225,3.394,5.737,3.806c0.769,1.163,1.865,2.09,3.178,2.615 c-0.616,0.1-1.114,0.576-1.114,1.221v0.797c0,0.05,0.048,0.08,0.054,0.129h13.891c0.005-0.049,0.053-0.079,0.053-0.129v-0.797 c0-0.652-0.506-1.138-1.133-1.229c2.325-0.935,3.958-3.111,4.233-5.696c0.216-0.161,0.419-0.307,0.653-0.486 c1.466-1.125,3.674-2.839,4.379-1.942c0.176,0.22,0.158,0.34,0.15,0.384c-0.08,0.521-1.193,1.269-2.088,1.87 c-1.408,0.945-2.863,1.926-2.977,3.316c-0.034,0.396,0.26,0.741,0.655,0.777c0.02,0,0.042,0,0.06,0c0.37,0,0.685-0.284,0.715-0.657 c0.058-0.705,1.328-1.558,2.349-2.243c1.302-0.877,2.529-1.702,2.705-2.843C338.238,265.416,338.088,264.911,337.71,264.435z M324.933,267.043c-0.411-1.57-1.382-3.078-2.595-3.622c0.642-0.33,1.094-0.981,1.094-1.752c0-1.1-0.891-1.991-1.991-1.991 c-1.099,0-1.991,0.892-1.991,1.991c0,0.772,0.452,1.422,1.094,1.752c-1.213,0.544-2.184,2.052-2.595,3.622h-4.097l7.156-10.567 c0.15,0.036,0.293,0.092,0.453,0.092s0.304-0.056,0.453-0.092l7.156,10.567H324.933z"/><path fill="#FF4B55" d="M307.334,294.318c0,0-0.434-1.496-0.048-2.846c0.386-1.351-0.607-2.591-0.82-3.763 c-0.579-3.184,2.123-4.004,2.267-6.851c0,0,1.93,1.978,1.206,3.859c-0.724,1.882,1.061,2.171,0.82,3.956s-2.219,3.667-2.026,5.259 L307.334,294.318z"/><path fill="#FFE15A" d="M337.71,291.294c-1.578-1.974-4.347,0.152-6.373,1.698c-0.282,0.217-0.52,0.382-0.771,0.563 l-7.476-11.04c0.21-0.315,0.361-0.672,0.361-1.079c0-1.1-0.891-1.991-1.991-1.991s-1.991,0.891-1.991,1.991 c0,0.407,0.152,0.764,0.361,1.079l-7.711,11.387h-5.461c0,0-0.225,3.395,5.737,3.806c0.769,1.163,1.865,2.09,3.178,2.615 c-0.616,0.1-1.114,0.576-1.114,1.221v0.797c0,0.05,0.048,0.08,0.054,0.129h13.891c0.005-0.049,0.053-0.079,0.053-0.129v-0.797 c0-0.652-0.506-1.138-1.133-1.229c2.325-0.935,3.958-3.111,4.233-5.695c0.216-0.161,0.419-0.307,0.653-0.486 c1.466-1.125,3.674-2.839,4.379-1.942c0.176,0.22,0.158,0.34,0.15,0.384c-0.08,0.521-1.193,1.269-2.088,1.87 c-1.408,0.945-2.863,1.926-2.977,3.316c-0.034,0.396,0.26,0.741,0.655,0.777c0.02,0,0.042,0,0.06,0c0.37,0,0.685-0.284,0.715-0.657 c0.058-0.705,1.328-1.558,2.349-2.243c1.302-0.877,2.529-1.702,2.705-2.843C338.238,292.276,338.088,291.771,337.71,291.294z M324.933,293.903c-0.411-1.57-1.382-3.077-2.595-3.622c0.642-0.33,1.094-0.981,1.094-1.752c0-1.1-0.891-1.991-1.991-1.991 c-1.099,0-1.991,0.891-1.991,1.991c0,0.772,0.452,1.422,1.094,1.752c-1.213,0.544-2.184,2.052-2.595,3.622h-4.097l7.156-10.567 c0.15,0.036,0.293,0.092,0.453,0.092s0.304-0.056,0.453-0.092l7.156,10.567H324.933z"/><path fill="#FF4B55" d="M307.334,321.177c0,0-0.434-1.496-0.048-2.846c0.386-1.351-0.607-2.591-0.82-3.763 c-0.579-3.184,2.123-4.004,2.267-6.851c0,0,1.93,1.978,1.206,3.86s1.061,2.171,0.82,3.956s-2.219,3.667-2.026,5.259L307.334,321.177 z"/><path fill="#FFE15A" d="M337.71,318.154c-1.578-1.974-4.347,0.152-6.373,1.698c-0.282,0.217-0.52,0.382-0.771,0.563 l-7.476-11.04c0.21-0.315,0.361-0.672,0.361-1.079c0-1.1-0.891-1.991-1.991-1.991s-1.991,0.891-1.991,1.991 c0,0.407,0.152,0.764,0.361,1.079l-7.711,11.387h-5.461c0,0-0.225,3.394,5.737,3.806c0.769,1.163,1.865,2.09,3.178,2.615 c-0.616,0.1-1.114,0.576-1.114,1.221v0.797c0,0.05,0.048,0.08,0.054,0.129h13.891c0.005-0.049,0.053-0.079,0.053-0.129v-0.797 c0-0.652-0.506-1.138-1.133-1.229c2.325-0.935,3.958-3.111,4.233-5.695c0.216-0.161,0.419-0.307,0.653-0.486 c1.466-1.125,3.674-2.839,4.379-1.942c0.176,0.22,0.158,0.34,0.15,0.384c-0.08,0.521-1.193,1.27-2.088,1.87 c-1.408,0.945-2.863,1.926-2.977,3.316c-0.034,0.396,0.26,0.741,0.655,0.777c0.02,0,0.042,0,0.06,0c0.37,0,0.685-0.284,0.715-0.657 c0.058-0.705,1.328-1.558,2.349-2.243c1.302-0.877,2.529-1.702,2.705-2.843C338.238,319.135,338.088,318.63,337.71,318.154z M324.933,320.762c-0.411-1.57-1.382-3.077-2.595-3.622c0.642-0.33,1.094-0.981,1.094-1.752c0-1.1-0.891-1.991-1.991-1.991 c-1.099,0-1.991,0.891-1.991,1.991c0,0.772,0.452,1.422,1.094,1.752c-1.213,0.544-2.184,2.052-2.595,3.622h-4.097l7.156-10.567 c0.15,0.036,0.293,0.092,0.453,0.092s0.304-0.055,0.453-0.092l7.156,10.567H324.933z"/><path fill="#FF4B55" d="M307.334,374.896c0,0-0.434-1.496-0.048-2.846c0.386-1.351-0.607-2.591-0.82-3.763 c-0.579-3.184,2.123-4.004,2.267-6.851c0,0,1.93,1.978,1.206,3.859c-0.724,1.882,1.061,2.171,0.82,3.956s-2.219,3.667-2.026,5.259 L307.334,374.896z"/><path fill="#FFE15A" d="M337.71,371.873c-1.578-1.974-4.347,0.152-6.373,1.698c-0.282,0.217-0.52,0.382-0.771,0.563 l-7.476-11.04c0.21-0.315,0.361-0.672,0.361-1.079c0-1.1-0.891-1.991-1.991-1.991s-1.991,0.891-1.991,1.991 c0,0.407,0.152,0.764,0.361,1.079l-7.711,11.387h-5.461c0,0-0.225,3.394,5.737,3.806c0.769,1.163,1.865,2.09,3.178,2.615 c-0.616,0.1-1.114,0.576-1.114,1.221v0.797c0,0.05,0.048,0.08,0.054,0.129h13.891c0.005-0.049,0.053-0.079,0.053-0.129v-0.797 c0-0.652-0.506-1.138-1.133-1.229c2.325-0.935,3.958-3.111,4.233-5.696c0.216-0.161,0.419-0.307,0.653-0.486 c1.466-1.125,3.674-2.839,4.379-1.942c0.176,0.22,0.158,0.34,0.15,0.384c-0.08,0.521-1.193,1.27-2.088,1.87 c-1.408,0.945-2.863,1.926-2.977,3.316c-0.034,0.396,0.26,0.741,0.655,0.777c0.02,0,0.042,0,0.06,0c0.37,0,0.685-0.284,0.715-0.657 c0.058-0.705,1.328-1.558,2.349-2.242c1.302-0.877,2.529-1.702,2.705-2.843C338.238,372.854,338.088,372.349,337.71,371.873z M324.933,374.481c-0.411-1.57-1.382-3.078-2.595-3.622c0.642-0.33,1.094-0.981,1.094-1.752c0-1.1-0.891-1.991-1.991-1.991 c-1.099,0-1.991,0.891-1.991,1.991c0,0.772,0.452,1.422,1.094,1.752c-1.213,0.544-2.184,2.052-2.595,3.622h-4.097l7.156-10.567 c0.15,0.036,0.293,0.092,0.453,0.092s0.304-0.056,0.453-0.092l7.156,10.567H324.933z"/><path fill="#FF4B55" d="M307.334,401.756c0,0-0.434-1.496-0.048-2.846c0.386-1.351-0.607-2.591-0.82-3.763 c-0.579-3.184,2.123-4.004,2.267-6.851c0,0,1.93,1.978,1.206,3.86s1.061,2.171,0.82,3.956s-2.219,3.667-2.026,5.259L307.334,401.756 z"/><path fill="#FFE15A" d="M337.71,398.732c-1.578-1.974-4.347,0.152-6.373,1.698c-0.282,0.217-0.52,0.382-0.771,0.563 l-7.476-11.04c0.21-0.315,0.361-0.672,0.361-1.079c0-1.1-0.891-1.991-1.991-1.991s-1.991,0.891-1.991,1.991 c0,0.407,0.152,0.764,0.361,1.079l-7.711,11.387h-5.461c0,0-0.225,3.394,5.737,3.806c0.769,1.163,1.865,2.09,3.178,2.615 c-0.616,0.1-1.114,0.576-1.114,1.221v0.797c0,0.05,0.048,0.08,0.054,0.129h13.891c0.005-0.049,0.053-0.079,0.053-0.129v-0.797 c0-0.652-0.506-1.138-1.133-1.229c2.325-0.935,3.958-3.111,4.233-5.696c0.216-0.161,0.419-0.307,0.653-0.486 c1.466-1.125,3.674-2.839,4.379-1.942c0.176,0.22,0.158,0.34,0.15,0.384c-0.08,0.521-1.193,1.27-2.088,1.87 c-1.408,0.945-2.863,1.926-2.977,3.316c-0.034,0.396,0.26,0.741,0.655,0.777c0.02,0,0.042,0,0.06,0c0.37,0,0.685-0.284,0.715-0.657 c0.058-0.705,1.328-1.558,2.349-2.243c1.302-0.877,2.529-1.702,2.705-2.843C338.238,399.714,338.088,399.209,337.71,398.732z M324.933,401.341c-0.411-1.57-1.382-3.078-2.595-3.622c0.642-0.33,1.094-0.981,1.094-1.752c0-1.099-0.891-1.991-1.991-1.991 c-1.099,0-1.991,0.892-1.991,1.991c0,0.772,0.452,1.422,1.094,1.752c-1.213,0.544-2.184,2.052-2.595,3.622h-4.097l7.156-10.567 c0.15,0.036,0.293,0.092,0.453,0.092s0.304-0.056,0.453-0.092l7.156,10.567H324.933z"/><path fill="#FF4B55" d="M400.782,267.458c0,0-0.434-1.496-0.048-2.846c0.386-1.351-0.607-2.591-0.82-3.763 c-0.579-3.184,2.123-4.004,2.267-6.851c0,0,1.93,1.978,1.206,3.859c-0.724,1.882,1.061,2.171,0.82,3.956s-2.219,3.666-2.026,5.259 L400.782,267.458z"/><path fill="#FFE15A" d="M431.158,264.435c-1.578-1.974-4.347,0.152-6.373,1.698c-0.282,0.217-0.52,0.382-0.771,0.563 l-7.476-11.04c0.21-0.315,0.361-0.672,0.361-1.079c0-1.1-0.891-1.991-1.991-1.991s-1.991,0.891-1.991,1.991 c0,0.407,0.152,0.764,0.361,1.079l-7.711,11.387h-5.461c0,0-0.225,3.394,5.737,3.806c0.769,1.163,1.865,2.09,3.178,2.615 c-0.616,0.1-1.114,0.576-1.114,1.221v0.797c0,0.05,0.048,0.08,0.054,0.129h13.891c0.005-0.049,0.053-0.079,0.053-0.129v-0.797 c0-0.652-0.506-1.138-1.133-1.229c2.325-0.935,3.958-3.111,4.233-5.696c0.216-0.161,0.419-0.307,0.653-0.486 c1.466-1.125,3.674-2.839,4.379-1.942c0.176,0.22,0.158,0.34,0.15,0.384c-0.08,0.521-1.193,1.269-2.088,1.87 c-1.408,0.945-2.863,1.926-2.977,3.316c-0.034,0.396,0.26,0.741,0.655,0.777c0.02,0,0.042,0,0.06,0c0.37,0,0.685-0.284,0.715-0.657 c0.058-0.705,1.328-1.558,2.349-2.243c1.302-0.877,2.529-1.702,2.705-2.843C431.687,265.416,431.537,264.911,431.158,264.435z M418.381,267.043c-0.411-1.57-1.382-3.078-2.595-3.622c0.642-0.33,1.094-0.981,1.094-1.752c0-1.1-0.891-1.991-1.991-1.991 c-1.099,0-1.991,0.892-1.991,1.991c0,0.772,0.452,1.422,1.094,1.752c-1.213,0.544-2.184,2.052-2.595,3.622H407.3l7.156-10.567 c0.15,0.036,0.293,0.092,0.453,0.092c0.161,0,0.304-0.056,0.453-0.092l7.156,10.567H418.381z"/><path fill="#FF4B55" d="M400.782,294.318c0,0-0.434-1.496-0.048-2.846c0.386-1.351-0.607-2.591-0.82-3.763 c-0.579-3.184,2.123-4.004,2.267-6.851c0,0,1.93,1.978,1.206,3.859c-0.724,1.882,1.061,2.171,0.82,3.956s-2.219,3.667-2.026,5.259 L400.782,294.318z"/><path fill="#FFE15A" d="M431.158,291.294c-1.578-1.974-4.347,0.152-6.373,1.698c-0.282,0.217-0.52,0.382-0.771,0.563 l-7.476-11.04c0.21-0.315,0.361-0.672,0.361-1.079c0-1.1-0.891-1.991-1.991-1.991s-1.991,0.891-1.991,1.991 c0,0.407,0.152,0.764,0.361,1.079l-7.711,11.387h-5.461c0,0-0.225,3.395,5.737,3.806c0.769,1.163,1.865,2.09,3.178,2.615 c-0.616,0.1-1.114,0.576-1.114,1.221v0.797c0,0.05,0.048,0.08,0.054,0.129h13.891c0.005-0.049,0.053-0.079,0.053-0.129v-0.797 c0-0.652-0.506-1.138-1.133-1.229c2.325-0.935,3.958-3.111,4.233-5.695c0.216-0.161,0.419-0.307,0.653-0.486 c1.466-1.125,3.674-2.839,4.379-1.942c0.176,0.22,0.158,0.34,0.15,0.384c-0.08,0.521-1.193,1.269-2.088,1.87 c-1.408,0.945-2.863,1.926-2.977,3.316c-0.034,0.396,0.26,0.741,0.655,0.777c0.02,0,0.042,0,0.06,0c0.37,0,0.685-0.284,0.715-0.657 c0.058-0.705,1.328-1.558,2.349-2.243c1.302-0.877,2.529-1.702,2.705-2.843C431.687,292.276,431.537,291.771,431.158,291.294z M418.381,293.903c-0.411-1.57-1.382-3.077-2.595-3.622c0.642-0.33,1.094-0.981,1.094-1.752c0-1.1-0.891-1.991-1.991-1.991 c-1.099,0-1.991,0.891-1.991,1.991c0,0.772,0.452,1.422,1.094,1.752c-1.213,0.544-2.184,2.052-2.595,3.622H407.3l7.156-10.567 c0.15,0.036,0.293,0.092,0.453,0.092c0.161,0,0.304-0.056,0.453-0.092l7.156,10.567H418.381z"/><path fill="#FF4B55" d="M400.782,321.177c0,0-0.434-1.496-0.048-2.846c0.386-1.351-0.607-2.591-0.82-3.763 c-0.579-3.184,2.123-4.004,2.267-6.851c0,0,1.93,1.978,1.206,3.86s1.061,2.171,0.82,3.956s-2.219,3.667-2.026,5.259L400.782,321.177 z"/><path fill="#FFE15A" d="M431.158,318.154c-1.578-1.974-4.347,0.152-6.373,1.698c-0.282,0.217-0.52,0.382-0.771,0.563 l-7.476-11.04c0.21-0.315,0.361-0.672,0.361-1.079c0-1.1-0.891-1.991-1.991-1.991s-1.991,0.891-1.991,1.991 c0,0.407,0.152,0.764,0.361,1.079l-7.711,11.387h-5.461c0,0-0.225,3.394,5.737,3.806c0.769,1.163,1.865,2.09,3.178,2.615 c-0.616,0.1-1.114,0.576-1.114,1.221v0.797c0,0.05,0.048,0.08,0.054,0.129h13.891c0.005-0.049,0.053-0.079,0.053-0.129v-0.797 c0-0.652-0.506-1.138-1.133-1.229c2.325-0.935,3.958-3.111,4.233-5.695c0.216-0.161,0.419-0.307,0.653-0.486 c1.466-1.125,3.674-2.839,4.379-1.942c0.176,0.22,0.158,0.34,0.15,0.384c-0.08,0.521-1.193,1.27-2.088,1.87 c-1.408,0.945-2.863,1.926-2.977,3.316c-0.034,0.396,0.26,0.741,0.655,0.777c0.02,0,0.042,0,0.06,0c0.37,0,0.685-0.284,0.715-0.657 c0.058-0.705,1.328-1.558,2.349-2.243c1.302-0.877,2.529-1.702,2.705-2.843C431.687,319.135,431.537,318.63,431.158,318.154z M418.381,320.762c-0.411-1.57-1.382-3.077-2.595-3.622c0.642-0.33,1.094-0.981,1.094-1.752c0-1.1-0.891-1.991-1.991-1.991 c-1.099,0-1.991,0.891-1.991,1.991c0,0.772,0.452,1.422,1.094,1.752c-1.213,0.544-2.184,2.052-2.595,3.622H407.3l7.156-10.567 c0.15,0.036,0.293,0.092,0.453,0.092c0.161,0,0.304-0.055,0.453-0.092l7.156,10.567H418.381z"/><path fill="#FF4B55" d="M400.782,348.037c0,0-0.434-1.496-0.048-2.846c0.386-1.351-0.607-2.591-0.82-3.763 c-0.579-3.184,2.123-4.004,2.267-6.851c0,0,1.93,1.978,1.206,3.86s1.061,2.171,0.82,3.956s-2.219,3.667-2.026,5.258L400.782,348.037 z"/><path fill="#FFE15A" d="M431.158,345.013c-1.578-1.974-4.347,0.152-6.373,1.698c-0.282,0.217-0.52,0.382-0.771,0.563 l-7.476-11.04c0.21-0.315,0.361-0.672,0.361-1.079c0-1.1-0.891-1.991-1.991-1.991s-1.991,0.891-1.991,1.991 c0,0.407,0.152,0.764,0.361,1.079l-7.711,11.387h-5.461c0,0-0.225,3.394,5.737,3.806c0.769,1.163,1.865,2.09,3.178,2.615 c-0.616,0.1-1.114,0.576-1.114,1.221v0.798c0,0.05,0.048,0.08,0.054,0.129h13.891c0.005-0.049,0.053-0.079,0.053-0.129v-0.798 c0-0.652-0.506-1.138-1.133-1.229c2.325-0.935,3.958-3.111,4.233-5.696c0.216-0.161,0.419-0.307,0.653-0.486 c1.466-1.125,3.674-2.839,4.379-1.942c0.176,0.22,0.158,0.34,0.15,0.384c-0.08,0.521-1.193,1.27-2.088,1.87 c-1.408,0.945-2.863,1.926-2.977,3.316c-0.034,0.396,0.26,0.741,0.655,0.777c0.02,0,0.042,0,0.06,0c0.37,0,0.685-0.284,0.715-0.657 c0.058-0.705,1.328-1.558,2.349-2.243c1.302-0.877,2.529-1.702,2.705-2.843C431.687,345.995,431.537,345.49,431.158,345.013z M418.381,347.622c-0.411-1.57-1.382-3.078-2.595-3.622c0.642-0.33,1.094-0.981,1.094-1.752c0-1.1-0.891-1.991-1.991-1.991 c-1.099,0-1.991,0.891-1.991,1.991c0,0.772,0.452,1.422,1.094,1.752c-1.213,0.544-2.184,2.052-2.595,3.622H407.3l7.156-10.567 c0.15,0.036,0.293,0.092,0.453,0.092c0.161,0,0.304-0.056,0.453-0.092l7.156,10.567H418.381z"/><path fill="#FF4B55" d="M400.782,374.896c0,0-0.434-1.496-0.048-2.846c0.386-1.351-0.607-2.591-0.82-3.763 c-0.579-3.184,2.123-4.004,2.267-6.851c0,0,1.93,1.978,1.206,3.859c-0.724,1.882,1.061,2.171,0.82,3.956s-2.219,3.667-2.026,5.259 L400.782,374.896z"/><path fill="#FFE15A" d="M431.158,371.873c-1.578-1.974-4.347,0.152-6.373,1.698c-0.282,0.217-0.52,0.382-0.771,0.563 l-7.476-11.04c0.21-0.315,0.361-0.672,0.361-1.079c0-1.1-0.891-1.991-1.991-1.991s-1.991,0.891-1.991,1.991 c0,0.407,0.152,0.764,0.361,1.079l-7.711,11.387h-5.461c0,0-0.225,3.394,5.737,3.806c0.769,1.163,1.865,2.09,3.178,2.615 c-0.616,0.1-1.114,0.576-1.114,1.221v0.797c0,0.05,0.048,0.08,0.054,0.129h13.891c0.005-0.049,0.053-0.079,0.053-0.129v-0.797 c0-0.652-0.506-1.138-1.133-1.229c2.325-0.935,3.958-3.111,4.233-5.696c0.216-0.161,0.419-0.307,0.653-0.486 c1.466-1.125,3.674-2.839,4.379-1.942c0.176,0.22,0.158,0.34,0.15,0.384c-0.08,0.521-1.193,1.27-2.088,1.87 c-1.408,0.945-2.863,1.926-2.977,3.316c-0.034,0.396,0.26,0.741,0.655,0.777c0.02,0,0.042,0,0.06,0c0.37,0,0.685-0.284,0.715-0.657 c0.058-0.705,1.328-1.558,2.349-2.242c1.302-0.877,2.529-1.702,2.705-2.843C431.687,372.854,431.537,372.349,431.158,371.873z M418.381,374.481c-0.411-1.57-1.382-3.078-2.595-3.622c0.642-0.33,1.094-0.981,1.094-1.752c0-1.1-0.891-1.991-1.991-1.991 c-1.099,0-1.991,0.891-1.991,1.991c0,0.772,0.452,1.422,1.094,1.752c-1.213,0.544-2.184,2.052-2.595,3.622H407.3l7.156-10.567 c0.15,0.036,0.293,0.092,0.453,0.092c0.161,0,0.304-0.056,0.453-0.092l7.156,10.567H418.381z"/><path fill="#FF4B55" d="M400.782,401.756c0,0-0.434-1.496-0.048-2.846c0.386-1.351-0.607-2.591-0.82-3.763 c-0.579-3.184,2.123-4.004,2.267-6.851c0,0,1.93,1.978,1.206,3.86s1.061,2.171,0.82,3.956s-2.219,3.667-2.026,5.259L400.782,401.756 z"/><path fill="#FFE15A" d="M431.158,398.732c-1.578-1.974-4.347,0.152-6.373,1.698c-0.282,0.217-0.52,0.382-0.771,0.563 l-7.476-11.04c0.21-0.315,0.361-0.672,0.361-1.079c0-1.1-0.891-1.991-1.991-1.991s-1.991,0.891-1.991,1.991 c0,0.407,0.152,0.764,0.361,1.079l-7.711,11.387h-5.461c0,0-0.225,3.394,5.737,3.806c0.769,1.163,1.865,2.09,3.178,2.615 c-0.616,0.1-1.114,0.576-1.114,1.221v0.797c0,0.05,0.048,0.08,0.054,0.129h13.891c0.005-0.049,0.053-0.079,0.053-0.129v-0.797 c0-0.652-0.506-1.138-1.133-1.229c2.325-0.935,3.958-3.111,4.233-5.696c0.216-0.161,0.419-0.307,0.653-0.486 c1.466-1.125,3.674-2.839,4.379-1.942c0.176,0.22,0.158,0.34,0.15,0.384c-0.08,0.521-1.193,1.27-2.088,1.87 c-1.408,0.945-2.863,1.926-2.977,3.316c-0.034,0.396,0.26,0.741,0.655,0.777c0.02,0,0.042,0,0.06,0c0.37,0,0.685-0.284,0.715-0.657 c0.058-0.705,1.328-1.558,2.349-2.243c1.302-0.877,2.529-1.702,2.705-2.843C431.687,399.714,431.537,399.209,431.158,398.732z M418.381,401.341c-0.411-1.57-1.382-3.078-2.595-3.622c0.642-0.33,1.094-0.981,1.094-1.752c0-1.099-0.891-1.991-1.991-1.991 c-1.099,0-1.991,0.892-1.991,1.991c0,0.772,0.452,1.422,1.094,1.752c-1.213,0.544-2.184,2.052-2.595,3.622H407.3l7.156-10.567 c0.15,0.036,0.293,0.092,0.453,0.092c0.161,0,0.304-0.056,0.453-0.092l7.156,10.567H418.381z"/><g><path fill="#F5F5F5" d="M446.866,240.539c0,0,0,99.981,0,140.883c0,31.812-77.258,63.624-77.258,63.624 s-77.258-31.812-77.258-63.624c0-40.901,0-140.883,0-140.883h77.258H446.866 M451.411,235.995h-4.545h-77.258H292.35h-4.545v4.545 v140.883c0,14.875,13.722,30.893,40.786,47.609c19.407,11.986,38.484,19.888,39.287,20.218l1.73,0.713l1.73-0.713 c0.803-0.33,19.88-8.232,39.287-20.218c27.063-16.716,40.786-32.733,40.786-47.609V240.539V235.995L451.411,235.995z"/><path fill="#F5F5F5" d="M452.067,406.478l20.602,14.208c-23.929,30.694-61.215,50.491-103.061,50.491 s-79.132-19.797-103.061-50.491l20.602-14.208c19.38,24.179,49.132,39.704,82.459,39.704S432.687,430.658,452.067,406.478 M451.166,400.336l-2.645,3.3c-19.357,24.151-48.119,38.002-78.913,38.002s-59.556-13.851-78.913-38.002l-2.645-3.3l-3.481,2.401 l-20.602,14.209L260,419.681l2.962,3.8c25.883,33.2,64.754,52.242,106.645,52.242c41.892,0,80.762-19.041,106.645-52.242l2.962-3.8 l-3.966-2.735l-20.602-14.209L451.166,400.336L451.166,400.336z"/></g><path fill="#FFE15A" d="M369.608,471.178c41.846,0,79.132-19.797,103.061-50.491l-20.602-14.208 c-19.38,24.179-49.132,39.704-82.459,39.704s-63.079-15.525-82.459-39.704l-20.602,14.208 C290.476,451.381,327.762,471.178,369.608,471.178z"/><g><polygon fill="#F5F5F5" points="148.211 256 161.684 256 161.684 174.23 256 236.023 256 216.059 172.232 161.684 196.98 161.684 256 199.995 256 187.701 216.29 161.684 256 161.684 256 148.21 148.211 148.21"/><polygon fill="#F5F5F5" points="94.316 256 107.79 256 107.79 148.21 0 148.21 0 161.684 39.71 161.684 0 187.701 0 206.602 69.197 161.684 93.945 161.684 0 222.666 0 236.023 94.316 174.23"/><path fill="#F5F5F5" d="M107.79,0.087c-4.566,0.169-9.063,0.608-13.474,1.308V81.77L27.779,38.177 c-4.005,4.566-7.643,9.46-10.872,14.637l63.935,41.502H56.094L10.461,64.694c-1.251,2.68-2.4,5.415-3.44,8.205L39.71,94.316H1.395 c-0.7,4.411-1.139,8.907-1.308,13.474H107.79V0.087z"/><polygon fill="#F5F5F5" points="256 107.79 256 94.316 216.29 94.316 256 68.299 256 49.157 186.432 94.316 161.684 94.316 256 33.093 256 19.977 161.684 81.77 161.684 0 148.211 0 148.211 107.79"/></g><g><path fill="#FF4B55" d="M107.79,256h40.421V148.21H256v-40.42H148.211V0H112c-1.41,0-2.813,0.035-4.21,0.087V107.79H0.087 C0.035,109.188,0,110.59,0,112v36.21h107.79V256z"/><polygon fill="#FF4B55" points="69.197 161.684 0 206.602 0 222.666 93.945 161.684"/><polygon fill="#FF4B55" points="172.232 161.684 256 216.059 256 199.995 196.98 161.684"/><path fill="#FF4B55" d="M80.842,94.316L16.907,52.814c-2.378,3.813-4.533,7.778-6.447,11.88l45.634,29.622H80.842z"/><polygon fill="#FF4B55" points="186.432 94.316 256 49.157 256 33.093 161.684 94.316"/></g></svg>