<?xml version="1.0" encoding="iso-8859-1"?>
<!-- Generator: Adobe Illustrator 19.0.0, SVG Export Plug-In . SVG Version: 6.00 Build 0)  -->
<svg xmlns:xlink="http://www.w3.org/1999/xlink" xmlns="http://www.w3.org/2000/svg" version="1.1" id="Layer_1" x="0px"
     y="0px" viewBox="0 0 512 512" style="enable-background:new 0 0 512 512;" xml:space="preserve">
<path style="fill:#41479B;"
      d="M400,0H112C50.144,0,0,50.144,0,112v288c0,61.856,50.144,112,112,112h288  c61.856,0,112-50.144,112-112V112C512,50.144,461.856,0,400,0z"/>
    <path style="fill:#FFE15A;"
          d="M0,400c0,6.018,0.481,11.923,1.394,17.684h509.211C511.519,411.923,512,406.018,512,400v-49.684H0  V400z"/>
    <g>
	<path style="fill:#F5F5F5;"
          d="M181.548,126.06l-13.252,39.736l-41.886,0.325c-4.017,0.031-5.682,5.157-2.451,7.543l33.696,24.883   l-12.635,39.936c-1.212,3.83,3.149,6.998,6.417,4.662l34.077-24.357l34.077,24.357c3.268,2.336,7.628-0.832,6.417-4.662   l-12.635-39.937l33.696-24.883c3.231-2.386,1.566-7.512-2.451-7.543l-41.886-0.325l-13.252-39.736   C188.208,122.249,182.819,122.249,181.548,126.06z"/>
        <path style="fill:#F5F5F5;"
              d="M86.074,52.733l-7.671,23l-24.244,0.188c-2.325,0.018-3.289,2.985-1.419,4.366L72.244,94.69   l-7.313,23.116c-0.701,2.217,1.823,4.05,3.714,2.699l19.725-14.098l19.724,14.098c1.892,1.352,4.415-0.482,3.714-2.698   l-7.313-23.116l19.504-14.403c1.87-1.381,0.906-4.348-1.419-4.366l-24.244-0.188l-7.671-23   C89.929,50.527,86.809,50.527,86.074,52.733z"/>
</g>
    <g>
</g>
    <g>
</g>
    <g>
</g>
    <g>
</g>
    <g>
</g>
    <g>
</g>
    <g>
</g>
    <g>
</g>
    <g>
</g>
    <g>
</g>
    <g>
</g>
    <g>
</g>
    <g>
</g>
    <g>
</g>
    <g>
</g>
</svg>
