<svg xmlns="http://www.w3.org/2000/svg" xmlns:xlink="http://www.w3.org/1999/xlink" id="Layer_1" x="0" y="0" enable-background="new 0 0 512 512" version="1.1" viewBox="0 0 512 512" xml:space="preserve"><path fill="#FF4B55" d="M400,0H112C79.199,0,49.693,14.102,29.209,36.571H482.79C462.307,14.102,432.801,0,400,0z"/><path fill="#F5F5F5" d="M482.791,36.571H29.209C19.597,47.116,11.974,59.504,6.928,73.143h498.143 C500.026,59.504,492.403,47.116,482.791,36.571z"/><path fill="#FF4B55" d="M505.072,73.143H6.928C2.7,84.571,0.286,96.878,0.029,109.714h511.942 C511.714,96.878,509.3,84.571,505.072,73.143z"/><path fill="#F5F5F5" d="M0.029,109.714C0.014,110.475,0,111.236,0,112v34.286h512V112c0-0.764-0.014-1.525-0.029-2.286H0.029 z"/><rect width="512" height="36.571" y="146.29" fill="#FF4B55"/><rect width="512" height="36.571" y="182.86" fill="#F5F5F5"/><rect width="512" height="36.571" y="219.43" fill="#FF4B55"/><polygon fill="#F5F5F5" points="0 269.474 13.474 269.474 13.477 292.572 512 292.572 512 256 0 256"/><polygon fill="#FF4B55" points="13.474 269.474 0 269.474 0 292.572 0 329.143 512 329.143 512 292.572 13.477 292.572"/><rect width="512" height="36.571" y="329.14" fill="#F5F5F5"/><path fill="#FF4B55" d="M0,400c0,0.764,0.014,1.525,0.029,2.286h511.942c0.015-0.761,0.029-1.521,0.029-2.286v-34.286H0V400z"/><path fill="#F5F5F5" d="M6.928,438.857h498.143c4.228-11.428,6.642-23.735,6.899-36.571H0.029 C0.286,415.122,2.7,427.429,6.928,438.857z"/><path fill="#FF4B55" d="M29.209,475.429H482.79c9.612-10.545,17.235-22.933,22.281-36.571H6.928 C11.974,452.496,19.597,464.884,29.209,475.429z"/><path fill="#F5F5F5" d="M112,512h288c32.801,0,62.307-14.102,82.791-36.571H29.209C49.693,497.898,79.199,512,112,512z"/><path fill="#41479B" d="M292.571,0h-180.59C50.134,0.011,0,50.151,0,112v180.571h292.571V0z"/><g><path fill="#FFE15A" d="M62.745,146.139c0-43.482,35.293-78.754,78.735-78.754c10.93,0,21.324,2.238,30.789,6.27 c1.229,0.523,2.154-1.187,1.05-1.938c-15.662-10.662-34.814-16.502-55.357-15.435C72.797,58.63,35.866,95.008,32.946,140.14 c-3.396,52.496,38.145,95.984,89.809,95.984c18.67,0,36.026-5.753,50.439-15.507c1.11-0.751,0.19-2.465-1.044-1.942 c-9.434,4-19.786,6.22-30.67,6.22C98.038,224.895,62.745,189.623,62.745,146.139"/><path fill="#FFE15A" d="M242.731,146.139l33.286-12.88c1.646-0.637,1.085-3.094-0.674-2.953l-35.565,2.848l24.441-26.126 c1.205-1.288-0.365-3.257-1.889-2.368l-30.889,18.02l10.661-34.09c0.526-1.683-1.743-2.775-2.729-1.313L219.376,116.9l-5.13-35.357 c-0.253-1.746-2.773-1.748-3.029-0.002l-3.277,22.372l-1.36,9.467l-0.523,3.52L186.06,87.303c-0.988-1.462-3.257-0.368-2.728,1.315 l10.701,34.062l-30.887-18.02c-1.524-0.889-3.094,1.079-1.889,2.368l24.44,26.126l-35.574-2.848 c-1.76-0.141-2.321,2.317-0.674,2.953l33.316,12.879l-33.317,12.882c-1.646,0.637-1.086,3.094,0.674,2.953l35.575-2.848 l-24.441,26.192c-1.204,1.29,0.37,3.256,1.892,2.365l30.885-18.083l-10.701,34.062c-0.529,1.683,1.741,2.778,2.728,1.316 l19.996-29.598l0.523,3.603l1.36,9.384l3.277,22.431c0.255,1.747,2.776,1.745,3.029-0.002l5.13-35.416l19.997,29.623 c0.987,1.462,3.256,0.37,2.729-1.313l-10.661-34.09l30.887,18.083c1.522,0.891,3.096-1.075,1.892-2.365l-24.442-26.192 l35.566,2.848c1.759,0.141,2.321-2.316,0.674-2.953L242.731,146.139z"/></g></svg>