<svg xmlns="http://www.w3.org/2000/svg" xmlns:xlink="http://www.w3.org/1999/xlink" id="Layer_1" x="0" y="0" enable-background="new 0 0 512 512" version="1.1" viewBox="0 0 512 512" xml:space="preserve"><g><path fill="#41479B" d="M400,0H112C50.144,0,0,50.144,0,112v288c0,61.856,50.144,112,112,112h288 c61.856,0,112-50.144,112-112V112C512,50.144,461.856,0,400,0z"/><path fill="#41479B" d="M94.316,1.395C67.937,5.579,44.627,18.971,27.779,38.177L94.316,81.77V1.395z"/><path fill="#41479B" d="M7.021,72.899C4.47,79.746,2.569,86.91,1.395,94.316H39.71L7.021,72.899z"/><polygon fill="#41479B" points="0 161.684 0 187.701 39.71 161.684"/><polygon fill="#41479B" points="256 19.977 256 0 161.684 0 161.684 81.77"/><polygon fill="#41479B" points="256 187.701 256 161.684 216.29 161.684"/><polygon fill="#41479B" points="161.684 256 256 256 256 236.023 161.684 174.23"/><polygon fill="#41479B" points="256 94.316 256 68.299 216.29 94.316"/><polygon fill="#41479B" points="94.316 174.23 0 236.023 0 256 94.316 256"/></g><g><polygon fill="#F5F5F5" points="148.21 256 161.684 256 161.684 174.23 256 236.023 256 216.059 172.232 161.684 196.98 161.684 256 199.995 256 187.701 216.29 161.684 256 161.684 256 148.21 148.21 148.21"/><polygon fill="#F5F5F5" points="94.316 256 107.789 256 107.789 148.21 0 148.21 0 161.684 39.71 161.684 0 187.701 0 206.602 69.197 161.684 93.945 161.684 0 222.666 0 236.023 94.316 174.23"/><path fill="#F5F5F5" d="M107.789,0.087c-4.566,0.169-9.063,0.608-13.474,1.308V81.77L27.779,38.177 c-4.005,4.566-7.643,9.46-10.872,14.637l63.935,41.502H56.094L10.461,64.694c-1.251,2.68-2.4,5.415-3.44,8.205L39.71,94.316H1.395 c-0.7,4.411-1.139,8.907-1.308,13.474H107.79L107.789,0.087L107.789,0.087z"/><polygon fill="#F5F5F5" points="256 107.79 256 94.316 216.29 94.316 256 68.299 256 49.157 186.432 94.316 161.684 94.316 256 33.093 256 19.977 161.684 81.77 161.684 0 148.21 0 148.21 107.79"/></g><g><path fill="#FF4B55" d="M107.789,256h40.421V148.21H256v-40.42H148.21V0H112c-1.41,0-2.813,0.035-4.211,0.087V107.79H0.087 C0.035,109.188,0,110.589,0,112v36.21h107.789V256z"/><polygon fill="#FF4B55" points="69.197 161.684 0 206.602 0 222.666 93.945 161.684"/><polygon fill="#FF4B55" points="172.232 161.684 256 216.059 256 199.995 196.98 161.684"/><path fill="#FF4B55" d="M80.842,94.316L16.907,52.814c-2.378,3.813-4.533,7.778-6.447,11.88l45.634,29.622H80.842z"/><polygon fill="#FF4B55" points="186.432 94.316 256 49.157 256 33.093 161.684 94.316"/><path fill="#FF4B55" d="M395.586,441.231c-0.358,0-0.72-0.112-1.026-0.328l-10.448-7.465l-10.448,7.465 c-0.306,0.216-0.668,0.328-1.026,0.328c-0.366,0-0.728-0.112-1.039-0.336c-0.612-0.448-0.875-1.241-0.647-1.965l3.875-12.241 l-10.327-7.621c-0.612-0.457-0.866-1.241-0.634-1.965c0.237-0.724,0.905-1.216,1.668-1.224l12.841-0.103l4.06-12.181 c0.241-0.716,0.918-1.207,1.677-1.207s1.435,0.491,1.677,1.207l4.06,12.181l12.841,0.103c0.763,0.009,1.431,0.5,1.668,1.224 c0.233,0.724-0.022,1.509-0.634,1.965l-10.328,7.621l3.875,12.241c0.229,0.724-0.034,1.517-0.646,1.965 C396.315,441.119,395.948,441.231,395.586,441.231z"/></g><path fill="#F5F5F5" d="M384.112,404.153l4.462,13.378l14.102,0.109l-11.345,8.377l4.254,13.446l-11.473-8.201l-11.473,8.201 l4.254-13.446l-11.345-8.377l14.102-0.109L384.112,404.153 M384.112,400.622c-1.52,0-2.869,0.973-3.35,2.414l-3.663,10.984 l-11.578,0.09c-1.52,0.011-2.861,0.994-3.331,2.44c-0.47,1.445,0.038,3.029,1.261,3.931l9.314,6.878l-3.492,11.039 c-0.458,1.449,0.062,3.029,1.291,3.922c0.619,0.449,1.347,0.675,2.076,0.675c0.72,0,1.439-0.219,2.053-0.658l9.42-6.733l9.42,6.733 c0.614,0.439,1.334,0.658,2.053,0.658c0.729,0,1.457-0.225,2.076-0.675c1.229-0.893,1.749-2.473,1.291-3.922l-3.492-11.039 l9.314-6.878c1.223-0.902,1.73-2.486,1.261-3.931c-0.47-1.446-1.811-2.428-3.331-2.44l-11.578-0.09l-3.663-10.984 C386.981,401.595,385.632,400.622,384.112,400.622L384.112,400.622z"/><path fill="#FF4B55" d="M395.586,267.606c-0.362,0-0.72-0.112-1.026-0.328l-10.448-7.474l-10.448,7.474 c-0.306,0.216-0.668,0.328-1.026,0.328c-0.362,0-0.728-0.112-1.039-0.336c-0.612-0.448-0.875-1.241-0.647-1.966l3.875-12.241 l-10.327-7.629c-0.612-0.457-0.866-1.25-0.634-1.965c0.237-0.724,0.909-1.215,1.668-1.224l12.841-0.095l4.06-12.181 c0.241-0.715,0.918-1.207,1.677-1.207s1.435,0.491,1.677,1.207l4.06,12.181l12.841,0.095c0.759,0.009,1.431,0.5,1.668,1.224 c0.233,0.715-0.022,1.509-0.634,1.965l-10.328,7.629l3.875,12.241c0.229,0.724-0.034,1.517-0.646,1.966 C396.315,267.494,395.948,267.606,395.586,267.606z"/><path fill="#F5F5F5" d="M384.112,230.526l4.462,13.378l14.102,0.109l-11.345,8.377l4.254,13.446l-11.473-8.2l-11.473,8.2 l4.254-13.446l-11.345-8.377l14.102-0.109L384.112,230.526 M384.112,226.995c-1.52,0-2.869,0.973-3.35,2.414l-3.663,10.984 l-11.578,0.09c-1.52,0.011-2.861,0.994-3.331,2.44c-0.47,1.445,0.038,3.029,1.261,3.932l9.314,6.878l-3.492,11.039 c-0.458,1.449,0.062,3.029,1.291,3.922c0.619,0.449,1.347,0.674,2.076,0.674c0.72,0,1.439-0.219,2.053-0.658l9.42-6.733l9.42,6.733 c0.614,0.439,1.334,0.658,2.053,0.658c0.729,0,1.457-0.225,2.076-0.674c1.229-0.893,1.749-2.473,1.291-3.922l-3.492-11.039 l9.314-6.878c1.223-0.902,1.73-2.487,1.261-3.932c-0.47-1.446-1.811-2.428-3.331-2.44l-11.578-0.09l-3.663-10.984 C386.981,227.967,385.632,226.995,384.112,226.995L384.112,226.995z"/><path fill="#FF4B55" d="M457.379,332.744c-0.362,0-0.72-0.112-1.026-0.328l-10.448-7.474l-10.448,7.474 c-0.306,0.216-0.668,0.328-1.026,0.328c-0.362,0-0.729-0.112-1.039-0.336c-0.612-0.448-0.875-1.241-0.647-1.966l3.875-12.241 l-10.328-7.629c-0.612-0.457-0.866-1.25-0.634-1.966c0.237-0.724,0.909-1.215,1.668-1.224l12.841-0.095l4.06-12.181 c0.241-0.715,0.918-1.207,1.677-1.207s1.435,0.491,1.677,1.207l4.06,12.181l12.841,0.095c0.759,0.009,1.431,0.5,1.668,1.224 c0.233,0.716-0.021,1.509-0.634,1.966l-10.328,7.629l3.875,12.241c0.228,0.724-0.035,1.517-0.647,1.966 C458.108,332.632,457.741,332.744,457.379,332.744z"/><path fill="#F5F5F5" d="M445.905,295.664l4.462,13.378l14.102,0.109l-11.344,8.377l4.254,13.446l-11.473-8.2l-11.473,8.2 l4.254-13.446l-11.344-8.377l14.102-0.109L445.905,295.664 M445.905,292.133c-1.52,0-2.869,0.973-3.35,2.414l-3.663,10.984 l-11.578,0.09c-1.52,0.011-2.861,0.994-3.331,2.44c-0.47,1.445,0.038,3.029,1.261,3.932l9.314,6.878l-3.492,11.039 c-0.458,1.449,0.062,3.029,1.291,3.922c0.619,0.449,1.347,0.675,2.076,0.675c0.719,0,1.439-0.219,2.053-0.658l9.42-6.733l9.42,6.733 c0.614,0.439,1.334,0.658,2.053,0.658c0.729,0,1.457-0.225,2.076-0.675c1.229-0.893,1.749-2.473,1.291-3.922l-3.492-11.039 l9.314-6.878c1.222-0.902,1.73-2.486,1.261-3.932c-0.47-1.445-1.811-2.428-3.331-2.44l-11.578-0.09l-3.663-10.984 C448.774,293.105,447.425,292.133,445.905,292.133L445.905,292.133z"/><path fill="#FF4B55" d="M333.793,350.399c-0.362,0-0.72-0.112-1.026-0.328l-10.448-7.474l-10.448,7.474 c-0.306,0.216-0.668,0.328-1.026,0.328c-0.362,0-0.728-0.112-1.039-0.336c-0.612-0.448-0.875-1.241-0.647-1.966l3.875-12.241 l-10.328-7.629c-0.612-0.457-0.866-1.25-0.634-1.965c0.237-0.724,0.91-1.216,1.668-1.224l12.84-0.095l4.06-12.181 c0.241-0.716,0.918-1.207,1.677-1.207s1.435,0.491,1.677,1.207l4.06,12.181l12.84,0.095c0.759,0.009,1.431,0.5,1.668,1.224 c0.233,0.715-0.022,1.509-0.634,1.965l-10.328,7.629l3.875,12.241c0.228,0.724-0.035,1.517-0.647,1.966 C334.521,350.287,334.155,350.399,333.793,350.399z"/><path fill="#F5F5F5" d="M322.319,313.319l4.462,13.378l14.102,0.109l-11.345,8.377l4.254,13.446l-11.473-8.2l-11.473,8.2 l4.254-13.446l-11.345-8.377l14.102-0.109L322.319,313.319 M322.319,309.788c-1.52,0-2.869,0.973-3.35,2.414l-3.663,10.984 l-11.578,0.09c-1.52,0.011-2.861,0.994-3.331,2.44c-0.47,1.445,0.038,3.029,1.261,3.932l9.314,6.878l-3.493,11.039 c-0.458,1.449,0.062,3.029,1.291,3.922c0.619,0.449,1.347,0.674,2.076,0.674c0.72,0,1.439-0.219,2.053-0.658l9.42-6.733l9.42,6.733 c0.614,0.439,1.334,0.658,2.053,0.658c0.729,0,1.457-0.225,2.076-0.674c1.229-0.893,1.749-2.473,1.291-3.922l-3.492-11.039 l9.314-6.878c1.223-0.902,1.73-2.487,1.261-3.932c-0.469-1.446-1.811-2.428-3.331-2.44l-11.578-0.09l-3.663-10.984 C325.188,310.76,323.839,309.788,322.319,309.788L322.319,309.788z"/></svg>