<?xml version="1.0" encoding="iso-8859-1"?>
<!-- Generator: Adobe Illustrator 19.0.0, SVG Export Plug-In . SVG Version: 6.00 Build 0)  -->
<svg xmlns:xlink="http://www.w3.org/1999/xlink" xmlns="http://www.w3.org/2000/svg" version="1.1" id="Layer_1" x="0px"
     y="0px" viewBox="0 0 512 512" style="enable-background:new 0 0 512 512;" xml:space="preserve">
<path style="fill:#41479B;"
      d="M400.002,0.004H112.007C50.152,0.004,0.009,50.147,0.009,112.002v287.995  c0,61.855,50.143,111.998,111.998,111.998h287.995c61.855,0,111.998-50.143,111.998-111.998V112.002  C512,50.147,461.857,0.004,400.002,0.004z"/>
    <g>
	<path style="fill:#F5F5F5;"
          d="M0.057,256v147.206c1.699,60.371,51.168,108.789,111.949,108.789h287.995   c61.624,0,111.617-49.771,111.989-111.308V256H0.057L0.057,256z"/>
        <path style="fill:#F5F5F5;"
              d="M371.701,94.318l112.441-56.227c-12.496-14.215-28.538-25.234-46.743-31.683L286.687,81.773V0.004   h-61.326v81.769L74.63,6.399c-18.208,6.445-34.25,17.465-46.749,31.679l112.468,56.24H1.406c-0.751,4.734-1.211,9.564-1.349,14.476   v52.892h140.292L0.057,231.839V256h61.785l163.519-81.769V256h61.326v-81.769L450.206,256h61.785v-24.161l-140.292-70.154h140.292   v-50.373c-0.035-5.779-0.508-11.454-1.387-16.994C510.604,94.318,371.701,94.318,371.701,94.318z"/>
</g>
    <g>
	<rect x="0.058" y="107.789" style="fill:#FF4B55;" width="511.93" height="40.42"/>
        <rect x="242.789" y="0.004" style="fill:#FF4B55;" width="26.48" height="256"/>
</g>
    <path style="fill:#FFE15A;"
          d="M325.118,104.529l-19.877,10.276l-7.85-18.262c-0.81-1.884-4.061-2.222-5.482-0.569l-16.19,18.832  l-16.928-26.253c-1.134-1.759-4.373-1.759-5.507,0l-16.928,26.253l-16.19-18.832c-1.421-1.653-4.672-1.315-5.482,0.569l-7.85,18.262  l-19.877-10.276c-2.627-1.358-5.873,0.864-4.461,3.054l19.418,30.114h-0.84c-2.253,0-4.08,1.417-4.08,3.164v8.934  c0,1.747,1.827,3.164,4.08,3.164H311c2.254,0,4.08-1.417,4.08-3.164v-8.934c0-1.747-1.827-3.164-4.08-3.164h-0.84l19.418-30.114  C330.991,105.394,327.745,103.171,325.118,104.529z"/>
    <g>
	<polygon style="fill:#FF4B55;" points="178.983,161.686 0.058,250.304 0.058,256 21.041,256 211.406,161.686  "/>
        <polygon style="fill:#FF4B55;"
                 points="511.991,256 511.991,243.724 346.4,161.686 313.977,161.686 504.299,256  "/>
</g>
    <g>
	<path style="fill:#41479B;"
          d="M511.934,330.104c-25.633,0-25.633-11.789-51.266-11.789c-25.616,0-25.616,11.789-51.231,11.789   c-25.594,0-25.594-11.789-51.186-11.789c-25.59,0-25.59,11.789-51.179,11.789c-25.597,0-25.597-11.789-51.194-11.789   s-25.597,11.789-51.193,11.789s-25.597-11.789-51.193-11.789c-25.586,0-25.586,11.789-51.171,11.789   c-25.573,0-25.573-11.789-51.145-11.789c-25.587-0.001-25.587,11.789-51.175,11.789v-35.367c25.589,0,25.589-11.789,51.176-11.789   c25.573,0,25.573,11.789,51.145,11.789c25.586,0,25.586-11.789,51.171-11.789c25.597,0,25.597,11.789,51.193,11.789   s25.597-11.789,51.193-11.789s25.597,11.789,51.194,11.789c25.59,0,25.59-11.789,51.179-11.789   c25.594,0,25.594,11.789,51.186,11.789c25.616,0,25.616-11.789,51.231-11.789c25.633,0,25.633,11.789,51.266,11.789   L511.934,330.104L511.934,330.104z"/>
        <path style="fill:#41479B;"
              d="M511.934,400.84c-25.633,0-25.633-11.79-51.266-11.79c-25.616,0-25.616,11.79-51.231,11.79   c-25.594,0-25.594-11.79-51.186-11.79c-25.59,0-25.59,11.79-51.179,11.79c-25.597,0-25.597-11.79-51.194-11.79   s-25.597,11.79-51.193,11.79s-25.597-11.79-51.193-11.79c-25.586,0-25.586,11.79-51.171,11.79c-25.573,0-25.573-11.79-51.145-11.79   c-25.589,0-25.589,11.79-51.176,11.79v-35.367c25.589,0,25.589-11.789,51.176-11.789c25.573,0,25.573,11.789,51.145,11.789   c25.586,0,25.586-11.789,51.171-11.789c25.597,0,25.597,11.789,51.193,11.789s25.597-11.789,51.193-11.789   s25.597,11.789,51.194,11.789c25.59,0,25.59-11.789,51.179-11.789c25.594,0,25.594,11.789,51.186,11.789   c25.616,0,25.616-11.789,51.231-11.789c25.633,0,25.633,11.789,51.266,11.789V400.84z"/>
        <path style="fill:#41479B;"
              d="M409.437,436.207c-25.594,0-25.594-11.789-51.186-11.789c-25.59,0-25.59,11.789-51.179,11.789   c-25.597,0-25.597-11.789-51.194-11.789s-25.597,11.789-51.193,11.789s-25.597-11.789-51.193-11.789   c-25.586,0-25.586,11.789-51.171,11.789c-25.573,0-25.573-11.789-51.145-11.789c-23.444,0-25.423,9.89-45.266,11.549   c3.833,11.311,9.425,21.809,16.449,31.171c7.67-3.343,13.892-7.353,28.817-7.353c25.573,0,25.573,11.789,51.145,11.789   c25.586,0,25.586-11.789,51.171-11.789c25.597,0,25.597,11.789,51.193,11.789s25.597-11.789,51.193-11.789   s25.597,11.789,51.194,11.789c25.59,0,25.59-11.789,51.179-11.789c25.594,0,25.594,11.789,51.186,11.789   c25.616,0,25.616-11.789,51.231-11.789c15.007,0,21.231,4.04,28.953,7.39c7.036-9.371,12.637-19.88,16.475-31.202   c-19.956-1.638-21.911-11.555-45.428-11.555C435.052,424.418,435.052,436.207,409.437,436.207z"/>
</g>
    <g>
	<path style="fill:#FF4B55;"
          d="M194.24,94.318L46.52,21.143c-4.257,3.074-8.291,6.437-12.07,10.065l127.365,63.111L194.24,94.318   L194.24,94.318z"/>
        <path style="fill:#FF4B55;"
              d="M332.58,94.318l138.797-68.626c-4.227-3.499-8.714-6.694-13.43-9.55l-157.79,78.176H332.58z"/>
</g>
    <path style="fill:#FFE15A;"
          d="M428.55,497.913c21.962-11.311,29.862-28.275,32.739-34.577c4.358-9.546,24.576-17.247,24.576-17.247  s-24.977,0.117-38.343,17.472c-12.324,16-34.512,17.376-55.911,29.617c-2.04-2.564-4.139-5.079-6.318-7.522l66.678-80.715  l-80.715,66.678c-3.16-2.818-6.427-5.515-9.788-8.099c2.126-5.525,6.319-14.064,14.551-23.788  c15.961-18.854,16.77-37.55,17.015-44.473c0.373-10.488,16.105-25.339,16.105-25.339s-23.03,9.666-28.739,30.815  c-5.26,19.488-25.214,29.25-40.296,48.729c-2.863-1.593-5.762-3.129-8.721-4.562l30.695-100.027l-49.04,92.462  c-3.99-1.391-8.04-2.65-12.157-3.751c-0.146-5.921,0.466-15.398,4.341-27.503c7.531-23.527,1.122-41.109-1.3-47.599  c-3.668-9.833,5.182-29.573,5.182-29.573s-17.578,17.744-14.758,39.467c2.598,20.023-12.111,36.682-18.588,60.462  c-3.24-0.368-6.501-0.66-9.792-0.848l-9.925-104.209l-9.925,104.209c-4.262,0.241-8.473,0.667-12.647,1.211  c-2.404-5.41-5.478-14.414-6.533-27.113c-2.045-24.619-14.695-38.41-19.416-43.479c-7.153-7.679-6.53-29.304-6.53-29.304  s-9.449,23.12,1.469,42.11c10.061,17.501,2.853,38.517,5.963,62.958c-3.164,0.904-6.292,1.887-9.378,2.963l-49.04-92.462  l30.695,100.029c-3.827,1.853-7.552,3.878-11.216,5.996c-4.291-4.079-10.572-11.22-16.401-22.539  c-11.312-21.962-28.276-29.862-34.577-32.739c-9.547-4.358-17.247-24.575-17.247-24.575s0.117,24.976,17.472,38.343  c16,12.324,17.376,34.512,29.617,55.911c-2.564,2.04-5.079,4.139-7.523,6.318l-80.715-66.678l66.678,80.715  c-2.818,3.159-5.515,6.427-8.098,9.788c-5.525-2.126-14.065-6.319-23.788-14.551c-18.854-15.962-37.55-16.769-44.473-17.016  c-10.488-0.373-25.339-16.104-25.339-16.104s9.666,23.03,30.814,28.738c17.127,4.623,26.802,20.574,42.104,34.613  c4.586,0.572,9.257,0.869,13.998,0.869H400c2.945,0,5.864-0.115,8.752-0.338C413.026,507.634,419.336,502.659,428.55,497.913z"/>
    <g>
</g>
    <g>
</g>
    <g>
</g>
    <g>
</g>
    <g>
</g>
    <g>
</g>
    <g>
</g>
    <g>
</g>
    <g>
</g>
    <g>
</g>
    <g>
</g>
    <g>
</g>
    <g>
</g>
    <g>
</g>
    <g>
</g>
</svg>
