<?xml version="1.0" encoding="iso-8859-1"?>
<!-- Generator: Adobe Illustrator 19.0.0, SVG Export Plug-In . SVG Version: 6.00 Build 0)  -->
<svg xmlns:xlink="http://www.w3.org/1999/xlink" xmlns="http://www.w3.org/2000/svg" version="1.1" id="Layer_1" x="0px"
     y="0px" viewBox="0 0 512 512" style="enable-background:new 0 0 512 512;" xml:space="preserve">
<path style="fill:#FFD250;"
      d="M400,0H112C50.144,0,0,50.144,0,112v288c0,61.856,50.144,112,112,112h288  c61.856,0,112-50.144,112-112V112C512,50.144,461.856,0,400,0z"/>
    <path style="fill:#963C3C;"
          d="M189.965,67.02v377.96c0,6.958,3.696,12.599,8.254,12.599h264.138c4.559,0,8.254-5.641,8.254-12.599  V67.02c0-6.958-3.696-12.599-8.254-12.599H198.22C193.661,54.421,189.965,60.062,189.965,67.02z"/>
    <path style="fill:#5AA587;"
          d="M103.295,54.421H52.294c-6.023,0-10.906,4.883-10.906,10.906v381.346  c0,6.023,4.883,10.906,10.906,10.906h51.001V54.421z"/>
    <path style="fill:#FF7350;"
          d="M154.297,54.421h-51.001v403.158h51.001c6.023,0,10.906-4.883,10.906-10.906V65.327  C165.203,59.304,160.32,54.421,154.297,54.421z"/>
    <g>
	<path style="fill:#FFD250;"
          d="M384.158,317.599c-0.265-1.767,1.29-4.048,3.693-7.326c0.869-1.185,2.125-2.901,2.464-3.723   c-0.224-0.016-0.532,0.001-0.76,0.014c-1.33,0.065-3.341,0.156-5.099-1.795c-0.688-0.765-1.019-1.721-0.954-2.766   c0.131-2.123,1.865-4.21,2.94-5.314c-2.773-1.947-5.422-3.97-7.865-6.413c-4.668-4.669-9.993-6.918-15.872-6.795   c-0.544,5.848,2.469,9.694,5.686,13.741c0.948,1.191,1.893,2.382,2.751,3.625c4.231,6.126,3.346,17.951,2.81,19.204   c-0.607,1.42-3.953,4.569-8.542,3.955c-2.111-0.278-4.54,0.432-6.07,1.77c-0.658,0.576-1.444,1.533-1.444,2.818   c0,0.065,0.005,0.39,0.106,0.45c0.617,0.372,2.92-0.355,4.569-1.246c0.454-0.248,1.021-0.175,1.404,0.181   c3.243,3.037,6.5,0.413,6.859,0.104c0.445-0.38,1.101-0.393,1.554-0.028c3.319,2.676,6.78-0.249,6.927-0.375   c0.407-0.352,1.005-0.394,1.458-0.098c1.44,0.945,2.758,1.215,3.933,0.811c1.027-0.357,1.571-1.128,1.634-1.314   c0.03-0.491-0.63-3.023-1.066-4.698C384.813,320.622,384.339,318.805,384.158,317.599z"/>
        <path style="fill:#FFD250;"
              d="M420.11,205.616c-1-0.076-1.724,0.14-2.22,0.631c-0.909,0.898-0.835,2.516-0.833,2.532   c0.019,0.36-0.123,0.712-0.387,0.956c-0.265,0.244-0.62,0.369-0.98,0.317c-1.798-0.235-4.457-2.133-9.391-5.749   c-7.839-5.745-19.686-14.428-30.99-15.858c-13.138-1.669-24.831,2.523-27.801,9.95c-3.308,8.27,3.721,15.804,3.793,15.88   c0.358,0.379,0.435,0.943,0.191,1.402c-1.854,3.491-0.45,6.069,0.816,7.481c0.396-1.166,0.989-1.962,1.806-2.452   c1.972-1.178,4.546-0.204,8.107,1.145c2.104,0.795,4.488,1.698,7.269,2.379c7.131,1.748,15.828,0.189,23.501-1.185   c2.712-0.486,5.328-0.953,7.76-1.264c6.119-0.779,12.254,1.933,13.941,6.184c0.817,2.059,1.254,6.192-4.998,10.738   c-11.242,8.178-62.51,4.404-65.53,4.174c-0.068,0.006-0.133,0.012-0.275,0.022c1.121,1.259,2.436,2.487,3.009,2.64   c0.584,0.156,0.964,0.718,0.89,1.319c-0.074,0.6-0.579,1.054-1.183,1.063l-5.252,0.081l0.483,5.055   c0.035,0.372-0.104,0.741-0.377,0.997c-0.273,0.257-0.652,0.364-1.018,0.316c-0.205-0.033-4.739-0.759-7.874-2.5l-5.932,3.742   c-0.196,0.123-0.421,0.186-0.647,0.186c-0.131,0-0.263-0.02-0.39-0.065c-0.347-0.118-0.622-0.385-0.748-0.729l-2.264-6.154   l-2.683,5.368c-0.196,0.393-0.589,0.648-1.025,0.669c-0.436,0.046-0.852-0.194-1.085-0.566l-2.3-3.666   c-1.052,1.314-2.739,3.228-4.465,4.422c-0.315,0.221-0.715,0.275-1.081,0.152c-0.364-0.125-0.648-0.415-0.763-0.781l-1.205-3.805   c-1.066,1.349-2.609,3.136-4.242,4.475c-0.349,0.29-0.833,0.358-1.251,0.175c-0.416-0.182-0.697-0.581-0.726-1.033l-0.388-6.116   c-1.38,0.704-3.261,1.62-4.302,1.945c-0.473,0.148-0.996-0.009-1.306-0.399c-0.312-0.39-0.353-0.929-0.104-1.361   c1.869-3.245,3.584-7.297,3.714-9.311c-1.239,1.484-2.974,2.904-4.913,4.481c-4.124,3.357-9.256,7.533-13.032,14.842   c-2.638,5.108-4.532,14.018-1.191,22.326c2.851,7.087,8.989,12.375,18.183,15.772c-0.308-1.342-0.543-2.66-0.568-3.898   c-0.12-6.293,1.186-12.037,1.243-12.278c0.15-0.653,0.798-1.065,1.451-0.907c0.653,0.15,1.059,0.8,0.909,1.451   c-0.013,0.057-1.294,5.704-1.18,11.686c0.057,2.928,1.316,6.542,2.534,10.036c1.617,4.646,3.291,9.448,2.564,13.49   c-0.991,5.495-7.831,6.888-14.181,5.827c-1.805-0.303-3.447,0.142-4.627,1.243c-1.197,1.117-1.811,2.829-1.642,4.58   c0.08,0.825,0.388,0.991,0.489,1.046c0.763,0.413,2.56-0.148,3.532-0.656c0.489-0.257,1.093-0.151,1.467,0.267   c2.546,2.852,5.976,0.006,6.119-0.118c0.492-0.415,1.226-0.377,1.668,0.095c0.959,1.022,1.975,1.532,3.106,1.557   c2.068,0.126,4.031-1.715,4.051-1.731c0.358-0.349,0.895-0.438,1.347-0.233c3.996,1.828,6.093,0.767,6.179,0.716   c3.467-2.956,1.464-9.972,1.443-10.043c-0.095-0.32-0.052-0.666,0.117-0.953c0.169-0.289,0.45-0.494,0.775-0.57   c4.857-1.114,7.572-4.231,8.885-6.298c-2.4-0.024-4.307-0.864-5.43-2.62c-1.81-2.833-0.94-7.101,2.215-10.871   c5.398-6.451,8.699-19.505,8.203-24.821c-0.061-0.666,0.429-1.256,1.095-1.319c0.648-0.066,1.256,0.429,1.319,1.095   c0.432,4.656-1.667,14.315-5.499,21.599c4.855-1.343,9.286-3.308,13.909-5.418c4.595-2.096,9.349-4.264,15.059-6.053   c9.653-3.023,18.167-0.928,25.315,6.224c3.463,3.463,7.244,5.999,11.622,8.939c1.923,1.29,3.923,2.633,6,4.128   c5.627,4.051,5.528,7.434,5.422,11.015c-0.031,1.092-0.066,2.22,0.057,3.442c0.581,5.815-4.043,6.735-6.266,7.176   c-0.305,0.06-0.59,0.117-0.839,0.178c-0.314,0.079-0.689,0.156-1.104,0.24c-2.258,0.457-5.668,1.15-6.506,4.038   c-0.152,0.518-0.093,0.699-0.093,0.699c0.357,0.163,2.204-0.257,3.676-0.926c0.312-0.144,0.667-0.145,0.981-0.011   s0.557,0.396,0.669,0.719c0.429,1.257,1.098,1.472,1.317,1.543c1.526,0.477,4.021-0.928,4.774-1.462   c0.469-0.33,1.099-0.295,1.522,0.091c1.251,1.142,2.407,1.645,3.447,1.505c1.391-0.194,2.235-1.503,2.245-1.518   c0.2-0.323,0.541-0.535,0.921-0.569c0.385-0.021,0.754,0.115,1.01,0.396c0.003,0.005,1.063,1.123,3.232,1.809   c1.423,0.445,1.781-0.068,1.899-0.238c0.601-0.877,0.385-3.116-0.787-4.58c-1.537-1.922-2.25-4.843-1.817-7.443   c0.398-2.393,1.688-4.345,3.729-5.645c3.74-2.381,4.595-4.946,4.356-5.435c-0.069-0.033-0.475-0.087-0.8-0.129   c-1.669-0.221-4.463-0.59-7.336-5.895c-2.537-4.682-0.082-12.095,2.759-20.68c1.442-4.349,2.931-8.849,3.849-13.261   c2.543-12.206-5.449-21.897-5.529-21.993c-0.413-0.492-0.371-1.223,0.099-1.663c5.61-5.263,8.022-10.142,7.165-14.501   c-0.891-4.545-5.293-7.722-8.79-9.061c-4.359-1.671-12.311-0.721-20.005,0.194c-6.429,0.764-12.505,1.488-16.427,0.669   c-2.021-0.424-3.501-1.382-4.398-2.846c-0.74-1.207-0.921-2.529-0.913-3.561c-1.948,0.732-3.264,2.537-3.28,2.559   c-0.223,0.311-0.581,0.5-0.962,0.506c-0.478-0.019-0.749-0.167-0.981-0.469c-0.991-1.281-1.39-2.694-1.182-4.203   c0.267-1.95,1.525-3.627,2.557-4.709c-4.51-1.584-7.967,2.196-8.126,2.376c-0.394,0.437-1.043,0.53-1.541,0.229   c-2.175-1.338-3.524-3.963-3.439-6.687c0.082-2.573,1.409-4.73,3.639-5.914c1.529-0.811,2.994-0.961,4.354-0.448   c1.294,0.487,2.201,1.494,2.772,2.347c1.65-1.882,1.789-5.13,1.789-5.168c0.009-0.325,0.147-0.633,0.385-0.854   c0.237-0.221,0.566-0.36,0.877-0.325c2.87,0.118,5.097,1.155,6.62,3.079c2.081,2.633,2.276,6.29,2.153,8.554   c4.583-2.34,4.002-7.74,3.972-7.992c-0.049-0.416,0.12-0.828,0.447-1.09c0.327-0.26,0.762-0.341,1.161-0.196   c4.864,1.716,6.634,6.053,7.05,9.281c1.377-1.314,1.398-3.001,1.398-3.023c0-0.554,0.375-1.036,0.912-1.174   c0.541-0.136,1.098,0.107,1.363,0.593c1.876,3.43,4.738,5.564,6.831,6.758l-1.442-3.494c-0.196-0.473-0.073-1.019,0.308-1.361   c0.382-0.344,0.939-0.41,1.387-0.167c2.4,1.292,4.3,2.754,6.312,4.304c2.426,1.868,4.936,3.799,8.471,5.46   c3.452,1.623,5.78,1.314,7.12,0.771c1.388-0.56,2.182-1.549,2.439-2.226c0.487-1.279,0.629-3.117-0.153-4.335   C422.136,206.129,421.286,205.694,420.11,205.616z"/>
        <path style="fill:#FFD250;"
              d="M277.07,223.037c0.003,0.001,0.004,0.003,0.004,0.003c0.006,0.002,0.01,0.001,0.013,0.002   c0.09,0.03,9.148,2.888,17.374,3.378c0.451,0.027,0.852,0.305,1.035,0.718c0.183,0.415,0.122,0.898-0.162,1.251l-0.287,0.358   c1.631-0.245,3.684-0.472,5.697-0.48c-0.824-0.981-1.851-2.23-2.904-3.538c-2.2-0.04-10.249-0.39-16.798-3.547   c-1.59-0.771-4.341-2.104-5.649-1.429c-0.226,0.117-0.598,0.663-0.536,1.333C274.934,221.936,275.72,222.63,277.07,223.037z"/>
        <path style="fill:#FFD250;"
              d="M304.366,205.525c-0.126,0-0.241,0.014-0.342,0.044c-0.529,0.158-0.797,0.756-0.868,1.221   c-0.088,0.596,0.063,1.398,0.756,1.86c0.904,0.601,1.871,0.189,2.421-0.353c0.174-0.169,1.005-1.059,0.391-2.03l-0.002-0.003   C305.777,205.829,304.947,205.525,304.366,205.525z"/>
        <path style="fill:#FFD250;"
              d="M292.476,234.733c0.587,1.399,1.497,2.483,2.25,3.21c0.286-0.618,0.721-1.26,1.382-1.743   c0.647-0.471,1.767-0.93,3.41-0.588c0.025,0.002,0.049,0.007,0.074,0.01c0.047,0.01,0.084,0.006,0.132,0.018   c0.042,0.01,0.07,0.043,0.111,0.055c0.059,0.021,0.12,0.023,0.176,0.053c0.042,0.023,0.068,0.061,0.106,0.088   c0.618,0.262,1.133,0.686,1.407,1.325c0.918,2.142-0.697,6.299-2.123,9.259c1.008-0.498,1.972-1.003,2.493-1.283   c0.363-0.196,0.801-0.193,1.161,0.01c0.361,0.2,0.595,0.571,0.62,0.981l0.342,5.405c1.895-1.997,3.387-4.166,3.406-4.195   c0.262-0.383,0.715-0.576,1.177-0.514c0.459,0.068,0.838,0.391,0.978,0.833l1.382,4.365c1.934-1.78,3.62-4.162,3.641-4.192   c0.235-0.331,0.618-0.508,1.022-0.514c0.405,0.011,0.779,0.224,0.995,0.568l2.084,3.322l2.974-5.946   c0.216-0.434,0.625-0.707,1.152-0.669c0.483,0.027,0.902,0.338,1.07,0.792l2.713,7.378l5.296-3.341   c0.401-0.256,0.91-0.249,1.311,0.013c1.727,1.131,4.381,1.86,6.053,2.235l-0.453-4.742c-0.032-0.338,0.079-0.672,0.304-0.923   c0.226-0.252,0.546-0.399,0.883-0.404l3.03-0.046c-0.729-0.738-1.331-1.451-1.626-1.813c-0.197-0.241-0.276-0.535-0.262-0.823   c-2.232-0.095-5.343-0.493-8.453-1.835l-1.851,2.854c-0.177,0.273-0.454,0.462-0.773,0.527c-0.081,0.017-0.163,0.025-0.243,0.025   c-0.238,0-0.473-0.071-0.675-0.205l-6.998-4.695l-1.286,3.501c-0.148,0.402-0.497,0.696-0.918,0.773   c-0.421,0.082-0.85-0.072-1.133-0.394c-1.202-1.379-3.09-3.493-4.214-4.652c-1.011,0.975-2.786,2.548-4.684,3.602   c-0.309,0.172-0.678,0.199-1.008,0.077c-0.331-0.122-0.593-0.382-0.716-0.713l-1.918-5.149c-0.233-0.626,0.085-1.325,0.713-1.559   c0.625-0.234,1.325,0.088,1.559,0.713l1.399,3.756c2.03-1.41,3.725-3.226,3.745-3.248c0.432-0.465,1.152-0.521,1.645-0.123   c0.705,0.565,2.62,2.674,3.957,4.173l1.115-3.038c0.128-0.349,0.41-0.62,0.764-0.734c0.35-0.121,0.74-0.065,1.049,0.145   l7.257,4.868l1.754-2.704c0.338-0.521,1.013-0.702,1.557-0.424c3.221,1.611,6.7,2,8.919,2.059c-1.355-2.532-1.474-5.74-1.482-6.494   c-1.814-0.801-4.043-2.009-6.286-3.853l-0.872,2.155c-0.14,0.344-0.431,0.606-0.79,0.708c-0.358,0.099-0.745,0.035-1.044-0.183   l-3.501-2.54l-0.341,2.624c-0.054,0.407-0.308,0.759-0.678,0.936c-0.368,0.177-0.801,0.159-1.153-0.057   c-0.121-0.073-3.002-1.833-4.719-3.764c-0.445-0.5-0.399-1.265,0.101-1.71c0.494-0.445,1.262-0.402,1.71,0.101   c0.726,0.816,1.742,1.626,2.589,2.24l0.352-2.702c0.055-0.424,0.33-0.787,0.723-0.956c0.394-0.17,0.847-0.118,1.191,0.131   l3.897,2.827l0.932-2.302c0.15-0.369,0.473-0.642,0.865-0.727c0.388-0.084,0.798,0.027,1.089,0.301   c3.021,2.843,6.29,4.378,8.323,5.13c-0.694-3.234-0.959-7.29-0.972-7.503c-0.002-0.03,0.011-0.056,0.012-0.086   c-1.888-1.041-4.558-2.836-6.865-5.655c-0.011,1.494-0.133,3.013-0.499,3.974c-0.126,0.331-0.39,0.59-0.723,0.71   c-0.334,0.115-0.704,0.085-1.008-0.087c-0.147-0.084-2.783-1.598-4.745-3.808c-0.339,1.218-0.746,2.502-1.089,3.075   c-0.328,0.543-1.013,0.743-1.581,0.461c-0.115-0.057-1.972-0.997-3.627-2.434c-0.161,1.614-0.41,3.436-0.765,4.324   c-0.128,0.322-0.388,0.573-0.715,0.691c-0.327,0.112-0.686,0.087-0.991-0.077c-0.111-0.06-2.213-1.213-4.177-2.675l-0.532,2.021   c-0.091,0.345-0.33,0.634-0.653,0.787c-0.325,0.15-0.694,0.155-1.021,0.008c-0.147-0.066-3.611-1.66-5.585-4.072   c-0.424-0.517-0.349-1.281,0.17-1.704c0.516-0.424,1.281-0.349,1.704,0.17c0.943,1.152,2.387,2.116,3.428,2.72l0.621-2.362   c0.109-0.41,0.421-0.734,0.827-0.854c0.404-0.126,0.844-0.021,1.158,0.263c1.158,1.048,2.724,2.078,3.838,2.761   c0.237-1.495,0.421-3.658,0.5-5.061c0.031-0.541,0.417-0.997,0.945-1.114c0.533-0.12,1.073,0.129,1.33,0.604   c0.666,1.227,2.267,2.422,3.474,3.177c0.331-1.036,0.74-2.565,1.046-3.884c0.118-0.506,0.544-0.88,1.062-0.931   c0.517-0.065,1.01,0.232,1.223,0.707c0.757,1.677,2.59,3.21,3.9,4.149c0.142-1.767,0.011-4.277-0.152-5.848   c-0.06-0.584,0.306-1.126,0.869-1.289c0.576-0.156,1.164,0.104,1.423,0.628c2.437,4.943,6.747,7.681,8.989,8.833   c1.223-13.371-2.698-18.487-2.739-18.539c-0.219-0.276-0.311-0.637-0.246-0.984c0.066-0.346,0.276-0.65,0.581-0.827   c2.176-1.26,3.497-3.561,4.307-5.793c-4.926,4.776-12.731,6.611-16.533,7.245l1.857,2.262c0.282,0.346,0.353,0.819,0.183,1.232   c-0.172,0.413-0.555,0.697-1,0.742c-4.659,0.465-8.058-0.152-10.347-0.923l0.792,1.462c0.208,0.383,0.194,0.85-0.038,1.219   c-0.23,0.371-0.653,0.62-1.079,0.568c-3.796-0.163-7.116-1.726-9.846-3.108c-0.129,0.891-0.569,1.759-1.301,2.474   c-0.896,0.874-2.037,1.327-3.166,1.327c-0.8,0-1.595-0.227-2.292-0.692c-1.369-0.913-2.062-2.537-1.808-4.236   c0.235-1.56,1.22-2.78,2.57-3.184c1.806-0.536,3.868,0.508,6.476,1.836c2.07,1.055,4.539,2.311,7.23,2.874l-1.5-2.77   c-0.279-0.516-0.15-1.156,0.308-1.524c0.459-0.361,1.111-0.352,1.554,0.033c0.027,0.024,3.042,2.5,9.887,2.373l-1.726-2.105   c-0.284-0.346-0.353-0.822-0.181-1.235c0.174-0.413,0.56-0.697,1.007-0.74c0.13-0.012,10.074-1.021,16.191-5.949   c-1.992,0.583-3.534,0.491-3.653,0.49c-0.336-0.027-0.645-0.191-0.855-0.454c-2.803-3.521-5.67-4.61-7.116-4.947   c-0.813,2.559-2.778,4.63-2.874,4.729c-0.26,0.27-0.631,0.402-1,0.366c-0.372-0.039-0.705-0.248-0.904-0.566   c-2.161-3.483-5.277-4.4-7.088-4.627c0.222,2.575-1.578,4.69-2.775,5.57c-0.465,0.338-1.101,0.308-1.526-0.072   c-5.2-4.648-9.214-3.272-10.839-2.344c0.513,1.275,0.271,2.316-0.076,3.02c-2.483,5.031-17.842,6.042-20.896,6.193   c-0.379,0.027-0.759-0.147-1.002-0.448c-0.244-0.301-0.328-0.7-0.229-1.074c0.224-0.838,0.074-1.742-0.42-2.549   c-0.505-0.825-1.314-1.426-2.163-1.607c-0.798-0.169-2.322-0.06-3.232,0.939c-1.041,1.145-1.112,3.262-0.205,6.126   c1.626,5.138,6.635,10.201,9.754,12.975c-0.028-0.639-0.009-1.109-0.003-1.227c0.027-0.518,0.379-0.961,0.877-1.103   c0.5-0.147,1.03,0.046,1.327,0.472c1.033,1.484,2.265,2.488,3.191,3.102l0.607-3.876c0.085-0.536,0.516-0.951,1.055-1.016   c0.536-0.046,1.055,0.24,1.262,0.743c1.098,2.666,8.047,11.015,10.633,14.006c0.331,0.382,0.39,0.929,0.147,1.372   c-0.243,0.442-0.734,0.68-1.235,0.618c-4.428-0.631-10.934,0.842-10.999,0.857c-0.502,0.117-1.024-0.099-1.298-0.536   c-0.273-0.437-0.241-0.999,0.082-1.402l0.896-1.115c-6.148-0.639-12.135-2.256-14.555-2.963l-2.034,5.525l5.479-0.547   c0.413-0.052,0.838,0.139,1.09,0.481c0.256,0.341,0.312,0.789,0.151,1.183l-1.033,2.526l4.513-1.194   c0.598-0.166,1.212,0.155,1.437,0.726c0.598,1.514,1.331,2.51,1.917,3.127l1.271-2.811c0.2-0.439,0.637-0.745,1.122-0.712   C291.858,233.997,292.29,234.288,292.476,234.733z"/>
        <path style="fill:#FFD250;"
              d="M276.786,296.69c4.779,3.191,8.641-0.45,10.705-3.253c-4.403-3.212-7.607-7.163-9.499-11.868   c-0.619-1.538-1.021-3.092-1.335-4.643c-0.449-0.353-7.098-5.619-12.666-11.773c-0.284,0.742-0.658,1.332-0.961,1.73   c0.391,1.59,0.011,2.89-0.48,3.723c0.338,1.134,0.066,2.259-0.326,3.081c0.842,1.271,0.995,2.516,0.456,3.712   c-0.124,0.274-0.29,0.526-0.463,0.774c0.692,0.836,1.782,2.75,1.782,6.602c0,2.59,0.959,4.144,1.675,4.943   c0.418-0.361,0.875-0.565,1.379-0.618c1.529-0.17,2.784,1.137,4.501,2.941C272.896,293.453,274.568,295.212,276.786,296.69z"/>
        <path style="fill:#FFD250;"
              d="M253.017,263.844c-0.09,0-0.18-0.001-0.27-0.001c-1.743-0.016-3.336-0.19-4.803-0.472   c-0.141,0.405,0.159,1.58,0.474,1.823c0.309,0.237,0.516,0.629,0.505,1.019c-0.011,0.388-0.178,0.77-0.5,0.989   c-0.207,0.145-0.822,0.694-0.83,1.23c-0.008,0.522,0.609,1.063,0.978,1.341c0.27,0.202,0.443,0.508,0.478,0.842   c0.035,0.336-0.071,0.671-0.294,0.924c-0.156,0.185-0.601,0.858-0.524,1.424c0.016,0.12,0.066,0.486,0.697,0.915   c0.273,0.186,0.459,0.476,0.514,0.803c0.054,0.327-0.028,0.661-0.227,0.926c0.002,0-0.339,0.497-0.208,0.991   c0.145,0.547,0.827,0.969,1.371,1.224c1.02,0.48,2.488,0.788,4.017,0.849c0.046-0.008,0.094-0.001,0.142-0.003   c1.289,0.037,2.613-0.088,3.745-0.505c1.109-0.409,1.846-1.002,2.188-1.762c0.107-0.237,0.33-0.73-0.623-1.843   c-0.372-0.435-0.39-1.07-0.043-1.526c0.002-0.003,0.809-1.114,0.311-2c-0.267-0.475-0.186-1.068,0.199-1.451   c0.071-0.079,0.823-0.964,0.227-2.554c-0.172-0.457-0.052-0.973,0.305-1.308c0.043-0.044,1.14-1.184,1.115-2.919   c-0.149-0.181-0.297-0.362-0.442-0.544C259.176,263.251,256.301,263.844,253.017,263.844z"/>
        <path style="fill:#FFD250;"
              d="M264.099,179.391c-4.9,2.635-15.348,10.896-15.649,33.514l0.27,38.113   c0.033,0.053,0.079,0.109,0.106,0.16c0.633,1.193,0.333,2.739-0.022,3.81c3.027,1.082,6.802,0.637,8.419,0.237   c-0.323-0.944-0.578-2.47,0.517-4.199C257.569,205.573,261.904,186.238,264.099,179.391z"/>
        <path style="fill:#FFD250;"
              d="M264.604,255.765c0-1.937-1.461-3.445-2.906-3.934c-0.3-0.103-1.319-0.387-1.786,0.227   c-0.875,1.145-0.565,1.955-0.267,2.739c0.167,0.435,0.339,0.885,0.21,1.399c-0.164,0.656-0.762,0.926-0.959,1.016   c-1.644,0.746-7.894,1.724-12.213-0.505c-0.585-0.303-0.822-1.019-0.532-1.612c0.456-0.934,0.787-2.305,0.533-2.781   c-0.02-0.039-0.077-0.148-0.418-0.194c-0.322-0.044-0.644-0.066-0.961-0.066c-1.475,0-2.843,0.464-3.583,1.256   c-0.595,0.637-0.781,1.448-0.568,2.478c0.718,3.468,5.059,5.572,11.614,5.632c4.636-0.016,8.625-1.111,10.615-3.084   C264.194,257.532,264.604,256.668,264.604,255.765z"/>
        <path style="fill:#FFD250;"
              d="M254.175,284.512c0.281-0.369,0.743-0.547,1.199-0.453c0.842,0.177,2.936,0.62,4.138-0.311   c0.42-0.322,0.514-1.201,0.193-1.773c-0.11-0.197-0.446-0.792-1.708-0.309c-1.194,0.461-2.909,0.959-3.987-0.009   c-0.215-0.194-0.351-0.42-0.455-0.653c-0.324-0.028-0.646-0.045-0.964-0.093c-0.103,0.267-0.245,0.527-0.489,0.746   c-1.073,0.967-2.789,0.47-3.985,0.009c-1.257-0.478-1.6,0.112-1.708,0.309c-0.322,0.573-0.229,1.451,0.189,1.772   c1.204,0.928,3.299,0.489,3.986,0.344c0.446-0.09,0.994,0.065,1.279,0.431c0.284,0.369,0.404,0.852,0.196,1.267   c-0.273,0.546-1.459,2.865-2.619,4.313c1.514,2.215,2.827,6.164-0.246,9.675c-0.251,0.284-0.64,0.426-1.002,0.41   c-0.379-0.028-0.724-0.234-0.929-0.554c-0.175-0.265-0.79-1-1.47-1.133c-0.205-0.04-0.53-0.055-0.999,0.265   c-0.317,0.219-0.495,0.945-0.227,1.738c0.478,1.42,1.964,2.209,4.061,2.111c0.476-0.047,0.992,0.281,1.185,0.762   c0.191,0.481,0.055,1.03-0.338,1.368l-1.975,1.694l3.225,0.786c0.428,0.104,0.765,0.432,0.882,0.857   c0.005,0.02,0.488,1.738,1.451,3.188c0.962-1.45,1.445-3.168,1.45-3.188c0.117-0.424,0.454-0.753,0.882-0.857l3.225-0.786   l-1.977-1.694c-0.393-0.336-0.529-0.887-0.338-1.368c0.191-0.481,0.672-0.805,1.185-0.762c2.071,0.091,3.583-0.691,4.062-2.112   c0.268-0.792,0.09-1.518-0.227-1.737c-0.477-0.323-0.805-0.308-1.007-0.263c-0.702,0.142-1.333,0.929-1.464,1.131   c-0.205,0.32-0.551,0.525-0.929,0.554c-0.393,0.02-0.753-0.123-1.002-0.41c-3.072-3.512-1.759-7.46-0.245-9.675   c-1.16-1.448-2.346-3.767-2.619-4.313C253.847,285.375,253.894,284.879,254.175,284.512z"/>
</g>
    <path style="fill:#464655;"
          d="M424.677,205.602c-0.647-1.008-1.937-2.242-4.409-2.403c-1.718-0.123-3.095,0.339-4.097,1.341  c-0.806,0.803-1.194,1.798-1.379,2.639c-1.653-0.869-4.297-2.807-7.059-4.831c-8.041-5.894-20.193-14.799-32.119-16.307  c-9.674-1.229-20.676,0.701-26.727,6.314c0.09-0.742,0.118-1.239,0.122-1.324c0.001-0.016-0.012-0.028-0.012-0.044  c0.002-0.226-0.062-0.437-0.176-0.627c-0.024-0.041-0.052-0.071-0.081-0.109c-0.135-0.175-0.302-0.325-0.524-0.407  c-0.004-0.001-0.006-0.007-0.01-0.008H348.2c-0.229-0.08-0.459-0.067-0.678-0.015c-0.042,0.01-0.079,0.016-0.12,0.031  c-0.212,0.074-0.397,0.198-0.54,0.377c-0.009,0.012-0.026,0.013-0.036,0.025c-2.513,3.374-5.962,3.818-7.233,3.86  c-4.537-5.387-9.331-5.555-9.538-5.559c-0.694,0.046-1.136,0.431-1.226,1.033c-0.189,1.279-0.934,2.546-1.563,3.425  c-3.998-4.971-9.626-4.472-9.877-4.452c-0.39,0.038-0.735,0.262-0.931,0.601c-0.194,0.338-0.215,0.749-0.052,1.106  c0.721,1.587-0.153,2.969-0.85,3.737c-7.87-6.307-13.927-1.169-13.99-1.112c-0.462,0.405-0.549,1.093-0.199,1.6  c0.587,0.85,0.483,1.32,0.327,1.637c-1.273,2.581-10.511,4.264-17.43,4.758c-0.036-0.973-0.333-1.942-0.876-2.83  c-0.858-1.401-2.215-2.388-3.721-2.712c-1.675-0.365-4.032,0.02-5.534,1.678c-1.679,1.846-1.92,4.701-0.721,8.487  c1.873,5.916,7.496,11.481,10.776,14.346c-0.799-0.295-1.59-0.617-2.358-0.987c-1.931-0.94-5.163-2.513-7.552-1.271  c-1.205,0.623-1.977,2.183-1.836,3.709c0.071,0.764,0.498,2.48,2.733,3.576l-2.689,7.306c-0.144,0.391-0.076,0.83,0.18,1.16  c0.254,0.33,0.661,0.51,1.077,0.464l5.402-0.54l-1.191,2.914c-0.174,0.426-0.092,0.913,0.211,1.259  c0.303,0.344,0.765,0.497,1.221,0.371l5.864-1.552c1.514,3.111,3.535,4.2,3.63,4.248c0.298,0.158,0.642,0.181,0.956,0.072  c0.315-0.109,0.573-0.342,0.71-0.645l0.934-2.068c0.969,1.356,2.016,2.255,2.663,2.751c-0.395,0.326-0.782,0.646-1.21,0.994  c-4.072,3.313-9.647,7.852-13.654,15.61c-2.013,3.896-3.58,9.839-3.113,16.161c-2.918-2.454-8.422-7.32-12.473-12.3  c0.488-0.333,1.007-0.647,1.398-1.035c1.267-1.254,1.936-2.739,1.936-4.289c0-3.221-2.36-5.488-4.551-6.23  c-0.816-0.275-1.6-0.316-2.315-0.195c-0.071-52.808,5.944-68.974,7.165-71.697c0.193-0.431,0.118-0.936-0.192-1.292  c-0.309-0.355-0.801-0.499-1.254-0.366c-0.793,0.234-19.44,6.058-19.852,36.912l0.26,36.811c-2.531-0.267-4.934,0.453-6.334,1.947  c-0.795,0.85-1.642,2.343-1.171,4.625c0.627,3.029,3.07,5.265,6.821,6.493c-0.103,0.397-0.138,0.847-0.088,1.351  c0.058,0.592,0.243,1.324,0.585,1.959c-0.458,0.546-0.907,1.325-0.931,2.286c-0.022,0.926,0.347,1.795,1.098,2.592  c-0.297,0.598-0.555,1.407-0.442,2.303c0.069,0.533,0.293,1.242,0.926,1.926c-0.178,0.529-0.289,1.22-0.098,1.98  c0.194,0.785,0.683,1.46,1.407,2.037c-1.855-0.344-3.159,0.493-3.769,1.582c-0.916,1.634-0.546,3.824,0.827,4.879  c1.118,0.86,2.448,1.134,3.66,1.071c-0.617,1.044-1.268,2.01-1.678,2.33c-0.267,0.207-0.435,0.514-0.464,0.85  c-0.03,0.336,0.082,0.669,0.309,0.92c0.126,0.139,2.769,3.117,1.196,6.211c-0.486-0.399-1.115-0.773-1.865-0.924  c-0.973-0.197-1.958,0.027-2.854,0.642c-1.279,0.877-1.754,2.731-1.155,4.509c0.459,1.361,1.604,2.758,3.559,3.401l-1.701,1.458  c-0.346,0.295-0.495,0.76-0.39,1.202c0.106,0.442,0.45,0.787,0.891,0.894l4.86,1.185c0.372,1.068,1.224,3.13,2.647,4.553  c0.227,0.227,0.659,0.355,0.981,0.355s0.629-0.128,0.857-0.355c1.423-1.423,2.275-3.485,2.647-4.553l4.86-1.185  c0.442-0.107,0.786-0.453,0.891-0.894c0.106-0.443-0.046-0.907-0.39-1.202l-1.701-1.458c1.953-0.645,3.1-2.04,3.559-3.401  c0.599-1.778,0.125-3.633-1.155-4.509c-0.898-0.617-1.888-0.838-2.855-0.642c-0.748,0.151-1.376,0.524-1.863,0.923  c-1.548-3.076,1.073-6.072,1.199-6.212c0.224-0.251,0.335-0.584,0.305-0.918c-0.03-0.334-0.197-0.644-0.462-0.849  c-0.409-0.319-1.059-1.283-1.675-2.325c1.21,0.011,2.534-0.21,3.655-1.076c0.246-0.189,0.42-0.448,0.6-0.7  c0.086,5.317,3.456,7.422,3.602,7.511c0.574,0.342,1.311,0.161,1.656-0.409c0.285-0.465,0.456-0.555,0.453-0.56  c0.426,0.024,1.622,1.283,2.496,2.201c1.426,1.5,3.202,3.368,5.645,4.996c1.791,1.194,3.482,1.664,5.037,1.664  c4.362,0,7.629-3.681,9.023-5.573c2.717,1.705,5.797,3.184,9.308,4.383c0.12,0.041,0.242,0.057,0.362,0.06  c0.419,1.36,0.877,2.729,1.349,4.086c1.516,4.349,3.082,8.847,2.467,12.262c-0.797,4.427-7.798,4.471-11.398,3.865  c-2.56-0.417-4.936,0.238-6.679,1.863c-1.743,1.628-2.641,4.089-2.398,6.585c0.169,1.743,1.043,2.564,1.746,2.944  c1.617,0.869,3.803,0.219,4.991-0.267c2.728,2.376,5.992,1.379,7.965,0.123c1.215,1.014,2.568,1.546,4.034,1.579  c0.049,0.002,0.096,0.002,0.145,0.002c2.215,0,4.078-1.166,5.01-1.879c4.693,1.899,7.377,0.483,7.845,0.193  c3.81-3.214,3.184-8.99,2.687-11.502c7.829-2.371,10.354-9.175,10.462-9.478c0.151-0.424,0.055-0.898-0.249-1.23  c-0.308-0.33-0.776-0.464-1.207-0.349c-2.414,0.648-4.321,0.207-5.228-1.215c-1.229-1.923-0.432-5.069,2.03-8.011  c0.516-0.617,1.006-1.301,1.484-2.013c6.05-1.352,11.219-3.706,16.69-6.201c4.529-2.065,9.213-4.201,14.78-5.946  c1.561-0.49,3.078-0.778,4.572-0.971c-0.453,6.564,2.914,10.888,6.221,15.049c0.913,1.148,1.827,2.295,2.653,3.493  c3.546,5.135,2.865,15.9,2.578,16.872c-0.253,0.552-2.628,2.972-5.996,2.51c-2.798-0.372-5.932,0.549-7.986,2.347  c-1.466,1.283-2.272,2.931-2.272,4.641c0,1.458,0.7,2.182,1.289,2.532c1.754,1.043,4.659-0.073,6.214-0.817  c1.454,1.123,2.947,1.538,4.327,1.538c1.716,0,3.259-0.639,4.341-1.349c3.248,2.052,6.651,0.85,8.547-0.443  c2.376,1.289,4.286,1.035,5.517,0.549c0.4-0.157,0.766-0.356,1.098-0.579c0.049,0.051,0.094,0.119,0.144,0.162  c1.289,1.109,3.674,0.519,5.201-0.035c0.694,1.15,1.614,1.667,2.34,1.899c2.243,0.715,4.819-0.514,6.116-1.283  c1.573,1.216,3.136,1.727,4.696,1.508c1.377-0.191,2.415-0.931,3.084-1.579c0.713,0.513,1.797,1.145,3.261,1.607  c0.645,0.205,1.213,0.289,1.712,0.289c1.688,0,2.57-0.962,2.915-1.466c1.401-2.046,0.67-5.51-0.893-7.465  c-0.923-1.153-1.69-3.311-1.32-5.531c0.197-1.183,0.814-2.836,2.639-3.997c3.291-2.094,5.451-4.928,5.501-7.219  c0.022-0.947-0.338-1.727-1.014-2.201c-0.596-0.418-1.265-0.506-1.914-0.592c-1.442-0.191-3.237-0.428-5.523-4.647  c-2.037-3.761,0.375-11.048,2.931-18.764c1.461-4.416,2.974-8.981,3.92-13.528c2.344-11.254-3.307-20.32-5.353-23.144  c5.69-5.597,8.076-10.969,7.093-15.974c-1.082-5.517-6.225-9.297-10.3-10.857c-4.925-1.887-13.179-0.905-21.16,0.051  c-6.224,0.745-12.108,1.451-15.642,0.702c-1.336-0.279-2.286-0.86-2.822-1.726c-0.934-1.507-0.434-3.488-0.429-3.508  c0.098-0.371,0.013-0.77-0.227-1.068c-0.241-0.298-0.639-0.489-0.992-0.453c-2.322,0.093-4.171,1.387-5.315,2.455  c-0.066-0.325-0.077-0.66-0.03-1.005c0.314-2.328,2.996-4.364,3.023-4.384c0.32-0.241,0.503-0.626,0.483-1.029  c-0.019-0.401-0.235-0.767-0.579-0.976c-4.935-3.005-9.543-0.779-11.901,1.311c-0.997-0.977-1.598-2.469-1.551-3.972  c0.03-0.988,0.379-2.802,2.352-3.851c0.893-0.475,1.66-0.579,2.355-0.323c1.164,0.434,1.937,1.865,2.138,2.381  c0.128,0.33,0.396,0.59,0.73,0.707c0.334,0.121,0.707,0.085,1.011-0.095c2.701-1.576,3.565-4.886,3.84-6.722  c1.589,0.259,2.8,0.932,3.681,2.043c2.469,3.114,1.459,8.599,1.45,8.654c-0.079,0.41,0.06,0.831,0.364,1.115  c0.304,0.284,0.735,0.39,1.139,0.284c5.484-1.469,7.238-5.922,7.509-9.213c4.193,2.611,3.908,8.011,3.892,8.265  c-0.027,0.417,0.163,0.819,0.5,1.062c0.339,0.245,0.778,0.297,1.164,0.142c2.007-0.814,3.117-2.138,3.733-3.36  c3.816,5.006,9.123,6.742,9.377,6.824c0.45,0.137,0.939,0.013,1.259-0.334c0.319-0.347,0.409-0.847,0.229-1.283l-1.185-2.871  c0.964,0.68,1.893,1.395,2.847,2.13c2.53,1.947,5.145,3.96,8.918,5.733c4.242,1.992,7.265,1.546,9.06,0.827  c1.79-0.724,3.209-2.074,3.796-3.613C425.741,210.313,425.999,207.661,424.677,205.602z M422.792,211.247  c-0.257,0.677-1.051,1.666-2.439,2.226c-1.339,0.543-3.668,0.852-7.12-0.771c-3.535-1.661-6.045-3.592-8.471-5.46  c-2.011-1.549-3.912-3.012-6.312-4.304c-0.448-0.243-1.005-0.177-1.387,0.167c-0.38,0.342-0.503,0.888-0.308,1.361l1.442,3.494  c-2.093-1.194-4.955-3.329-6.831-6.758c-0.265-0.486-0.822-0.729-1.363-0.593c-0.536,0.137-0.912,0.62-0.912,1.174  c0,0.022-0.021,1.708-1.398,3.023c-0.417-3.228-2.186-7.564-7.05-9.281c-0.399-0.145-0.835-0.065-1.161,0.196  c-0.327,0.262-0.495,0.674-0.447,1.09c0.03,0.252,0.611,5.652-3.972,7.992c0.123-2.264-0.073-5.921-2.153-8.554  c-1.522-1.925-3.75-2.961-6.62-3.079c-0.311-0.035-0.641,0.104-0.877,0.325c-0.238,0.221-0.375,0.529-0.385,0.854  c0,0.038-0.139,3.286-1.789,5.168c-0.571-0.854-1.478-1.86-2.772-2.347c-1.36-0.513-2.825-0.363-4.354,0.448  c-2.231,1.185-3.557,3.341-3.639,5.914c-0.085,2.724,1.264,5.349,3.439,6.687c0.499,0.301,1.147,0.208,1.541-0.229  c0.159-0.18,3.616-3.96,8.126-2.376c-1.032,1.082-2.291,2.759-2.557,4.709c-0.208,1.508,0.191,2.922,1.182,4.203  c0.232,0.301,0.503,0.45,0.981,0.469c0.382-0.006,0.74-0.196,0.962-0.506c0.016-0.022,1.331-1.827,3.28-2.559  c-0.008,1.032,0.174,2.354,0.913,3.561c0.898,1.464,2.377,2.422,4.398,2.846c3.922,0.819,9.999,0.095,16.427-0.669  c7.694-0.915,15.646-1.865,20.005-0.194c3.497,1.339,7.899,4.517,8.79,9.061c0.857,4.359-1.556,9.238-7.165,14.501  c-0.47,0.44-0.513,1.171-0.099,1.663c0.081,0.096,8.072,9.787,5.529,21.993c-0.918,4.412-2.407,8.912-3.849,13.261  c-2.841,8.585-5.296,15.998-2.759,20.68c2.873,5.305,5.667,5.674,7.336,5.895c0.325,0.043,0.73,0.096,0.8,0.129  c0.24,0.489-0.615,3.054-4.356,5.435c-2.041,1.3-3.332,3.251-3.729,5.645c-0.432,2.6,0.281,5.521,1.817,7.443  c1.172,1.464,1.388,3.702,0.787,4.58c-0.118,0.17-0.476,0.683-1.899,0.238c-2.169-0.686-3.229-1.805-3.232-1.809  c-0.256-0.281-0.625-0.417-1.01-0.396c-0.38,0.035-0.721,0.246-0.921,0.569c-0.01,0.014-0.854,1.324-2.245,1.518  c-1.04,0.14-2.196-0.363-3.447-1.505c-0.423-0.387-1.054-0.421-1.522-0.091c-0.753,0.535-3.248,1.939-4.774,1.462  c-0.219-0.071-0.888-0.286-1.317-1.543c-0.112-0.323-0.355-0.585-0.669-0.719s-0.669-0.133-0.981,0.011  c-1.472,0.669-3.319,1.089-3.676,0.928c0,0-0.058-0.183,0.093-0.701c0.838-2.888,4.248-3.581,6.506-4.038  c0.415-0.084,0.79-0.161,1.104-0.24c0.249-0.061,0.535-0.118,0.839-0.178c2.223-0.442,6.847-1.361,6.266-7.176  c-0.123-1.223-0.088-2.351-0.057-3.442c0.106-3.581,0.205-6.963-5.422-11.015c-2.076-1.496-4.076-2.838-6-4.128  c-4.378-2.939-8.159-5.476-11.622-8.939c-7.148-7.151-15.662-9.246-25.315-6.224c-5.711,1.789-10.464,3.957-15.059,6.053  c-4.622,2.109-9.054,4.075-13.909,5.418c3.832-7.284,5.931-16.942,5.499-21.599c-0.063-0.666-0.671-1.161-1.319-1.095  c-0.666,0.063-1.156,0.653-1.095,1.319c0.495,5.316-2.805,18.371-8.203,24.821c-3.155,3.77-4.024,8.038-2.215,10.871  c1.123,1.756,3.03,2.597,5.43,2.62c-1.313,2.067-4.028,5.184-8.885,6.298c-0.325,0.076-0.606,0.281-0.775,0.57  c-0.169,0.287-0.211,0.633-0.117,0.953c0.021,0.071,2.024,7.086-1.443,10.043c-0.087,0.051-2.183,1.112-6.179-0.716  c-0.453-0.205-0.989-0.115-1.347,0.233c-0.02,0.016-1.983,1.857-4.051,1.731c-1.131-0.025-2.147-0.535-3.106-1.557  c-0.442-0.472-1.175-0.51-1.668-0.095c-0.143,0.125-3.573,2.97-6.119,0.118c-0.374-0.418-0.978-0.524-1.467-0.267  c-0.972,0.508-2.769,1.07-3.532,0.656c-0.101-0.055-0.409-0.221-0.489-1.046c-0.169-1.751,0.445-3.463,1.642-4.58  c1.18-1.101,2.822-1.546,4.627-1.243c6.35,1.06,13.19-0.333,14.181-5.827c0.727-4.042-0.947-8.844-2.564-13.49  c-1.218-3.494-2.477-7.108-2.534-10.036c-0.114-5.982,1.167-11.63,1.18-11.686c0.15-0.652-0.256-1.302-0.909-1.451  c-0.653-0.158-1.302,0.254-1.451,0.907c-0.057,0.241-1.363,5.985-1.243,12.278c0.024,1.238,0.26,2.556,0.568,3.898  c-9.194-3.397-15.332-8.685-18.183-15.772c-3.341-8.307-1.447-17.217,1.191-22.326c3.777-7.309,8.908-11.485,13.032-14.842  c1.938-1.577,3.673-2.996,4.913-4.481c-0.13,2.015-1.845,6.066-3.714,9.311c-0.249,0.432-0.208,0.972,0.104,1.361  c0.311,0.39,0.833,0.547,1.306,0.399c1.041-0.325,2.922-1.242,4.302-1.945l0.388,6.116c0.028,0.453,0.309,0.852,0.726,1.033  c0.418,0.183,0.902,0.115,1.251-0.175c1.633-1.339,3.176-3.127,4.242-4.475l1.205,3.805c0.115,0.366,0.399,0.656,0.763,0.781  c0.366,0.123,0.765,0.069,1.081-0.152c1.726-1.194,3.412-3.108,4.465-4.422l2.3,3.666c0.234,0.372,0.65,0.612,1.085,0.566  c0.437-0.02,0.83-0.276,1.025-0.669l2.683-5.368l2.264,6.154c0.126,0.344,0.401,0.61,0.748,0.729  c0.126,0.044,0.259,0.065,0.39,0.065c0.226,0,0.451-0.063,0.647-0.186l5.932-3.742c3.135,1.742,7.669,2.467,7.874,2.5  c0.366,0.049,0.745-0.058,1.018-0.316c0.273-0.256,0.412-0.625,0.377-0.997l-0.483-5.055l5.252-0.081  c0.604-0.009,1.109-0.464,1.183-1.063c0.074-0.601-0.306-1.163-0.89-1.319c-0.573-0.153-1.888-1.381-3.009-2.64  c0.142-0.01,0.207-0.016,0.275-0.022c3.02,0.23,54.288,4.004,65.53-4.174c6.252-4.546,5.815-8.68,4.998-10.738  c-1.686-4.252-7.822-6.963-13.941-6.184c-2.433,0.311-5.048,0.778-7.76,1.264c-7.673,1.374-16.37,2.933-23.501,1.185  c-2.781-0.682-5.165-1.584-7.269-2.379c-3.561-1.349-6.135-2.324-8.107-1.145c-0.817,0.489-1.41,1.286-1.806,2.452  c-1.265-1.412-2.669-3.99-0.816-7.481c0.245-0.459,0.167-1.024-0.191-1.402c-0.071-0.076-7.101-7.61-3.793-15.88  c2.971-7.427,14.663-11.619,27.801-9.95c11.303,1.429,23.151,10.112,30.99,15.858c4.935,3.616,7.593,5.514,9.391,5.749  c0.36,0.052,0.715-0.073,0.98-0.317c0.264-0.245,0.405-0.596,0.387-0.956c-0.002-0.016-0.076-1.634,0.833-2.532  c0.495-0.491,1.219-0.707,2.22-0.631c1.175,0.077,2.026,0.513,2.529,1.295C423.422,208.129,423.28,209.967,422.792,211.247z   M384.704,328.392c-1.175,0.404-2.493,0.134-3.933-0.811c-0.453-0.297-1.051-0.254-1.458,0.098  c-0.147,0.126-3.608,3.051-6.927,0.375c-0.453-0.364-1.109-0.352-1.554,0.028c-0.36,0.309-3.616,2.933-6.859-0.104  c-0.383-0.356-0.95-0.429-1.404-0.181c-1.649,0.891-3.952,1.619-4.569,1.246c-0.101-0.06-0.106-0.385-0.106-0.45  c0-1.284,0.786-2.242,1.444-2.818c1.53-1.338,3.96-2.048,6.07-1.77c4.589,0.614,7.935-2.535,8.542-3.955  c0.536-1.253,1.421-13.078-2.81-19.204c-0.858-1.243-1.803-2.434-2.751-3.625c-3.217-4.047-6.23-7.892-5.686-13.741  c5.879-0.123,11.204,2.125,15.872,6.795c2.443,2.443,5.092,4.466,7.865,6.413c-1.075,1.104-2.809,3.191-2.94,5.314  c-0.065,1.044,0.267,2,0.954,2.766c1.757,1.951,3.769,1.86,5.099,1.795c0.229-0.013,0.536-0.03,0.76-0.014  c-0.339,0.822-1.595,2.538-2.464,3.723c-2.403,3.278-3.958,5.559-3.693,7.326c0.181,1.205,0.655,3.023,1.114,4.78  c0.437,1.675,1.096,4.207,1.066,4.698C386.275,327.263,385.731,328.035,384.704,328.392z M389.806,311.704  c2.328-3.177,3.512-4.898,2.827-6.268c-0.702-1.407-2.139-1.346-3.19-1.292c-1.128,0.054-2.198,0.101-3.185-0.997  c-0.257-0.286-0.361-0.592-0.338-0.992c0.084-1.384,1.646-3.181,2.545-4.062c0.695,0.472,1.387,0.943,2.097,1.419  c1.903,1.276,3.881,2.604,5.933,4.083c4.583,3.3,4.517,5.559,4.417,8.978c-0.033,1.114-0.071,2.376,0.068,3.755  c0.336,3.365-1.582,4.012-4.327,4.557c-0.347,0.069-0.671,0.134-0.956,0.205c-0.284,0.071-0.623,0.139-0.999,0.216  c-1.751,0.355-4.549,0.953-6.494,2.767c-0.16-0.656-0.356-1.417-0.588-2.305c-0.442-1.697-0.899-3.452-1.062-4.529  C386.418,316.328,388.622,313.321,389.806,311.704z M267.052,289.099c-0.503,0.054-0.961,0.257-1.379,0.618  c-0.716-0.798-1.675-2.352-1.675-4.943c0-3.852-1.09-5.767-1.782-6.602c0.173-0.248,0.34-0.5,0.463-0.774  c0.539-1.196,0.386-2.441-0.456-3.712c0.393-0.822,0.664-1.947,0.326-3.081c0.491-0.833,0.871-2.133,0.48-3.723  c0.303-0.398,0.677-0.988,0.961-1.73c5.568,6.155,12.216,11.42,12.666,11.773c0.314,1.552,0.717,3.106,1.335,4.643  c1.892,4.705,5.097,8.656,9.499,11.868c-2.064,2.803-5.926,6.444-10.705,3.253c-2.218-1.478-3.89-3.237-5.233-4.651  C269.837,290.237,268.581,288.929,267.052,289.099z M256.917,299.776c0.249,0.287,0.609,0.431,1.002,0.41  c0.379-0.028,0.724-0.234,0.929-0.554c0.131-0.202,0.762-0.989,1.464-1.131c0.202-0.044,0.53-0.06,1.007,0.263  c0.317,0.219,0.495,0.945,0.227,1.737c-0.48,1.421-1.991,2.204-4.062,2.112c-0.513-0.043-0.994,0.281-1.185,0.762  s-0.055,1.032,0.338,1.368l1.977,1.694l-3.225,0.786c-0.427,0.104-0.765,0.432-0.882,0.857c-0.005,0.02-0.488,1.738-1.45,3.188  c-0.964-1.45-1.447-3.168-1.451-3.188c-0.117-0.424-0.454-0.753-0.882-0.857l-3.225-0.786l1.975-1.694  c0.393-0.338,0.529-0.887,0.338-1.368c-0.192-0.481-0.708-0.809-1.185-0.762c-2.097,0.098-3.583-0.691-4.061-2.111  c-0.268-0.793-0.09-1.519,0.227-1.738c0.469-0.32,0.794-0.305,0.999-0.265c0.68,0.132,1.295,0.868,1.47,1.133  c0.205,0.32,0.551,0.525,0.929,0.554c0.361,0.016,0.751-0.126,1.002-0.41c3.073-3.512,1.761-7.46,0.246-9.675  c1.16-1.448,2.346-3.767,2.619-4.313c0.208-0.415,0.088-0.898-0.196-1.267c-0.286-0.366-0.833-0.521-1.279-0.431  c-0.688,0.145-2.783,0.584-3.986-0.344c-0.418-0.32-0.511-1.199-0.189-1.772c0.109-0.197,0.451-0.787,1.708-0.309  c1.196,0.461,2.912,0.958,3.985-0.009c0.244-0.219,0.387-0.479,0.489-0.746c0.318,0.048,0.641,0.065,0.964,0.093  c0.104,0.233,0.24,0.459,0.455,0.653c1.077,0.969,2.792,0.47,3.987,0.009c1.262-0.483,1.598,0.112,1.708,0.309  c0.322,0.573,0.227,1.451-0.193,1.773c-1.202,0.931-3.296,0.487-4.138,0.311c-0.456-0.095-0.918,0.084-1.199,0.453  c-0.281,0.368-0.328,0.863-0.122,1.276c0.273,0.546,1.459,2.865,2.619,4.313C255.158,292.316,253.845,296.264,256.917,299.776z   M260.846,265.72c-0.357,0.334-0.477,0.85-0.305,1.308c0.596,1.59-0.156,2.475-0.227,2.554c-0.385,0.383-0.465,0.977-0.199,1.451  c0.499,0.887-0.309,1.997-0.311,2c-0.347,0.456-0.33,1.09,0.043,1.526c0.953,1.112,0.73,1.606,0.623,1.843  c-0.342,0.76-1.079,1.354-2.188,1.762c-1.132,0.417-2.456,0.543-3.745,0.505c-0.048,0.002-0.095-0.005-0.142,0.003  c-1.529-0.061-2.997-0.369-4.017-0.849c-0.544-0.256-1.226-0.677-1.371-1.224c-0.131-0.494,0.21-0.991,0.208-0.991  c0.199-0.265,0.281-0.6,0.227-0.926c-0.055-0.327-0.241-0.617-0.514-0.803c-0.631-0.429-0.682-0.795-0.697-0.915  c-0.077-0.566,0.368-1.24,0.524-1.424c0.223-0.254,0.328-0.589,0.294-0.924c-0.035-0.334-0.208-0.641-0.478-0.842  c-0.369-0.278-0.986-0.819-0.978-1.341c0.008-0.536,0.623-1.085,0.83-1.23c0.322-0.219,0.489-0.601,0.5-0.989  c0.011-0.39-0.196-0.782-0.505-1.019c-0.315-0.242-0.614-1.418-0.474-1.823c1.467,0.282,3.06,0.456,4.803,0.472  c0.09,0,0.18,0.001,0.27,0.001c3.284,0,6.159-0.593,8.503-1.587c0.145,0.182,0.293,0.363,0.442,0.544  C261.986,264.536,260.89,265.676,260.846,265.72z M252.769,261.419c-6.555-0.06-10.896-2.164-11.614-5.632  c-0.213-1.03-0.027-1.841,0.568-2.478c0.74-0.792,2.108-1.256,3.583-1.256c0.317,0,0.639,0.022,0.961,0.066  c0.341,0.046,0.398,0.155,0.418,0.194c0.254,0.477-0.077,1.847-0.533,2.781c-0.29,0.593-0.054,1.309,0.532,1.612  c4.319,2.229,10.57,1.251,12.213,0.505c0.197-0.09,0.795-0.36,0.959-1.016c0.129-0.514-0.043-0.964-0.21-1.399  c-0.298-0.784-0.609-1.593,0.267-2.739c0.467-0.614,1.486-0.33,1.786-0.227c1.445,0.489,2.906,1.997,2.906,3.934  c0,0.902-0.41,1.767-1.219,2.57C261.394,260.309,257.406,261.404,252.769,261.419z M257.223,255.224  c-1.617,0.401-5.392,0.846-8.419-0.237c0.355-1.071,0.655-2.617,0.022-3.81c-0.027-0.051-0.073-0.107-0.106-0.16l-0.27-38.113  c0.301-22.617,10.75-30.879,15.649-33.514c-2.196,6.847-6.53,26.182-6.36,71.634C256.644,252.754,256.9,254.28,257.223,255.224z   M290.255,234.702l-1.271,2.811c-0.585-0.617-1.319-1.612-1.917-3.127c-0.226-0.571-0.839-0.891-1.437-0.726l-4.513,1.194  l1.033-2.526c0.161-0.394,0.104-0.842-0.151-1.183c-0.252-0.342-0.677-0.533-1.09-0.481l-5.479,0.547l2.034-5.525  c2.42,0.707,8.407,2.324,14.555,2.963l-0.896,1.115c-0.323,0.404-0.355,0.965-0.082,1.402c0.274,0.437,0.797,0.653,1.298,0.536  c0.065-0.014,6.57-1.488,10.999-0.857c0.502,0.062,0.992-0.177,1.235-0.618c0.243-0.443,0.185-0.991-0.147-1.372  c-2.586-2.991-9.535-11.34-10.633-14.006c-0.207-0.503-0.726-0.789-1.262-0.743c-0.54,0.065-0.97,0.48-1.055,1.016L290.867,219  c-0.926-0.614-2.158-1.617-3.191-3.102c-0.297-0.426-0.827-0.618-1.327-0.472c-0.499,0.142-0.85,0.585-0.877,1.103  c-0.006,0.118-0.025,0.588,0.003,1.227c-3.119-2.775-8.128-7.837-9.754-12.975c-0.907-2.863-0.836-4.98,0.205-6.126  c0.91-0.999,2.434-1.107,3.232-0.939c0.849,0.181,1.658,0.782,2.163,1.607c0.494,0.808,0.644,1.712,0.42,2.549  c-0.099,0.374-0.016,0.773,0.229,1.074c0.243,0.301,0.623,0.475,1.002,0.448c3.054-0.152,18.413-1.163,20.896-6.193  c0.347-0.704,0.588-1.745,0.076-3.02c1.625-0.928,5.64-2.303,10.839,2.344c0.424,0.38,1.06,0.41,1.526,0.072  c1.197-0.88,2.997-2.996,2.775-5.57c1.811,0.227,4.927,1.144,7.088,4.627c0.199,0.319,0.532,0.527,0.904,0.566  c0.369,0.036,0.74-0.096,1-0.366c0.096-0.099,2.062-2.171,2.874-4.729c1.447,0.338,4.313,1.426,7.116,4.947  c0.21,0.264,0.519,0.428,0.855,0.454c0.118,0.002,1.661,0.094,3.653-0.49c-6.118,4.929-16.061,5.937-16.191,5.949  c-0.446,0.043-0.833,0.326-1.007,0.74c-0.172,0.413-0.103,0.89,0.181,1.235l1.726,2.105c-6.845,0.128-9.86-2.349-9.887-2.373  c-0.443-0.385-1.095-0.394-1.554-0.033c-0.457,0.368-0.587,1.008-0.308,1.524l1.5,2.77c-2.691-0.563-5.16-1.819-7.23-2.874  c-2.608-1.328-4.669-2.373-6.476-1.836c-1.35,0.404-2.335,1.623-2.57,3.184c-0.254,1.699,0.439,3.322,1.808,4.236  c0.697,0.465,1.492,0.692,2.292,0.692c1.129,0,2.27-0.453,3.166-1.327c0.732-0.715,1.172-1.582,1.301-2.474  c2.729,1.382,6.05,2.945,9.846,3.108c0.426,0.052,0.849-0.197,1.079-0.568c0.232-0.369,0.246-0.836,0.038-1.219l-0.792-1.462  c2.289,0.771,5.689,1.388,10.347,0.923c0.445-0.044,0.828-0.328,1-0.742c0.17-0.413,0.099-0.887-0.183-1.232l-1.857-2.262  c3.802-0.634,11.608-2.469,16.533-7.245c-0.81,2.233-2.131,4.533-4.307,5.793c-0.304,0.177-0.514,0.481-0.581,0.827  c-0.065,0.347,0.027,0.708,0.246,0.984c0.041,0.052,3.961,5.168,2.739,18.539c-2.242-1.152-6.552-3.89-8.989-8.833  c-0.259-0.524-0.847-0.784-1.423-0.628c-0.563,0.162-0.929,0.705-0.869,1.289c0.163,1.571,0.293,4.081,0.152,5.848  c-1.309-0.939-3.143-2.472-3.9-4.149c-0.213-0.475-0.705-0.771-1.223-0.707c-0.517,0.05-0.943,0.424-1.062,0.931  c-0.306,1.319-0.715,2.847-1.046,3.884c-1.207-0.756-2.808-1.95-3.474-3.177c-0.257-0.475-0.797-0.724-1.33-0.604  c-0.528,0.117-0.913,0.573-0.945,1.114c-0.079,1.402-0.263,3.565-0.5,5.061c-1.114-0.683-2.68-1.713-3.838-2.761  c-0.314-0.284-0.754-0.39-1.158-0.263c-0.405,0.12-0.718,0.443-0.827,0.854l-0.621,2.362c-1.041-0.604-2.485-1.568-3.428-2.72  c-0.423-0.519-1.188-0.595-1.704-0.17c-0.519,0.423-0.595,1.186-0.17,1.704c1.974,2.412,5.438,4.005,5.585,4.072  c0.327,0.147,0.696,0.142,1.021-0.008c0.323-0.153,0.562-0.442,0.653-0.787l0.532-2.021c1.964,1.462,4.067,2.616,4.177,2.675  c0.304,0.164,0.664,0.189,0.991,0.077c0.327-0.118,0.587-0.369,0.715-0.691c0.355-0.888,0.604-2.71,0.765-4.324  c1.655,1.437,3.512,2.377,3.627,2.434c0.568,0.282,1.253,0.082,1.581-0.461c0.342-0.573,0.749-1.857,1.089-3.075  c1.962,2.21,4.598,3.725,4.745,3.808c0.304,0.172,0.674,0.202,1.008,0.087c0.333-0.12,0.596-0.379,0.723-0.71  c0.366-0.961,0.487-2.48,0.499-3.974c2.307,2.819,4.977,4.614,6.865,5.655c0,0.03-0.014,0.056-0.012,0.086  c0.013,0.213,0.278,4.269,0.972,7.503c-2.033-0.753-5.302-2.287-8.323-5.13c-0.29-0.275-0.7-0.385-1.089-0.301  c-0.391,0.085-0.715,0.358-0.865,0.727l-0.932,2.302l-3.897-2.827c-0.344-0.249-0.797-0.301-1.191-0.131  c-0.393,0.169-0.667,0.532-0.723,0.956l-0.352,2.702c-0.847-0.614-1.863-1.425-2.589-2.24c-0.448-0.503-1.216-0.546-1.71-0.101  c-0.5,0.445-0.546,1.21-0.101,1.71c1.716,1.931,4.597,3.691,4.719,3.764c0.352,0.216,0.786,0.234,1.153,0.057  c0.371-0.177,0.625-0.529,0.678-0.936l0.341-2.624l3.501,2.54c0.3,0.218,0.686,0.282,1.044,0.183c0.36-0.103,0.65-0.364,0.79-0.708  l0.872-2.155c2.242,1.844,4.472,3.052,6.286,3.853c0.009,0.754,0.128,3.963,1.482,6.494c-2.22-0.058-5.698-0.448-8.919-2.059  c-0.544-0.278-1.219-0.096-1.557,0.424l-1.754,2.704l-7.257-4.868c-0.309-0.21-0.699-0.267-1.049-0.145  c-0.353,0.114-0.636,0.385-0.764,0.734l-1.115,3.038c-1.336-1.499-3.251-3.608-3.957-4.173c-0.494-0.398-1.213-0.342-1.645,0.123  c-0.021,0.022-1.715,1.838-3.745,3.248l-1.399-3.756c-0.233-0.625-0.934-0.947-1.559-0.713c-0.628,0.233-0.947,0.932-0.713,1.559  l1.918,5.149c0.123,0.331,0.385,0.592,0.716,0.713c0.33,0.121,0.699,0.095,1.008-0.077c1.898-1.054,3.673-2.627,4.684-3.602  c1.123,1.16,3.012,3.273,4.214,4.652c0.282,0.322,0.711,0.477,1.133,0.394c0.421-0.077,0.77-0.371,0.918-0.773l1.286-3.501  l6.998,4.695c0.202,0.134,0.437,0.205,0.675,0.205c0.081,0,0.163-0.008,0.243-0.025c0.319-0.065,0.596-0.254,0.773-0.527  l1.851-2.854c3.11,1.342,6.222,1.741,8.453,1.835c-0.013,0.288,0.065,0.582,0.262,0.823c0.295,0.361,0.898,1.074,1.626,1.813  l-3.03,0.046c-0.338,0.005-0.658,0.151-0.883,0.404c-0.226,0.251-0.336,0.585-0.304,0.923l0.453,4.742  c-1.672-0.376-4.326-1.104-6.053-2.235c-0.401-0.262-0.91-0.268-1.311-0.013l-5.296,3.341l-2.713-7.378  c-0.167-0.454-0.587-0.765-1.07-0.792c-0.527-0.038-0.935,0.235-1.152,0.669l-2.974,5.946l-2.084-3.322  c-0.216-0.344-0.59-0.557-0.995-0.568c-0.404,0.006-0.787,0.183-1.022,0.514c-0.021,0.03-1.707,2.412-3.641,4.192l-1.382-4.365  c-0.14-0.442-0.519-0.765-0.978-0.833c-0.462-0.062-0.915,0.131-1.177,0.514c-0.019,0.028-1.511,2.197-3.406,4.195l-0.342-5.405  c-0.025-0.41-0.259-0.781-0.62-0.981c-0.36-0.202-0.798-0.205-1.161-0.01c-0.521,0.279-1.484,0.784-2.493,1.283  c1.426-2.959,3.042-7.116,2.123-9.259c-0.274-0.639-0.789-1.063-1.407-1.325c-0.038-0.027-0.064-0.066-0.106-0.088  c-0.057-0.03-0.118-0.033-0.176-0.053c-0.041-0.012-0.069-0.045-0.111-0.055c-0.048-0.012-0.085-0.007-0.132-0.018  c-0.025-0.003-0.049-0.008-0.074-0.01c-1.643-0.342-2.763,0.117-3.41,0.588c-0.661,0.483-1.096,1.125-1.382,1.743  c-0.753-0.727-1.663-1.811-2.25-3.21c-0.186-0.445-0.618-0.737-1.099-0.743C290.892,233.957,290.456,234.263,290.255,234.702z   M281.041,221.182c6.55,3.157,14.598,3.507,16.798,3.547c1.053,1.308,2.079,2.557,2.904,3.538c-2.013,0.008-4.065,0.235-5.697,0.48  l0.287-0.358c0.284-0.353,0.345-0.836,0.162-1.251c-0.183-0.413-0.584-0.691-1.035-0.718c-8.225-0.489-17.284-3.348-17.374-3.378  c-0.003-0.001-0.007,0-0.011-0.001c0,0-0.004-0.003-0.007-0.004c-1.35-0.407-2.136-1.101-2.215-1.951  c-0.062-0.671,0.311-1.216,0.536-1.333C276.699,219.078,279.45,220.411,281.041,221.182z M292.488,221.865  c0.262-0.188,0.454-0.458,0.506-0.779l0.355-2.272c0.726,1.056,1.606,2.226,2.514,3.405  C294.925,222.154,293.772,222.043,292.488,221.865z M290.354,221.523c-0.591-0.109-1.198-0.237-1.814-0.378  c0.054-0.26,0.023-0.537-0.102-0.788c-0.035-0.069-0.066-0.142-0.098-0.218C289.107,220.768,289.816,221.218,290.354,221.523z   M306.334,208.297c-0.55,0.543-1.518,0.954-2.421,0.353c-0.693-0.462-0.844-1.264-0.756-1.86c0.071-0.465,0.339-1.063,0.868-1.221  c0.101-0.03,0.216-0.044,0.342-0.044c0.581,0,1.41,0.305,2.357,0.738l0.002,0.003C307.339,207.238,306.507,208.128,306.334,208.297z   M352.4,226.432c0.347,0.221,0.786,0.248,1.163,0.074c0.374-0.175,0.633-0.53,0.686-0.94c0.202-1.524,0.574-2.459,1.109-2.78  c0.965-0.579,3.303,0.308,6.007,1.331c2.06,0.781,4.625,1.751,7.549,2.467c7.628,1.868,16.594,0.263,24.504-1.153  c2.672-0.478,5.247-0.939,7.64-1.245c5.004-0.637,10.106,1.458,11.382,4.674c0.964,2.428-0.517,5.228-4.171,7.885  c-10.129,7.365-58.63,4.094-63.575,3.741c-1.315-1.253-1.83-3.816-1.983-5.506c0.799,0.255,1.336,0.383,1.405,0.397  c0.082,0.017,0.166,0.025,0.249,0.025c0.347,0,0.683-0.15,0.917-0.418c0.287-0.334,0.372-0.797,0.221-1.21  c-0.755-2.062-1.171-5.872-1.344-7.822c0.32,0.088,0.659,0.056,0.943-0.12c0.315-0.194,0.524-0.522,0.568-0.89  c1.432-12.173-1.066-18.517-2.376-20.895c0.318-0.243,0.616-0.505,0.899-0.778c0.088,5.753,3.424,10.378,4.789,12.031  C346.546,220.819,350.082,224.964,352.4,226.432z"/>
    <path style="fill:#FFD250;"
          d="M230.874,164.048c-0.47-9.76-2.788-25.545-10.194-25.907c-4.174-0.192-6.231,2.377-6.317,2.488  c-0.245,0.317-0.645,0.495-1.035,0.475l-2.83-0.17l0.506,1.876c0.122,0.453-0.031,0.939-0.39,1.242  c-0.172,0.145-4.174,3.62-1.739,8.047c1.855,3.373,7.852,4.969,12.229,6.134c1.955,0.52,3.644,0.97,4.741,1.507  C227.801,160.694,229.513,162.306,230.874,164.048z"/>
    <path style="fill:#464655;"
          d="M220.796,135.721c-4.259-0.208-6.91,1.915-7.907,2.928l-3.926-0.235  c-0.372-0.03-0.765,0.144-1.011,0.445c-0.246,0.301-0.333,0.704-0.232,1.081l0.754,2.797c-1.925,1.964-4.188,6.044-1.721,10.529  c2.354,4.281,8.929,6.031,13.73,7.309c1.833,0.488,3.415,0.909,4.3,1.341c2.838,1.388,5.118,4.545,6.304,7.037  c0.203,0.429,0.634,0.691,1.093,0.691c0.087,0,0.173-0.009,0.262-0.028c0.551-0.121,0.943-0.607,0.95-1.171  C233.404,167.134,233.559,136.343,220.796,135.721z M221.106,158.232c-4.378-1.164-10.374-2.761-12.229-6.134  c-2.436-4.427,1.566-7.902,1.739-8.047c0.358-0.303,0.511-0.789,0.39-1.242l-0.506-1.876l2.83,0.17  c0.39,0.021,0.79-0.158,1.035-0.475c0.085-0.11,2.142-2.68,6.317-2.488c7.407,0.361,9.724,16.146,10.194,25.907  c-1.361-1.742-3.073-3.354-5.028-4.31C224.75,159.202,223.06,158.752,221.106,158.232z"/>
    <path style="fill:#FFD250;"
          d="M433.393,164.048c0.47-9.76,2.788-25.545,10.194-25.907c4.174-0.192,6.231,2.377,6.317,2.488  c0.245,0.317,0.645,0.495,1.035,0.475l2.83-0.17l-0.506,1.876c-0.121,0.453,0.031,0.939,0.39,1.242  c0.172,0.145,4.174,3.62,1.739,8.047c-1.855,3.373-7.852,4.969-12.229,6.134c-1.955,0.52-3.644,0.97-4.741,1.507  C436.466,160.694,434.754,162.306,433.393,164.048z"/>
    <path style="fill:#464655;"
          d="M430.875,168.445c0.006,0.563,0.399,1.049,0.95,1.171c0.088,0.019,0.175,0.028,0.262,0.028  c0.459,0,0.89-0.262,1.093-0.691c1.186-2.492,3.466-5.649,6.304-7.037c0.885-0.432,2.467-0.854,4.3-1.341  c4.801-1.278,11.376-3.027,13.729-7.309c2.467-4.485,0.203-8.565-1.721-10.529l0.754-2.797c0.101-0.377,0.014-0.779-0.232-1.081  c-0.246-0.301-0.639-0.475-1.011-0.445l-3.926,0.235c-0.997-1.013-3.647-3.136-7.907-2.928  C430.708,136.343,430.862,167.134,430.875,168.445z M438.421,159.738c-1.955,0.956-3.666,2.568-5.028,4.31  c0.47-9.76,2.788-25.545,10.194-25.907c4.174-0.192,6.231,2.377,6.317,2.488c0.245,0.317,0.645,0.495,1.035,0.475l2.83-0.17  l-0.506,1.876c-0.121,0.453,0.031,0.939,0.39,1.242c0.172,0.145,4.174,3.62,1.739,8.047c-1.855,3.373-7.852,4.969-12.229,6.134  C441.207,158.752,439.517,159.202,438.421,159.738z"/>
    <path style="fill:#FFD250;"
          d="M433.393,344.483c0.47,9.76,2.788,25.546,10.194,25.907c4.174,0.193,6.231-2.377,6.317-2.488  c0.245-0.317,0.645-0.495,1.035-0.475l2.83,0.17l-0.506-1.876c-0.121-0.453,0.031-0.939,0.39-1.241  c0.172-0.145,4.174-3.621,1.739-8.047c-1.855-3.373-7.852-4.969-12.229-6.133c-1.955-0.521-3.644-0.97-4.741-1.507  C436.466,347.836,434.754,346.224,433.393,344.483z"/>
    <path style="fill:#464655;"
          d="M443.47,372.809c4.259,0.208,6.91-1.915,7.907-2.928l3.926,0.235c0.372,0.03,0.765-0.144,1.011-0.445  c0.246-0.301,0.333-0.704,0.232-1.081l-0.754-2.797c1.925-1.964,4.188-6.044,1.721-10.529c-2.354-4.281-8.929-6.031-13.729-7.309  c-1.833-0.487-3.415-0.909-4.3-1.341c-2.838-1.388-5.118-4.545-6.304-7.037c-0.203-0.429-0.634-0.691-1.093-0.691  c-0.087,0-0.173,0.009-0.262,0.028c-0.551,0.121-0.943,0.607-0.95,1.171C430.862,341.397,430.708,372.188,443.47,372.809z   M443.161,350.299c4.378,1.164,10.374,2.761,12.229,6.133c2.436,4.427-1.566,7.902-1.739,8.047c-0.358,0.303-0.511,0.789-0.39,1.241  l0.506,1.876l-2.83-0.17c-0.39-0.021-0.79,0.158-1.035,0.475c-0.085,0.11-2.142,2.68-6.317,2.488  c-7.407-0.361-9.724-16.146-10.194-25.907c1.361,1.742,3.073,3.354,5.028,4.31C439.517,349.329,441.207,349.778,443.161,350.299z"/>
    <path style="fill:#FFD250;"
          d="M230.874,344.483c-0.47,9.76-2.788,25.546-10.194,25.907c-4.174,0.193-6.231-2.377-6.317-2.488  c-0.245-0.317-0.645-0.495-1.035-0.475l-2.83,0.17l0.506-1.876c0.122-0.453-0.031-0.939-0.39-1.241  c-0.172-0.145-4.174-3.621-1.739-8.047c1.855-3.373,7.852-4.969,12.229-6.133c1.955-0.521,3.644-0.97,4.741-1.507  C227.801,347.836,229.513,346.224,230.874,344.483z"/>
    <path style="fill:#464655;"
          d="M233.392,340.086c-0.006-0.563-0.399-1.049-0.95-1.171c-0.088-0.019-0.175-0.028-0.262-0.028  c-0.459,0-0.89,0.262-1.093,0.691c-1.186,2.492-3.466,5.649-6.304,7.037c-0.885,0.432-2.467,0.854-4.3,1.341  c-4.801,1.278-11.376,3.027-13.73,7.309c-2.467,4.485-0.203,8.565,1.721,10.529l-0.754,2.797c-0.101,0.377-0.014,0.779,0.232,1.081  c0.246,0.301,0.639,0.475,1.011,0.445l3.926-0.235c0.997,1.013,3.647,3.136,7.907,2.928  C233.559,372.188,233.404,341.397,233.392,340.086z M225.846,348.792c1.955-0.956,3.666-2.568,5.028-4.31  c-0.47,9.76-2.788,25.546-10.194,25.907c-4.174,0.193-6.231-2.377-6.317-2.488c-0.245-0.317-0.645-0.495-1.035-0.475l-2.83,0.17  l0.506-1.876c0.122-0.453-0.031-0.939-0.39-1.241c-0.172-0.145-4.174-3.621-1.739-8.047c1.855-3.373,7.852-4.969,12.229-6.133  C223.06,349.778,224.75,349.329,225.846,348.792z"/>
    <g>
</g>
    <g>
</g>
    <g>
</g>
    <g>
</g>
    <g>
</g>
    <g>
</g>
    <g>
</g>
    <g>
</g>
    <g>
</g>
    <g>
</g>
    <g>
</g>
    <g>
</g>
    <g>
</g>
    <g>
</g>
    <g>
</g>
</svg>
