<svg xmlns="http://www.w3.org/2000/svg" xmlns:xlink="http://www.w3.org/1999/xlink" id="Layer_1" x="0" y="0" enable-background="new 0 0 512 512" version="1.1" viewBox="0 0 512 512" xml:space="preserve"><path fill="#F5F5F5" d="M400,0H112C50.144,0,0,50.144,0,112v130.526h17.655V256H512V112C512,50.144,461.856,0,400,0z"/><path fill="#FF4B55" d="M17.655,242.526H0V256v13.474V400c0,61.856,50.144,112,112,112h288c61.856,0,112-50.144,112-112V256 H17.655V242.526z"/><path fill="#41479B" d="M256,0H112C50.144,0,0,50.144,0,112v144h256V0z"/><path fill="#F5F5F5" d="M133.19,70.533l12.845,38.515l40.599,0.315c5.256,0.041,7.436,6.749,3.207,9.871l-32.661,24.118 l12.247,38.709c1.585,5.012-4.121,9.157-8.397,6.101L128,164.554l-33.031,23.609c-4.276,3.057-9.982-1.089-8.397-6.101 l12.247-38.709l-32.66-24.118c-4.229-3.123-2.049-9.831,3.207-9.871l40.599-0.315l12.845-38.515 C124.473,65.547,131.527,65.547,133.19,70.533z"/></svg>