<?xml version="1.0" encoding="iso-8859-1"?>
<!-- Generator: Adobe Illustrator 19.0.0, SVG Export Plug-In . SVG Version: 6.00 Build 0)  -->
<svg xmlns:xlink="http://www.w3.org/1999/xlink" xmlns="http://www.w3.org/2000/svg" version="1.1" id="Layer_1" x="0px"
     y="0px" viewBox="0 0 512 512" style="enable-background:new 0 0 512 512;" xml:space="preserve">
<path style="fill:#41479B;"
      d="M400,0H112C50.144,0,0,50.144,0,112v288c0,61.856,50.144,112,112,112h288  c61.856,0,112-50.144,112-112V112C512,50.144,461.856,0,400,0z"/>
    <path style="fill:#FFE15A;"
          d="M400,0H112c-2.001,0-3.99,0.055-5.965,0.159l331.188,505.498c1.398-0.492,2.784-1.007,4.156-1.553  V7.896C428.578,2.803,414.617,0,400,0z"/>
    <g>
	<path style="fill:#F5F5F5;"
          d="M211.686,196.751l7.321,21.951l23.139,0.179c1.793,0.014,2.536,2.302,1.094,3.367l-18.614,13.746   l6.98,22.062c0.541,1.709-1.405,3.123-2.864,2.081l-18.825-13.456l-18.825,13.456c-1.458,1.043-3.404-0.371-2.864-2.081   l6.98-22.062l-18.614-13.746c-1.442-1.065-0.699-3.353,1.094-3.367l23.139-0.179l7.321-21.951   C208.713,195.051,211.118,195.051,211.686,196.751z"/>
        <path style="fill:#F5F5F5;"
              d="M169.686,135.469l7.321,21.951l23.139,0.179c1.793,0.014,2.536,2.302,1.094,3.367l-18.614,13.746   l6.98,22.062c0.541,1.709-1.405,3.123-2.864,2.081l-18.825-13.456l-18.825,13.456c-1.458,1.042-3.404-0.372-2.864-2.081   l6.98-22.062l-18.614-13.746c-1.442-1.065-0.699-3.353,1.094-3.367l23.139-0.179l7.321-21.951   C166.713,133.769,169.118,133.769,169.686,135.469z"/>
        <path style="fill:#F5F5F5;"
              d="M132.686,73.245l7.321,21.951l23.139,0.179c1.793,0.014,2.536,2.302,1.094,3.367l-18.614,13.746   l6.98,22.062c0.541,1.709-1.405,3.123-2.864,2.081l-18.825-13.456L112.09,136.63c-1.458,1.042-3.405-0.371-2.864-2.081l6.98-22.062   L97.592,98.742c-1.442-1.065-0.699-3.353,1.094-3.367l23.139-0.179l7.321-21.951C129.713,71.544,132.118,71.544,132.686,73.245z"/>
        <path style="fill:#F5F5F5;"
              d="M89.854,11.963l7.321,21.951l23.139,0.179c1.793,0.014,2.536,2.302,1.094,3.367l-18.614,13.746   l6.98,22.062c0.541,1.709-1.405,3.123-2.864,2.081L88.084,61.892L69.259,75.348c-1.458,1.042-3.405-0.371-2.864-2.081l6.98-22.062   L54.761,37.46c-1.442-1.065-0.699-3.353,1.094-3.367l23.139-0.179l7.321-21.951C86.882,10.262,89.287,10.262,89.854,11.963z"/>
        <path style="fill:#F5F5F5;"
              d="M369.295,436.259l7.321,21.951l23.139,0.179c1.793,0.014,2.536,2.302,1.094,3.367l-18.614,13.746   l6.98,22.062c0.541,1.709-1.405,3.123-2.864,2.081l-18.825-13.456L348.7,499.644c-1.458,1.042-3.405-0.372-2.864-2.081l6.98-22.062   l-18.614-13.746c-1.442-1.065-0.699-3.353,1.094-3.367l23.139-0.179l7.321-21.951C366.322,434.558,368.728,434.558,369.295,436.259   z"/>
        <path style="fill:#F5F5F5;"
              d="M331.854,376.863l7.321,21.951l23.139,0.179c1.793,0.014,2.536,2.302,1.094,3.367l-18.614,13.746   l6.98,22.062c0.541,1.709-1.405,3.123-2.864,2.081l-18.825-13.456l-18.825,13.456c-1.458,1.042-3.404-0.371-2.864-2.081   l6.98-22.062l-18.614-13.746c-1.442-1.065-0.699-3.353,1.094-3.367l23.139-0.179l7.321-21.951   C328.882,375.162,331.287,375.162,331.854,376.863z"/>
        <path style="fill:#F5F5F5;"
              d="M290.854,316.523l7.321,21.951l23.139,0.179c1.793,0.014,2.536,2.302,1.094,3.366l-18.614,13.746   l6.98,22.062c0.541,1.709-1.405,3.123-2.864,2.081l-18.825-13.456l-18.825,13.456c-1.458,1.042-3.404-0.372-2.864-2.081   l6.98-22.062l-18.614-13.746c-1.442-1.065-0.699-3.353,1.094-3.366l23.139-0.179l7.321-21.951   C287.882,314.823,290.287,314.823,290.854,316.523z"/>
        <path style="fill:#F5F5F5;"
              d="M248.854,257.127l7.321,21.951l23.139,0.179c1.793,0.014,2.536,2.302,1.094,3.366l-18.614,13.746   l6.98,22.062c0.541,1.709-1.405,3.123-2.864,2.081l-18.825-13.456l-18.825,13.456c-1.458,1.042-3.404-0.371-2.864-2.081   l6.98-22.062l-18.614-13.746c-1.442-1.065-0.699-3.353,1.094-3.366l23.139-0.179l7.321-21.951   C245.882,255.426,248.287,255.426,248.854,257.127z"/>
</g>
    <g>
</g>
    <g>
</g>
    <g>
</g>
    <g>
</g>
    <g>
</g>
    <g>
</g>
    <g>
</g>
    <g>
</g>
    <g>
</g>
    <g>
</g>
    <g>
</g>
    <g>
</g>
    <g>
</g>
    <g>
</g>
    <g>
</g>
</svg>
