<svg xmlns="http://www.w3.org/2000/svg" xmlns:xlink="http://www.w3.org/1999/xlink" id="Layer_1" x="0" y="0" enable-background="new 0 0 512 512" version="1.1" viewBox="0 0 512 512" xml:space="preserve"><path fill="#73AF00" d="M0,400c0,61.856,50.144,112,112,112h288c61.856,0,112-50.144,112-112v-22.737H0V400z"/><path fill="#FF4B55" d="M400,0H112C50.144,0,0,50.144,0,112v265.263h512V112C512,50.144,461.856,0,400,0z"/><path fill="#F5F5F5" d="M0,112v288c0,60.445,47.886,109.698,107.789,111.913V0.087C47.886,2.302,0,51.555,0,112z"/><g><path fill="#FF4B55" d="M65.837,377.844h-2.418v-6.679h-7.138v6.679h-4.767v-6.679h-7.113v6.679H42.03v6.677h-2.396v9.001 h2.396v6.677h2.371v6.677h7.113v-6.677h4.767v6.677h7.138v-6.677h2.418v-6.677h2.324v-9.001h-2.324V377.844z M51.514,391.295 h-2.346v4.452h-2.421v-4.452h-2.346v-4.549h2.346v-4.45h2.421v4.45h2.346V391.295z M63.419,391.295h-2.346v4.452h-2.396v-4.452 h-2.396v-4.549h2.396v-4.45h2.396v4.45h2.346V391.295z"/><path fill="#FF4B55" d="M80.016,134.156h2.346v6.679h7.162v-6.679h2.371v-6.677h2.346v-8.904h-2.346v-6.773h-2.371v-6.677 h-7.162v6.677h-2.346v6.773H77.62v8.904h2.395L80.016,134.156L80.016,134.156z M82.362,120.705h2.371v-4.355h2.396v4.355h2.396 v4.549h-2.396v4.45h-2.396v-4.45h-2.371V120.705z"/><rect width="4.767" height="13.356" x="51.51" y="87.32" fill="#FF4B55"/><path fill="#FF4B55" d="M27.755,377.844h-2.396v-6.679h-7.113v6.679h-2.371v6.677h-2.393v9.001h2.393v6.677h2.371v6.677 h7.113v-6.677h2.396v-6.677h2.324v-9.001h-2.324C27.755,384.521,27.755,377.844,27.755,377.844z M25.359,391.295h-2.321v4.452 h-2.396v-4.452h-2.396v-4.549h2.396v-4.45h2.396v4.45h2.321C25.359,386.746,25.359,391.295,25.359,391.295z"/><rect width="4.767" height="13.356" x="51.51" y="411.42" fill="#FF4B55"/><rect width="4.744" height="13.356" x="89.57" y="476.27" fill="#FF4B55"/><rect width="4.717" height="11.129" x="32.522" y="442.69" fill="#FF4B55"/><path fill="#FF4B55" d="M42.03,476.266h4.717V465.04h4.767v-11.226h4.767v11.226h4.791v11.226h4.764v11.129h4.742v11.132 h4.744v-11.132h4.742v-11.129h4.765V465.04h4.766v-11.226h4.72v-11.129h-4.744v-11.228H84.83v-11.129h-4.765v-11.226h-4.742 v-11.129h-4.744v11.129H65.79v11.226h-4.717v11.129h-4.791v11.228h-4.767v-11.228h-4.767v-11.129H42.03v-11.226h-4.792v-11.129 h-4.717v11.129h-4.767v11.226h-4.717v11.129h-4.792v11.228h-4.764v10.632c0.09,0.167,0.184,0.331,0.276,0.497h4.489v7.466 c0.832,1.27,1.685,2.526,2.567,3.759h2.225v2.998c5.507,7.19,11.865,13.691,18.924,19.357h0.068V476.266z M61.072,442.686h4.764 v-11.228h4.742v-11.129h4.744v11.129h4.742v11.228h4.765v11.129h-4.765v11.226h-4.742v11.226h-4.744V465.04h-4.742v-11.226h-4.764 V442.686z M37.239,476.266h-4.717V465.04h-4.767v-11.226h-4.717v-11.129h4.717v-11.228h4.767v-11.129h4.717v11.129h4.792v11.228 h4.717v11.129H42.03v11.226h-4.792L37.239,476.266L37.239,476.266z"/><rect width="4.767" height="13.356" x="51.51" y="22.475" fill="#FF4B55"/><rect width="4.767" height="13.356" x="51.51" y="476.27" fill="#FF4B55"/><rect width="4.764" height="13.356" x="13.482" y="87.32" fill="#FF4B55"/><path fill="#FF4B55" d="M42.03,134.253h2.371v6.679h7.113v-6.679h4.767v6.679h7.138v-6.679h2.418v-6.774h2.324v-8.904 h-2.324v-6.773h-2.418v-6.58h-7.138v6.58h-4.767v-6.58h-7.113v6.58H42.03v6.773h-2.396v8.904h2.396V134.253z M56.281,120.802h2.396 v-4.452h2.396v4.452h2.346v4.452h-2.346v4.549h-2.396v-4.549h-2.396V120.802z M44.401,120.802h2.346v-4.452h2.421v4.452h2.346 v4.452h-2.346v4.549h-2.421v-4.549h-2.346V120.802z"/><rect width="4.764" height="8.902" x="13.482" y="201.32" fill="#FF4B55"/><rect width="4.744" height="13.356" x="89.57" y="22.475" fill="#FF4B55"/><rect width="4.764" height="13.45" x="13.482" y="145.38" fill="#FF4B55"/><polygon fill="#FF4B55" points="18.246 256.097 18.246 256 18.246 249.323 13.482 249.323 13.482 256 13.482 256.097 13.482 262.774 18.246 262.774"/><rect width="4.767" height="13.45" x="51.51" y="145.38" fill="#FF4B55"/><rect width="4.764" height="13.354" x="13.482" y="353.26" fill="#FF4B55"/><path fill="#FF4B55" d="M15.875,134.253h2.371v6.679h7.113v-6.679h2.396v-6.774h2.324v-8.904h-2.324v-6.773h-2.396v-6.58 h-7.113v6.58h-2.371v6.773h-2.393v8.904h2.393C15.875,127.479,15.875,134.253,15.875,134.253z M18.246,120.802h2.349v-4.452h2.443 v4.452h2.321v4.452h-2.321v4.549h-2.443v-4.549h-2.349C18.246,125.254,18.246,120.802,18.246,120.802z"/><rect width="4.764" height="13.356" x="13.482" y="411.42" fill="#FF4B55"/><rect width="4.764" height="8.902" x="13.482" y="301.87" fill="#FF4B55"/><rect width="4.744" height="11.129" x="70.58" y="442.69" fill="#FF4B55"/><rect width="4.767" height="11.129" x="51.51" y="268.39" fill="#FF4B55"/><polygon fill="#FF4B55" points="63.419 256 63.419 256.097 63.419 262.774 68.161 262.774 68.161 256.097 68.161 256 68.161 249.323 63.419 249.323"/><rect width="4.767" height="11.129" x="51.51" y="232.58" fill="#FF4B55"/><polygon fill="#FF4B55" points="44.401 256.097 44.401 256 44.401 249.323 39.635 249.323 39.635 256 39.635 256.097 39.635 262.774 44.401 262.774"/><polygon fill="#FF4B55" points="58.677 245.936 56.281 245.936 56.281 249.323 51.514 249.323 51.514 245.936 49.168 245.936 49.168 241.484 44.401 241.484 44.401 248.161 46.747 248.161 46.747 251.548 49.168 251.548 49.168 256 49.168 256.097 49.168 260.452 46.747 260.452 46.747 263.839 44.401 263.839 44.401 270.516 49.168 270.516 49.168 266.066 51.514 266.066 51.514 262.774 56.281 262.774 56.281 266.066 58.677 266.066 58.677 270.516 63.419 270.516 63.419 263.839 61.072 263.839 61.072 260.452 58.677 260.452 58.677 256.097 58.677 256 58.677 251.548 61.072 251.548 61.072 248.161 63.419 248.161 63.419 241.484 58.677 241.484"/><rect width="4.744" height="13.356" x="89.57" y="87.32" fill="#FF4B55"/><rect width="4.744" height="13.45" x="89.57" y="145.38" fill="#FF4B55"/><path fill="#FF4B55" d="M89.571,165.514H84.83v-11.228h-4.765v-11.129h-4.742v-11.226h-4.744v11.226H65.79v11.129h-4.717 v11.228h-4.791v8.902v2.227h-4.767v-11.129h-4.767v-11.228H42.03v-11.129h-4.792v-11.226h-4.717v11.226h-4.767v11.129h-4.767 v11.228h-4.742v8.902v2.227h-4.764v11.226h4.764v11.226h4.742v11.129h4.767v11.132h4.767v-11.132h4.717v-11.129h4.792v-11.226 h-4.792v-13.453h4.792v2.227v6.773h4.717v17.905h2.421v11.032l-7.138,0.097v8.904h-4.792v6.677h-4.717v11.226h-4.767v-11.226 h-4.767v-6.677h-4.742v-6.679h-4.764v20.13h4.764v9.001h4.742v7.742h4.767V256v0.097v4.355h-4.767v7.935h-4.742v8.904h-4.764v20.13 h4.764v-6.776h4.742v-6.677h4.767V272.84h4.767v11.129h4.717v6.677h4.792v9.001l7.138,0.097v11.032h-2.421v17.905H42.03v6.677 v2.324h-4.792v-13.549h4.792v-11.129h-4.792v-11.129h-4.717v-11.228h-4.767v11.228h-4.767v11.129h-4.742v11.129h-4.764v11.226 h4.764v2.324v8.805h4.792v11.228h4.717v11.226h4.767v11.129h4.717V368.94h4.792v-11.226h4.717v-11.228h4.767v-11.129h4.767v2.324 v8.805h4.791v11.228h4.764v11.226h4.742v11.129h4.744V368.94h4.742v-11.226h4.765v-11.228h4.742v-11.129h4.744v-11.226h-4.744 v-11.129H84.83v-11.129h-4.765v-11.228h-4.742v11.228h-4.744v11.129H65.79v11.129h4.789v11.226v2.324H65.79v-2.324v-6.677h-4.717 v-17.905h-0.679h-1.717v-11.129h1.717h1.283h1.742h2.418v-9.001h4.742v-6.677h4.744V272.84h4.742v11.129h4.765v6.677h4.766v6.776 h4.72v-20.13h-4.72v-8.904H84.83v-7.935h-4.765v-4.355V256v-4.452h4.765v-7.742h4.766v-9.001h4.72v-20.13h-4.72v6.679H84.83v6.677 h-4.765v11.226h-4.742v-11.226h-4.744v-6.677h-4.742v-8.904h-2.418h-1.742h-1.283h-1.717v-11.129h1.717h0.679v-17.905h4.717v-6.773 v-2.227h4.789v2.227v11.226H65.79v11.226h4.789v11.129h4.744v11.132h4.742v-11.132h4.765v-11.129h4.742v-11.226h4.744v-11.226 h-4.744L89.571,165.514L89.571,165.514z M65.837,234.805v4.452v4.549h4.742v7.742h4.744V256v4.452h-4.744v7.935h-4.742v4.452v4.452 h-7.16v10.549h-2.396v5.032H53.91h-2.396v-5.032h-2.346v-10.549H42.03v-8.904h-4.792v-7.935h-4.717v-4.259v-0.29v-4.355h4.717 v-7.742h4.792v-9.001h7.138v-10.547h2.346v-5.131h2.396h2.371v5.032h2.396v10.646H65.837z"/><rect width="4.744" height="8.902" x="89.57" y="201.32" fill="#FF4B55"/><path fill="#FF4B55" d="M18.246,69.414v11.129h4.792v11.226h4.717v11.226h4.767v11.129h4.717v-11.129h4.792V91.768h4.717 V80.543h4.767V69.414h4.767v11.129h4.791v11.226h4.717v11.226h4.789v11.129h4.744v-11.129h4.742V91.768h4.765V80.543h4.742V69.414 h4.744V58.185h-4.72V47.056H84.83V35.831h-4.765V24.702h-4.742V13.474h-4.744v11.228h-4.742v11.129h-4.764v11.226h-4.791v11.129 h-4.767v-11.13h-4.767V35.831H42.03V24.702h-0.188c-7.012,5.642-13.329,12.111-18.805,19.26v3.095h-2.295 c-0.857,1.202-1.686,2.426-2.496,3.663v7.466h-4.489c-0.091,0.166-0.185,0.33-0.276,0.497v10.731H18.246z M61.072,58.185h4.764 V47.056h4.742V35.831h4.744v11.226h4.742v11.129h4.765v11.228h-4.765v11.129h-4.742v11.226h-4.744V80.543h-4.742V69.414h-4.764 V58.185z M23.038,58.185h4.717V47.056h4.767V35.831h4.717v11.226h4.792v11.129h4.717v11.228H42.03v11.129h-4.792v11.226h-4.717 V80.543h-4.767V69.414h-4.717V58.185H23.038z"/><path fill="#FF4B55" d="M91.895,393.522h2.346v-8.904h-2.346v-6.773h-2.371v-6.583h-7.162v6.583h-2.346v6.773H77.62v8.904 h2.395v6.677h2.346v6.677h7.162v-6.677h2.371L91.895,393.522L91.895,393.522z M89.524,391.295h-2.396v4.549h-2.396v-4.549h-2.371 v-4.45h2.371v-4.452h2.396v4.452h2.396V391.295z"/><polygon fill="#FF4B55" points="89.571 256 89.571 256.097 89.571 262.774 94.316 262.774 94.316 256.097 94.316 256 94.316 249.323 89.571 249.323"/><rect width="4.717" height="11.228" x="32.522" y="58.19" fill="#FF4B55"/><rect width="4.767" height="13.354" x="51.51" y="353.26" fill="#FF4B55"/><rect width="4.744" height="13.354" x="89.57" y="353.26" fill="#FF4B55"/><rect width="4.744" height="13.356" x="89.57" y="411.42" fill="#FF4B55"/><rect width="4.744" height="8.902" x="89.57" y="301.87" fill="#FF4B55"/><rect width="4.744" height="11.228" x="70.58" y="58.19" fill="#FF4B55"/></g></svg>