<svg xmlns="http://www.w3.org/2000/svg" xmlns:xlink="http://www.w3.org/1999/xlink" id="Layer_1" x="0" y="0" enable-background="new 0 0 512 512" version="1.1" viewBox="0 0 512 512" xml:space="preserve"><path fill="#F5F5F5" d="M112,0C50.144,0,0,50.144,0,112v288c0,61.856,50.144,112,112,112h97.368V0H112z"/><path fill="#FF4B55" d="M400,0H112c-3.084,0-6.138,0.13-9.159,0.375L209.368,32L101.579,64l107.789,32l-107.789,32 l107.789,32l-107.789,32l107.789,32l-107.789,32l107.789,32l-107.789,32l107.789,32l-107.789,32l107.789,32l-107.789,32l107.789,32 l-106.527,31.625C105.862,511.87,108.916,512,112,512h288c61.856,0,112-50.144,112-112V112C512,50.144,461.856,0,400,0z"/></svg>