<?xml version="1.0" encoding="iso-8859-1"?>
<!-- Generator: Adobe Illustrator 19.0.0, SVG Export Plug-In . SVG Version: 6.00 Build 0)  -->
<svg xmlns:xlink="http://www.w3.org/1999/xlink" xmlns="http://www.w3.org/2000/svg" version="1.1" id="Layer_1" x="0px"
     y="0px" viewBox="0 0 512 512" style="enable-background:new 0 0 512 512;" xml:space="preserve">
<path style="fill:#FF4B55;"
      d="M400,0H112C50.144,0,0,50.144,0,112v288c0,61.856,50.144,112,112,112h288  c61.856,0,112-50.144,112-112V112C512,50.144,461.856,0,400,0z"/>
    <path style="fill:#FFE15A;"
          d="M345.999,247.632L38.461,27.527C14.896,48.06,0,78.289,0,112v288c0,33.716,14.9,63.949,38.471,84.482  c90.193-64.516,307.719-220.129,307.528-220.113C351.138,260.691,351.138,251.309,345.999,247.632z"/>
    <path style="fill:#464655;"
          d="M235.601,246.731L32.056,33.57C12.231,53.775,0,81.457,0,112v288  c0,30.543,12.231,58.225,32.056,78.43l203.545-213.161C240.197,260.463,240.197,251.537,235.601,246.731z"/>
    <path style="fill:#F5F5F5;"
          d="M68.134,183.534l1.284,48.494l-45.467,16.914c-4.36,1.622-4.146,7.86,0.314,9.18l46.517,13.764  l2.036,48.468c0.195,4.648,6.194,6.373,8.828,2.538l27.465-39.987l46.725,13.042c4.481,1.251,7.975-3.922,5.142-7.612  l-29.543-38.478l26.842-40.408c2.574-3.875-1.266-8.796-5.65-7.242l-45.724,16.207l-30.136-38.015  C73.878,176.753,68.011,178.884,68.134,183.534z"/>
    <g>
</g>
    <g>
</g>
    <g>
</g>
    <g>
</g>
    <g>
</g>
    <g>
</g>
    <g>
</g>
    <g>
</g>
    <g>
</g>
    <g>
</g>
    <g>
</g>
    <g>
</g>
    <g>
</g>
    <g>
</g>
    <g>
</g>
</svg>
