<svg xmlns="http://www.w3.org/2000/svg" xmlns:xlink="http://www.w3.org/1999/xlink" id="Layer_1" x="0" y="0" enable-background="new 0 0 512 512" version="1.1" viewBox="0 0 512 512" xml:space="preserve"><path fill="#73AF00" d="M0,400c0,61.856,50.144,112,112,112h288c61.856,0,112-50.144,112-112v-58.667H0V400z"/><path fill="#82AFFF" d="M400,0H112C50.144,0,0,50.144,0,112v58.667h512V112C512,50.144,461.856,0,400,0z"/><rect width="512" height="170.67" y="170.67" fill="#FF4B55"/><g><path fill="#F5F5F5" d="M274.43,311.874c-30.237,0-54.765-24.528-54.765-54.793c0-30.209,24.528-54.792,54.765-54.792 c11.25,0,21.625,3.46,30.27,9.316c1.324,0.897,2.835-0.843,1.727-1.996c-12.921-13.434-31.209-21.63-51.486-20.938 c-34.836,1.189-63.675,29.119-65.901,63.904c-2.55,39.844,28.999,72.956,68.279,72.956c19.349,0,36.738-8.089,49.156-21.023 c1.097-1.143-0.417-2.856-1.729-1.967C296.092,308.41,285.7,311.874,274.43,311.874z"/><path fill="#F5F5F5" d="M322.375,223.354l5.682,15.977l15.315-7.28c1.154-0.548,2.357,0.655,1.809,1.809l-7.28,15.315 l15.977,5.682c1.203,0.428,1.203,2.13,0,2.558l-15.977,5.682l7.28,15.315c0.548,1.154-0.655,2.357-1.809,1.809l-15.315-7.28 l-5.682,15.977c-0.428,1.203-2.13,1.203-2.558,0l-5.682-15.977l-15.315,7.28c-1.154,0.548-2.357-0.655-1.809-1.809l7.28-15.315 l-15.977-5.682c-1.203-0.428-1.203-2.13,0-2.558l15.977-5.682l-7.28-15.315c-0.548-1.154,0.655-2.357,1.809-1.809l15.315,7.28 l5.682-15.977C320.245,222.15,321.947,222.15,322.375,223.354z"/></g></svg>