<svg xmlns="http://www.w3.org/2000/svg" xmlns:xlink="http://www.w3.org/1999/xlink" id="Layer_1" x="0" y="0" enable-background="new 0 0 512 512" version="1.1" viewBox="0 0 512 512" xml:space="preserve"><path fill="#FFE15A" d="M400,0H112C50.144,0,0,50.144,0,112v288c0,61.856,50.144,112,112,112h288 c61.856,0,112-50.144,112-112V112C512,50.144,461.856,0,400,0z"/><path fill="#41479B" d="M97.672,112.951v286.096c0,28.926,23.449,52.375,52.375,52.375h349.471 C507.492,436.022,512,418.538,512,400V112c0-18.539-4.509-36.023-12.482-51.423H150.047 C121.121,60.577,97.672,84.026,97.672,112.951z"/><g><polygon fill="#FF4B55" points="304.836 255.352 304.836 60.577 408.419 60.578"/><path fill="#FF4B55" d="M304.836,256.647L512,159.26V112c0-14.983-2.949-29.274-8.287-42.336L304.836,256.647z"/><polygon fill="#FF4B55" points="304.836 256.647 512 256.647 512 354.035"/><polygon fill="#FF4B55" points="304.836 256.647 97.674 159.261 97.674 256.648"/><path fill="#FF4B55" d="M201.256,60.578l-51.233-0.001c-14.212,0.006-27.093,5.682-36.526,14.878l191.339,179.897 L201.256,60.578z"/><path fill="#FF4B55" d="M97.674,354.036v45.076c0.018,14.678,6.081,27.934,15.825,37.433l191.338-179.898L97.674,354.036z"/></g><path fill="#FFE15A" d="M348.55,274.434c0.659-1.866,1.235-3.768,1.653-5.735l50.408,4.471l-49.587-10.023 c0.121-1.366,0.209-2.741,0.209-4.138c0-1.345-0.089-2.668-0.201-3.984l49.182-10.358l-49.963,4.84 c-0.438-2.101-1.059-4.129-1.771-6.115l44.646-23.341l-46.837,18.206c-1.193-2.378-2.584-4.632-4.152-6.754l37.02-34.134 l-40.598,29.841c-4.305-4.563-9.5-8.27-15.342-10.793l14.745-47.981l-19.988,46.098c-4.167-1.228-8.566-1.915-13.131-1.915 c-4.601,0-9.037,0.693-13.233,1.941l-19.999-46.124l14.759,48.029c-5.822,2.531-10.999,6.236-15.288,10.796l-40.666-29.891 l37.087,34.196c-1.558,2.116-2.939,4.361-4.124,6.73l-46.932-18.243l44.741,23.391c-0.704,1.974-1.321,3.988-1.755,6.075 l-50.073-4.851l49.293,10.382c-0.111,1.308-0.2,2.623-0.2,3.96c0,1.389,0.088,2.757,0.207,4.115l-49.698,10.046l50.518-4.48 c0.415,1.953,0.985,3.843,1.637,5.696l-44.552,22.766l46.705-17.655c7.571,15.331,23.318,25.902,41.573,25.902 c18.241,0,33.977-10.554,41.556-25.866l46.609,17.619L348.55,274.434z"/><path fill="#F5F5F5" d="M300.101,260.796L113.484,436.532c9.439,9.208,22.334,14.89,36.563,14.89h349.471 c0.613-1.184,1.198-2.385,1.77-3.593c0.17-0.359,0.335-0.72,0.501-1.081c0.427-0.928,0.841-1.864,1.244-2.806 c0.098-0.229,0.198-0.457,0.294-0.686l-193.755-182.46C306.644,258.039,303.028,258.039,300.101,260.796z"/><g><circle cx="307.54" cy="359.1" r="1.568" fill="#FF4B55"/><path fill="#FF4B55" d="M305.145,306.587c4.703,5.814-2.907,8.721-1.967,14.279c0,0-1.539-2.309-0.941-5.558 c0.599-3.249-1.454-4.275-1.454-4.275s0.941,3.677-1.368,5.729s-1.625,6.755-1.625,6.755s-2.907-1.967-2.309-4.959 c0,0-3.933,3.42-0.427,9.149c0,0-2.309-0.171-3.164-1.625c0,0-2.047,6.028,6.201,10.624c8.249,4.596,9.446-6.349,9.446-6.349 l5.9,7.353c0,0,7.068-0.199,10.431-7.781l-4.047,0.741c0.257-2.138,5.672-2.708,3.534-9.12c0,0-0.171,1.368-1.71,2.309 c0,0,0.057-4.418-3.135-7.325c0,0-0.114,2.366-1.14,3.221c0,0,0.342-3.05-1.539-5.444c-1.798-2.288-1.967-4.389-1.967-4.389 s-2.138,3.933-1.368,5.9c0,0-1.783-0.433-1.967-2.822C310.132,307.813,305.145,306.587,305.145,306.587z"/></g><ellipse cx="307.54" cy="353.25" fill="#FFE15A" rx="13.345" ry="5.719"/><ellipse cx="307.54" cy="352" fill="#FF4B55" rx="11.539" ry="5.171"/><g><path fill="#FF82AA" d="M309.954,352.674h-4.838c-0.086,1.509,0.598,3.697,2.415,4.491v0.005 c0.001-0.001,0.002-0.002,0.002-0.002s0.004,0.002,0.005,0.002v-0.005C309.357,356.371,310.04,354.182,309.954,352.674z"/><path fill="#FF82AA" d="M313.801,351.743l-4.389,1.03c0.267,1.487,1.387,3.472,3.217,3.858l0.001,0.005l0.003-0.003 c0.001,0,0.003,0.002,0.003,0.002v-0.005C314.103,355.47,314.223,353.193,313.801,351.743z"/><path fill="#FF82AA" d="M316.072,350.167l-3.056,2.002c0.773,1.297,2.404,2.845,3.987,2.757l0.003,0.004l0.001-0.004 c0,0,0.003,0.001,0.004,0.001l-0.003-0.004C317.721,353.507,316.953,351.393,316.072,350.167z"/><path fill="#FF82AA" d="M315.982,347.073l-1.202,3.035c1.63,2.074,4.302,1.86,4.302,1.86 C319.189,350.28,317.083,348.107,315.982,347.073z"/><path fill="#FF82AA" d="M301.23,351.743l4.389,1.03c-0.267,1.487-1.387,3.472-3.217,3.858l-0.001,0.005l-0.003-0.003 l-0.004,0.002l0.001-0.005C300.927,355.47,300.807,353.193,301.23,351.743z"/><path fill="#FF82AA" d="M298.958,350.167l3.056,2.002c-0.773,1.297-2.404,2.845-3.987,2.757l-0.003,0.004l-0.001-0.004 l-0.004,0.001l0.003-0.004C297.309,353.507,298.078,351.393,298.958,350.167z"/><path fill="#FF82AA" d="M299.048,347.073l1.202,3.035c-1.63,2.074-4.302,1.86-4.302,1.86 C295.842,350.28,297.948,348.107,299.048,347.073z"/></g><ellipse cx="307.54" cy="348.86" fill="#FFE15A" rx="9.366" ry="4.197"/><ellipse cx="307.54" cy="348.86" fill="#FF4B55" rx="6.968" ry="2.727"/><path fill="#41479B" d="M308.242,396.021c-4.555,0.387-8.556-2.999-8.945-7.547c-0.2-2.273,1.495-4.28,3.773-4.474 c2.276-0.194,4.277,1.495,4.47,3.772c0.194,2.278,2.199,3.962,4.472,3.773c2.279-0.193,3.969-2.202,3.771-4.475 C316.17,391.626,312.794,395.632,308.242,396.021"/><path fill="#FF9B55" d="M299.297,388.474c-0.2-2.273,1.495-4.28,3.773-4.474c2.276-0.194,4.277,1.495,4.47,3.772 c0.194,2.278,2.199,3.962,4.472,3.773c2.279-0.193,3.969-2.202,3.771-4.475c-0.381-4.559-4.387-7.933-8.942-7.546 C302.289,379.914,298.91,383.919,299.297,388.474"/><path fill="#FFE15A" d="M307.539,374.228c-7.48,0-13.543,6.063-13.543,13.543c0,7.479,6.063,13.543,13.543,13.543 s13.543-6.064,13.543-13.543C321.082,380.291,315.019,374.228,307.539,374.228z M307.539,398.493c-5.922,0-10.722-4.8-10.722-10.722 c0-5.922,4.8-10.722,10.722-10.722s10.722,4.8,10.722,10.722C318.261,393.692,313.46,398.493,307.539,398.493z"/><path fill="#FF4B55" d="M307.539,377.049c-5.922,0-10.722,4.8-10.722,10.722c0,5.921,4.8,10.722,10.722,10.722 s10.722-4.8,10.722-10.722S313.46,377.049,307.539,377.049z M307.539,395.984c-4.536,0-8.213-3.677-8.213-8.213 s3.677-8.213,8.213-8.213s8.213,3.677,8.213,8.213C315.751,392.307,312.074,395.984,307.539,395.984z"/><circle cx="303.37" cy="387.77" r="1.034" fill="#FF9B55"/><circle cx="311.65" cy="387.77" r="1.034" fill="#41479B"/><g><circle cx="307.54" cy="370.9" r="1.253" fill="#FF4B55"/><circle cx="308.79" cy="373.09" r="1.253" fill="#FF4B55"/><circle cx="306.29" cy="373.09" r="1.253" fill="#FF4B55"/><circle cx="307.54" cy="404.68" r="1.253" fill="#FF4B55"/><circle cx="306.29" cy="402.49" r="1.253" fill="#FF4B55"/><circle cx="308.79" cy="402.49" r="1.253" fill="#FF4B55"/></g><path fill="#FF9B55" d="M305.247,335.424c-0.861-4.803-3.16-8.41-5.135-8.056s-2.879,4.535-2.018,9.338 c0.621,3.466,1.997,6.252,3.454,7.434c-0.601,1.032-0.968,2.605-0.976,4.555c1.082,0.092,2.197,0.087,3.342-0.118 c1.144-0.205,2.192-0.587,3.175-1.05c-0.685-1.825-1.575-3.173-2.497-3.932C305.546,341.98,305.868,338.89,305.247,335.424z"/><path fill="#41479B" d="M309.803,335.424c0.861-4.803,3.16-8.41,5.136-8.056c1.975,0.354,2.879,4.535,2.018,9.338 c-0.621,3.466-1.997,6.252-3.454,7.434c0.601,1.032,0.968,2.605,0.976,4.555c-1.082,0.092-2.197,0.087-3.342-0.118 c-1.145-0.205-2.192-0.587-3.175-1.05c0.685-1.825,1.575-3.173,2.497-3.932C309.505,341.98,309.182,338.89,309.803,335.424z"/><path fill="#F5F5F5" d="M311.212,335.312c0-5.291-1.627-9.58-3.634-9.58s-3.634,4.289-3.634,9.58 c0,3.818,0.862,7.055,2.088,8.595c-0.774,0.987-1.412,2.595-1.764,4.674c1.049,0.306,2.147,0.513,3.31,0.513s2.261-0.208,3.31-0.513 c-0.352-2.079-0.99-3.688-1.764-4.674C310.35,342.367,311.212,339.13,311.212,335.312z"/><g><path fill="#FFE15A" d="M307.539,345.319c-2.367,0-4.539-0.22-5.951-0.61c-0.486-0.128-0.77-0.625-0.639-1.114 c0.135-0.483,0.646-0.802,1.114-0.632c2.498,0.667,8.453,0.667,10.951,0c0.486-0.178,0.983,0.149,1.114,0.632 c0.131,0.49-0.153,0.987-0.639,1.114C312.078,345.099,309.906,345.319,307.539,345.319z"/><path fill="#FFE15A" d="M299.758,359.685c0.983-0.128,2.223-0.427,2.309-1.924c0,0-2.223-0.214-2.223-0.043 C299.843,357.89,299.758,359.685,299.758,359.685z"/></g><g><path fill="#FF4B55" d="M277.441,354.127c1.112,0.314,2.195,0.542,2.537,1.91c0,0,1.14-2.28-0.456-3.648 C279.232,352.14,277.441,354.127,277.441,354.127z"/><path fill="#FF4B55" d="M282.173,350.308c1.112,0.314,2.195,0.542,2.537,1.91c0,0,1.14-2.28-0.456-3.648 C283.963,348.321,282.173,350.308,282.173,350.308z"/></g><path fill="#FFE15A" d="M277.784,358.232c-0.684-0.171-1.881-1.71-0.342-4.104s-5.216,1.197-5.472,3.164 c-0.257,1.967-0.513,5.472,1.026,4.532C274.534,360.882,277.784,358.232,277.784,358.232z"/><path fill="#FF4B55" d="M285.108,358.488c0.228-1.254,0-2.109,1.596-3.249c1.596-1.14,1.824-1.767,1.824-2.508 c0,0-0.869,0.926-2.408,1.311c-0.942,0.235-1.753,0.912-1.753,0.912s-0.399-1.425,1.026-2.223c0,0-2.508,0-2.907,2.28 c-0.399,2.28,0.912,2.622-0.969,2.85c-1.881,0.228-6.27-0.684-7.809,2.793s3.135,0.969,4.389,0.513s5.244,0.513,5.871-0.342 C284.595,359.97,285.108,358.488,285.108,358.488z"/><path fill="#FFF5E6" d="M268.677,364.73l6.755-11.116c0,0,6.712-2.594,6.769-2.936s2.223-3.135,2.223-3.534 s-0.228-2.337-1.083-2.679c-0.855-0.342-3.578,0.807-4.76,1.109s-3.049-1.907-3.049-1.907s-10.887,2.052-11.685,3.363 s-4.56,10.716-4.731,11.686c-0.171,0.969,0,7.638,0.228,7.524C259.571,366.126,268.677,364.73,268.677,364.73z"/><path fill="#FF4B55" d="M284.823,345.491c-1.026-1.482-2.907-1.482-3.705-0.285c-0.798,1.197-2.508,1.197-2.907,2.679 c-0.315,1.17,1.596,3.306,2.736,2.907c1.14-0.399,3.249-1.71,3.249-1.71S285.849,346.973,284.823,345.491z M281.702,348.509 c-0.468,0.598-1.643-0.146-1.65-0.81c-0.008-0.664,0.972-0.701,1.46-0.356C281.83,347.568,282.084,348.022,281.702,348.509z M283.459,347.032c-0.684,0.329-1.41-0.856-1.124-1.455s1.182-0.2,1.467,0.325C283.989,346.244,284.016,346.764,283.459,347.032z"/><path fill="#FFF5E6" d="M286.984,388.613c1.136,0.113,2.64-0.041,2.953-2.612c0.358-2.945,1.249-3.975,2.725-3.293 c1.476,0.681,1.11,1.858,1.11,1.858s1.625,4.275,0.77,5.985s-2.822,3.762-4.275,4.104c-1.454,0.342-4.446-1.625-4.446-1.625 L286.984,388.613z"/><path fill="#FFE6D7" d="M278.781,378.667c0.969-0.456,12.94-8.778,14.365-11.914c1.425-3.135,0.627-5.415,2.508-5.529 c1.881-0.114,5.073-0.228,4.788-2.565s-3.42-0.855-4.275-1.311c-0.855-0.456-3.534-1.71-4.047,0.114s0,3.477-0.741,4.389 c-0.741,0.912-4.047,2.508-4.617,2.394c-0.57-0.114-1.788-0.263-2.718,0.325c-0.93,0.587-1.443,1.385-1.443,1.385 s-3.506,0.143-4.004,0.613c-0.499,0.47-2.38,2.978-2.38,2.978L278.781,378.667z"/><path fill="#5AA587" d="M280.035,376.786c0,0,2.28-0.855,3.905-4.019s3.249-1.881,5.643-3.591s0.855-4.275,0.171-5.301 c-0.684-1.026-0.214-3.677,2.138-3.591c1.547,0.056,6.498,4.874,4.275,9.662c0,0-0.342-0.855-1.197-1.881 c0,0,1.283,3.164-1.71,6.669c0,0,0.085-1.796-0.855-2.993c0,0-0.086,4.446-3.506,7.268c0,0,0.428-2.907-0.086-4.104 c0,0-0.513,3.848-5.558,7.353c0,0,0.77-1.368,0.598-3.591l-4.275,2.223L280.035,376.786z"/><path fill="#F5DCD2" d="M247.515,391.407c0,0-1.539,4.703,2.651,6.071s6.498-0.427,8.037,0s1.197,3.164-0.941,5.472 s-4.275,2.565-6.669,0.855c-2.394-1.71-2.565-3.249-5.045-2.651c-2.48,0.599-5.9-1.796-5.9-1.796s2.223-9.662,2.48-9.576 C242.385,389.868,247.515,391.407,247.515,391.407z"/><path fill="#FFF5E6" d="M225.776,379.642c0,0,2.953-2.839,14.422-6.359c11.469-3.52,17.602-4.997,17.602-4.997l8.971-2.839 c0,0,4.222-0.016,6.994-0.803c2.772-0.787,2.772-0.787,2.772-0.787s7.381,10.448,1.817,21.008l1.931,1.817 c0,0,2.029,0.619,3.57,1.161c1.54,0.542,0.405,3.494,0.405,3.494l-5.905,2.725l-17.261-0.795c0,0-0.341-0.795-6.019,1.022 c-5.678,1.817-8.176-2.271-19.078-2.612C225.095,391.339,225.776,379.642,225.776,379.642z"/><g><path fill="#5AA587" d="M274.848,338.879c0,0,1.739,1.739,0.798,3.591c0,0-1.938-1.995-3.534-2.451 c-2.457-0.702-2.964,0.641-8.394,0.898c-3.417,0.161-4.796,3.435-8.137,2.636c-3.577-0.855-6.526,0.784-6.526,0.784 s2.052-0.256,3.719,1.325c1.667,1.581,4.617,1.239,4.617,1.239s-2.693,1.881-4.959,0.983s-5.515,0.77-5.515,0.77 c0.598-0.043,1.924,0.171,3.42,1.753s4.831,1.197,4.831,1.197c-0.598,0.727-2.266,1.539-3.841,1.237 c-3.57-0.684-7.381,0.908-7.381,0.908s2.271-0.795,5.337,1.476c3.066,2.271,6.587,0.908,6.587,0.908 c0,1.476-3.073,7.163-8.525,6.97c-6.788-0.241-8.509,3.705-8.509,3.705s2.725-0.908,6.246-0.341c6.819,1.1,11.47-2.839,11.47-2.839 s-1.136,5.337-5.792,5.11c-4.656-0.227-10.561,4.542-10.561,4.542s5.246-0.945,12.02-1.029c2.228-0.028,4.04-0.906,5.588-1.951 c4.073-2.751,7.836-2.752,7.836-2.752c-4.446,1.026-6.755,5.9-6.755,5.9s3.42-2.992,8.379-2.992c4.959,0,6.499-5.814,6.499-5.814 c-4.617,0.085-5.301-3.677-5.301-3.677s-1.368,0.428-2.65,1.967c-0.811,0.973-2.183,1.304-3.122,1.435 c-0.342-2.999,1.922-5.736,1.922-5.736s-3.066-4.656,0.909-9.653s13.059-3.407,13.059-3.407 C279.522,341.387,275.988,338.765,274.848,338.879z"/><path fill="#5AA587" d="M265.613,355.41c1.482-0.228,8.379-2.508,8.265-5.586c-0.114-3.078-4.218-1.995-3.99-0.342 c0.228,1.653,1.71,1.311,1.71,1.311s-0.143,0.745-3.192,1.368C265.898,352.674,265.613,355.41,265.613,355.41z"/><path fill="#5AA587" d="M283.854,387.844c0,0,4.275-0.684,4.104,2.394s-2.622,6.327-7.695,7.752 c0,0,1.881-1.625,1.454-2.565c-0.428-0.941-2.565-1.197-3.677,0.427c-1.112,1.625-2.993,2.309-4.617,2.052 c0,0,2.907-2.138,0.855-2.907c-1.848-0.693-1.14,2.309-5.558,2.822c0,0,3.249-2.565,1.368-3.249 c-1.881-0.684-2.907,3.762-6.242,3.42c0,0,2.793-2.793,1.283-3.249c-2.379-0.718-2.993,3.42-7.268,1.625 c0,0,2.138-0.94,0.428-3.249s0.684-5.216,1.881-6.413c1.197-1.197,2.052-1.967,1.71-3.164c0,0,3.05,1.91,1.511,5.273 c-1.445,3.158,4.405,1.414,8.949,1.026c4.674-0.399,7.448,2.281,10.432,1.368C285.564,390.352,283.854,387.844,283.854,387.844z"/><path fill="#5AA587" d="M201.133,389.295c0,0,5.609,2.587,8.789-0.025c3.18-2.612,4.044,0.48,7.791-1.792 s3.52-1.022,6.473-1.022c2.952,0,5.11-4.77,3.293-8.063c0,0,6.167-2.391,4.902-7.336c-0.941-3.677-5.583-2.544-5.583-2.544 s-4.899-3.08-8.29,0.908c-2.772,3.26-1.249,5.451-5.905,6.019c-4.656,0.568-5.337,5.337-10.334,4.769c0,0,3.407,4.429,8.63,1.59 C210.9,381.8,210.777,386.077,201.133,389.295z"/><path fill="#5AA587" d="M250.764,397.649c0,0,4.788,4.275-4.617,6.84c0,0,0.599-0.77,1.283-2.138 c0,0-2.907,2.138-6.669,1.967c0,0,1.112-0.855,1.368-1.881c0,0-3.42,0.94-5.9-0.684c0,0,2.993-0.171,4.874-2.993 c0,0,0.855,1.71,2.651,0.855c1.796-0.855,2.825,0.375,4.446,0.427C249.525,400.086,250.679,399.402,250.764,397.649z"/><path fill="#5AA587" d="M248.399,371.257c0,0-3.42,1.596-1.824,4.617c1.064,2.014,4.397,2.498,5.7,0.627 c1.111-1.596,0.23-3.145-0.941-3.363c-1.226-0.228-1.967,0.285-2.537,1.311C248.798,374.449,246.689,373.651,248.399,371.257z"/><path fill="#5AA587" d="M263.761,376.572c0,0,7.427,0.282,7.054,5.429c-0.164,2.264-3.227,3.846-5.159,2.658 c-1.649-1.013-1.382-2.701-0.522-3.449c0.947-0.824,1.885-0.527,2.815,0.182C267.948,381.393,268.421,378.581,263.761,376.572z"/><path fill="#5AA587" d="M278.596,366.568c0,0,4.009-2.689,5.569,0.512c0.687,1.409-0.594,3.414-2.159,3.374 c-1.335-0.034-1.76-1.134-1.506-1.878c0.28-0.82,0.943-0.967,1.743-0.866C282.243,367.71,282.486,365.628,278.596,366.568z"/><path fill="#5AA587" d="M284.043,364.57c0,0,3.698-2.481,5.137,0.473c0.633,1.299-0.548,3.149-1.992,3.112 c-1.232-0.031-1.624-1.046-1.389-1.733c0.258-0.757,0.869-0.892,1.608-0.799C287.408,365.623,287.632,363.702,284.043,364.57z"/><path fill="#5AA587" d="M270.192,380.971c0,0,6.391,0.243,6.07,4.672c-0.141,1.948-2.776,3.309-4.44,2.287 c-1.419-0.872-1.495-2.472-0.879-3.235c1.069-1.325,2.351-0.727,2.351-0.727S274.202,382.7,270.192,380.971z"/><path fill="#5AA587" d="M274.876,384.481c0,0,7.054-0.684,6.53,4.077c-0.137,1.242-1.776,2.117-2.84,1.463 c-0.908-0.558-0.957-1.581-0.563-2.07c0.684-0.848,1.504-0.465,1.504-0.465S279.066,385.379,274.876,384.481z"/></g><path fill="#FFE6D7" d="M229.637,407.124c0,0,0.965,1.96,1.59,3.861c0.534,1.627,3.293,2.725,4.77,1.703 c1.476-1.022,3.969-4.076,2.947-4.757c-1.022-0.681-5.445-0.126-6.127-2.51c-0.681-2.385-0.454-3.975-0.454-3.975 s5.918,1.761,8.74-2.685c2.822-4.446,2.418-8.788,3.524-10.942c0.865-1.684,2.385-2.498,2.385-2.498 c-1.739-6.883-22.939-11.81-20.479,6.056l-3.331,7.571L229.637,407.124z"/><g><path fill="#5AA587" d="M222.121,406.826c1.454,0.941,6.783,3.648,10.089,1.596c2.704-1.678,2.736-3.591,1.026-4.019 s-2.651,0.769-3.591,0c-0.941-0.77-6.242-5.13-4.275-6.498s3.031-2.475,2.993-4.874c-0.029-1.767-1.568-3.477-3.392-3.648 c-2.275-0.213-4.047,0.741-6.441,0.741l2.793,1.425c-1.796,0.855-1.938,3.278-4.076,3.705c0,0,1.454,1.653,3.278,1.14 c0,0-0.627,1.71-2.337,1.938c0,0,1.596,1.824,3.078,2.337c0,0-0.969,0.684-2.48,0.399c0,0,2.366,3.477,5.9,4.361L222.121,406.826z"/><path fill="#5AA587" d="M232.421,400.315c0,0,0.95-0.164,1.031-1.321c0.047-0.667-0.619-1.531-1.751-1.466 c-1.327,0.076-2.227,1.838-1.591,3.006c1.628,2.988,7.686,1.789,8.427,0.705C238.537,401.24,233.692,401.468,232.421,400.315z"/></g><g><path fill="#FFE15A" d="M235.26,414.521c0.264-0.371,0.477-1.375-0.036-1.995c0,0,0.278-1.432,1.368-0.919 c0,0,0.463,1.147,0.093,1.945C236.314,414.35,235.26,414.521,235.26,414.521z"/><path fill="#FFE15A" d="M237.484,413.718c-0.019-1.033-0.25-1.598-1.084-1.683c0,0-0.214-1.496,1.026-1.496 c0,0,0.919,0.812,0.928,1.692C238.362,413.11,237.484,413.718,237.484,413.718z"/><path fill="#FFE15A" d="M238.858,412.717c-0.203-1.013-0.395-1.718-1.323-1.787c0,0-0.494-1.225,0.874-1.396 c0,0,0.872,0.699,1.038,1.564C239.613,411.961,238.858,412.717,238.858,412.717z"/><path fill="#FFE15A" d="M240.233,411.146c-0.421-0.943-0.84-1.322-1.76-1.185c0,0-0.791-1.111,0.299-1.71 c0,0,1.327,0.379,1.679,1.185C240.804,410.243,240.233,411.146,240.233,411.146z"/><path fill="#FFE15A" d="M256.464,405.363c0.194-0.411,0.226-1.438-0.389-1.957c0,0,0.019-1.459,1.183-1.147 c0,0,0.659,1.047,0.436,1.898C257.472,405.008,256.464,405.363,256.464,405.363z"/><path fill="#FFE15A" d="M258.511,404.178c-0.202-1.013-0.53-1.528-1.366-1.464c0,0-0.476-1.435,0.744-1.655 c0,0,1.048,0.636,1.213,1.5C259.267,403.423,258.511,404.178,258.511,404.178z"/><path fill="#FFE15A" d="M259.685,402.948c-0.38-0.961-0.694-1.62-1.619-1.523c0,0-0.703-1.118,0.613-1.529 c0,0,0.982,0.534,1.299,1.354S259.685,402.948,259.685,402.948z"/><path fill="#FFE15A" d="M260.76,401.158c-0.582-0.854-1.061-1.151-1.942-0.853c0,0-0.976-0.954-0.009-1.736 c0,0,1.373,0.137,1.863,0.868C261.161,400.168,260.76,401.158,260.76,401.158z"/></g><path fill="#FFE6D7" d="M284.88,348.513c0.185,0.925-0.285,1.938-2.508,2.907c-2.223,0.969-2.166,0.57-3.648,2.451 c-1.482,1.881-1.653,1.938-3.477,2.28c-1.824,0.342-2.679,5.985-0.513,5.13c2.166-0.855,2.451-2.622,4.845-2.052 s3.648,1.368,5.529-0.741c0,0,1.824,2.451-1.596,3.477s-5.286,1.105-6.975,1.892s-7.68,2.711-8.073-2.89 c-0.114-1.624,1.083-2.251,1.767-3.448s1.368-1.995,3.021-3.306c1.653-1.311,0.627-2.394,3.306-2.793s4.902-0.342,5.7-2.28 S284.652,347.373,284.88,348.513z"/><g><path fill="#5AA587" d="M239.991,375.688c0,0-0.514-2.043,1.868-2.908c-0.56,0.17-1.073,0.322-1.661,0.503 c-0.501,0.154-0.898,0.298-1.368,0.449c-0.183,0.247-0.428,0.378-0.552,0.724c-0.724,2.029,1.068,4.662,3.205,4.375 c1.823-0.245,2.34-1.85,1.744-2.805C242.604,375.025,241.231,374.791,239.991,375.688z"/><path fill="#5AA587" d="M240.729,397.372c-2.584,0.578-3.748-0.42-3.748-0.42s0.95-0.165,1.031-1.321 c0.047-0.667-0.619-1.531-1.751-1.466c-1.327,0.076-2.227,1.838-1.591,3.007c1.4,2.57,5.378,1.962,7.131,0.141 c0.092-0.188,0.188-0.374,0.271-0.56C241.688,396.993,241.197,397.267,240.729,397.372z"/><path fill="#5AA587" d="M243.341,393.051c0.066-0.293,0.159-0.587,0.214-0.868c-3.038,1.229-3.924-0.319-3.924-0.319 s0.95-0.164,1.031-1.321c0.047-0.667-0.619-1.531-1.751-1.466c-1.327,0.076-2.227,1.838-1.591,3.006 C238.805,394.809,241.451,394.051,243.341,393.051z"/><path fill="#5AA587" d="M250.175,394.497c-1.766,1.582-3.115,1.495-3.115,1.495s0.706-0.656,0.142-1.67 c-0.325-0.585-1.354-0.945-2.267-0.272c-1.07,0.788-0.863,2.756,0.308,3.388c2.882,1.553,4.753-0.849,5.754-2.784 C250.724,394.617,250.449,394.553,250.175,394.497z"/></g><g><path fill="#FFE15A" d="M295.68,392.966c-0.128-0.63-0.788-1.829-1.599-1.911c0,0-0.958-1.681,0.131-2.292 c0,0,1.197,0.648,1.595,1.804C296.206,391.725,295.68,392.966,295.68,392.966z"/><path fill="#FFE15A" d="M296.44,389.915c-0.828-0.989-1.42-1.304-2.01-0.538c0,0-1.317-1.243-0.539-2.506 c0,0,1.218-0.144,1.919,0.706C296.51,388.426,296.44,389.915,296.44,389.915z"/><path fill="#FFE15A" d="M296.51,387.537c-0.928-0.781-1.605-1.274-2.242-0.395c0,0-1.278-0.693-0.556-2.254 c0,0,1.1-0.206,1.887,0.468C296.387,386.029,296.51,387.537,296.51,387.537z"/><path fill="#FFE15A" d="M296.13,384.601c-1.01-0.492-1.571-0.434-2.04,0.638c0,0-1.374-0.279-1.164-1.974 c0,0,1.132-0.983,1.99-0.555C295.775,383.138,296.13,384.601,296.13,384.601z"/></g><path fill="#F5F5F5" d="M275.595,351.109c0.487,1.334-0.75,2.571-2.084,2.084c-0.408-0.149-0.743-0.484-0.892-0.892 c-0.487-1.334,0.75-2.571,2.084-2.084C275.111,350.366,275.446,350.701,275.595,351.109z"/><path fill="#41479B" d="M274.637,351.466c0.202,0.5-0.27,0.972-0.77,0.769c-0.129-0.052-0.239-0.162-0.292-0.292 c-0.202-0.5,0.27-0.972,0.77-0.769C274.475,351.227,274.585,351.336,274.637,351.466z"/><path fill="#F5F5F5" d="M278.628,345.45c0.333,1.042-0.613,1.989-1.655,1.655c-0.374-0.12-0.683-0.428-0.802-0.802 c-0.333-1.042,0.613-1.989,1.655-1.655C278.199,344.767,278.508,345.076,278.628,345.45z"/><path fill="#41479B" d="M277.83,345.684c0.162,0.405-0.219,0.787-0.624,0.624c-0.107-0.043-0.197-0.133-0.239-0.239 c-0.162-0.405,0.219-0.786,0.624-0.624C277.698,345.487,277.788,345.577,277.83,345.684z"/><path fill="#FFF5E6" d="M231.355,377.213c-1.476,1.136-6.584-1.368-10.175-0.171c-4.641,1.547-4.602,4.53-4.602,4.53 s2.892-3.59,7.709-1.823c2.665,0.978,4.215,1.028,4.215,1.028L231.355,377.213z"/><path fill="#FFE15A" d="M315.238,359.685c-0.983-0.128-2.223-0.427-2.309-1.924c0,0,2.223-0.214,2.223-0.043 C315.152,357.89,315.238,359.685,315.238,359.685z"/><g><path fill="#FF4B55" d="M337.554,354.127c-1.111,0.314-2.194,0.542-2.537,1.91c0,0-1.14-2.28,0.456-3.648 C335.764,352.14,337.554,354.127,337.554,354.127z"/><path fill="#FF4B55" d="M332.823,350.308c-1.112,0.314-2.195,0.542-2.537,1.91c0,0-1.14-2.28,0.456-3.648 C331.033,348.321,332.823,350.308,332.823,350.308z"/></g><path fill="#FFE15A" d="M337.212,358.232c0.684-0.171,1.881-1.71,0.342-4.104s5.216,1.197,5.472,3.164 c0.257,1.967,0.513,5.472-1.026,4.532C340.461,360.882,337.212,358.232,337.212,358.232z"/><path fill="#FF4B55" d="M329.887,358.488c-0.228-1.254,0-2.109-1.596-3.249c-1.596-1.14-1.824-1.767-1.824-2.508 c0,0,0.869,0.926,2.408,1.311c0.942,0.235,1.753,0.912,1.753,0.912s0.399-1.425-1.026-2.223c0,0,2.508,0,2.907,2.28 c0.399,2.28-0.912,2.622,0.969,2.85s6.27-0.684,7.809,2.793s-3.135,0.969-4.389,0.513s-5.244,0.513-5.871-0.342 C330.4,359.97,329.887,358.488,329.887,358.488z"/><path fill="#FFF5E6" d="M346.318,364.73l-6.755-11.116c0,0-6.712-2.594-6.769-2.936s-2.223-3.135-2.223-3.534 s0.228-2.337,1.083-2.679c0.855-0.342,3.578,0.807,4.76,1.109s3.049-1.907,3.049-1.907s10.888,2.052,11.686,3.363 s4.56,10.716,4.731,11.686c0.171,0.969,0,7.638-0.228,7.524S346.318,364.73,346.318,364.73z"/><path fill="#FF4B55" d="M330.799,349.083c0,0,2.109,1.311,3.249,1.71c1.14,0.399,3.051-1.737,2.736-2.907 c-0.399-1.482-2.109-1.482-2.907-2.679s-2.679-1.197-3.705,0.285C329.146,346.973,330.799,349.083,330.799,349.083z M333.484,347.343c0.488-0.345,1.468-0.307,1.46,0.356c-0.008,0.664-1.182,1.408-1.65,0.81 C332.912,348.022,333.166,347.568,333.484,347.343z M331.193,345.902c0.286-0.525,1.181-0.924,1.467-0.325s-0.439,1.784-1.124,1.455 C330.979,346.764,331.006,346.244,331.193,345.902z"/><path fill="#FFF5E6" d="M328.011,388.613c-1.136,0.113-2.64-0.041-2.952-2.612c-0.358-2.945-1.249-3.975-2.725-3.293 c-1.476,0.681-1.11,1.858-1.11,1.858s-1.625,4.275-0.77,5.985s2.822,3.762,4.275,4.104c1.454,0.342,4.446-1.625,4.446-1.625 L328.011,388.613z"/><path fill="#FFE6D7" d="M336.215,378.667c-0.969-0.456-12.94-8.778-14.365-11.914c-1.425-3.135-0.627-5.415-2.508-5.529 c-1.881-0.114-5.073-0.228-4.788-2.565s3.42-0.855,4.275-1.311c0.855-0.456,3.534-1.71,4.047,0.114s0,3.477,0.741,4.389 c0.741,0.912,4.047,2.508,4.617,2.394c0.57-0.114,1.787-0.263,2.718,0.325c0.93,0.587,1.443,1.385,1.443,1.385 s3.506,0.143,4.004,0.613c0.499,0.47,2.38,2.978,2.38,2.978L336.215,378.667z"/><path fill="#5AA587" d="M334.96,376.786c0,0-2.28-0.855-3.905-4.019s-3.249-1.881-5.643-3.591s-0.855-4.275-0.171-5.301 c0.684-1.026,0.214-3.677-2.138-3.591c-1.548,0.056-6.498,4.874-4.275,9.662c0,0,0.342-0.855,1.197-1.881 c0,0-1.283,3.164,1.71,6.669c0,0-0.086-1.796,0.855-2.993c0,0,0.085,4.446,3.506,7.268c0,0-0.428-2.907,0.086-4.104 c0,0,0.513,3.848,5.558,7.353c0,0-0.77-1.368-0.599-3.591l4.275,2.223L334.96,376.786z"/><path fill="#F5DCD2" d="M367.48,391.407c0,0,1.539,4.703-2.651,6.071s-6.498-0.427-8.037,0s-1.197,3.164,0.941,5.472 s4.275,2.565,6.669,0.855s2.565-3.249,5.045-2.651c2.48,0.599,5.9-1.796,5.9-1.796s-2.223-9.662-2.48-9.576 C372.611,389.868,367.48,391.407,367.48,391.407z"/><path fill="#FFF5E6" d="M389.22,379.642c0,0-2.953-2.839-14.422-6.359c-11.469-3.52-17.602-4.997-17.602-4.997l-8.971-2.839 c0,0-4.222-0.016-6.994-0.803c-2.772-0.787-2.772-0.787-2.772-0.787s-7.381,10.448-1.817,21.008l-1.931,1.817 c0,0-2.029,0.619-3.57,1.161c-1.54,0.542-0.405,3.494-0.405,3.494l5.905,2.725l17.261-0.795c0,0,0.341-0.795,6.019,1.022 c5.678,1.817,8.176-2.271,19.078-2.612C389.901,391.339,389.22,379.642,389.22,379.642z"/><g><path fill="#5AA587" d="M340.148,338.879c0,0-1.739,1.739-0.798,3.591c0,0,1.938-1.995,3.534-2.451 c2.457-0.702,2.964,0.641,8.394,0.898c3.417,0.161,4.796,3.435,8.137,2.636c3.577-0.855,6.526,0.784,6.526,0.784 s-2.052-0.256-3.719,1.325c-1.667,1.581-4.617,1.239-4.617,1.239s2.693,1.881,4.959,0.983c2.266-0.898,5.515,0.77,5.515,0.77 c-0.598-0.043-1.924,0.171-3.42,1.753s-4.831,1.197-4.831,1.197c0.598,0.727,2.266,1.539,3.841,1.237 c3.57-0.684,7.381,0.908,7.381,0.908s-2.271-0.795-5.337,1.476c-3.066,2.271-6.586,0.908-6.586,0.908 c0,1.476,3.073,7.163,8.525,6.97c6.788-0.241,8.509,3.705,8.509,3.705s-2.725-0.908-6.246-0.341 c-6.819,1.1-11.469-2.839-11.469-2.839s1.136,5.337,5.792,5.11c4.656-0.227,10.561,4.542,10.561,4.542s-5.246-0.945-12.02-1.029 c-2.228-0.028-4.04-0.906-5.588-1.951c-4.074-2.751-7.836-2.752-7.836-2.752c4.446,1.026,6.754,5.9,6.754,5.9 s-3.42-2.992-8.379-2.992c-4.959,0-6.499-5.814-6.499-5.814c4.617,0.085,5.301-3.677,5.301-3.677s1.368,0.428,2.65,1.967 c0.811,0.973,2.183,1.304,3.122,1.435c0.342-2.999-1.922-5.736-1.922-5.736s3.066-4.656-0.909-9.653s-13.059-3.407-13.059-3.407 C335.474,341.387,339.008,338.765,340.148,338.879z"/><path fill="#5AA587" d="M349.382,355.41c-1.482-0.228-8.379-2.508-8.265-5.586s4.218-1.995,3.99-0.342 c-0.228,1.653-1.71,1.311-1.71,1.311s0.144,0.745,3.192,1.368C349.097,352.674,349.382,355.41,349.382,355.41z"/><path fill="#5AA587" d="M331.141,387.844c0,0-4.275-0.684-4.104,2.394s2.622,6.327,7.695,7.752c0,0-1.881-1.625-1.453-2.565 c0.427-0.941,2.565-1.197,3.677,0.427c1.112,1.625,2.993,2.309,4.617,2.052c0,0-2.907-2.138-0.855-2.907 c1.848-0.693,1.14,2.309,5.558,2.822c0,0-3.249-2.565-1.368-3.249c1.881-0.684,2.907,3.762,6.242,3.42c0,0-2.793-2.793-1.283-3.249 c2.379-0.718,2.993,3.42,7.268,1.625c0,0-2.138-0.94-0.428-3.249s-0.684-5.216-1.881-6.413c-1.197-1.197-2.052-1.967-1.71-3.164 c0,0-3.05,1.91-1.511,5.273c1.445,3.158-4.405,1.414-8.949,1.026c-4.674-0.399-7.448,2.281-10.431,1.368 C329.431,390.352,331.141,387.844,331.141,387.844z"/><path fill="#5AA587" d="M413.862,389.295c0,0-5.609,2.587-8.789-0.025s-4.044,0.48-7.791-1.792s-3.52-1.022-6.473-1.022 c-2.952,0-5.11-4.77-3.293-8.063c0,0-6.167-2.391-4.902-7.336c0.941-3.677,5.583-2.544,5.583-2.544s4.899-3.08,8.29,0.908 c2.772,3.26,1.249,5.451,5.905,6.019c4.656,0.568,5.337,5.337,10.334,4.769c0,0-3.407,4.429-8.631,1.59 C404.096,381.8,404.218,386.077,413.862,389.295z"/><path fill="#5AA587" d="M364.231,397.649c0,0-4.788,4.275,4.617,6.84c0,0-0.599-0.77-1.283-2.138 c0,0,2.907,2.138,6.669,1.967c0,0-1.112-0.855-1.368-1.881c0,0,3.42,0.94,5.9-0.684c0,0-2.993-0.171-4.874-2.993 c0,0-0.855,1.71-2.651,0.855c-1.796-0.855-2.825,0.375-4.446,0.427C365.471,400.086,364.317,399.402,364.231,397.649z"/><path fill="#5AA587" d="M366.597,371.257c0,0,3.42,1.596,1.824,4.617c-1.064,2.014-4.397,2.498-5.7,0.627 c-1.112-1.596-0.23-3.145,0.94-3.363c1.226-0.228,1.967,0.285,2.537,1.311C366.198,374.449,368.307,373.651,366.597,371.257z"/><path fill="#5AA587" d="M351.235,376.572c0,0-7.427,0.282-7.054,5.429c0.164,2.264,3.227,3.846,5.159,2.658 c1.649-1.013,1.382-2.701,0.522-3.449c-0.947-0.824-1.885-0.527-2.815,0.182C347.047,381.393,346.575,378.581,351.235,376.572z"/><path fill="#5AA587" d="M336.4,366.568c0,0-4.009-2.689-5.569,0.512c-0.686,1.409,0.594,3.414,2.159,3.374 c1.335-0.034,1.76-1.134,1.506-1.878c-0.28-0.82-0.943-0.967-1.743-0.866C332.752,367.71,332.509,365.628,336.4,366.568z"/><path fill="#5AA587" d="M330.952,364.57c0,0-3.698-2.481-5.137,0.473c-0.633,1.299,0.548,3.149,1.992,3.112 c1.232-0.031,1.624-1.046,1.389-1.733c-0.258-0.757-0.87-0.892-1.608-0.799C327.588,365.623,327.363,363.702,330.952,364.57z"/><path fill="#5AA587" d="M344.803,380.971c0,0-6.391,0.243-6.07,4.672c0.141,1.948,2.777,3.309,4.44,2.287 c1.419-0.872,1.495-2.472,0.88-3.235c-1.069-1.325-2.351-0.727-2.351-0.727S340.793,382.7,344.803,380.971z"/><path fill="#5AA587" d="M340.119,384.481c0,0-7.054-0.684-6.53,4.077c0.137,1.242,1.776,2.117,2.84,1.463 c0.908-0.558,0.957-1.581,0.563-2.07c-0.684-0.848-1.504-0.465-1.504-0.465S335.93,385.379,340.119,384.481z"/></g><path fill="#FFE6D7" d="M385.359,407.124c0,0-0.965,1.96-1.59,3.861c-0.534,1.627-3.293,2.725-4.77,1.703 c-1.476-1.022-3.969-4.076-2.947-4.757s5.445-0.126,6.127-2.51c0.681-2.385,0.454-3.975,0.454-3.975s-5.918,1.761-8.74-2.685 c-2.822-4.446-2.418-8.788-3.524-10.942c-0.865-1.684-2.385-2.498-2.385-2.498c1.738-6.883,22.939-11.81,20.478,6.056l3.331,7.571 L385.359,407.124z"/><g><path fill="#5AA587" d="M392.875,406.826c-1.454,0.941-6.783,3.648-10.09,1.596c-2.704-1.678-2.736-3.591-1.026-4.019 s2.651,0.769,3.591,0c0.941-0.77,6.242-5.13,4.275-6.498c-1.967-1.368-3.031-2.475-2.993-4.874 c0.029-1.767,1.568-3.477,3.392-3.648c2.275-0.213,4.047,0.741,6.441,0.741l-2.793,1.425c1.796,0.855,1.938,3.278,4.076,3.705 c0,0-1.454,1.653-3.278,1.14c0,0,0.627,1.71,2.337,1.938c0,0-1.596,1.824-3.078,2.337c0,0,0.969,0.684,2.48,0.399 c0,0-2.366,3.477-5.9,4.361L392.875,406.826z"/><path fill="#5AA587" d="M382.575,400.315c0,0-0.95-0.164-1.031-1.321c-0.047-0.667,0.619-1.531,1.751-1.466 c1.327,0.076,2.228,1.838,1.591,3.006c-1.628,2.988-7.686,1.789-8.427,0.705C376.458,401.24,381.303,401.468,382.575,400.315z"/></g><g><path fill="#FFE15A" d="M379.736,414.521c-0.264-0.371-0.477-1.375,0.036-1.995c0,0-0.278-1.432-1.368-0.919 c0,0-0.463,1.147-0.093,1.945C378.681,414.35,379.736,414.521,379.736,414.521z"/><path fill="#FFE15A" d="M377.512,413.718c0.019-1.033,0.25-1.598,1.084-1.683c0,0,0.214-1.496-1.026-1.496 c0,0-0.919,0.812-0.928,1.692C376.633,413.11,377.512,413.718,377.512,413.718z"/><path fill="#FFE15A" d="M376.137,412.717c0.203-1.013,0.395-1.718,1.323-1.787c0,0,0.494-1.225-0.874-1.396 c0,0-0.872,0.699-1.038,1.564C375.382,411.961,376.137,412.717,376.137,412.717z"/><path fill="#FFE15A" d="M374.762,411.146c0.421-0.943,0.84-1.322,1.76-1.185c0,0,0.791-1.111-0.299-1.71 c0,0-1.327,0.379-1.679,1.185C374.191,410.243,374.762,411.146,374.762,411.146z"/><path fill="#FFE15A" d="M358.531,405.363c-0.194-0.411-0.226-1.438,0.389-1.957c0,0-0.019-1.459-1.183-1.147 c0,0-0.659,1.047-0.436,1.898C357.524,405.008,358.531,405.363,358.531,405.363z"/><path fill="#FFE15A" d="M356.485,404.178c0.202-1.013,0.53-1.528,1.366-1.464c0,0,0.476-1.435-0.744-1.655 c0,0-1.049,0.636-1.213,1.5C355.728,403.423,356.485,404.178,356.485,404.178z"/><path fill="#FFE15A" d="M355.31,402.948c0.38-0.961,0.694-1.62,1.619-1.523c0,0,0.703-1.118-0.612-1.529 c0,0-0.982,0.534-1.299,1.354S355.31,402.948,355.31,402.948z"/><path fill="#FFE15A" d="M354.236,401.158c0.582-0.854,1.061-1.151,1.942-0.853c0,0,0.976-0.954,0.009-1.736 c0,0-1.374,0.137-1.863,0.868C353.834,400.168,354.236,401.158,354.236,401.158z"/></g><path fill="#FFE6D7" d="M330.115,348.513c-0.185,0.925,0.285,1.938,2.508,2.907c2.223,0.969,2.166,0.57,3.648,2.451 c1.482,1.881,1.653,1.938,3.477,2.28c1.824,0.342,2.679,5.985,0.513,5.13c-2.166-0.855-2.451-2.622-4.845-2.052 s-3.648,1.368-5.529-0.741c0,0-1.824,2.451,1.596,3.477s5.286,1.105,6.975,1.892s7.68,2.711,8.073-2.89 c0.114-1.624-1.083-2.251-1.767-3.448s-1.368-1.995-3.021-3.306c-1.653-1.311-0.627-2.394-3.306-2.793s-4.902-0.342-5.7-2.28 S330.343,347.373,330.115,348.513z"/><g><path fill="#5AA587" d="M375.005,375.688c0,0,0.514-2.043-1.868-2.908c0.56,0.17,1.073,0.322,1.661,0.503 c0.501,0.154,0.898,0.298,1.368,0.449c0.183,0.247,0.428,0.378,0.552,0.724c0.724,2.029-1.068,4.662-3.205,4.375 c-1.823-0.245-2.34-1.85-1.744-2.805C372.392,375.025,373.765,374.791,375.005,375.688z"/><path fill="#5AA587" d="M374.267,397.372c2.584,0.578,3.748-0.42,3.748-0.42s-0.95-0.165-1.031-1.321 c-0.047-0.667,0.619-1.531,1.751-1.466c1.327,0.076,2.227,1.838,1.591,3.007c-1.4,2.57-5.378,1.962-7.131,0.141 c-0.092-0.188-0.188-0.374-0.271-0.56C373.307,396.993,373.798,397.267,374.267,397.372z"/><path fill="#5AA587" d="M371.655,393.051c-0.066-0.293-0.159-0.587-0.214-0.868c3.038,1.229,3.924-0.319,3.924-0.319 s-0.95-0.164-1.031-1.321c-0.047-0.667,0.619-1.531,1.751-1.466c1.327,0.076,2.227,1.838,1.591,3.006 C376.19,394.809,373.544,394.051,371.655,393.051z"/><path fill="#5AA587" d="M364.821,394.497c1.766,1.582,3.115,1.495,3.115,1.495s-0.706-0.656-0.142-1.67 c0.325-0.585,1.354-0.945,2.267-0.272c1.07,0.788,0.863,2.756-0.308,3.388c-2.883,1.553-4.753-0.849-5.754-2.784 C364.271,394.617,364.547,394.553,364.821,394.497z"/></g><g><path fill="#FFE15A" d="M319.315,392.966c0.128-0.63,0.788-1.829,1.599-1.911c0,0,0.958-1.681-0.131-2.292 c0,0-1.197,0.648-1.595,1.804C318.789,391.725,319.315,392.966,319.315,392.966z"/><path fill="#FFE15A" d="M318.556,389.915c0.828-0.989,1.42-1.304,2.01-0.538c0,0,1.317-1.243,0.539-2.506 c0,0-1.218-0.144-1.919,0.706C318.486,388.426,318.556,389.915,318.556,389.915z"/><path fill="#FFE15A" d="M318.486,387.537c0.928-0.781,1.605-1.274,2.242-0.395c0,0,1.278-0.693,0.556-2.254 c0,0-1.1-0.206-1.887,0.468C318.609,386.029,318.486,387.537,318.486,387.537z"/><path fill="#FFE15A" d="M318.865,384.601c1.01-0.492,1.571-0.434,2.04,0.638c0,0,1.374-0.279,1.164-1.974 c0,0-1.132-0.983-1.99-0.555C319.221,383.138,318.865,384.601,318.865,384.601z"/></g><path fill="#F5F5F5" d="M339.401,351.109c-0.487,1.334,0.75,2.571,2.084,2.084c0.408-0.149,0.743-0.484,0.892-0.892 c0.487-1.334-0.75-2.571-2.084-2.084C339.885,350.366,339.549,350.701,339.401,351.109z"/><path fill="#41479B" d="M340.358,351.466c-0.202,0.5,0.27,0.972,0.77,0.769c0.129-0.052,0.239-0.162,0.292-0.292 c0.202-0.5-0.27-0.972-0.77-0.769C340.52,351.227,340.411,351.336,340.358,351.466z"/><path fill="#F5F5F5" d="M336.368,345.45c-0.333,1.042,0.613,1.989,1.655,1.655c0.374-0.12,0.683-0.428,0.802-0.802 c0.333-1.042-0.613-1.989-1.655-1.655C336.796,344.767,336.488,345.076,336.368,345.45z"/><path fill="#41479B" d="M337.165,345.684c-0.162,0.405,0.219,0.787,0.624,0.624c0.107-0.043,0.197-0.133,0.239-0.239 c0.162-0.405-0.219-0.786-0.624-0.624C337.298,345.487,337.208,345.577,337.165,345.684z"/><path fill="#FFF5E6" d="M383.641,377.213c1.476,1.136,6.584-1.368,10.175-0.171c4.641,1.547,4.603,4.53,4.603,4.53 s-2.892-3.59-7.709-1.823c-2.665,0.978-4.215,1.028-4.215,1.028L383.641,377.213z"/></svg>