<?xml version="1.0" encoding="iso-8859-1"?>
<!-- Generator: Adobe Illustrator 19.0.0, SVG Export Plug-In . SVG Version: 6.00 Build 0)  -->
<svg xmlns:xlink="http://www.w3.org/1999/xlink" xmlns="http://www.w3.org/2000/svg" version="1.1" id="Layer_1" x="0px"
     y="0px" viewBox="0 0 512 512" style="enable-background:new 0 0 512 512;" xml:space="preserve">
<path style="fill:#41479B;" d="M400,0h-58.667v512H400c61.856,0,112-50.144,112-112V112C512,50.144,461.856,0,400,0z"/>
    <rect x="170.67" style="fill:#FFE15A;" width="170.67" height="512"/>
    <path style="fill:#41479B;" d="M112,0C50.144,0,0,50.144,0,112v288c0,61.856,50.144,112,112,112h58.667V0H112z"/>
    <polygon style="fill:#FF4B55;"
             points="300.138,233.931 278.069,233.931 278.069,211.862 291.31,194.207 278.069,194.207   233.931,194.207 220.69,194.207 233.931,211.862 233.931,233.931 211.862,233.931 194.207,220.69 194.207,233.931 194.207,278.069   194.207,291.31 211.862,278.069 233.931,278.069 233.931,300.138 220.69,317.793 233.931,317.793 278.069,317.793 291.31,317.793   278.069,300.138 278.069,278.069 300.138,278.069 317.793,291.31 317.793,278.069 317.793,233.931 317.793,220.69 "/>
    <polygon style="fill:#F5F5F5;"
             points="300.138,247.172 264.828,247.172 264.828,211.862 247.172,211.862 247.172,247.172   211.862,247.172 211.862,264.828 247.172,264.828 247.172,300.138 264.828,300.138 264.828,264.828 300.138,264.828 "/>
    <g>
</g>
    <g>
</g>
    <g>
</g>
    <g>
</g>
    <g>
</g>
    <g>
</g>
    <g>
</g>
    <g>
</g>
    <g>
</g>
    <g>
</g>
    <g>
</g>
    <g>
</g>
    <g>
</g>
    <g>
</g>
    <g>
</g>
</svg>
