<svg xmlns="http://www.w3.org/2000/svg" xmlns:xlink="http://www.w3.org/1999/xlink" id="Layer_1" x="0" y="0" enable-background="new 0 0 512 512" version="1.1" viewBox="0 0 512 512" xml:space="preserve"><g><path fill="#41479B" d="M400,0H112C53.379,0,5.284,45.039,0.414,102.4h511.172C506.716,45.039,458.621,0,400,0z"/><path fill="#41479B" d="M112,512h288c58.621,0,106.716-45.039,111.586-102.4H0.414C5.284,466.961,53.379,512,112,512z"/></g><path fill="#F5F5F5" d="M0.414,102.4C0.145,105.565,0,108.765,0,112v92.8h512V112c0-3.235-0.145-6.435-0.414-9.6H0.414z"/><rect width="512" height="102.4" y="204.8" fill="#41479B"/><path fill="#F5F5F5" d="M0,400c0,3.235,0.145,6.435,0.414,9.6h511.172c0.269-3.165,0.414-6.365,0.414-9.6v-92.8H0V400z"/><path fill="#FF4B55" d="M253.908,250.09L33.056,32.558C12.641,52.846,0,80.946,0,112v288 c0,31.054,12.641,59.154,33.056,79.442L253.908,261.91C256.697,259.164,256.697,252.836,253.908,250.09z"/><path fill="#F5F5F5" d="M102.751,191.042l13.834,41.479l43.723,0.339c3.387,0.026,4.792,4.349,2.067,6.361l-35.174,25.974 l13.189,41.688c1.022,3.23-2.656,5.901-5.411,3.932l-35.572-25.426l-35.572,25.426c-2.756,1.97-6.433-0.702-5.411-3.932 l13.189-41.688l-35.174-25.974c-2.725-2.012-1.32-6.335,2.067-6.361l43.724-0.339l13.834-41.479 C97.133,187.828,101.679,187.828,102.751,191.042z"/></svg>