<svg xmlns="http://www.w3.org/2000/svg" xmlns:xlink="http://www.w3.org/1999/xlink" id="Layer_1" x="0" y="0" enable-background="new 0 0 512 512" version="1.1" viewBox="0 0 512 512" xml:space="preserve"><g><path fill="#41479B" d="M112,512h288c55.678,0,101.859-40.631,110.53-93.858H1.47C10.141,471.369,56.322,512,112,512z"/><path fill="#41479B" d="M400,0H112C56.322,0,10.141,40.631,1.47,93.858h509.06C501.859,40.631,455.678,0,400,0z"/></g><path fill="#F5F5F5" d="M1.47,93.858C0.508,99.764,0,105.822,0,112v288c0,6.178,0.508,12.236,1.47,18.142h509.06 c0.962-5.906,1.47-11.964,1.47-18.142V112c0-6.178-0.508-12.236-1.47-18.142H1.47z"/><path fill="#41479B" d="M317.474,256l30.734-53.234h-61.469L256,149.523l-30.739,53.243h-61.469L194.526,256l-30.734,53.234 h61.469L256,362.477l30.739-53.243h61.469L317.474,256z M318.054,220.176l-10.632,18.415l-10.632-18.415H318.054z M297.371,256 l-20.683,35.824h-41.376L214.629,256l20.683-35.824h41.376L297.371,256z M256,184.344l10.636,18.422h-21.272L256,184.344z M193.946,220.176h21.264l-10.632,18.415L193.946,220.176z M193.946,291.824l10.632-18.415l10.632,18.415H193.946z M256,327.656 l-10.636-18.422h21.272L256,327.656z M307.422,273.409l10.632,18.415h-21.263L307.422,273.409z"/></svg>