<svg xmlns="http://www.w3.org/2000/svg" xmlns:xlink="http://www.w3.org/1999/xlink" id="Layer_1" x="0" y="0" enable-background="new 0 0 512 512" version="1.1" viewBox="0 0 512 512" xml:space="preserve"><path fill="#FF4B55" d="M405.409,0.066H106.591C47.248,2.888,0,51.891,0,111.934v58.711h512v-58.711 C512,51.891,464.752,2.888,405.409,0.066z"/><path fill="#464655" d="M0,399.934c0,61.856,50.144,112,112,112h288c61.856,0,112-50.144,112-112v-58.711H0V399.934z"/><rect width="512" height="170.58" y="170.65" fill="#F5F5F5"/><path fill="#F0C727" d="M293.79,232.565c0-5.869-5.75-10.013-11.318-8.157l-10.462,3.488l-2.54-15.342 c-1.519-9.152-9.361-15.795-18.643-15.795h-9.786l-10.235,12.597h13.552l-3.793,18.733l-11.038-3.68 c-5.568-1.856-11.318,2.288-11.318,8.157v63.65l15.234-15.234l-7.179,21.533h-8.056v12.597h75.58v-12.597h-8.056l-7.179-21.533 l15.234,15.234v-63.651L293.79,232.565L293.79,232.565z M249.702,302.513h-10.155l6.983-18.648l3.172,4.051V302.513z M262.298,302.513v-14.597l3.172-4.051l6.983,18.648L262.298,302.513L262.298,302.513z M256,279.682c0,0-19.485-13.187-18.698-37.79 c0,0,12.006-1.968,18.698-12.597c6.692,10.628,18.698,12.597,18.698,12.597C275.485,266.495,256,279.682,256,279.682z"/></svg>