<?xml version="1.0" encoding="iso-8859-1"?>
<!-- Generator: Adobe Illustrator 19.0.0, SVG Export Plug-In . SVG Version: 6.00 Build 0)  -->
<svg xmlns:xlink="http://www.w3.org/1999/xlink" xmlns="http://www.w3.org/2000/svg" version="1.1" id="Layer_1" x="0px"
     y="0px" viewBox="0 0 512 512" style="enable-background:new 0 0 512 512;" xml:space="preserve">
<path style="fill:#41479B;"
      d="M512,400V112C512,50.144,461.856,0,400,0H112C50.151,0,0.011,50.134,0,111.981V400.02  C0.011,461.866,50.151,512,112,512h288C461.856,512,512,461.856,512,400z"/>
    <rect y="121.26" style="fill:#FF4B55;" width="512" height="269.47"/>
    <polygon style="fill:#F5F5F5;"
             points="434.298,358.16 434.298,339.057 427.93,339.057 427.93,326.321 421.562,326.321   421.562,313.586 415.194,313.586 415.194,300.85 396.091,300.85 396.091,262.644 396.089,262.644 402.459,256.276 402.459,237.172   396.091,237.172 396.091,224.437 389.723,224.437 389.723,205.334 383.356,205.334 383.356,192.598 376.988,192.598   376.988,179.863 370.62,179.863 370.62,173.495 357.884,173.495 357.884,179.863 351.517,179.863 351.517,192.598 345.149,192.598   345.149,205.334 338.781,205.334 338.781,224.437 332.414,224.437 332.414,237.172 294.207,237.172 294.207,218.069   287.839,218.069 287.839,198.966 281.471,198.966 281.471,179.863 275.104,179.863 275.104,167.127 268.736,167.127   268.736,154.391 262.368,154.391 262.368,148.024 259.184,148.024 259.184,141.656 252.816,141.656 252.816,148.024   249.633,148.024 249.633,154.391 243.265,154.391 243.265,167.127 236.897,167.127 236.897,179.863 230.529,179.863   230.529,198.966 224.161,198.966 224.161,218.069 217.794,218.069 217.794,237.172 179.587,237.172 179.587,224.437   173.219,224.437 173.219,205.334 166.852,205.334 166.852,192.598 160.484,192.598 160.484,179.863 154.116,179.863   154.116,173.495 141.38,173.495 141.38,179.863 135.013,179.863 135.013,192.598 128.645,192.598 128.645,205.334 122.277,205.334   122.277,224.437 115.909,224.437 115.909,237.172 109.542,237.172 109.542,256.276 115.906,262.644 115.909,262.644 115.909,300.85   96.806,300.85 96.806,313.586 90.438,313.586 90.438,326.321 84.071,326.321 84.071,339.057 77.703,339.057 77.703,358.16   71.335,358.16 71.335,377.263 440.665,377.263 440.665,358.16 "/>
    <g>
</g>
    <g>
</g>
    <g>
</g>
    <g>
</g>
    <g>
</g>
    <g>
</g>
    <g>
</g>
    <g>
</g>
    <g>
</g>
    <g>
</g>
    <g>
</g>
    <g>
</g>
    <g>
</g>
    <g>
</g>
    <g>
</g>
</svg>
