<svg xmlns="http://www.w3.org/2000/svg" xmlns:xlink="http://www.w3.org/1999/xlink" id="Layer_1" x="0" y="0" enable-background="new 0 0 512 512" version="1.1" viewBox="0 0 512 512" xml:space="preserve"><path fill="#4173CD" d="M400,0h-288c-61.856,0-112,50.144-112,112v288c0,61.856,50.144,112,112,112h288 c61.827,0,111.952-50.097,111.999-111.913V111.913C511.953,50.097,461.828,0,400,0z"/><path fill="#F5F5F5" d="M255.999,384c-70.578,0-128-57.422-128-128s57.422-128,128-128s128,57.422,128,128 S326.578,384,255.999,384z M255.999,154.483c-55.979,0-101.517,45.539-101.517,101.517s45.539,101.517,101.517,101.517 S357.516,311.978,357.516,256S311.977,154.483,255.999,154.483z"/><g><path fill="#FFDC00" d="M255.999,375.172c-65.711,0-119.172-53.461-119.172-119.172s53.461-119.172,119.172-119.172 S375.172,190.289,375.172,256S321.711,375.172,255.999,375.172z M255.999,145.655c-60.845,0-110.345,49.5-110.345,110.345 s49.5,110.345,110.345,110.345S366.344,316.845,366.344,256S316.844,145.655,255.999,145.655z"/><path fill="#FFDC00" d="M149.293,252.246c3.214,7.701-4.104,15.019-11.805,11.805c-1.932-0.806-3.491-2.365-4.297-4.297 c-3.214-7.702,4.103-15.019,11.805-11.805C146.926,248.755,148.486,250.314,149.293,252.246z"/><path fill="#FFDC00" d="M378.81,252.246c3.214,7.701-4.103,15.019-11.805,11.805c-1.932-0.806-3.491-2.365-4.297-4.297 c-3.214-7.702,4.104-15.019,11.805-11.805C376.445,248.755,378.003,250.314,378.81,252.246z"/><path fill="#FFDC00" d="M259.753,149.292c-7.701,3.214-15.019-4.104-11.805-11.805c0.806-1.932,2.365-3.491,4.297-4.297 c7.702-3.214,15.019,4.103,11.805,11.805C263.245,146.927,261.685,148.486,259.753,149.292z"/><path fill="#FFDC00" d="M183.202,177.892c-3.173,7.719-13.522,7.719-16.695,0c-0.796-1.936-0.796-4.141,0-6.077 c3.173-7.719,13.522-7.719,16.695,0C183.997,173.751,183.997,175.956,183.202,177.892z"/><path fill="#FFDC00" d="M334.107,183.201c-7.719-3.173-7.719-13.522,0-16.695c1.936-0.796,4.141-0.796,6.077,0 c7.719,3.173,7.719,13.522,0,16.695C338.248,183.997,336.044,183.997,334.107,183.201z"/><path fill="#FFDC00" d="M368.024,205.535c5.917,5.885,1.956,15.446-6.389,15.424c-2.094-0.006-4.13-0.849-5.615-2.326 c-5.917-5.885-1.956-15.446,6.389-15.424C364.503,203.215,366.539,204.058,368.024,205.535z"/><path fill="#FFDC00" d="M218.633,155.979c-5.885,5.917-15.446,1.956-15.424-6.389c0.006-2.094,0.849-4.13,2.326-5.615 c5.885-5.917,15.446-1.956,15.424,6.389C220.952,152.458,220.109,154.494,218.633,155.979z"/><path fill="#FFDC00" d="M158.852,211.697c0.022,8.345-9.539,12.306-15.424,6.389c-1.477-1.484-2.32-3.521-2.326-5.615 c-0.022-8.345,9.539-12.306,15.424-6.389C158.003,207.566,158.846,209.603,158.852,211.697z"/><path fill="#FFDC00" d="M300.302,158.852c-8.345,0.022-12.306-9.539-6.389-15.424c1.484-1.477,3.521-2.32,5.615-2.326 c8.345-0.022,12.306,9.539,6.389,15.424C304.432,158.003,302.396,158.846,300.302,158.852z"/><path fill="#FFDC00" d="M375.716,228.359c4.655,6.926-1.094,15.531-9.275,13.881c-2.052-0.414-3.885-1.639-5.053-3.376 c-4.655-6.926,1.095-15.531,9.275-13.881C372.716,225.397,374.549,226.622,375.716,228.359z"/><path fill="#FFDC00" d="M238.865,150.611c-6.926,4.655-15.531-1.094-13.881-9.275c0.414-2.052,1.639-3.885,3.376-5.053 c6.926-4.655,15.531,1.095,13.881,9.275C241.827,147.61,240.603,149.443,238.865,150.611z"/><path fill="#FFDC00" d="M169.361,193.595c-1.606,8.189-11.756,10.208-16.374,3.257c-1.159-1.744-1.589-3.906-1.186-5.96 c1.606-8.189,11.756-10.208,16.374-3.257C169.333,189.379,169.765,191.541,169.361,193.595z"/><path fill="#FFDC00" d="M318.404,169.361c-8.189-1.606-10.208-11.756-3.257-16.374c1.744-1.159,3.906-1.589,5.96-1.186 c8.189,1.606,10.208,11.756,3.257,16.374C322.62,169.334,320.458,169.764,318.404,169.361z"/><path fill="#FFDC00" d="M356.026,184.649c6.951,4.618,4.932,14.768-3.257,16.374c-2.055,0.403-4.216-0.027-5.96-1.186 c-6.951-4.618-4.932-14.768,3.257-16.374C352.12,183.061,354.284,183.491,356.026,184.649z"/><path fill="#FFDC00" d="M199.839,165.19c-4.618,6.951-14.768,4.932-16.374-3.257c-0.403-2.055,0.027-4.217,1.186-5.96 c4.618-6.951,14.768-4.932,16.374,3.257C201.426,161.285,200.995,163.447,199.839,165.19z"/><path fill="#FFDC00" d="M152.076,231.501c1.65,8.181-6.955,13.93-13.881,9.275c-1.738-1.168-2.962-3.001-3.376-5.053 c-1.65-8.181,6.955-13.93,13.881-9.275C150.437,227.615,151.661,229.448,152.076,231.501z"/><path fill="#FFDC00" d="M280.498,152.075c-8.181,1.65-13.93-6.955-9.275-13.881c1.168-1.738,3.001-2.962,5.053-3.376 c8.181-1.65,13.93,6.955,9.275,13.881C284.383,150.437,282.552,151.661,280.498,152.075z"/></g><path fill="#FFA000" d="M370.758,260.414c-2.44,0-4.414-1.974-4.414-4.414c0-60.845-49.5-110.345-110.345-110.345 S145.656,195.155,145.656,256c0,2.44-1.974,4.414-4.414,4.414s-4.414-1.974-4.414-4.414c0-65.711,53.461-119.172,119.172-119.172 S375.172,190.289,375.172,256C375.172,258.44,373.198,260.414,370.758,260.414z"/><path fill="#B4B4B4" d="M280.526,388.414h-49.054c-10.482,0-18.656-9.079-17.558-19.503l15.602-148.221h52.965 l15.602,148.221C299.182,379.335,291.008,388.414,280.526,388.414z"/><path fill="#AAA" d="M282.232,220.69h-52.672c-2.321,0-4.269-1.748-4.52-4.055l-3.29-30.302 c-0.567-5.222,3.523-9.781,8.776-9.781h50.945c5.253,0,9.343,4.559,8.776,9.781l-3.268,30.097 C286.716,218.853,284.669,220.69,282.232,220.69z"/><path fill="#F5F5F5" d="M258.044,186.833l16.364,47.078l49.831,1.016c2.051,0.042,2.898,2.649,1.263,3.888l-39.717,30.111 l14.433,47.706c0.594,1.964-1.623,3.575-3.308,2.403L256,290.567l-40.911,28.468c-1.684,1.172-3.902-0.439-3.308-2.403 l14.433-47.706l-39.717-30.111c-1.635-1.24-0.788-3.846,1.263-3.888l49.831-1.016l16.364-47.078 C254.63,184.895,257.37,184.895,258.044,186.833z"/></svg>