<svg xmlns="http://www.w3.org/2000/svg" xmlns:xlink="http://www.w3.org/1999/xlink" id="Layer_1" x="0" y="0" enable-background="new 0 0 512 512" version="1.1" viewBox="0 0 512 512" xml:space="preserve"><path fill="#FF4B55" d="M400,0H112C74.581,0,41.454,18.354,21.115,46.545h469.77C470.546,18.354,437.418,0,400,0z"/><path fill="#F5F5F5" d="M490.885,46.545H21.115C11.335,60.101,4.516,75.93,1.597,93.091h508.805 C507.484,75.93,500.665,60.101,490.885,46.545z"/><path fill="#FF4B55" d="M1.597,93.091C0.552,99.239,0,105.554,0,112v27.637h512V112c0-6.446-0.552-12.761-1.597-18.909H1.597 z"/><rect width="512" height="46.545" y="139.64" fill="#F5F5F5"/><polygon fill="#FF4B55" points="0 215.579 13.471 215.579 13.474 232.727 512 232.727 512 186.182 0 186.182"/><polygon fill="#F5F5F5" points="13.471 215.579 0 215.579 0 224.727 0 279.273 512 279.273 512 232.727 13.474 232.727"/><rect width="512" height="46.546" y="279.27" fill="#FF4B55"/><rect width="512" height="46.545" y="325.82" fill="#F5F5F5"/><path fill="#FF4B55" d="M0,400c0,6.446,0.552,12.762,1.597,18.909h508.805C511.448,412.762,512,406.446,512,400v-27.636H0 V400z"/><path fill="#F5F5F5" d="M21.115,465.455h469.77c9.78-13.555,16.599-29.385,19.518-46.545H1.597 C4.516,436.07,11.335,451.899,21.115,465.455z"/><path fill="#FF4B55" d="M112,512h288c37.418,0,70.546-18.354,90.885-46.545H21.115C41.454,493.646,74.581,512,112,512z"/><path fill="#41479B" d="M229.053,0H112C50.144,0,0,50.144,0,112v120.727h229.053V0z"/><path fill="#F5F5F5" d="M110.677,60.23L97.813,98.801l-40.658,0.315c-3.899,0.03-5.516,5.006-2.379,7.322l32.708,24.153 L75.22,169.356c-1.176,3.717,3.057,6.793,6.229,4.525l33.078-23.643l33.078,23.643c3.172,2.267,7.405-0.808,6.229-4.525 l-12.264-38.765l32.708-24.153c3.136-2.316,1.52-7.292-2.379-7.322l-40.658-0.315l-12.864-38.57 C117.142,56.531,111.91,56.531,110.677,60.23z"/></svg>