<svg xmlns="http://www.w3.org/2000/svg" xmlns:xlink="http://www.w3.org/1999/xlink" id="Layer_1" x="0" y="0" enable-background="new 0 0 512 512" version="1.1" viewBox="0 0 512 512" xml:space="preserve"><g><path fill="#F5F5F5" d="M268.737,56.648v56.889H512v-1.295c0-20.233-5.367-39.212-14.752-55.594 C497.248,56.648,268.737,56.648,268.737,56.648z"/><rect width="243.26" height="56.888" x="268.74" y="170.43" fill="#F5F5F5"/><rect width="512" height="56.889" y="284.2" fill="#F5F5F5"/></g><rect width="512" height="56.889" y="341.09" fill="#41479B"/><path fill="#F5F5F5" d="M0,400.241c0,19.838,5.165,38.467,14.212,54.628h483.575c9.048-16.161,14.212-34.79,14.212-54.628 v-2.261H0V400.241z"/><g><path fill="#41479B" d="M101.624,511.759h308.751c37.617-3.456,69.845-25.51,87.412-56.889H14.212 C31.78,486.249,64.007,508.302,101.624,511.759z"/><path fill="#41479B" d="M268.737,113.536V56.648h228.511C477.941,22.947,441.623,0.241,400,0.241H112 c-61.856,0-112,50.144-112,112v171.961h512v-56.889l0,0H268.737v-56.888v-0.001H512v-56.888L268.737,113.536L268.737,113.536z"/></g><polygon fill="#F5F5F5" points="269.474 114.019 163.181 114.019 163.181 .241 106.293 .241 106.293 114.019 0 114.019 0 170.907 106.293 170.907 106.293 284.685 163.181 284.685 163.181 170.907 269.474 170.907"/></svg>