<svg xmlns="http://www.w3.org/2000/svg" xmlns:xlink="http://www.w3.org/1999/xlink" id="Layer_1" x="0" y="0" enable-background="new 0 0 512 512" version="1.1" viewBox="0 0 512 512" xml:space="preserve"><path fill="#3CC8FF" d="M511.974,400V112c0-61.856-50.144-112-112-112h-288C51.224,0,1.775,48.368,0.026,108.695v294.61 C1.775,463.632,51.224,512,111.974,512h288C461.83,512,511.974,461.856,511.974,400z"/><polygon fill="#464655" points="256.026 114.759 132.44 397.241 379.612 397.241"/><path fill="#F5F5F5" d="M256.026,158.807l96.591,220.78H159.435L256.026,158.807 M256.026,114.759L132.44,397.241h247.172 L256.026,114.759L256.026,114.759z"/><polygon fill="#FFE15A" points="132.44 397.241 256.026 256 379.612 397.241"/></svg>