<svg xmlns="http://www.w3.org/2000/svg" xmlns:xlink="http://www.w3.org/1999/xlink" id="Layer_1" x="0" y="0" enable-background="new 0 0 512 512" version="1.1" viewBox="0 0 512 512" xml:space="preserve"><path fill="#FF4B55" d="M400,0H112C50.144,0,0,50.144,0,112v288c0,61.856,50.144,112,112,112h288 c61.856,0,112-50.144,112-112V112C512,50.144,461.856,0,400,0z"/><g><path fill="#F5F5F5" d="M27.338,38.674L361.931,512h26.483L43.188,23.631C37.428,28.122,32.118,33.161,27.338,38.674z"/><path fill="#F5F5F5" d="M123.586,0l345.226,488.369c5.759-4.491,11.07-9.53,15.849-15.043L150.069,0H123.586z"/></g><path fill="#464655" d="M112,0C86.056,0,62.175,8.825,43.188,23.631L388.414,512H400c25.944,0,49.825-8.824,68.812-23.631 L123.586,0H112z"/></svg>