<?xml version="1.0" encoding="iso-8859-1"?>
<!-- Generator: Adobe Illustrator 19.0.0, SVG Export Plug-In . SVG Version: 6.00 Build 0)  -->
<svg xmlns:xlink="http://www.w3.org/1999/xlink" xmlns="http://www.w3.org/2000/svg" version="1.1" id="Layer_1" x="0px"
     y="0px" viewBox="0 0 512 512" style="enable-background:new 0 0 512 512;" xml:space="preserve">
<path style="fill:#FFE15A;"
      d="M400,0H112C50.144,0,0,50.144,0,112v288c0,61.856,50.144,112,112,112h288  c61.856,0,112-50.144,112-112V112C512,50.144,461.856,0,400,0z"/>
    <g>
	<path style="fill:#41479B;" d="M94.316,1.395C67.937,5.579,44.627,18.971,27.779,38.177L94.316,81.77V1.395z"/>
        <path style="fill:#41479B;" d="M7.021,72.899C4.469,79.746,2.569,86.91,1.394,94.316H39.71L7.021,72.899z"/>
        <polygon style="fill:#41479B;" points="0,161.684 0,187.701 39.71,161.684  "/>
        <polygon style="fill:#41479B;" points="256,19.977 256,0 161.684,0 161.684,81.77  "/>
        <polygon style="fill:#41479B;" points="256,187.701 256,161.684 216.29,161.684  "/>
        <polygon style="fill:#41479B;" points="161.684,256 256,256 256,236.023 161.684,174.23  "/>
        <polygon style="fill:#41479B;" points="256,94.316 256,68.299 216.29,94.316  "/>
        <polygon style="fill:#41479B;" points="94.316,174.23 0,236.023 0,256 94.316,256  "/>
</g>
    <g>
	<polygon style="fill:#F5F5F5;"
             points="148.21,256 161.684,256 161.684,174.23 256,236.023 256,216.059 172.232,161.684    196.98,161.684 256,199.995 256,187.701 216.29,161.684 256,161.684 256,148.21 148.21,148.21  "/>
        <polygon style="fill:#F5F5F5;"
                 points="94.316,256 107.789,256 107.789,148.21 0,148.21 0,161.684 39.71,161.684 0,187.701    0,206.602 69.197,161.684 93.945,161.684 0,222.666 0,236.023 94.316,174.23  "/>
        <path style="fill:#F5F5F5;"
              d="M107.789,0.087c-4.566,0.169-9.063,0.608-13.474,1.308V81.77L27.779,38.177   c-4.005,4.566-7.643,9.46-10.872,14.637l63.935,41.502H56.094L10.461,64.694c-1.251,2.68-2.4,5.415-3.44,8.205L39.71,94.316H1.394   c-0.7,4.411-1.139,8.907-1.308,13.474h107.703V0.087z"/>
        <polygon style="fill:#F5F5F5;"
                 points="256,107.79 256,94.316 216.29,94.316 256,68.299 256,49.157 186.432,94.316 161.684,94.316    256,33.092 256,19.977 161.684,81.77 161.684,0 148.21,0 148.21,107.79  "/>
</g>
    <g>
	<path style="fill:#FF4B55;"
          d="M107.789,256h40.421V148.21H256v-40.42H148.21V0H112c-1.411,0-2.813,0.035-4.211,0.087V107.79H0.087   C0.035,109.188,0,110.589,0,112v36.21h107.789V256z"/>
        <polygon style="fill:#FF4B55;" points="69.197,161.684 0,206.602 0,222.666 93.945,161.684  "/>
        <polygon style="fill:#FF4B55;" points="172.232,161.684 256,216.059 256,199.995 196.98,161.684  "/>
        <path style="fill:#FF4B55;"
              d="M80.842,94.316L16.907,52.814c-2.378,3.813-4.533,7.778-6.447,11.88l45.634,29.622H80.842z"/>
        <polygon style="fill:#FF4B55;" points="186.432,94.316 256,49.157 256,33.092 161.684,94.316  "/>
</g>
    <path style="fill:#41479B;"
          d="M160.662,102.774c25.689,40.615-17.273,83.578-57.888,57.888c-2.994-1.894-5.542-4.442-7.435-7.435  c-25.689-40.616,17.273-83.578,57.888-57.888C156.22,97.232,158.768,99.78,160.662,102.774z"/>
    <g>
	<path style="fill:#FFE15A;"
          d="M130.221,94.611l6.753,20.248l21.344,0.165c2.763,0.021,3.909,3.548,1.686,5.19l-17.17,12.679   l6.438,20.35c0.833,2.635-2.166,4.814-4.415,3.207l-17.365-12.412l-17.365,12.412c-2.248,1.607-5.248-0.573-4.414-3.207   l6.438-20.35l-17.17-12.679c-2.223-1.642-1.077-5.168,1.686-5.19l21.344-0.165l6.753-20.248   C125.638,91.99,129.346,91.99,130.221,94.611z"/>
        <path style="fill:#FFE15A;"
              d="M49.577,110.837l3.631,10.887l11.475,0.089c1.486,0.012,2.102,1.908,0.907,2.79l-9.232,6.817   l3.461,10.941c0.448,1.416-1.165,2.588-2.373,1.724l-9.336-6.673l-9.336,6.673c-1.209,0.864-2.822-0.308-2.374-1.724l3.462-10.941   l-9.232-6.817c-1.195-0.883-0.579-2.779,0.907-2.79l11.476-0.089l3.631-10.887C47.114,109.428,49.107,109.428,49.577,110.837z"/>
        <path style="fill:#FFE15A;"
              d="M209.356,110.837l3.631,10.887l11.476,0.089c1.486,0.012,2.102,1.908,0.907,2.79l-9.232,6.817   l3.462,10.941c0.448,1.416-1.165,2.588-2.374,1.724l-9.336-6.673l-9.336,6.673c-1.209,0.864-2.822-0.308-2.373-1.724l3.462-10.941   l-9.232-6.817c-1.195-0.883-0.579-2.779,0.907-2.79l11.475-0.089l3.631-10.887C206.893,109.428,208.886,109.428,209.356,110.837z"/>
        <path style="fill:#FFE15A;"
              d="M129.132,29.057l3.631,10.886l11.476,0.089c1.486,0.011,2.102,1.907,0.907,2.79l-9.232,6.817   l3.462,10.941c0.448,1.417-1.165,2.588-2.374,1.724l-9.336-6.673l-9.336,6.673c-1.209,0.864-2.822-0.308-2.373-1.724l3.462-10.941   l-9.232-6.817c-1.195-0.883-0.579-2.779,0.907-2.79l11.476-0.089l3.631-10.886C126.669,27.648,128.662,27.648,129.132,29.057z"/>
        <path style="fill:#FFE15A;"
              d="M129.132,194.543l3.631,10.887l11.476,0.089c1.486,0.012,2.102,1.908,0.907,2.79l-9.232,6.817   l3.462,10.941c0.448,1.417-1.165,2.588-2.374,1.724l-9.336-6.673l-9.336,6.673c-1.209,0.864-2.822-0.308-2.373-1.724l3.462-10.941   l-9.232-6.817c-1.195-0.883-0.579-2.779,0.907-2.79l11.476-0.089l3.631-10.887C126.669,193.133,128.662,193.133,129.132,194.543z"/>
</g>
    <g>
</g>
    <g>
</g>
    <g>
</g>
    <g>
</g>
    <g>
</g>
    <g>
</g>
    <g>
</g>
    <g>
</g>
    <g>
</g>
    <g>
</g>
    <g>
</g>
    <g>
</g>
    <g>
</g>
    <g>
</g>
    <g>
</g>
</svg>
