<?xml version="1.0" encoding="iso-8859-1"?>
<!-- Generator: Adobe Illustrator 19.0.0, SVG Export Plug-In . SVG Version: 6.00 Build 0)  -->
<svg xmlns:xlink="http://www.w3.org/1999/xlink" xmlns="http://www.w3.org/2000/svg" version="1.1" id="Layer_1" x="0px"
     y="0px" viewBox="0 0 512 512" style="enable-background:new 0 0 512 512;" xml:space="preserve">
<path style="fill:#464655;"
      d="M511.974,400V112c0-61.856-50.144-112-112-112h-288C51.224,0,1.775,48.368,0.026,108.695v294.61  C1.775,463.632,51.224,512,111.974,512h288C461.83,512,511.974,461.856,511.974,400z"/>
    <path style="fill:#FFE15A;"
          d="M511.974,269.474v-26.947H249.471L19.475,48.841c-4.513,6.597-8.336,13.701-11.372,21.208  L228.923,256L8.104,441.951c3.035,7.508,6.859,14.612,11.372,21.208l229.995-193.686h262.503V269.474z"/>
    <path style="fill:#73AF00;"
          d="M511.974,400V296.421H256.026L35.653,481.96C55.655,500.594,82.481,512,111.974,512h288  C461.83,512,511.974,461.856,511.974,400z"/>
    <path style="fill:#FF4B55;"
          d="M511.974,215.579V112c0-61.856-50.144-112-112-112h-288C82.481,0,55.655,11.406,35.653,30.04  l220.373,185.539L511.974,215.579L511.974,215.579z"/>
    <g>
	<path style="fill:#FFE15A;"
          d="M94.345,198.811c-29.413-9.253-51.619,12.12-56.694,23.121   c-4.299,9.321-12.282,51.541,27.518,58.274c39.799,6.733,39.351-30.822,39.351-30.822c-1.795,5.985-5.013,23.042-33.741,23.042   c-10.775,0-26.259-16.01-23.341-33.665c2.745-16.613,17.586-25.112,28.803-25.585c10.622-0.448,35.385,6.882,35.385,37.032   c0,33.889-34.927,37.704-34.927,37.704v20.462c30.404-2.981,47.608-19.822,52.163-46.798   C133.397,234.721,124.252,208.22,94.345,198.811z"/>
        <path style="fill:#FFE15A;"
              d="M61.777,249.064c-0.694,0.881-1.064,1.977-1.082,3.098l-0.086,5.504l-1.071,1.869   c-0.387,0.675-0.157,1.536,0.515,1.928c0.68,0.398,1.553,0.164,1.944-0.521l1.098-1.921l4.396-1.592   c1.332-0.482,2.402-1.483,2.981-2.775c1.148-2.564,3.614-7.271,7.61-12.183c3.996,4.911,6.462,9.619,7.61,12.183   c0.579,1.291,1.649,2.293,2.98,2.775l4.397,1.592l1.098,1.921c0.39,0.685,1.265,0.919,1.944,0.521   c0.672-0.392,0.901-1.253,0.515-1.928l-1.071-1.869l-0.086-5.504c-0.017-1.121-0.388-2.217-1.082-3.098   c-3.682-4.676-7.599-8.353-11.458-11.606c3.084-2.898,6.571-5.666,10.962-7.802c1.017-0.495,1.547-1.635,1.285-2.734   c-0.357-1.5-1.998-2.288-3.396-1.636c-2.943,1.372-8.004,4.073-13.698,8.223c-5.694-4.15-10.754-6.851-13.697-8.223   c-1.398-0.652-3.039,0.136-3.396,1.636c-0.262,1.099,0.269,2.239,1.284,2.734c4.392,2.137,7.879,4.904,10.964,7.802   C69.376,240.71,65.459,244.387,61.777,249.064z"/>
</g>
    <g>
</g>
    <g>
</g>
    <g>
</g>
    <g>
</g>
    <g>
</g>
    <g>
</g>
    <g>
</g>
    <g>
</g>
    <g>
</g>
    <g>
</g>
    <g>
</g>
    <g>
</g>
    <g>
</g>
    <g>
</g>
    <g>
</g>
</svg>
