<svg xmlns="http://www.w3.org/2000/svg" xmlns:xlink="http://www.w3.org/1999/xlink" id="Layer_1" x="0" y="0" enable-background="new 0 0 512 512" version="1.1" viewBox="0 0 512 512" xml:space="preserve"><path fill="#FF4B55" d="M400.019,0H111.981C50.134,0.011,0,50.15,0,112v288c0,61.856,50.144,112,112,112h288 c61.856,0,112-50.144,112-112V112C512,50.15,461.866,0.011,400.019,0z"/><path fill="#F5F5F5" d="M256,231.031V0H112C50.144,0,0,50.144,0,112v126.532h248.5C252.642,238.532,256,235.174,256,231.031z"/><polygon fill="#FF4B55" points="218 88.035 157.965 88.035 157.965 28 97.93 28 97.93 88.035 37.895 88.035 37.895 148.07 97.93 148.07 97.93 208.105 157.965 208.105 157.965 148.07 218 148.07"/></svg>