<?xml version="1.0" encoding="iso-8859-1"?>
<!-- Generator: Adobe Illustrator 19.0.0, SVG Export Plug-In . SVG Version: 6.00 Build 0)  -->
<svg xmlns:xlink="http://www.w3.org/1999/xlink" xmlns="http://www.w3.org/2000/svg" version="1.1" id="Layer_1" x="0px"
     y="0px" viewBox="0 0 512 512" style="enable-background:new 0 0 512 512;" xml:space="preserve">
<path style="fill:#73AF00;"
      d="M112,0C50.15,0,0.011,50.134,0,111.98v288.04C0.011,461.866,50.15,512,112,512h58.667V0H112z"/>
    <rect x="170.67" style="fill:#F5F5F5;" width="170.67" height="512"/>
    <g>
	<path style="fill:#73AF00;"
          d="M512,400V112C512,50.144,461.856,0,400,0h-58.666v512H400C461.856,512,512,461.856,512,400z"/>
        <path style="fill:#73AF00;"
              d="M314.96,342.599l-27.396-159.812c-1.046-6.102-3.217-11.957-6.402-17.265L256,123.586   l-25.161,41.935c-3.185,5.309-5.356,11.163-6.402,17.265l-27.396,159.812c-0.523,3.053,1.828,5.841,4.925,5.841h44.041v39.974   h19.987V348.44h44.041C313.132,348.44,315.483,345.651,314.96,342.599z"/>
</g>
    <g>
</g>
    <g>
</g>
    <g>
</g>
    <g>
</g>
    <g>
</g>
    <g>
</g>
    <g>
</g>
    <g>
</g>
    <g>
</g>
    <g>
</g>
    <g>
</g>
    <g>
</g>
    <g>
</g>
    <g>
</g>
    <g>
</g>
</svg>
