<?xml version="1.0" encoding="iso-8859-1"?>
<!-- Generator: Adobe Illustrator 19.0.0, SVG Export Plug-In . SVG Version: 6.00 Build 0)  -->
<svg xmlns:xlink="http://www.w3.org/1999/xlink" xmlns="http://www.w3.org/2000/svg" version="1.1" id="Layer_1" x="0px"
     y="0px" viewBox="0 0 512 512" style="enable-background:new 0 0 512 512;" xml:space="preserve">
<path style="fill:#FF4B55;" d="M400,0H112C50.144,0,0,50.144,0,112v58.667h512V112C512,50.144,461.856,0,400,0z"/>
    <path style="fill:#464655;" d="M0,400c0,61.856,50.144,112,112,112h288c61.856,0,112-50.144,112-112v-58.667H0V400z"/>
    <rect y="170.67" style="fill:#F5F5F5;" width="512" height="170.67"/>
    <path style="fill:#73AF00;"
          d="M244.324,249.017L32.496,33.12C12.411,53.362,0,81.231,0,112v288  c0,30.769,12.411,58.638,32.496,78.88l211.829-215.897C247.817,259.414,247.817,252.586,244.324,249.017z"/>
    <g>
</g>
    <g>
</g>
    <g>
</g>
    <g>
</g>
    <g>
</g>
    <g>
</g>
    <g>
</g>
    <g>
</g>
    <g>
</g>
    <g>
</g>
    <g>
</g>
    <g>
</g>
    <g>
</g>
    <g>
</g>
    <g>
</g>
</svg>
