<svg xmlns="http://www.w3.org/2000/svg" xmlns:xlink="http://www.w3.org/1999/xlink" id="Layer_1" x="0" y="0" enable-background="new 0 0 512 512" version="1.1" viewBox="0 0 512 512" xml:space="preserve"><path fill="#FF4B55" d="M400,0H112C50.144,0,0,50.144,0,112v58.667h512V112C512,50.144,461.856,0,400,0z"/><path fill="#464655" d="M0,400c0,61.856,50.144,112,112,112h288c61.856,0,112-50.144,112-112v-58.667H0V400z"/><rect width="512" height="170.67" y="170.67" fill="#F5F5F5"/><path fill="#73AF00" d="M244.324,249.017L32.496,33.12C12.411,53.362,0,81.231,0,112v288 c0,30.769,12.411,58.638,32.496,78.88l211.829-215.897C247.817,259.414,247.817,252.586,244.324,249.017z"/></svg>