<svg xmlns="http://www.w3.org/2000/svg" xmlns:xlink="http://www.w3.org/1999/xlink" id="Layer_1" x="0" y="0" enable-background="new 0 0 512 512" version="1.1" viewBox="0 0 512 512" xml:space="preserve"><polygon fill="#464655" points="0 144.651 0 367.353 140.652 256"/><path fill="#FF4B55" d="M400,0H112c-10.146,0-19.973,1.357-29.32,3.886l216.342,171.272H512V112C512,50.144,461.856,0,400,0z"/><path fill="#41479B" d="M82.675,508.113C92.023,510.642,101.852,512,112,512h288c61.856,0,112-50.144,112-112v-63.158H299.02 L82.675,508.113z"/><path fill="#73AF00" d="M54.447,15.905C22.285,35.209,0.619,70.2,0.021,110.299L184.066,256L0.021,401.705 c0.599,40.096,22.263,75.083,54.422,94.387l235.201-186.198H512v-107.79H289.646L54.447,15.905z"/><path fill="#F5F5F5" d="M82.68,3.886c-10.04,2.716-19.522,6.791-28.233,12.019l235.199,186.2H512v-26.947H299.022 L82.68,3.886z"/><path fill="#FFE15A" d="M0.021,110.299C0.013,110.866,0,111.431,0,112v32.651L140.652,256L0,367.353V400 c0,0.57,0.013,1.137,0.021,1.705L184.066,256L0.021,110.299z"/><path fill="#F5F5F5" d="M54.443,496.092c8.711,5.229,18.192,9.303,28.232,12.02l216.345-171.27H512v-26.947H289.645 L54.443,496.092z"/></svg>