<?xml version="1.0" encoding="iso-8859-1"?>
<!-- Generator: Adobe Illustrator 19.0.0, SVG Export Plug-In . SVG Version: 6.00 Build 0)  -->
<svg xmlns:xlink="http://www.w3.org/1999/xlink" xmlns="http://www.w3.org/2000/svg" version="1.1" id="Layer_1" x="0px"
     y="0px" viewBox="0 0 512 512" style="enable-background:new 0 0 512 512;" xml:space="preserve">
<path style="fill:#FF4B55;"
      d="M400,0H112C50.144,0,0,50.144,0,112v288c0,61.856,50.144,112,112,112h288  c61.856,0,112-50.144,112-112V112C512,50.144,461.856,0,400,0z"/>
    <path style="fill:#41479B;"
          d="M3.75,256h243.125c5.04,0,9.125-4.085,9.125-9.125V3.75c0-2.071-1.679-3.75-3.75-3.75H112  C50.144,0,0,50.144,0,112v140.25C0,254.321,1.679,256,3.75,256z"/>
    <g>
	<path style="fill:#F5F5F5;"
          d="M88.287,128c0-10.962,4.442-20.886,11.623-28.072L66.636,90.41   c-1.932-0.553-3.316,1.846-1.872,3.242l24.899,24.075l-33.601,8.4c-1.949,0.487-1.949,3.257,0,3.744l33.601,8.4l-24.899,24.075   c-1.444,1.396-0.059,3.795,1.872,3.242l33.274-9.518C92.729,148.886,88.287,138.962,88.287,128z"/>
        <path style="fill:#F5F5F5;"
              d="M99.928,99.911c7.186-7.181,17.11-11.623,28.072-11.623s20.886,4.442,28.072,11.623l9.518-33.274   c0.553-1.932-1.846-3.316-3.243-1.872l-24.075,24.899l-8.4-33.601c-0.487-1.949-3.257-1.949-3.744,0l-8.4,33.601l-24.076-24.9   c-1.396-1.444-3.795-0.059-3.243,1.872L99.928,99.911z"/>
        <path style="fill:#F5F5F5;"
              d="M156.072,156.09c-7.186,7.181-17.11,11.623-28.072,11.623s-20.886-4.442-28.072-11.623   l-9.518,33.274c-0.553,1.931,1.846,3.316,3.243,1.872l24.075-24.899l8.4,33.601c0.487,1.949,3.257,1.949,3.744,0l8.4-33.601   l24.075,24.899c1.396,1.444,3.795,0.059,3.243-1.872L156.072,156.09z"/>
        <path style="fill:#F5F5F5;"
              d="M199.938,126.128l-33.601-8.4l24.899-24.075c1.444-1.396,0.059-3.795-1.872-3.242l-33.274,9.518   c7.181,7.186,11.623,17.11,11.623,28.072c0,10.961-4.442,20.886-11.623,28.072l33.274,9.518c1.932,0.552,3.316-1.846,1.872-3.242   l-24.899-24.075l33.601-8.4C201.887,129.385,201.887,126.615,199.938,126.128z"/>
        <circle style="fill:#F5F5F5;" cx="128" cy="128" r="31.621"/>
</g>
    <g>
</g>
    <g>
</g>
    <g>
</g>
    <g>
</g>
    <g>
</g>
    <g>
</g>
    <g>
</g>
    <g>
</g>
    <g>
</g>
    <g>
</g>
    <g>
</g>
    <g>
</g>
    <g>
</g>
    <g>
</g>
    <g>
</g>
</svg>
