<?xml version="1.0" encoding="iso-8859-1"?>
<!-- Generator: Adobe Illustrator 19.0.0, SVG Export Plug-In . SVG Version: 6.00 Build 0)  -->
<svg xmlns:xlink="http://www.w3.org/1999/xlink" xmlns="http://www.w3.org/2000/svg" version="1.1" id="Layer_1" x="0px"
     y="0px" viewBox="0 0 512 512" style="enable-background:new 0 0 512 512;" xml:space="preserve">
<path style="fill:#464655;" d="M400,0H112C50.144,0,0,50.144,0,112v58.667h512V112C512,50.144,461.856,0,400,0z"/>
    <path style="fill:#73AF00;" d="M0,400c0,61.856,50.144,112,112,112h288c61.856,0,112-50.144,112-112v-58.667H0V400z"/>
    <rect y="170.67" style="fill:#F5F5F5;" width="512" height="170.67"/>
    <g>
	<path style="fill:#FF4B55;"
          d="M244.324,249.017L32.496,33.12C12.411,53.362,0,81.231,0,112v288   c0,30.769,12.411,58.638,32.496,78.88l211.829-215.897C247.817,259.414,247.817,252.586,244.324,249.017z"/>
        <path style="fill:#FF4B55;"
              d="M317.408,255.08c0-30.733,20.073-56.769,47.821-65.735c1.594-0.515,1.385-2.849-0.282-3.013   c-5.327-0.524-10.831-0.441-16.452,0.347c-32.593,4.574-57.738,32.137-59.309,65.011c-1.897,39.693,29.723,72.469,68.999,72.469   c2.272,0,4.518-0.112,6.732-0.329c1.674-0.164,1.893-2.505,0.292-3.022C337.472,311.836,317.408,285.805,317.408,255.08z"/>
        <path style="fill:#FF4B55;"
              d="M376.06,209.694l-9.076,27.214l-28.687,0.222c-3.714,0.029-5.254,4.768-2.266,6.975l23.077,17.042   l-8.653,27.352c-1.12,3.541,2.912,6.47,5.933,4.311l23.339-16.682l23.339,16.682c3.022,2.16,7.053-0.77,5.933-4.311l-8.653-27.351   l23.077-17.042c2.988-2.206,1.448-6.946-2.266-6.975l-28.687-0.222l-9.076-27.214C382.219,206.171,377.236,206.171,376.06,209.694z   "/>
</g>
    <g>
</g>
    <g>
</g>
    <g>
</g>
    <g>
</g>
    <g>
</g>
    <g>
</g>
    <g>
</g>
    <g>
</g>
    <g>
</g>
    <g>
</g>
    <g>
</g>
    <g>
</g>
    <g>
</g>
    <g>
</g>
    <g>
</g>
</svg>
