<svg xmlns="http://www.w3.org/2000/svg" xmlns:xlink="http://www.w3.org/1999/xlink" id="Layer_1" x="0" y="0" enable-background="new 0 0 512 512" version="1.1" viewBox="0 0 512 512" xml:space="preserve"><path fill="#F5F5F5" d="M400,0H112C50.144,0,0,50.144,0,112v288c0,61.856,50.144,112,112,112h288 c61.856,0,112-50.144,112-112V112C512,50.144,461.856,0,400,0z"/><polygon fill="#FF4B55" points="512 202.105 309.895 202.105 309.895 0 202.105 0 202.105 202.105 0 202.105 0 309.895 202.105 309.895 202.105 512 309.895 512 309.895 309.895 512 309.895"/><g><polygon fill="#FFE15A" points="417.684 296.421 417.684 215.579 397.474 235.79 114.527 235.79 94.316 215.579 94.316 296.421 114.527 276.211 397.474 276.211"/><polygon fill="#FFE15A" points="215.579 417.684 296.421 417.684 276.211 397.474 276.211 114.526 296.421 94.316 215.579 94.316 235.79 114.526 235.79 397.474"/></g></svg>