<svg xmlns="http://www.w3.org/2000/svg" xmlns:xlink="http://www.w3.org/1999/xlink" id="Layer_1" x="0" y="0" enable-background="new 0 0 512 512" version="1.1" viewBox="0 0 512 512" xml:space="preserve"><path fill="#FF4B55" d="M400,0H112C50.144,0,0,50.144,0,112v288c0,61.856,50.144,112,112,112h288 c61.856,0,112-50.144,112-112V112C512,50.144,461.856,0,400,0z"/><path fill="#F5F5F5" d="M364.357,216.597h-68.955v-68.955c0-5.44-4.41-9.851-9.851-9.851h-59.104 c-5.44,0-9.851,4.41-9.851,9.851v68.955h-68.955c-5.44,0-9.851,4.41-9.851,9.851v59.104c0,5.44,4.41,9.851,9.851,9.851h68.955 v68.955c0,5.44,4.41,9.851,9.851,9.851h59.104c5.44,0,9.851-4.41,9.851-9.851v-68.955h68.955c5.44,0,9.851-4.41,9.851-9.851v-59.104 C374.208,221.008,369.798,216.597,364.357,216.597z"/></svg>