<svg xmlns="http://www.w3.org/2000/svg" xmlns:xlink="http://www.w3.org/1999/xlink" id="Layer_1" x="0" y="0" enable-background="new 0 0 512 512" version="1.1" viewBox="0 0 512 512" xml:space="preserve"><path fill="#4173CD" d="M400,0H112C50.144,0,0,50.144,0,112v144h512V112C512,50.144,461.856,0,400,0z"/><rect width="512" height="128" y="256" fill="#FFE15A"/><path fill="#73AF00" d="M0,400c0,61.856,50.144,112,112,112h288c61.856,0,112-50.144,112-112v-16H0V400z"/><g><path fill="#FFE15A" d="M429.901,137.13l55.151-9.13l-55.151-9.13l47.459-29.541L422.912,102l32.542-45.454L410,89.088 l12.67-54.448L393.129,82.1L384,26.947l-9.13,55.152l-29.541-47.46l12.67,54.448l-45.454-32.542l32.542,45.454l-54.448-12.671 l47.459,29.541L282.947,128l55.151,9.13l-47.459,29.54L345.086,154l-32.542,45.454l45.454-32.542l-12.67,54.447l29.541-47.459 l9.13,55.152l9.13-55.152l29.541,47.459L410,166.912l45.454,32.542L422.912,154l54.447,12.67L429.901,137.13z M384,161.684 c-18.603,0-33.684-15.081-33.684-33.684S365.397,94.316,384,94.316s33.684,15.081,33.684,33.684S402.603,161.684,384,161.684z"/><circle cx="384" cy="128" r="25.26" fill="#FFE15A"/></g></svg>