<?xml version="1.0" encoding="iso-8859-1"?>
<!-- Generator: Adobe Illustrator 19.0.0, SVG Export Plug-In . SVG Version: 6.00 Build 0)  -->
<svg xmlns:xlink="http://www.w3.org/1999/xlink" xmlns="http://www.w3.org/2000/svg" version="1.1" id="Layer_1" x="0px"
     y="0px" viewBox="0 0 512 512" style="enable-background:new 0 0 512 512;" xml:space="preserve">
<path style="fill:#41479B;"
      d="M511.974,403.5v-295c0-59.923-48.577-108.5-108.5-108.5h-291.5C51.224,0,1.775,48.368,0.026,108.695  v294.61C1.775,463.632,51.224,512,111.974,512h291.5C463.397,512,511.974,463.423,511.974,403.5z"/>
    <path style="fill:#3CC8FF;"
          d="M256.026,121.263c-51.207,26.94-85.742,91.105-85.742,134.737s34.535,107.797,85.742,134.737  c51.206-26.94,85.742-91.105,85.742-134.737S307.233,148.203,256.026,121.263z"/>
    <path style="fill:#73AF00;"
          d="M267.082,209.864c8.272-4.361,22.397-9.16,38.447-3.27c0,0-15.458-17.218-36.908-3.189  c5.771-6.998,14.438-15.662,23.822-18.075c0,0-18.678-6.975-29.979,17.934c2.189-12.563,1.789-32.343-18.459-43.826  c0,0,11.323,24.298,12.434,44.46c-0.658-3.577-1.976-7.318-5.451-10.943c-10.706-11.172-20.017-12.103-20.017-12.103  s14.845,16.451,22.139,32.016c-4.202-5.027-11.607-11.466-23.535-11.068c-27.931,0.931-33.982,17.689-33.982,17.689  c11.579-4.875,29.954-7.303,44.199-6.099c-18.391,3.24-24.924,26.152-24.924,26.152c14.766-18.414,30.885-21.404,37.321-21.842  c-11.755,9.725-11.039,27.633-11.039,27.633c2.731-10.082,13.315-21.572,18.473-26.721c13.887,15.024,15.53,31.911,15.53,31.911  s3.039-5.081,1.637-15.422c-1.326-9.762-7.451-16.171-12.127-19.937c24.519,3.378,40.517,21.164,40.517,21.164  C297.16,212.919,277.086,209.871,267.082,209.864z"/>
    <path style="fill:#FF4B55;"
          d="M403.474,0h-291.5C51.224,0,1.775,48.368,0.026,108.695v294.61C1.775,463.632,51.224,512,111.974,512  h291.5c59.923,0,108.5-48.577,108.5-108.5v-295C511.974,48.577,463.397,0,403.474,0z M485.079,392.693  c0,51.009-41.351,92.36-92.36,92.36H119.334c-51.009,0-92.36-41.351-92.36-92.36V119.307c0-51.009,41.351-92.36,92.36-92.36h273.385  c51.009,0,92.36,41.351,92.36,92.36L485.079,392.693L485.079,392.693z"/>
    <polygon style="fill:#FF965A;" points="228.658,288.561 241.009,267.228 342.482,264.983 335.746,293.053 "/>
    <path style="fill:#4173CD;"
          d="M173.987,282.947c10.17,39.917,40.646,86.012,82.04,107.79  c41.393-21.777,71.869-67.873,82.039-107.79H173.987z"/>
    <g>
	<path style="fill:#FFE15A;"
          d="M188.658,323.368c0,0,29.389-1.455,47.044,5.795c4.41,1.811,4.982,7.769,0.999,10.39   c-8.601,5.659-21.096,15.401-21.096,24.237L188.658,323.368z"/>
        <path style="fill:#FFE15A;"
              d="M240.307,377.263c-1.123-11.228,8.812-19.396,22.456-24.702c17.684-6.877,8-17.824-0.842-24.982   c-10.545-8.536,3.088-10.947,60.351-12.07l-28.07,43.79l-38.175,31.439L240.307,377.263z"/>
</g>
    <path style="fill:#FF4B55;"
          d="M256.026,398.355l-3.138-1.658C199.447,368.592,163.546,301.25,163.546,256  s35.901-112.592,89.342-140.697l3.138-1.658l3.138,1.658c53.441,28.105,89.342,95.447,89.342,140.697  s-35.901,112.592-89.342,140.697L256.026,398.355z M256.026,128.934c-47.401,26.763-79.007,86.632-79.007,127.066  s31.605,100.303,79.007,127.066c47.401-26.763,79.007-86.632,79.007-127.066S303.428,155.697,256.026,128.934z"/>
    <g>
	<path style="fill:#A54B37;"
          d="M284.658,332.91c-0.618,0-1.237-0.165-1.789-0.513c-18.309-11.507-28.809-30.553-28.809-52.257   v-62.033c0-1.862,1.507-3.368,3.368-3.368c1.862,0,3.368,1.507,3.368,3.368v62.033c0,19.336,9.349,36.303,25.651,46.546   c1.579,0.993,2.053,3.072,1.066,4.645C286.868,332.35,285.776,332.91,284.658,332.91z"/>
        <path style="fill:#A54B37;"
              d="M263.291,213.573c4.908,7.494-3.11,15.512-10.604,10.604c-0.444-0.291-0.828-0.675-1.119-1.119   c-4.908-7.494,3.11-15.512,10.604-10.604C262.617,212.745,263,213.129,263.291,213.573z"/>
</g>
    <g>
</g>
    <g>
</g>
    <g>
</g>
    <g>
</g>
    <g>
</g>
    <g>
</g>
    <g>
</g>
    <g>
</g>
    <g>
</g>
    <g>
</g>
    <g>
</g>
    <g>
</g>
    <g>
</g>
    <g>
</g>
    <g>
</g>
</svg>
