<svg xmlns="http://www.w3.org/2000/svg" xmlns:xlink="http://www.w3.org/1999/xlink" id="Layer_1" x="0" y="0" enable-background="new 0 0 512 512" version="1.1" viewBox="0 0 512 512" xml:space="preserve"><path fill="#F5F5F5" d="M400,0H112C50.144,0,0,50.144,0,112v288c0,61.856,50.144,112,112,112h288 c61.856,0,112-50.144,112-112V112C512,50.144,461.856,0,400,0z"/><g><path fill="#FF4B55" d="M0,400c0,61.856,50.144,112,112,112h288c61.856,0,112-50.144,112-112v-63.158H0V400z"/><polygon fill="#FF4B55" points="388.495 198.496 388.495 174.406 364.405 174.406 364.405 114.18 376.45 114.18 376.45 90.09 304.179 90.09 304.179 114.18 316.224 114.18 316.224 174.406 280.089 174.406 280.089 90.09 292.134 90.09 292.134 66 219.863 66 219.863 90.09 231.909 90.09 231.909 174.406 195.773 174.406 195.773 114.18 207.818 114.18 207.818 90.09 135.548 90.09 135.548 114.18 147.593 114.18 147.593 174.406 123.503 174.406 123.503 198.496 135.548 198.496 135.548 294.857 123.503 294.857 123.503 318.947 388.495 318.947 388.495 294.857 376.45 294.857 376.45 198.496"/></g><g><path fill="#464655" d="M280.089,306.902h-48.18v-56.271c0-8.837,7.163-16,16-16h16.18c8.837,0,16,7.163,16,16V306.902z"/><path fill="#464655" d="M255.999,138.271c-6.652,0-12.045,5.392-12.045,12.045v36.135h24.09v-36.135 C268.044,143.663,262.651,138.271,255.999,138.271z"/><path fill="#464655" d="M340.315,150.316c-6.652,0-12.045,5.393-12.045,12.045v24.09h24.09v-24.09 C352.36,155.708,346.967,150.316,340.315,150.316z"/><path fill="#464655" d="M171.683,150.316c-6.652,0-12.045,5.393-12.045,12.045v24.09h24.09v-24.09 C183.728,155.708,178.335,150.316,171.683,150.316z"/><path fill="#464655" d="M352.36,306.902h-48.181v-44.226c0-8.837,7.164-16,16-16h16.181c8.836,0,16,7.163,16,16V306.902z"/><path fill="#464655" d="M207.818,306.902h-48.18v-44.226c0-8.837,7.163-16,16-16h16.18c8.837,0,16,7.163,16,16V306.902z"/></g><path fill="#FFE15A" d="M293.052,357.053c0-2.25-1.125-4.355-3-5.605l-27.316-18.21v-5.704l23.224-11.612 c3.329-1.665,4.678-5.711,3.013-9.04c-1.671-3.335-5.704-4.678-9.039-3.013L256,315.836l-23.934-11.967 c-3.316-1.664-7.375-0.322-9.039,3.013c-1.665,3.329-0.316,7.375,3.013,9.04l23.224,11.612v5.704l-27.316,18.21 c-1.875,1.25-3,3.355-3,5.605s1.125,4.355,3,5.605l27.316,18.211v57.026h-26.947v10.316c0,3.724,3.013,6.737,6.737,6.737 c2.579,0,4.822-1.447,5.954-3.579h14.257v13.474H234.89c-1.164-2.013-3.342-3.368-5.835-3.368c-3.724,0-6.737,3.013-6.737,6.737 v10.105h26.947v6.737c0,3.724,3.013,6.737,6.737,6.737c3.724,0,6.737-3.013,6.737-6.737v-6.737v-40.421V380.87l27.316-18.211 C291.927,361.408,293.052,359.303,293.052,357.053z M255.999,369.164l-18.171-12.112l18.171-12.112l18.171,12.112L255.999,369.164z"/></svg>