<svg xmlns="http://www.w3.org/2000/svg" xmlns:xlink="http://www.w3.org/1999/xlink" id="Layer_1" x="0" y="0" enable-background="new 0 0 512 512" version="1.1" viewBox="0 0 512 512" xml:space="preserve"><path fill="#41479B" d="M400,0H112C50.144,0,0,50.144,0,112v288c0,61.856,50.144,112,112,112h288 c61.856,0,112-50.144,112-112V112C512,50.144,461.856,0,400,0z"/><g><polygon fill="#F5F5F5" points="148.21 256 161.684 256 161.684 174.23 256 236.023 256 216.059 172.232 161.684 196.98 161.684 256 199.995 256 187.701 216.29 161.684 256 161.684 256 148.21 148.21 148.21"/><polygon fill="#F5F5F5" points="94.316 256 107.789 256 107.789 148.21 0 148.21 0 161.684 39.71 161.684 0 187.701 0 206.602 69.197 161.684 93.945 161.684 0 222.666 0 236.023 94.316 174.23"/><path fill="#F5F5F5" d="M107.789,0.087c-4.566,0.169-9.063,0.608-13.474,1.308V81.77L27.779,38.177 c-4.005,4.566-7.643,9.46-10.872,14.637l63.935,41.502H56.094L10.461,64.694c-1.251,2.68-2.4,5.415-3.44,8.205L39.71,94.316H1.394 c-0.7,4.411-1.139,8.907-1.308,13.474h107.703V0.087z"/><polygon fill="#F5F5F5" points="256 107.79 256 94.316 216.29 94.316 256 68.299 256 49.157 186.432 94.316 161.684 94.316 256 33.092 256 19.977 161.684 81.77 161.684 0 148.21 0 148.21 107.79"/></g><g><path fill="#FF4B55" d="M107.789,256h40.421V148.21H256v-40.42H148.21V0H112c-1.411,0-2.813,0.035-4.211,0.087V107.79H0.087 C0.035,109.188,0,110.589,0,112v36.21h107.789V256z"/><polygon fill="#FF4B55" points="69.197 161.684 0 206.602 0 222.666 93.945 161.684"/><polygon fill="#FF4B55" points="172.232 161.684 256 216.059 256 199.995 196.98 161.684"/><path fill="#FF4B55" d="M80.842,94.316L16.907,52.814c-2.378,3.813-4.533,7.778-6.447,11.88l45.634,29.622H80.842z"/><polygon fill="#FF4B55" points="186.432 94.316 256 49.157 256 33.092 161.684 94.316"/></g><path fill="#E67346" d="M330.247,453.306l-4.484-10.464l2.242,5.232l-2.268-5.219c0.945-0.417,23.138-10.542,23.138-40.315 h11.384C360.258,440.012,331.473,452.78,330.247,453.306z"/><path fill="#EB7D4B" d="M334.697,427.849l-8.049-8.048c15.387-15.387,23.384-19.608,24.246-20.04l5.091,10.183l-2.546-5.091 l2.59,5.069C355.958,409.958,348.75,413.796,334.697,427.849z"/><path fill="#E67346" d="M447.22,453.306l4.484-10.464l-2.242,5.232l2.268-5.219c-0.945-0.417-23.138-10.542-23.138-40.315 h-11.384C417.209,440.012,445.994,452.78,447.22,453.306z"/><path fill="#EB7D4B" d="M442.77,427.849l8.048-8.048c-15.387-15.387-23.384-19.608-24.245-20.04l-5.091,10.183l2.546-5.091 l-2.59,5.069C421.509,409.958,428.716,413.796,442.77,427.849z"/><path fill="#4173CD" d="M388.717,254.554h-60.712c0,0,0,72.096,0,91.068s3.794,68.301,60.712,87.274 c56.918-18.973,60.712-68.301,60.712-87.274s0-91.068,0-91.068L388.717,254.554L388.717,254.554z"/><path fill="#C8C8C8" d="M415.278,277.321h-32.621c-3.447,0-6.791-1.173-9.482-3.326l-12.736-10.189 c-1.346-1.077-3.018-1.663-4.741-1.663h-1.133c-4.191,0-7.589,3.398-7.589,7.589h-5.692c-3.143,0-5.692,2.548-5.692,5.692 s2.548,5.692,5.692,5.692h5.692c2.096,0,3.794,1.699,3.794,3.794v18.973c0,7.064,4.848,12.949,11.384,14.641v11.92h7.589 l2.846-11.384h35.099l3.794,3.794v7.589h3.794v-11.384h3.795v11.384h3.794v-12.436c2.259-1.314,3.794-3.734,3.794-6.536v-22.767 C426.662,282.418,421.565,277.321,415.278,277.321z"/><polygon fill="#73AF00" points="346.977 326.65 354.566 349.417 422.867 349.417 430.456 326.65"/><path fill="#F5F5F5" d="M429.143,341.828c-10.116,0-10.116,7.589-20.232,7.589c-10.114,0-10.114-7.589-20.227-7.589 c-10.112,0-10.112,7.589-20.225,7.589c-10.115,0-10.115-7.589-20.231-7.589c-10.094,0-10.118,7.554-20.17,7.586 c0.122,4.227,0.484,9.397,1.417,15.11c8.649-0.707,9.161-7.518,18.752-7.518c10.115,0,10.115,7.589,20.231,7.589 c10.112,0,10.112-7.589,20.225-7.589c10.114,0,10.114,7.589,20.227,7.589c10.116,0,10.116-7.589,20.232-7.589 c9.618,0,10.123,6.825,18.814,7.52c0.933-5.713,1.296-10.883,1.418-15.11C439.278,349.397,439.264,341.828,429.143,341.828z"/><path fill="#4173CD" d="M429.143,357.006c-10.116,0-10.116,7.589-20.232,7.589c-10.114,0-10.114-7.589-20.227-7.589 c-10.112,0-10.112,7.589-20.225,7.589c-10.115,0-10.115-7.589-20.231-7.589c-9.591,0-10.103,6.812-18.752,7.518 c0.743,4.547,1.858,9.439,3.49,14.466c5.535-1.933,7.151-6.807,15.262-6.807c10.115,0,10.115,7.589,20.231,7.589 c10.112,0,10.112-7.589,20.225-7.589c10.114,0,10.114,7.589,20.227,7.589c10.116,0,10.116-7.589,20.232-7.589 c8.141,0,9.75,4.893,15.32,6.819c1.634-5.031,2.75-9.926,3.494-14.477C439.267,363.831,438.762,357.006,429.143,357.006z"/><path fill="#F5F5F5" d="M429.143,372.184c-10.116,0-10.116,7.589-20.232,7.589c-10.114,0-10.114-7.589-20.227-7.589 c-10.112,0-10.112,7.589-20.225,7.589c-10.115,0-10.115-7.589-20.231-7.589c-8.111,0-9.727,4.873-15.262,6.807 c1.309,4.03,2.965,8.145,5.038,12.247c2.566-1.924,5.094-3.876,10.224-3.876c10.115,0,10.115,7.589,20.231,7.589 c10.112,0,10.112-7.589,20.225-7.589c10.114,0,10.114,7.589,20.227,7.589c10.116,0,10.116-7.589,20.232-7.589 c5.16,0,7.693,1.968,10.274,3.9c2.076-4.106,3.735-8.225,5.046-12.259C438.894,377.077,437.285,372.184,429.143,372.184z"/><path fill="#4173CD" d="M429.143,387.362c-10.116,0-10.116,7.589-20.232,7.589c-10.114,0-10.114-7.589-20.227-7.589 c-10.112,0-10.112,7.589-20.225,7.589c-10.115,0-10.115-7.589-20.231-7.589c-5.13,0-7.659,1.952-10.224,3.876 c1.975,3.908,4.336,7.797,7.157,11.584c0.917-0.173,1.92-0.282,3.068-0.282c10.115,0,10.115,7.589,20.231,7.589 c10.112,0,10.112-7.589,20.225-7.589c10.114,0,10.114,7.589,20.227,7.589c10.116,0,10.116-7.589,20.232-7.589 c1.17,0,2.193,0.11,3.123,0.289c2.817-3.781,5.177-7.665,7.151-11.568C436.837,389.33,434.304,387.362,429.143,387.362z"/><path fill="#F5F5F5" d="M432.267,402.829c-0.931-0.179-1.954-0.289-3.123-0.289c-10.116,0-10.116,7.589-20.232,7.589 c-10.114,0-10.114-7.589-20.227-7.589c-10.112,0-10.112,7.589-20.225,7.589c-10.115,0-10.115-7.589-20.231-7.589 c-1.147,0-2.151,0.108-3.068,0.282c6.15,8.256,14.492,15.996,25.782,22.293c7.687-1.135,8.542-7.397,17.741-7.397 c9.22,0,10.058,6.29,17.793,7.404C417.77,418.825,426.115,411.085,432.267,402.829z"/><g><rect width="3.795" height="64.51" x="386.82" y="341.83" fill="#FF965A"/><rect width="22.767" height="3.795" x="377.33" y="351.31" fill="#FF965A"/><rect width="22.767" height="3.795" x="377.33" y="374.08" fill="#FF965A"/></g><rect width="22.767" height="15.01" x="377.33" y="355.1" fill="#FFE15A"/><polygon fill="#FF4B55" points="386.82 341.828 386.82 349.417 375.436 345.622"/><g><rect width="3.794" height="44.585" x="412.12" y="341.83" fill="#FF965A"/><rect width="22.767" height="3.795" x="402.63" y="351.31" fill="#FF965A"/><rect width="22.767" height="3.795" x="402.63" y="374.08" fill="#FF965A"/></g><rect width="22.767" height="15.01" x="402.63" y="355.1" fill="#FFE15A"/><polygon fill="#FF4B55" points="412.116 341.828 412.116 349.417 400.733 345.622"/><g><rect width="3.794" height="44.27" x="361.37" y="341.83" fill="#FF965A"/><rect width="22.767" height="3.795" x="351.88" y="351.31" fill="#FF965A"/><rect width="22.767" height="3.795" x="351.88" y="374.08" fill="#FF965A"/></g><rect width="22.767" height="15.01" x="351.88" y="355.1" fill="#FFE15A"/><polygon fill="#FF4B55" points="361.365 341.828 361.365 349.417 349.981 345.622"/><path fill="#FF965A" d="M407.689,383.567c0,10.461-8.512,18.973-18.973,18.973s-18.973-8.512-18.973-18.973h-3.794h-3.764 l-25.699-5.803l-0.837,3.702l11.328,2.558v3.338l8.351,3.341c3.292,15.415,17.006,27.016,33.388,27.016 c16.219,0,29.807-11.377,33.271-26.561h12.263v-11.384L407.689,383.567z"/><path fill="#F5F5F5" d="M449.429,254.554c0,0,0,72.096,0,91.068s-3.794,68.301-60.712,87.274 c-56.918-18.973-60.712-68.301-60.712-87.274s0-91.068,0-91.068h60.712L449.429,254.554 M453.223,250.76h-3.794h-60.712h-60.712 h-3.795v3.794v91.068c0,44.993,22.483,77.266,63.307,90.873l1.2,0.4l1.2-0.4c40.824-13.608,63.307-45.881,63.307-90.873v-91.068 v-3.794L453.223,250.76L453.223,250.76z"/><path fill="#FF965A" d="M388.717,451.868c-27.929,0-53.829-9.357-69.283-25.027l10.806-10.657 c12.664,12.84,34.525,20.507,58.478,20.507s45.814-7.667,58.478-20.507L458,426.841 C442.546,442.512,416.646,451.868,388.717,451.868z"/></svg>