<?xml version="1.0" encoding="iso-8859-1"?>
<!-- Generator: Adobe Illustrator 19.0.0, SVG Export Plug-In . SVG Version: 6.00 Build 0)  -->
<svg xmlns:xlink="http://www.w3.org/1999/xlink" xmlns="http://www.w3.org/2000/svg" version="1.1" id="Layer_1" x="0px"
     y="0px" viewBox="0 0 512 512" style="enable-background:new 0 0 512 512;" xml:space="preserve">
<path style="fill:#3CC8FF;"
      d="M400,0H112C50.144,0,0,50.144,0,112v288c0,61.856,50.144,112,112,112h288  c61.856,0,112-50.144,112-112V112C512,50.144,461.856,0,400,0z"/>
    <g>
	<path style="fill:#FFE15A;"
          d="M288.558,410.977l4.297,12.884l13.581,0.105c1.758,0.014,2.487,2.258,1.073,3.302l-10.925,8.068   l4.097,12.949c0.53,1.677-1.378,3.063-2.809,2.041l-11.049-7.897l-11.049,7.897c-1.43,1.022-3.339-0.364-2.809-2.041l4.097-12.949   l-10.925-8.068c-1.414-1.044-0.685-3.288,1.073-3.302l13.581-0.105l4.297-12.884C285.642,409.309,288.002,409.309,288.558,410.977z   "/>
        <path style="fill:#FFE15A;"
              d="M413.557,313.767l4.297,12.884l13.581,0.105c1.758,0.014,2.487,2.257,1.073,3.302l-10.925,8.068   l4.097,12.949c0.53,1.676-1.378,3.063-2.809,2.041l-11.049-7.897l-11.049,7.897c-1.431,1.022-3.339-0.364-2.809-2.041l4.097-12.949   l-10.925-8.068c-1.414-1.045-0.685-3.288,1.073-3.302l13.581-0.105l4.297-12.884C410.642,312.099,413.001,312.099,413.557,313.767z   "/>
        <path style="fill:#FFE15A;"
              d="M472.497,277.641l4.297,12.884l13.581,0.105c1.758,0.014,2.487,2.258,1.073,3.302L480.523,302   l4.097,12.949c0.53,1.677-1.378,3.063-2.809,2.041l-11.049-7.897l-11.049,7.897c-1.431,1.022-3.339-0.364-2.809-2.041L461,302   l-10.925-8.068c-1.414-1.044-0.685-3.288,1.073-3.302l13.581-0.105l4.297-12.884C469.582,275.973,471.941,275.973,472.497,277.641z   "/>
        <path style="fill:#FFE15A;"
              d="M458.436,153.693l4.297,12.884l13.581,0.105c1.758,0.014,2.487,2.257,1.073,3.302l-10.925,8.068   l4.097,12.949c0.53,1.676-1.378,3.063-2.809,2.041l-11.049-7.897l-11.049,7.897c-1.431,1.022-3.339-0.364-2.809-2.041l4.097-12.949   l-10.925-8.068c-1.414-1.044-0.685-3.288,1.073-3.302l13.581-0.105l4.297-12.884C455.52,152.025,457.88,152.025,458.436,153.693z"/>
        <path style="fill:#FFE15A;"
              d="M340.811,443.174l-4.297-12.884l-13.581-0.105c-1.758-0.014-2.487-2.258-1.073-3.302l10.925-8.068   l-4.097-12.949c-0.53-1.676,1.378-3.063,2.809-2.041l11.049,7.897l11.049-7.897c1.431-1.022,3.339,0.364,2.809,2.041l-4.097,12.949   l10.925,8.068c1.414,1.045,0.685,3.288-1.073,3.302l-13.581,0.105l-4.297,12.884C343.727,444.842,341.367,444.842,340.811,443.174z   "/>
        <path style="fill:#FFE15A;"
              d="M381.432,406.719l-4.297-12.884l-13.581-0.105c-1.758-0.014-2.487-2.257-1.073-3.302l10.925-8.068   l-4.097-12.949c-0.53-1.677,1.378-3.063,2.809-2.041l11.049,7.897l11.049-7.897c1.431-1.022,3.339,0.364,2.809,2.041l-4.097,12.949   l10.925,8.068c1.414,1.045,0.685,3.288-1.073,3.302l-13.581,0.105l-4.297,12.884C384.348,408.387,381.989,408.387,381.432,406.719z   "/>
        <path style="fill:#FFE15A;"
              d="M417.988,247.719l-4.297-12.884l-13.581-0.105c-1.758-0.014-2.487-2.257-1.073-3.302l10.925-8.068   l-4.097-12.949c-0.53-1.676,1.378-3.063,2.809-2.041l11.049,7.898l11.049-7.898c1.431-1.022,3.339,0.364,2.809,2.041l-4.097,12.949   l10.925,8.068c1.414,1.045,0.685,3.288-1.073,3.302l-13.581,0.105l-4.297,12.884C420.904,249.387,418.544,249.387,417.988,247.719z   "/>
        <path style="fill:#FFE15A;"
              d="M375.804,261.26l-4.297-12.884l-13.581-0.105c-1.758-0.014-2.487-2.257-1.073-3.302l10.925-8.068   l-4.097-12.949c-0.53-1.676,1.378-3.063,2.809-2.041l11.049,7.898l11.049-7.898c1.43-1.022,3.339,0.364,2.809,2.041l-4.097,12.949   l10.925,8.068c1.414,1.045,0.685,3.288-1.073,3.302l-13.581,0.105l-4.297,12.884C378.72,262.928,376.36,262.928,375.804,261.26z"/>
        <path style="fill:#FFE15A;"
              d="M348.796,366.444l-4.297-12.884l-13.581-0.105c-1.758-0.014-2.487-2.258-1.073-3.302l10.925-8.068   l-4.097-12.949c-0.53-1.676,1.378-3.063,2.809-2.041l11.049,7.897l11.049-7.897c1.431-1.022,3.339,0.364,2.809,2.041l-4.097,12.949   l10.925,8.068c1.414,1.045,0.685,3.288-1.073,3.302l-13.581,0.105l-4.297,12.884C351.712,368.112,349.353,368.112,348.796,366.444z   "/>
</g>
    <g>
	<path style="fill:#41479B;" d="M94.316,1.395C67.937,5.579,44.627,18.971,27.779,38.177L94.316,81.77V1.395z"/>
        <path style="fill:#41479B;" d="M7.021,72.899C4.47,79.746,2.569,86.91,1.395,94.316H39.71L7.021,72.899z"/>
        <polygon style="fill:#41479B;" points="0,161.684 0,187.701 39.71,161.684  "/>
        <polygon style="fill:#41479B;" points="256,19.977 256,0 161.684,0 161.684,81.77  "/>
        <polygon style="fill:#41479B;" points="256,187.701 256,161.684 216.29,161.684  "/>
        <polygon style="fill:#41479B;" points="161.684,256 256,256 256,236.023 161.684,174.23  "/>
        <polygon style="fill:#41479B;" points="256,94.316 256,68.299 216.29,94.316  "/>
        <polygon style="fill:#41479B;" points="94.316,174.23 0,236.023 0,256 94.316,256  "/>
</g>
    <g>
	<polygon style="fill:#F5F5F5;"
             points="148.211,256 161.684,256 161.684,174.23 256,236.023 256,216.059 172.232,161.684    196.98,161.684 256,199.995 256,187.701 216.29,161.684 256,161.684 256,148.21 148.211,148.21  "/>
        <polygon style="fill:#F5F5F5;"
                 points="94.316,256 107.789,256 107.789,148.21 0,148.21 0,161.684 39.71,161.684 0,187.701    0,206.602 69.197,161.684 93.945,161.684 0,222.666 0,236.023 94.316,174.23  "/>
        <path style="fill:#F5F5F5;"
              d="M107.789,0.087c-4.566,0.169-9.063,0.608-13.474,1.308V81.77L27.779,38.177   c-4.005,4.566-7.643,9.46-10.872,14.637l63.935,41.502H56.094L10.461,64.694c-1.251,2.68-2.4,5.415-3.44,8.205L39.71,94.316H1.395   c-0.7,4.411-1.139,8.907-1.308,13.474H107.79L107.789,0.087L107.789,0.087z"/>
        <polygon style="fill:#F5F5F5;"
                 points="256,107.79 256,94.316 216.29,94.316 256,68.299 256,49.157 186.432,94.316 161.684,94.316    256,33.092 256,19.977 161.684,81.77 161.684,0 148.211,0 148.211,107.79  "/>
</g>
    <g>
	<path style="fill:#FF4B55;"
          d="M107.789,256h40.421V148.21H256v-40.42H148.211V0H112c-1.41,0-2.813,0.035-4.211,0.087V107.79H0.087   C0.035,109.188,0,110.589,0,112v36.21h107.789V256z"/>
        <polygon style="fill:#FF4B55;" points="69.197,161.684 0,206.602 0,222.666 93.945,161.684  "/>
        <polygon style="fill:#FF4B55;" points="172.232,161.684 256,216.059 256,199.995 196.98,161.684  "/>
        <path style="fill:#FF4B55;"
              d="M80.842,94.316L16.907,52.814c-2.378,3.813-4.533,7.778-6.447,11.88l45.634,29.622H80.842z"/>
        <polygon style="fill:#FF4B55;" points="186.432,94.316 256,49.157 256,33.092 161.684,94.316  "/>
</g>
    <g>
</g>
    <g>
</g>
    <g>
</g>
    <g>
</g>
    <g>
</g>
    <g>
</g>
    <g>
</g>
    <g>
</g>
    <g>
</g>
    <g>
</g>
    <g>
</g>
    <g>
</g>
    <g>
</g>
    <g>
</g>
    <g>
</g>
</svg>
