<?xml version="1.0" encoding="iso-8859-1"?>
<!-- Generator: Adobe Illustrator 19.0.0, SVG Export Plug-In . SVG Version: 6.00 Build 0)  -->
<svg xmlns:xlink="http://www.w3.org/1999/xlink" xmlns="http://www.w3.org/2000/svg" version="1.1" id="Layer_1" x="0px"
     y="0px" viewBox="0 0 512 512" style="enable-background:new 0 0 512 512;" xml:space="preserve">
<path style="fill:#73AF00;" d="M112,0C50.144,0,0,50.144,0,112v288c0,61.856,50.144,112,112,112h58.667V0H112z"/>
    <rect x="170.67" style="fill:#FFE15A;" width="170.67" height="512"/>
    <path style="fill:#FF4B55;" d="M400,0h-58.667v512H400c61.856,0,112-50.144,112-112V112C512,50.144,461.856,0,400,0z"/>
    <path style="fill:#73AF00;"
          d="M258.04,205.779l11.693,35.062l36.959,0.286c2.067,0.016,2.924,2.653,1.261,3.881l-29.732,21.956  l11.149,35.239c0.623,1.97-1.62,3.6-3.301,2.399L256,283.11l-30.069,21.492c-1.681,1.202-3.925-0.428-3.301-2.399l11.149-35.239  l-29.732-21.956c-1.662-1.228-0.806-3.865,1.261-3.881l36.959-0.286l11.693-35.062C254.613,203.819,257.387,203.819,258.04,205.779z  "/>
    <g>
</g>
    <g>
</g>
    <g>
</g>
    <g>
</g>
    <g>
</g>
    <g>
</g>
    <g>
</g>
    <g>
</g>
    <g>
</g>
    <g>
</g>
    <g>
</g>
    <g>
</g>
    <g>
</g>
    <g>
</g>
    <g>
</g>
</svg>
