<svg xmlns="http://www.w3.org/2000/svg" xmlns:xlink="http://www.w3.org/1999/xlink" id="Layer_1" x="0" y="0" enable-background="new 0 0 512 512" version="1.1" viewBox="0 0 512 512" xml:space="preserve"><path fill="#41479B" d="M400,0H112C50.144,0,0,50.144,0,112v288c0,61.856,50.144,112,112,112h288 c61.856,0,112-50.144,112-112V112C512,50.144,461.856,0,400,0z"/><rect width="512" height="53.895" y="229.05" fill="#FFE15A"/><polygon fill="#F5F5F5" points="129.368 335 137.215 366.349 159.684 343.123 150.805 374.195 181.877 365.316 158.651 387.785 190 395.632 158.651 403.478 181.877 425.947 150.805 417.068 159.684 448.14 137.215 424.914 129.368 456.263 121.522 424.914 99.053 448.14 107.932 417.068 76.86 425.947 100.086 403.478 68.737 395.632 100.086 387.785 76.86 365.316 107.932 374.195 99.053 343.123 121.522 366.349"/></svg>