<svg xmlns="http://www.w3.org/2000/svg" xmlns:xlink="http://www.w3.org/1999/xlink" id="Layer_1" x="0" y="0" enable-background="new 0 0 512 512" version="1.1" viewBox="0 0 512 512" xml:space="preserve"><path fill="#FF4B55" d="M512,112C512,50.144,461.856,0,400,0H112C50.144,0,0,50.144,0,112v144.5h512V112z"/><g><path fill="#F5F5F5" d="M512,400V256.5H0V400c0,61.856,50.144,112,112,112h288C461.856,512,512,461.856,512,400z"/><path fill="#F5F5F5" d="M86.244,121.422c0-43.468,31.895-79.498,73.542-86.163c2.261-0.362,2.363-3.473,0.132-3.987 c-10.311-2.372-21.262-3.045-32.634-1.497c-44.92,6.118-79.641,44.99-80.275,90.32C46.285,171.853,88.013,214,139.527,214 c7.012,0,13.822-0.82,20.373-2.326c2.228-0.512,2.117-3.631-0.141-3.992C118.126,201.02,86.244,165.057,86.244,121.422z"/><path fill="#F5F5F5" d="M160.47,144.681l-3.913,11.733l-12.368,0.096c-1.601,0.012-2.265,2.056-0.977,3.007l9.949,7.347 l-3.731,11.792c-0.483,1.527,1.255,2.79,2.558,1.858l10.062-7.192l10.062,7.192c1.303,0.931,3.041-0.332,2.558-1.858l-3.731-11.792 l9.949-7.347c1.288-0.951,0.624-2.995-0.977-3.007l-12.368-0.096l-3.913-11.733C163.126,143.162,160.977,143.162,160.47,144.681z"/><path fill="#F5F5F5" d="M221.606,144.681l-3.913,11.733l-12.368,0.096c-1.601,0.012-2.265,2.056-0.977,3.007l9.949,7.347 l-3.731,11.792c-0.483,1.527,1.255,2.79,2.558,1.858l10.062-7.192l10.062,7.192c1.303,0.931,3.041-0.332,2.558-1.858l-3.731-11.792 l9.949-7.347c1.288-0.951,0.624-2.995-0.977-3.007l-12.368-0.096l-3.913-11.733C224.261,143.162,222.112,143.162,221.606,144.681z"/><path fill="#F5F5F5" d="M191.313,50.338L187.4,62.07l-12.368,0.096c-1.601,0.013-2.265,2.056-0.977,3.007l9.949,7.347 l-3.731,11.792c-0.483,1.527,1.255,2.79,2.558,1.858l10.062-7.192l10.062,7.192c1.303,0.931,3.041-0.332,2.558-1.858l-3.731-11.792 l9.949-7.347c1.288-0.951,0.624-2.995-0.977-3.007l-12.368-0.096l-3.913-11.733C193.969,48.819,191.82,48.819,191.313,50.338z"/><path fill="#F5F5F5" d="M142.57,86.482l-3.913,11.733L126.29,98.31c-1.601,0.012-2.265,2.056-0.977,3.007l9.949,7.347 l-3.731,11.792c-0.483,1.527,1.255,2.79,2.558,1.858l10.062-7.192l10.062,7.192c1.303,0.931,3.041-0.332,2.558-1.858l-3.731-11.792 l9.949-7.347c1.288-0.951,0.624-2.995-0.977-3.007l-12.368-0.096l-3.913-11.733C145.226,84.963,143.077,84.963,142.57,86.482z"/><path fill="#F5F5F5" d="M239.643,86.482l-3.913,11.733l-12.368,0.096c-1.601,0.012-2.265,2.056-0.977,3.007l9.949,7.347 l-3.731,11.792c-0.483,1.527,1.255,2.79,2.558,1.858l10.062-7.192l10.062,7.192c1.303,0.931,3.041-0.332,2.558-1.858l-3.731-11.792 l9.949-7.347c1.288-0.951,0.624-2.995-0.977-3.007l-12.368-0.096l-3.913-11.733C242.298,84.963,240.15,84.963,239.643,86.482z"/></g></svg>