<?xml version="1.0" encoding="iso-8859-1"?>
<!-- Generator: Adobe Illustrator 19.0.0, SVG Export Plug-In . SVG Version: 6.00 Build 0)  -->
<svg xmlns:xlink="http://www.w3.org/1999/xlink" xmlns="http://www.w3.org/2000/svg" version="1.1" id="Layer_1" x="0px"
     y="0px" viewBox="0 0 512 512" style="enable-background:new 0 0 512 512;" xml:space="preserve">
<path style="fill:#41479B;"
      d="M400,0H112C50.144,0,0,50.144,0,112v288c0,61.856,50.144,112,112,112h288  c61.856,0,112-50.144,112-112V112C512,50.144,461.856,0,400,0z"/>
    <g>
	<path style="fill:#F5F5F5;"
          d="M130.415,337.445l8.482,28l27.18-10.827c2.319-0.924,4.427,1.721,3.011,3.776l-16.603,24.089   l25.411,14.5c2.168,1.237,1.415,4.534-1.075,4.708l-29.185,2.038l4.507,28.907c0.384,2.466-2.663,3.934-4.351,2.095L128,413.184   l-19.79,21.547c-1.688,1.838-4.736,0.371-4.351-2.095l4.507-28.907L79.18,401.69c-2.49-0.174-3.242-3.471-1.075-4.708l25.411-14.5   l-16.603-24.089c-1.416-2.055,0.692-4.699,3.011-3.776l27.179,10.827l8.482-28C126.309,335.056,129.691,335.056,130.415,337.445z"/>
        <path style="fill:#F5F5F5;"
              d="M385.434,86.875l4.143,13.678l13.277-5.289c1.133-0.451,2.163,0.84,1.471,1.844l-8.11,11.767   l12.413,7.083c1.059,0.604,0.691,2.215-0.525,2.3l-14.257,0.996l2.202,14.121c0.188,1.205-1.301,1.921-2.125,1.024l-9.667-10.526   l-9.667,10.526c-0.825,0.898-2.313,0.181-2.125-1.024l2.202-14.121l-14.257-0.996c-1.216-0.085-1.584-1.696-0.525-2.3l12.413-7.083   l-8.11-11.767c-0.692-1.004,0.338-2.295,1.471-1.844l13.277,5.289l4.143-13.678C383.429,85.708,385.081,85.708,385.434,86.875z"/>
        <path style="fill:#F5F5F5;"
              d="M293.05,212.234l4.143,13.678l13.277-5.289c1.133-0.451,2.163,0.84,1.471,1.844l-8.11,11.767   l12.413,7.083c1.059,0.604,0.691,2.215-0.525,2.3l-14.257,0.996l2.202,14.121c0.188,1.205-1.301,1.922-2.125,1.024l-9.667-10.526   l-9.667,10.526c-0.825,0.898-2.313,0.181-2.125-1.024l2.202-14.121l-14.257-0.996c-1.216-0.085-1.584-1.696-0.525-2.3l12.413-7.083   l-8.11-11.767c-0.692-1.004,0.338-2.296,1.471-1.844l13.277,5.289l4.143-13.678C291.044,211.067,292.696,211.067,293.05,212.234z"/>
        <path style="fill:#F5F5F5;"
              d="M472.837,146.913l4.143,13.678l13.277-5.289c1.133-0.451,2.163,0.84,1.471,1.844l-8.11,11.767   l12.413,7.083c1.059,0.604,0.691,2.215-0.525,2.3l-14.257,0.996l2.202,14.121c0.188,1.205-1.301,1.922-2.125,1.023l-9.667-10.525   l-9.667,10.525c-0.825,0.898-2.313,0.181-2.125-1.023l2.202-14.121l-14.257-0.996c-1.216-0.085-1.584-1.696-0.525-2.3l12.413-7.083   l-8.11-11.767c-0.692-1.004,0.338-2.296,1.471-1.844l13.277,5.289l4.143-13.678C470.831,145.747,472.483,145.747,472.837,146.913z"/>
        <path style="fill:#F5F5F5;"
              d="M385.434,368.074l4.143,13.678l13.277-5.289c1.133-0.451,2.163,0.84,1.471,1.844l-8.11,11.767   l12.413,7.083c1.059,0.604,0.691,2.215-0.525,2.3l-14.257,0.996l2.202,14.121c0.188,1.205-1.301,1.922-2.125,1.024l-9.667-10.525   l-9.667,10.525c-0.825,0.898-2.313,0.181-2.125-1.024l2.202-14.121l-14.257-0.996c-1.216-0.085-1.584-1.696-0.525-2.3l12.413-7.083   l-8.11-11.767c-0.692-1.004,0.338-2.296,1.471-1.844l13.277,5.289l4.143-13.678C383.429,366.907,385.081,366.907,385.434,368.074z"/>
        <path style="fill:#F5F5F5;"
              d="M417.489,246.969l-3.326,9.974l-10.513,0.081c-1.361,0.011-1.926,1.748-0.831,2.556l8.458,6.246   l-3.171,10.024c-0.41,1.298,1.067,2.371,2.174,1.58l8.553-6.114l8.553,6.114c1.107,0.792,2.585-0.282,2.174-1.58l-3.171-10.024   l8.458-6.246c1.095-0.809,0.531-2.546-0.831-2.556l-10.514-0.081l-3.326-9.974C419.746,245.677,417.919,245.677,417.489,246.969z"/>
</g>
    <g>
	<path style="fill:#41479B;" d="M94.316,1.395C67.937,5.579,44.627,18.971,27.779,38.177L94.316,81.77V1.395z"/>
        <path style="fill:#41479B;" d="M7.021,72.899C4.469,79.746,2.569,86.91,1.394,94.316H39.71L7.021,72.899z"/>
        <polygon style="fill:#41479B;" points="0,161.684 0,187.701 39.71,161.684  "/>
        <polygon style="fill:#41479B;" points="256,19.977 256,0 161.684,0 161.684,81.77  "/>
        <polygon style="fill:#41479B;" points="256,187.701 256,161.684 216.29,161.684  "/>
        <polygon style="fill:#41479B;" points="161.684,256 256,256 256,236.023 161.684,174.23  "/>
        <polygon style="fill:#41479B;" points="256,94.316 256,68.299 216.29,94.316  "/>
        <polygon style="fill:#41479B;" points="94.316,174.23 0,236.023 0,256 94.316,256  "/>
</g>
    <g>
	<polygon style="fill:#F5F5F5;"
             points="148.21,256 161.684,256 161.684,174.23 256,236.023 256,216.059 172.232,161.684    196.98,161.684 256,199.995 256,187.701 216.29,161.684 256,161.684 256,148.21 148.21,148.21  "/>
        <polygon style="fill:#F5F5F5;"
                 points="94.316,256 107.789,256 107.789,148.21 0,148.21 0,161.684 39.71,161.684 0,187.701    0,206.602 69.197,161.684 93.945,161.684 0,222.666 0,236.023 94.316,174.23  "/>
        <path style="fill:#F5F5F5;"
              d="M107.789,0.087c-4.566,0.169-9.063,0.608-13.474,1.308V81.77L27.779,38.177   c-4.005,4.566-7.643,9.46-10.872,14.637l63.935,41.502H56.094L10.461,64.694c-1.251,2.68-2.4,5.415-3.44,8.205L39.71,94.316H1.394   c-0.7,4.411-1.139,8.907-1.308,13.474h107.703V0.087z"/>
        <polygon style="fill:#F5F5F5;"
                 points="256,107.79 256,94.316 216.29,94.316 256,68.299 256,49.157 186.432,94.316 161.684,94.316    256,33.092 256,19.977 161.684,81.77 161.684,0 148.21,0 148.21,107.79  "/>
</g>
    <g>
	<path style="fill:#FF4B55;"
          d="M107.789,256h40.421V148.21H256v-40.42H148.21V0H112c-1.411,0-2.813,0.035-4.211,0.087V107.79H0.087   C0.035,109.188,0,110.589,0,112v36.21h107.789V256z"/>
        <polygon style="fill:#FF4B55;" points="69.197,161.684 0,206.602 0,222.666 93.945,161.684  "/>
        <polygon style="fill:#FF4B55;" points="172.232,161.684 256,216.059 256,199.995 196.98,161.684  "/>
        <path style="fill:#FF4B55;"
              d="M80.842,94.316L16.907,52.814c-2.378,3.813-4.533,7.778-6.447,11.88l45.634,29.622H80.842z"/>
        <polygon style="fill:#FF4B55;" points="186.432,94.316 256,49.157 256,33.092 161.684,94.316  "/>
</g>
    <g>
</g>
    <g>
</g>
    <g>
</g>
    <g>
</g>
    <g>
</g>
    <g>
</g>
    <g>
</g>
    <g>
</g>
    <g>
</g>
    <g>
</g>
    <g>
</g>
    <g>
</g>
    <g>
</g>
    <g>
</g>
    <g>
</g>
</svg>
