<svg xmlns="http://www.w3.org/2000/svg" xmlns:xlink="http://www.w3.org/1999/xlink" id="Layer_1" x="0" y="0" enable-background="new 0 0 512 512" version="1.1" viewBox="0 0 512 512" xml:space="preserve"><path fill="#FF4B55" d="M400,0H112C50.144,0,0,50.144,0,112v288c0,61.856,50.144,112,112,112h288 c61.856,0,112-50.144,112-112V112C512,50.144,461.856,0,400,0z"/><g><path fill="#FFE15A" d="M189.327,262.901c-0.238-2.301-0.696-4.537-0.696-6.901c0-2.364,0.458-4.6,0.696-6.901l-0.001,0.004 L0,229.517v52.966l189.327-19.586V262.901z"/><polygon fill="#FFE15A" points="245.53 189.687 245.529 189.686 245.528 189.687"/><path fill="#FFE15A" d="M256,188.632c3.587,0,7.036,0.515,10.47,1.055L296.421,0h-80.842l29.951,189.686 C248.964,189.146,252.413,188.632,256,188.632z"/><polygon fill="#FFE15A" points="266.472 189.687 266.47 189.686 266.47 189.687"/><path fill="#FFE15A" d="M322.673,249.099c0.238,2.301,0.696,4.537,0.696,6.901c0,2.364-0.458,4.6-0.696,6.901l0.001-0.004 L512,282.483v-52.966l-189.327,19.585V249.099z"/><polygon fill="#FFE15A" points="245.528 322.314 245.529 322.314 245.53 322.314"/><path fill="#FFE15A" d="M256,323.368c-3.587,0-7.036-0.515-10.471-1.055L215.579,512h80.842L266.47,322.314 C263.036,322.854,259.587,323.368,256,323.368z"/><polygon fill="#FFE15A" points="266.47 322.314 266.47 322.314 266.472 322.314"/><path fill="#FFE15A" d="M209.796,207.182c-0.008,0.008-0.017,0.013-0.025,0.021L39.062,27.009 C20.513,42.942,7.24,64.84,2.218,89.729L199.71,219.121C202.59,214.735,206.001,210.775,209.796,207.182z"/><path fill="#FFE15A" d="M302.204,207.182c3.795,3.593,7.206,7.554,10.086,11.939L509.782,89.729 c-5.022-24.889-18.296-46.787-36.844-62.72L302.229,207.202C302.221,207.195,302.212,207.189,302.204,207.182z"/><path fill="#FFE15A" d="M302.204,304.818c0.008-0.007,0.017-0.013,0.026-0.02l170.709,180.193 c18.548-15.933,31.822-37.83,36.844-62.72L312.289,292.879C309.41,297.265,305.999,301.225,302.204,304.818z"/><path fill="#FFE15A" d="M209.796,304.818c-3.795-3.593-7.206-7.553-10.086-11.939L2.218,422.271 c5.022,24.889,18.296,46.787,36.844,62.72l170.709-180.193C209.779,304.805,209.788,304.811,209.796,304.818z"/><circle cx="256" cy="256" r="35.31" fill="#FFE15A"/></g></svg>