<?xml version="1.0" encoding="iso-8859-1"?>
<!-- Generator: Adobe Illustrator 19.0.0, SVG Export Plug-In . SVG Version: 6.00 Build 0)  -->
<svg xmlns:xlink="http://www.w3.org/1999/xlink" xmlns="http://www.w3.org/2000/svg" version="1.1" id="Layer_1" x="0px"
     y="0px" viewBox="0 0 512 512" style="enable-background:new 0 0 512 512;" xml:space="preserve">
<path style="fill:#C8414B;"
      d="M384.108,469.842H127.892c-45.26,0-81.95-36.69-81.95-81.95V124.108c0-45.26,36.69-81.95,81.95-81.95  h256.217c45.26,0,81.95,36.69,81.95,81.95v263.784C466.059,433.152,429.368,469.842,384.108,469.842z"/>
    <path style="fill:#E6B432;"
          d="M400,0H112C50.144,0,0,50.144,0,112v288c0,61.856,50.144,112,112,112h288  c61.856,0,112-50.144,112-112V112C512,50.144,461.856,0,400,0z M383.641,469.842H127.425c-45.002,0-81.484-36.481-81.484-81.484  V123.642c0-45.002,36.481-81.484,81.484-81.484h256.216c45.002,0,81.484,36.481,81.484,81.484v264.717  C465.125,433.361,428.644,469.842,383.641,469.842z"/>
    <path style="fill:#41479B;"
          d="M378.255,332.943c1.199,12.107-8.892,22.198-20.999,20.999c-8.959-0.887-16.205-8.134-17.092-17.092  c-1.199-12.107,8.892-22.198,20.999-20.999C370.121,316.738,377.368,323.984,378.255,332.943z"/>
    <g>
	<path style="fill:#E6B432;"
          d="M392.801,224.995c-14.088,11.844-23.562,12.342-23.562,12.342   c25.058-10.223,22.44-29.671,22.44-29.671c-11.844,15.583-23.936,19.947-23.936,19.947c25.183-17.08,21.193-40.018,21.193-40.018   c-8.228,18.202-18.638,25.308-18.638,25.308c20.944-27.863,10.659-45.815,10.659-45.815c-8.228,25.806-15.147,33.286-15.147,33.286   c16.082-43.01,2.307-55.415,2.307-55.415c0,23.064-8.602,36.278-8.602,36.278c8.976-30.419-5.111-47.873-5.111-47.873   s-0.132,24.799-4.909,37.79c-1.146-1.74-1.824-1.511-1.824-1.511c-2.428,15.929-10.989,27.143-14.685,31.364   c-0.82-3.97-3.289-5.186-3.289-5.186s-0.446,3.897-3.942,9.645c-2.291,3.766-13.115,12.547-14.86,20.277   c-1.4,6.197,4.737,11.345,6.732,12.592s4.114,3.491,3.241,7.106c-0.873,3.615-7.355,3.241-11.968,3.117   c-4.613-0.125-5.236,7.48-10.347,7.231l-0.866,5.671l-2.001,0.438c0,0-20.944,41.735-22.727,55.937l-15.421,2.034l-15.421-2.034   c-1.783-14.202-22.727-55.937-22.727-55.937l-2.001-0.438l-0.866-5.671c-5.111,0.249-5.735-7.355-10.347-7.231   c-4.613,0.124-11.096,0.499-11.968-3.117c-0.873-3.615,1.246-5.859,3.241-7.106c1.995-1.247,8.132-6.395,6.732-12.592   c-1.745-7.729-12.569-16.511-14.86-20.277c-3.497-5.747-3.942-9.645-3.942-9.645s-2.469,1.215-3.289,5.186   c-3.696-4.221-12.257-15.435-14.685-31.364c0,0-0.677-0.229-1.824,1.511c-4.777-12.991-4.908-37.79-4.908-37.79   s-14.088,17.454-5.111,47.873c0,0-8.602-13.215-8.602-36.278c0,0-13.776,12.404,2.307,55.415c0,0-6.919-7.48-15.147-33.286   c0,0-10.285,17.952,10.659,45.815c0,0-10.41-7.106-18.638-25.308c0,0-3.989,22.939,21.193,40.018c0,0-12.093-4.363-23.936-19.947   c0,0-2.618,19.448,22.44,29.671c0,0-9.475-0.499-23.562-12.342c0,0-2.493,17.204,30.17,26.056c0,0-13.34-0.249-26.928-9.35   c0,0-0.374,16.955,27.552,20.321c0,0-9.226,1.371-19.573-2.369c0,0,0.374,13.713,24.684,15.459c0,0-9.599,0.748-15.833-0.748   c0,0,0.623,14.088,19.822,11.719c0,0-6.483,2.12-8.602,2.743c0,0,0.374,11.501,20.383,7.387c0,0-3.553,2.213-8.415,2.961   c0,0,4.114,9.6,20.82,5.361l-3.428,3.74c0,0,12.903,7.48,22.814-2.805l-3.553,6.358c0,0,8.415,3.179,13.651-5.049   c0,0-1.434,12.342-18.887,14.586c0,0,0.624,2.618,1.372,3.615c0,0-1.122,2.119-11.22,3.865c0,0,2.119,3.241,4.363,4.239   c0,0-4.363,3.74-6.732,4.488c0,0,3.74,1.87,6.109,2.244c0,0-5.236,5.112-11.719,5.236c-6.483,0.125-18.077-0.623-18.077-0.623   s-0.125-6.233-3.117-11.594s-3.99-5.766-3.99-5.766s0.655-4.301-1.215-6.078c-1.87-1.776-2.898-2.618-2.898-2.618   s0.997-8.602-1.745-13.963c-2.743-5.361-12.467-17.079-12.965-25.806c-0.499-8.727-0.125-11.968-0.125-11.968l-2.992,0.748   l-1.994-4.114l3.366-0.374l-1.372-6.233l-4.613,1.745l-0.623-5.361l-5.485,2.244l2.743,4.862l-4.862,1.372l2.867,5.735l3.74-2.369   l0.997,4.987c0,0-2.244,0.499-3.491,2.493c0,0,6.168,4.095,7.979,8.976c2.868,7.729,1.995,25.183,6.109,30.419   s7.355,8.852,7.355,8.852s-1.153,3.553,0.156,5.517s3.179,2.525,3.179,2.525s-1.122,7.948,1.777,13.184   c2.898,5.236,4.582,6.545,4.582,6.545s-10.566,6.452-3.086,13.932c0,0-0.997,6.794,6.109,8.415c0,0,0.374,5.361,6.483,4.737   c0,0,2.992-0.873,3.74,0.623s0,10.098,0,10.098s2.743-0.249,4.488-1.496l5.485,2.743l0.125-6.109l6.857-2.743   c0,0-2.992,0.499-9.101-5.236c0,0,0.997-0.624,1.745-5.486c0,0,4.862-3.865,5.859-6.982s7.854-9.973,15.833-12.217l1.091,4.862   c0,0,11.407-10.098,16.176-10.659l3.927,5.174c0,0,14.711-21.817,21.194-25.682c-0.498,1.745,3.117,1.995-4.924,10.971   s-3.055,16.082-3.055,16.082c-4.987,4.114-3.989,7.854-4.613,12.093c-0.623,4.239-17.204,15.21-17.204,15.21   c5.236,6.607,11.096,5.111,11.096,5.111c-3.242,2.12-2.244,9.226-2.244,9.226c4.737,1.247,9.475-0.873,9.475-0.873   c-1.621,4.488,0.872,7.605,0.872,7.605c2.992-1.87,9.849-2.992,9.849-2.992c-0.873,7.729,4.114,11.844,4.114,11.844l4.363-4.738   c0.748,8.727,8.478,13.714,8.478,13.714s7.73-4.987,8.478-13.714l4.363,4.738c0,0,4.987-4.114,4.114-11.844   c0,0,6.857,1.122,9.849,2.992c0,0,2.493-3.116,0.873-7.605c0,0,4.737,2.119,9.475,0.873c0,0,0.998-7.106-2.244-9.226   c0,0,5.859,1.496,11.096-5.111c0,0-16.581-10.971-17.204-15.21c-0.623-4.239,0.374-7.979-4.613-12.093   c0,0,4.987-7.106-3.055-16.082c-8.041-8.976-4.426-9.226-4.924-10.971c6.483,3.865,21.194,25.682,21.194,25.682l3.927-5.174   c4.769,0.561,16.176,10.659,16.176,10.659l1.091-4.862l0.205-0.224c5.948,3.202,15.771,7.535,19.742,10.571   c4.239,3.242,7.729,3.491,17.952,0s29.243-8.859,26.43-15.21c-0.153-0.347-0.328-0.578-0.495-0.849   c0.447-1.641,0.63-4.503-2.373-7.005c0,0,0.035,0.697,0.011,1.591l-9.746-3.632c-0.323-0.862-0.803-1.708-1.734-2.447   c0,0,0.015,0.749-0.119,1.756l-2.5-0.932l4.988-14.035c-0.377-0.211-0.802-0.329-1.193-0.514c0.1-1.27,0.342-3.028,0.712-4.865   c1.218,0.426,2.331,0.952,3.138,1.612l1.408-5.139c0,0-1.513-0.099-3.511-0.473c0.505-1.55,1.103-2.942,1.814-3.841l-6.607-1.995   c0,0,0.171,2.001,0.054,4.501c-1.26-0.512-2.465-1.161-3.436-1.994l-1.549,5.702c0.532,0.031,2.336,0.188,4.426,0.559   c-0.377,1.674-1.042,3.159-1.997,4.274c-0.236-0.032-0.453-0.116-0.692-0.14l-4.844,13.63l-13.139-4.896   c-0.564,0.887-0.997,1.853-1.404,2.83c0.07-0.143,0.132-0.365,0.205-0.455c0,0-5.084,2.658-5.013,6.564   c-0.935,0.355-1.756,1.057-2.22,2.275c-1.496,3.927,7.667,12.716,5.423,13.838c-2.202,1.101-13.713-8.379-15.557-9.971   c2.373-0.461,5.833-2.184,5.833-2.184c-2.369-0.748-6.732-4.488-6.732-4.488c2.244-0.997,4.363-4.239,4.363-4.239   c-10.098-1.745-11.22-3.865-11.22-3.865c0.748-0.997,1.371-3.615,1.371-3.615c-17.454-2.244-18.887-14.586-18.887-14.586   c5.236,8.228,13.651,5.049,13.651,5.049l-3.553-6.358c9.911,10.285,22.814,2.805,22.814,2.805l-3.428-3.74   c16.706,4.239,20.82-5.361,20.82-5.361c-4.862-0.748-8.415-2.961-8.415-2.961c20.009,4.114,20.383-7.387,20.383-7.387   c-2.119-0.623-8.602-2.743-8.602-2.743c19.199,2.369,19.822-11.719,19.822-11.719c-6.234,1.496-15.833,0.748-15.833,0.748   c24.31-1.745,24.684-15.459,24.684-15.459c-10.348,3.74-19.573,2.369-19.573,2.369c27.926-3.366,27.552-20.321,27.552-20.321   c-13.589,9.101-26.928,9.35-26.928,9.35C395.294,242.2,392.801,224.995,392.801,224.995z M364.47,348.323   c-1.331-2.164,1.843-4.097,3.273-6.157l5.525,2.059C371.391,346.461,365.843,350.553,364.47,348.323z M360.779,339.571   c-1.792,2.776-3.039,5.892-8.557,6.041c-6.919,0.187-8.041-5.984-9.537-9.35c-0.436-0.981-1.188-1.723-2.052-2.23   c-0.004-0.603,0.028-1.268,0.083-1.937L360.779,339.571z"/>
        <path style="fill:#E6B432;"
              d="M255.479,207.854c0,0-8.883-7.574-11.501-11.688c0,0,2.992-1.215,4.488-3.085   c0,0-8.041-4.301-12.342-8.696c0,0,2.805-0.467,4.956-2.244c0,0-7.222-1.305-10.884-7.219c8.35-2.85,5.555-10.64,5.555-10.64   c-1.683,2.244-8.602,5.049-16.082,1.87s-15.708-0.935-15.708,3.179c0,0-16.83-4.862-12.623,11.407c0,0,2.712-6.078,8.696-3.834   s12.062,9.911,12.062,9.911s-3.74,2.057-10.659-0.187c0,0,2.805,10.753,15.428,5.33c0,0,4.987,2.68,5.236,10.534   c0,0,2.12-1.122,3.491-3.615c0,0,1.995,7.605-0.623,13.838c0,0,3.49-0.623,4.613-1.745c0,0,0.997,6.607-3.366,11.968   c0,0,19.168,9.132,31.323-0.873c0,0-4.582-5.236-6.078-10.098C251.459,211.968,253.983,210.939,255.479,207.854z"/>
        <path style="fill:#E6B432;"
              d="M311.112,169.331c0-4.114-8.228-6.358-15.708-3.179s-14.399,0.374-16.082-1.87   c0,0-2.795,7.79,5.555,10.64c-3.663,5.914-10.884,7.219-10.884,7.219c2.15,1.777,4.955,2.244,4.955,2.244   c-4.301,4.395-12.342,8.696-12.342,8.696c1.496,1.87,4.488,3.085,4.488,3.085c-2.618,4.114-11.501,11.688-11.501,11.688   c1.496,3.086,4.021,4.114,4.021,4.114c-1.496,4.862-6.078,10.098-6.078,10.098c12.155,10.005,31.323,0.873,31.323,0.873   c-4.363-5.361-3.366-11.968-3.366-11.968c1.122,1.122,4.613,1.745,4.613,1.745c-2.618-6.233-0.623-13.838-0.623-13.838   c1.371,2.493,3.491,3.615,3.491,3.615c0.249-7.854,5.236-10.534,5.236-10.534c12.623,5.423,15.428-5.33,15.428-5.33   c-6.919,2.244-10.659,0.187-10.659,0.187s6.077-7.667,12.062-9.911c5.984-2.244,8.696,3.834,8.696,3.834   C327.943,164.469,311.112,169.331,311.112,169.331z"/>
        <path style="fill:#E6B432;"
              d="M303.492,268.66c-1.641-9.555-3.056-17.808,1.066-27.265l0.768-1.766l-16.325-18.747l-1.93,0.643   c-0.167,0.057-17.23,5.635-28.171,0.164l-1.364-0.682l-1.364,0.682c-10.889,5.457-27.998-0.107-28.174-0.167l-1.93-0.637   l-16.322,18.744l0.768,1.766c4.122,9.457,2.707,17.71,1.066,27.265c-1.546,9.022-3.3,19.25-0.214,31.724   c3.351,13.54,14.63,18.353,24.581,22.604c7.67,3.273,14.913,6.365,19.009,12.855l2.579,4.089l2.579-4.089   c4.095-6.49,11.339-9.582,19.009-12.855c9.951-4.25,21.231-9.064,24.581-22.604C306.792,287.91,305.037,277.681,303.492,268.66z    M216.844,240.763l11.205-12.864c5.075,1.394,18.794,4.414,29.487-0.125c10.69,4.539,24.409,1.519,29.487,0.125l11.205,12.864   c-3.935,10.362-2.386,19.396-0.751,28.927c1.224,7.141,2.442,14.499,1.42,22.972h-82.722c-1.022-8.473,0.196-15.831,1.42-22.972   C219.23,260.159,220.779,251.125,216.844,240.763z M276.73,317.376c-6.934,2.961-14.067,6.005-19.193,11.783   c-5.126-5.778-12.26-8.822-19.193-11.783c-9.73-4.155-18.125-7.785-20.892-17.98h80.171   C294.855,309.59,286.46,313.221,276.73,317.376z"/>
</g>
    <path style="fill:#41479B;"
          d="M216.844,240.763l11.205-12.864c5.075,1.394,18.794,4.414,29.487-0.125  c10.69,4.539,24.409,1.519,29.487,0.125l11.205,12.864c-3.935,10.362-2.386,19.396-0.751,28.927  c1.224,7.141,2.442,14.499,1.42,22.972h-82.722c-1.022-8.473,0.196-15.831,1.42-22.972  C219.23,260.159,220.779,251.125,216.844,240.763z"/>
    <path style="fill:#73AF00;"
          d="M217.02,297.616c0.096,0.438,0.158,0.858,0.268,1.302c2.621,10.589,11.163,14.234,21.055,18.458  c6.934,2.961,14.067,6.005,19.193,11.783c5.126-5.778,12.259-8.822,19.193-11.783c9.892-4.223,18.434-7.869,21.055-18.458  c0.11-0.444,0.171-0.864,0.268-1.302H217.02z"/>
    <g>
	<path style="fill:#E6B432;"
          d="M294.136,262.256c0-5.516-5.242-6.386-10.008-6.291c-4.766,0.095-11.738-0.775-11.914-4.48   c-0.11-2.31,3.766-2.525,6.291-1.716c1.466,0.47,10.58,2.097,13.439-4.003c0,0-3.334,0.108-6.85-0.682   c-2.711-0.609-13.833,0.777-15.834,5.066c-2.002,4.289,4.453,8.569,11.887,8.569s8.454,1.488,8.396,3.301   c-0.077,2.382-5.971,3.057-9.36,3.025c-5.333-1.937-17.779-0.419-17.839-0.656c-0.072-0.287-2.871-5.095-2.871-5.095   s5.095-0.359,5.741-1.292c0.646-0.933-3.866-4.515-3.866-4.515s3.794-1.513,3.938-2.589c0.158-1.184-3.08-3.987-3.08-3.987   s1.251-1.234,2.192-3.336c0.673-1.504-4.67-1.906-4.67-1.906c0.286-1.144,0.176-2.253-1.239-2.764   c-1.094-0.395-5.147,1.144-7.911,1.144s-3.813,2.002-3.813,2.002s-4.861,0.572-5.528,1.144c-0.667,0.572,0.191,4.289,0.191,4.289   c-2.478-0.381-3.622-2.573-3.622-2.573c-1.239,5.623,4.575,6.195,4.575,6.195l0.953,3.05c0,0,0,0,2.383,0.286   s1.239,2.573-2.478,2.573s-5.295,4.434-5.295,4.434c-2.583,0.072-4.019-2.009-4.593-4.665c-0.632-2.923-0.26-7.413,0.216-10.262   c0.574-3.445-1.149-4.449-1.149-4.449l-1.148,2.87c-0.072-2.942-2.655-3.229-2.655-3.229l-0.431,3.588   c-1.292-2.368-3.517-1.292-3.517-1.292s2.153,7.751,2.081,8.181c-0.072,0.431-0.789,0.789-1.794-0.287s-1.722-0.359-1.722-0.359   c1.076,7.751,5.233,6.614,5.233,6.614s0.186,2.427,1.441,7.357c1.34,5.263,6.851,4.271,6.851,4.271   c0,1.716,1.334,4.194,1.716,9.912c0.381,5.719-4.861,9.722-4.861,9.722c-4.766-0.095-4.289,4.575-4.289,4.575h13.153   c0-12.162,5.228-14.248,5.228-14.248c7.75,0.359,15.214-2.871,15.214-2.871c-1.148,4.665,0.861,6.602,0.861,6.602   c3.158-0.43,1.579,5.813,0.646,5.813s-2.87,0-4.019,0c-1.148,0-4.449,3.588-4.449,3.588h13.635c0,0,2.081-3.014,2.799-4.521   c0.717-1.507-1.579-3.588-1.722-5.167c-0.144-1.579,2.368-2.584,2.368-2.584c2.655,3.732,8.755,3.947,8.755,3.947l-0.143-2.799   c0,0,3.158,1.077,3.875,2.009c0.717,0.933,0.574,5.239-3.229,5.741c-3.803,0.502-4.091,3.229-4.091,3.229s8.683,0,10.406,0   c1.722,0,3.086-3.229,3.086-4.449s0-9.186,0-10.908s-1.435-1.507-4.808-1.866c-3.064-0.326-2.771-3.678-4.033-7.569   C287.286,267.795,294.136,266.826,294.136,262.256z"/>
        <path style="fill:#E6B432;"
              d="M293.329,131.846c-0.853-7.525-6.852-17.108-29.702-21.599c-0.076-2.427-1.57-4.486-3.704-5.352   v-4.193h3.74v-4.488h-3.74v-3.74h-4.488v3.74h-3.74v4.488h3.74v4.193c-2.134,0.867-3.628,2.925-3.704,5.352   c-22.85,4.492-28.849,14.074-29.702,21.599c-1.064,9.383,5.656,18.281,11.714,21.691v4.761h47.872v-4.761   C287.673,150.127,294.393,141.23,293.329,131.846z M268.268,146.33h-6.7v-27.599c5.523,2.495,8.94,6.321,9.934,11.576   C272.741,136.85,270.125,143.522,268.268,146.33z M243.855,130.304c0.995-5.254,4.411-9.081,9.934-11.574v27.6h-6.701   C245.23,143.521,242.614,136.847,243.855,130.304z M238.316,122.724c-1.101,2.204-1.801,4.409-2.16,6.434   c-1.084,6.131,0.159,12.361,2.21,17.172h-1.573c-3.357-2.312-7.67-7.997-7.033-13.607   C230.204,128.799,233.18,125.431,238.316,122.724z M278.564,146.33h-1.575c2.052-4.81,3.294-11.039,2.213-17.169   c-0.358-2.026-1.059-4.233-2.161-6.438c5.137,2.706,8.113,6.075,8.557,10C286.234,138.334,281.921,144.019,278.564,146.33z"/>
</g>
    <g>
</g>
    <g>
</g>
    <g>
</g>
    <g>
</g>
    <g>
</g>
    <g>
</g>
    <g>
</g>
    <g>
</g>
    <g>
</g>
    <g>
</g>
    <g>
</g>
    <g>
</g>
    <g>
</g>
    <g>
</g>
    <g>
</g>
</svg>
