<?xml version="1.0" encoding="iso-8859-1"?>
<!-- Generator: Adobe Illustrator 19.0.0, SVG Export Plug-In . SVG Version: 6.00 Build 0)  -->
<svg xmlns:xlink="http://www.w3.org/1999/xlink" xmlns="http://www.w3.org/2000/svg" version="1.1" id="Layer_1" x="0px"
     y="0px" viewBox="0 0 512 512" style="enable-background:new 0 0 512 512;" xml:space="preserve">
<path style="fill:#41479B;"
      d="M111.974,0C51.224,0,1.775,48.368,0.026,108.695v294.61C1.775,463.632,51.224,512,111.974,512h91.087  V0H111.974z"/>
    <path style="fill:#F5F5F5;"
          d="M511.974,400V112c0-61.856-50.144-112-112-112H203.061v512h196.913  C461.83,512,511.974,461.856,511.974,400z"/>
    <g>
	<path style="fill:#FFE15A;"
          d="M278.247,339.37c-4.703,0-9.266,1.601-12.938,4.538l-22.277,17.821   c-3.673,2.938-8.236,4.539-12.939,4.539h-6.184v-3.557c0-5.463,4.429-9.892,9.892-9.892h10.282v-4.794   c0-4.78-3.875-8.656-8.656-8.656h-4.794l0,0c0-3.714-3.011-6.725-6.725-6.725l0,0c-18.569,0-33.623,15.054-33.623,33.623h-12.909   c-4.703,0-9.265-1.6-12.937-4.538l-22.278-17.822c-3.672-2.938-8.235-4.538-12.937-4.538H31.126c-3.305,0-4.96,3.996-2.623,6.333   l33.954,33.954c4.345,4.345,10.237,6.785,16.381,6.785h24.027l19.726,14.794c4.656,3.492,10.319,5.38,16.139,5.38h24.657   c4.233,0,8.219-1.993,10.759-5.38l2.69-3.587v15.691l-16.595,33.19c-1.644,3.289,0.747,7.158,4.424,7.158h54.297   c2.732,0,4.946-2.214,4.946-4.946v-60.059l9.415,12.553c2.54,3.387,6.526,5.38,10.759,5.38h24.657c5.82,0,11.483-1.888,16.139-5.38   l19.726-14.794h24.028c6.144,0,12.036-2.441,16.381-6.785l33.955-33.955c2.337-2.337,0.682-6.333-2.623-6.333h-98.098   L278.247,339.37L278.247,339.37z"/>
        <path style="fill:#FFE15A;"
              d="M205.034,230.412l3.215,9.64l10.162,0.079c1.316,0.01,1.861,1.689,0.803,2.471l-8.175,6.037   l3.065,9.689c0.397,1.254-1.031,2.292-2.102,1.527l-8.267-5.909l-8.267,5.909c-1.07,0.765-2.498-0.273-2.102-1.527l3.065-9.689   l-8.175-6.037c-1.058-0.781-0.513-2.46,0.803-2.471l10.162-0.079l3.215-9.64C202.853,229.164,204.618,229.164,205.034,230.412z"/>
        <path style="fill:#FFE15A;"
              d="M55.766,291.165l9.09,4.543l7.241-7.13c0.938-0.923,2.51-0.122,2.315,1.179L72.9,299.806   l9.019,4.684c1.168,0.606,0.891,2.35-0.406,2.566l-10.024,1.667l-1.667,10.024c-0.216,1.298-1.96,1.574-2.566,0.406l-4.684-9.018   l-10.049,1.512c-1.301,0.196-2.103-1.377-1.179-2.315l7.13-7.241l-4.543-9.09C53.341,291.825,54.589,290.577,55.766,291.165z"/>
        <path style="fill:#FFE15A;"
              d="M353.542,293.002l-4.543,9.09l7.13,7.241c0.923,0.938,0.122,2.51-1.179,2.315l-10.049-1.512   l-4.684,9.018c-0.606,1.168-2.35,0.891-2.566-0.406l-1.667-10.024l-10.024-1.667c-1.298-0.216-1.574-1.96-0.406-2.566l9.018-4.684   l-1.512-10.049c-0.196-1.301,1.377-2.102,2.315-1.179l7.241,7.13l9.09-4.543C352.882,290.577,354.13,291.825,353.542,293.002z"/>
        <path style="fill:#FFE15A;"
              d="M124.358,245.943l6.659,7.676l9.418-3.816c1.219-0.494,2.366,0.848,1.687,1.976l-5.242,8.706   l6.54,7.778c0.847,1.007-0.076,2.512-1.357,2.215l-9.899-2.296l-5.377,8.623c-0.696,1.116-2.413,0.704-2.526-0.606l-0.876-10.124   l-9.863-2.449c-1.277-0.317-1.415-2.077-0.204-2.59l9.358-3.962l-0.719-10.137C121.865,245.624,123.496,244.949,124.358,245.943z"/>
        <path style="fill:#FFE15A;"
              d="M285.513,246.937l-0.719,10.137l9.358,3.962c1.212,0.513,1.073,2.273-0.204,2.59l-9.863,2.449   l-0.876,10.124c-0.113,1.311-1.83,1.723-2.526,0.606l-5.377-8.623l-9.899,2.296c-1.282,0.297-2.204-1.208-1.357-2.215l6.54-7.778   l-5.242-8.706c-0.679-1.127,0.468-2.47,1.687-1.976l9.418,3.816l6.659-7.676C283.975,244.949,285.606,245.624,285.513,246.937z"/>
        <path style="fill:#FFE15A;"
              d="M163.931,234.204l5.034,8.828l9.982-1.905c1.292-0.247,2.155,1.294,1.269,2.267l-6.84,7.516   l4.896,8.905c0.634,1.153-0.564,2.449-1.763,1.908l-9.261-4.183l-6.956,7.409c-0.9,0.959-2.504,0.22-2.359-1.088l1.116-10.101   l-9.195-4.326c-1.191-0.56-0.983-2.313,0.305-2.58l9.951-2.06l1.273-10.082C161.548,233.406,163.279,233.061,163.931,234.204z"/>
        <path style="fill:#FFE15A;"
              d="M321.796,266.619l-2.682,9.802l8.405,5.711c1.088,0.739,0.609,2.439-0.705,2.5l-10.151,0.478   l-2.834,9.759c-0.367,1.263-2.131,1.333-2.596,0.102l-3.591-9.506l-10.157,0.32c-1.315,0.042-1.926-1.615-0.899-2.437l7.931-6.353   l-3.443-9.561c-0.446-1.238,0.941-2.331,2.04-1.608l8.493,5.58l8.029-6.229C320.676,264.369,322.144,265.35,321.796,266.619z"/>
        <path style="fill:#FFE15A;"
              d="M87.835,265.176l8.029,6.229l8.493-5.58c1.1-0.723,2.486,0.37,2.04,1.608l-3.443,9.561l7.931,6.353   c1.027,0.823,0.416,2.479-0.899,2.437l-10.157-0.32l-3.591,9.506c-0.465,1.231-2.229,1.161-2.596-0.102l-2.834-9.759l-10.151-0.478   c-1.314-0.062-1.793-1.761-0.705-2.5l8.406-5.711l-2.683-9.802C85.327,265.35,86.795,264.369,87.835,265.176z"/>
        <path style="fill:#FFE15A;"
              d="M246.088,234.711l1.273,10.082l9.951,2.06c1.288,0.267,1.496,2.02,0.305,2.58l-9.195,4.326   l1.116,10.101c0.145,1.308-1.459,2.047-2.359,1.088l-6.956-7.409l-9.261,4.183c-1.199,0.542-2.397-0.755-1.763-1.908l4.896-8.905   l-6.84-7.516c-0.885-0.973-0.023-2.513,1.269-2.267l9.982,1.905l5.034-8.828C244.191,233.061,245.923,233.406,246.088,234.711z"/>
</g>
    <path style="fill:#FF4B55;"
          d="M116.368,71.606v35.213c0,14.562-11.847,26.409-26.409,26.409S63.55,121.381,63.55,106.819V71.606  H116.368 M125.171,54H54.746c-4.862,0-8.803,3.941-8.803,8.803v44.016c0,24.309,19.707,44.016,44.016,44.016  s44.016-19.706,44.016-44.016V62.803C133.974,57.941,130.033,54,125.171,54L125.171,54z"/>
    <path style="fill:#F5F5F5;"
          d="M116.368,71.606v35.213c0,14.562-11.847,26.409-26.409,26.409S63.55,121.381,63.55,106.819V71.606  H116.368"/>
    <g>
	<path style="fill:#FFE15A;"
          d="M58.198,60c2.885,4.458-1.866,9.209-6.324,6.324c-0.285-0.184-0.533-0.433-0.717-0.717   c-2.885-4.458,1.866-9.209,6.324-6.324C57.765,59.467,58.014,59.715,58.198,60z"/>
        <path style="fill:#FFE15A;"
              d="M128.623,60c2.885,4.458-1.866,9.209-6.324,6.324c-0.285-0.184-0.533-0.433-0.717-0.717   c-2.885-4.458,1.866-9.209,6.324-6.324C128.19,59.467,128.439,59.715,128.623,60z"/>
        <path style="fill:#FFE15A;"
              d="M58.198,95.213c2.885,4.458-1.866,9.209-6.324,6.324c-0.285-0.184-0.533-0.433-0.717-0.717   c-2.885-4.458,1.866-9.209,6.324-6.324C57.765,94.679,58.014,94.928,58.198,95.213z"/>
        <path style="fill:#FFE15A;"
              d="M128.623,95.213c2.885,4.458-1.866,9.209-6.324,6.324c-0.285-0.184-0.533-0.433-0.717-0.717   c-2.885-4.458,1.866-9.209,6.324-6.324C128.19,94.679,128.439,94.928,128.623,95.213z"/>
        <path style="fill:#FFE15A;"
              d="M93.41,60c2.885,4.458-1.866,9.209-6.324,6.324c-0.284-0.184-0.533-0.433-0.717-0.717   c-2.885-4.458,1.866-9.209,6.324-6.324C92.977,59.467,93.226,59.715,93.41,60z"/>
        <path style="fill:#FFE15A;"
              d="M119.838,127.674c2.885,4.458-1.866,9.209-6.324,6.324c-0.285-0.184-0.533-0.433-0.717-0.717   c-2.885-4.458,1.866-9.209,6.324-6.324C119.404,127.141,119.653,127.39,119.838,127.674z"/>
        <path style="fill:#FFE15A;"
              d="M67.501,127.674c2.885,4.458-1.866,9.209-6.324,6.324c-0.285-0.184-0.533-0.433-0.717-0.717   c-2.885-4.458,1.866-9.209,6.324-6.324C67.068,127.141,67.317,127.39,67.501,127.674z"/>
</g>
    <g>
	<path style="fill:#41479B;"
          d="M95.644,95.784v7.58c0,3.135-2.55,5.685-5.685,5.685c-3.135,0-5.685-2.55-5.685-5.685v-7.58H95.644"/>
        <path style="fill:#41479B;"
              d="M95.644,77.811v7.58c0,3.135-2.55,5.685-5.685,5.685c-3.135,0-5.685-2.55-5.685-5.685v-7.58H95.644"/>
        <path style="fill:#41479B;"
              d="M95.644,113.941v7.581c0,3.135-2.55,5.685-5.685,5.685c-3.135,0-5.685-2.55-5.685-5.685v-7.581   H95.644"/>
        <path style="fill:#41479B;"
              d="M110.957,95.784v7.58c0,3.135-2.55,5.685-5.685,5.685c-3.135,0-5.685-2.55-5.685-5.685v-7.58   H110.957"/>
        <path style="fill:#41479B;"
              d="M80.33,95.784v7.58c0,3.135-2.55,5.685-5.685,5.685c-3.135,0-5.685-2.55-5.685-5.685v-7.58H80.33"/>
</g>
    <g>
</g>
    <g>
</g>
    <g>
</g>
    <g>
</g>
    <g>
</g>
    <g>
</g>
    <g>
</g>
    <g>
</g>
    <g>
</g>
    <g>
</g>
    <g>
</g>
    <g>
</g>
    <g>
</g>
    <g>
</g>
    <g>
</g>
</svg>
