<?xml version="1.0" encoding="iso-8859-1"?>
<!-- Generator: Adobe Illustrator 19.0.0, SVG Export Plug-In . SVG Version: 6.00 Build 0)  -->
<svg xmlns:xlink="http://www.w3.org/1999/xlink" xmlns="http://www.w3.org/2000/svg" version="1.1" id="Layer_1" x="0px"
     y="0px" viewBox="0 0 512 512" style="enable-background:new 0 0 512 512;" xml:space="preserve">
<rect x="114.76" style="fill:#FFE15A;" width="282.48" height="512"/>
    <path style="fill:#73AF00;"
          d="M512,400V112C512,50.144,461.856,0,400,0h-2.758v512H400C461.856,512,512,461.856,512,400z"/>
    <path style="fill:#4173CD;"
          d="M112,0C50.151,0,0.011,50.134,0,111.98v288.04C0.011,461.866,50.151,512,112,512h2.759V0H112z"/>
    <g>
	<polygon style="fill:#73AF00;" points="184.195,247.348 216.266,311.489 248.336,247.348 216.266,183.207  "/>
        <polygon style="fill:#73AF00;" points="263.664,247.348 295.735,311.489 327.805,247.348 295.735,183.207  "/>
        <polygon style="fill:#73AF00;" points="223.93,324.459 256,388.6 288.071,324.459 256,260.318  "/>
</g>
    <g>
</g>
    <g>
</g>
    <g>
</g>
    <g>
</g>
    <g>
</g>
    <g>
</g>
    <g>
</g>
    <g>
</g>
    <g>
</g>
    <g>
</g>
    <g>
</g>
    <g>
</g>
    <g>
</g>
    <g>
</g>
    <g>
</g>
</svg>
