<?xml version="1.0" encoding="iso-8859-1"?>
<!-- Generator: Adobe Illustrator 19.0.0, SVG Export Plug-In . SVG Version: 6.00 Build 0)  -->
<svg xmlns:xlink="http://www.w3.org/1999/xlink" xmlns="http://www.w3.org/2000/svg" version="1.1" id="Layer_1" x="0px"
     y="0px" viewBox="0 0 512 512" style="enable-background:new 0 0 512 512;" xml:space="preserve">
<rect x="114.76" style="fill:#F5F5F5;" width="282.48" height="512"/>
    <g>
	<path style="fill:#FF4B55;" d="M112,0C50.144,0,0,50.144,0,112v288c0,61.856,50.144,112,112,112h2.758V0H112z"/>
        <path style="fill:#FF4B55;"
              d="M400,0h-2.759v512H400c61.856,0,112-50.144,112-112V112C512,50.144,461.856,0,400,0z"/>
        <path style="fill:#FF4B55;"
              d="M309.569,294.76l52.383-29.933l-12.02-6.01c-3.371-1.686-5.301-5.326-4.802-9.063l3.91-29.322   l-22.177,6.452c-4.899,1.425-9.983-1.587-11.085-6.569l-2.124-9.6l-20.823,24.37c-2.886,3.378-8.386,0.797-7.633-3.581   l8.892-51.708l-13.615,3.724c-3.977,1.087-8.176-0.722-10.117-4.359l-14.337-26.871v-0.039l-0.01,0.02l-0.011-0.02v0.039   l-14.337,26.871c-1.941,3.637-6.141,5.447-10.117,4.359l-13.615-3.723l8.892,51.708c0.753,4.379-4.747,6.959-7.633,3.581   l-20.823-24.37l-2.124,9.6c-1.102,4.982-6.186,7.994-11.085,6.569l-22.177-6.452l3.91,29.322c0.498,3.736-1.431,7.377-4.802,9.063   l-12.02,6.01l52.383,29.933c5.426,3.1,7.803,9.677,5.615,15.53l-4.478,11.977l44.885-3.832c2.484-0.212,4.598,1.788,4.525,4.28   l-1.413,48.043h8.828l-1.413-48.046c-0.073-2.492,2.041-4.492,4.525-4.28l44.906,3.834l-4.478-11.977   C301.766,304.437,304.144,297.861,309.569,294.76z"/>
</g>
    <g>
</g>
    <g>
</g>
    <g>
</g>
    <g>
</g>
    <g>
</g>
    <g>
</g>
    <g>
</g>
    <g>
</g>
    <g>
</g>
    <g>
</g>
    <g>
</g>
    <g>
</g>
    <g>
</g>
    <g>
</g>
    <g>
</g>
</svg>
