<?xml version="1.0" encoding="iso-8859-1"?>
<!-- Generator: Adobe Illustrator 19.0.0, SVG Export Plug-In . SVG Version: 6.00 Build 0)  -->
<svg xmlns:xlink="http://www.w3.org/1999/xlink" xmlns="http://www.w3.org/2000/svg" version="1.1" id="Layer_1" x="0px"
     y="0px" viewBox="0 0 512 512" style="enable-background:new 0 0 512 512;" xml:space="preserve">
<path style="fill:#FAB446;"
      d="M407.817,0.276H104.183C45.975,4.29,0,52.772,0,112v58.759h512V112  C512,52.772,466.025,4.29,407.817,0.276z"/>
    <path style="fill:#73AF00;"
          d="M0,400c0,59.228,45.976,107.711,104.184,111.724h303.632C466.024,507.711,512,459.228,512,400  v-58.759H0V400z"/>
    <rect y="170.76" style="fill:#F5F5F5;" width="512" height="170.48"/>
    <g>
	<path style="fill:#41479B;"
          d="M256,314.448c-32.229,0-58.448-26.219-58.448-58.448s26.219-58.448,58.448-58.448   s58.448,26.219,58.448,58.448S288.229,314.448,256,314.448z M256,208.426c-26.235,0-47.574,21.339-47.574,47.574   s21.339,47.574,47.574,47.574s47.574-21.339,47.574-47.574S282.235,208.426,256,208.426z"/>
        <circle style="fill:#41479B;" cx="256" cy="256" r="6.626"/>
        <polygon style="fill:#41479B;"
                 points="256,256.994 239.161,258.694 202.989,256.994 202.989,255.006 239.161,253.306 256,255.006     "/>
        <polygon style="fill:#41479B;"
                 points="256,256.994 272.839,258.694 309.011,256.994 309.011,255.006 272.839,253.306 256,255.006     "/>
        <polygon style="fill:#41479B;"
                 points="255.006,256 253.306,239.161 255.006,202.989 256.994,202.989 258.694,239.161 256.994,256     "/>
        <polygon style="fill:#41479B;"
                 points="255.006,256 253.306,272.839 255.006,309.011 256.994,309.011 258.694,272.839 256.994,256     "/>
        <polygon style="fill:#41479B;"
                 points="255.297,256.703 242.188,245.998 217.813,219.218 219.218,217.813 245.998,242.188    256.703,255.297  "/>
        <polygon style="fill:#41479B;"
                 points="255.297,256.703 266.002,269.812 292.782,294.188 294.187,292.782 269.812,266.002    256.703,255.297  "/>
        <polygon style="fill:#41479B;"
                 points="255.297,255.297 266.002,242.188 292.782,217.813 294.187,219.218 269.812,245.998    256.703,256.703  "/>
        <polygon style="fill:#41479B;"
                 points="255.297,255.297 242.188,266.002 217.813,292.782 219.218,294.188 245.998,269.812    256.703,256.703  "/>
        <polygon style="fill:#41479B;"
                 points="256.38,256.918 241.474,264.933 207.404,277.205 206.644,275.368 239.412,259.955    255.62,255.082  "/>
        <polygon style="fill:#41479B;"
                 points="256.38,256.918 272.588,252.045 305.356,236.632 304.596,234.795 270.526,247.067    255.62,255.082  "/>
        <polygon style="fill:#41479B;"
                 points="255.082,256.38 247.067,241.474 234.795,207.404 236.632,206.644 252.045,239.412    256.918,255.62  "/>
        <polygon style="fill:#41479B;"
                 points="255.082,256.38 259.955,272.588 275.368,305.356 277.205,304.596 264.933,270.526    256.918,255.62  "/>
        <polygon style="fill:#41479B;"
                 points="255.62,256.918 239.412,252.045 206.644,236.632 207.404,234.795 241.474,247.067    256.38,255.082  "/>
        <polygon style="fill:#41479B;"
                 points="255.62,256.918 270.526,264.933 304.596,277.205 305.356,275.368 272.588,259.955    256.38,255.082  "/>
        <polygon style="fill:#41479B;"
                 points="255.082,255.62 259.955,239.412 275.368,206.644 277.205,207.404 264.933,241.474    256.918,256.38  "/>
        <polygon style="fill:#41479B;"
                 points="255.082,255.62 247.067,270.526 234.795,304.596 236.632,305.356 252.045,272.588    256.918,256.38  "/>
</g>
    <circle style="fill:#F5F5F5;" cx="256" cy="256" r="7.257"/>
    <circle style="fill:#41479B;" cx="256" cy="256" r="5.359"/>
    <g>
</g>
    <g>
</g>
    <g>
</g>
    <g>
</g>
    <g>
</g>
    <g>
</g>
    <g>
</g>
    <g>
</g>
    <g>
</g>
    <g>
</g>
    <g>
</g>
    <g>
</g>
    <g>
</g>
    <g>
</g>
    <g>
</g>
</svg>
