<?xml version="1.0" encoding="iso-8859-1"?>
<!-- Generator: Adobe Illustrator 19.0.0, SVG Export Plug-In . SVG Version: 6.00 Build 0)  -->
<svg xmlns:xlink="http://www.w3.org/1999/xlink" xmlns="http://www.w3.org/2000/svg" version="1.1" id="Layer_1" x="0px"
     y="0px" viewBox="0 0 512 512" style="enable-background:new 0 0 512 512;" xml:space="preserve">
<path style="fill:#82AFFF;"
      d="M400,0H112C50.144,0,0,50.144,0,112v288c0,61.856,50.144,112,112,112h288  c61.856,0,112-50.144,112-112V112C512,50.144,461.856,0,400,0z"/>
    <g>
	<path style="fill:#FFE15A;"
          d="M457.649,15.962L0,377.263V400c0,1.388,0.034,2.768,0.084,4.144L475.231,29.028   C469.825,24.125,463.937,19.745,457.649,15.962z"/>
        <path style="fill:#FFE15A;"
              d="M36.769,482.972c5.405,4.904,11.294,9.284,17.582,13.066L512,134.737V112   c0-1.388-0.034-2.768-0.084-4.144L36.769,482.972z"/>
</g>
    <path style="fill:#FF4B55;"
          d="M475.231,29.028L0.084,404.144c1.137,31.231,15.053,59.202,36.685,78.828l475.146-375.116  C510.779,76.624,496.863,48.654,475.231,29.028z"/>
    <path style="fill:#FFE15A;"
          d="M122.682,61.068L135.4,99.203l40.199,0.312c2.248,0.017,3.18,2.886,1.372,4.221l-32.338,23.881  l12.126,38.328c0.678,2.143-1.762,3.916-3.591,2.609l-32.705-23.376l-32.705,23.376c-1.829,1.307-4.269-0.466-3.591-2.609  l12.126-38.328l-32.338-23.881c-1.808-1.335-0.876-4.204,1.372-4.221l40.199-0.312l12.719-38.135  C118.954,58.936,121.971,58.936,122.682,61.068z"/>
    <g>
</g>
    <g>
</g>
    <g>
</g>
    <g>
</g>
    <g>
</g>
    <g>
</g>
    <g>
</g>
    <g>
</g>
    <g>
</g>
    <g>
</g>
    <g>
</g>
    <g>
</g>
    <g>
</g>
    <g>
</g>
    <g>
</g>
</svg>
