<svg xmlns="http://www.w3.org/2000/svg" xmlns:xlink="http://www.w3.org/1999/xlink" id="Layer_1" x="0" y="0" enable-background="new 0 0 512 512" version="1.1" viewBox="0 0 512 512" xml:space="preserve"><path fill="#41479B" d="M400,0H112C50.144,0,0,50.144,0,112v288c0,61.856,50.144,112,112,112h288 c61.856,0,112-50.144,112-112V112C512,50.144,461.856,0,400,0z"/><path fill="#FF4B55" d="M400,0H112C50.144,0,0,50.144,0,112v288c0,61.856,50.144,112,112,112h288 c61.856,0,112-50.144,112-112V112C512,50.144,461.856,0,400,0z M17.656,118.076c0-56.113,45.489-101.602,101.602-101.602h127.915 V132L114,242.526H17.656V118.076z M247.173,496H119.257c-56.113,0-101.602-45.489-101.602-101.602V258.474H114L247.173,370V496z M124.798,249.98L256,149.98l131.203,100L256,356L124.798,249.98z M494.345,394.398c0,56.113-45.489,101.602-101.602,101.602 H264.828V370L398,258.474h96.345V394.398z M494.345,242.526H398L264.828,132V16.474h127.915 c56.113,0,101.602,45.489,101.602,101.602V242.526z"/><polygon fill="#F5F5F5" points="256 142 124.797 250 172.474 288.882 210.631 320 256 357 301.369 320 361.443 271.008 387.203 250"/><polyline fill="#73AF00" points="361.443 271.008 333.951 229.813 324.299 229.813 317.174 240.489 312.091 232.874 301.925 232.874 262.932 291.303 213.981 291.303 202.865 266.639 188.758 266.639 183.2 278.31 176.954 278.31 172.474 288.882 210.631 320 301.369 320"/><path fill="#FFE15A" d="M258.919,194.021l3.509,10.52l11.09,0.086c1.436,0.011,2.031,1.843,0.876,2.696l-8.921,6.588 l3.345,10.574c0.433,1.369-1.125,2.501-2.294,1.666l-9.022-6.449l-9.022,6.449c-1.168,0.835-2.727-0.298-2.294-1.666l3.345-10.574 l-8.921-6.588c-1.155-0.853-0.56-2.685,0.876-2.696l11.09-0.086l3.509-10.52C256.538,192.66,258.465,192.66,258.919,194.021z"/></svg>