<?xml version="1.0" encoding="iso-8859-1"?>
<!-- Generator: Adobe Illustrator 19.0.0, SVG Export Plug-In . SVG Version: 6.00 Build 0)  -->
<svg xmlns:xlink="http://www.w3.org/1999/xlink" xmlns="http://www.w3.org/2000/svg" version="1.1" id="Layer_1" x="0px"
     y="0px" viewBox="0 0 512 512" style="enable-background:new 0 0 512 512;" xml:space="preserve">
<path style="fill:#FF4B55;"
      d="M512,400V112C512,50.144,461.856,0,400,0H112C50.144,0,0,50.144,0,112v288  c0,61.856,50.144,112,112,112h288C461.856,512,512,461.856,512,400z"/>
    <path style="fill:#41479B;" d="M256,0H112C50.144,0,0,50.144,0,112v144h256V0z"/>
    <g>
	<path style="fill:#F5F5F5;"
          d="M128.775,170.064l-6.185,18.546l-19.55,0.152c-2.531,0.02-3.581,3.25-1.544,4.753l15.727,11.614   l-5.897,18.64c-0.763,2.413,1.984,4.41,4.043,2.938l15.905-11.368l15.905,11.368c2.059,1.472,4.807-0.524,4.043-2.938l-5.897-18.64   l15.727-11.613c2.036-1.504,0.987-4.734-1.544-4.753l-19.55-0.152l-6.185-18.546C132.972,167.663,129.576,167.663,128.775,170.064z   "/>
        <path style="fill:#F5F5F5;"
              d="M129.252,25.457l-5.004,15.003l-15.814,0.123c-2.047,0.016-2.896,2.629-1.249,3.845l12.722,9.395   l-4.77,15.078c-0.618,1.952,1.605,3.567,3.271,2.376l12.866-9.196l12.866,9.196c1.666,1.191,3.888-0.424,3.271-2.376l-4.77-15.078   l12.722-9.395c1.647-1.216,0.798-3.829-1.249-3.845L138.3,40.46l-5.004-15.003C132.647,23.514,129.9,23.514,129.252,25.457z"/>
        <path style="fill:#F5F5F5;"
              d="M209.252,70.088l-5.004,15.003l-15.814,0.123c-2.048,0.016-2.896,2.629-1.249,3.845l12.722,9.395   l-4.77,15.078c-0.618,1.952,1.605,3.567,3.271,2.376l12.866-9.196l12.866,9.196c1.666,1.191,3.888-0.424,3.271-2.376l-4.77-15.078   l12.722-9.395c1.647-1.216,0.798-3.829-1.249-3.845L218.3,85.091l-5.004-15.003C212.647,68.146,209.9,68.146,209.252,70.088z"/>
        <path style="fill:#F5F5F5;"
              d="M50.936,87.773l-5.004,15.003l-15.814,0.123c-2.048,0.016-2.896,2.629-1.249,3.845l12.722,9.395   l-4.77,15.078c-0.618,1.952,1.605,3.567,3.271,2.376l12.866-9.196l12.866,9.196c1.666,1.191,3.888-0.424,3.271-2.376l-4.77-15.078   l12.722-9.395c1.647-1.216,0.798-3.829-1.249-3.845l-15.814-0.123L54.98,87.773C54.332,85.83,51.584,85.83,50.936,87.773z"/>
        <path style="fill:#F5F5F5;"
              d="M174.77,136.749l-2.809,8.422l-8.878,0.069c-1.149,0.009-1.626,1.476-0.701,2.159l7.142,5.274   l-2.678,8.464c-0.347,1.096,0.901,2.002,1.836,1.334l7.223-5.163l7.223,5.163c0.935,0.668,2.183-0.238,1.836-1.334l-2.678-8.465   l7.142-5.274c0.925-0.683,0.448-2.15-0.701-2.159l-8.878-0.069l-2.809-8.422C176.676,135.659,175.134,135.659,174.77,136.749z"/>
</g>
    <g>
</g>
    <g>
</g>
    <g>
</g>
    <g>
</g>
    <g>
</g>
    <g>
</g>
    <g>
</g>
    <g>
</g>
    <g>
</g>
    <g>
</g>
    <g>
</g>
    <g>
</g>
    <g>
</g>
    <g>
</g>
    <g>
</g>
</svg>
