<?xml version="1.0" encoding="iso-8859-1"?>
<!-- Generator: Adobe Illustrator 19.0.0, SVG Export Plug-In . SVG Version: 6.00 Build 0)  -->
<svg xmlns:xlink="http://www.w3.org/1999/xlink" xmlns="http://www.w3.org/2000/svg" version="1.1" id="Layer_1" x="0px"
     y="0px" viewBox="0 0 512 512" style="enable-background:new 0 0 512 512;" xml:space="preserve">
<path style="fill:#73AF00;"
      d="M511.995,400v-58.649L52.083,494.639C69.409,505.631,89.956,512,111.994,512h288  C461.85,512,511.995,461.856,511.995,400z"/>
    <path style="fill:#41479B;"
          d="M111.994,0C51.146,0,1.633,48.524,0.036,108.988l-0.03,291.91  c0.171,21.701,6.509,41.93,17.354,59.022L170.714,0H111.994z"/>
    <path style="fill:#FFE15A;" d="M170.714,0L17.359,459.92c2.753,4.339,5.799,8.474,9.105,12.381L341.38,0H170.714z"/>
    <path style="fill:#FF4B55;"
          d="M511.995,112c0-61.856-50.144-112-112-112H341.38L26.464,472.301  c4.036,4.77,8.463,9.197,13.234,13.233l472.296-314.833V112H511.995z"/>
    <path style="fill:#F5F5F5;"
          d="M511.995,170.701L39.698,485.534c3.908,3.307,8.044,6.352,12.384,9.105l459.912-153.288v-170.65  H511.995z"/>
    <g>
</g>
    <g>
</g>
    <g>
</g>
    <g>
</g>
    <g>
</g>
    <g>
</g>
    <g>
</g>
    <g>
</g>
    <g>
</g>
    <g>
</g>
    <g>
</g>
    <g>
</g>
    <g>
</g>
    <g>
</g>
    <g>
</g>
</svg>
