<svg xmlns="http://www.w3.org/2000/svg" xmlns:xlink="http://www.w3.org/1999/xlink" id="Layer_1" x="0" y="0" enable-background="new 0 0 511.95 511.95" version="1.1" viewBox="0 0 511.95 511.95" xml:space="preserve"><path fill="#FF4B55" d="M511.896,399.96V111.99c0-61.85-50.139-111.989-111.989-111.989h-287.97 C51.193,0.001,1.749,48.364,0,108.685v294.58c1.749,60.321,51.193,108.684,111.937,108.684h287.971 C461.757,511.949,511.896,461.81,511.896,399.96z"/><path fill="#FFE15A" d="M331.468,260.217c-3.418-2.94-7.294-5.078-11.184-6.643c21.991-4.337,39.677-22.916,39.677-22.916 c-10.69,4.691-15.66,5.64-32.675,0.047c-4.282-1.407-8.681-1.901-12.874-1.858c18.656-12.423,27.885-36.354,27.885-36.354 c-8.082,8.424-12.31,11.204-30.17,12.548c-4.495,0.338-8.749,1.567-12.607,3.211c12.484-18.616,11.852-44.258,11.852-44.258 c-4.243,10.876-7.085,15.061-23.071,23.138c-4.023,2.033-7.483,4.796-10.417,7.789c4.408-21.975-5.987-45.424-5.987-45.424 c0.242,11.671-0.783,16.626-12.461,30.206c-2.939,3.418-5.078,7.294-6.643,11.184c-4.337-21.99-22.916-39.676-22.916-39.676 c4.69,10.69,5.64,15.659,0.047,32.675c-1.408,4.282-1.902,8.682-1.858,12.874c-12.423-18.656-36.354-27.885-36.354-27.885 c8.424,8.082,11.204,12.31,12.548,30.17c0.338,4.495,1.567,8.748,3.211,12.606c-18.616-12.483-44.258-11.851-44.258-11.851 c10.876,4.243,15.061,7.085,23.138,23.071c2.033,4.024,4.797,7.483,7.791,10.418c-21.977-4.41-45.426,5.987-45.426,5.987 c11.672-0.242,16.627,0.783,30.207,12.461c3.417,2.939,7.294,5.078,11.183,6.643c-21.99,4.336-39.676,22.916-39.676,22.916 c10.691-4.69,15.66-5.64,32.676-0.047c4.283,1.408,8.682,1.901,12.875,1.857c-18.656,12.422-27.887,36.354-27.887,36.354 c8.082-8.424,12.311-11.203,30.17-12.548c4.495-0.338,8.749-1.567,12.606-3.211c-12.483,18.616-11.851,44.259-11.851,44.259 c4.243-10.877,7.085-15.062,23.071-23.139c4.023-2.033,7.483-4.797,10.417-7.79c-4.409,21.976,5.988,45.425,5.988,45.425 c-0.242-11.672,0.783-16.627,12.461-30.206c2.939-3.418,5.078-7.294,6.643-11.183c4.337,21.989,22.916,39.676,22.916,39.676 c-4.69-10.691-5.64-15.66-0.047-32.676c1.408-4.282,1.902-8.682,1.858-12.874c12.423,18.656,36.354,27.885,36.354,27.885 c-8.424-8.082-11.204-12.31-12.548-30.17c-0.338-4.494-1.567-8.748-3.211-12.605c18.615,12.482,44.259,11.851,44.259,11.851 c-10.876-4.244-15.061-7.085-23.138-23.072c-2.033-4.023-4.796-7.483-7.789-10.417c21.976,4.408,45.424-5.988,45.424-5.988 C350.003,272.919,345.048,271.895,331.468,260.217z"/><path fill="#FFD25A" d="M310.009,266.724l53.743-10.749l-53.743-10.749l45.539-30.496l-53.766,10.635l30.402-45.601 l-45.602,30.402l10.636-53.766l-30.497,45.538l-10.748-53.742l-10.748,53.742L214.728,156.4l10.636,53.766l-45.602-30.402 l30.402,45.601l-53.766-10.635l45.539,30.496l-53.743,10.749l53.743,10.749l-45.539,30.496l53.766-10.636l-30.402,45.602 l45.602-30.402l-10.636,53.765l30.496-45.538l10.749,53.743l10.749-53.743l30.496,45.538l-10.636-53.765l45.602,30.402 l-30.402-45.602l53.766,10.636L310.009,266.724z"/><path fill="#FFE15A" d="M299.747,222.705c33.692,53.921-23.122,110.734-77.042,77.042 c-4.251-2.656-7.846-6.251-10.502-10.502c-33.692-53.921,23.122-110.734,77.042-77.042 C293.495,214.859,297.091,218.455,299.747,222.705z"/><path fill="#41479B" d="M0,336.813c25.476,0.043,25.525,13.469,51.083,13.469c25.586,0,25.586-13.473,51.172-13.473 c25.607,0,25.607,13.473,51.216,13.473c25.625,0,25.625-13.473,51.251-13.473s25.625,13.473,51.252,13.473 c25.569,0,25.569-13.473,51.138-13.473c25.582,0,25.582,13.473,51.164,13.473c25.592,0,25.592-13.473,51.186-13.473 c25.592,0,25.592,13.473,51.185,13.473s25.593-13.473,51.187-13.473c0.041,0,0.075,0.004,0.116,0.004v-40.417 c-0.041,0-0.075-0.004-0.116-0.004c-25.593,0-25.593,13.473-51.187,13.473c-25.592,0-25.592-13.473-51.185-13.473 c-25.592,0-25.592,13.473-51.186,13.473c-25.581,0-25.581-13.473-51.164-13.473c-25.568,0-25.568,13.473-51.138,13.473 c-25.625,0-25.625-13.473-51.252-13.473c-25.625,0-25.625,13.473-51.251,13.473c-25.608,0-25.608-13.473-51.216-13.473 c-25.585,0-25.585,13.473-51.172,13.473c-25.558,0-25.606-13.426-51.083-13.469L0,336.813L0,336.813z"/><g><path fill="#F5F5F5" d="M0,377.23c25.476,0.043,25.525,13.469,51.083,13.469c25.586,0,25.586-13.473,51.172-13.473 c25.607,0,25.607,13.473,51.216,13.473c25.625,0,25.625-13.473,51.251-13.473s25.625,13.473,51.252,13.473 c25.569,0,25.569-13.473,51.138-13.473c25.582,0,25.582,13.473,51.164,13.473c25.592,0,25.592-13.473,51.186-13.473 c25.592,0,25.592,13.473,51.185,13.473s25.593-13.473,51.187-13.473c0.041,0,0.075,0.004,0.116,0.004v-40.417 c-0.041,0-0.075-0.004-0.116-0.004c-25.593,0-25.593,13.473-51.187,13.473c-25.592,0-25.592-13.473-51.185-13.473 c-25.592,0-25.592,13.473-51.186,13.473c-25.581,0-25.581-13.473-51.164-13.473c-25.568,0-25.568,13.473-51.138,13.473 c-25.625,0-25.625-13.473-51.252-13.473c-25.625,0-25.625,13.473-51.251,13.473c-25.608,0-25.608-13.473-51.216-13.473 c-25.585,0-25.585,13.473-51.172,13.473c-25.558,0-25.606-13.426-51.083-13.469L0,377.23L0,377.23z"/><path fill="#F5F5F5" d="M0,296.396c25.476,0.043,25.525,13.469,51.083,13.469c25.586,0,25.586-13.473,51.172-13.473 c25.607,0,25.607,13.473,51.216,13.473c25.625,0,25.625-13.473,51.251-13.473s25.625,13.473,51.252,13.473 c25.569,0,25.569-13.473,51.138-13.473c25.582,0,25.582,13.473,51.164,13.473c25.592,0,25.592-13.473,51.186-13.473 c25.592,0,25.592,13.473,51.185,13.473s25.593-13.473,51.187-13.473c0.041,0,0.075,0.004,0.116,0.004v-40.417 c-0.041,0-0.075-0.004-0.116-0.004c-25.593,0-25.593,13.473-51.187,13.473c-25.592,0-25.592-13.473-51.185-13.473 c-25.592,0-25.592,13.473-51.186,13.473c-25.581,0-25.581-13.473-51.164-13.473c-25.568,0-25.568,13.473-51.138,13.473 c-25.625,0-25.625-13.473-51.252-13.473c-25.625,0-25.625,13.473-51.251,13.473c-25.608,0-25.608-13.473-51.216-13.473 c-25.585,0-25.585,13.473-51.172,13.473c-25.558,0-25.606-13.426-51.083-13.469L0,296.396L0,296.396z"/></g><path fill="#41479B" d="M102.256,417.643c25.607,0,25.607,13.473,51.216,13.473c25.625,0,25.625-13.473,51.251-13.473 s25.625,13.473,51.252,13.473c25.569,0,25.569-13.473,51.138-13.473c25.582,0,25.582,13.473,51.164,13.473 c25.592,0,25.592-13.473,51.186-13.473c25.592,0,25.592,13.473,51.185,13.473c25.134,0,25.602-12.984,49.852-13.45 c0.916-5.767,1.398-11.68,1.398-17.704V377.23c-0.021-0.001-0.041-0.002-0.064-0.002c-25.593,0-25.593,13.473-51.187,13.473 c-25.592,0-25.592-13.473-51.185-13.473c-25.592,0-25.592,13.473-51.186,13.473c-25.581,0-25.581-13.473-51.164-13.473 c-25.568,0-25.568,13.473-51.138,13.473c-25.625,0-25.625-13.473-51.252-13.473c-25.625,0-25.625,13.473-51.251,13.473 c-25.608,0-25.608-13.473-51.216-13.473c-25.585,0-25.585,13.473-51.172,13.473c-25.558,0-25.606-13.426-51.083-13.469v26.035 c0.142,4.888,0.598,9.695,1.347,14.407c24.123,0.511,24.642,13.444,49.737,13.444C76.67,431.115,76.67,417.643,102.256,417.643z"/><path fill="#F5F5F5" d="M102.256,458.06c25.607,0,25.607,13.473,51.216,13.473c25.625,0,25.625-13.473,51.251-13.473 s25.625,13.473,51.252,13.473c25.569,0,25.569-13.473,51.138-13.473c25.582,0,25.582,13.473,51.164,13.473 c25.592,0,25.592-13.473,51.186-13.473c25.592,0,25.592,13.473,51.185,13.473c17.521,0,23.05-6.313,33.006-10.296 c8.46-12.917,14.324-27.686,16.847-43.571c-24.25,0.466-24.717,13.45-49.852,13.45c-25.592,0-25.592-13.473-51.185-13.473 c-25.592,0-25.592,13.473-51.186,13.473c-25.581,0-25.581-13.473-51.164-13.473c-25.568,0-25.568,13.473-51.138,13.473 c-25.625,0-25.625-13.473-51.252-13.473c-25.625,0-25.625,13.473-51.251,13.473c-25.608,0-25.608-13.473-51.216-13.473 c-25.585,0-25.585,13.473-51.172,13.473c-25.093,0-25.613-12.933-49.737-13.444c2.529,15.913,8.409,30.707,16.896,43.641 c9.847,3.986,15.42,10.22,32.841,10.22C76.67,471.532,76.67,458.06,102.256,458.06z"/><path fill="#41479B" d="M493.651,461.236c-9.955,3.983-15.483,10.296-33.006,10.296c-25.592,0-25.592-13.473-51.185-13.473 c-25.592,0-25.592,13.473-51.186,13.473c-25.581,0-25.581-13.473-51.164-13.473c-25.568,0-25.568,13.473-51.138,13.473 c-25.625,0-25.625-13.473-51.252-13.473c-25.625,0-25.625,13.473-51.251,13.473c-25.608,0-25.608-13.473-51.216-13.473 c-25.585,0-25.585,13.473-51.172,13.473c-17.42,0-22.994-6.234-32.841-10.22c20.009,30.495,54.496,50.637,93.693,50.637h287.971 C439.137,511.949,473.65,491.773,493.651,461.236z"/><path fill="#FFE15A" d="M284.025,71.562c65.514-2.534,98.813-31.127,98.813-31.127c-4.706,1.809-78.182,7.962-99.175,9.773 c-13.259,1.142-29.798,16.258-40.214,27.264c-2.805-7.621-8.288-15.527-19.147-17.13c-22.079-3.258-80.715-6.876-95.193-13.755l0,0 c0,0,9.345,14.447,57.641,20.994c23.14,3.137,35.898,11.075,41.975,16.476l-5.508-0.189c0,0,0,0-9.41-4.707 c-9.411-4.705-18.822,3.258-18.822,3.258h-14.989c-1.877,0-2.949,2.143-1.823,3.645l1.442,1.923 c1.473,1.964,3.784,3.119,6.238,3.119h15.284c5.429,9.411,26.06,19.184,43.073,19.184c17.011,0,69.132-23.165,74.2-23.165 l-47.15-1.614L284.025,71.562z"/></svg>