<svg xmlns="http://www.w3.org/2000/svg" xmlns:xlink="http://www.w3.org/1999/xlink" id="Layer_1" x="0" y="0" enable-background="new 0 0 512 512" version="1.1" viewBox="0 0 512 512" xml:space="preserve"><rect width="512" height="64" y="192" fill="#F5F5F5"/><polygon fill="#FF4B55" points="512 320 0 320 0 242.526 11.035 242.526 11.035 256 512 256"/><path fill="#F5F5F5" d="M0,400c0,17.179,3.873,33.451,10.785,48h490.431C508.127,433.451,512,417.179,512,400v-16H0V400z"/><path fill="#FF4B55" d="M112,512h288c44.677,0,83.239-26.163,101.216-64H10.785C28.761,485.837,67.323,512,112,512z"/><rect width="512" height="64" y="320" fill="#41479B"/><path fill="#F5F5F5" d="M400,0H112C67.323,0,28.761,26.163,10.785,64h490.431C483.239,26.163,444.677,0,400,0z"/><path fill="#FF4B55" d="M10.785,64C3.873,78.549,0,94.821,0,112v16h512v-16c0-17.179-3.873-33.451-10.784-48H10.785z"/><g><rect width="512" height="64" y="128" fill="#41479B"/><path fill="#41479B" d="M94.316,1.395C67.937,5.579,44.627,18.971,27.779,38.177L94.316,81.77V1.395z"/><path fill="#41479B" d="M7.021,72.899C4.47,79.746,2.569,86.91,1.395,94.316H39.71L7.021,72.899z"/><polygon fill="#41479B" points="0 161.685 0 187.701 39.71 161.685"/><polygon fill="#41479B" points="256 19.977 256 0 161.684 0 161.684 81.77"/><polygon fill="#41479B" points="256 187.701 256 161.685 216.29 161.685"/><polygon fill="#41479B" points="161.684 256 256 256 256 236.023 161.684 174.23"/><polygon fill="#41479B" points="256 94.316 256 68.299 216.29 94.316"/><polygon fill="#41479B" points="94.316 174.23 0 236.023 0 256 94.316 256"/></g><g><polygon fill="#F5F5F5" points="148.211 256 161.684 256 161.684 174.23 256 236.023 256 216.059 172.232 161.685 196.98 161.685 256 199.995 256 187.701 216.29 161.685 256 161.685 256 148.21 148.211 148.21"/><polygon fill="#F5F5F5" points="94.316 256 107.789 256 107.789 148.21 0 148.21 0 161.685 39.71 161.685 0 187.701 0 206.602 69.197 161.685 93.945 161.685 0 222.666 0 236.023 94.316 174.23"/><path fill="#F5F5F5" d="M107.789,0.087c-4.566,0.169-9.063,0.608-13.474,1.308V81.77L27.779,38.177 c-4.005,4.566-7.643,9.46-10.872,14.638l63.935,41.501H56.094L10.461,64.694c-1.251,2.68-2.4,5.416-3.44,8.205L39.71,94.316H1.395 c-0.7,4.411-1.139,8.907-1.308,13.474H107.79L107.789,0.087L107.789,0.087z"/><polygon fill="#F5F5F5" points="256 107.79 256 94.316 216.29 94.316 256 68.299 256 49.157 186.432 94.316 161.684 94.316 256 33.093 256 19.977 161.684 81.77 161.684 0 148.211 0 148.211 107.79"/></g><g><path fill="#FF4B55" d="M107.789,256h40.421V148.21H256v-40.42H148.211V0H112c-1.41,0-2.813,0.035-4.211,0.087V107.79H0.087 C0.035,109.188,0,110.589,0,112v36.21h107.789V256z"/><polygon fill="#FF4B55" points="69.197 161.685 0 206.602 0 222.666 93.945 161.685"/><polygon fill="#FF4B55" points="172.232 161.685 256 216.059 256 199.995 196.98 161.685"/><path fill="#FF4B55" d="M80.842,94.316L16.907,52.814c-2.378,3.813-4.533,7.778-6.447,11.879l45.634,29.622L80.842,94.316 L80.842,94.316z"/><polygon fill="#FF4B55" points="186.432 94.316 256 49.157 256 33.093 161.684 94.316"/></g></svg>