<svg xmlns="http://www.w3.org/2000/svg" viewBox="0 0 72 72"><path d="M72,64c0,4.4-3.6,8-8,8H8c-4.4,0-8-3.6-8-8V8c0-4.4,3.6-8,8-8h56c4.4,0,8,3.6,8,8V64z" fill="#607d8b"/><path d="M56 44.8c-3 0-6-.5-9-1.5-.8-.2-1.8 0-2.5.5L39 49.3c-7-3.5-12.8-9.5-16.5-16.5l5.5-5.5c.7-.8 1-1.8.5-2.5-.7-2.8-1.2-5.8-1.2-8.8 0-1.5-1-2.5-2.5-2.5H16c-1.5 0-2.5 1-2.5 2.5 0 23.5 19 42.5 42.5 42.5 1.5 0 2.5-1 2.5-2.5v-8.8c0-1.4-1-2.4-2.5-2.4zM53.5 36h5c0-12.5-10-22.5-22.5-22.5v5c9.8 0 17.5 7.8 17.5 17.5zm-10 0h5c0-7-5.5-12.5-12.5-12.5v5c4.3 0 7.5 3.3 7.5 7.5z" fill="#fff"/></svg>