<?xml version="1.0" encoding="utf-8"?>
<!-- Generator: Adobe Illustrator 22.0.1, SVG Export Plug-In . SVG Version: 6.00 Build 0)  -->
<svg version="1.1" id="faq" xmlns="http://www.w3.org/2000/svg" xmlns:xlink="http://www.w3.org/1999/xlink" x="0px" y="0px"
     viewBox="0 0 48 48" enable-background="new 0 0 48 48" xml:space="preserve">
<path fill="#C3E678" d="M22.4,18h22.4c1.3,0,2.4,1.1,2.4,2.4v14.4c0,1.3-1.1,2.4-2.4,2.4H32v2.6c0,0.5-0.6,0.8-1,0.4l-3-3h-5.6
    c-1.3,0-2.4-1.1-2.4-2.4V20.4C20,19.1,21.1,18,22.4,18z"/>
<path fill="#A5D76E" d="M20,20.4v14.4c0,0.5,0.1,0.9,0.4,1.2c5.9-2.4,10.1-8.1,10.1-14.9c0-1.1-0.1-2.2-0.3-3.2h-7.7
    C21.1,18,20,19.1,20,20.4z"/>
<path fill="#FF6464" d="M28,21.2c0-7.5-6.1-13.6-13.6-13.6S0.8,13.7,0.8,21.2c0,6.6,4.7,12.1,10.9,13.4l4.1,4.1c0.4,0.4,1,0.1,1-0.4
    v-3.6C23.2,33.5,28,27.9,28,21.2z"/>
<circle fill="#D2555A" cx="14.4" cy="21.2" r="10.4"/>
<path d="M44.8,17.2H28.2c-0.7-2.6-2.2-4.9-4.2-6.7c-3.1-2.8-7.1-4-11.2-3.6C6.1,7.6,0.8,13,0.1,19.7c-0.4,3.6,0.6,7.2,2.8,10.1
    c2.1,2.8,5.1,4.7,8.5,5.4l3.5,3.5c0.3,0.3,0.7,0.5,1.1,0.5c0.2,0,0.4,0,0.6-0.1c0.6-0.2,1-0.8,1-1.4v-2.5c0.6-0.1,1.2-0.3,1.7-0.5
    v0.1c0,1.7,1.4,3.2,3.2,3.2h5.3l2.8,2.8c0.3,0.3,0.6,0.4,0.9,0.4c0.2,0,0.3,0,0.5-0.1c0.5-0.2,0.8-0.7,0.8-1.2V38h12.1
    c1.7,0,3.2-1.4,3.2-3.2V20.4C48,18.7,46.6,17.2,44.8,17.2z M16.7,33.9c-0.4,0.1-0.6,0.4-0.6,0.7v3.1c0,0,0,0,0,0c0,0,0,0-0.1,0
    L12.2,34c-0.1-0.1-0.2-0.2-0.4-0.2c-3.1-0.6-5.9-2.4-7.8-4.9c-1.9-2.6-2.8-5.8-2.5-9.1c0.3-2.9,1.6-5.6,3.7-7.7
    C7.3,10,10,8.7,12.9,8.4c0.5-0.1,1-0.1,1.5-0.1c3.2,0,6.2,1.1,8.6,3.3c2.7,2.4,4.3,5.9,4.3,9.6C27.3,27.4,22.8,32.8,16.7,33.9z
     M46.5,34.8c0,0.9-0.7,1.6-1.6,1.6H32c-0.4,0-0.7,0.3-0.7,0.7v2.2l-2.7-2.7c-0.1-0.1-0.3-0.2-0.5-0.2h-5.6c-0.9,0-1.6-0.7-1.6-1.6
    v-0.7c4.8-2.4,8-7.3,8-12.9c0-0.8-0.1-1.6-0.2-2.5h16.3c0.9,0,1.6,0.7,1.6,1.6L46.5,34.8L46.5,34.8z"/>
<path d="M41.1,23.1l-7.5,7.5l-3.5-3.5c-0.3-0.3-0.8-0.3-1.1,0c-0.3,0.3-0.3,0.8,0,1.1l4,4c0.1,0.1,0.3,0.2,0.5,0.2
    c0.2,0,0.4-0.1,0.5-0.2l8-8c0.3-0.3,0.3-0.8,0-1.1C41.9,22.8,41.4,22.8,41.1,23.1z"/>
<path d="M14.4,26.9L14.4,26.9c-0.4,0-0.7,0.3-0.7,0.7l0,0l0,0c0,0.4,0.3,0.7,0.7,0.7l0,0c0.4,0,0.7-0.3,0.7-0.7l0,0l0,0
    C15.1,27.2,14.8,26.9,14.4,26.9z"/>
<path d="M14.4,14c-2.6,0-4.8,2.1-4.8,4.8c0,0.4,0.3,0.7,0.7,0.7c0.4,0,0.7-0.3,0.7-0.7c0-1.8,1.5-3.3,3.3-3.3c0.8,0,1.7,0.3,2.3,1
    s1,1.4,1,2.3c0,1.4-1,2.7-2.3,3.1c-1,0.3-1.7,1.2-1.7,2.2v0.2c0,0.4,0.3,0.7,0.7,0.7s0.7-0.3,0.7-0.7v-0.2c0-0.4,0.2-0.7,0.6-0.8
    c2-0.6,3.4-2.5,3.4-4.6c0-1.2-0.5-2.4-1.4-3.3C16.8,14.5,15.6,14,14.4,14z"/>
</svg>
