<?xml version="1.0" encoding="utf-8"?>
<!-- Generator: Adobe Illustrator 22.0.1, SVG Export Plug-In . SVG Version: 6.00 Build 0)  -->
<svg version="1.1" id="faq" xmlns="http://www.w3.org/2000/svg" xmlns:xlink="http://www.w3.org/1999/xlink" x="0px" y="0px"
     viewBox="0 0 512 512" enable-background="new 0 0 512 512" xml:space="preserve">
<path fill="#C3E678" d="M238.9,191.9h239.4c14.2,0,25.7,11.5,25.7,25.7v153.9c0,14.2-11.5,25.7-25.7,25.7H341.5v28.2
    c0,5.4-6.5,8.1-10.3,4.3l-32.5-32.5h-59.9c-14.2,0-25.7-11.5-25.7-25.7V217.5C213.2,203.3,224.7,191.9,238.9,191.9z"/>
<path fill="#A5D76E" d="M213.2,217.5v153.9c0,4.9,1.4,9.4,3.8,13.3c62.9-25.3,107.3-86.7,107.3-158.6c0-11.7-1.2-23.2-3.4-34.2
    h-82.1C224.7,191.9,213.2,203.3,213.2,217.5z"/>
<path fill="#FF6464" d="M298.8,226.1c0-80.3-65.1-145.4-145.4-145.4S8,145.8,8,226.1c0,70.3,49.9,129,116.3,142.5l43.8,43.8
    c4,4,10.9,1.2,10.9-4.5V369C247.1,356.9,298.8,297.6,298.8,226.1z"/>
<circle fill="#D2555A" cx="153.4" cy="226.1" r="111.2"/>
<path d="M478.3,183.8H300.8c-7.9-27.5-23.4-52.6-45.1-72c-32.9-29.5-75.4-43-119.7-38.1C64.9,81.5,8,138.9,0.8,210
    c-4,38.8,6.7,77.3,29.9,108.1c22.3,29.6,54.2,50.1,90.2,57.8l37.8,37.8c3.2,3.2,7.4,4.9,11.7,4.9c2.1,0,4.3-0.4,6.4-1.3
    c6.2-2.6,10.2-8.6,10.2-15.3v-26.5c6.2-1.4,12.3-3.2,18.2-5.3v1c0,18.6,15.1,33.7,33.7,33.7h56.5l30.1,30.1c2.7,2.7,6.3,4.1,9.9,4.1
    c1.8,0,3.6-0.4,5.4-1.1c5.3-2.2,8.7-7.3,8.7-13v-20.2h128.8c18.6,0,33.7-15.1,33.7-33.7V217.5C512,198.9,496.9,183.8,478.3,183.8z
     M177.6,361.2c-3.8,0.7-6.6,4-6.6,7.9v33.1c0,0.2,0,0.4-0.3,0.5c-0.3,0.1-0.4,0-0.6-0.1L130.6,363c-1.1-1.1-2.6-1.9-4.1-2.2
    c-33.1-6.6-62.5-25.1-82.9-52.2c-20.8-27.7-30.3-62.1-26.8-96.9c3.1-30.7,17-59.9,39.1-82.2C78,107.1,107,93,137.7,89.6
    c5.3-0.6,10.6-0.9,15.9-0.9c33.9,0,65.9,12.2,91.4,35c29.1,26,45.8,63.3,45.8,102.4C290.7,292.7,243.2,349.5,177.6,361.2z
     M496,371.4c0,9.7-7.9,17.6-17.6,17.6H341.5c-4.4,0-8,3.6-8,8v23.4l-29.1-29.1c-1.5-1.5-3.5-2.3-5.7-2.3h-59.9
    c-9.7,0-17.6-7.9-17.6-17.6v-7.8c51.3-25.2,85.5-77.9,85.5-137.5c0-8.9-0.8-17.6-2.3-26.2h173.8c9.7,0,17.6,7.9,17.6,17.6L496,371.4
    L496,371.4z"/>
<path d="M438.5,246l-79.8,79.8l-37.1-37.1c-3.1-3.1-8.2-3.1-11.3,0c-3.1,3.1-3.1,8.2,0,11.3l42.7,42.7c1.6,1.6,3.6,2.3,5.7,2.3
    s4.1-0.8,5.7-2.3l85.5-85.5c3.1-3.1,3.1-8.2,0-11.3C446.7,242.9,441.6,242.9,438.5,246z"/>
<path d="M153.4,286.5C153.4,286.5,153.4,286.5,153.4,286.5c-4.4,0-8,3.6-8,8c0,0,0,0,0,0s0,0,0,0c0,4.4,3.6,8,8,8c0,0,0,0,0,0
    c4.4,0,8-3.6,8-8c0,0,0,0,0,0s0,0,0,0C161.4,290.1,157.8,286.5,153.4,286.5z"/>
<path d="M153.4,149.7c-28,0-50.8,22.8-50.8,50.8c0,4.4,3.6,8,8,8c4.4,0,8-3.6,8-8c0-19.2,15.6-34.7,34.7-34.7
    c9,0,17.7,3.7,24.4,10.4s10.4,15.3,10.4,24.4c0,15.2-10.2,28.9-24.7,33.3c-10.8,3.2-18,12.9-18,24v2.6c0,4.4,3.6,8,8,8
    c4.4,0,8-3.6,8-8v-2.6c0-4,2.6-7.5,6.6-8.7c21.3-6.4,36.2-26.4,36.2-48.6c0-13.3-5.3-26-15.1-35.7
    C179.4,155,166.7,149.7,153.4,149.7z"/>
</svg>
