<?xml version="1.0" encoding="iso-8859-1"?>
<!-- Generator: Adobe Illustrator 19.0.0, SVG Export Plug-In . SVG Version: 6.00 Build 0)  -->
<svg version="1.1" id="Layer_1" xmlns="http://www.w3.org/2000/svg" xmlns:xlink="http://www.w3.org/1999/xlink" x="0px" y="0px"
	 viewBox="0 0 502 502" style="enable-background:new 0 0 502 502;" xml:space="preserve">
<g>
	<g>
		<circle style="fill:#5CC9C1;" cx="251" cy="251" r="241"/>
		<path d="M251,502c-67.044,0-130.076-26.108-177.484-73.516S0,318.044,0,251S26.108,120.924,73.516,73.516S183.956,0,251,0
			c67.045,0,130.076,26.108,177.483,73.516C475.892,120.924,502,183.956,502,251s-26.108,130.076-73.517,177.484
			C381.076,475.892,318.045,502,251,502z M251,20C123.626,20,20,123.626,20,251s103.626,231,231,231s231-103.626,231-231
			S378.374,20,251,20z"/>
	</g>
	<g>
		<g>
			<path style="fill:#FFF9E6;" d="M370,170.359c0-65.617-53.383-119-119-119s-119,53.383-119,119c0,13.807,11.193,25,25,25
				s25-11.193,25-25c0-38.047,30.953-69,69-69s69,30.953,69,69c0,38.322-30.953,69.5-69,69.5c-13.807,0-25,11.193-25,25v68.781
				c0,13.807,11.193,25,25,25c13.808,0,25-11.193,25-25v-46.443C329.653,275.632,370,227.642,370,170.359z"/>
			<path d="M251,368.641c-19.299,0-35-15.701-35-35V264.86c0-19.299,15.701-35,35-35c32.532,0,59-26.691,59-59.5
				c0-32.533-26.468-59-59-59c-32.533,0-59,26.467-59,59c0,19.299-15.701,35-35,35s-35-15.701-35-35c0-71.131,57.869-129,129-129
				s129,57.869,129,129c0,29.756-10.345,58.835-29.129,81.881c-16.791,20.601-39.596,35.582-64.871,42.763v38.638
				C286,352.939,270.299,368.641,251,368.641z M251,91.359c43.561,0,79,35.439,79,79c0,43.836-35.439,79.5-79,79.5
				c-8.271,0-15,6.729-15,15v68.781c0,8.271,6.729,15,15,15s15-6.729,15-15v-46.443c0-4.711,3.288-8.783,7.893-9.775
				C323.787,266.667,360,221.641,360,170.359c0-60.103-48.897-109-109-109s-109,48.897-109,109c0,8.271,6.729,15,15,15
				s15-6.729,15-15C172,126.799,207.439,91.359,251,91.359z"/>
		</g>
		<g>
			<path style="fill:#FFF9E6;" d="M251,396.641c-13.807,0-25,11.193-25,25v4c0,13.807,11.193,25,25,25s25-11.193,25-25v-4
				C276,407.833,264.807,396.641,251,396.641z"/>
			<path d="M251,460.641c-19.299,0-35-15.701-35-35v-4c0-19.299,15.701-35,35-35s35,15.701,35,35v4
				C286,444.939,270.299,460.641,251,460.641z M251,406.641c-8.271,0-15,6.729-15,15v4c0,8.271,6.729,15,15,15s15-6.729,15-15v-4
				C266,413.37,259.271,406.641,251,406.641z"/>
		</g>
	</g>
	<g>
		<path d="M49.274,303.002c-4.642,0-8.803-3.25-9.782-7.974C36.512,280.636,35,265.822,35,251c0-5.523,4.477-10,10-10
			s10,4.477,10,10c0,13.462,1.372,26.911,4.077,39.972c1.12,5.408-2.356,10.7-7.764,11.82
			C50.629,302.934,49.946,303.002,49.274,303.002z"/>
	</g>
	<g>
		<path d="M168.992,450.034c-1.33,0-2.682-0.267-3.979-0.831c-48.481-21.06-87.496-59.051-109.856-106.976
			c-2.335-5.005-0.171-10.955,4.834-13.29c5.003-2.335,10.955-0.171,13.29,4.834c20.294,43.495,55.702,77.975,99.701,97.088
			c5.065,2.2,7.388,8.09,5.188,13.156C176.532,447.784,172.854,450.034,168.992,450.034z"/>
	</g>
</g>
<g>
</g>
<g>
</g>
<g>
</g>
<g>
</g>
<g>
</g>
<g>
</g>
<g>
</g>
<g>
</g>
<g>
</g>
<g>
</g>
<g>
</g>
<g>
</g>
<g>
</g>
<g>
</g>
<g>
</g>
</svg>
