<svg xmlns="http://www.w3.org/2000/svg" viewBox="0 0 48 48"><path fill="#c3e678" d="M22.4 18h22.4c1.3 0 2.4 1.1 2.4 2.4v14.4c0 1.3-1.1 2.4-2.4 2.4H32v2.6c0 .5-.6.8-1 .4l-3-3h-5.6c-1.3 0-2.4-1.1-2.4-2.4V20.4c0-1.3 1.1-2.4 2.4-2.4z"/><path fill="#a5d76e" d="M20 20.4v14.4c0 .5.1.9.4 1.2 5.9-2.4 10.1-8.1 10.1-14.9 0-1.1-.1-2.2-.3-3.2h-7.7c-1.4.1-2.5 1.2-2.5 2.5z"/><path fill="#ff6464" d="M28 21.2c0-7.5-6.1-13.6-13.6-13.6S.8 13.7.8 21.2c0 6.6 4.7 12.1 10.9 13.4l4.1 4.1c.4.4 1 .1 1-.4v-3.6A13.74 13.74 0 0 0 28 21.2z"/><circle fill="#d2555a" cx="14.4" cy="21.2" r="10.4"/><path d="M44.8 17.2H28.2c-.7-2.6-2.2-4.9-4.2-6.7-3.1-2.8-7.1-4-11.2-3.6C6.1 7.6.8 13 .1 19.7c-.4 3.6.6 7.2 2.8 10.1a14.15 14.15 0 0 0 8.5 5.4l3.5 3.5c.3.3.7.5 1.1.5.2 0 .4 0 .6-.1.6-.2 1-.8 1-1.4v-2.5c.6-.1 1.2-.3 1.7-.5v.1c0 1.7 1.4 3.2 3.2 3.2h5.3l2.8 2.8c.3.3.6.4.9.4.2 0 .3 0 .5-.1a1.3 1.3 0 0 0 .8-1.2V38h12.1c1.7 0 3.2-1.4 3.2-3.2V20.4c-.1-1.7-1.5-3.2-3.3-3.2zM16.7 33.9c-.4.1-.6.4-.6.7v3.1H16L12.2 34c-.1-.1-.2-.2-.4-.2-3.1-.6-5.9-2.4-7.8-4.9a13.3 13.3 0 0 1-2.5-9.1c.3-2.9 1.6-5.6 3.7-7.7s4.8-3.4 7.7-3.7c.5-.1 1-.1 1.5-.1 3.2 0 6.2 1.1 8.6 3.3 2.7 2.4 4.3 5.9 4.3 9.6 0 6.2-4.5 11.6-10.6 12.7zm29.8.9a1.58 1.58 0 0 1-1.6 1.6H32a.68.68 0 0 0-.7.7v2.2l-2.7-2.7c-.1-.1-.3-.2-.5-.2h-5.6a1.58 1.58 0 0 1-1.6-1.6v-.7c4.8-2.4 8-7.3 8-12.9 0-.8-.1-1.6-.2-2.5H45a1.58 1.58 0 0 1 1.6 1.6l-.1 14.5zm-5.4-11.7l-7.5 7.5-3.5-3.5c-.3-.3-.8-.3-1.1 0s-.3.8 0 1.1l4 4c.1.1.3.2.5.2s.4-.1.5-.2l8-8c.3-.3.3-.8 0-1.1-.1-.3-.6-.3-.9 0zm-26.7 3.8a.68.68 0 0 0-.7.7.68.68 0 0 0 .7.7.68.68 0 0 0 .7-.7.68.68 0 0 0-.7-.7zm0-12.9c-2.6 0-4.8 2.1-4.8 4.8a.68.68 0 0 0 .7.7.68.68 0 0 0 .7-.7 3.33 3.33 0 0 1 3.3-3.3c.8 0 1.7.3 2.3 1s1 1.4 1 2.3a3.34 3.34 0 0 1-2.3 3.1c-1 .3-1.7 1.2-1.7 2.2v.2a.68.68 0 0 0 .7.7.68.68 0 0 0 .7-.7v-.2c0-.4.2-.7.6-.8 2-.6 3.4-2.5 3.4-4.6 0-1.2-.5-2.4-1.4-3.3-.8-.9-2-1.4-3.2-1.4z"/></svg>