<?xml version="1.0" encoding="iso-8859-1"?>
<!-- Generator: Adobe Illustrator 19.0.0, SVG Export Plug-In . SVG Version: 6.00 Build 0)  -->
<svg version="1.1" id="Layer_1" xmlns="http://www.w3.org/2000/svg" xmlns:xlink="http://www.w3.org/1999/xlink" x="0px" y="0px"
	 viewBox="0 0 512.001 512.001" style="enable-background:new 0 0 512.001 512.001;" xml:space="preserve">
<path style="fill:#C7CFE2;" d="M280.462,55.427h192.274c17.625,0,32.046,14.421,32.046,32.046v112.16
	c0,17.625-14.421,32.046-32.046,32.046H304.325v30.386c0,3.569-4.315,5.356-6.838,2.832c0,0-49.07-47.64-49.07-65.265V87.472
	C248.416,69.848,262.837,55.427,280.462,55.427z"/>
<path style="fill:#E4EAF6;" d="M249.418,25.033H37.115c-17.625,0-32.046,14.421-32.046,32.046v112.16
	c0,17.625,14.421,32.046,32.046,32.046h124.177v30.386c0,3.569,4.315,5.356,6.838,2.832l33.219-33.219h48.069
	c17.625,0,32.046-14.421,32.046-32.046V57.077C281.463,39.453,267.043,25.033,249.418,25.033z"/>
<g>
	<path style="fill:#E6AF78;" d="M179.583,430.769c-2.63-0.751-10.849-3.731-10.861-10.336l-0.061-19.376l-64.528,0.14l0.012,19.377
		c0.011,5.821-6.361,8.848-9.672,10.006l42.028,25.731L179.583,430.769z"/>
	<path style="fill:#E6AF78;" d="M168.722,420.434l-0.051-16.221c-8.474,16.474-25.631,27.752-45.433,27.752
		c-7.954,0-15.484-1.82-22.197-5.064c-2.089,1.871-4.775,3.052-6.568,3.68l42.028,25.731l43.082-25.541
		C176.953,430.017,168.734,427.038,168.722,420.434z"/>
</g>
<path style="fill:#D29B6E;" d="M168.671,404.212l-0.01-3.154l-64.528,0.14l0.012,19.377c0.005,2.668-1.336,4.743-3.103,6.326
	c6.713,3.244,14.241,5.064,22.197,5.064C143.04,431.964,160.196,420.687,168.671,404.212z"/>
<path style="fill:#785550;" d="M184.386,279.969c-24.414,3.534-56.462-19.422-80.324,0.15c-14.45,0.027-23.636,11.551-23.607,26.912
	c0.027,14.477,8.02,43.21,8.02,43.21l0.015,7.758c-0.027-14.091,8.253-37.808,8.253-37.808c41.423-0.078,75.53,11.763,87.75,16.609
	l-0.001-0.751l0.001,0.751c0.885,0.352,1.65,0.664,2.3,0.934C193.332,309.739,187.312,286.585,184.386,279.969z"/>
<path style="fill:#F0C087;" d="M88.489,357.998c0.056,29.994,21.201,57.971,48.023,57.921c26.822-0.051,48.079-26.588,48.022-56.582
	l-0.042-22.538c-12.22-4.847-46.328-16.688-87.75-16.609C96.742,320.191,88.462,343.907,88.489,357.998z"/>
<path style="fill:#E6AF78;" d="M105.804,364.947c-0.817-38.95,5.657-36.99,5.657-36.99c11.757-2.713,29.188-2.02,48.234,0.729
	c-16.382-4.394-38.38-8.542-62.954-8.496c0,0-8.279,23.717-8.253,37.808c0.052,27.835,18.271,53.918,42.331,57.49
	C120.399,407.256,106.297,388.395,105.804,364.947z"/>
<path style="fill:#EFF2FA;" d="M232.718,470.34c-0.025-13.441-8.525-27.775-23.153-31.842l-29.978-7.726
	c-0.001,0-0.003-0.001-0.004-0.001l-43.082,25.541l-42.028-25.731c-0.448,0.156-0.843,0.281-1.156,0.372l-29.949,7.838
	c-14.613,4.124-23.058,18.488-23.033,31.93l0.016,8.652c0.009,5.061,4.703,9.156,10.483,9.145l171.449-0.341
	c5.78-0.011,10.458-4.123,10.449-9.184L232.718,470.34z"/>
<g>
	<path style="fill:#E4EAF6;" d="M75.359,488.044v-9.645c0-4.94-2.239-9.648-6.16-12.949l-20.563-17.152
		c-5.389,6.276-8.314,14.509-8.299,22.423l0.016,8.652c0.006,3.425,2.161,6.402,5.343,7.969c1.335,0.445,2.621,0.703,3.667,0.703
		h25.996V488.044z"/>
	<path style="fill:#E4EAF6;" d="M232.734,478.992l-0.016-8.652c-0.013-6.906-2.268-14.044-6.437-19.907l-18.492,15.018
		c-3.921,3.302-6.16,8.009-6.16,12.949v9.645h22.34C228.945,487.328,232.743,483.55,232.734,478.992z"/>
</g>
<path style="fill:#694B4B;" d="M184.386,279.969c-10.6,1.534-22.64-1.925-34.824-4.729c-15.877-3.654-31.999-6.196-45.501,4.879
	c-0.115,0-0.226,0.007-0.34,0.009c-1.672,1.726,1.491,6.628,1.491,6.628s-6.342,3.004-9.013,15.021
	c-1.461,6.575-1.069,13.624,0.987,18.415c18.804,0.003,36.078,2.453,50.469,5.578c17.156,3.724,30.215,8.402,36.837,11.029
	c0.885,0.352,1.65,0.664,2.3,0.934C193.332,309.739,187.312,286.585,184.386,279.969z"/>
<g>
	<path style="fill:#E6AF78;" d="M419.925,430.318c-2.63-0.751-10.849-3.731-10.861-10.336l-0.061-19.376l-64.528,0.14l0.012,19.377
		c0.011,5.821-6.361,8.848-9.672,10.006l42.028,25.731L419.925,430.318z"/>
	<path style="fill:#E6AF78;" d="M409.063,419.982l-0.051-16.221c-8.474,16.474-25.631,27.752-45.433,27.752
		c-7.954,0-15.484-1.82-22.197-5.064c-2.089,1.871-4.775,3.052-6.568,3.68l42.028,25.731l43.082-25.541
		C417.296,429.566,409.075,426.586,409.063,419.982z"/>
</g>
<path style="fill:#D29B6E;" d="M409.012,403.761l-0.01-3.154l-64.528,0.14l0.012,19.377c0.005,2.668-1.336,4.743-3.103,6.326
	c6.713,3.244,14.241,5.064,22.197,5.064C383.382,431.512,400.538,420.235,409.012,403.761z"/>
<path style="fill:#785550;" d="M424.728,279.517c-24.414,3.534-56.462-19.422-80.324,0.15c-14.45,0.027-23.636,11.551-23.607,26.912
	c0.027,14.477,8.02,43.21,8.02,43.21l0.015,7.758c-0.027-14.091,8.253-37.808,8.253-37.808c41.423-0.078,75.53,11.763,87.75,16.609
	l-0.001-0.751l0.001,0.751c0.885,0.352,1.65,0.664,2.3,0.934C433.673,309.287,427.654,286.133,424.728,279.517z"/>
<path style="fill:#F0C087;" d="M328.832,357.547c0.056,29.994,21.201,57.971,48.023,57.921
	c26.822-0.051,48.079-26.588,48.022-56.582l-0.042-22.538c-12.22-4.847-46.328-16.688-87.75-16.609
	C337.084,319.739,328.805,343.456,328.832,357.547z"/>
<path style="fill:#E6AF78;" d="M346.147,364.496c-0.817-38.95,5.657-36.99,5.657-36.99c11.757-2.713,29.188-2.02,48.234,0.729
	c-16.382-4.394-38.38-8.542-62.954-8.496c0,0-8.279,23.717-8.253,37.808c0.052,27.835,18.271,53.918,42.331,57.49
	C360.741,406.804,346.638,387.943,346.147,364.496z"/>
<path style="fill:#B4E1FA;" d="M473.06,469.887c-0.025-13.441-8.525-27.775-23.153-31.842l-29.978-7.726
	c-0.001,0-0.003-0.001-0.004-0.001l-43.082,25.541l-42.028-25.731c-0.448,0.156-0.843,0.281-1.156,0.372l-29.949,7.838
	c-14.613,4.124-23.058,18.488-23.033,31.93l0.016,8.652c0.009,5.061,4.703,9.156,10.483,9.145l171.449-0.341
	c5.78-0.011,10.458-4.123,10.449-9.184L473.06,469.887z"/>
<g>
	<path style="fill:#A0D2F0;" d="M315.701,487.592v-9.645c0-4.94-2.239-9.648-6.16-12.949l-20.563-17.152
		c-5.389,6.276-8.314,14.509-8.299,22.423l0.016,8.652c0.006,3.425,2.161,6.402,5.343,7.969c1.335,0.445,2.621,0.703,3.667,0.703
		h25.996V487.592z"/>
	<path style="fill:#A0D2F0;" d="M473.077,478.54l-0.016-8.652c-0.013-6.906-2.268-14.044-6.437-19.907l-18.492,15.018
		c-3.921,3.302-6.16,8.009-6.16,12.949v9.645h22.34C469.286,486.876,473.085,483.099,473.077,478.54z"/>
</g>
<path style="fill:#694B4B;" d="M424.728,279.517c-10.6,1.534-22.64-1.925-34.824-4.729c-15.877-3.654-31.999-6.196-45.501,4.879
	c-0.115,0-0.226,0.007-0.34,0.009c-1.672,1.726,1.491,6.628,1.491,6.628s-6.342,3.004-9.013,15.021
	c-1.461,6.575-1.069,13.624,0.987,18.415c18.804,0.003,36.078,2.453,50.469,5.578c17.156,3.724,30.215,8.402,36.837,11.029
	c0.885,0.352,1.65,0.664,2.3,0.934C433.673,309.287,427.654,286.133,424.728,279.517z"/>
<path d="M211.578,431.261c-0.046-0.013-0.092-0.025-0.138-0.037l-29.874-7.699c-2.873-0.838-5.11-2.409-5.335-3.114l-0.052-16.525
	c0.063-0.075,0.13-0.144,0.192-0.22c10.137-12.163,15.703-27.91,15.672-44.341l-0.023-12.166c10.137-33.17,2.923-61.88-0.768-70.226
	c-0.011-0.025-0.025-0.048-0.037-0.073c-0.069-0.15-0.144-0.296-0.222-0.441c-0.042-0.078-0.082-0.158-0.126-0.234
	c-0.075-0.129-0.157-0.252-0.24-0.376c-0.058-0.087-0.113-0.175-0.174-0.259c-0.074-0.101-0.153-0.196-0.231-0.293
	c-0.078-0.097-0.154-0.195-0.236-0.287c-0.071-0.079-0.147-0.153-0.221-0.229c-0.096-0.099-0.19-0.198-0.291-0.291
	c-0.075-0.069-0.156-0.133-0.234-0.199c-0.104-0.088-0.208-0.179-0.316-0.261c-0.094-0.071-0.192-0.135-0.289-0.201
	c-0.099-0.067-0.195-0.138-0.297-0.2c-0.123-0.076-0.25-0.144-0.378-0.212c-0.081-0.043-0.159-0.09-0.241-0.131
	c-0.151-0.075-0.307-0.14-0.464-0.205c-0.063-0.026-0.125-0.056-0.189-0.08c-0.165-0.063-0.335-0.117-0.506-0.168
	c-0.06-0.018-0.119-0.04-0.179-0.057c-0.16-0.044-0.324-0.079-0.489-0.112c-0.077-0.016-0.152-0.035-0.229-0.048
	c-0.14-0.024-0.283-0.039-0.427-0.055c-0.106-0.012-0.212-0.027-0.319-0.035c-0.114-0.008-0.229-0.008-0.345-0.011
	c-0.139-0.003-0.278-0.007-0.419-0.003c-0.092,0.003-0.184,0.012-0.276,0.018c-0.162,0.011-0.324,0.024-0.488,0.046
	c-0.027,0.003-0.053,0.003-0.08,0.007c-7.814,1.131-17.28-1.117-27.303-3.496c-17.574-4.173-37.402-8.872-54.652,3.693
	c-8.016,0.666-15.13,4.229-20.239,10.218c-5.287,6.197-8.189,14.753-8.171,24.095c0.026,13.913,6.568,38.842,8.022,44.211
	l0.012,6.757c0.032,17.227,6.045,33.132,15.644,44.953l0.012,17.635c-0.223,0.683-2.453,2.261-5.324,3.11l-29.845,7.811
	c-0.046,0.012-0.092,0.025-0.138,0.038c-18.752,5.291-28.534,23.711-28.504,39.172l0.016,8.652c0.008,4.578,2.068,8.995,5.651,12.12
	c3.343,2.916,7.717,4.521,12.321,4.52c0.012,0,0.025,0,0.038,0l85.533-0.17c0.059,0.001,0.117,0.009,0.176,0.009
	c0.005,0,0.01,0,0.015,0c0.062,0,0.122-0.008,0.184-0.01l85.54-0.17c9.912-0.019,17.963-7.514,17.946-16.709l-0.017-8.652
	C240.2,454.865,230.35,436.481,211.578,431.261z M136.516,447.57l-28.568-17.068c2.257-2.687,3.715-5.988,3.708-9.933l-0.003-4.33
	c7.511,4.576,15.946,7.191,24.789,7.191c0.027,0,0.057,0,0.084,0c8.706-0.017,17.093-2.371,24.671-6.791l0.012,3.807
	c0.008,4.06,1.556,7.437,3.933,10.154L136.516,447.57z M92.542,292.7c2.862-3.355,6.743-5.061,11.533-5.07
	c0.057,0,0.113-0.007,0.17-0.009c0.187-0.004,0.376-0.011,0.563-0.029c0.097-0.01,0.192-0.027,0.289-0.041
	c0.147-0.021,0.293-0.039,0.44-0.068c0.112-0.022,0.22-0.053,0.329-0.08c0.128-0.031,0.256-0.061,0.383-0.099
	c0.116-0.036,0.229-0.079,0.343-0.12c0.116-0.042,0.233-0.081,0.349-0.128c0.12-0.05,0.235-0.108,0.352-0.164
	c0.104-0.049,0.208-0.095,0.311-0.15c0.13-0.07,0.254-0.148,0.381-0.226c0.083-0.051,0.169-0.098,0.251-0.153
	c0.157-0.105,0.307-0.22,0.456-0.336c0.044-0.035,0.09-0.063,0.134-0.099c11.962-9.811,27.383-6.15,43.711-2.273
	c8.725,2.072,17.686,4.2,26.356,4.2c0.093,0,0.185-0.004,0.278-0.005c2.175,7.796,4.392,21.966,2.038,38.862
	c-12.61-4.623-43.272-14.032-83.985-14.032c-0.165,0-0.33,0-0.496,0c-0.02,0-0.039,0.003-0.059,0.003
	c-0.166,0.001-0.33,0.013-0.495,0.026c-0.089,0.007-0.179,0.01-0.267,0.02c-0.133,0.015-0.265,0.039-0.397,0.061
	c-0.117,0.02-0.236,0.036-0.352,0.061c-0.088,0.019-0.173,0.045-0.26,0.067c-0.154,0.039-0.308,0.077-0.459,0.125
	c-0.045,0.014-0.088,0.033-0.132,0.048c-0.185,0.064-0.371,0.13-0.549,0.208c-0.027,0.012-0.052,0.026-0.079,0.038
	c-0.191,0.086-0.381,0.176-0.564,0.277c-0.064,0.035-0.124,0.077-0.187,0.114c-0.141,0.083-0.282,0.165-0.418,0.257
	c-0.13,0.088-0.253,0.187-0.378,0.283c-0.062,0.049-0.128,0.093-0.188,0.143c-0.153,0.127-0.299,0.264-0.444,0.405
	c-0.028,0.027-0.058,0.051-0.085,0.078c-0.132,0.132-0.255,0.274-0.378,0.418c-0.036,0.042-0.075,0.081-0.11,0.124
	c-0.095,0.116-0.182,0.24-0.27,0.364c-0.057,0.079-0.117,0.154-0.171,0.235c-0.062,0.093-0.116,0.192-0.174,0.288
	c-0.072,0.12-0.146,0.239-0.212,0.365c-0.039,0.073-0.072,0.15-0.108,0.226c-0.075,0.153-0.148,0.307-0.212,0.467
	c-0.007,0.018-0.016,0.033-0.023,0.051c-0.05,0.126-0.259,0.661-0.575,1.509c-0.728-4.512-1.209-8.704-1.215-11.924
	C87.954,301.257,89.58,296.172,92.542,292.7z M95.995,355.251v-0.002c-0.015-8.155,3.457-20.116,5.985-27.499
	c36.942,0.722,64.742,9.634,75.011,13.442l0.009,4.792c0,0.029,0,0.058,0,0.086l0.025,13.284
	c0.05,26.55-18.508,49.015-40.526,49.056c-0.02,0-0.036,0-0.055,0c-21.499,0-40.393-23.548-40.444-50.424L95.995,355.251z
	 M50.822,481.006c-0.961,0.014-1.856-0.297-2.455-0.819c-0.151-0.132-0.504-0.477-0.504-0.828l-0.016-8.653
	c-0.019-9.782,5.987-21.384,17.499-24.669l27.338-7.155l36.314,21.696l0.038,20.274L50.822,481.006z M222.27,480.665l-78.214,0.155
	l-0.038-20.237l36.714-21.762l26.883,6.928c11.524,3.242,17.572,14.821,17.59,24.603l0.017,8.652
	C225.224,479.589,224.105,480.662,222.27,480.665z"/>
<path d="M451.919,430.809c-0.046-0.013-0.092-0.025-0.138-0.037l-29.874-7.699c-2.873-0.838-5.11-2.409-5.335-3.114l-0.052-16.524
	c0.063-0.075,0.13-0.145,0.193-0.22c10.137-12.163,15.703-27.911,15.672-44.342l-0.023-12.166
	c10.138-33.17,2.923-61.88-0.768-70.227c-0.012-0.027-0.027-0.051-0.039-0.078c-0.066-0.144-0.139-0.284-0.213-0.423
	c-0.045-0.084-0.088-0.169-0.135-0.251c-0.072-0.123-0.15-0.24-0.229-0.359c-0.061-0.093-0.121-0.187-0.185-0.275
	c-0.069-0.094-0.143-0.183-0.216-0.274c-0.083-0.104-0.165-0.208-0.253-0.307c-0.063-0.07-0.131-0.136-0.197-0.204
	c-0.104-0.108-0.207-0.216-0.317-0.316c-0.066-0.06-0.136-0.115-0.203-0.173c-0.114-0.098-0.228-0.196-0.348-0.287
	c-0.082-0.062-0.169-0.118-0.253-0.176c-0.11-0.076-0.219-0.155-0.333-0.225c-0.11-0.068-0.224-0.128-0.339-0.19
	c-0.093-0.051-0.185-0.105-0.28-0.152c-0.14-0.069-0.284-0.129-0.429-0.19c-0.074-0.031-0.147-0.066-0.223-0.094
	c-0.157-0.06-0.318-0.11-0.48-0.16c-0.068-0.021-0.135-0.045-0.204-0.064c-0.156-0.042-0.315-0.076-0.475-0.109
	c-0.08-0.017-0.16-0.036-0.24-0.05c-0.139-0.024-0.28-0.039-0.422-0.055c-0.108-0.013-0.214-0.027-0.323-0.035
	c-0.114-0.008-0.229-0.008-0.344-0.011c-0.139-0.003-0.277-0.007-0.417-0.003c-0.093,0.003-0.186,0.012-0.279,0.019
	c-0.161,0.011-0.321,0.023-0.483,0.045c-0.027,0.004-0.054,0.004-0.081,0.008c-7.813,1.13-17.281-1.117-27.303-3.496
	c-17.575-4.173-37.402-8.873-54.653,3.693c-8.016,0.666-15.13,4.229-20.24,10.218c-5.287,6.197-8.189,14.753-8.171,24.095
	c0.026,13.913,6.568,38.842,8.022,44.211l0.008,4.006c0,0.005,0,0.009,0,0.014c0,0.001,0,0.003,0,0.004l0.005,2.732
	c0.03,16.247,5.729,32.621,15.635,44.922c0.003,0.004,0.006,0.007,0.009,0.011l0.013,17.654c-0.223,0.684-2.454,2.262-5.324,3.111
	l-29.845,7.811c-0.046,0.012-0.092,0.025-0.138,0.038c-18.752,5.292-28.534,23.711-28.504,39.172l0.016,8.652
	c0.008,4.578,2.068,8.995,5.651,12.12c3.343,2.916,7.717,4.521,12.321,4.521c0.012,0,0.025,0,0.037,0l85.53-0.17
	c0.06,0.001,0.118,0.009,0.179,0.009c0.005,0,0.01,0,0.015,0c0.063,0,0.124-0.008,0.187-0.01l85.538-0.17
	c9.912-0.018,17.963-7.514,17.946-16.709l-0.017-8.652C480.542,454.413,470.691,436.029,451.919,430.809z M376.857,447.119
	l-28.568-17.067c2.257-2.687,3.715-5.988,3.708-9.933l-0.003-4.259c7.621,4.65,16.048,7.12,24.786,7.12c0.028,0,0.059,0,0.087,0
	c8.706-0.017,17.094-2.371,24.671-6.79l0.012,3.807c0.008,4.06,1.556,7.436,3.933,10.153L376.857,447.119z M328.307,306.565
	c-0.011-5.76,1.614-10.844,4.577-14.316c2.863-3.355,6.743-5.061,11.533-5.07c0.057,0,0.113-0.007,0.17-0.009
	c0.187-0.004,0.376-0.011,0.563-0.029c0.098-0.01,0.192-0.027,0.289-0.041c0.147-0.021,0.293-0.039,0.44-0.068
	c0.112-0.022,0.22-0.053,0.329-0.08c0.128-0.031,0.255-0.061,0.383-0.099c0.116-0.036,0.229-0.079,0.342-0.12
	c0.116-0.042,0.233-0.081,0.348-0.128c0.12-0.05,0.235-0.108,0.353-0.164c0.104-0.049,0.208-0.095,0.311-0.15
	c0.13-0.07,0.254-0.148,0.381-0.226c0.084-0.051,0.169-0.098,0.251-0.153c0.157-0.105,0.307-0.22,0.456-0.336
	c0.044-0.035,0.09-0.063,0.134-0.099c11.962-9.811,27.384-6.15,43.711-2.273c8.724,2.072,17.686,4.2,26.355,4.2
	c0.093,0,0.185-0.004,0.278-0.005c2.176,7.796,4.393,21.966,2.038,38.862c-12.61-4.623-43.271-14.032-83.983-14.032
	c-0.165,0-0.332,0-0.498,0c-0.018,0-0.035,0.002-0.052,0.003c-0.177,0.001-0.354,0.013-0.529,0.027
	c-0.078,0.006-0.156,0.009-0.234,0.017c-0.146,0.017-0.29,0.042-0.436,0.067c-0.104,0.018-0.21,0.032-0.313,0.054
	c-0.101,0.021-0.199,0.052-0.299,0.078c-0.141,0.036-0.282,0.07-0.421,0.114c-0.058,0.019-0.113,0.043-0.17,0.063
	c-0.172,0.06-0.345,0.121-0.512,0.193c-0.04,0.017-0.077,0.039-0.117,0.056c-0.178,0.081-0.357,0.165-0.527,0.259
	c-0.069,0.038-0.133,0.083-0.201,0.123c-0.136,0.081-0.273,0.16-0.405,0.249c-0.126,0.086-0.245,0.182-0.367,0.275
	c-0.066,0.052-0.136,0.099-0.201,0.152c-0.147,0.122-0.286,0.253-0.425,0.388c-0.034,0.033-0.071,0.063-0.104,0.096
	c-0.127,0.128-0.247,0.266-0.366,0.405c-0.04,0.046-0.083,0.089-0.122,0.137c-0.092,0.113-0.177,0.233-0.263,0.354
	c-0.059,0.082-0.122,0.161-0.178,0.246c-0.06,0.091-0.114,0.187-0.17,0.281c-0.074,0.122-0.149,0.243-0.215,0.371
	c-0.039,0.073-0.072,0.15-0.108,0.226c-0.074,0.153-0.147,0.307-0.212,0.466c-0.007,0.018-0.016,0.034-0.023,0.052
	c-0.05,0.126-0.258,0.661-0.575,1.507C328.795,313.975,328.314,309.782,328.307,306.565z M336.343,357.534l-0.005-2.749
	c-0.012-8.155,3.458-20.108,5.985-27.487c36.942,0.722,64.741,9.633,75.01,13.441l0.009,4.792c0,0.029,0,0.058,0,0.086l0.025,13.284
	c0.024,12.726-4.419,25.372-12.189,34.695c-7.702,9.241-17.765,14.34-28.335,14.36c-0.02,0-0.038,0-0.058,0
	c-10.405,0-20.392-5.288-28.127-14.894C340.855,383.375,336.367,370.425,336.343,357.534z M291.164,480.554
	c-0.002,0-0.005,0-0.008,0c-0.957,0-1.849-0.298-2.445-0.819c-0.151-0.132-0.504-0.477-0.504-0.828l-0.016-8.653
	c-0.019-9.782,5.987-21.384,17.499-24.669l27.338-7.155l36.314,21.696l0.038,20.274L291.164,480.554z M462.613,480.214
	l-78.214,0.156l-0.038-20.237l36.714-21.762l26.883,6.928c11.524,3.242,17.572,14.821,17.59,24.603l0.017,8.652
	C465.567,479.137,464.447,480.21,462.613,480.214z"/>
<path d="M511.79,87.078c-0.041-21.787-17.776-39.482-39.555-39.482c-0.024,0-0.051,0-0.075,0l-160.228,0.301
	c-4.148,0.008-7.505,3.377-7.497,7.526c0.008,4.143,3.369,7.496,7.511,7.496c0.005,0,0.01,0,0.015,0l160.228-0.301
	c13.532,0.019,24.556,10.961,24.581,24.489l0.21,112.16c0.025,13.528-10.961,24.556-24.489,24.581l-168.24,0.315
	c-1.992,0.004-3.901,0.799-5.307,2.21s-2.193,3.323-2.19,5.316l0.041,21.924l-27.287-27.185c-2.939-2.927-7.694-2.92-10.622,0.02
	c-2.927,2.939-2.918,7.694,0.02,10.621l40.132,39.982c1.436,1.431,3.353,2.19,5.303,2.19c0.972,0,1.953-0.188,2.886-0.578
	c2.804-1.168,4.63-3.91,4.624-6.948l-0.061-32.546l160.729-0.302c21.811-0.041,39.522-17.819,39.482-39.631L511.79,87.078z"/>
<path d="M287.62,167.614l-0.21-112.16c-0.041-21.77-17.785-39.481-39.631-39.481L39.482,16.364C17.671,16.405-0.041,34.184,0,55.995
	l0.21,112.16c0.041,21.77,17.785,39.481,39.631,39.481l112.661-0.211l0.061,32.546c0.006,3.037,1.841,5.773,4.65,6.93
	c0.925,0.381,1.897,0.567,2.859,0.567c1.96,0,3.885-0.768,5.323-2.21l37.786-37.929l44.958-0.084
	C269.95,207.203,287.661,189.425,287.62,167.614z M248.11,192.223l-48.069,0.09c-1.992,0.003-3.901,0.798-5.307,2.21L167.55,221.81
	l-0.041-21.925c-0.008-4.143-3.369-7.497-7.511-7.497c-0.005,0-0.01,0-0.015,0l-120.216,0.227
	c-13.502,0-24.509-10.986-24.535-24.489l-0.21-112.16c-0.025-13.529,10.96-24.556,24.489-24.581l208.343-0.392
	c13.502,0,24.509,10.986,24.534,24.489l0.21,112.16C272.624,181.171,261.639,192.198,248.11,192.223z"/>
<path d="M47.583,71.427c0.005,0,0.01,0,0.015,0l24.034-0.045c4.148-0.008,7.505-3.377,7.497-7.525
	c-0.008-4.144-3.369-7.497-7.511-7.497c-0.005,0-0.01,0-0.015,0l-24.034,0.045c-4.148,0.008-7.505,3.377-7.497,7.526
	C40.08,68.074,43.441,71.427,47.583,71.427z"/>
<path d="M103.663,71.322c0.005,0,0.01,0,0.015,0l136.194-0.255c4.148-0.008,7.505-3.377,7.497-7.526
	c-0.008-4.143-3.369-7.496-7.511-7.496c-0.005,0-0.01,0-0.015,0L103.649,56.3c-4.148,0.008-7.505,3.377-7.497,7.525
	C96.16,67.969,99.521,71.322,103.663,71.322z"/>
<path d="M47.643,103.473c0.005,0,0.01,0,0.015,0l192.274-0.361c4.148-0.008,7.505-3.377,7.497-7.526
	c-0.008-4.143-3.369-7.496-7.511-7.496c-0.005,0-0.01,0-0.015,0L47.629,88.451c-4.148,0.008-7.505,3.377-7.497,7.526
	C40.14,100.12,43.502,103.473,47.643,103.473z"/>
<path d="M239.978,120.136c-0.005,0-0.01,0-0.015,0l-24.034,0.045c-4.148,0.008-7.505,3.377-7.497,7.525
	c0.008,4.143,3.369,7.497,7.511,7.497c0.005,0,0.01,0,0.015,0l24.034-0.045c4.148-0.008,7.505-3.377,7.497-7.526
	C247.481,123.489,244.12,120.136,239.978,120.136z"/>
<path d="M47.703,135.518c0.005,0,0.01,0,0.015,0l136.194-0.255c4.148-0.008,7.505-3.377,7.497-7.525
	c-0.008-4.144-3.369-7.497-7.511-7.497c-0.005,0-0.01,0-0.015,0l-136.194,0.255c-4.148,0.008-7.505,3.377-7.497,7.526
	C40.2,132.165,43.561,135.518,47.703,135.518z"/>
<path d="M240.038,152.182c-0.005,0-0.01,0-0.015,0l-192.274,0.361c-4.148,0.008-7.505,3.377-7.497,7.526
	c0.008,4.143,3.369,7.496,7.511,7.496c0.005,0,0.01,0,0.015,0l192.274-0.361c4.148-0.008,7.505-3.377,7.497-7.526
	C247.541,155.536,244.179,152.182,240.038,152.182z"/>
<path d="M336.054,87.909c-0.005,0-0.01,0-0.015,0l-24.034,0.045c-4.148,0.008-7.505,3.377-7.497,7.526
	c0.008,4.143,3.369,7.496,7.511,7.496c0.005,0,0.01,0,0.015,0l24.034-0.045c4.148-0.008,7.505-3.377,7.497-7.525
	C343.557,91.263,340.196,87.909,336.054,87.909z"/>
<path d="M368.114,102.871l96.137-0.181c4.148-0.008,7.505-3.377,7.497-7.525c-0.008-4.143-3.369-7.497-7.511-7.497
	c-0.005,0-0.01,0-0.015,0l-96.137,0.181c-4.148,0.008-7.505,3.377-7.497,7.525c0.008,4.143,3.369,7.497,7.511,7.497
	C368.104,102.871,368.109,102.871,368.114,102.871z"/>
<path d="M304.569,127.525c0.008,4.143,3.369,7.497,7.511,7.497c0.005,0,0.01,0,0.015,0l152.217-0.286
	c4.148-0.008,7.505-3.377,7.497-7.525c-0.008-4.144-3.369-7.497-7.511-7.497c-0.005,0-0.01,0-0.015,0L312.066,120
	C307.918,120.008,304.561,123.377,304.569,127.525z"/>
<path d="M464.357,151.76c-0.005,0-0.01,0-0.015,0l-24.034,0.045c-4.148,0.008-7.505,3.377-7.497,7.525
	c0.008,4.144,3.369,7.497,7.511,7.497c0.005,0,0.01,0,0.015,0l24.034-0.045c4.148-0.008,7.505-3.377,7.497-7.525
	C471.86,155.113,468.499,151.76,464.357,151.76z"/>
<path d="M312.154,167.067l96.137-0.181c4.148-0.008,7.505-3.377,7.497-7.525c-0.008-4.144-3.369-7.497-7.511-7.497
	c-0.005,0-0.01,0-0.015,0l-96.137,0.181c-4.148,0.008-7.505,3.377-7.497,7.525c0.008,4.143,3.369,7.497,7.511,7.497
	C312.144,167.067,312.15,167.067,312.154,167.067z"/>
<path d="M312.2,199.113c0.005,0,0.01,0,0.015,0l152.217-0.286c4.148-0.008,7.505-3.377,7.497-7.525
	c-0.008-4.144-3.369-7.497-7.511-7.497c-0.005,0-0.01,0-0.015,0l-152.217,0.286c-4.148,0.008-7.505,3.377-7.497,7.525
	C304.698,195.76,308.058,199.113,312.2,199.113z"/>
<g>
</g>
<g>
</g>
<g>
</g>
<g>
</g>
<g>
</g>
<g>
</g>
<g>
</g>
<g>
</g>
<g>
</g>
<g>
</g>
<g>
</g>
<g>
</g>
<g>
</g>
<g>
</g>
<g>
</g>
</svg>
