<svg xmlns="http://www.w3.org/2000/svg" viewBox="0 0 48 48"><path fill="#afbcb8" d="M45.5 20.9H27.6c-1.4 0-2.9 1.3-2.9 2.7v11.3c0 1.4 1.5 2.2 2.9 2.2h4.5l-.1 3.2 5-3.2h8.5c1.4 0 2.5-.9 2.5-2.2V23.6c0-1.4-1.1-2.7-2.5-2.7z"/><path fill="#3da500" d="M22.1 34.3l-12.4-8h12.2z"/><path fill="#62c106" d="M31.7 26.7c0 1.9-1.5 3.5-3.5 3.5H3.5c-1.9 0-3.5-1.5-3.5-3.5V11.2c0-1.9 1.5-3.5 3.5-3.5h24.8c1.9 0 3.5 1.5 3.5 3.5v15.5z"/><path fill="#56b502" d="M28.3,7.7c1.9,0,3.5,1.5,3.5,3.5v15.3c0,1.9-1.5,3.6-3.4,3.6H3.5c-1.9,0-3.5-1.6-3.5-3.6"/><path fill="#a1ada9" d="M27.6 20.9c-1.4 0-2.9 1.3-2.9 2.7V31h4.6c1.9 0 3.2-1.4 3.2-3.3V21h-4.9z"/><path fill="#2c9605" d="M24.8 23.6v6.6h3.6c1.9 0 3.4-1.7 3.4-3.6v-5.7h-4.1c-1.5 0-2.9 1.3-2.9 2.7z"/><circle fill="#28a804" cx="9.4" cy="19.2" r="1.1"/><circle fill="#fff" cx="9.4" cy="18.5" r="1.1"/><path fill="#dee8d4" d="M8.7,17.8c0.4-0.4,1.1-0.4,1.5,0c0.4,0.4,0.4,1.1,0,1.5"/><circle fill="#28a804" cx="15.9" cy="19.2" r="1.1"/><circle fill="#fff" cx="15.9" cy="18.5" r="1.1"/><path fill="#dee8d4" d="M15.2,17.8c0.4-0.4,1.1-0.4,1.5,0c0.4,0.4,0.4,1.1,0,1.5"/><circle fill="#28a804" cx="22.5" cy="19.2" r="1.1"/><circle fill="#fff" cx="22.5" cy="18.5" r="1.1"/><path fill="#dee8d4" d="M21.7,17.8c0.4-0.4,1.1-0.4,1.5,0c0.4,0.4,0.4,1.1,0,1.5"/></svg>