<?xml version="1.0" encoding="iso-8859-1"?>
<!-- Generator: Adobe Illustrator 19.0.0, SVG Export Plug-In . SVG Version: 6.00 Build 0)  -->
<svg version="1.1" id="Layer_1" xmlns="http://www.w3.org/2000/svg" xmlns:xlink="http://www.w3.org/1999/xlink" x="0px" y="0px"
	 viewBox="0 0 496 496" style="enable-background:new 0 0 496 496;" xml:space="preserve">
<path style="fill:#AFBCB8;" d="M470.4,215.6H285.6c-14.4,0-29.6,13.6-29.6,28v116.8c0,14.4,15.2,23.2,29.6,23.2H332l-0.8,32.8
	l51.2-32.8h88c14.4,0,25.6-8.8,25.6-23.2V243.6C496,229.2,484.8,215.6,470.4,215.6z"/>
<polygon style="fill:#3DA500;" points="228.8,354.8 100,271.6 226.4,271.6 "/>
<path style="fill:#62C106;" d="M328,275.6c0,20-16,36-36,36H36c-20,0-36-16-36-36v-160c0-20,16-36,36-36h256c20,0,36,16,36,36V275.6
	z"/>
<path style="fill:#56B502;" d="M292,79.6c20,0,36,16,36,36V274c0,20-15.2,37.6-35.2,37.6H36c-20,0-36-16.8-36-36.8"/>
<path style="fill:#A1ADA9;" d="M285.6,215.6c-14.4,0-29.6,13.6-29.6,28v76h47.2c20,0,32.8-14.4,32.8-34.4v-69.6H285.6z"/>
<path style="fill:#2C9605;" d="M256,243.6v68h36.8c20,0,35.2-17.6,35.2-37.6v-58.4h-42.4C271.2,215.6,256,229.2,256,243.6z"/>
<circle style="fill:#28A804;" cx="96.8" cy="198" r="11.2"/>
<circle style="fill:#FFFFFF;" cx="96.8" cy="191.6" r="11.2"/>
<path style="fill:#DEE8D4;" d="M89.6,183.6c4-4,11.2-4,16,0c4,4,4,11.2,0,16"/>
<circle style="fill:#28A804;" cx="164" cy="198" r="11.2"/>
<circle style="fill:#FFFFFF;" cx="164" cy="191.6" r="11.2"/>
<path style="fill:#DEE8D4;" d="M156.8,183.6c4-4,11.2-4,16,0c4,4,4,11.2,0,16"/>
<circle style="fill:#28A804;" cx="232" cy="198" r="11.2"/>
<circle style="fill:#FFFFFF;" cx="232" cy="191.6" r="11.2"/>
<path style="fill:#DEE8D4;" d="M224,183.6c4-4,11.2-4,16,0c4,4,4,11.2,0,16"/>
<g>
</g>
<g>
</g>
<g>
</g>
<g>
</g>
<g>
</g>
<g>
</g>
<g>
</g>
<g>
</g>
<g>
</g>
<g>
</g>
<g>
</g>
<g>
</g>
<g>
</g>
<g>
</g>
<g>
</g>
</svg>
