<?xml version="1.0" encoding="utf-8"?>
<!-- Generator: Adobe Illustrator 22.0.1, SVG Export Plug-In . SVG Version: 6.00 Build 0)  -->
<svg version="1.1" id="forums" xmlns="http://www.w3.org/2000/svg" xmlns:xlink="http://www.w3.org/1999/xlink" x="0px" y="0px"
     viewBox="0 0 48 48" enable-background="new 0 0 48 48" xml:space="preserve">
<path fill="#AFBCB8" d="M45.5,20.9H27.6c-1.4,0-2.9,1.3-2.9,2.7v11.3c0,1.4,1.5,2.2,2.9,2.2h4.5l-0.1,3.2l5-3.2h8.5
    c1.4,0,2.5-0.9,2.5-2.2V23.6C48,22.2,46.9,20.9,45.5,20.9z"/>
<polygon fill="#3DA500" points="22.1,34.3 9.7,26.3 21.9,26.3 "/>
<path fill="#62C106" d="M31.7,26.7c0,1.9-1.5,3.5-3.5,3.5H3.5c-1.9,0-3.5-1.5-3.5-3.5V11.2c0-1.9,1.5-3.5,3.5-3.5h24.8
    c1.9,0,3.5,1.5,3.5,3.5V26.7z"/>
<path fill="#56B502" d="M28.3,7.7c1.9,0,3.5,1.5,3.5,3.5v15.3c0,1.9-1.5,3.6-3.4,3.6H3.5c-1.9,0-3.5-1.6-3.5-3.6"/>
<path fill="#A1ADA9" d="M27.6,20.9c-1.4,0-2.9,1.3-2.9,2.7v7.4h4.6c1.9,0,3.2-1.4,3.2-3.3v-6.7H27.6z"/>
<path fill="#2C9605" d="M24.8,23.6v6.6h3.6c1.9,0,3.4-1.7,3.4-3.6v-5.7h-4.1C26.2,20.9,24.8,22.2,24.8,23.6z"/>
<circle fill="#28A804" cx="9.4" cy="19.2" r="1.1"/>
<circle fill="#FFFFFF" cx="9.4" cy="18.5" r="1.1"/>
<path fill="#DEE8D4" d="M8.7,17.8c0.4-0.4,1.1-0.4,1.5,0c0.4,0.4,0.4,1.1,0,1.5"/>
<circle fill="#28A804" cx="15.9" cy="19.2" r="1.1"/>
<circle fill="#FFFFFF" cx="15.9" cy="18.5" r="1.1"/>
<path fill="#DEE8D4" d="M15.2,17.8c0.4-0.4,1.1-0.4,1.5,0c0.4,0.4,0.4,1.1,0,1.5"/>
<circle fill="#28A804" cx="22.5" cy="19.2" r="1.1"/>
<circle fill="#FFFFFF" cx="22.5" cy="18.5" r="1.1"/>
<path fill="#DEE8D4" d="M21.7,17.8c0.4-0.4,1.1-0.4,1.5,0c0.4,0.4,0.4,1.1,0,1.5"/>
</svg>
