<?xml version="1.0" encoding="utf-8"?>
<!-- Generator: Adobe Illustrator 19.2.1, SVG Export Plug-In . SVG Version: 6.00 Build 0)  -->
<svg version="1.1" id="Vrstva_1" xmlns="http://www.w3.org/2000/svg" xmlns:xlink="http://www.w3.org/1999/xlink" x="0px" y="0px"
	 viewBox="0 0 256.5 256.5" style="enable-background:new 0 0 256.5 256.5;" xml:space="preserve">
<style type="text/css">
	.st0{fill:#A54824;stroke:#FFFFFF;stroke-width:0.5166;stroke-miterlimit:10;}
	.st1{fill:#FFFFFF;}
</style>
<path class="st0" d="M223.7,256.3H32.9c-17.9,0-32.6-14.7-32.6-32.6V32.9c0-17.9,14.7-32.6,32.6-32.6h190.8
	c17.9,0,32.6,14.7,32.6,32.6v190.8C256.3,241.6,241.6,256.3,223.7,256.3z"/>
<path class="st1" d="M178.8,161.6c-0.1,1.6,0.7,3.1,2.1,3.8c1.3,0.6,2.6,1.3,3.8,2c15.6,8.4,23.7,22.1,24.5,41
	c0.2,5.1-0.6,9.7-6.2,10.1c-5.9,0.4-7.1-4.2-7.4-9.7c-0.8-14.8-7.9-25-20.4-29.4c-1.7-0.6-3.6,0-4.6,1.6
	c-7.3,11.3-16.1,20.7-28.5,26c-2.6,1.1-5.5-0.8-5.5-3.6c0-17.3,0.1-33.6-0.1-50c-0.1-5.6,0-14.2-6.1-14.3c-6.8-0.2-6.6,8.5-6.7,14.3
	c-0.3,15.8-0.1,31.5-0.1,47.2v2.7c0,2.8-2.9,4.7-5.5,3.6c-12.6-5.5-21.3-14.8-28.5-26c-1-1.5-2.9-2.2-4.7-1.6
	c-12.7,4.5-19.4,14.4-20.4,30.2c-0.3,5.2-1.9,9.3-7.4,8.9c-5.2-0.3-6.3-4.5-6.2-9.3c0.7-19.1,8.7-33.1,24.5-41.7
	c1.3-0.7,2.7-1.4,3.9-2.1c1.4-0.7,2.2-2.2,2.1-3.8c-0.5-6.5-4.4-7.9-10.3-7.3c-10,1-12.6,1.2-17.4-0.1c-1.8-0.5-4.6-1.5-7.6-3.9
	c-0.2-0.2-0.4-0.3-0.6-0.6c-0.4-0.5-0.9-1.2-1-2.3c-0.1-0.7,0-1.4,0.2-2c0.4-1.1,1.2-1.9,2.3-2.3c4-1.5,7.5-2.3,10-2.7
	c2.9-0.5,5.4-0.5,10-0.7c2.8-0.1,5.3-0.1,7.4-0.1c2,0,3.8-1.5,3.9-3.6c0.2-2.2,0-4.9-0.9-7.5c-0.8-2.3-2.2-4.4-4.4-6.5
	c-12.5-12.6-15.9-29.3-15.3-47c0.1-2.4,3.9-6.4,6-6.4c2.3,0,5.2,3.4,6.7,6c1.1,2,0.3,5.2,0.6,7.8c1.4,12.8,4,25.6,15.4,32.2
	c25.9,14.9,52.7,15.7,80,4.3c10.1-4.2,16.8-11.9,19.6-23.1c1.7-6.7,2-13.8,3-20.7c0.6-4.3,2.7-8,6.9-6.8c2.5,0.7,6,4.3,6.1,6.7
	c0.6,17.7-2.8,34.5-15.3,46.9c-4.3,4.3-5.7,8.5-5.2,13.9c0.2,2.1,2,3.6,4.1,3.5c3.5-0.1,6.5-0.1,8.9,0c3.3,0.2,6.3,0.3,10,1.1
	c3.3,0.7,6.1,1.6,8.1,2.4c0.5,0.2,1,0.5,1.4,0.9c0.7,0.8,1.1,1.8,0.9,2.9c-0.2,1.1-0.8,1.8-1.1,2c-2.9,3.3-5.8,4.6-7.8,5.2
	c-4.2,1.3-7,1.4-18,0C182,153.3,179.2,155.9,178.8,161.6z"/>
<path class="st1" d="M131,117.9c-8.5-1.2-15.8-1.8-23-3.5c-9.4-2.3-14.9-8.9-16.2-19.6c-1.2-10.4,1.6-18.9,9.8-24.3
	c5.5-3.6,10.2-6.9,13.3-13.9c3-6.9,9.8-9.6,17.1-8.7c7.3,0.8,12,5.3,15.5,12.2c1.4,2.8,3.8,5.7,6.4,7.2c12,6.7,16.6,16.3,14,30.2
	c-1.5,8.2-5.8,13.9-13.1,15.8C146.7,115.6,138.3,116.6,131,117.9z"/>
<path d="M59,165.3"/>
</svg>
