<?xml version="1.0" encoding="utf-8"?>
<!-- Generator: Adobe Illustrator 19.2.1, SVG Export Plug-In . SVG Version: 6.00 Build 0)  -->
<svg version="1.1" id="Vrstva_1" xmlns="http://www.w3.org/2000/svg" xmlns:xlink="http://www.w3.org/1999/xlink" x="0px" y="0px"
	 viewBox="0 0 256.5 256.5" style="enable-background:new 0 0 256.5 256.5;" xml:space="preserve">
<style type="text/css">
	.st0{fill:#0071F9;stroke:#FFFFFF;stroke-width:0.5166;stroke-miterlimit:10;}
	.st1{fill:#FFFFFF;}
</style>
<path class="st0" d="M223.6,256.3H32.9c-17.9,0-32.6-14.7-32.6-32.6V32.9c0-17.9,14.7-32.6,32.6-32.6h190.8
	c17.9,0,32.6,14.7,32.6,32.6v190.8C256.3,241.6,241.6,256.3,223.6,256.3z"/>
<path class="st1" d="M180.5,110.4c-4.8-24.5-26.4-42.9-52.3-42.9c-20.5,0-38.3,11.7-47.3,28.7c-21.4,2.3-38.1,20.4-38.1,42.4
	c0,23.6,19.1,42.7,42.7,42.7H178c19.6,0,35.6-15.9,35.6-35.6C213.6,126.9,199,111.7,180.5,110.4z M163.8,131.5l-35.6,35.6
	l-35.6-35.6H114v-28.4h28.4v28.4H163.8z"/>
</svg>
