<?xml version="1.0" encoding="utf-8"?>
<!-- Generator: Adobe Illustrator 22.0.0, SVG Export Plug-In . SVG Version: 6.00 Build 0)  -->
<svg version="1.1" id="downloads" xmlns="http://www.w3.org/2000/svg" xmlns:xlink="http://www.w3.org/1999/xlink" x="0px" y="0px"
	 viewBox="0 0 256 256" enable-background="new 0 0 256 256" xml:space="preserve">
<path fill="#0071F9" d="M223.3,256H32.6C14.7,256,0,241.3,0,223.4V32.6C0,14.7,14.7,0,32.6,0h190.8C241.3,0,256,14.7,256,32.6v190.8
	C256,241.3,241.3,256,223.3,256z"/>
<path fill="#FFFFFF" d="M180.2,110.1c-4.8-24.5-26.4-42.9-52.3-42.9c-20.5,0-38.3,11.7-47.3,28.7c-21.4,2.3-38.1,20.4-38.1,42.4
	c0,23.6,19.1,42.7,42.7,42.7h92.5c19.6,0,35.6-15.9,35.6-35.6C213.3,126.6,198.7,111.4,180.2,110.1z M163.5,131.2l-35.6,35.6
	l-35.6-35.6h21.4v-28.4h28.4v28.4H163.5z"/>
</svg>
