<?xml version="1.0" encoding="utf-8"?>
<!-- Generator: Adobe Illustrator 22.0.0, SVG Export Plug-In . SVG Version: 6.00 Build 0)  -->
<svg version="1.1" id="downloads" xmlns="http://www.w3.org/2000/svg" xmlns:xlink="http://www.w3.org/1999/xlink" x="0px" y="0px"
	 viewBox="0 0 256 256" enable-background="new 0 0 256 256" xml:space="preserve">
<path fill="#0071F9" d="M223.3,256H32.6C14.7,256,0,241.3,0,223.4V32.6C0,14.7,14.7,0,32.6,0h190.8C241.3,0,256,14.7,256,32.6v190.8
	C256,241.3,241.3,256,223.3,256z"/>
<path fill="#FFFFFF" d="M180,114.2c-4.8-24.4-26.3-42.7-52.1-42.7c-20.4,0-38.1,11.6-47.1,28.6c-21.3,2.3-37.9,20.3-37.9,42.2
	c0,23.5,19,42.5,42.5,42.5h92.1c19.5,0,35.4-15.8,35.4-35.4C212.9,130.6,198.4,115.5,180,114.2z M163.3,135.2l-35.4,35.4l-35.4-35.4
	h21.3v-28.3H142v28.3L163.3,135.2L163.3,135.2z"/>
</svg>
