<?xml version="1.0" encoding="utf-8"?>
<!-- Generator: Adobe Illustrator 22.0.0, SVG Export Plug-In . SVG Version: 6.00 Build 0)  -->
<svg version="1.1" id="games" xmlns="http://www.w3.org/2000/svg" xmlns:xlink="http://www.w3.org/1999/xlink" x="0px" y="0px"
	 viewBox="0 0 256 256" enable-background="new 0 0 256 256" xml:space="preserve">
<path fill="#968E8C" d="M223.3,256H32.6C14.7,256,0,241.3,0,223.4V32.6C0,14.7,14.7,0,32.6,0h190.8C241.3,0,256,14.7,256,32.6v190.8
	C256,241.3,241.3,256,223.3,256z"/>
<path fill="#FFFFFF" d="M210,119.9c-8.4-38.1-20.1-47.6-27.3-51.4c-11.4-6.1-24.8-2.6-29.2-0.2c-5,2.6-8.4,7.5-13.4,9.7
	c-5.9,2.4-13.8,3.1-19.9,0.2c-4.8-2.4-9-7.5-14.8-9.7c-7.4-2.8-19.6-6.8-31.8,1.9c-2.9,2-23.3,19.2-29.5,72.8
	c-3.8,33.1,14.3,43.7,13.6,43.2c4.7,3.4,15.1,9,29.3,0.1c9.5-5.9,17.1-17.5,17.1-17.5s3.4-6.5,8-9.3c3.2-2,8.1-0.5,8.1-0.5h17
	c0,0,5.4-0.7,9.2,1c3.7,1.6,5.8,5.6,5.8,5.6s11.2,14.5,22,21.9c4.6,3.1,22.9,6.8,32.5-4.9C212.8,175.2,217,151.8,210,119.9z
	 M119.2,116.6c0,2.9-2.3,5.3-5.2,5.3h-12.8V135c0,2.9-2.3,5.3-5.2,5.3h-3.9c-2.8,0-5.2-2.3-5.2-5.3v-13.1H74c-2.8,0-5.2-2.3-5.2-5.3
	v-4c0-2.9,2.3-5.3,5.2-5.3h12.8V94.2c0-2.9,2.3-5.3,5.2-5.3h3.9c2.8,0,5.2,2.4,5.2,5.3v13.1H114c2.8,0,5.2,2.3,5.2,5.3V116.6
	L119.2,116.6z M155.5,135c-5.3,0-9.7-4.4-9.7-9.9c0-5.5,4.3-9.9,9.7-9.9s9.7,4.4,9.7,9.9C165.1,130.6,160.9,135,155.5,135z
	 M173.2,113.1c-5.3,0-9.6-4.4-9.6-9.8s4.3-9.8,9.6-9.8s9.6,4.4,9.6,9.8S178.5,113.1,173.2,113.1z"/>
</svg>
