<?xml version="1.0" encoding="utf-8"?>
<!-- Generator: Adobe Illustrator 22.0.0, SVG Export Plug-In . SVG Version: 6.00 Build 0)  -->
<svg version="1.1" id="games" xmlns="http://www.w3.org/2000/svg" xmlns:xlink="http://www.w3.org/1999/xlink" x="0px" y="0px"
	 viewBox="0 0 256 256" enable-background="new 0 0 256 256" xml:space="preserve">
<path fill="#968E8C" d="M223.3,256H32.6C14.7,256,0,241.3,0,223.4V32.6C0,14.7,14.7,0,32.6,0h190.8C241.3,0,256,14.7,256,32.6v190.8
	C256,241.3,241.3,256,223.3,256z"/>
<path fill="#FFFFFF" d="M209.4,118.9C201,80.6,189.2,71.1,182,67.3c-11.5-6.1-24.9-2.6-29.3-0.2c-5,2.6-8.4,7.5-13.5,9.7
	c-5.9,2.4-13.9,3.1-20,0.2c-4.8-2.4-9-7.5-14.9-9.7c-7.4-2.8-19.7-6.8-31.9,1.9c-2.9,2-23.4,19.3-29.6,73.1
	c-3.8,33.2,14.4,43.9,13.7,43.4c4.7,3.4,15.2,9,29.4,0.1c9.5-5.9,17.2-17.6,17.2-17.6s3.4-6.5,8-9.3c3.2-2,8.1-0.5,8.1-0.5h17.1
	c0,0,5.4-0.7,9.2,1c3.7,1.6,5.8,5.6,5.8,5.6s11.3,14.6,22.1,22c4.6,3.1,23,6.8,32.6-4.9C212.2,174.4,216.4,150.9,209.4,118.9z
	 M118.2,115.5c0,2.9-2.3,5.3-5.2,5.3h-12.9V134c0,2.9-2.3,5.3-5.2,5.3H91c-2.8,0-5.2-2.3-5.2-5.3v-13.2h-13c-2.8,0-5.2-2.3-5.2-5.3
	v-4c0-2.9,2.3-5.3,5.2-5.3h12.9V93c0-2.9,2.3-5.3,5.2-5.3h3.9c2.8,0,5.2,2.4,5.2,5.3v13.2h12.9c2.8,0,5.2,2.3,5.2,5.3L118.2,115.5
	L118.2,115.5z M154.6,134c-5.3,0-9.7-4.4-9.7-9.9s4.3-9.9,9.7-9.9s9.7,4.4,9.7,9.9C164.3,129.6,160,134,154.6,134z M172.4,112
	c-5.3,0-9.6-4.4-9.6-9.8s4.3-9.8,9.6-9.8s9.6,4.4,9.6,9.8S177.7,112,172.4,112z"/>
</svg>
