<?xml version="1.0" encoding="utf-8"?>
<!-- Generator: Adobe Illustrator 19.2.1, SVG Export Plug-In . SVG Version: 6.00 Build 0)  -->
<svg version="1.1" id="Vrstva_1" xmlns="http://www.w3.org/2000/svg" xmlns:xlink="http://www.w3.org/1999/xlink" x="0px" y="0px"
	 viewBox="0 0 256.5 256.5" style="enable-background:new 0 0 256.5 256.5;" xml:space="preserve">
<style type="text/css">
	.st0{fill:#08B514;stroke:#FFFFFF;stroke-width:0.5166;stroke-miterlimit:10;}
	.st1{fill:#FFFFFF;}
</style>
<path class="st0" d="M223.6,256.3H32.9c-17.9,0-32.6-14.7-32.6-32.6V32.9c0-17.9,14.7-32.6,32.6-32.6h190.8
	c17.9,0,32.6,14.7,32.6,32.6v190.8C256.3,241.6,241.6,256.3,223.6,256.3z"/>
<g>
	<g>
		<path class="st1" d="M144.7,124.1l9.2,8.5l-4.3,5.7l-5.5-5.9l-7.3-7.8l9.5-9.5l10,9.7l0,0l2,1.9l-1.8,2.4l-8.9-8.2
			c-0.9-0.8-2.2-0.8-3,0.1C143.8,121.9,143.8,123.2,144.7,124.1z"/>
		<path class="st1" d="M143.4,106.4c-0.5,4.1-2.5,8.2-5.8,11.5c-3.8,3.8-8.6,5.9-13.2,5.9l0,0c-3.3,0-6.1-1.1-8.1-3.1
			c-1.8-1.8-2.9-4.3-3.1-7.1c0-0.3-0.1-0.6-0.2-0.9c-6.5-12.4-14.5-16.6-19.4-18c7.1-6.1,14.6-9.2,22.2-9.2
			c14.2,0,24.6,10.8,24.7,11C142.8,99,143.8,102.5,143.4,106.4z"/>
		<path class="st1" d="M42.1,65.5c0-0.9,0.8-1.7,1.7-1.7H154c0.9,0,1.7,0.8,1.7,1.7v52.7l-7.9-7.6c-0.2-0.2-0.5-0.4-0.8-0.5
			c0.3-1.1,0.5-2.2,0.6-3.2c0.6-5.3-0.9-10-4.2-13.3c-0.5-0.5-11.7-12.3-27.8-12.3c-10,0-19.6,4.5-28.5,13.4
			c-0.6,0.6-0.7,1.6-0.4,2.4c0.4,0.8,1.3,1.3,2.2,1.2c1.9,0,11.7,0.8,19.9,16c0.4,3.7,1.8,7,4.3,9.4c2.8,2.8,6.8,4.4,11.2,4.4
			c0,0,0,0,0,0c2.8,0,5.5-0.6,8.2-1.7l4,4.2H42.1V65.5z"/>
		<path class="st1" d="M114.9,171.1l-31.9,0.1c0,0-0.1-0.2-0.1-0.5v-3.2H115v3.2C115,170.9,114.9,171,114.9,171.1z"/>
		<path class="st1" d="M115,153.1v10H82.8v-10c0-0.2,0.1-0.4,0-0.4h32.1C114.9,152.8,115,152.9,115,153.1z"/>
		<path class="st1" d="M115,148.4H82.7h-39c-0.9,0-1.7-0.8-1.7-1.7v-11.8h98.5l12.6,13.5L115,148.4L115,148.4L115,148.4z"/>
		<path class="st1" d="M209.9,189.3c-1.8,1.8-4.2,2.8-6.6,2.8c-2.2,0-4.2-0.8-5.6-2.2l-39.3-42.1c0,0,0,0,0,0l-5.9-6.3l4.5-6
			l30.2,28c0.4,0.4,0.9,0.6,1.5,0.6c0.6,0,1.2-0.2,1.6-0.7c0.8-0.9,0.8-2.2-0.1-3l-30.5-28.3l1.8-2.3l49,47.3
			C213.7,180.3,213.5,185.8,209.9,189.3z"/>
	</g>
</g>
</svg>
