<?xml version="1.0" encoding="utf-8"?>
<!-- Generator: Adobe Illustrator 22.0.0, SVG Export Plug-In . SVG Version: 6.00 Build 0)  -->
<svg version="1.1" id="hardware" xmlns="http://www.w3.org/2000/svg" xmlns:xlink="http://www.w3.org/1999/xlink" x="0px" y="0px"
	 viewBox="0 0 256 256" enable-background="new 0 0 256 256" xml:space="preserve">
<path fill="#465177" d="M223.3,256H32.6C14.7,256,0,241.3,0,223.4V32.6C0,14.7,14.7,0,32.6,0h190.8C241.3,0,256,14.7,256,32.6v190.8
	C256,241.3,241.3,256,223.3,256z"/>
<g>
	<path fill="#FFFFFF" d="M163.6,62.7c1.4,0,2.5-1.1,2.5-2.5V44.9c0-1.4-1.1-2.5-2.5-2.5s-2.5,1.1-2.5,2.5v15.2
		C161.1,61.5,162.2,62.7,163.6,62.7z"/>
	<path fill="#FFFFFF" d="M149.8,62.7c1.4,0,2.6-1.1,2.6-2.5V44.9c0-1.4-1.1-2.5-2.6-2.5c-1.4,0-2.5,1.1-2.5,2.5v15.2
		C147.2,61.5,148.4,62.7,149.8,62.7z"/>
	<path fill="#FFFFFF" d="M135.6,62.7c1.4,0,2.5-1.1,2.5-2.5V44.9c0-1.4-1.1-2.5-2.5-2.5s-2.5,1.1-2.5,2.5v15.2
		C133.1,61.5,134.2,62.7,135.6,62.7z"/>
	<path fill="#FFFFFF" d="M121.8,62.7c1.4,0,2.5-1.1,2.5-2.5V44.9c0-1.4-1.1-2.5-2.5-2.5s-2.5,1.1-2.5,2.5v15.2
		C119.2,61.5,120.4,62.7,121.8,62.7z"/>
	<path fill="#FFFFFF" d="M109,62.7c1.4,0,2.5-1.1,2.5-2.5V44.9c0-1.4-1.1-2.5-2.5-2.5s-2.5,1.1-2.5,2.5v15.2
		C106.4,61.5,107.6,62.7,109,62.7z"/>
	<path fill="#FFFFFF" d="M95.1,62.7c1.4,0,2.5-1.1,2.5-2.5V44.9c0-1.4-1.1-2.5-2.5-2.5s-2.5,1.1-2.5,2.5v15.2
		C92.6,61.5,93.7,62.7,95.1,62.7z"/>
	<path fill="#FFFFFF" d="M60.1,88.9H44.9c-1.4,0-2.5,1.1-2.5,2.5s1.1,2.5,2.5,2.5h15.2c1.4,0,2.5-1.1,2.5-2.5S61.5,88.9,60.1,88.9z"
		/>
	<path fill="#FFFFFF" d="M60.1,102.8H44.9c-1.4,0-2.5,1.1-2.5,2.5s1.1,2.5,2.5,2.5h15.2c1.4,0,2.5-1.1,2.5-2.5
		C62.7,103.9,61.5,102.8,60.1,102.8z"/>
	<path fill="#FFFFFF" d="M60.1,116.9H44.9c-1.4,0-2.5,1.1-2.5,2.5s1.1,2.5,2.5,2.5h15.2c1.4,0,2.5-1.1,2.5-2.5
		C62.7,118.1,61.5,116.9,60.1,116.9z"/>
	<path fill="#FFFFFF" d="M60.1,130.8H44.9c-1.4,0-2.5,1.1-2.5,2.5s1.1,2.5,2.5,2.5h15.2c1.4,0,2.5-1.1,2.5-2.5
		C62.7,131.9,61.5,130.8,60.1,130.8z"/>
	<path fill="#FFFFFF" d="M60.1,143.6H44.9c-1.4,0-2.5,1.1-2.5,2.5s1.1,2.6,2.5,2.6h15.2c1.4,0,2.5-1.1,2.5-2.6
		C62.7,144.7,61.5,143.6,60.1,143.6z"/>
	<path fill="#FFFFFF" d="M60.1,157.4H44.9c-1.4,0-2.5,1.1-2.5,2.5s1.1,2.5,2.5,2.5h15.2c1.4,0,2.5-1.1,2.5-2.5
		C62.7,158.6,61.5,157.4,60.1,157.4z"/>
	<path fill="#FFFFFF" d="M163.6,192.7c-1.4,0-2.5,1.1-2.5,2.5v15.2c0,1.4,1.1,2.5,2.5,2.5s2.5-1.1,2.5-2.5v-15.2
		C166.2,193.8,165,192.7,163.6,192.7z"/>
	<path fill="#FFFFFF" d="M149.8,192.7c-1.4,0-2.5,1.1-2.5,2.5v15.2c0,1.4,1.1,2.5,2.5,2.5s2.6-1.1,2.6-2.5v-15.2
		C152.3,193.8,151.2,192.7,149.8,192.7z"/>
	<path fill="#FFFFFF" d="M135.6,192.7c-1.4,0-2.5,1.1-2.5,2.5v15.2c0,1.4,1.1,2.5,2.5,2.5s2.5-1.1,2.5-2.5v-15.2
		C138.2,193.8,137,192.7,135.6,192.7z"/>
	<path fill="#FFFFFF" d="M121.8,192.7c-1.4,0-2.5,1.1-2.5,2.5v15.2c0,1.4,1.1,2.5,2.5,2.5s2.5-1.1,2.5-2.5v-15.2
		C124.3,193.8,123.2,192.7,121.8,192.7z"/>
	<path fill="#FFFFFF" d="M109,192.7c-1.4,0-2.5,1.1-2.5,2.5v15.2c0,1.4,1.1,2.5,2.5,2.5s2.5-1.1,2.5-2.5v-15.2
		C111.5,193.8,110.4,192.7,109,192.7z"/>
	<path fill="#FFFFFF" d="M95.1,192.7c-1.4,0-2.5,1.1-2.5,2.5v15.2c0,1.4,1.1,2.5,2.5,2.5s2.5-1.1,2.5-2.5v-15.2
		C97.6,193.8,96.5,192.7,95.1,192.7z"/>
	<path fill="#FFFFFF" d="M170.7,69.3H88c-8.7,0-15.7,7.1-15.7,15.7v82.7c0,8.7,7.1,15.8,15.7,15.8h82.7c8.7,0,15.7-7.1,15.7-15.8
		V85.1C186.4,76.4,179.4,69.3,170.7,69.3z M96,94.4c-2.8,0-5-2.2-5-5s2.2-5,5-5s5,2.3,5,5C101,92.2,98.8,94.4,96,94.4z M156,151.4
		h-52.6V98.2H156V151.4z"/>
	<path fill="#FFFFFF" d="M195.2,94h15.2c1.4,0,2.5-1.1,2.5-2.5s-1.1-2.5-2.5-2.5h-15.2c-1.4,0-2.5,1.1-2.5,2.5S193.8,94,195.2,94z"
		/>
	<path fill="#FFFFFF" d="M210.5,102.8h-15.2c-1.4,0-2.5,1.1-2.5,2.5s1.1,2.5,2.5,2.5h15.2c1.4,0,2.5-1.1,2.5-2.5
		S211.9,102.8,210.5,102.8z"/>
	<path fill="#FFFFFF" d="M210.5,116.9h-15.2c-1.4,0-2.5,1.1-2.5,2.5s1.1,2.5,2.5,2.5h15.2c1.4,0,2.5-1.1,2.5-2.5
		C213,118.1,211.9,116.9,210.5,116.9z"/>
	<path fill="#FFFFFF" d="M210.5,130.8h-15.2c-1.4,0-2.5,1.1-2.5,2.5s1.1,2.5,2.5,2.5h15.2c1.4,0,2.5-1.1,2.5-2.5
		C213,131.9,211.9,130.8,210.5,130.8z"/>
	<path fill="#FFFFFF" d="M210.5,143.6h-15.2c-1.4,0-2.5,1.1-2.5,2.5s1.1,2.6,2.5,2.6h15.2c1.4,0,2.5-1.1,2.5-2.6
		C213,144.7,211.9,143.6,210.5,143.6z"/>
	<path fill="#FFFFFF" d="M210.5,157.4h-15.2c-1.4,0-2.5,1.1-2.5,2.5s1.1,2.5,2.5,2.5h15.2c1.4,0,2.5-1.1,2.5-2.5
		C213,158.6,211.9,157.4,210.5,157.4z"/>
</g>
</svg>
