<?xml version="1.0" encoding="utf-8"?>
<!-- Generator: Adobe Illustrator 19.2.1, SVG Export Plug-In . SVG Version: 6.00 Build 0)  -->
<svg version="1.1" id="Vrstva_1" xmlns="http://www.w3.org/2000/svg" xmlns:xlink="http://www.w3.org/1999/xlink" x="0px" y="0px"
	 viewBox="0 0 256.5 256.5" style="enable-background:new 0 0 256.5 256.5;" xml:space="preserve">
<style type="text/css">
	.st0{fill:#465177;stroke:#FFFFFF;stroke-width:0.5166;stroke-miterlimit:10;}
	.st1{fill:#FFFFFF;}
</style>
<path class="st0" d="M223.6,256.3H32.9c-17.9,0-32.6-14.7-32.6-32.6V32.9c0-17.9,14.7-32.6,32.6-32.6h190.8
	c17.9,0,32.6,14.7,32.6,32.6v190.8C256.3,241.6,241.6,256.3,223.6,256.3z"/>
<g>
	<g>
		<path class="st1" d="M163.9,63c1.4,0,2.5-1.1,2.5-2.5V45.2c0-1.4-1.1-2.5-2.5-2.5c-1.4,0-2.5,1.1-2.5,2.5v15.2
			C161.4,61.8,162.5,63,163.9,63z"/>
		<path class="st1" d="M150.1,63c1.4,0,2.6-1.1,2.6-2.5V45.2c0-1.4-1.1-2.5-2.6-2.5c-1.4,0-2.5,1.1-2.5,2.5v15.2
			C147.5,61.8,148.7,63,150.1,63z"/>
		<path class="st1" d="M135.9,63c1.4,0,2.5-1.1,2.5-2.5V45.2c0-1.4-1.1-2.5-2.5-2.5c-1.4,0-2.5,1.1-2.5,2.5v15.2
			C133.4,61.8,134.5,63,135.9,63z"/>
		<path class="st1" d="M122.1,63c1.4,0,2.5-1.1,2.5-2.5V45.2c0-1.4-1.1-2.5-2.5-2.5c-1.4,0-2.5,1.1-2.5,2.5v15.2
			C119.5,61.8,120.7,63,122.1,63z"/>
		<path class="st1" d="M109.3,63c1.4,0,2.5-1.1,2.5-2.5V45.2c0-1.4-1.1-2.5-2.5-2.5c-1.4,0-2.5,1.1-2.5,2.5v15.2
			C106.7,61.8,107.9,63,109.3,63z"/>
		<path class="st1" d="M95.4,63c1.4,0,2.5-1.1,2.5-2.5V45.2c0-1.4-1.1-2.5-2.5-2.5c-1.4,0-2.5,1.1-2.5,2.5v15.2
			C92.9,61.8,94,63,95.4,63z"/>
		<path class="st1" d="M60.4,89.2H45.2c-1.4,0-2.5,1.1-2.5,2.5s1.1,2.5,2.5,2.5h15.2c1.4,0,2.5-1.1,2.5-2.5S61.8,89.2,60.4,89.2z"/>
		<path class="st1" d="M60.4,103.1H45.2c-1.4,0-2.5,1.1-2.5,2.5c0,1.4,1.1,2.5,2.5,2.5h15.2c1.4,0,2.5-1.1,2.5-2.5
			C63,104.2,61.8,103.1,60.4,103.1z"/>
		<path class="st1" d="M60.4,117.2H45.2c-1.4,0-2.5,1.1-2.5,2.5c0,1.4,1.1,2.5,2.5,2.5h15.2c1.4,0,2.5-1.1,2.5-2.5
			C63,118.4,61.8,117.2,60.4,117.2z"/>
		<path class="st1" d="M60.4,131.1H45.2c-1.4,0-2.5,1.1-2.5,2.5c0,1.4,1.1,2.5,2.5,2.5h15.2c1.4,0,2.5-1.1,2.5-2.5
			C63,132.2,61.8,131.1,60.4,131.1z"/>
		<path class="st1" d="M60.4,143.9H45.2c-1.4,0-2.5,1.1-2.5,2.5c0,1.4,1.1,2.6,2.5,2.6h15.2c1.4,0,2.5-1.1,2.5-2.6
			C63,145,61.8,143.9,60.4,143.9z"/>
		<path class="st1" d="M60.4,157.7H45.2c-1.4,0-2.5,1.1-2.5,2.5c0,1.4,1.1,2.5,2.5,2.5h15.2c1.4,0,2.5-1.1,2.5-2.5
			C63,158.9,61.8,157.7,60.4,157.7z"/>
		<path class="st1" d="M163.9,193c-1.4,0-2.5,1.1-2.5,2.5v15.2c0,1.4,1.1,2.5,2.5,2.5c1.4,0,2.5-1.1,2.5-2.5v-15.2
			C166.5,194.1,165.3,193,163.9,193z"/>
		<path class="st1" d="M150.1,193c-1.4,0-2.5,1.1-2.5,2.5v15.2c0,1.4,1.1,2.5,2.5,2.5c1.4,0,2.6-1.1,2.6-2.5v-15.2
			C152.6,194.1,151.5,193,150.1,193z"/>
		<path class="st1" d="M135.9,193c-1.4,0-2.5,1.1-2.5,2.5v15.2c0,1.4,1.1,2.5,2.5,2.5c1.4,0,2.5-1.1,2.5-2.5v-15.2
			C138.5,194.1,137.3,193,135.9,193z"/>
		<path class="st1" d="M122.1,193c-1.4,0-2.5,1.1-2.5,2.5v15.2c0,1.4,1.1,2.5,2.5,2.5c1.4,0,2.5-1.1,2.5-2.5v-15.2
			C124.6,194.1,123.5,193,122.1,193z"/>
		<path class="st1" d="M109.3,193c-1.4,0-2.5,1.1-2.5,2.5v15.2c0,1.4,1.1,2.5,2.5,2.5c1.4,0,2.5-1.1,2.5-2.5v-15.2
			C111.8,194.1,110.7,193,109.3,193z"/>
		<path class="st1" d="M95.4,193c-1.4,0-2.5,1.1-2.5,2.5v15.2c0,1.4,1.1,2.5,2.5,2.5c1.4,0,2.5-1.1,2.5-2.5v-15.2
			C97.9,194.1,96.8,193,95.4,193z"/>
		<path class="st1" d="M171,69.6H88.3c-8.7,0-15.7,7.1-15.7,15.7V168c0,8.7,7.1,15.8,15.7,15.8H171c8.7,0,15.7-7.1,15.7-15.8V85.4
			C186.7,76.7,179.7,69.6,171,69.6z M96.3,94.7c-2.8,0-5-2.2-5-5c0-2.8,2.2-5,5-5c2.8,0,5,2.3,5,5C101.3,92.5,99.1,94.7,96.3,94.7z
			 M156.3,151.7h-52.6V98.5h52.6V151.7z"/>
		<path class="st1" d="M195.5,94.3h15.2c1.4,0,2.5-1.1,2.5-2.5s-1.1-2.5-2.5-2.5h-15.2c-1.4,0-2.5,1.1-2.5,2.5
			S194.1,94.3,195.5,94.3z"/>
		<path class="st1" d="M210.8,103.1h-15.2c-1.4,0-2.5,1.1-2.5,2.5c0,1.4,1.1,2.5,2.5,2.5h15.2c1.4,0,2.5-1.1,2.5-2.5
			C213.3,104.2,212.2,103.1,210.8,103.1z"/>
		<path class="st1" d="M210.8,117.2h-15.2c-1.4,0-2.5,1.1-2.5,2.5c0,1.4,1.1,2.5,2.5,2.5h15.2c1.4,0,2.5-1.1,2.5-2.5
			C213.3,118.4,212.2,117.2,210.8,117.2z"/>
		<path class="st1" d="M210.8,131.1h-15.2c-1.4,0-2.5,1.1-2.5,2.5c0,1.4,1.1,2.5,2.5,2.5h15.2c1.4,0,2.5-1.1,2.5-2.5
			C213.3,132.2,212.2,131.1,210.8,131.1z"/>
		<path class="st1" d="M210.8,143.9h-15.2c-1.4,0-2.5,1.1-2.5,2.5c0,1.4,1.1,2.6,2.5,2.6h15.2c1.4,0,2.5-1.1,2.5-2.6
			C213.3,145,212.2,143.9,210.8,143.9z"/>
		<path class="st1" d="M210.8,157.7h-15.2c-1.4,0-2.5,1.1-2.5,2.5c0,1.4,1.1,2.5,2.5,2.5h15.2c1.4,0,2.5-1.1,2.5-2.5
			C213.3,158.9,212.2,157.7,210.8,157.7z"/>
	</g>
</g>
</svg>
