<svg xmlns="http://www.w3.org/2000/svg" viewBox="0 0 256 256"><path fill="#d89113" d="M223.3 256H32.6C14.7 256 0 241.3 0 223.4V32.6C0 14.7 14.7 0 32.6 0h190.8C241.3 0 256 14.7 256 32.6v190.8c0 17.9-14.7 32.6-32.7 32.6z"/><path d="M155.6 206.2l36.1-45.7c.5.2.9.4 1.4.5l-.2 40.3c0 1.7-3 4.6-4.7 4.6-10.4.5-20.7.3-32.6.3zM63.3 101.4V77.1H50.2c-4.1 0-7.5-.8-7.6-5.8-.1-5.1 3.1-6.1 7.3-6 4.1.1 8.3 0 13.6 0V54.1c0-5.5 2.1-8.6 8.2-8.5h114c5.4 0 7.5 2.4 7.4 7.6l-.2 59.4c-.1 3.1-2 6.6-3.9 9.1l-55 70c-1.8 2.3-4.1 5-4.3 7.7-.5 6.5-4.2 7.1-9.4 7-15.4-.2-30.9 0-46.3-.1-9.2 0-10.4-1.3-10.5-10.4v-10h-14c-3.9-.1-6.8-1.2-6.9-5.9 0-4.7 2.7-5.7 6.7-5.9 14.2-.7 14.2-.8 14.2-14.8v-9.8H49c-3.6 0-6.4-1-6.4-5.4 0-4.7 2.7-5.7 6.7-5.9 14.2-.7 14.2-.8 14.2-15.5 0-9.6 0-9.6-9.8-9.6-1.6 0-3.6.6-4.8-.2-2.4-1.4-5.5-3.2-6.1-5.5-1.1-4.2 2.1-6.2 6.2-6.3 4.7.3 9.2.3 14.3.3zm13.2 51.1c5.2-.3 8.2-3.1 8.8-8 .5-4.4-4.1-9.2-8.6-8.8-4.9.4-8.2 3.2-8.3 8.3 0 5.1 3.2 7.8 8.1 8.5zm.2 36c5.1-.5 8.4-3.3 8.5-8.3s-3-8.1-8-8.6c-4.6-.5-9.1 3.9-8.8 8.5.3 5.1 3.4 7.8 8.3 8.4zm.2-72.7c5.2-.7 8.5-3.5 8.3-8.6-.2-4.9-3.4-8.1-8.6-7.9-5.1.2-8.2 3.3-8.1 8.4.1 5.3 3.6 7.7 8.4 8.1zm-1.2-36.4c5.9.1 9.1-2.8 9.5-7.7.3-5-2.6-8.4-7.9-8.7-5.2-.3-8.5 2.6-8.9 7.7-.2 5 2.8 8 7.3 8.7zm73.1 128.5l-13.7-10.7 50.8-64.6 13.8 10.5-50.9 64.8zm58.2-72.4l-14.7-11.7c3.5-3.2 6.9-8.5 9.5-8.1 4.1.7 9.1 4.4 10.9 8.1.9 2.3-3.4 7.1-5.7 11.7zm-72.4 66.8l9.5 7.5-.3 2.1c-2.7-.1-6 .7-7.8-.6-2.1-1.5-2.8-4.9-4.1-7.4.9-.6 1.8-1.1 2.7-1.6z" fill="#fff"/></svg>