<?xml version="1.0" encoding="utf-8"?>
<!-- Generator: Adobe Illustrator 22.0.0, SVG Export Plug-In . SVG Version: 6.00 Build 0)  -->
<svg version="1.1" id="members" xmlns="http://www.w3.org/2000/svg" xmlns:xlink="http://www.w3.org/1999/xlink" x="0px" y="0px"
	 viewBox="0 0 256 256" enable-background="new 0 0 256 256" xml:space="preserve">
<path fill="#0262A3" d="M223.3,256H32.6C14.7,256,0,241.3,0,223.4V32.6C0,14.7,14.7,0,32.6,0h190.8C241.3,0,256,14.7,256,32.6v190.8
	C256,241.3,241.3,256,223.3,256z"/>
<g>
	<path fill="#FFFFFF" d="M77.9,185.5c0.7-5.4,0.6-11.1,2.3-16.1c3.1-9.9,10.4-15.9,20.8-16.9c7.4-0.7,15-0.8,22.4-0.1
		c14.2,1.4,23.3,11.7,23.6,26.2c0.1,5.6-0.1,11.3,0.1,16.8c0.1,2.7-1,3.8-3.3,4.6c-11.6,4.3-23.5,6-35.7,4.7c-9-1-17.9-3.2-26.8-4.9
		c-2.1-0.4-2.9-1.4-2.8-3.6c0.2-3.5,0-7,0-10.5C78.3,185.5,78.1,185.5,77.9,185.5z"/>
	<path fill="#FFFFFF" d="M86.7,131.7c2.6,5.9,5.1,11.5,7.7,17.1c-15.3,6-21.6,18.2-20.7,35c-10.2-0.4-19.5-2.5-28.8-5.4
		c-0.7-0.2-1.5-1.7-1.5-2.6c0-7.5-0.2-15,0.3-22.5c0.7-10.5,10-20.4,20.7-21.6C71.9,131,79.8,131.7,86.7,131.7z"/>
	<path fill="#FFFFFF" d="M184.8,163.8c1.1-17-5.3-29.4-21.5-35.6c4-4.6,6.8-9.5,7.3-15.4c0-0.6,1.1-1.6,1.6-1.6
		c8,0.4,16-0.1,23.7,1.6c9.8,2.1,16.6,11.7,17.2,21.7c0.4,7,0.3,13.9,0.2,20.9c0,1-1,2.6-2,3C203,162,194.3,163.5,184.8,163.8z"/>
	<path fill="#FFFFFF" d="M151.6,184.1c1.2-16.9-5.1-29.2-20.6-35.2c2.5-5.5,4.9-11,7.8-17.2c11.4-3.9,28.7,0.5,36,10
		c3.2,4.1,5,8.7,5.2,13.7c0.2,6.8,0.2,13.4,0.1,20.2c0,1-0.7,2.6-1.5,3C170.1,182.1,161.3,183.8,151.6,184.1z"/>
	<path fill="#FFFFFF" d="M111.7,92.5c-12,0-21.7-9.6-21.7-21.6s10-22,21.9-21.9c11.8,0.2,21.6,10.1,21.6,21.9
		C133.4,82.9,123.6,92.5,111.7,92.5z"/>
	<path fill="#FFFFFF" d="M112.8,150.5c-11.1,0-20-8.9-20-19.9s8.9-20,19.9-20s20,9,20.1,20C132.8,141.4,123.8,150.5,112.8,150.5z"/>
	<path fill="#FFFFFF" d="M57.5,109.9c0-10.8,8.1-19.3,19.1-20.1c10-0.7,19.6,7.4,20.6,17.7c0.2,1.7-0.8,3.7-1.7,5.3
		c-2.1,3.9-4.4,7.7-6.8,11.5c-1,1.5-2.1,3.4-3.7,4.1C72.1,133.9,57.5,124.1,57.5,109.9z"/>
	<path fill="#FFFFFF" d="M165.8,109.7c0.1,13.2-12.2,22.8-25,19.5c-2.2-0.6-3.7-1.5-4.2-4c-1-5.8-4-10.5-8.8-13.9
		c-2-1.4-2.2-3.1-1.8-5.2c1.9-9.8,11.3-17.2,20.7-16.3C158,90.8,165.8,99,165.8,109.7z"/>
	<path fill="#FFFFFF" d="M199,89.7c0,13.1-12.5,22.7-25.2,19.3c-2.2-0.6-3.6-1.6-4-4.2c-1.1-5.7-4.3-10.3-8.8-13.9
		c-1.1-0.9-1.9-3-1.7-4.3c1.3-10,10.8-17.6,20.5-16.9C190.9,70.3,199,78.8,199,89.7z"/>
	<path fill="#FFFFFF" d="M126,94.6c-1.6,4.5-2.9,8.5-4.4,12.6c-6.5-2.3-13.3-2.3-19.6,1c-1.5-4.6-2.9-8.9-4.4-13.6
		C106.9,94.6,116.4,94.6,126,94.6z"/>
</g>
</svg>
