<svg xmlns="http://www.w3.org/2000/svg" viewBox="0 0 256 256"><path fill="#c90d23" d="M223.3 256H32.6C14.7 256 0 241.3 0 223.4V32.6C0 14.7 14.7 0 32.6 0h190.8C241.3 0 256 14.7 256 32.6v190.8c0 17.9-14.7 32.6-32.7 32.6z"/><path fill="#fff" d="M202.8 185.7L148.1 131c-.5-.6-1-.9-1.6-1.4l9.7-10.2c.5-.5.9-1 1.4-1.6 12.9 4.9 28 2.1 38.4-8.2a36.1 36.1 0 0 0 10.5-28.7c-.1-1.2-.9-2.2-2.1-2.7-1.1-.4-2.4-.1-3.3.7l-17.5 17.5-17.8-4.4-5-18.3 17.5-17.5c.8-.8 1.1-2.1.7-3.3-.4-1.1-1.5-2-2.7-2.1a36.23 36.23 0 0 0-28.7 10.5c-10.4 10.4-13.1 25.5-8.2 38.4-.6.5-1 .9-1.6 1.4l-14.3 13.7-26.2-26.2c-.4-.4-.7-.7-1-.9.3-.6.7-1.1.8-1.7 5.5 1 15.7-9.7 24.3-18.3l-25-25C85.1 53.9 76.9 61.4 78.1 66.9c-2.5 1.2-4.9 2.8-6.4 4.4l-3.5 3.5c-2.3 2.3-3.6 5.1-4.2 8.1-.4.4-.7.8-1 1.2l-1.3 1.7s-.2.2-.2.3l-1.2 1.7c-.7 1-1.4 2.1-2.1 3.1-.2.4-.5.7-.7 1.1 0 .1-.1.1-.1.2l-.5 1c-.7 1.2-1.3 2.4-1.9 3.8l-.1.2c-.7 1.6-1.4 3.3-1.9 4.9l-.3.7c-.2.7-.4 1.2-.6 2l-.5 2.4c-.4 1.5-.5 3-.6 4.3l-.1.8c-.2 1.4-.1 2.6-.1 3.8v1.9c0 .5 0 1.1.1 1.7l.3 2c.1.4.1.7.2 1.1.1.8.3 1.6.5 2.4l1.3 4.5c.4 1.3 1.7 2.2 3.1 2.1.7-.1 1.4-.4 1.9-.8s.7-1 .8-1.7l.7-4.5c.1-.4.2-.8.4-1.4.1-.4.2-.7.3-1.1l.5-1.7c.1-.2.2-.5.3-.7s.2-.5.3-.7c.2-.4.3-.7.5-1.1.3-.7.6-1.4 1-2.1.2-.3.4-.7.6-.9.5-.7.8-1.5 1.3-2.1l.1-.1 1.1-1.5c.2-.3.5-.6.7-.8s.4-.4.6-.7c.7-.7 1.4-1.5 2.1-2.1l.4-.4c.6-.5 1.2-1 1.9-1.5.3-.2.6-.4.8-.7.4-.2.7-.5 1-.7.7-.4 1.1-.7 1.8-1.1L78 102c.5-.3.9-.5 1.3-.6.3-.1.5-.2.7-.3.3-.1.5-.2.7-.3.3-.1.6-.2.8-.3l.6-.3c.4.7.8 1.2 1.4 1.8l25.9 25.9-55.5 53.7c-6.9 6.9-8 17-1.1 23.9s16.3 5.1 23.2-1.8l.1-.1 48.8-51.4c.3.4.6.7.9 1l54.8 54.8c6.2 6.2 16.1 6.2 22.2 0 6.2-6.1 6.2-16.1 0-22.3zM68.9 198.1a6.46 6.46 0 0 1-9.1 0 6.46 6.46 0 0 1 0-9.1 6.46 6.46 0 0 1 9.1 0c2.5 2.5 2.5 6.5 0 9.1z"/></svg>