<?xml version="1.0" encoding="utf-8"?>
<!-- Generator: Adobe Illustrator 22.0.0, SVG Export Plug-In . SVG Version: 6.00 Build 0)  -->
<svg version="1.1" id="network" xmlns="http://www.w3.org/2000/svg" xmlns:xlink="http://www.w3.org/1999/xlink" x="0px" y="0px"
	 viewBox="0 0 256 256" enable-background="new 0 0 256 256" xml:space="preserve">
<path fill="#061D72" d="M223.3,256H32.6C14.7,256,0,241.3,0,223.4V32.6C0,14.7,14.7,0,32.6,0h190.8C241.3,0,256,14.7,256,32.6v190.8
	C256,241.3,241.3,256,223.3,256z"/>
<path fill="#FFFFFF" d="M83.8,99c1.9,0,3.7,0.3,5.4,0.8c6.4-7.2,13.5-13.7,21.2-19.5c-0.3-1.4-0.5-2.8-0.5-4.2c0-2,0.3-3.9,0.9-5.8
	c-8.6-6.2-18-11.4-27.9-15.4c-9.3,5.8-17.5,13.3-24,22.1c4.8,8.5,10.5,16.5,17,23.7C78.3,99.7,81,99,83.8,99z M65.7,117.2
	c0-2.5,0.5-5,1.5-7.2c-5.8-6.4-11.1-13.3-15.7-20.7c-5.8,11.5-9.1,24.5-9.1,38.3c0,16,4.4,30.9,12,43.7c2.7-15.4,7.9-29.9,15-43.2
	C67.1,125.1,65.7,121.3,65.7,117.2z M128,58c4.8,0,9.1,1.9,12.4,4.9c9.5-4.1,19.5-7.2,29.8-9.2c-12.5-7.2-27-11.4-42.5-11.4
	c-10.6,0-20.7,1.9-30,5.4c7.4,3.7,14.5,7.9,21.1,12.7C121.5,58.9,124.6,58,128,58z M155.1,143.5c1.1-2.4,2.7-4.4,4.7-6.1
	c-5.4-16.5-13.8-31.6-24.8-44.6c-2.2,0.9-4.6,1.4-7.1,1.4c-3.9,0-7.6-1.3-10.5-3.4c-6.6,5-12.7,10.6-18.2,16.7
	c1.7,2.8,2.7,6,2.7,9.6c0,1.9-0.3,3.7-0.8,5.4C117.1,133.3,135.4,140.6,155.1,143.5z M178.7,168c0.3,3.4,0.4,6.9,0.4,10.4
	c0,6.2-0.4,12.2-1.1,18.2c14.5-10.6,25.5-25.6,31-43c-6.6,1.6-13.3,2.7-20.2,3.4C187.1,161.9,183.4,166,178.7,168z M150.9,155.7
	c-21.1-3.5-40.6-11.5-57.6-23c-2.8,1.7-6,2.7-9.5,2.7c-1.3,0-2.5-0.1-3.7-0.4c-8.1,15.4-13.3,32.6-14.8,50.9
	c8.1,8.7,18,15.7,29.2,20.4C108.3,185,127.6,167.4,150.9,155.7z M185,64.4c-13.7,1.3-26.7,4.8-38.9,9.9c0.1,0.6,0.1,1.2,0.1,1.8
	c0,2.9-0.7,5.6-1.9,8c12.1,14.3,21.6,30.9,27.5,49.1c7.4,0.1,13.7,4.7,16.4,11.1c8.2-0.8,16.2-2.4,23.9-4.7
	c0.5-3.9,0.8-7.9,0.8-11.9C213,102.6,202.2,80,185,64.4z M160,165.4c-21.7,10.2-39.9,25.9-53.1,45c6.6,1.7,13.6,2.5,20.7,2.5
	c12.9,0,25.1-2.9,36-8c1.8-8.6,2.7-17.5,2.7-26.6c0-3.3-0.1-6.6-0.4-9.8C163.8,167.9,161.8,166.8,160,165.4z"/>
</svg>
