<?xml version="1.0" encoding="utf-8"?>
<!-- Generator: Adobe Illustrator 22.0.0, SVG Export Plug-In . SVG Version: 6.00 Build 0)  -->
<svg version="1.1" id="php-fusion" xmlns="http://www.w3.org/2000/svg" xmlns:xlink="http://www.w3.org/1999/xlink" x="0px" y="0px"
	 viewBox="0 0 256 256" enable-background="new 0 0 256 256" xml:space="preserve">
<path fill="#006692" d="M223.3,256H32.6C14.7,256,0,241.3,0,223.4V32.6C0,14.7,14.7,0,32.6,0h190.8C241.3,0,256,14.7,256,32.6v190.8
	C256,241.3,241.3,256,223.3,256z"/>
<path fill="#FFFFFF" d="M88.5,182.5c-22.5,0-38.3-7.4-43.5-20.6c-4.6-11.8,0-26.3,13.1-41.1c12.5-14.2,31.4-26.9,53.2-35.9
	c19-7.9,38.9-12.3,55.8-12.3c22.6,0,38.4,7.4,43.5,20.6c4.6,11.8,0,26.3-13.1,41.1c-12.5,14.2-31.4,26.9-53.2,35.9
	C125.3,178.1,105.4,182.5,88.5,182.5L88.5,182.5z M167.1,78.5c-16.3,0-35.3,4.2-53.8,11.9c-21,8.7-39.1,21-51.1,34.5
	c-11.4,13-15.6,25.3-12,35c4.2,10.7,18.1,16.8,38.1,16.8c16.3,0,35.3-4.2,53.8-11.9c21-8.7,39.1-21,51.1-34.5
	c11.4-13,15.6-25.3,12-35C201.1,84.6,187.1,78.5,167.1,78.5L167.1,78.5z M92.1,182.1c-21.8,0-37.1-7.3-42-20
	c-4.5-11.5,0-25.7,12.8-40c12.1-13.6,30.3-25.9,51.3-34.6c18.4-7.6,37.6-11.9,54.2-11.9c21.8,0,37.1,7.3,42,20
	c9,23.2-19.1,55.9-64.1,74.6C127.7,177.8,108.5,182.1,92.1,182.1L92.1,182.1z M168.2,82.8c-15.6,0-33.9,4.1-51.6,11.4
	c-20.1,8.3-37.3,20-48.7,32.8c-10.6,12-14.8,23.8-11.4,32.5c3.8,9.8,16.7,15.4,35.5,15.4c15.6,0,33.9-4.1,51.6-11.4
	c39.9-16.6,67.4-46.4,60.2-65.2C200,88.4,187,82.8,168.2,82.8z M174.9,204.6c-21.2,0-50.8-16.8-75.3-43.1
	c-16.7-17.7-29.4-37.6-35.5-55.9c-6.6-19.1-5.4-34.4,3.3-43.2c4.8-4.8,11.3-7.2,19.5-7.2c21.2,0,50.8,16.8,75.4,43
	c16.7,17.7,29.4,37.6,35.5,55.9c6.5,19.1,5.2,34.4-3.4,43.1C189.7,202.2,183,204.6,174.9,204.6L174.9,204.6z M86.8,61.2
	c-6.6,0-11.9,1.9-15.5,5.5c-7,7-7.7,20.2-2,37c5.9,17.5,18.1,36.6,34.4,53.8c23.7,25,51.6,41.3,71.4,41.3c6.6,0,11.9-1.9,15.5-5.5
	c7-7,7.7-20.2,2-36.9c-5.9-17.5-18.1-36.6-34.4-53.8C134.5,77.4,106.5,61.2,86.8,61.2L86.8,61.2z M171,205
	c-20.4,0-49-16.3-72.8-41.7c-16.1-17-28.3-36.2-34.4-53.8c-6.4-18.5-5.2-33.4,3.1-41.9c4.7-4.7,11-7,18.9-7
	c20.4,0,49,16.3,72.8,41.7c34.5,36.5,48.1,78.6,31.2,95.7C185.1,202.7,178.8,205,171,205z M85.8,67.9c-6,0-10.8,1.7-14.1,5
	c-6.3,6.3-6.8,18.9-1.5,34.4c5.7,16.6,17.4,34.9,32.8,51.2c22.6,24,49.3,39.5,67.9,39.5c6,0,10.8-1.7,14.1-5
	c13.8-13.9-0.6-53-31.3-85.5C131.1,83.3,104.4,67.8,85.8,67.9L85.8,67.9z M138.1,128.6c0,5.6-4.5,10.2-9.9,10.2s-9.9-4.7-9.9-10.2
	c0-5.6,4.5-10.2,9.9-10.2C133.6,118.4,138.1,122.9,138.1,128.6z M105.4,212.9c-4,0-7.7-0.8-11.2-2.5c-11.7-5.4-18.7-19.3-19.8-39.1
	c-1-19.1,3.7-41.6,13.1-63.3c16.7-38.3,44.4-65.1,67.3-65.1c4,0,7.7,0.8,11.2,2.5c11.7,5.4,18.7,19.3,19.8,39.1
	c1,19-3.7,41.6-13.1,63.3C156.1,186.1,128.4,212.9,105.4,212.9L105.4,212.9z M154.8,48.8c-20.5,0-46.6,25.9-62.2,61.6
	C83.5,131.3,79,152.8,80,170.9c0.9,17.4,6.7,29.6,16.4,34.1c2.8,1.3,5.6,1.9,8.9,1.9c20.5,0,46.6-25.9,62.2-61.6
	c9.1-20.9,13.6-42.4,12.6-60.5c-0.9-17.4-6.7-29.6-16.4-34.1C161,49.5,158,48.8,154.8,48.8L154.8,48.8z M102.2,210.4
	c-3.7,0-7.1-0.8-10.3-2.3c-11.2-5.2-17.7-18.8-18.4-38.3c-0.6-18.6,4.2-40.6,13.5-62c16.6-38.2,43.6-64.9,65.5-64.9
	c3.7,0,7.1,0.8,10.3,2.3c11.2,5.2,17.7,18.8,18.4,38.3c0.6,18.6-4.2,40.6-13.5,62C151.1,183.6,124,210.4,102.2,210.4z M152.5,50.2
	c-19,0-43.9,25.5-59.2,60.6c-8.9,20.4-13.5,41.3-12.9,58.7c0.6,16.6,5.6,27.9,14.4,32c2.3,1.1,4.8,1.6,7.4,1.6
	c19,0,43.9-25.5,59.2-60.6c8.9-20.4,13.5-41.3,12.9-58.7c-0.6-16.6-5.6-27.9-14.4-32C157.6,50.7,155.1,50.2,152.5,50.2L152.5,50.2z"
	/>
</svg>
