<?xml version="1.0" encoding="utf-8"?>
<!-- Generator: Adobe Illustrator 19.2.1, SVG Export Plug-In . SVG Version: 6.00 Build 0)  -->
<svg version="1.1" id="Vrstva_1" xmlns="http://www.w3.org/2000/svg" xmlns:xlink="http://www.w3.org/1999/xlink" x="0px" y="0px"
	 viewBox="0 0 256.5 256.5" style="enable-background:new 0 0 256.5 256.5;" xml:space="preserve">
<style type="text/css">
	.st0{fill:#006692;stroke:#FFFFFF;stroke-width:0.5166;stroke-miterlimit:10;}
	.st1{fill:#FFFFFF;}
</style>
<path class="st0" d="M223.6,256.3H32.9c-17.9,0-32.6-14.7-32.6-32.6V32.9c0-17.9,14.7-32.6,32.6-32.6h190.8
	c17.9,0,32.6,14.7,32.6,32.6v190.8C256.3,241.6,241.6,256.3,223.6,256.3z"/>
<path class="st1" d="M85.4,183.3c-22.7,0-38.7-7.5-43.9-20.8c-4.6-11.9,0-26.6,13.2-41.5c12.6-14.3,31.7-27.2,53.7-36.3
	c19.2-8,39.3-12.4,56.4-12.4c22.8,0,38.8,7.5,43.9,20.8c4.6,11.9,0,26.6-13.2,41.5c-12.6,14.3-31.7,27.2-53.7,36.3
	C122.6,178.9,102.5,183.3,85.4,183.3L85.4,183.3z M164.8,78.3c-16.5,0-35.7,4.2-54.3,12c-21.2,8.8-39.5,21.2-51.6,34.8
	c-11.5,13.1-15.8,25.6-12.1,35.3c4.2,10.8,18.3,17,38.5,17c16.5,0,35.7-4.2,54.3-12c21.2-8.8,39.5-21.2,51.6-34.8
	c11.5-13.1,15.8-25.6,12.1-35.3C199.1,84.5,185,78.3,164.8,78.3L164.8,78.3z M89,182.9c-22,0-37.5-7.4-42.4-20.2
	c-4.5-11.6,0-26,12.9-40.4c12.2-13.7,30.6-26.2,51.8-34.9c18.6-7.7,38-12,54.7-12c22,0,37.5,7.4,42.4,20.2
	c9.1,23.4-19.3,56.5-64.7,75.3C125,178.6,105.6,182.9,89,182.9L89,182.9z M165.9,82.6c-15.8,0-34.2,4.1-52.1,11.5
	c-20.3,8.4-37.7,20.2-49.2,33.1c-10.7,12.1-14.9,24-11.5,32.8c3.8,9.9,16.9,15.6,35.9,15.6c15.8,0,34.2-4.1,52.1-11.5
	c40.3-16.8,68.1-46.9,60.8-65.9C198,88.3,184.9,82.6,165.9,82.6z M172.7,205.7c-21.4,0-51.3-17-76.1-43.5
	c-16.9-17.9-29.7-38-35.9-56.5C54,86.4,55.2,71,64,62.1c4.8-4.8,11.4-7.3,19.7-7.3c21.4,0,51.3,17,76.2,43.4
	c16.9,17.9,29.7,38,35.9,56.5c6.6,19.3,5.3,34.7-3.4,43.5C187.6,203.2,180.9,205.7,172.7,205.7L172.7,205.7z M83.7,60.8
	c-6.7,0-12,1.9-15.7,5.6c-7.1,7.1-7.8,20.4-2,37.4c6,17.7,18.3,37,34.7,54.3c23.9,25.3,52.1,41.7,72.1,41.7c6.7,0,12-1.9,15.7-5.6
	c7.1-7.1,7.8-20.4,2-37.3c-6-17.7-18.3-37-34.7-54.3C131.9,77.2,103.6,60.8,83.7,60.8L83.7,60.8z M168.7,206.1
	c-20.6,0-49.5-16.5-73.5-42.1c-16.3-17.2-28.6-36.6-34.7-54.3C54,91,55.2,76,63.6,67.4c4.7-4.7,11.1-7.1,19.1-7.1
	c20.6,0,49.5,16.5,73.5,42.1c34.8,36.9,48.6,79.4,31.5,96.7C183,203.7,176.6,206.1,168.7,206.1z M82.7,67.6c-6.1,0-10.9,1.7-14.2,5
	c-6.4,6.4-6.9,19.1-1.5,34.7c5.8,16.8,17.6,35.2,33.1,51.7c22.8,24.2,49.8,39.9,68.6,39.9c6.1,0,10.9-1.7,14.2-5
	c13.9-14-0.6-53.5-31.6-86.4C128.4,83.2,101.5,67.5,82.7,67.6L82.7,67.6z M135.5,128.9c0,5.7-4.5,10.3-10,10.3s-10-4.7-10-10.3
	c0-5.7,4.5-10.3,10-10.3S135.5,123.2,135.5,128.9z M102.5,214c-4,0-7.8-0.8-11.3-2.5c-11.8-5.5-18.9-19.5-20-39.5
	c-1-19.3,3.7-42,13.2-63.9c16.9-38.7,44.8-65.8,68-65.8c4,0,7.8,0.8,11.3,2.5c11.8,5.5,18.9,19.5,20,39.5c1,19.2-3.7,42-13.2,63.9
	C153.7,187,125.7,214,102.5,214L102.5,214z M152.4,48.3c-20.7,0-47.1,26.2-62.8,62.2c-9.2,21.1-13.7,42.8-12.7,61.1
	c0.9,17.6,6.8,29.9,16.6,34.4c2.8,1.3,5.7,1.9,9,1.9c20.7,0,47.1-26.2,62.8-62.2c9.2-21.1,13.7-42.8,12.7-61.1
	c-0.9-17.6-6.8-29.9-16.6-34.4C158.6,49,155.6,48.3,152.4,48.3L152.4,48.3z M99.2,211.5c-3.7,0-7.2-0.8-10.4-2.3
	c-11.3-5.3-17.9-19-18.6-38.7c-0.6-18.8,4.2-41,13.6-62.6c16.8-38.6,44-65.5,66.2-65.5c3.7,0,7.2,0.8,10.4,2.3
	c11.3,5.3,17.9,19,18.6,38.7c0.6,18.8-4.2,41-13.6,62.6C148.6,184.5,121.3,211.5,99.2,211.5z M150,49.7c-19.2,0-44.3,25.8-59.8,61.2
	c-9,20.6-13.6,41.7-13,59.3c0.6,16.8,5.7,28.2,14.5,32.3c2.3,1.1,4.8,1.6,7.5,1.6c19.2,0,44.3-25.8,59.8-61.2
	c9-20.6,13.6-41.7,13-59.3c-0.6-16.8-5.7-28.2-14.5-32.3C155.2,50.2,152.7,49.7,150,49.7L150,49.7z"/>
</svg>
