<?xml version="1.0" encoding="utf-8"?>
<!-- Generator: Adobe Illustrator 19.2.1, SVG Export Plug-In . SVG Version: 6.00 Build 0)  -->
<svg version="1.1" id="Vrstva_1" xmlns="http://www.w3.org/2000/svg" xmlns:xlink="http://www.w3.org/1999/xlink" x="0px" y="0px"
	 viewBox="0 0 256.5 256.5" style="enable-background:new 0 0 256.5 256.5;" xml:space="preserve">
<style type="text/css">
	.st0{fill:#E0A80B;stroke:#FFFFFF;stroke-width:0.5166;stroke-miterlimit:10;}
	.st1{fill:#FFFFFF;}
</style>
<path class="st0" d="M223.6,256.3H32.9c-17.9,0-32.6-14.7-32.6-32.6V32.9c0-17.9,14.7-32.6,32.6-32.6h190.8
	c17.9,0,32.6,14.7,32.6,32.6v190.8C256.3,241.6,241.6,256.3,223.6,256.3z"/>
<path class="st1" d="M213.9,42.9c0,57.2,0,114.2,0,171.5c-33.3,0-66.4,0-100.1,0c1.4-0.6,2.4-1,3.4-1.4
	c25.7-8.5,41.7-30.6,41.2-57.4c-0.1-3.9,1-5.7,4.5-7c3-1.2,5.7-3.2,8.8-5c-0.9-2.2-1.9-3.9-2.2-5.7c-0.3-1.6-0.3-3.9,0.6-4.9
	c1.1-1.2,3.7-2.5,5-2c5.3,1.9,7.3-0.5,8.2-5.2c0.5-2.3,1.2-4.6,1.6-7c1.4-7.1,1.4-7.1-5.4-9.3c-3.9-1.2-4.9-5.6-2-8.4
	c1.5-1.4,3.1-2.8,5.4-4.8c-4-4.9-7.9-9.6-11.8-14.3c-2.3-2.7-3.9-0.1-5.6,1c-2.1,1.4-4.1,3.7-6.6,1.1c-1.2-1.3-2.6-3.3-2.5-4.9
	c0.2-5-2.1-6.4-6.6-6.2c-4,0.2-8-0.1-11.9,0.4c-1.2,0.2-2.8,2.1-3.2,3.5c-0.7,2.7,0.6,5.8-3.2,7.6c-3.9,1.8-5.3-1.5-7.8-2.7
	c-0.7-0.3-1.3-0.8-1.9-1.2c-7.1,4.7-13.2,13.6-12.3,18c-5.5,0-11.1-0.5-16.6,0.1c-5.5,0.6-10.8,2.3-16.3,3.5
	c-1.1-14.9-0.4-29.5,9.6-42c8.9-11,20.4-17.5,34.6-17.7c30.4-0.4,60.9-0.1,91.3-0.1C212.3,42.6,212.8,42.7,213.9,42.9z"/>
<path class="st1" d="M156.4,157.2c-0.1,31.1-25.6,56.5-56.6,56.4c-31.3,0-56.8-25.6-56.6-57c0.2-31.2,25.5-56.5,56.6-56.5
	C131.1,100.2,156.5,125.8,156.4,157.2z M124,156.9c-0.1-13.5-10.9-24.4-24.3-24.3c-13.3,0-24.3,11-24.3,24.4
	c-0.1,13.2,11,24.2,24.4,24.2C113.3,181.2,124.1,170.4,124,156.9z"/>
<path class="st1" d="M152.2,124.1c-6.7-6.3-12.5-11.7-18.7-17.4c1.9-4.7,7-7.9,13.1-7.2c5.9,0.7,10.8,5.2,11.7,10.8
	C159.4,117,156.5,122.3,152.2,124.1z"/>
<path class="st1" d="M87.5,157.2c-0.1-7,5.2-12.5,12.2-12.5c6.9,0,12.5,5.4,12.5,12.3c0,6.5-5.5,12.2-12.1,12.4
	C93.3,169.5,87.6,164,87.5,157.2z"/>
</svg>
