<svg xmlns="http://www.w3.org/2000/svg" viewBox="0 0 256 256"><path fill="#e0a80b" d="M223.3 256H32.6C14.7 256 0 241.3 0 223.4V32.6C0 14.7 14.7 0 32.6 0h190.8C241.3 0 256 14.7 256 32.6v190.8c0 17.9-14.7 32.6-32.7 32.6z"/><path d="M212.6 43.6V213h-98.9l3.4-1.4c25.4-8.4 41.2-30.2 40.7-56.7-.1-3.9 1-5.6 4.4-6.9 3-1.2 5.6-3.2 8.7-4.9-.9-2.2-1.9-3.9-2.2-5.6-.3-1.6-.3-3.9.6-4.8 1.1-1.2 3.7-2.5 4.9-2 5.2 1.9 7.2-.5 8.1-5.1.5-2.3 1.2-4.5 1.6-6.9 1.4-7 1.4-7-5.3-9.2-3.9-1.2-4.8-5.5-2-8.3 1.5-1.4 3.1-2.8 5.3-4.7l-11.7-14.1c-2.3-2.7-3.9-.1-5.5 1-2.1 1.4-4 3.7-6.5 1.1-1.2-1.3-2.6-3.3-2.5-4.8.2-4.9-2.1-6.3-6.5-6.1-4 .2-7.9-.1-11.8.4-1.2.2-2.8 2.1-3.2 3.5-.7 2.7.6 5.7-3.2 7.5-3.9 1.8-5.2-1.5-7.7-2.7-.7-.3-1.3-.8-1.9-1.2-7 4.6-13 13.4-12.1 17.8-5.4 0-11-.5-16.4.1s-10.7 2.3-16.1 3.5c-1.1-14.7-.4-29.1 9.5-41.5 8.8-10.9 20.2-17.3 34.2-17.5l90.2-.1c.3 0 .8 0 1.9.2zm-56.8 112.9c-.1 30.7-25.3 55.8-55.9 55.7-30.9 0-56.1-25.3-55.9-56.3.2-30.8 25.2-55.8 55.9-55.8 30.9.1 56 25.4 55.9 56.4zm-32-.2c-.1-13.3-10.8-24.1-24-24-13.1 0-24 10.9-24 24.1-.1 13 10.9 23.9 24.1 23.9 13.3 0 24-10.7 23.9-24zm27.8-32.4l-18.5-17.2c1.9-4.6 6.9-7.8 12.9-7.1 5.8.7 10.7 5.1 11.6 10.7 1.1 6.5-1.7 11.8-6 13.6zm-63.9 32.6c-.1-6.9 5.1-12.3 12.1-12.3 6.8 0 12.3 5.3 12.3 12.1 0 6.4-5.4 12.1-12 12.2-6.7.2-12.3-5.2-12.4-12z" fill="#fff"/></svg>