<?xml version="1.0" encoding="utf-8"?>
<!-- Generator: Adobe Illustrator 22.0.0, SVG Export Plug-In . SVG Version: 6.00 Build 0)  -->
<svg version="1.1" id="themes" xmlns="http://www.w3.org/2000/svg" xmlns:xlink="http://www.w3.org/1999/xlink" x="0px" y="0px"
	 viewBox="0 0 256 256" enable-background="new 0 0 256 256" xml:space="preserve">
<path fill="#AF027E" d="M223.3,256H32.6C14.7,256,0,241.3,0,223.4V32.6C0,14.7,14.7,0,32.6,0h190.8C241.3,0,256,14.7,256,32.6v190.8
	C256,241.3,241.3,256,223.3,256z"/>
<path fill="#FFFFFF" d="M210.4,63c-0.3-0.8-1.1-1.4-1.9-1.5c-0.9-0.1-1.7,0.3-2.2,1c-3,4.2-6.9,5.6-11.5,7.2
	c-3.7,1.3-7.5,2.7-11.6,5.6c-5.8,4.2-8.5,9.8-7.1,15.2l-0.1,0.2c-2.4-3.5-5.1-6.8-7.8-9.7c-13-13.6-31.1-21.6-49.7-22.3
	c-0.8,0-1.7,0-2.5,0c-20.8,0-40.8,9.3-54.6,25.5c-13.9,16.1-19.9,37.2-16.8,57.6c0.3,1.7,0.6,3.5,1,5.2c5.1,22.5,18.1,39.7,35.9,47
	c4.4,1.8,8.8,2.7,13.1,2.7c10.7,0,20-5.7,25.6-15.7c2.1-3.8,3.5-7.8,4.1-11.7c0.3-2.3,0.1-4.7-0.1-6.9c-0.2-2.3-0.5-4.5-0.1-6.8
	c0.8-5.1,4.4-8.1,9.5-8.1c1.5,0,3,0.2,4.4,0.7c-1.7,3.2-3.3,6.3-4.7,9.1c-2.9,6-5,11-6,14.8c-0.7,2.3-2.4,8.6,1.8,11.5
	c1.3,0.9,3.1,1.3,4.8,0.9c1.6-0.3,6.5-1.2,20.2-16.8c3.7-4.2,7.7-9.1,11.9-14.5c10.7-3.6,19-12.6,21.2-22.8c0.6-2.6,0.8-5.3,0.7-8.2
	c4-6.2,7.5-12,11.1-18.1c0.1-0.1,0.1-0.2,0.2-0.4c5.1-1.4,9.6-5.4,12.2-11C215,84.3,214.7,73.9,210.4,63z M152.6,101.6
	c-1.9,3-5.1,4.7-8.6,4.7c-1.9,0-3.8-0.5-5.4-1.6c-2.3-1.4-3.9-3.7-4.5-6.3c-0.6-2.6-0.1-5.3,1.3-7.6c1.9-3,5.1-4.7,8.6-4.7
	c1.9,0,3.8,0.5,5.4,1.6c2.3,1.4,3.9,3.7,4.5,6.3C154.5,96.6,154,99.4,152.6,101.6z M165.7,119.8c5.1-7.5,10.5-15,15.5-21.6
	c0.8,0.8,1.8,1.5,2.8,2.2c1.7,1.2,3.4,2.1,5.2,2.7c-4.3,7.4-9,14.8-14.6,23c-9.3,13.7-18.8,26.2-27,35.6c-4.6,5.2-8.6,9.3-11.7,11.8
	c1.2-3.8,3.5-9.1,6.7-15.3C148.2,147.1,156.4,133.5,165.7,119.8z M76.3,119.8c-1.9,0-3.8-0.5-5.4-1.6c-2.3-1.4-3.9-3.7-4.5-6.3
	c-0.6-2.6-0.1-5.3,1.3-7.6c1.9-3,5.1-4.7,8.6-4.7c1.9,0,3.8,0.5,5.4,1.6c4.7,3,6.1,9.2,3.2,13.9C83,118,79.8,119.8,76.3,119.8z
	 M65.7,142c1.9-3,5.1-4.7,8.6-4.7c1.9,0,3.8,0.5,5.4,1.6c2.3,1.4,3.9,3.7,4.5,6.3s0.1,5.3-1.3,7.6c-1.9,3-5.1,4.7-8.6,4.7
	c-1.9,0-3.8-0.5-5.4-1.6c-2.3-1.4-3.9-3.7-4.5-6.3C63.8,146.9,64.2,144.2,65.7,142z M97.9,82.1c1.9-3,5.1-4.7,8.6-4.7
	c1.9,0,3.8,0.5,5.4,1.6c4.7,3,6.1,9.2,3.2,13.9c-1.9,3-5.1,4.7-8.6,4.7c-1.9,0-3.8-0.5-5.4-1.6c-2.3-1.4-3.9-3.7-4.5-6.3
	C96,87.1,96.5,84.4,97.9,82.1z"/>
</svg>
