<?xml version="1.0" encoding="utf-8"?>
<!-- Generator: Adobe Illustrator 22.0.0, SVG Export Plug-In . SVG Version: 6.00 Build 0)  -->
<svg version="1.1" id="windows" xmlns="http://www.w3.org/2000/svg" xmlns:xlink="http://www.w3.org/1999/xlink" x="0px" y="0px"
	 viewBox="0 0 256 256" enable-background="new 0 0 256 256" xml:space="preserve">
<path fill="#F65314" d="M223.3,256H32.6C14.7,256,0,241.3,0,223.4V32.6C0,14.7,14.7,0,32.6,0h190.8C241.3,0,256,14.7,256,32.6v190.8
	C256,241.3,241.3,256,223.3,256z"/>
<path id="Windows_2_" fill="#FFFFFF" d="M77.4,58.6c10.8-4.3,20.1-6.4,28.7-6.6c4.5,0,8.8,0.5,12.9,1.4c6.2,1.6,14.7,6.2,17.9,8.1
	l-15.4,52.4c-7.9-5-17.3-9.9-30.1-10l0,0c-8.6,0-17.8,2-28.6,6L77.4,58.6z M101.5,184.5c3.8-12.9,13-43.9,15.7-53.3
	c-2-1.2-4-2.4-6.1-3.5c-7.9-4.1-15.6-6.1-22.8-6.1c-1,0-2,0-3,0.1c-9.3,0.8-17.7,3.2-23.2,5.1c-1.4,0.5-2.9,1.1-4.5,1.7L42.7,180
	c10.3-3.8,19.3-5.6,27.6-5.6C83.7,174.3,93.4,179.3,101.5,184.5z M192.3,146.1c-9.7,3.2-19,4.7-27.8,4.7c-15.9,0-27.1-5.2-34.1-10.1
	l-15,51.9c4.5,2.6,19.4,10.6,30.9,10.6c9.3,0,19.6-2.4,31.7-7.2L192.3,146.1z M212.7,75.8c-9.8,3.8-19.3,5.7-28.4,5.7
	c-15.2,0-26.4-5.3-33.7-10.3l-15.2,52.6c10.3,6.6,21.3,9.9,32.9,9.9c9.5,0,19.2-2.2,29.2-6.7l-0.1-0.4l0.6-0.1L212.7,75.8z"/>
</svg>
