<svg xmlns="http://www.w3.org/2000/svg" viewBox="0 0 48 48"><path fill="#1c3aa9" d="M39.6 17.1V3.5L36 7.1c-2.9-3.6-7.4-5.9-12.4-5.9-5.2 0-9.8 2.5-12.7 6.3l5.9 5.9c.6-1.1 1.4-2 2.4-2.7 1-.8 2.5-1.5 4.5-1.5.2 0 .4 0 .6.1 2.5.2 4.6 1.6 5.9 3.6L26 17.1h13.6"/><path fill="#4285f4" d="M23.5 1.2H9.9l3.6 3.6c-3.6 2.9-5.9 7.4-5.9 12.4 0 5.2 2.5 9.8 6.3 12.7l5.9-5.9c-1.1-.6-2-1.4-2.7-2.4-.8-1-1.5-2.5-1.5-4.5 0-.2 0-.4.1-.6.2-2.5 1.6-4.6 3.6-5.9l4.2 4.2V1.2"/><path fill="#ababab" d="M7.6 17.2v13.6l3.6-3.6c2.9 3.6 7.4 5.9 12.4 5.9 5.2 0 9.8-2.5 12.7-6.3l-5.9-5.9c-.6 1.1-1.4 2-2.4 2.7-1 .8-2.5 1.5-4.5 1.5-.2 0-.4 0-.6-.1-2.5-.2-4.6-1.6-5.9-3.6l4.2-4.2H7.6"/><path fill="#a6a6a6" d="M10.3 39.3c-.4 0-.7.1-1 .2s-.6.4-.8.6c-.2.3-.4.6-.5 1s-.2.8-.2 1.3v1.4c0 .5.1.9.2 1.3s.3.7.5 1 .5.5.8.6.6.2 1 .2.7-.1 1-.2.5-.3.7-.5.3-.5.4-.8.2-.6.2-1h-.9c0 .3-.1.5-.1.7-.1.2-.1.4-.3.5-.1.1-.2.2-.4.3s-.4.1-.7.1c-.2 0-.5 0-.7-.2-.2-.1-.3-.3-.5-.5-.1-.2-.2-.5-.3-.7-.1-.3-.1-.6-.1-.9v-1.4c0-.3 0-.7.1-.9.1-.3.2-.5.3-.7s.3-.4.5-.5.4-.2.7-.2c.2 0 .4 0 .6.1a1.38 1.38 0 0 1 .4.3c.1.1.2.3.2.5.1.2.1.5.1.7h.9c0-.4-.1-.7-.2-1.1-.1-.3-.3-.6-.4-.8-.2-.2-.4-.4-.7-.5-.1.1-.4.1-.8.1zm22.7 0c-.4 0-.7.1-1 .2s-.6.4-.8.6c-.2.3-.4.6-.5 1s-.2.8-.2 1.3v1.4c0 .5.1.9.2 1.3s.3.7.5 1 .5.5.8.6.6.2 1 .2.7-.1 1-.2.5-.3.7-.5.3-.5.4-.8.2-.6.2-1h-.9c0 .3-.1.5-.1.7-.1.2-.1.4-.3.5-.1.1-.2.2-.4.3s-.4.1-.6.1c-.3 0-.5-.1-.7-.2s-.3-.3-.5-.5c-.1-.2-.2-.5-.3-.7-.1-.3-.1-.6-.1-.9v-1.4c0-.3 0-.7.1-.9.1-.3.2-.5.3-.7s.3-.4.5-.5.4-.2.7-.2c.2 0 .4 0 .6.1a1.38 1.38 0 0 1 .4.3c.1.1.2.3.2.5.1.2.1.5.1.7h.9c0-.4-.1-.7-.2-1.1-.1-.3-.3-.6-.4-.8-.2-.2-.4-.4-.7-.5-.2.1-.5.1-.9.1zm-17.4.1l-2.4 7.3h.9l.6-1.9h2.5l.6 1.9h.9l-2.4-7.3h-.7zm4.2 0v7.3h.9v-2.9h1.4c.4 0 .7 0 .9-.1.3-.1.5-.2.7-.4s.3-.4.4-.7.1-.6.1-.9 0-.6-.1-.9-.2-.5-.4-.7-.4-.4-.7-.5-.6-.2-.9-.2h-2.3zm5.2 0v.8h1.9v6.5h.9v-6.5h1.9v-.8H25zm11.6 0v7.3h.9v-3.4h2.9v3.4h.9v-7.3h-.9v3.2h-2.9v-3.2h-.9zm8.2 0l-2.4 7.3h.9l.6-1.9h2.5l.6 1.9h1l-2.4-7.3h-.8zm-24.1.8h1.4c.2 0 .4 0 .6.1a1.38 1.38 0 0 1 .4.3c.1.1.2.3.2.5.1.2.1.4.1.5 0 .2 0 .4-.1.6 0 .2-.1.3-.2.4s-.2.2-.4.3-.3.1-.6.1h-1.4v-2.8zm-4.7.5l1 3.3h-2l1-3.3zm29.2 0l1 3.3h-2l1-3.3zm-43.3.5c-.2 0-.4.1-.6.2s-.3.3-.4.5v-.6H0v5.4h.9v-3.9c.1-.2.2-.4.4-.5s.4-.2.6-.2h.4v-.9h-.4zm3 0c-.3 0-.5 0-.7.1s-.5.2-.6.4c-.3.3-.4.5-.6.9a3.73 3.73 0 0 0-.2 1.2v.6c0 .4 0 .8.1 1.1s.2.6.4.8.4.3.7.4.6.1.9.1c.2 0 .4 0 .6-.1.2 0 .4-.1.5-.2s.3-.2.4-.3l.3-.3-.5-.6c-.1.1-.2.2-.2.3-.1.1-.2.1-.3.2 0 .1-.1.2-.3.2H5c-.4 0-.7-.1-1-.4-.2-.3-.3-.7-.3-1.3v-.1h3v-.5c0-.4 0-.8-.1-1.1l-.3-.8c-.2-.2-.4-.4-.6-.5s-.5-.1-.8-.1zm0 .7c.2 0 .4 0 .5.1l.3.3c.1.1.1.3.2.5 0 .2.1.4.1.6v.1H3.8c0-.3.1-.6.1-.8.1-.2.1-.4.2-.5s.2-.2.4-.2c.1 0 .2-.1.4-.1z"/></svg>