<svg xmlns="http://www.w3.org/2000/svg" viewBox="0 0 48 48"><path fill="#ffcb00" d="M48,24c0,13.2-10.7,24-24,24C10.8,48,0,37.2,0,24S10.7,0,24,0C37.2,0,48,10.8,48,24z"/><path fill="#edb506" d="M7.5 14.8c0-5 .3-6.6 3-10.5C4.2 8.6 0 15.8 0 24c0 13.2 10.7 24 24 24 8.2 0 15.4-4.1 19.7-10.4-3.9 2.7-6.9 2.2-12 2.2-13.2 0-24.2-11.8-24.2-25z"/><path fill="#f9f6ea" d="M9.2 17.8c-.2.3-.3.6-.4.9-.9 2.5.5 5.3 3 6.2s5.3-.5 6.2-3c.1-.3.2-.6.2-.9l-9-3.2z"/><g fill="#414349"><path d="M10.9 18.4l-.5.8c-.6 1.6.3 3.4 1.9 3.9 1.6.6 3.4-.3 3.9-1.9.1-.3.2-.6.2-.9l-5.5-1.9z"/><path d="M12.3 18.9c-.3.2-.5.5-.6.8-.3.9.2 1.9 1.1 2.2s1.9-.2 2.2-1.1c.1-.3.1-.7 0-1l-2.7-.9z"/></g><path fill="#f9f6ea" d="M13.9 19.5c0 .6.4 1.1 1 1.4.6.2 1.3 0 1.7-.4l-2.7-1zm15 1.6c0 .3.1.6.2.9.9 2.5 3.8 3.8 6.3 2.9s3.8-3.8 2.9-6.3c-.1-.3-.3-.6-.4-.8l-9 3.3z"/><g fill="#414349"><path d="M30.6 20.5c0 .3.1.6.2.9.6 1.6 2.4 2.4 4 1.8s2.4-2.4 1.8-4c-.1-.3-.3-.6-.5-.8l-5.5 2.1z"/><path d="M32.1 19.9c-.1.3 0 .6.1 1 .3.9 1.3 1.3 2.2 1s1.3-1.3 1-2.2c-.1-.3-.3-.6-.6-.8l-2.7 1z"/></g><path fill="#f9f6ea" d="M33.6 19.4c.4.4 1.1.6 1.7.4s1-.8 1-1.4l-2.7 1z"/><path fill="none" stroke="#414349" stroke-width="3" stroke-linecap="round" d="M11.4 37.9s4.4-6.2 12.3-6.2 12.2 6.2 12.2 6.2M6.5 15.5l12.3 4.4m9.5.7l11.4-5.4"/></svg>