<svg xmlns="http://www.w3.org/2000/svg" viewBox="0 0 48 48"><circle fill="#ffcc04" cx="24" cy="24" r="24"/><path fill="#ecb51f" d="M7.5 14.8c0-5 .3-6.6 3-10.5C4.2 8.6 0 15.8 0 24c0 13.2 10.7 24 24 24 8.2 0 15.4-4.1 19.8-10.4-3.9 2.7-6.9 2.2-12 2.2-13.3 0-24.3-11.8-24.3-25z"/><path fill="#f9f6ea" d="M9.2 17.9c-.2.3-.3.6-.4.9-.9 2.5.5 5.3 3 6.2s5.3-.5 6.2-3c.1-.3.2-.6.2-.9l-9-3.2z"/><g fill="#42434a"><path d="M10.9 18.5l-.5.8c-.6 1.6.3 3.4 1.9 3.9 1.6.6 3.4-.3 3.9-1.9.1-.3.2-.6.2-.9l-5.5-1.9z"/><path d="M12.3 19c-.3.2-.5.5-.6.8-.3.9.2 1.9 1.1 2.2s1.9-.2 2.2-1.1c.1-.3.1-.7 0-1l-2.7-.9z"/></g><path d="M13.9 19.5c0 .6.4 1.1 1 1.4.6.2 1.3 0 1.7-.4l-2.7-1zM29 21.1c0 .3.1.6.2.9.9 2.5 3.8 3.8 6.3 2.9s3.8-3.8 2.9-6.3c-.1-.3-.3-.6-.4-.8l-9 3.3z" fill="#f9f6ea"/><g fill="#42434a"><path d="M30.7 20.5c0 .3.1.6.2.9.6 1.6 2.4 2.4 4 1.8s2.4-2.4 1.8-4c-.1-.3-.3-.6-.5-.8l-5.5 2.1z"/><path d="M32.1 19.9c-.1.3 0 .6.1 1 .3.9 1.3 1.3 2.2 1s1.3-1.3 1-2.2c-.1-.3-.3-.6-.6-.8l-2.7 1z"/></g><path fill="#f9f6ea" d="M33.6 19.4c.4.4 1.1.6 1.7.4s1-.8 1-1.4l-2.7 1z"/><path fill="none" stroke="#42434a" stroke-width="3" stroke-linecap="round" d="M14.9 36.4s3.1-3.3 8.8-3.3 8.6 3.3 8.6 3.3"/></svg>