<svg xmlns="http://www.w3.org/2000/svg" viewBox="0 0 48 48"><path fill="#ffcc04" d="M47.3 29.8c-3.2 12.8-16.2 20.6-29 17.4S-2.3 31 .9 18.2 17-2.4 29.9.8C42.7 4 50.5 17 47.3 29.8z"/><path fill="#ecb51f" d="M10.3 11.1c1.2-4.9 1.9-6.3 5.4-9.4C8.6 4.3 2.9 10.3.9 18.2-2.3 31 5.5 44 18.3 47.2c7.9 2 15.9-.3 21.6-5.3-4.4 1.7-7.3.5-12.2-.8-12.8-3.1-20.6-17.2-17.4-30z"/><path fill="#42434a" d="M48 24c.7 12.2-10.3 23.2-22.5 23.8C10.5 48.6.6 37.2.2 24.4"/><path fill="#f9f6ea" d="M43.2 31.4l2.6-7.3-43.7.4 3.3 6.9z"/><path fill="#42434a" d="M1.4,31.5c3.1,9.6,11.9,17,24.1,16.4C35.1,47.4,44,40.4,47,31.5H1.4z"/><path fill="#f04f50" d="M30.2 40.2c-2.6-3.8-6.6-1.4-6.6-1.4-2.2-1.7-5 .7-5.8 1.4h12.4z"/><path fill="#ffcc04" d="M10.4 43.7c4.1 2.8 9.2 4.4 15.2 4.2 4.3-.2 8.5-1.7 12-4.2H10.4z"/><path fill="#ecb51f" d="M21.4 43.7s2.2 2.7 6.2 3.9c0 0-9.1 1.8-17.2-3.9h11z"/><path fill="#f9f6ea" d="M12 43.7l1-2.5h21.1l.9 2.5z"/><path fill="#42434a" d="M43.3,7.3H31.1c-2,0-3.7,1.3-4.3,3.2h-5.7c-0.6-1.9-2.3-3.2-4.3-3.2H4.5C2,7.3,0,9.4,0,11.9v5.8 c0,2.5,2,4.5,4.5,4.5h12.2c2.5,0,4.5-2,4.5-4.5v-4.3h5.3v4.3c0,2.5,2,4.5,4.5,4.5h12.2c2.5,0,4.5-2,4.5-4.5v-5.8 C47.8,9.4,45.8,7.3,43.3,7.3z"/></svg>