<svg xmlns="http://www.w3.org/2000/svg" viewBox="0 0 48 48"><circle fill="#ffcc04" cx="24" cy="24" r="24"/><path fill="#ecb51f" d="M7.4 14.8c0-5 .3-6.6 3-10.5C4.1 8.6 0 15.8 0 24c0 13.2 10.7 24 24 24 8.2 0 15.4-4.1 19.8-10.4-3.9 2.7-6.9 2.2-12 2.2-13.3 0-24.4-11.8-24.4-25z"/><path fill="#f9f6ea" d="M7.6 23.3c.1.3.3.6.5.8 1.5 2.2 4.5 2.8 6.8 1.3 2.2-1.5 2.8-4.5 1.3-6.8-.2-.3-.4-.5-.6-.7l-8 5.4z"/><g fill="#42434a"><path d="M9.1 22.3c.1.3.2.6.4.9.9 1.4 2.9 1.8 4.3.8 1.4-.9 1.8-2.9.8-4.3-.2-.3-.4-.5-.6-.7l-4.9 3.3z"/><path d="M10.3 21.4c0 .3.1.6.3.9.5.8 1.6 1 2.4.5s1-1.6.5-2.4c-.2-.3-.5-.5-.8-.6l-2.4 1.6z"/></g><path fill="#f9f6ea" d="M11.7 20.5a1.72 1.72 0 0 0 1.7 0c.5-.3.8-1 .6-1.6l-2.3 1.6zm19.9-2l-.5.8c-1 2.5.2 5.3 2.6 6.4 2.5 1 5.3-.2 6.4-2.6l.3-.9-8.8-3.7z"/><g fill="#42434a"><path d="M33.3 19.2c-.2.2-.4.5-.5.8-.6 1.6.1 3.4 1.7 4.1 1.6.6 3.4-.1 4.1-1.7.1-.3.2-.6.2-.9l-5.5-2.3z"/><path d="M34.7 19.8c-.3.2-.5.5-.6.8-.4.9 0 1.9.9 2.2.9.4 1.9 0 2.2-.9.2-.3.2-.6.1-1l-2.6-1.1z"/></g><path fill="#f9f6ea" d="M36.2 20.4c0 .6.4 1.2.9 1.4.6.2 1.3.1 1.7-.3l-2.6-1.1z"/><path fill="none" stroke="#42434a" stroke-width="3" stroke-linecap="round" d="M15.9 35.7c7.2-1.7 12.8.3 15.6 3.2.4.4.7.9 1 1.4"/></svg>