<svg xmlns="http://www.w3.org/2000/svg" viewBox="0 0 48 48"><path fill="#ffcb00" d="M47.4 28.5c-2.5 13-15.1 21.4-28.1 18.9C6.4 44.9-2.1 32.3.5 19.3 3 6.4 15.6-2.1 28.5.5c13 2.5 21.5 15.1 18.9 28z"/><path fill="#edb506" d="M9.5 11.7c1-5 1.6-6.5 4.9-9.7C7.4 5 2 11.3.5 19.3-2 32.3 6.4 44.9 19.4 47.4c8 1.6 15.9-1.1 21.4-6.4-4.4 2-7.3 1-12.3 0-13-2.6-21.5-16.3-19-29.3z"/><path fill="#f9f6ea" d="M18.2 14.5c-.2 2.7-2.4 4.8-5.1 4.6S8.3 16.7 8.5 14s2.4-4.8 5.1-4.6c2.7.1 4.7 2.3 4.6 5.1z"/><g fill="#414349"><path d="M16.4 14.3c-.1 1.7-1.6 3-3.3 3-1.7-.1-3-1.6-3-3.3.1-1.7 1.6-3 3.3-3 1.8.2 3.1 1.6 3 3.3z"/><path d="M15 14.3c0 .9-.9 1.7-1.8 1.6-.9 0-1.7-.9-1.6-1.8 0-.9.9-1.7 1.8-1.6.9 0 1.7.8 1.6 1.8z"/></g><path d="M16.6 12.8c0 .9-.8 1.5-1.6 1.5-.9 0-1.5-.8-1.5-1.6 0-.9.8-1.5 1.6-1.5.9 0 1.5.8 1.5 1.6zm23.3 2.8c-.2 2.7-2.4 4.8-5.1 4.6s-4.8-2.4-4.6-5.1 2.4-4.8 5.1-4.6c2.6.1 4.7 2.4 4.6 5.1z" fill="#f9f6ea"/><g fill="#414349"><path d="M38.1 15.5c-.1 1.7-1.6 3-3.3 3-1.7-.1-3-1.6-3-3.3s1.6-3 3.3-3c1.8.1 3.1 1.6 3 3.3z"/><path d="M36.7 15.4c0 .9-.9 1.7-1.8 1.6-.9 0-1.7-.9-1.6-1.8 0-.9.9-1.7 1.8-1.6s1.7.9 1.6 1.8z"/></g><path fill="#f9f6ea" d="M38.2 13.9c0 .9-.8 1.5-1.6 1.5-.9 0-1.5-.8-1.5-1.6 0-.9.8-1.5 1.6-1.5.9.1 1.6.8 1.5 1.6z"/><path fill="#414349" d="M47.9 23L.1 26.3C1 37.6 11.2 49.2 26.2 47.9c12.3-1 22.9-12.8 21.7-24.9z"/><path fill="#ff4b4c" d="M18.5 43.2s3.2-4 6.1-2.2c0 0 4.3-3 7.3 1.4 0 0-5.7 5.1-13.4.8z"/><path fill="#414349" d="M.1 26.5l47.5-6.4.3 2.8c.1 1.1.1 7.3-1.8 8.2-2 .9-45-3.5-46-4.6z"/><path fill="#f9f6ea" d="M3 26.9l2.1 2.7 40.1-5 .8-3.1z"/><path d="M35.6 3.1s4.7-.3 7.3 5M15.1 2.5s-4.7.1-6.9 5.5" fill="none" stroke="#414349" stroke-width="3" stroke-linecap="round"/></svg>