<svg xmlns="http://www.w3.org/2000/svg" viewBox="0 0 48 48"><path fill="#ffcd06" d="M45.7 27.8c.6.6 1 1.5 1 2.6 0 1.6-1 2.9-2.3 3.3.6.6 1 1.4 1 2.3v.1c0 1.4-.9 2.6-2.1 3 .7.6 1.1 1.5 1.1 2.5v.3c0 1.8-1.3 3.2-2.9 3.2H25.3s-4.3 0-5.2-1c-.5-.7-1.5-1.3-2.1-1.6-.3-.2-.6-.3-.6-.3h-5V25s4.4-.3 7.1-1.7c.5-.3.9-.6 1.3-.9 2.2-2.2 5.4-8.2 5.9-11.4s-.4-5.4 0-7 5.8-2.8 7.4 5.8c.7 3.7.5 6.7 0 9l-.3 1.4h10.6c.7 0 1.4.2 1.9.6a4.02 4.02 0 0 1 1.7 3.3c0 1.6-.9 3.1-2.3 3.7z"/><path opacity=".5" fill="#ebb51f" d="M19.6 23.3L18 42.5c-.3-.2-.6-.3-.6-.3h-5V25c.1 0 4.5-.3 7.2-1.7z"/><path fill="#378dcc" d="M16.8 23.4v20c0 .9-.7 1.7-1.7 1.7H1.7c-1 0-1.8-.9-1.6-2l1.7-9.7 1.8-10.3c.1-.8.8-1.4 1.6-1.4h9.9c.9.1 1.7.8 1.7 1.7z"/><path opacity=".3" fill="#2b71b9" d="M.7 39.1l-.7 4c-.2 1 .6 2 1.6 2H15c.9 0 1.7-.7 1.7-1.7v-4.3H.7z"/><path opacity=".5" fill="#ebb51f" d="M48 24.1a4.02 4.02 0 0 0-1.7-3.3c-.1 0-.1-.1-.2-.1s-.1-.1-.2-.1h-.1c-.1 0-.1-.1-.2-.1s-.1-.1-.2-.1H33.7c0-.1.1-.2.1-.4 0-.1 0-.1.1-.2 0-.1 0-.1.1-.2v-.2c0-.1.1-.3.1-.4.5-2.2.7-5.2 0-9-1.4-7.2-5.4-7.5-6.9-6.5 1.5.8 2.9 2.6 3.7 6.5.9 4.5.4 8-.3 10.3v1.6h11.9c1.3 0 2.3 1 2.4 2.3 0 1.7-.9 3.1-2.3 3.7.6.6 1 1.5 1 2.6 0 1.6-1 2.9-2.3 3.3.6.6 1 1.4 1 2.3v.1c0 1.4-.9 2.6-2.1 3 .7.6 1.1 1.5 1.1 2.5v.3c0 1.8-1.3 3.2-2.9 3.2h3.2c1.6 0 2.9-1.4 2.9-3.2v-.3c0-1-.4-1.9-1.1-2.5 1.2-.4 2.1-1.6 2.1-3V36c0-.9-.4-1.8-1-2.3 1.3-.4 2.3-1.7 2.3-3.3 0-1-.4-1.9-1-2.6 1.3-.6 2.2-2.1 2.2-3.7z"/></svg>