<svg xmlns="http://www.w3.org/2000/svg" viewBox="0 0 48 48"><path fill="#ffcc04" d="M48,24c0,13.2-10.7,24-24,24C10.8,48,0,37.3,0,24C0,10.8,10.7,0,24,0S48,10.7,48,24z"/><path fill="#ecb51f" d="M6.2 17.9c0-5 1.6-9.7 4.2-13.6C4.2 8.6 0 15.8 0 24c0 13.2 10.7 24 24 24 8.2 0 15.4-4.1 19.8-10.4-3.9 2.7-8.6 4.2-13.6 4.2-13.3 0-24-10.7-24-23.9z"/><path fill="#f9f6ea" d="M17.4,15.9c0.2-0.5,0.3-1,0.3-1.6c0-2.7-2.2-4.9-4.9-4.9s-4.9,2.2-4.9,4.9c0,0.5,0.1,1.1,0.3,1.6H17.4z"/><g fill="#42434a"><path d="M15.4 15.9c.3-.5.4-1 .4-1.6a3.12 3.12 0 0 0-3.1-3.1 3.12 3.12 0 0 0-3.1 3.1c0 .6.2 1.1.4 1.6h5.4z"/><path d="M12 15.9h1.4a1.78 1.78 0 0 0 1-1.6c0-.9-.8-1.7-1.7-1.7s-1.7.8-1.7 1.7a1.78 1.78 0 0 0 1 1.6z"/></g><path d="M15.9 12.8a1.58 1.58 0 0 1-1.6 1.6 1.58 1.58 0 0 1-1.6-1.6 1.58 1.58 0 0 1 1.6-1.6 1.58 1.58 0 0 1 1.6 1.6zm23.2 3.1c.2-.5.3-1 .3-1.6a4.91 4.91 0 0 0-4.9-4.9 4.91 4.91 0 0 0-4.9 4.9 4.53 4.53 0 0 0 .3 1.6h9.2z" fill="#f9f6ea"/><g fill="#42434a"><path d="M37.2 15.9c.3-.5.4-1 .4-1.6a3.12 3.12 0 0 0-3.1-3.1 3.12 3.12 0 0 0-3.1 3.1c0 .6.2 1.1.4 1.6h5.4z"/><path d="M33.7 15.9h1.4a1.78 1.78 0 0 0 1-1.6c0-.9-.8-1.7-1.7-1.7s-1.7.8-1.7 1.7c.1.7.5 1.3 1 1.6z"/></g><path fill="#f9f6ea" d="M37.6 12.8a1.58 1.58 0 0 1-1.6 1.6 1.58 1.58 0 0 1-1.6-1.6 1.58 1.58 0 0 1 1.6-1.6c1 0 1.6.7 1.6 1.6z"/><path fill="#42434a" d="M26.6 31.6c0 2.5-1.2 4.6-2.8 4.6-1.5 0-2.8-2-2.8-4.6 0-2.5 1.2-4.6 2.8-4.6s2.8 2.1 2.8 4.6z"/></svg>