<svg xmlns="http://www.w3.org/2000/svg" viewBox="0 0 48 48"><path fill="#ffcc04" d="M48,24c0,13.2-10.7,24-24,24C10.8,48,0,37.3,0,24C0,10.8,10.7,0,24,0S48,10.7,48,24z"/><path fill="#ecb51f" d="M6.2 17.9c0-5 1.6-9.7 4.2-13.6C4.2 8.6 0 15.8 0 24c0 13.2 10.7 24 24 24 8.2 0 15.4-4.1 19.8-10.4-3.9 2.7-8.6 4.2-13.6 4.2-13.3 0-24-10.7-24-23.9z"/><circle fill="#f9f6ea" cx="12.4" cy="20.2" r="4.9"/><g fill="#42434a"><circle cx="12.4" cy="20.2" r="3.1"/><path d="M14.1 20.2c0 .9-.8 1.7-1.7 1.7s-1.7-.8-1.7-1.7.8-1.7 1.7-1.7 1.7.7 1.7 1.7z"/></g><path fill="#f9f6ea" d="M15.5 18.6a1.58 1.58 0 0 1-1.6 1.6 1.58 1.58 0 0 1-1.6-1.6 1.58 1.58 0 0 1 1.6-1.6c1 .1 1.6.8 1.6 1.6zM39 20.2a4.91 4.91 0 0 1-4.9 4.9 4.91 4.91 0 0 1-4.9-4.9 4.91 4.91 0 0 1 4.9-4.9 4.91 4.91 0 0 1 4.9 4.9z"/><g fill="#42434a"><path d="M37.2,20.2c0,1.7-1.4,3.1-3.1,3.1c-1.7,0-3.1-1.4-3.1-3.1s1.4-3.1,3.1-3.1C35.8,17.1,37.2,18.5,37.2,20.2z"/><path d="M35.8 20.2c0 .9-.8 1.7-1.7 1.7s-1.7-.8-1.7-1.7.8-1.7 1.7-1.7 1.7.7 1.7 1.7z"/></g><path fill="#f9f6ea" d="M37.3 18.6a1.58 1.58 0 0 1-1.6 1.6 1.58 1.58 0 0 1-1.6-1.6 1.58 1.58 0 0 1 1.6-1.6c.9.1 1.6.8 1.6 1.6z"/><path fill="none" stroke="#42434a" stroke-width="3" stroke-linecap="round" d="M39 32c-6 10-20.4 11.3-28.1 2.6-.8-.8-1.4-1.6-1.9-2.6"/></svg>