<svg xmlns="http://www.w3.org/2000/svg" viewBox="0 0 48 48"><path fill="#ffcc04" d="M48,24c0,13.2-10.7,24-24,24C10.8,48,0,37.2,0,24S10.7,0,24,0C37.2,0,48,10.8,48,24z"/><path fill="#ecb51f" d="M7.5 14.8c0-5 .3-6.6 3-10.5C4.2 8.6 0 15.8 0 24c0 13.2 10.7 24 24 24 8.2 0 15.4-4.1 19.7-10.4-3.9 2.7-6.9 2.2-12 2.2-13.2 0-24.2-11.8-24.2-25z"/><path fill="none" stroke="#42434a" stroke-width="3" stroke-linecap="round" d="M37.7,25.7c0,8.8-7.2,16-16,16"/><circle fill="#f9f6ea" cx="12.7" cy="16.4" r="4.9"/><g fill="#42434a"><circle cx="12.7" cy="16.4" r="3.1"/><circle cx="12.7" cy="16.4" r="1.7"/></g><path fill="#f9f6ea" d="M15.9,14.9c0,0.9-0.7,1.6-1.6,1.6c-0.9,0-1.6-0.7-1.6-1.6s0.7-1.6,1.6-1.6C15.2,13.3,15.9,14,15.9,14.9z"/><path fill="none" stroke="#42434a" stroke-width="3" stroke-linecap="round" d="M28.7,18.1h9.2"/></svg>