<svg xmlns="http://www.w3.org/2000/svg" viewBox="0 0 48 48"><path fill="#fcc54e" d="M31.7 3.6L17.5 17.8a8.98 8.98 0 0 0-1.6 10.5c.4.8 1 1.5 1.6 2.2.7.7 1.4 1.2 2.2 1.6l6.1-6.1c-1.1 1.1-2.8 1.1-3.8 0-1.1-1.1-1.1-2.8 0-3.8l6.5-6.5L36.1 8A2.91 2.91 0 0 1 40 8c1.1 1.1 1.1 2.8 0 3.8l-7.8 7.8c1.7 3.4 1.2 7.7-1.6 10.5l13.8-13.8c3.5-3.5 3.5-9.2 0-12.7s-9.2-3.5-12.7 0z"/><path fill="#3cb7c6" d="M28.4 15.8l-6.1 6.1c1.1-1.1 2.8-1.1 3.8 0 1.1 1.1 1.1 2.8 0 3.8l-6.5 6.5-7.7 7.8A2.91 2.91 0 0 1 8 40a2.91 2.91 0 0 1 0-3.9l7.8-7.8c-1.7-3.4-1.2-7.7 1.6-10.5L3.6 31.7c-3.5 3.5-3.5 9.2 0 12.7s9.2 3.5 12.7 0l14.2-14.2a8.98 8.98 0 0 0 1.6-10.5c-.4-.8-1-1.5-1.6-2.2s-1.3-1.3-2.1-1.7z"/><path d="M2.9 31a9.96 9.96 0 0 0 0 14.1c2 1.9 4.5 2.9 7 2.9s5.1-1 7-2.9L45.1 17a9.96 9.96 0 0 0 0-14.1 9.96 9.96 0 0 0-14.1 0L2.9 31zm12.7 12.7c-3.1 3.1-8.2 3.1-11.4 0-3.1-3.1-3.1-8.2 0-11.4l9.7-9.7v.1c-.3 1.8 0 3.7.7 5.4l-7.3 7.3c-1.4 1.4-1.4 3.8 0 5.2.7.8 1.7 1.1 2.6 1.1s1.9-.4 2.6-1.1l14.2-14.2c1.4-1.4 1.4-3.8 0-5.2-.4-.4-1-.8-1.6-.9l3.3-3.3a7.55 7.55 0 0 1 1.4 1.1 9.51 9.51 0 0 1 1.5 2c1.6 3.1 1 6.9-1.5 9.4L15.6 43.7zm6.9-18.2a1.75 1.75 0 0 1 0-2.5l.4-.4a1.75 1.75 0 0 1 2.5 0 1.75 1.75 0 0 1 0 2.5l-.4.4c-.7.6-1.8.6-2.5 0zm9.9-7.4c-.3-.5-.7-.9-1.1-1.4s-.9-.8-1.4-1.1l6.9-6.9a1.75 1.75 0 0 1 2.5 0 1.75 1.75 0 0 1 0 2.5l-6.9 6.9zM15.6 29.9c.3.5.7.9 1.1 1.4s.9.8 1.4 1.1l-6.9 6.9a1.75 1.75 0 0 1-2.5 0 1.75 1.75 0 0 1 0-2.5l6.9-6.9zm28.1-14.3L34 25.3v-.1c.3-1.8 0-3.7-.7-5.4l7.3-7.3c1.4-1.4 1.4-3.8 0-5.2-.6-.7-1.6-1-2.5-1s-1.9.4-2.6 1.1L21.3 21.6c-1.4 1.4-1.4 3.8 0 5.2.4.4 1 .8 1.6.9L19.5 31a7.55 7.55 0 0 1-1.4-1.1 9.51 9.51 0 0 1-1.5-2c-1.6-3.1-1-6.9 1.5-9.4L32.4 4.3c3.1-3.1 8.2-3.1 11.4 0a7.94 7.94 0 0 1-.1 11.3zM32.3 6.1l-1.5 1.5c-.4.4-.4 1 0 1.3.2.2.4.3.7.3s.5 0 .6-.2l1.5-1.5c.4-.4.4-1 0-1.3s-.9-.5-1.3-.1zM28.4 10l-9.7 9.7c-.4.4-.4 1 0 1.3.2.2.4.3.7.3s.5-.1.7-.3l9.7-9.7c.4-.4.4-1 0-1.3s-1-.3-1.4 0z"/></svg>