<?xml version="1.0" encoding="iso-8859-1"?>
<!-- Generator: Adobe Illustrator 19.0.0, SVG Export Plug-In . SVG Version: 6.00 Build 0)  -->
<svg version="1.1" id="Layer_1" xmlns="http://www.w3.org/2000/svg" xmlns:xlink="http://www.w3.org/1999/xlink" x="0px" y="0px"
	 viewBox="0 0 501.991 501.991" style="enable-background:new 0 0 501.991 501.991;" xml:space="preserve">
<g>
	<path style="fill:#FCC54E;" d="M331.442,37.506L186.795,182.153l-4.641,4.641c-29.672,29.672-35.331,74.394-16.996,109.818
		c4.33,8.366,9.988,16.218,16.996,23.226s14.86,12.666,23.226,16.996l63.407-63.407c-11.089,11.089-29.133,11.089-40.223,0
		c-11.089-11.089-11.089-29.133,0-40.223l4.641-4.641l63.407-63.407l81.24-81.24c11.089-11.089,29.133-11.089,40.223,0
		c11.089,11.089,11.089,29.133,0,40.223l-81.24,81.24c18.334,35.424,12.676,80.146-16.996,109.818L464.486,170.55
		c36.68-36.68,36.68-96.364,0-133.044S368.122,0.825,331.442,37.506z"/>
	<path style="fill:#3CB7C6;" d="M296.613,165.156l-63.407,63.407c11.089-11.089,29.133-11.089,40.223,0
		c11.089,11.089,11.089,29.133,0,40.223l-4.641,4.641l-63.407,63.407l-81.24,81.24c-11.089,11.089-29.133,11.089-40.223,0
		c-11.089-11.089-11.089-29.133,0-40.223l81.24-81.24c-18.334-35.424-12.676-80.146,16.996-109.818L37.507,331.441
		c-36.68,36.68-36.68,96.364,0,133.044s96.364,36.68,133.044,0l144.647-144.647l4.641-4.641
		c29.672-29.672,35.331-74.394,16.996-109.818c-4.33-8.366-9.988-16.218-16.996-23.226S304.979,169.487,296.613,165.156z"/>
	<g>
		<path d="M30.435,324.37c-40.579,40.58-40.579,106.607,0,147.187c20.29,20.29,46.941,30.434,73.593,30.434
			s53.304-10.145,73.594-30.434l293.935-293.936c40.579-40.58,40.579-106.607,0-147.187c-40.58-40.579-106.607-40.579-147.187,0
			L30.435,324.37z M163.48,457.414c-32.782,32.781-86.122,32.781-118.902,0c-32.781-32.781-32.781-86.121,0-118.902l101.334-101.334
			c-0.048,0.307-0.108,0.61-0.153,0.918c-2.792,19.049-0.17,38.807,7.369,56.414l-0.012,0.001l-76.27,76.27
			c-14.988,14.989-14.988,39.376,0,54.365c7.252,7.252,16.906,11.246,27.183,11.246s19.93-3.994,27.182-11.246l141.221-141.22
			l3.427-3.427l0,0l4.641-4.641c14.988-14.988,14.988-39.376,0-54.365c-4.722-4.722-10.377-7.956-16.377-9.703l34.159-34.159
			c5.23,3.308,10.083,7.19,14.487,11.594c6.115,6.115,11.224,13.097,15.186,20.752c16.924,32.699,10.821,72.143-15.186,98.15l0,0
			L163.48,457.414z M235.636,266.357c-7.19-7.191-7.19-18.891,0-26.081l4.641-4.641c7.19-7.19,18.89-7.19,26.081,0
			c7.19,7.191,7.19,18.891,0,26.081l-4.641,4.641C254.526,273.547,242.826,273.546,235.636,266.357z M338.775,189.298
			c-3.519-5.066-7.476-9.827-11.865-14.216c-4.389-4.389-9.15-8.346-14.216-11.864l72.23-72.229c7.19-7.19,18.89-7.19,26.08,0
			s7.19,18.89,0,26.08L338.775,189.298z M163.218,312.693c3.519,5.066,7.476,9.827,11.865,14.216s9.15,8.346,14.216,11.864
			l-72.23,72.229c-7.19,7.19-18.89,7.19-26.08,0s-7.19-18.89,0-26.08L163.218,312.693z M457.415,163.479L356.081,264.813
			c0.048-0.307,0.108-0.61,0.153-0.918c2.792-19.049,0.17-38.807-7.369-56.414l0.012-0.001l76.27-76.27
			c14.988-14.989,14.988-39.376,0-54.365c-7.252-7.252-16.906-11.246-27.183-11.246s-19.93,3.994-27.182,11.246l-141.221,141.22
			l-3.427,3.427l0,0l-4.641,4.641c-14.988,14.988-14.988,39.376,0,54.365c4.722,4.722,10.377,7.956,16.377,9.703l-34.159,34.159
			c-5.23-3.308-10.083-7.19-14.487-11.594c-6.115-6.115-11.224-13.097-15.186-20.752c-16.924-32.699-10.821-72.143,15.186-98.15l0,0
			L338.513,44.577l0,0c32.781-32.782,86.121-32.782,118.902,0C490.196,77.358,490.196,130.698,457.415,163.479z"/>
		<path d="M337.925,63.924l-16,16c-3.905,3.905-3.905,10.237,0,14.143c1.953,1.953,4.512,2.929,7.071,2.929s5.119-0.976,7.071-2.929
			l16-16c3.905-3.905,3.905-10.237,0-14.143C348.162,60.019,341.83,60.019,337.925,63.924z"/>
		<path d="M296.925,104.924l-101,101c-3.905,3.905-3.905,10.237,0,14.143c1.953,1.953,4.512,2.929,7.071,2.929
			s5.119-0.976,7.071-2.929l101-101c3.905-3.905,3.905-10.237,0-14.143C307.162,101.019,300.83,101.019,296.925,104.924z"/>
	</g>
</g>
<g>
</g>
<g>
</g>
<g>
</g>
<g>
</g>
<g>
</g>
<g>
</g>
<g>
</g>
<g>
</g>
<g>
</g>
<g>
</g>
<g>
</g>
<g>
</g>
<g>
</g>
<g>
</g>
<g>
</g>
</svg>
