<?xml version="1.0" encoding="utf-8"?>
<!-- Generator: Adobe Illustrator 22.0.1, SVG Export Plug-In . SVG Version: 6.00 Build 0)  -->
<svg version="1.1" id="weblink" xmlns="http://www.w3.org/2000/svg" xmlns:xlink="http://www.w3.org/1999/xlink" x="0px" y="0px"
     viewBox="0 0 502 502" enable-background="new 0 0 502 502" xml:space="preserve">
<g>
    <path fill="#FCC54E" d="M331.4,37.5L186.8,182.2l-4.6,4.6c-29.7,29.7-35.3,74.4-17,109.8c4.3,8.4,10,16.2,17,23.2
        s14.9,12.7,23.2,17l63.4-63.4c-11.1,11.1-29.1,11.1-40.2,0c-11.1-11.1-11.1-29.1,0-40.2l4.6-4.6l63.4-63.4l81.2-81.2
        c11.1-11.1,29.1-11.1,40.2,0c11.1,11.1,11.1,29.1,0,40.2l-81.2,81.2c18.3,35.4,12.7,80.1-17,109.8l144.6-144.6
        c36.7-36.7,36.7-96.4,0-133S368.1,0.8,331.4,37.5z"/>
    <path fill="#3CB7C6" d="M296.6,165.2l-63.4,63.4c11.1-11.1,29.1-11.1,40.2,0c11.1,11.1,11.1,29.1,0,40.2l-4.6,4.6l-63.4,63.4
        l-81.2,81.2c-11.1,11.1-29.1,11.1-40.2,0c-11.1-11.1-11.1-29.1,0-40.2l81.2-81.2c-18.3-35.4-12.7-80.1,17-109.8L37.5,331.4
        c-36.7,36.7-36.7,96.4,0,133s96.4,36.7,133,0l144.6-144.6l4.6-4.6c29.7-29.7,35.3-74.4,17-109.8c-4.3-8.4-10-16.2-17-23.2
        S305,169.5,296.6,165.2z"/>
    <g>
        <path d="M30.4,324.4c-40.6,40.6-40.6,106.6,0,147.2C50.7,491.8,77.4,502,104,502s53.3-10.1,73.6-30.4l293.9-293.9
            c40.6-40.6,40.6-106.6,0-147.2C431-10.1,365-10.1,324.4,30.4L30.4,324.4z M163.5,457.4c-32.8,32.8-86.1,32.8-118.9,0
            c-32.8-32.8-32.8-86.1,0-118.9l101.3-101.3c0,0.3-0.1,0.6-0.2,0.9c-2.8,19-0.2,38.8,7.4,56.4l0,0l-76.3,76.3
            c-15,15-15,39.4,0,54.4c7.3,7.3,16.9,11.2,27.2,11.2s19.9-4,27.2-11.2l141.2-141.2l3.4-3.4l0,0l4.6-4.6c15-15,15-39.4,0-54.4
            c-4.7-4.7-10.4-8-16.4-9.7l34.2-34.2c5.2,3.3,10.1,7.2,14.5,11.6c6.1,6.1,11.2,13.1,15.2,20.8c16.9,32.7,10.8,72.1-15.2,98.1l0,0
            L163.5,457.4z M235.6,266.4c-7.2-7.2-7.2-18.9,0-26.1l4.6-4.6c7.2-7.2,18.9-7.2,26.1,0c7.2,7.2,7.2,18.9,0,26.1l-4.6,4.6
            C254.5,273.5,242.8,273.5,235.6,266.4z M338.8,189.3c-3.5-5.1-7.5-9.8-11.9-14.2c-4.4-4.4-9.1-8.3-14.2-11.9L384.9,91
            c7.2-7.2,18.9-7.2,26.1,0s7.2,18.9,0,26.1L338.8,189.3z M163.2,312.7c3.5,5.1,7.5,9.8,11.9,14.2s9.1,8.3,14.2,11.9L117.1,411
            c-7.2,7.2-18.9,7.2-26.1,0s-7.2-18.9,0-26.1L163.2,312.7z M457.4,163.5L356.1,264.8c0-0.3,0.1-0.6,0.2-0.9
            c2.8-19,0.2-38.8-7.4-56.4l0,0l76.3-76.3c15-15,15-39.4,0-54.4c-7.3-7.3-16.9-11.2-27.2-11.2s-19.9,4-27.2,11.2L229.6,218.1
            l-3.4,3.4l0,0l-4.6,4.6c-15,15-15,39.4,0,54.4c4.7,4.7,10.4,8,16.4,9.7l-34.2,34.2c-5.2-3.3-10.1-7.2-14.5-11.6
            c-6.1-6.1-11.2-13.1-15.2-20.8c-16.9-32.7-10.8-72.1,15.2-98.1l0,0L338.5,44.6l0,0c32.8-32.8,86.1-32.8,118.9,0
            C490.2,77.4,490.2,130.7,457.4,163.5z"/>
        <path d="M337.9,63.9l-16,16c-3.9,3.9-3.9,10.2,0,14.1c2,2,4.5,2.9,7.1,2.9s5.1-1,7.1-2.9l16-16c3.9-3.9,3.9-10.2,0-14.1
            C348.2,60,341.8,60,337.9,63.9z"/>
        <path d="M296.9,104.9l-101,101c-3.9,3.9-3.9,10.2,0,14.1c2,2,4.5,2.9,7.1,2.9s5.1-1,7.1-2.9l101-101c3.9-3.9,3.9-10.2,0-14.1
            C307.2,101,300.8,101,296.9,104.9z"/>
    </g>
</g>
</svg>
