<?xml version="1.0" encoding="utf-8"?>
<!-- Generator: Adobe Illustrator 22.0.1, SVG Export Plug-In . SVG Version: 6.00 Build 0)  -->
<svg version="1.1" id="weblink" xmlns="http://www.w3.org/2000/svg" xmlns:xlink="http://www.w3.org/1999/xlink" x="0px" y="0px"
     viewBox="0 0 48 48" enable-background="new 0 0 48 48" xml:space="preserve">
<g>
    <path fill="#FCC54E" d="M31.7,3.6L17.9,17.4l-0.4,0.4c-2.8,2.8-3.4,7.1-1.6,10.5c0.4,0.8,1,1.5,1.6,2.2c0.7,0.7,1.4,1.2,2.2,1.6
        l6.1-6.1c-1.1,1.1-2.8,1.1-3.8,0c-1.1-1.1-1.1-2.8,0-3.8l0.4-0.4l6.1-6.1L36.1,8C37.2,7,38.9,7,40,8c1.1,1.1,1.1,2.8,0,3.8
        l-7.8,7.8c1.7,3.4,1.2,7.7-1.6,10.5l13.8-13.8c3.5-3.5,3.5-9.2,0-12.7C40.9,0.1,35.2,0.1,31.7,3.6z"/>
    <path fill="#3CB7C6" d="M28.4,15.8l-6.1,6.1c1.1-1.1,2.8-1.1,3.8,0c1.1,1.1,1.1,2.8,0,3.8l-0.4,0.4l-6.1,6.1L11.9,40
        C10.8,41,9.1,41,8,40C7,38.9,7,37.2,8,36.1l7.8-7.8c-1.7-3.4-1.2-7.7,1.6-10.5L3.6,31.7c-3.5,3.5-3.5,9.2,0,12.7
        c3.5,3.5,9.2,3.5,12.7,0l13.8-13.8l0.4-0.4c2.8-2.8,3.4-7.1,1.6-10.5c-0.4-0.8-1-1.5-1.6-2.2S29.2,16.2,28.4,15.8z"/>
    <g>
        <path d="M2.9,31C-1,34.9-1,41.2,2.9,45.1C4.9,47,7.4,48,9.9,48s5.1-1,7-2.9L45.1,17c3.9-3.9,3.9-10.2,0-14.1C41.2-1,34.9-1,31,2.9
            L2.9,31z M15.6,43.7c-3.1,3.1-8.2,3.1-11.4,0c-3.1-3.1-3.1-8.2,0-11.4l9.7-9.7c0,0,0,0.1,0,0.1c-0.3,1.8,0,3.7,0.7,5.4l0,0
            l-7.3,7.3c-1.4,1.4-1.4,3.8,0,5.2C8,41.4,9,41.7,9.9,41.7s1.9-0.4,2.6-1.1l13.5-13.5l0.3-0.3l0,0l0.4-0.4c1.4-1.4,1.4-3.8,0-5.2
            c-0.4-0.4-1-0.8-1.6-0.9l3.3-3.3c0.5,0.3,1,0.7,1.4,1.1c0.6,0.6,1.1,1.3,1.5,2c1.6,3.1,1,6.9-1.5,9.4l0,0L15.6,43.7z M22.5,25.5
            c-0.7-0.7-0.7-1.8,0-2.5l0.4-0.4c0.7-0.7,1.8-0.7,2.5,0s0.7,1.8,0,2.5L25,25.5C24.3,26.1,23.2,26.1,22.5,25.5z M32.4,18.1
            c-0.3-0.5-0.7-0.9-1.1-1.4s-0.9-0.8-1.4-1.1l6.9-6.9c0.7-0.7,1.8-0.7,2.5,0c0.7,0.7,0.7,1.8,0,2.5L32.4,18.1z M15.6,29.9
            c0.3,0.5,0.7,0.9,1.1,1.4s0.9,0.8,1.4,1.1l-6.9,6.9c-0.7,0.7-1.8,0.7-2.5,0c-0.7-0.7-0.7-1.8,0-2.5L15.6,29.9z M43.7,15.6
            l-9.7,9.7c0,0,0-0.1,0-0.1c0.3-1.8,0-3.7-0.7-5.4l0,0l7.3-7.3c1.4-1.4,1.4-3.8,0-5.2C40,6.6,39,6.3,38.1,6.3s-1.9,0.4-2.6,1.1
            L22,20.9l-0.3,0.3l0,0l-0.4,0.4c-1.4,1.4-1.4,3.8,0,5.2c0.4,0.4,1,0.8,1.6,0.9L19.5,31c-0.5-0.3-1-0.7-1.4-1.1
            c-0.6-0.6-1.1-1.3-1.5-2c-1.6-3.1-1-6.9,1.5-9.4l0,0L32.4,4.3l0,0c3.1-3.1,8.2-3.1,11.4,0C46.9,7.4,46.9,12.5,43.7,15.6z"/>
        <path d="M32.3,6.1l-1.5,1.5c-0.4,0.4-0.4,1,0,1.3c0.2,0.2,0.4,0.3,0.7,0.3S32,9.2,32.1,9l1.5-1.5c0.4-0.4,0.4-1,0-1.3
            S32.7,5.7,32.3,6.1z"/>
        <path d="M28.4,10l-9.7,9.7c-0.4,0.4-0.4,1,0,1.3c0.2,0.2,0.4,0.3,0.7,0.3s0.5-0.1,0.7-0.3l9.7-9.7c0.4-0.4,0.4-1,0-1.3
            C29.4,9.7,28.8,9.7,28.4,10z"/>
    </g>
</g>
</svg>
