<?xml version="1.0" encoding="iso-8859-1"?>
<!-- Generator: Adobe Illustrator 19.0.0, SVG Export Plug-In . SVG Version: 6.00 Build 0)  -->
<svg version="1.1" id="Layer_1" xmlns="http://www.w3.org/2000/svg" xmlns:xlink="http://www.w3.org/1999/xlink" x="0px" y="0px"
	 viewBox="0 0 512.001 512.001" style="enable-background:new 0 0 512.001 512.001;" xml:space="preserve">
<rect x="31.167" y="292.773" style="fill:#127481;" width="77.12" height="204.368"/>
<path style="fill:#FFC798;" d="M111.482,452.297l26.376,21.214c21.095,16.966,47.354,26.216,74.425,26.216h74.288
	c23.887,0,47.217-7.203,66.947-20.669l116.766-79.698c7.263-4.958,11.609-13.185,11.609-21.979l0,0
	c0-19.673-20.609-32.545-38.288-23.912l-105.261,51.399v-25.184c0-15.068-12.215-27.283-27.283-27.283h-84.547
	c-18.522,0-36.939-2.785-54.632-8.262l-61.452-19.02L111.482,452.297z"/>
<path style="fill:#F4A026;" d="M253.184,16.231l26.07,80.234c0.638,1.963,2.467,3.29,4.53,3.29h84.401
	c4.609,0,6.531,5.896,2.805,8.612l-68.304,49.786c-1.665,1.213-2.361,3.36-1.725,5.319l26.082,80.353
	c1.424,4.387-3.595,8.033-7.328,5.324l-68.262-49.555c-1.67-1.212-3.929-1.211-5.598,0.001l-68.262,49.615
	c-3.731,2.712-8.753-0.934-7.33-5.321l26.085-80.428c0.635-1.959-0.06-4.105-1.725-5.319l-68.303-49.773
	c-3.726-2.715-1.805-8.612,2.805-8.612h84.4c2.063,0,3.892-1.329,4.53-3.29l26.07-80.234
	C245.55,11.844,251.758,11.844,253.184,16.231z"/>
<g>
	<path style="fill:#231F20;" d="M476.191,343.909c-11.619-7.257-26.434-8.003-38.748-1.99l-87.293,42.368v-4.604
		c0-22.131-16.952-39.919-39.083-39.919H226.52c-17.25,0-34.888-2.695-51.367-7.794l-55.077-16.991v-22.208
		c0-7.099-4.685-13.416-11.783-13.416h-77.12c-7.098,0-13.924,6.319-13.924,13.416V497.14c0,7.099,6.826,12.29,13.924,12.29h77.12
		c7.098,0,11.783-5.191,11.783-12.29v-20.577l9.195,6.675c23.295,18.735,53.123,28.763,83.016,28.763h74.288
		c26.582,0,52.237-7.631,74.193-22.615l116.766-79.552c10.78-7.359,17.217-19.472,17.217-32.523
		C494.748,363.607,487.811,351.167,476.191,343.909z M94.367,483.723H42.953V305.061h51.413V483.723z M463.039,388.744
		l-116.766,79.407c-17.667,12.059-38.311,18.142-59.7,18.142h-74.288c-24.055,0-48.16-8.013-66.904-23.088l-25.307-19.632V341.889
		l47.475,14.637c18.943,5.864,39.14,8.945,58.969,8.945h84.547c7.955,0,13.376,6.256,13.376,14.212v15.538
		c-15.424,4.213-51.517,11.677-88.053,5.798c-7.001-1.126-13.34,3.64-14.469,10.648c-1.127,7.009,3.771,13.604,10.779,14.733
		c11.176,1.798,22.28,2.519,32.807,2.519c41.638,0,75.227-11.294,76.976-11.893c0.477-0.163,0.95-0.359,1.395-0.571
		c0.031-0.015,0.072-0.024,0.103-0.039l105.265-51.399c4.359-2.127,9.217-1.874,13.328,0.694c4.11,2.568,6.47,6.821,6.47,11.668
		C469.04,381.932,466.797,386.179,463.039,388.744z"/>
	<path style="fill:#231F20;" d="M118.752,118.756l63.561,46.32l-24.275,74.848c-2.362,7.28,0.212,15.193,6.405,19.69
		c3.095,2.248,6.722,3.373,10.351,3.371c3.628,0,7.26-1.125,10.357-3.377l63.508-46.159l63.506,46.104
		c6.193,4.495,14.513,4.494,20.703-0.005c6.189-4.499,8.762-12.41,6.4-19.69l-24.271-74.772l63.565-46.331
		c6.181-4.506,8.74-12.595,6.37-19.867c-2.37-7.272-9.1-12.333-16.748-12.333H289.66l-24.252-74.466
		C263.044,4.806,256.311,0,248.654,0c-7.657,0-14.389,4.762-16.753,12.041l-24.254,74.513h-78.521
		c-7.649,0-14.38,5.062-16.749,12.337C110.008,106.165,112.57,114.253,118.752,118.756z M213.526,112.261
		c7.654,0,14.387-4.716,16.753-11.997l18.375-56.465l18.375,56.421c2.366,7.28,9.099,12.04,16.753,12.04h59.566l-48.236,35.334
		c-6.173,4.501-8.735,12.496-6.377,19.759l18.403,56.74l-48.134-34.923c-6.195-4.499-14.517-4.483-20.704,0.017l-48.132,34.989
		l18.407-56.757c2.356-7.269-0.21-15.347-6.383-19.843l-48.227-35.316H213.526z"/>
</g>
<g>
</g>
<g>
</g>
<g>
</g>
<g>
</g>
<g>
</g>
<g>
</g>
<g>
</g>
<g>
</g>
<g>
</g>
<g>
</g>
<g>
</g>
<g>
</g>
<g>
</g>
<g>
</g>
<g>
</g>
</svg>
