<svg version="1.1" xmlns="http://www.w3.org/2000/svg" xmlns:xlink="http://www.w3.org/1999/xlink" x="0px" y="0px"
	 viewBox="0 0 512 512" style="enable-background:new 0 0 512 512;" xml:space="preserve">
<rect x="31.2" y="292.8" style="fill:#127481;" width="77.1" height="204.4"/>
<path style="fill:#FFC798;" d="M111.5,452.3l26.4,21.2c21.1,17,47.4,26.2,74.4,26.2h74.3c23.9,0,47.2-7.2,66.9-20.7l116.8-79.7
	c7.3-5,11.6-13.2,11.6-22l0,0c0-19.7-20.6-32.5-38.3-23.9l-105.3,51.4v-25.2c0-15.1-12.2-27.3-27.3-27.3h-84.5
	c-18.5,0-36.9-2.8-54.6-8.3l-61.5-19L111.5,452.3z"/>
<path style="fill:#F4A026;" d="M253.2,16.2l26.1,80.2c0.6,2,2.5,3.3,4.5,3.3h84.4c4.6,0,6.5,5.9,2.8,8.6l-68.3,49.8
	c-1.7,1.2-2.4,3.4-1.7,5.3l26.1,80.4c1.4,4.4-3.6,8-7.3,5.3l-68.3-49.6c-1.7-1.2-3.9-1.2-5.6,0l-68.3,49.6c-3.7,2.7-8.8-0.9-7.3-5.3
	l26.1-80.4c0.6-2-0.1-4.1-1.7-5.3l-68.3-49.8c-3.7-2.7-1.8-8.6,2.8-8.6h84.4c2.1,0,3.9-1.3,4.5-3.3l26.1-80.2
	C245.6,11.8,251.8,11.8,253.2,16.2z"/>
<g>
	<path style="fill:#231F20;" d="M476.2,343.9c-11.6-7.3-26.4-8-38.7-2l-87.3,42.4v-4.6c0-22.1-17-39.9-39.1-39.9h-84.5
		c-17.3,0-34.9-2.7-51.4-7.8l-55.1-17v-22.2c0-7.1-4.7-13.4-11.8-13.4H31.2c-7.1,0-13.9,6.3-13.9,13.4v204.4
		c0,7.1,6.8,12.3,13.9,12.3h77.1c7.1,0,11.8-5.2,11.8-12.3v-20.6l9.2,6.7c23.3,18.7,53.1,28.8,83,28.8h74.3
		c26.6,0,52.2-7.6,74.2-22.6l116.8-79.6c10.8-7.4,17.2-19.5,17.2-32.5C494.7,363.6,487.8,351.2,476.2,343.9z M94.4,483.7H43V305.1
		h51.4L94.4,483.7L94.4,483.7z M463,388.7l-116.8,79.4c-17.7,12.1-38.3,18.1-59.7,18.1h-74.3c-24.1,0-48.2-8-66.9-23.1l-25.3-19.6
		V341.9l47.5,14.6c18.9,5.9,39.1,8.9,59,8.9h84.5c8,0,13.4,6.3,13.4,14.2v15.5c-15.4,4.2-51.5,11.7-88.1,5.8
		c-7-1.1-13.3,3.6-14.5,10.6c-1.1,7,3.8,13.6,10.8,14.7c11.2,1.8,22.3,2.5,32.8,2.5c41.6,0,75.2-11.3,77-11.9c0.5-0.2,1-0.4,1.4-0.6
		c0,0,0.1,0,0.1,0L449.2,365c4.4-2.1,9.2-1.9,13.3,0.7c4.1,2.6,6.5,6.8,6.5,11.7C469,381.9,466.8,386.2,463,388.7z"/>
	<path style="fill:#231F20;" d="M118.8,118.8l63.6,46.3L158,239.9c-2.4,7.3,0.2,15.2,6.4,19.7c3.1,2.2,6.7,3.4,10.4,3.4
		c3.6,0,7.3-1.1,10.4-3.4l63.5-46.2l63.5,46.1c6.2,4.5,14.5,4.5,20.7,0c6.2-4.5,8.8-12.4,6.4-19.7L315,165.1l63.6-46.3
		c6.2-4.5,8.7-12.6,6.4-19.9c-2.4-7.3-9.1-12.3-16.7-12.3h-78.5l-24.3-74.5C263,4.8,256.3,0,248.7,0s-14.4,4.8-16.8,12l-24.3,74.5
		h-78.5c-7.6,0-14.4,5.1-16.7,12.3C110,106.2,112.6,114.3,118.8,118.8z M213.5,112.3c7.7,0,14.4-4.7,16.8-12l18.4-56.5l18.4,56.4
		c2.4,7.3,9.1,12,16.8,12h59.6l-48.2,35.3c-6.2,4.5-8.7,12.5-6.4,19.8l18.4,56.7L259,189.2c-6.2-4.5-14.5-4.5-20.7,0l-48.1,35
		l18.4-56.8c2.4-7.3-0.2-15.3-6.4-19.8L154,112.3L213.5,112.3L213.5,112.3z"/>
</g>
</svg>