<svg xmlns="http://www.w3.org/2000/svg" viewBox="0 0 512 512"><path d="M31.2 292.8h77.1v204.4H31.2z" fill="#127481"/><path d="M111.5 452.3l26.4 21.2c21.1 17 47.4 26.2 74.4 26.2h74.3c23.9 0 47.2-7.2 66.9-20.7l116.8-79.7c7.3-5 11.6-13.2 11.6-22 0-19.7-20.6-32.5-38.3-23.9l-105.3 51.4v-25.2c0-15.1-12.2-27.3-27.3-27.3h-84.5c-18.5 0-36.9-2.8-54.6-8.3l-61.5-19 1.1 127.3z" fill="#ffc798"/><path d="M253.2 16.2l26.1 80.2c.6 2 2.5 3.3 4.5 3.3h84.4c4.6 0 6.5 5.9 2.8 8.6l-68.3 49.8c-1.7 1.2-2.4 3.4-1.7 5.3l26.1 80.4c1.4 4.4-3.6 8-7.3 5.3l-68.3-49.6c-1.7-1.2-3.9-1.2-5.6 0l-68.3 49.6c-3.7 2.7-8.8-.9-7.3-5.3l26.1-80.4c.6-2-.1-4.1-1.7-5.3l-68.3-49.8c-3.7-2.7-1.8-8.6 2.8-8.6h84.4c2.1 0 3.9-1.3 4.5-3.3l26.1-80.2c1.4-4.4 7.6-4.4 9 0z" fill="#f4a026"/><path d="M476.2 343.9c-11.6-7.3-26.4-8-38.7-2l-87.3 42.4v-4.6c0-22.1-17-39.9-39.1-39.9h-84.5c-17.3 0-34.9-2.7-51.4-7.8l-55.1-17v-22.2c0-7.1-4.7-13.4-11.8-13.4H31.2c-7.1 0-13.9 6.3-13.9 13.4v204.4c0 7.1 6.8 12.3 13.9 12.3h77.1c7.1 0 11.8-5.2 11.8-12.3v-20.6l9.2 6.7c23.3 18.7 53.1 28.8 83 28.8h74.3c26.6 0 52.2-7.6 74.2-22.6l116.8-79.6c10.8-7.4 17.2-19.5 17.2-32.5-.1-13.8-7-26.2-18.6-33.5zM94.4 483.7H43V305.1h51.4v178.6zm368.6-95l-116.8 79.4c-17.7 12.1-38.3 18.1-59.7 18.1h-74.3c-24.1 0-48.2-8-66.9-23.1L120 443.5V341.9l47.5 14.6c18.9 5.9 39.1 8.9 59 8.9H311c8 0 13.4 6.3 13.4 14.2v15.5c-15.4 4.2-51.5 11.7-88.1 5.8-7-1.1-13.3 3.6-14.5 10.6-1.1 7 3.8 13.6 10.8 14.7 11.2 1.8 22.3 2.5 32.8 2.5 41.6 0 75.2-11.3 77-11.9.5-.2 1-.4 1.4-.6h.1L449.2 365c4.4-2.1 9.2-1.9 13.3.7s6.5 6.8 6.5 11.7c0 4.5-2.2 8.8-6 11.3zM118.8 118.8l63.6 46.3-24.4 74.8c-2.4 7.3.2 15.2 6.4 19.7 3.1 2.2 6.7 3.4 10.4 3.4 3.6 0 7.3-1.1 10.4-3.4l63.5-46.2 63.5 46.1c6.2 4.5 14.5 4.5 20.7 0s8.8-12.4 6.4-19.7L315 165.1l63.6-46.3c6.2-4.5 8.7-12.6 6.4-19.9-2.4-7.3-9.1-12.3-16.7-12.3h-78.5l-24.3-74.5C263 4.8 256.3 0 248.7 0s-14.4 4.8-16.8 12l-24.3 74.5h-78.5c-7.6 0-14.4 5.1-16.7 12.3-2.4 7.4.2 15.5 6.4 20zm94.7-6.5c7.7 0 14.4-4.7 16.8-12l18.4-56.5 18.4 56.4c2.4 7.3 9.1 12 16.8 12h59.6l-48.2 35.3c-6.2 4.5-8.7 12.5-6.4 19.8l18.4 56.7-48.3-34.8c-6.2-4.5-14.5-4.5-20.7 0l-48.1 35 18.4-56.8c2.4-7.3-.2-15.3-6.4-19.8L154 112.3h59.5z" fill="#231f20"/></svg>