<?xml version="1.0" encoding="utf-8"?>
<!-- Generator: Adobe Illustrator 22.1.0, SVG Export Plug-In . SVG Version: 6.00 Build 0)  -->
<svg version="1.1" id="login" xmlns="http://www.w3.org/2000/svg" xmlns:xlink="http://www.w3.org/1999/xlink" x="0px" y="0px"
     viewBox="0 0 48 48" enable-background="new 0 0 48 48" xml:space="preserve">
<path fill="#959CB5" d="M1.6,44.7V3.3c0-1.4,1.1-2.5,2.5-2.5h31.5c1.4,0,2.5,1.1,2.5,2.5v41.5c0,1.4-1.1,2.5-2.5,2.5H4.1
    C2.7,47.2,1.6,46.1,1.6,44.7z"/>
<path fill="#7F8499" d="M38.1,35.6V12.4c-0.3,0-0.5,0-0.8,0c-6.4,0-11.6,5.2-11.6,11.6s5.2,11.6,11.6,11.6
    C37.6,35.6,37.8,35.6,38.1,35.6z"/>
<rect x="4.9" y="7.4" fill="#C8FF82" width="29.9" height="33.2"/>
<g>
    <circle fill="#B4E66E" cx="19.9" cy="17.4" r="3.3"/>
    <path fill="#B4E66E" d="M23.4,23.8c-0.4-0.3-0.8-0.2-1.2,0.1c-0.6,0.7-1.5,1.1-2.4,1.1c-1,0-1.8-0.4-2.4-1.1
        c-0.3-0.3-0.8-0.4-1.2-0.1c-1.3,1.1-2.2,2.7-2.2,4.6v2.3h11.6v-2.3C25.7,26.5,24.8,24.9,23.4,23.8z"/>
</g>
<g>
    <path fill="#A0D755" d="M17.4,30v-1.7c0-1.4,0.5-2.6,1.2-3.6c-0.5-0.2-0.9-0.5-1.2-0.8c-0.3-0.3-0.8-0.4-1.1-0.1
        c-1.4,1.1-2.2,2.7-2.2,4.6v2.3H18C17.6,30.6,17.4,30.4,17.4,30z"/>
    <path fill="#A0D755" d="M19,16.5c0-1,0.4-1.9,1.1-2.5c-0.1,0-0.2,0-0.3,0c-1.8,0-3.3,1.5-3.3,3.3c0,1.8,1.5,3.3,3.3,3.3
        c0.9,0,1.6-0.3,2.2-0.9C20.4,19.7,19,18.3,19,16.5z"/>
</g>
<path fill="#B4E66E" d="M34.8,12.7c-5.2,1.1-9.1,5.8-9.1,11.3s3.9,10.2,9.1,11.3V12.7L34.8,12.7z"/>
<path fill="#FFC850" d="M35.7,15c-3.9,0.6-6.9,3.8-7.5,7.7c-0.5,3.5,1,6.6,3.5,8.6c-0.7,1.3-1.5,2.2-2,2.8c-0.2,0.2,0,0.6,0.3,0.5
    c1.1-0.2,2.9-0.7,4.5-1.9c1.2,0.4,2.5,0.5,3.9,0.3c4-0.5,7.2-3.6,7.8-7.6C47.3,19.3,41.9,14,35.7,15z"/>
<circle fill="#FFDC64" cx="37.3" cy="24" r="6.6"/>
<path d="M38.1,35.7c-0.4,0-0.8,0.3-0.8,0.8v8.3c0,0.9-0.8,1.7-1.7,1.7H4.1c-0.9,0-1.7-0.8-1.7-1.7V3.3c0-0.9,0.8-1.7,1.7-1.7h31.5
    c0.9,0,1.7,0.8,1.7,1.7v8.3c0,0.4,0.3,0.8,0.8,0.8c0.4,0,0.8-0.3,0.8-0.8V3.3c0-1.8-1.5-3.3-3.3-3.3H4.1C2.3,0,0.8,1.5,0.8,3.3v41.5
    c0,1.8,1.5,3.3,3.3,3.3h31.5c1.8,0,3.3-1.5,3.3-3.3v-8.3C38.9,36,38.5,35.7,38.1,35.7z"/>
<path d="M21.5,4.9c0.4,0,0.8-0.3,0.8-0.8c0-0.4-0.3-0.8-0.8-0.8h-3.3c-0.4,0-0.8,0.3-0.8,0.8c0,0.4,0.3,0.8,0.8,0.8H21.5z"/>
<path d="M15.7,4.1L15.7,4.1c0-0.4-0.3-0.8-0.8-0.8c-0.4,0-0.8,0.4-0.8,0.8s0.3,0.8,0.8,0.8C15.3,4.9,15.7,4.5,15.7,4.1z"/>
<path d="M18.2,43.1c-0.4,0-0.8,0.3-0.8,0.8c0,0.4,0.3,0.8,0.8,0.8h3.3c0.4,0,0.8-0.3,0.8-0.8c0-0.4-0.3-0.8-0.8-0.8H18.2z"/>
<path d="M34.8,12.3c0.4,0,0.8-0.3,0.8-0.8V7.4c0-0.4-0.3-0.8-0.8-0.8H4.9C4.5,6.6,4.1,7,4.1,7.4v33.2c0,0.4,0.3,0.8,0.8,0.8h29.9
    c0.4,0,0.8-0.3,0.8-0.8v-4.1c0-0.4-0.3-0.8-0.8-0.8c-0.4,0-0.8,0.3-0.8,0.8v3.4H5.7V8.2H34v3.4C34,12,34.4,12.3,34.8,12.3z"/>
<path d="M25.7,34H19c-0.4,0-0.8,0.3-0.8,0.8c0,0.4,0.3,0.8,0.8,0.8h6.6c0.4,0,0.8-0.3,0.8-0.8C26.4,34.4,26.1,34,25.7,34z"/>
<path d="M14,34c-0.4,0-0.8,0.3-0.8,0.8c0,0.4,0.3,0.8,0.8,0.8h1.7c0.4,0,0.8-0.3,0.8-0.8c0-0.4-0.3-0.8-0.8-0.8H14z"/>
<path d="M19.9,21.5c2.3,0,4.1-1.8,4.1-4.1s-1.8-4.1-4.1-4.1s-4.1,1.8-4.1,4.1S17.6,21.5,19.9,21.5z M19.9,14.8
    c1.4,0,2.5,1.1,2.5,2.5c0,1.4-1.1,2.5-2.5,2.5c-1.4,0-2.5-1.1-2.5-2.5C17.3,16,18.5,14.8,19.9,14.8z"/>
<path d="M37.3,14.1c-5.5,0-9.9,4.4-9.9,9.9c0,2.9,1.2,5.5,3.4,7.4c-1.1,1.8-2.2,2.8-2.2,2.8c-0.3,0.2-0.3,0.6-0.2,0.9
    c0.1,0.3,0.4,0.5,0.7,0.5c0,0,0,0,0.1,0c0.1,0,3-0.3,5.6-2c0.8,0.2,1.7,0.3,2.6,0.3c5.5,0,9.9-4.4,9.9-9.9S42.7,14.1,37.3,14.1z
     M37.3,32.3c-0.9,0-1.7-0.1-2.5-0.4c-0.2-0.1-0.5,0-0.7,0.1c-1,0.7-2,1.1-2.9,1.4c0.4-0.5,0.8-1.2,1.2-1.9c0.2-0.3,0.1-0.8-0.2-1
    c-2.1-1.6-3.3-4-3.3-6.6c0-4.6,3.7-8.3,8.3-8.3s8.3,3.7,8.3,8.3S41.9,32.3,37.3,32.3z"/>
<path d="M39.6,19.2c-0.7,0-1.3,0.3-1.7,0.7c-0.8,0.8-0.9,1.9-0.5,2.8L33.2,27c-0.3,0.3-0.3,0.8,0,1.1c0.2,0.2,0.4,0.2,0.5,0.2
    c0.2,0,0.4-0.1,0.5-0.2l0.6-0.6l0.6,0.6c0.2,0.2,0.4,0.2,0.5,0.2c0.2,0,0.4-0.1,0.5-0.2c0.3-0.3,0.3-0.8,0-1.1L36,26.3l2.5-2.5
    c0.3,0.2,0.7,0.3,1.1,0.3c0.6,0,1.2-0.2,1.7-0.7c0.5-0.5,0.7-1.1,0.7-1.7s-0.3-1.3-0.7-1.7C40.9,19.5,40.3,19.2,39.6,19.2z
     M40.2,22.3c-0.3,0.3-0.9,0.3-1.2,0c-0.3-0.3-0.3-0.9,0-1.2c0.2-0.2,0.4-0.3,0.6-0.3s0.5,0.1,0.6,0.3c0.2,0.2,0.3,0.4,0.3,0.6
    S40.4,22.1,40.2,22.3z"/>
<path d="M26.4,28.1c0-2-0.9-3.9-2.5-5.2c-0.7-0.5-1.6-0.4-2.2,0.2c-0.5,0.5-1.1,0.8-1.9,0.8c-0.7,0-1.4-0.3-1.9-0.8
    c-0.6-0.6-1.6-0.8-2.2-0.2c-1.6,1.3-2.5,3.1-2.5,5.2v2.5c0,0.4,0.3,0.8,0.8,0.8h11.6c0.4,0,0.8-0.3,0.8-0.8L26.4,28.1L26.4,28.1z
     M24.9,29.9H14.8v-1.7c0-1.5,0.7-3,1.9-3.9c0,0,0.1,0,0.1,0.1c0.8,0.9,1.9,1.4,3,1.4s2.2-0.5,3-1.4c0,0,0.1-0.1,0.1-0.1l0,0l0,0
    c1.2,1,1.9,2.4,1.9,3.9L24.9,29.9L24.9,29.9z"/>
</svg>
