<svg xmlns="http://www.w3.org/2000/svg" viewBox="0 0 72 72"><path d="M72,64c0,4.4-3.6,8-8,8H8c-4.4,0-8-3.6-8-8V8c0-4.4,3.6-8,8-8h56c4.4,0,8,3.6,8,8V64z" fill="#ff9800"/><path d="M42.8 13.5c-8.5 0-15.4 6.2-15.4 13.9 0 .8.1 1.5.2 2.3-1-.2-2-.4-3.2-.4-3 0-5.3.8-6.7 2.4-1.8 2-1.5 4.4-1.5 4.4V38c-.4.5-.7 1.4-.7 2v2.7c0 .8.4 1.6 1 2.1.6 2.3 2.1 3.7 2.7 4.3v2.1c0 .6-.7 1.8-1.3 2.1l-3.1 2c-.7.4-.9 1.2-.7 1.9s.9 1.2 1.7 1.2h17.6c.8 0 1.4-.5 1.7-1.2a1.76 1.76 0 0 0-.7-1.9l-3.2-2c-.5-.3-1.3-1.5-1.3-2.1v-2.1c.7-.5 2.1-1.9 2.7-4.3.6-.5 1-1.3 1-2.1v-1.3c1.1-.4 2.2-.8 3.2-1.4 1.9.8 4 1.2 6.2 1.2 8.5 0 15.4-6.2 15.4-13.9s-7.2-13.8-15.6-13.8zM31.9 42.8a1.1 1.1 0 0 1-.6 1l-.2.2-.1.3c-.6 2.5-2.5 3.9-2.5 3.9l-.3.2v2.8c0 1.1 1 2.9 2 3.4l3.1 2c.1.1.1.1.1.2s-.1.2-.2.2H15.6c-.1 0-.2-.1-.2-.2s0-.2.1-.2l3.1-2c1-.6 2.1-2.3 2.1-3.4v-2.8l-.3-.2s-1.9-1.3-2.5-3.9l-.2-.3-.3-.2a1.1 1.1 0 0 1-.6-1v-2.7a2.2 2.2 0 0 1 .5-1.2l.2-.2v-2.8s-.2-1.8 1.2-3.3c1.1-1.2 3-1.9 5.6-1.9 1.4 0 2.6.2 3.6.6.4 1.2 1 2.4 1.8 3.5v.4c-.3 3-1.1 5.2-2.1 6.3L26 43.1l2.2-.3h.1c.4-.1 1.8-.3 3.6-.8v.8zm3.7-20.3h7.5c.4 0 .8.3.8.8 0 .4-.3.8-.8.8h-7.5c-.4 0-.8-.3-.8-.8.1-.5.4-.8.8-.8zm15 10.5h-15c-.4 0-.8-.3-.8-.8 0-.4.3-.8.8-.8h15c.4 0 .8.3.8.8s-.4.8-.8.8zm0-4.5h-15c-.4 0-.8-.3-.8-.8s.3-.8.8-.8h15c.4 0 .8.3.8.8s-.4.8-.8.8z" fill="#fff"/></svg>