<svg xmlns="http://www.w3.org/2000/svg" viewBox="0 0 72 72"><path d="M72,64c0,4.4-3.6,8-8,8H8c-4.4,0-8-3.6-8-8V8c0-4.4,3.6-8,8-8h56c4.4,0,8,3.6,8,8V64z" fill="#1a237e"/><path d="M46.2 18H16c-1.4 0-2.5 1.1-2.5 2.5v18.1c0 1.4 1.1 2.5 2.5 2.5h2v6.7c0 .4.3.8.7 1 .1.1.3.1.4.1.3 0 .5-.1.8-.3l7.5-7.5h1.5A1.11 1.11 0 0 0 30 40a1.11 1.11 0 0 0-1.1-1.1h-2a1.08 1.08 0 0 0-.7.3l-6 6v-5.3c0-.5-.5-1-1.1-1h-3c-.2 0-.4-.2-.4-.4v-18c0-.2.2-.4.4-.4h30.2c.2 0 .4.2.4.4v6.9a1.11 1.11 0 0 0 1.1 1.1 1.11 1.11 0 0 0 1.1-1.1v-6.9c-.1-1.4-1.3-2.5-2.7-2.5zM56 30.9H34.8c-1.4 0-2.5 1.1-2.5 2.5v12.4c0 1.4 1.1 2.5 2.5 2.5H48l5.4 5.4c.2.2.5.3.8.3.1 0 .3 0 .4-.1.4-.2.7-.6.7-1v-4.6h.7c1.4 0 2.5-1.1 2.5-2.5V33.5c0-1.4-1.1-2.6-2.5-2.6zm.4 14.9c0 .2-.2.4-.4.4h-1.8c-.6 0-1 .4-1.1 1v3.2l-3.9-3.9c-.2-.2-.4-.3-.7-.3H34.8c-.2 0-.4-.2-.4-.4V33.5c0-.2.2-.4.4-.4H56c.2 0 .4.2.4.4v12.3zm-11-7.2a1.11 1.11 0 0 0-1.1 1.1 1.11 1.11 0 0 0 1.1 1.1 1.11 1.11 0 0 0 1.1-1.1 1.11 1.11 0 0 0-1.1-1.1zM40.8 25H21.5a1.11 1.11 0 0 0-1.1 1.1 1.11 1.11 0 0 0 1.1 1.1h19.3a1.11 1.11 0 0 0 1.1-1.1c-.1-.6-.5-1.1-1.1-1.1zm-12 7h-7.3a1.11 1.11 0 0 0-1.1 1.1 1.11 1.11 0 0 0 1.1 1.1h7.3a1.11 1.11 0 0 0 1.1-1.1 1.11 1.11 0 0 0-1.1-1.1zm11.7 6.6a1.11 1.11 0 0 0-1.1 1.1 1.11 1.11 0 0 0 1.1 1.1 1.11 1.11 0 0 0 1.1-1.1 1.11 1.11 0 0 0-1.1-1.1zm9.8 0a1.11 1.11 0 0 0-1.1 1.1 1.11 1.11 0 0 0 1.1 1.1 1.11 1.11 0 0 0 1.1-1.1 1.11 1.11 0 0 0-1.1-1.1z" fill="#fff"/></svg>