<svg xmlns="http://www.w3.org/2000/svg" viewBox="0 0 256 256"><path fill="#a54824" d="M223.4 256H32.6C14.7 256 0 241.3 0 223.4V32.6C0 14.7 14.7 0 32.6 0h190.8C241.3 0 256 14.7 256 32.6v190.8c0 17.9-14.7 32.6-32.6 32.6z"/><path d="M177.3 157.2c-.1 1.6.7 3.1 2.1 3.8 1.3.6 2.6 1.3 3.8 2 15.5 8.4 23.6 22 24.4 40.8.2 5.1-.6 9.7-6.2 10.1-5.9.4-7.1-4.2-7.4-9.7-.8-14.7-7.9-24.9-20.3-29.3-1.7-.6-3.6 0-4.6 1.6-7.3 11.2-16 20.6-28.4 25.9-2.6 1.1-5.5-.8-5.5-3.6l-.1-49.8c-.1-5.6 0-14.1-6.1-14.2-6.8-.2-6.6 8.5-6.7 14.2-.3 15.7-.1 31.4-.1 47v2.7c0 2.8-2.9 4.7-5.5 3.6-12.5-5.5-21.2-14.7-28.4-25.9a4.08 4.08 0 0 0-4.7-1.6c-12.6 4.5-19.3 14.3-20.3 30.1-.3 5.2-1.9 9.3-7.4 8.9-5.2-.3-6.3-4.5-6.2-9.3.7-19 8.7-32.9 24.4-41.5 1.3-.7 2.7-1.4 3.9-2.1 1.4-.7 2.2-2.2 2.1-3.8-.5-6.5-4.4-7.9-10.3-7.3-10 1-12.5 1.2-17.3-.1a20.9 20.9 0 0 1-7.6-3.9c-.2-.2-.4-.3-.6-.6-.4-.5-.9-1.2-1-2.3-.1-.7 0-1.4.2-2 .4-1.1 1.2-1.9 2.3-2.3 4-1.5 7.5-2.3 10-2.7 2.9-.5 5.4-.5 10-.7 2.8-.1 5.3-.1 7.4-.1 2 0 3.8-1.5 3.9-3.6.2-2.2 0-4.9-.9-7.5-.8-2.3-2.2-4.4-4.4-6.5C59.4 105 56 88.3 56.6 70.7c.1-2.4 3.9-6.4 6-6.4 2.3 0 5.2 3.4 6.7 6 1.1 2 .3 5.2.6 7.8 1.4 12.7 4 25.5 15.3 32.1 25.8 14.8 52.5 15.6 79.6 4.3 10.1-4.2 16.7-11.8 19.5-23 1.7-6.7 2-13.7 3-20.6.6-4.3 2.7-8 6.9-6.8 2.5.7 6 4.3 6.1 6.7.6 17.6-2.8 34.3-15.2 46.7-4.3 4.3-5.7 8.5-5.2 13.8.2 2.1 2 3.6 4.1 3.5 3.5-.1 6.5-.1 8.9 0 3.3.2 6.3.3 10 1.1 3.3.7 6.1 1.6 8.1 2.4.5.2 1 .5 1.4.9.7.8 1.1 1.8.9 2.9s-.8 1.8-1.1 2c-2.9 3.3-5.8 4.6-7.8 5.2-4.2 1.3-7 1.4-17.9 0-6-.4-8.8 2.2-9.2 7.9zm-47.6-43.5c-8.5-1.2-15.7-1.8-22.9-3.5-9.4-2.3-14.8-8.9-16.1-19.5-1.2-10.4 1.6-18.8 9.8-24.2 5.5-3.6 10.2-6.9 13.2-13.8s9.8-9.6 17-8.7c7.3.8 11.9 5.3 15.4 12.1 1.4 2.8 3.8 5.7 6.4 7.2 11.9 6.7 16.5 16.2 13.9 30.1-1.5 8.2-5.8 13.8-13 15.7-8.1 2.3-16.4 3.3-23.7 4.6z" fill="#fff"/></svg>