<svg xmlns="http://www.w3.org/2000/svg" viewBox="0 0 256 256"><path fill="#968e8c" d="M223.3 256H32.6C14.7 256 0 241.3 0 223.4V32.6C0 14.7 14.7 0 32.6 0h190.8C241.3 0 256 14.7 256 32.6v190.8c0 17.9-14.7 32.6-32.7 32.6z"/><path fill="#fff" d="M210 119.9c-8.4-38.1-20.1-47.6-27.3-51.4-11.4-6.1-24.8-2.6-29.2-.2-5 2.6-8.4 7.5-13.4 9.7-5.9 2.4-13.8 3.1-19.9.2-4.8-2.4-9-7.5-14.8-9.7-7.4-2.8-19.6-6.8-31.8 1.9-2.9 2-23.3 19.2-29.5 72.8-3.8 33.1 14.3 43.7 13.6 43.2 4.7 3.4 15.1 9 29.3.1 9.5-5.9 17.1-17.5 17.1-17.5s3.4-6.5 8-9.3c3.2-2 8.1-.5 8.1-.5h17s5.4-.7 9.2 1c3.7 1.6 5.8 5.6 5.8 5.6s11.2 14.5 22 21.9c4.6 3.1 22.9 6.8 32.5-4.9 6.1-7.6 10.3-31 3.3-62.9zm-90.8-3.3c0 2.9-2.3 5.3-5.2 5.3h-12.8V135c0 2.9-2.3 5.3-5.2 5.3h-3.9c-2.8 0-5.2-2.3-5.2-5.3v-13.1H74c-2.8 0-5.2-2.3-5.2-5.3v-4c0-2.9 2.3-5.3 5.2-5.3h12.8V94.2c0-2.9 2.3-5.3 5.2-5.3h3.9c2.8 0 5.2 2.4 5.2 5.3v13.1H114c2.8 0 5.2 2.3 5.2 5.3v4zm36.3 18.4c-5.3 0-9.7-4.4-9.7-9.9s4.3-9.9 9.7-9.9 9.7 4.4 9.7 9.9c-.1 5.5-4.3 9.9-9.7 9.9zm17.7-21.9c-5.3 0-9.6-4.4-9.6-9.8s4.3-9.8 9.6-9.8 9.6 4.4 9.6 9.8-4.3 9.8-9.6 9.8z"/></svg>