<?xml version="1.0" encoding="utf-8"?>
<!-- Generator: Adobe Illustrator 22.0.0, SVG Export Plug-In . SVG Version: 6.00 Build 0)  -->
<svg version="1.1" id="graphics" xmlns="http://www.w3.org/2000/svg" xmlns:xlink="http://www.w3.org/1999/xlink" x="0px" y="0px"
	 viewBox="0 0 256 256" enable-background="new 0 0 256 256" xml:space="preserve">
<path fill="#08B514" d="M223.3,256H32.6C14.7,256,0,241.3,0,223.4V32.6C0,14.7,14.7,0,32.6,0h190.8C241.3,0,256,14.7,256,32.6v190.8
	C256,241.3,241.3,256,223.3,256z"/>
<g>
	<path fill="#FFFFFF" d="M136.5,125.3l7.3,7.8l5.5,5.9l4.3-5.7l-9.2-8.5c-0.9-0.9-0.9-2.2-0.1-3.1c0.8-0.9,2.1-0.9,3-0.1l8.9,8.2
		l1.8-2.4l-2-1.9l-10-9.7L136.5,125.3z"/>
	<path fill="#FFFFFF" d="M140.1,97.3c-0.1-0.2-10.5-11-24.6-11c-7.6,0-15,3.1-22.1,9.2c4.9,1.4,12.8,5.6,19.3,17.9
		c0.1,0.3,0.2,0.6,0.2,0.9c0.2,2.8,1.3,5.3,3.1,7.1c2,2,4.8,3.1,8.1,3.1c4.6,0,9.4-2.1,13.1-5.9c3.3-3.3,5.3-7.4,5.8-11.4
		C143.4,103.3,142.4,99.8,140.1,97.3z"/>
	<path fill="#FFFFFF" d="M132.2,127.1c-2.7,1.1-5.4,1.7-8.2,1.7c-4.4,0-8.4-1.6-11.2-4.4c-2.5-2.4-3.9-5.7-4.3-9.4
		c-8.2-15.1-17.9-15.9-19.8-15.9c-0.9,0.1-1.8-0.4-2.2-1.2c-0.3-0.8-0.2-1.8,0.4-2.4c8.9-8.9,18.4-13.3,28.4-13.3
		c16,0,27.2,11.7,27.7,12.2c3.3,3.3,4.8,8,4.2,13.2c-0.1,1-0.3,2.1-0.6,3.2c0.3,0.1,0.6,0.3,0.8,0.5l7.9,7.6V66.5
		c0-0.9-0.8-1.7-1.7-1.7H43.9c-0.9,0-1.7,0.8-1.7,1.7v64.8h94L132.2,127.1z"/>
	<path fill="#FFFFFF" d="M82.8,171.2c0,0.3,0.1,0.5,0.1,0.5l31.8-0.1c0-0.1,0.1-0.2,0.1-0.4V168h-32C82.8,168,82.8,171.2,82.8,171.2
		z"/>
	<path fill="#FFFFFF" d="M82.7,153.3c0.1,0,0,0.2,0,0.4v10h32.1v-10c0-0.2-0.1-0.3-0.1-0.4H82.7z"/>
	<path fill="#FFFFFF" d="M42.1,135.6v11.7c0,0.9,0.8,1.7,1.7,1.7h38.8h32.2h37.9l-12.5-13.4H42.1z"/>
	<path fill="#FFFFFF" d="M209.8,177.6L161,130.5l-1.8,2.3l30.4,28.2c0.9,0.8,0.9,2.1,0.1,3c-0.4,0.5-1,0.7-1.6,0.7s-1.1-0.2-1.5-0.6
		l-30.1-27.9l-4.5,6l5.9,6.3l39.1,41.9c1.4,1.4,3.4,2.2,5.6,2.2c2.4,0,4.8-1,6.6-2.8C212.8,186.2,213,180.8,209.8,177.6z"/>
</g>
</svg>
