<?xml version="1.0" encoding="utf-8"?>
<!-- Generator: Adobe Illustrator 22.0.0, SVG Export Plug-In . SVG Version: 6.00 Build 0)  -->
<svg version="1.1" id="hardware" xmlns="http://www.w3.org/2000/svg" xmlns:xlink="http://www.w3.org/1999/xlink" x="0px" y="0px"
	 viewBox="0 0 256 256" enable-background="new 0 0 256 256" xml:space="preserve">
<path fill="#465177" d="M223.3,256H32.6C14.7,256,0,241.3,0,223.4V32.6C0,14.7,14.7,0,32.6,0h190.8C241.3,0,256,14.7,256,32.6v190.8
	C256,241.3,241.3,256,223.3,256z"/>
<g>
	<path fill="#FFFFFF" d="M163.5,62.9c1.4,0,2.5-1.1,2.5-2.5V45.2c0-1.4-1.1-2.5-2.5-2.5s-2.5,1.1-2.5,2.5v15.1
		C161,61.7,162.1,62.9,163.5,62.9z"/>
	<path fill="#FFFFFF" d="M149.7,62.9c1.4,0,2.6-1.1,2.6-2.5V45.2c0-1.4-1.1-2.5-2.6-2.5c-1.4,0-2.5,1.1-2.5,2.5v15.1
		C147.1,61.7,148.3,62.9,149.7,62.9z"/>
	<path fill="#FFFFFF" d="M135.6,62.9c1.4,0,2.5-1.1,2.5-2.5V45.2c0-1.4-1.1-2.5-2.5-2.5s-2.5,1.1-2.5,2.5v15.1
		C133.1,61.7,134.2,62.9,135.6,62.9z"/>
	<path fill="#FFFFFF" d="M121.8,62.9c1.4,0,2.5-1.1,2.5-2.5V45.2c0-1.4-1.1-2.5-2.5-2.5s-2.5,1.1-2.5,2.5v15.1
		C119.2,61.7,120.4,62.9,121.8,62.9z"/>
	<path fill="#FFFFFF" d="M109.1,62.9c1.4,0,2.5-1.1,2.5-2.5V45.2c0-1.4-1.1-2.5-2.5-2.5s-2.5,1.1-2.5,2.5v15.1
		C106.5,61.7,107.7,62.9,109.1,62.9z"/>
	<path fill="#FFFFFF" d="M95.2,62.9c1.4,0,2.5-1.1,2.5-2.5V45.2c0-1.4-1.1-2.5-2.5-2.5s-2.5,1.1-2.5,2.5v15.1
		C92.7,61.7,93.8,62.9,95.2,62.9z"/>
	<path fill="#FFFFFF" d="M60.3,89H45.2c-1.4,0-2.5,1.1-2.5,2.5s1.1,2.5,2.5,2.5h15.1c1.4,0,2.5-1.1,2.5-2.5
		C62.8,90.1,61.7,89,60.3,89z"/>
	<path fill="#FFFFFF" d="M60.3,102.9H45.2c-1.4,0-2.5,1.1-2.5,2.5s1.1,2.5,2.5,2.5h15.1c1.4,0,2.5-1.1,2.5-2.5
		C62.9,104,61.7,102.9,60.3,102.9z"/>
	<path fill="#FFFFFF" d="M60.3,116.9H45.2c-1.4,0-2.5,1.1-2.5,2.5s1.1,2.5,2.5,2.5h15.1c1.4,0,2.5-1.1,2.5-2.5
		C62.9,118.1,61.7,116.9,60.3,116.9z"/>
	<path fill="#FFFFFF" d="M60.3,130.8H45.2c-1.4,0-2.5,1.1-2.5,2.5s1.1,2.5,2.5,2.5h15.1c1.4,0,2.5-1.1,2.5-2.5
		C62.9,131.9,61.7,130.8,60.3,130.8z"/>
	<path fill="#FFFFFF" d="M60.3,143.5H45.2c-1.4,0-2.5,1.1-2.5,2.5s1.1,2.6,2.5,2.6h15.1c1.4,0,2.5-1.1,2.5-2.6
		C62.9,144.6,61.7,143.5,60.3,143.5z"/>
	<path fill="#FFFFFF" d="M60.3,157.3H45.2c-1.4,0-2.5,1.1-2.5,2.5s1.1,2.5,2.5,2.5h15.1c1.4,0,2.5-1.1,2.5-2.5
		C62.9,158.5,61.7,157.3,60.3,157.3z"/>
	<path fill="#FFFFFF" d="M163.5,192.5c-1.4,0-2.5,1.1-2.5,2.5v15.1c0,1.4,1.1,2.5,2.5,2.5s2.5-1.1,2.5-2.5V195
		C166.1,193.6,164.9,192.5,163.5,192.5z"/>
	<path fill="#FFFFFF" d="M149.7,192.5c-1.4,0-2.5,1.1-2.5,2.5v15.1c0,1.4,1.1,2.5,2.5,2.5s2.6-1.1,2.6-2.5V195
		C152.2,193.6,151.1,192.5,149.7,192.5z"/>
	<path fill="#FFFFFF" d="M135.6,192.5c-1.4,0-2.5,1.1-2.5,2.5v15.1c0,1.4,1.1,2.5,2.5,2.5s2.5-1.1,2.5-2.5V195
		C138.2,193.6,137,192.5,135.6,192.5z"/>
	<path fill="#FFFFFF" d="M121.8,192.5c-1.4,0-2.5,1.1-2.5,2.5v15.1c0,1.4,1.1,2.5,2.5,2.5s2.5-1.1,2.5-2.5V195
		C124.3,193.6,123.2,192.5,121.8,192.5z"/>
	<path fill="#FFFFFF" d="M109.1,192.5c-1.4,0-2.5,1.1-2.5,2.5v15.1c0,1.4,1.1,2.5,2.5,2.5s2.5-1.1,2.5-2.5V195
		C111.6,193.6,110.5,192.5,109.1,192.5z"/>
	<path fill="#FFFFFF" d="M95.2,192.5c-1.4,0-2.5,1.1-2.5,2.5v15.1c0,1.4,1.1,2.5,2.5,2.5s2.5-1.1,2.5-2.5V195
		C97.7,193.6,96.6,192.5,95.2,192.5z"/>
	<path fill="#FFFFFF" d="M170.5,69.5H88.1c-8.7,0-15.6,7.1-15.6,15.6v82.4c0,8.7,7.1,15.7,15.6,15.7h82.4c8.7,0,15.6-7.1,15.6-15.7
		V85.2C186.2,76.6,179.2,69.5,170.5,69.5z M96.1,94.5c-2.8,0-5-2.2-5-5s2.2-5,5-5s5,2.3,5,5C101.1,92.3,98.9,94.5,96.1,94.5z
		 M155.9,151.3h-52.4v-53h52.4V151.3z"/>
	<path fill="#FFFFFF" d="M195,94.1h15.1c1.4,0,2.5-1.1,2.5-2.5s-1.1-2.5-2.5-2.5H195c-1.4,0-2.5,1.1-2.5,2.5S193.6,94.1,195,94.1z"
		/>
	<path fill="#FFFFFF" d="M210.2,102.9h-15.1c-1.4,0-2.5,1.1-2.5,2.5s1.1,2.5,2.5,2.5h15.1c1.4,0,2.5-1.1,2.5-2.5
		S211.6,102.9,210.2,102.9z"/>
	<path fill="#FFFFFF" d="M210.2,116.9h-15.1c-1.4,0-2.5,1.1-2.5,2.5s1.1,2.5,2.5,2.5h15.1c1.4,0,2.5-1.1,2.5-2.5
		C212.7,118.1,211.6,116.9,210.2,116.9z"/>
	<path fill="#FFFFFF" d="M210.2,130.8h-15.1c-1.4,0-2.5,1.1-2.5,2.5s1.1,2.5,2.5,2.5h15.1c1.4,0,2.5-1.1,2.5-2.5
		C212.7,131.9,211.6,130.8,210.2,130.8z"/>
	<path fill="#FFFFFF" d="M210.2,143.5h-15.1c-1.4,0-2.5,1.1-2.5,2.5s1.1,2.6,2.5,2.6h15.1c1.4,0,2.5-1.1,2.5-2.6
		C212.7,144.6,211.6,143.5,210.2,143.5z"/>
	<path fill="#FFFFFF" d="M210.2,157.3h-15.1c-1.4,0-2.5,1.1-2.5,2.5s1.1,2.5,2.5,2.5h15.1c1.4,0,2.5-1.1,2.5-2.5
		C212.7,158.5,211.6,157.3,210.2,157.3z"/>
</g>
</svg>
