<svg xmlns="http://www.w3.org/2000/svg" viewBox="0 0 256 256"><path fill="#0262a3" d="M223.3 256H32.6C14.7 256 0 241.3 0 223.4V32.6C0 14.7 14.7 0 32.6 0h190.8C241.3 0 256 14.7 256 32.6v190.8c0 17.9-14.7 32.6-32.7 32.6z"/><path d="M77.9 185.5c.7-5.4.6-11.1 2.3-16.1 3.1-9.9 10.4-15.9 20.8-16.9 7.4-.7 15-.8 22.4-.1 14.2 1.4 23.3 11.7 23.6 26.2.1 5.6-.1 11.3.1 16.8.1 2.7-1 3.8-3.3 4.6-11.6 4.3-23.5 6-35.7 4.7-9-1-17.9-3.2-26.8-4.9-2.1-.4-2.9-1.4-2.8-3.6.2-3.5 0-7 0-10.5-.2-.2-.4-.2-.6-.2zm8.8-53.8l7.7 17.1c-15.3 6-21.6 18.2-20.7 35-10.2-.4-19.5-2.5-28.8-5.4-.7-.2-1.5-1.7-1.5-2.6 0-7.5-.2-15 .3-22.5.7-10.5 10-20.4 20.7-21.6 7.5-.7 15.4 0 22.3 0zm98.1 32.1c1.1-17-5.3-29.4-21.5-35.6 4-4.6 6.8-9.5 7.3-15.4 0-.6 1.1-1.6 1.6-1.6 8 .4 16-.1 23.7 1.6 9.8 2.1 16.6 11.7 17.2 21.7.4 7 .3 13.9.2 20.9 0 1-1 2.6-2 3-8.3 3.6-17 5.1-26.5 5.4zm-33.2 20.3c1.2-16.9-5.1-29.2-20.6-35.2l7.8-17.2c11.4-3.9 28.7.5 36 10 3.2 4.1 5 8.7 5.2 13.7.2 6.8.2 13.4.1 20.2 0 1-.7 2.6-1.5 3-8.5 3.5-17.3 5.2-27 5.5zm-39.9-91.6c-12 0-21.7-9.6-21.7-21.6s10-22 21.9-21.9c11.8.2 21.6 10.1 21.6 21.9-.1 12-9.9 21.6-21.8 21.6zm1.1 58c-11.1 0-20-8.9-20-19.9s8.9-20 19.9-20 20 9 20.1 20c0 10.8-9 19.9-20 19.9zm-55.3-40.6c0-10.8 8.1-19.3 19.1-20.1 10-.7 19.6 7.4 20.6 17.7.2 1.7-.8 3.7-1.7 5.3-2.1 3.9-4.4 7.7-6.8 11.5-1 1.5-2.1 3.4-3.7 4.1-12.9 5.5-27.5-4.3-27.5-18.5zm108.3-.2a19.93 19.93 0 0 1-25 19.5c-2.2-.6-3.7-1.5-4.2-4-1-5.8-4-10.5-8.8-13.9-2-1.4-2.2-3.1-1.8-5.2 1.9-9.8 11.3-17.2 20.7-16.3 11.3 1 19.1 9.2 19.1 19.9zm33.2-20c0 13.1-12.5 22.7-25.2 19.3-2.2-.6-3.6-1.6-4-4.2-1.1-5.7-4.3-10.3-8.8-13.9-1.1-.9-1.9-3-1.7-4.3 1.3-10 10.8-17.6 20.5-16.9 11.1.6 19.2 9.1 19.2 20zm-73 4.9l-4.4 12.6c-6.5-2.3-13.3-2.3-19.6 1l-4.4-13.6H126z" fill="#fff"/></svg>