<svg xmlns="http://www.w3.org/2000/svg" viewBox="0 0 256 256"><path fill="#f99a10" d="M223.3 256H32.6C14.7 256 0 241.3 0 223.4V32.6C0 14.7 14.7 0 32.6 0h190.8C241.3 0 256 14.7 256 32.6v190.8c0 17.9-14.7 32.6-32.7 32.6z"/><path d="M207.2 212.7h-145c-.4-.1-.7-.3-1-.4-7.3-1.5-13.2-7.4-14.1-14.9-.4-3-.2-5.9-.2-9V47.5c0-2.2.6-3.7 2.4-4.9H193c2 1 2.7 2.6 2.6 4.8-.1 1.3 0 2.7 0 4v5.3c.4.1.5.2.6.2h8.8c3.7 0 4.7 1 4.7 4.8v146.2c0 2.1-.6 3.8-2.5 4.8zM54.1 50v141.5h134.2V50H54.1zm141.4 14.2v129.5c0 3.8-1 5-5 5h-136c.2.5.2.8.3 1 .1.3.3.6.5.9 2.4 3.9 6 5.2 10.4 5.2h136.7V64.2h-6.9zM89.3 99.5h24.2c2.9 0 4.1 1.2 4.1 4.2v41.1c0 2.9-1.3 4.2-4.2 4.2H65.1c-2.8 0-4.2-1.3-4.2-4.1v-41.3c0-2.9 1.4-4 4.3-4.1h24.1zm21.2 42.4v-35.3H68.2v35.3h42.3zm18.3-65.7l2.9-8.5c.8-2.3 1.7-3.1 3.6-3.1s3 .8 3.7 3.1c.9 2.7 1.8 5.2 3.1 7.9 1-3.6 1.8-7.2 2.8-10.8.4-1.4.7-2.9 1-4.4.7-2.6 2.3-3.8 4.5-3.3 2.1.5 3.1 2.4 2.4 5.1l-4.4 17.6c-.8 3.1-1.5 6.3-2.4 9.4-.6 2.1-1.6 3.1-3.3 3.1-1.8 0-3-.8-3.6-2.8l-3.5-10.6-3.1 9c-.2.7-.4 1.2-.7 1.9-.7 1.8-1.9 2.6-3.6 2.5-1.6-.1-2.9-1.1-3.3-3l-4.1-16.4c-1-3.7-1.8-7.3-2.8-11.1-.6-2.3.5-4.3 2.4-4.8 2-.5 3.8.6 4.4 3 1.2 5.2 2.5 10.5 4 16.2zm-60.7-4.9v16.3c0 .8-.1 1.5-.3 2.3-.4 1.5-1.7 2.5-3.3 2.4-1.6 0-2.9-1-3.3-2.5-.1-.5-.2-1-.2-1.4V61c0-.9.3-1.9.9-2.6 1.4-2 4.2-1.8 5.8.5l11.4 15.3 3.1 4v-2.1c0-4.9-.1-9.7.1-14.6 0-1.1.5-2.6 1.2-3.4 1.7-1.9 5-1 5.6 1.5.2.6.3 1.2.3 1.8v26.7c0 3-1.8 4.8-4.2 4.2-1-.3-2-1.1-2.7-2L69.4 72.9c-.3-.4-.6-.8-1.3-1.6zm106.2 13.9v-4.4c-.1-1.8-1-2.7-2.9-2.6-3.4.1-6.5-.6-8.9-3.2-5.2-5.6-2.5-16 4.7-17.7 2.2-.5 4.5-.2 6.8-.3h4c2.1.1 3.4 1.4 3.5 3.4 0 2-1.3 3.5-3.3 3.5-2.6.1-5.2 0-7.8 0-2.4 0-3.1.8-3.1 3.4 0 2.9.7 3.6 3.1 3.6 4.5-.1 8.3 1.2 10.2 5.5 1.6 3.5 1.3 7.3.5 11.1-.7 2.9-3.4 4.6-6.4 4.6h-10.3c-2.2 0-3.6-1.3-3.7-3.3-.1-2.1 1.4-3.6 3.6-3.6h10zm-70.8-21v6.9h6.5c2.2 0 3.6 1 4 2.8.5 2.3-1 4.2-3.5 4.4-1.6.1-3.3 0-5 0h-1.9v7.1h6.5c2.5 0 4.1 1.4 4 3.6 0 2.2-1.4 3.4-4 3.4h-9.8c-2.5 0-3.9-1.3-3.9-3.9V61.1c0-2.7 1.3-4 3.9-4h9.8c2.5 0 3.9 1.3 3.9 3.5 0 2.1-1.5 3.5-3.9 3.5H104c-.1 0-.2.1-.5.1zm49.5 49.4h20.4c2.8 0 4.3 1.2 4.4 3.4.1 1.7-1 3.1-2.7 3.5-.7.2-1.4.2-2.1.2h-39.8c-3.2 0-5-1.2-5-3.6 0-2.3 1.7-3.5 5-3.5H153zm-63.9 49.6c-6.8 0-13.5.1-20.2-.1-1.1 0-2.5-.4-3.2-1.1-1.9-1.7-1-5 1.4-5.7.5-.2 1-.2 1.6-.2H110c2.5 0 3.9 1.2 4.1 3.2.2 2.4-1.3 3.9-4 3.9h-21zm64-7.2h20.6c2.5 0 4 1.3 4.1 3.4.1 1.9-1 3.2-3 3.6-.8.1-1.6.1-2.5.1h-40.7c-1.9-.2-3.2-1.7-3.2-3.5s1.4-3.3 3.3-3.5c.5-.1 1 0 1.5 0l19.9-.1zm0-56.5H174c2.3 0 3.7 1.4 3.7 3.5s-1.5 3.4-3.8 3.5h-41.6c-2.5 0-4.1-1.4-4.1-3.5s1.5-3.4 4-3.4l20.9-.1zm-.1 35.4h-20.9c-2.2 0-3.6-1.2-3.8-3.1-.3-2.1 1.3-3.9 3.7-3.9h41.7c2.6 0 4.1 1.5 3.9 3.8-.1 2-1.6 3.2-3.9 3.2H153zm0 14.1h-20.9c-1.9 0-3.1-.9-3.6-2.5-.5-1.5 0-2.9 1.3-3.8.7-.5 1.5-.7 2.3-.7h42c2.3 0 3.8 1.4 3.8 3.4 0 2.1-1.5 3.5-3.9 3.5l-21 .1zm-63.5 21.2h20.9c1.8 0 3.1 1 3.6 2.4s0 3.1-1.3 3.9c-.6.4-1.4.7-2.2.7H68.3c-2.3 0-3.8-1.5-3.7-3.5 0-2 1.5-3.5 3.8-3.5h21.1zm63.5 7.1h-20.9c-2.5 0-4.2-1.9-3.8-4.1.4-1.8 1.8-2.9 3.9-3H174c2.6 0 4.1 1.8 3.7 4.1-.3 1.8-1.7 2.9-3.8 2.9l-20.9.1z" fill="#fff"/></svg>