<svg xmlns="http://www.w3.org/2000/svg" viewBox="0 0 256 256"><path fill="#006692" d="M223.3 256H32.6C14.7 256 0 241.3 0 223.4V32.6C0 14.7 14.7 0 32.6 0h190.8C241.3 0 256 14.7 256 32.6v190.8c0 17.9-14.7 32.6-32.7 32.6z"/><path fill="#fff" d="M88.5 182.5c-22.5 0-38.3-7.4-43.5-20.6-4.6-11.8 0-26.3 13.1-41.1 12.5-14.2 31.4-26.9 53.2-35.9 19-7.9 38.9-12.3 55.8-12.3 22.6 0 38.4 7.4 43.5 20.6 4.6 11.8 0 26.3-13.1 41.1-12.5 14.2-31.4 26.9-53.2 35.9-19 7.9-38.9 12.3-55.8 12.3zm78.6-104c-16.3 0-35.3 4.2-53.8 11.9-21 8.7-39.1 21-51.1 34.5-11.4 13-15.6 25.3-12 35 4.2 10.7 18.1 16.8 38.1 16.8 16.3 0 35.3-4.2 53.8-11.9 21-8.7 39.1-21 51.1-34.5 11.4-13 15.6-25.3 12-35-4.1-10.7-18.1-16.8-38.1-16.8zm-75 103.6c-21.8 0-37.1-7.3-42-20-4.5-11.5 0-25.7 12.8-40 12.1-13.6 30.3-25.9 51.3-34.6 18.4-7.6 37.6-11.9 54.2-11.9 21.8 0 37.1 7.3 42 20 9 23.2-19.1 55.9-64.1 74.6-18.6 7.6-37.8 11.9-54.2 11.9zm76.1-99.3c-15.6 0-33.9 4.1-51.6 11.4-20.1 8.3-37.3 20-48.7 32.8-10.6 12-14.8 23.8-11.4 32.5 3.8 9.8 16.7 15.4 35.5 15.4 15.6 0 33.9-4.1 51.6-11.4 39.9-16.6 67.4-46.4 60.2-65.2-3.8-9.9-16.8-15.5-35.6-15.5zm6.7 121.8c-21.2 0-50.8-16.8-75.3-43.1-16.7-17.7-29.4-37.6-35.5-55.9-6.6-19.1-5.4-34.4 3.3-43.2 4.8-4.8 11.3-7.2 19.5-7.2 21.2 0 50.8 16.8 75.4 43 16.7 17.7 29.4 37.6 35.5 55.9 6.5 19.1 5.2 34.4-3.4 43.1-4.7 5-11.4 7.4-19.5 7.4zM86.8 61.2c-6.6 0-11.9 1.9-15.5 5.5-7 7-7.7 20.2-2 37 5.9 17.5 18.1 36.6 34.4 53.8 23.7 25 51.6 41.3 71.4 41.3 6.6 0 11.9-1.9 15.5-5.5 7-7 7.7-20.2 2-36.9-5.9-17.5-18.1-36.6-34.4-53.8-23.7-25.2-51.7-41.4-71.4-41.4zM171 205c-20.4 0-49-16.3-72.8-41.7-16.1-17-28.3-36.2-34.4-53.8-6.4-18.5-5.2-33.4 3.1-41.9 4.7-4.7 11-7 18.9-7 20.4 0 49 16.3 72.8 41.7 34.5 36.5 48.1 78.6 31.2 95.7-4.7 4.7-11 7-18.8 7zM85.8 67.9c-6 0-10.8 1.7-14.1 5-6.3 6.3-6.8 18.9-1.5 34.4 5.7 16.6 17.4 34.9 32.8 51.2 22.6 24 49.3 39.5 67.9 39.5 6 0 10.8-1.7 14.1-5 13.8-13.9-.6-53-31.3-85.5-22.6-24.2-49.3-39.7-67.9-39.6zm52.3 60.7c0 5.6-4.5 10.2-9.9 10.2s-9.9-4.7-9.9-10.2c0-5.6 4.5-10.2 9.9-10.2s9.9 4.5 9.9 10.2zm-32.7 84.3c-4 0-7.7-.8-11.2-2.5-11.7-5.4-18.7-19.3-19.8-39.1-1-19.1 3.7-41.6 13.1-63.3 16.7-38.3 44.4-65.1 67.3-65.1 4 0 7.7.8 11.2 2.5 11.7 5.4 18.7 19.3 19.8 39.1 1 19-3.7 41.6-13.1 63.3-16.6 38.3-44.3 65.1-67.3 65.1zm49.4-164.1c-20.5 0-46.6 25.9-62.2 61.6-9.1 20.9-13.6 42.4-12.6 60.5.9 17.4 6.7 29.6 16.4 34.1 2.8 1.3 5.6 1.9 8.9 1.9 20.5 0 46.6-25.9 62.2-61.6 9.1-20.9 13.6-42.4 12.6-60.5-.9-17.4-6.7-29.6-16.4-34.1-2.7-1.2-5.7-1.9-8.9-1.9zm-52.6 161.6c-3.7 0-7.1-.8-10.3-2.3-11.2-5.2-17.7-18.8-18.4-38.3-.6-18.6 4.2-40.6 13.5-62 16.6-38.2 43.6-64.9 65.5-64.9 3.7 0 7.1.8 10.3 2.3 11.2 5.2 17.7 18.8 18.4 38.3.6 18.6-4.2 40.6-13.5 62-16.6 38.1-43.7 64.9-65.5 64.9zm50.3-160.2c-19 0-43.9 25.5-59.2 60.6-8.9 20.4-13.5 41.3-12.9 58.7.6 16.6 5.6 27.9 14.4 32 2.3 1.1 4.8 1.6 7.4 1.6 19 0 43.9-25.5 59.2-60.6 8.9-20.4 13.5-41.3 12.9-58.7-.6-16.6-5.6-27.9-14.4-32-2.3-1.1-4.8-1.6-7.4-1.6z"/></svg>