<?xml version="1.0" encoding="utf-8"?>
<!-- Generator: Adobe Illustrator 22.0.0, SVG Export Plug-In . SVG Version: 6.00 Build 0)  -->
<svg version="1.1" id="software" xmlns="http://www.w3.org/2000/svg" xmlns:xlink="http://www.w3.org/1999/xlink" x="0px" y="0px"
	 viewBox="0 0 256 256" enable-background="new 0 0 256 256" xml:space="preserve">
<path fill="#E0A80B" d="M223.3,256H32.6C14.7,256,0,241.3,0,223.4V32.6C0,14.7,14.7,0,32.6,0h190.8C241.3,0,256,14.7,256,32.6v190.8
	C256,241.3,241.3,256,223.3,256z"/>
<g>
	<path fill="#FFFFFF" d="M212.6,43.6c0,56.5,0,112.8,0,169.4c-32.9,0-65.6,0-98.9,0c1.4-0.6,2.4-1,3.4-1.4
		c25.4-8.4,41.2-30.2,40.7-56.7c-0.1-3.9,1-5.6,4.4-6.9c3-1.2,5.6-3.2,8.7-4.9c-0.9-2.2-1.9-3.9-2.2-5.6c-0.3-1.6-0.3-3.9,0.6-4.8
		c1.1-1.2,3.7-2.5,4.9-2c5.2,1.9,7.2-0.5,8.1-5.1c0.5-2.3,1.2-4.5,1.6-6.9c1.4-7,1.4-7-5.3-9.2c-3.9-1.2-4.8-5.5-2-8.3
		c1.5-1.4,3.1-2.8,5.3-4.7c-4-4.8-7.8-9.5-11.7-14.1c-2.3-2.7-3.9-0.1-5.5,1c-2.1,1.4-4,3.7-6.5,1.1c-1.2-1.3-2.6-3.3-2.5-4.8
		c0.2-4.9-2.1-6.3-6.5-6.1c-4,0.2-7.9-0.1-11.8,0.4c-1.2,0.2-2.8,2.1-3.2,3.5c-0.7,2.7,0.6,5.7-3.2,7.5c-3.9,1.8-5.2-1.5-7.7-2.7
		c-0.7-0.3-1.3-0.8-1.9-1.2c-7,4.6-13,13.4-12.1,17.8c-5.4,0-11-0.5-16.4,0.1s-10.7,2.3-16.1,3.5c-1.1-14.7-0.4-29.1,9.5-41.5
		c8.8-10.9,20.2-17.3,34.2-17.5c30-0.4,60.2-0.1,90.2-0.1C211,43.4,211.5,43.4,212.6,43.6z"/>
	<path fill="#FFFFFF" d="M155.8,156.5c-0.1,30.7-25.3,55.8-55.9,55.7c-30.9,0-56.1-25.3-55.9-56.3c0.2-30.8,25.2-55.8,55.9-55.8
		C130.8,100.2,155.9,125.5,155.8,156.5z M123.8,156.3c-0.1-13.3-10.8-24.1-24-24c-13.1,0-24,10.9-24,24.1
		c-0.1,13,10.9,23.9,24.1,23.9C113.2,180.3,123.9,169.6,123.8,156.3z"/>
	<path fill="#FFFFFF" d="M151.6,123.9c-6.6-6.2-12.3-11.6-18.5-17.2c1.9-4.6,6.9-7.8,12.9-7.1c5.8,0.7,10.7,5.1,11.6,10.7
		C158.7,116.8,155.9,122.1,151.6,123.9z"/>
	<path fill="#FFFFFF" d="M87.7,156.5c-0.1-6.9,5.1-12.3,12.1-12.3c6.8,0,12.3,5.3,12.3,12.1c0,6.4-5.4,12.1-12,12.2
		C93.4,168.7,87.8,163.3,87.7,156.5z"/>
</g>
</svg>
