<svg xmlns="http://www.w3.org/2000/svg" viewBox="0 0 256 256"><path fill="#f65314" d="M223.3 256H32.6C14.7 256 0 241.3 0 223.4V32.6C0 14.7 14.7 0 32.6 0h190.8C241.3 0 256 14.7 256 32.6v190.8c0 17.9-14.7 32.6-32.7 32.6z"/><path fill="#fff" d="M77.4 58.6c10.8-4.3 20.1-6.4 28.7-6.6 4.5 0 8.8.5 12.9 1.4 6.2 1.6 14.7 6.2 17.9 8.1l-15.4 52.4c-7.9-5-17.3-9.9-30.1-10-8.6 0-17.8 2-28.6 6l14.6-51.3zm24.1 125.9l15.7-53.3c-2-1.2-4-2.4-6.1-3.5-7.9-4.1-15.6-6.1-22.8-6.1-1 0-2 0-3 .1-9.3.8-17.7 3.2-23.2 5.1-1.4.5-2.9 1.1-4.5 1.7L42.7 180c10.3-3.8 19.3-5.6 27.6-5.6 13.4-.1 23.1 4.9 31.2 10.1zm90.8-38.4c-9.7 3.2-19 4.7-27.8 4.7-15.9 0-27.1-5.2-34.1-10.1l-15 51.9c4.5 2.6 19.4 10.6 30.9 10.6 9.3 0 19.6-2.4 31.7-7.2l14.3-49.9zm20.4-70.3c-9.8 3.8-19.3 5.7-28.4 5.7-15.2 0-26.4-5.3-33.7-10.3l-15.2 52.6c10.3 6.6 21.3 9.9 32.9 9.9 9.5 0 19.2-2.2 29.2-6.7l-.1-.4.6-.1 14.7-50.7z"/></svg>